<svg width="61" height="60" viewBox="0 0 61 60" fill="none" xmlns="http://www.w3.org/2000/svg">
<path d="M25.0205 39.981H35.0205C36.6805 39.981 38.0205 38.641 38.0205 36.981V27.981C38.0205 26.321 36.6805 24.981 35.0205 24.981V22.981C35.0205 20.221 32.7805 17.981 30.0205 17.981C27.2605 17.981 25.0205 20.221 25.0205 22.981V24.981C23.3605 24.981 22.0205 26.321 22.0205 27.981V36.981C22.0205 38.641 23.3605 39.981 25.0205 39.981ZM27.0205 22.991C27.0205 21.331 28.3605 19.991 30.0205 19.991C31.6805 19.991 33.0205 21.331 33.0205 22.991V24.991H27.0205V22.991ZM24.0205 27.991C24.0205 27.441 24.4705 26.991 25.0205 26.991H35.0205C35.5705 26.991 36.0205 27.441 36.0205 27.991V36.991C36.0205 37.541 35.5705 37.991 35.0205 37.991H25.0205C24.4705 37.991 24.0205 37.541 24.0205 36.991V27.991Z" fill="#333343"/>
<path d="M29.0109 34.8008V34.9808C29.0109 35.5308 29.4609 35.9808 30.0109 35.9808C30.5609 35.9808 31.0109 35.5308 31.0109 34.9808V34.8008C32.5709 34.2508 33.3909 32.5308 32.8409 30.9708C32.2909 29.4108 30.5709 28.5908 29.0109 29.1408C27.4509 29.6908 26.6309 31.4108 27.1809 32.9708C27.4809 33.8208 28.1509 34.5008 29.0109 34.8008ZM30.0109 30.9908C30.5609 30.9908 31.0109 31.4408 31.0109 31.9908C31.0109 32.5408 30.5609 32.9908 30.0109 32.9908C29.4609 32.9908 29.0109 32.5408 29.0109 31.9908C29.0109 31.4408 29.4609 30.9908 30.0109 30.9908Z" fill="#333343"/>
<path d="M13.0205 29.991C13.0205 39.371 20.6305 46.981 30.0105 46.981C39.3905 46.981 47.0005 39.371 47.0005 29.991C47.0005 20.611 39.3905 13.001 30.0105 13.001C20.6305 13.001 13.0205 20.611 13.0205 29.991ZM30.0105 15.001C38.2905 15.001 45.0005 21.711 45.0005 29.991C45.0005 38.271 38.2905 44.981 30.0105 44.981C21.7305 44.981 15.0205 38.271 15.0205 29.991C15.0205 21.711 21.7305 15.001 30.0105 15.001Z" fill="#333343"/>
<path d="M50.0005 51.9808C48.1805 51.9808 46.6005 53.2208 46.1405 54.9808H39.0005V48.9408C41.2405 47.8908 43.2705 46.4508 45.0005 44.6908C45.4005 44.3108 45.4105 43.6708 45.0305 43.2808C44.6505 42.8808 44.0105 42.8708 43.6205 43.2508C43.6105 43.2608 43.5905 43.2808 43.5805 43.2908C41.8805 45.0208 39.8705 46.4208 37.6505 47.3908C37.5205 47.4408 37.3905 47.5308 37.3005 47.6308C37.2905 47.6408 37.2805 47.6608 37.2705 47.6708C37.2005 47.7508 37.1405 47.8408 37.1005 47.9408C37.0805 48.0008 37.0705 48.0708 37.0605 48.1308C37.0405 48.1908 37.0305 48.2408 37.0205 48.3008V54.9708C37.0205 56.0708 37.9205 56.9708 39.0205 56.9708H46.1505C46.7105 59.1008 48.8905 60.3808 51.0205 59.8208C53.1505 59.2608 54.4305 57.0808 53.8705 54.9508C53.4105 53.1908 51.8205 51.9708 50.0005 51.9708V51.9808ZM50.0005 57.9808C48.9005 57.9808 48.0005 57.0808 48.0005 55.9808C48.0005 54.8808 48.9005 53.9808 50.0005 53.9808C51.1005 53.9808 52.0005 54.8808 52.0005 55.9808C52.0005 57.0808 51.1005 57.9808 50.0005 57.9808Z" fill="#333343"/>
<path d="M7.88083 40.9807H12.7108H12.7308C12.8308 40.9807 12.9308 40.9607 13.0208 40.9207C13.0708 40.9007 13.1108 40.8907 13.1608 40.8607C13.1708 40.8607 13.1808 40.8607 13.1908 40.8407C13.2008 40.8207 13.2208 40.8107 13.2308 40.8007C13.3208 40.7407 13.4008 40.6707 13.4708 40.5907C13.4808 40.5707 13.4908 40.5607 13.5008 40.5407C13.5608 40.4507 13.6108 40.3507 13.6408 40.2407C13.6408 40.2207 13.6408 40.2107 13.6408 40.1907C13.6608 40.1207 13.6808 40.0407 13.6908 39.9707C13.6908 39.9307 13.6808 39.8907 13.6708 39.8607C13.6708 39.8507 13.6708 39.8307 13.6708 39.8207C13.6508 39.7007 13.6108 39.5907 13.5608 39.4907V39.4707C12.5308 37.7007 11.8008 35.7707 11.3908 33.7707C11.2908 33.2307 10.7708 32.8607 10.2308 32.9607C9.69083 33.0607 9.32083 33.5807 9.42083 34.1207V34.1707C9.77083 35.8307 10.3008 37.4407 11.0308 38.9707H7.87083C7.32083 36.8307 5.14083 35.5407 3.00083 36.1007C0.860834 36.6507 -0.429166 38.8307 0.130834 40.9707C0.680834 43.1107 2.86083 44.4007 5.00083 43.8407C6.41083 43.4807 7.51083 42.3807 7.87083 40.9707L7.88083 40.9807ZM4.02083 41.9807C2.92083 41.9807 2.02083 41.0807 2.02083 39.9807C2.02083 38.8807 2.92083 37.9807 4.02083 37.9807C5.12083 37.9807 6.02083 38.8807 6.02083 39.9807C6.02083 41.0807 5.12083 41.9807 4.02083 41.9807Z" fill="#333343"/>
<path d="M0.03125 19.9909C0.03125 22.1909 1.81125 23.9809 4.01125 23.9909C5.83125 23.9909 7.42125 22.7609 7.88125 20.9909H12.7412C12.8412 20.9909 12.9412 20.9609 13.0312 20.9309C13.0712 20.9209 13.1212 20.9009 13.1612 20.8809C13.2112 20.8509 13.2612 20.8209 13.3112 20.7809C13.3912 20.7209 13.4712 20.6409 13.5312 20.5509C13.5413 20.5309 13.5612 20.5209 13.5712 20.5009C14.8512 18.2809 16.5713 16.3409 18.6313 14.8009C19.0713 14.4709 19.1612 13.8409 18.8312 13.4009C18.5012 12.9609 17.8713 12.8709 17.4312 13.2009C15.3312 14.7909 13.5412 16.7509 12.1712 19.0009H7.88125C7.33125 16.8709 5.16125 15.5809 3.02125 16.1309C1.26125 16.5809 0.03125 18.1809 0.03125 20.0009V19.9909ZM6.03125 19.9909C6.03125 21.0909 5.13125 21.9909 4.03125 21.9909C2.93125 21.9909 2.03125 21.0909 2.03125 19.9909C2.03125 18.8909 2.93125 17.9909 4.03125 17.9909C4.56125 17.9909 5.07125 18.2009 5.44125 18.5809C5.82125 18.9509 6.03125 19.4609 6.03125 19.9909Z" fill="#333343"/>
<path d="M56.0013 35.9909C54.1813 35.9909 52.6013 37.2309 52.1413 38.9909H48.9813C49.7113 37.4609 50.2413 35.8509 50.5813 34.1909C50.6913 33.6509 50.3413 33.1209 49.8013 33.0109C49.2613 32.9009 48.7313 33.2509 48.6213 33.7909C48.2113 35.7909 47.4913 37.7209 46.4613 39.4909C46.4013 39.6109 46.3613 39.7209 46.3413 39.8509C46.3413 39.8609 46.3413 39.8709 46.3413 39.8809C46.3313 39.9209 46.3213 39.9509 46.3213 39.9909C46.3213 40.0709 46.3413 40.1509 46.3713 40.2209C46.3713 40.2309 46.3713 40.2509 46.3713 40.2609C46.4013 40.3709 46.4513 40.4709 46.5213 40.5609C46.5313 40.5809 46.5413 40.5909 46.5513 40.6009C46.6213 40.6809 46.7013 40.7609 46.7913 40.8109C46.8113 40.8209 46.8213 40.8409 46.8313 40.8509C46.8413 40.8509 46.8513 40.8609 46.8713 40.8709C46.9113 40.8909 46.9613 40.9109 47.0113 40.9309C47.1013 40.9609 47.2013 40.9809 47.3013 40.9909H47.3213H52.1513C52.7113 43.1209 54.8913 44.4009 57.0213 43.8409C59.1513 43.2809 60.4313 41.1009 59.8713 38.9709C59.4113 37.2109 57.8213 35.9909 56.0013 35.9909ZM56.0013 41.9909C54.9013 41.9909 54.0013 41.0909 54.0013 39.9909C54.0013 38.8909 54.9013 37.9909 56.0013 37.9909C57.1013 37.9909 58.0013 38.8909 58.0013 39.9909C58.0013 41.0909 57.1013 41.9909 56.0013 41.9909Z" fill="#333343"/>
<path d="M23.0211 48.3208V48.3008C23.0211 48.2408 23.0011 48.1908 22.9911 48.1308C22.9911 48.0608 22.9711 48.0008 22.9511 47.9308C22.9111 47.8308 22.8511 47.7408 22.7811 47.6608C22.7711 47.6408 22.7611 47.6308 22.7511 47.6108C22.6511 47.5008 22.5311 47.4208 22.3911 47.3708C19.7711 46.2208 17.4511 44.4908 15.5911 42.3208C15.2511 41.8908 14.6211 41.8108 14.1911 42.1608C13.7611 42.5008 13.6811 43.1308 14.0311 43.5608C14.0511 43.5808 14.0611 43.6008 14.0811 43.6208C16.0011 45.8608 18.3711 47.6708 21.0411 48.9408V54.9708H13.9011C13.3511 52.8308 11.1711 51.5408 9.03111 52.1008C6.89111 52.6508 5.60111 54.8308 6.16111 56.9708C6.72111 59.1108 8.89111 60.4008 11.0311 59.8408C12.4411 59.4808 13.5411 58.3808 13.9011 56.9708H21.0411C22.1411 56.9708 23.0411 56.0708 23.0411 54.9708V48.3208H23.0211ZM10.0311 57.9708C8.93111 57.9708 8.03111 57.0708 8.03111 55.9708C8.03111 54.8708 8.93111 53.9708 10.0311 53.9708C11.1311 53.9708 12.0311 54.8708 12.0311 55.9708C12.0311 57.0708 11.1311 57.9708 10.0311 57.9708Z" fill="#333343"/>
<path d="M33.811 48.6006C31.301 49.1006 28.721 49.1006 26.211 48.6006C25.671 48.4706 25.131 48.8006 25.001 49.3306C24.871 49.8606 25.201 50.4106 25.731 50.5406C25.761 50.5406 25.781 50.5506 25.811 50.5606C26.871 50.7706 27.941 50.8906 29.011 50.9306V58.9806C29.011 59.5306 29.461 59.9806 30.011 59.9806C30.561 59.9806 31.011 59.5306 31.011 58.9806V50.9306C32.081 50.8906 33.151 50.7606 34.211 50.5606C34.751 50.4306 35.071 49.8906 34.941 49.3506C34.821 48.8406 34.321 48.5206 33.811 48.6006Z" fill="#333343"/>
<path d="M21.0206 3.0009H13.8806C13.3306 0.860899 11.1506 -0.419101 9.0106 0.130899C6.8706 0.680899 5.5806 2.8609 6.1406 5.0009C6.6906 7.1409 8.8706 8.4309 11.0106 7.8709C12.4206 7.5109 13.5206 6.4109 13.8806 5.0009H21.0206V11.6709C21.0206 11.6709 21.0306 11.7509 21.0406 11.7909C21.0506 11.8909 21.0806 11.9909 21.1206 12.0909C21.1606 12.1809 21.2206 12.2609 21.2806 12.3309C21.3106 12.3709 21.3506 12.4009 21.3906 12.4309C21.4806 12.5009 21.5806 12.5609 21.6906 12.6009C21.7606 12.6209 21.8406 12.6409 21.9106 12.6409C21.9406 12.6409 21.9806 12.6609 22.0106 12.6609C22.1506 12.6609 22.2906 12.6209 22.4206 12.5609C23.6406 12.0309 24.9006 11.6309 26.2006 11.3709C26.7406 11.2609 27.0906 10.7309 26.9806 10.1909C26.8706 9.6509 26.3406 9.3009 25.8006 9.4109C24.8506 9.6009 23.9106 9.8709 23.0006 10.1909V5.0009C23.0006 3.9009 22.1106 3.0009 21.0106 3.0009H21.0206ZM10.0306 6.0009C8.9306 6.0009 8.0306 5.1009 8.0306 4.0009C8.0306 2.9009 8.9306 2.0009 10.0306 2.0009C11.1306 2.0009 12.0306 2.9009 12.0306 4.0009C12.0306 4.5309 11.8206 5.0409 11.4406 5.4109C11.0706 5.7909 10.5606 6.0009 10.0306 6.0009Z" fill="#333343"/>
<path d="M46.1507 5.00083C46.7007 7.14083 48.8807 8.43083 51.0207 7.87083C53.1607 7.31083 54.4507 5.14083 53.8907 3.00083C53.3407 0.860834 51.1607 -0.429166 49.0207 0.130834C47.6107 0.490834 46.5107 1.59083 46.1507 3.00083H39.0107C37.9107 3.00083 37.0107 3.90083 37.0107 5.00083V11.6708C37.0107 11.7308 37.0307 11.7908 37.0507 11.8408C37.0507 11.9108 37.0707 11.9708 37.0907 12.0308C37.1307 12.1308 37.1907 12.2208 37.2607 12.3008C37.2707 12.3108 37.2807 12.3308 37.2907 12.3408C37.3907 12.4508 37.5107 12.5308 37.6407 12.5808C39.8607 13.5508 41.8807 14.9508 43.5707 16.6808C43.9307 17.1008 44.5607 17.1408 44.9807 16.7808C45.4007 16.4208 45.4407 15.7908 45.0807 15.3708C45.0607 15.3408 45.0307 15.3208 45.0007 15.2908C43.2707 13.5308 41.2407 12.0908 39.0007 11.0408V5.00083H46.1407H46.1507ZM50.0107 2.00083C51.1107 2.00083 52.0107 2.90083 52.0107 4.00083C52.0107 5.10083 51.1107 6.00083 50.0107 6.00083C48.9107 6.00083 48.0107 5.10083 48.0107 4.00083C48.0107 2.90083 48.9107 2.00083 50.0107 2.00083Z" fill="#333343"/>
<path d="M30.0107 0.000976562C29.4607 0.000976562 29.0107 0.450977 29.0107 1.00098V10.001C29.0107 10.551 29.4607 11.001 30.0107 11.001C31.2907 11.001 32.5607 11.131 33.8107 11.381C33.8807 11.391 33.9407 11.401 34.0107 11.401C34.5607 11.401 35.0107 10.941 35.0007 10.391C35.0007 9.92098 34.6707 9.52098 34.2107 9.42098C33.1507 9.21098 32.0807 9.09098 31.0107 9.05098V1.00098C31.0107 0.450977 30.5607 0.000976562 30.0107 0.000976562Z" fill="#333343"/>
<path d="M52.1513 20.9911C52.7013 23.1311 54.8813 24.4211 57.0213 23.8611C59.1613 23.3111 60.4513 21.1311 59.8913 18.9911C59.3313 16.8511 57.1613 15.5611 55.0213 16.1211C53.6113 16.4811 52.5113 17.5811 52.1513 18.9911H47.3213C47.3213 18.9911 47.2913 18.9911 47.2713 18.9911C47.2113 18.9911 47.1513 19.0111 47.1013 19.0311C47.0213 19.0511 46.9413 19.0711 46.8613 19.1111C46.8513 19.1111 46.8413 19.1111 46.8313 19.1111C46.8213 19.1211 46.8013 19.1411 46.7913 19.1511C46.7013 19.2111 46.6213 19.2811 46.5513 19.3611C46.5413 19.3711 46.5313 19.3911 46.5213 19.4011C46.4513 19.4911 46.4013 19.5911 46.3713 19.7011C46.3713 19.7111 46.3713 19.7311 46.3713 19.7411C46.3513 19.8211 46.3313 19.8911 46.3213 19.9711C46.3213 20.0111 46.3313 20.0511 46.3413 20.0811C46.3413 20.0911 46.3413 20.1011 46.3413 20.1111C46.3613 20.2311 46.4013 20.3511 46.4613 20.4511C48.1313 23.3511 49.0013 26.6211 49.0013 29.9611C49.0013 30.5111 49.4513 30.9611 50.0013 30.9611H59.0013C59.5513 30.9611 60.0013 30.5111 60.0013 29.9611C60.0013 29.4111 59.5513 28.9611 59.0013 28.9611H50.9713C50.8413 26.1911 50.1613 23.4711 48.9713 20.9611H52.1413L52.1513 20.9911ZM56.0113 18.0011C57.1113 18.0011 58.0113 18.9011 58.0113 20.0011C58.0113 21.1011 57.1113 22.0011 56.0113 22.0011C54.9113 22.0011 54.0113 21.1011 54.0113 20.0011C54.0113 18.9011 54.9113 18.0011 56.0113 18.0011Z" fill="#333343"/>
<path d="M1.03125 30.9911H10.0312C10.5813 30.9911 11.0312 30.5411 11.0312 29.9911C11.0312 27.9711 11.3512 25.9611 11.9812 24.0411C12.1512 23.5211 11.8712 22.9511 11.3412 22.7811C10.8112 22.6111 10.2512 22.8911 10.0812 23.4211C9.49125 25.2211 9.15125 27.1011 9.07125 28.9911H1.03125C0.48125 28.9911 0.03125 29.4411 0.03125 29.9911C0.03125 30.5411 0.48125 30.9911 1.03125 30.9911Z" fill="#333343"/>
</svg>
