<svg width="55" height="60" viewBox="0 0 55 60" fill="none" xmlns="http://www.w3.org/2000/svg">
<g clip-path="url(#clip0_143_24242)">
<path d="M29.6904 57.04C31.0711 57.04 32.1904 55.9208 32.1904 54.54C32.1904 53.1593 31.0711 52.04 29.6904 52.04C28.3097 52.04 27.1904 53.1593 27.1904 54.54C27.1904 55.9208 28.3097 57.04 29.6904 57.04Z" fill="#333343"/>
<path d="M20.1797 13.98C21.2843 13.98 22.1797 13.5323 22.1797 12.98C22.1797 12.4277 21.2843 11.98 20.1797 11.98C19.0751 11.98 18.1797 12.4277 18.1797 12.98C18.1797 13.5323 19.0751 13.98 20.1797 13.98Z" fill="#333343"/>
<path d="M24.6797 13.98C25.5081 13.98 26.1797 13.5323 26.1797 12.98C26.1797 12.4277 25.5081 11.98 24.6797 11.98C23.8513 11.98 23.1797 12.4277 23.1797 12.98C23.1797 13.5323 23.8513 13.98 24.6797 13.98Z" fill="#333343"/>
<path d="M28.1904 13.98C28.7427 13.98 29.1904 13.5323 29.1904 12.98C29.1904 12.4277 28.7427 11.98 28.1904 11.98C27.6381 11.98 27.1904 12.4277 27.1904 12.98C27.1904 13.5323 27.6381 13.98 28.1904 13.98Z" fill="#333343"/>
<path d="M12.4097 34.2898H6.6997C6.1797 34.2698 5.7297 34.6698 5.7097 35.1998C5.6897 35.7198 6.0897 36.1698 6.6197 36.1898C6.6497 36.1898 6.6797 36.1898 6.7097 36.1898H12.4197C12.9397 36.2098 13.3897 35.8098 13.4097 35.2798C13.4297 34.7598 13.0297 34.3098 12.4997 34.2898C12.4697 34.2898 12.4397 34.2898 12.4097 34.2898Z" fill="#333343"/>
<path d="M18.1298 34.29H15.2798C14.7598 34.31 14.3498 34.76 14.3698 35.28C14.3898 35.77 14.7898 36.16 15.2798 36.19H18.1298C18.6498 36.17 19.0598 35.72 19.0398 35.2C19.0198 34.71 18.6198 34.32 18.1298 34.29Z" fill="#333343"/>
<path d="M54.3302 8.57C54.3302 3.84 50.5002 0 45.7602 0C41.7602 0 38.2902 2.77 37.4002 6.67H18.2502C16.0802 6.67 14.3302 8.43 14.3202 10.6V21.9H4.0302C2.8802 21.9 1.9502 22.84 1.9502 23.99V37.92C1.9502 39.07 2.8802 40 4.0302 40H29.3902C30.5402 40 31.4702 39.07 31.4702 37.92V23.99C31.4702 22.84 30.5402 21.9 29.3902 21.9H16.2302V10.59C16.2302 9.47 17.1402 8.57 18.2502 8.57H37.1802C37.1802 12.93 40.4602 16.6 44.8002 17.08V49.52H16.2302V42.92C16.2002 42.4 15.7402 42 15.2202 42.03C14.7402 42.06 14.3602 42.44 14.3302 42.92V56.07C14.3302 58.24 16.0902 59.99 18.2502 60H42.7802C44.9502 60 46.7002 58.24 46.7102 56.07V17.09C51.0502 16.6 54.3202 12.94 54.3302 8.57ZM3.8502 28.57H29.5702V30.47H3.8502V28.57ZM29.3902 38.1H4.0302C3.9302 38.1 3.8502 38.02 3.8502 37.92V32.38H29.5702V37.92C29.5702 38.02 29.4902 38.1 29.4002 38.1H29.3902ZM29.5702 23.99V26.67H3.8502V23.99C3.8502 23.89 3.9302 23.81 4.0302 23.81H29.3802C29.4802 23.81 29.5602 23.89 29.5602 23.98L29.5702 23.99ZM44.8102 56.08C44.8102 57.2 43.9102 58.1 42.7902 58.11H18.2502C17.1302 58.11 16.2302 57.2 16.2302 56.09V51.44H44.8002V56.09L44.8102 56.08ZM45.7602 15.25C42.0802 15.25 39.0902 12.27 39.0902 8.58C39.0902 4.89 42.0702 1.91 45.7602 1.91C49.4502 1.91 52.4302 4.89 52.4302 8.58C52.4302 12.26 49.4402 15.24 45.7602 15.25Z" fill="#333343"/>
<path d="M47.8302 5.17981L44.6702 9.91981L43.5902 8.83981C43.2202 8.46981 42.6202 8.46981 42.2402 8.83981C41.8602 9.20981 41.8702 9.80981 42.2402 10.1898L44.1402 12.0898C44.3202 12.2698 44.5602 12.3698 44.8102 12.3698H44.9002C45.1802 12.3398 45.4402 12.1898 45.6002 11.9498L49.4002 6.23981C49.6902 5.79981 49.5702 5.20981 49.1402 4.91981C48.7102 4.62981 48.1102 4.74981 47.8202 5.17981H47.8302Z" fill="#333343"/>
<path d="M10.5203 13.3099C11.0503 13.3099 11.4703 12.8799 11.4703 12.3599V7.60986C11.4903 7.08986 11.0903 6.63986 10.5603 6.61986C10.0303 6.59986 9.59031 6.99986 9.57031 7.52986C9.57031 7.55986 9.57031 7.58986 9.57031 7.61986V12.3799C9.57031 12.8999 9.99031 13.3299 10.5203 13.3299V13.3099Z" fill="#333343"/>
<path d="M6.69974 17.1402C6.69974 16.6102 6.26974 16.1902 5.74974 16.1902H0.989742C0.469742 16.1702 0.0197417 16.5702 -0.000258314 17.1002C-0.0202583 17.6302 0.379742 18.0702 0.909742 18.0902C0.939742 18.0902 0.969742 18.0902 0.999742 18.0902H5.74974C6.26974 18.0902 6.69974 17.6702 6.69974 17.1402Z" fill="#333343"/>
<path d="M6.09016 13.91C6.46016 14.28 7.06016 14.28 7.44016 13.91C7.82016 13.54 7.81016 12.94 7.44016 12.56L4.06016 9.17995C3.67016 8.82995 3.07016 8.84995 2.72016 9.23995C2.39016 9.59995 2.39016 10.16 2.72016 10.52L6.10016 13.9L6.09016 13.91Z" fill="#333343"/>
</g>
<defs>
<clipPath id="clip0_143_24242">
<rect width="54.33" height="60" fill="white"/>
</clipPath>
</defs>
</svg>
