<svg width="130" height="130" viewBox="0 0 130 130" fill="none" xmlns="http://www.w3.org/2000/svg">
<rect width="130" height="130" rx="16" fill="#F0F3FF"/>
<path d="M83.391 61.7231V85.3532C83.3914 87.8465 82.6315 90.2806 81.2126 92.3308C79.7937 94.3809 77.7834 95.9496 75.4498 96.8276L67.0785 99.9789C66.7074 100.119 66.3078 100.167 65.9141 100.118C65.5204 100.07 65.1444 99.9267 64.8183 99.7009C64.4922 99.4751 64.2258 99.1735 64.0419 98.822C63.8581 98.4706 63.7623 98.0797 63.7628 97.6831V68.8957L47.3681 74.8842C46.4262 75.2314 45.6134 75.8592 45.0395 76.6829C44.4656 77.5066 44.1582 78.4865 44.1588 79.4904V118.089C44.1588 121.497 47.5421 123.865 50.7466 122.696L99.8581 104.749C102.219 103.888 104.258 102.321 105.698 100.262C107.139 98.2022 107.911 95.7496 107.91 93.2364V44.1974C107.909 46.7095 107.135 49.1604 105.695 51.2186C104.255 53.2769 102.218 54.8431 99.8581 55.7056L83.391 61.7231ZM83.391 59.1517V52.0612C83.3909 49.5662 82.6298 47.1305 81.2091 45.0794C79.7885 43.0283 77.7759 41.4593 75.4401 40.5821L67.0881 37.4404C66.717 37.3016 66.3178 37.2546 65.9246 37.3035C65.5313 37.3525 65.1558 37.4959 64.83 37.7214C64.5043 37.947 64.2379 38.2481 64.0538 38.5989C63.8696 38.9498 63.7731 39.34 63.7725 39.7362V61.9212C63.7725 65.3094 60.4133 67.6777 57.2233 66.5419L25.3426 55.1546C24.3893 54.8145 23.5645 54.1879 22.9813 53.3607C22.398 52.5335 22.085 51.5461 22.085 50.5339V11.9059C22.085 8.51774 25.4441 6.14941 28.639 7.29008L99.776 32.6941C101.772 33.4073 103.549 34.6254 104.934 36.2297C106.319 37.8341 107.264 39.7699 107.678 41.8484C107.021 46.0099 102.603 52.1337 99.0268 53.4387L83.391 59.1517Z" fill="#0B53CE"/>
</svg>
