<svg width="130" height="130" viewBox="0 0 130 130" fill="none" xmlns="http://www.w3.org/2000/svg">
<rect width="130" height="130" rx="16" fill="#F0F3FF"/>
<g clip-path="url(#clip0_2020_695)">
<path d="M19.8189 32C27.0764 32 32.9776 37.0191 33.1136 44.0048C33.1816 45.9714 31.7572 47.0574 30.197 47.0574C28.7047 47.0574 27.4163 45.9729 27.3483 44.1407C27.2804 40.2061 23.9574 37.2895 19.751 37.2895C15.8163 37.2895 12.8332 40.0702 12.8332 43.8688C12.8332 48.0059 15.6139 49.838 21.3792 51.9405C27.5507 54.179 33.1816 56.8237 33.1816 64.6914C33.1816 71.5427 27.8226 77.0361 20.3626 77.0361C13.0372 77.0361 7 71.881 7 64.8954C7 60.5544 9.1025 57.5019 11.137 57.5019C12.9012 57.5019 13.9857 58.6543 13.9857 60.2146C13.9857 61.571 12.8332 62.1812 12.8332 64.6235C12.8332 68.9644 16.36 71.7451 20.3626 71.7451C24.5676 71.7451 27.3483 68.8285 27.3483 65.3017C27.3483 60.9607 24.5676 59.1301 18.8024 57.0941C12.359 54.7907 7 52.0085 7 44.3446C7 37.4269 12.5614 32 19.8189 32Z" fill="#00D639"/>
<path d="M49.4203 77.0374C42.0948 77.0374 35.9912 71.1362 35.9912 63.6748C35.9912 55.943 42.1628 50.1777 49.6242 50.1777C57.6278 50.1777 63.257 56.1469 63.257 64.2865V74.1888C63.257 75.885 61.9007 77.0374 60.3408 77.0374C58.7126 77.0374 57.3559 75.885 57.3559 74.1888V64.4889C57.3559 59.13 54.3037 55.4672 49.4883 55.4672C45.2153 55.4672 41.8244 59.062 41.8244 63.6748C41.8244 67.9478 45.1473 71.6105 49.3539 71.6105C50.9141 71.6105 51.5923 71.2042 52.5423 71.2042C53.8309 71.2042 55.1871 72.2887 55.1871 73.849C55.1857 75.9515 52.6753 77.0374 49.4203 77.0374Z" fill="#00D639"/>
<path d="M79.9691 97.2499C72.3721 97.2499 66.0645 91.823 66.0645 84.7693C66.0645 82.395 67.4207 81.3106 68.9812 81.3106C70.5411 81.3106 71.8297 82.3286 71.8979 84.2951C71.9656 88.704 75.4925 91.9589 79.9014 91.9589C84.5822 91.9589 87.633 88.9745 87.633 85.1075C87.633 80.6986 84.2421 78.8681 78.4769 77.036C71.7619 74.8655 66.0645 71.8809 66.0645 63.6068C66.0645 56.0094 71.8979 50.1777 79.4935 50.1777C87.1574 50.1777 93.4664 55.7391 93.4664 63.0646C93.4664 67.5415 91.636 71.0003 89.1253 71.0003C87.4293 71.0003 86.2768 69.7799 86.2768 68.2876C86.2768 66.7274 87.633 66.0492 87.633 63.2685C87.633 58.5877 83.9702 55.4687 79.5613 55.4687C75.2883 55.4687 71.8979 58.7252 71.8979 62.9981C71.8979 67.8134 75.3565 69.8494 81.054 71.748C87.633 73.9184 93.4664 76.6312 93.4664 84.567C93.4664 91.6884 87.8372 97.2499 79.9691 97.2499Z" fill="#00D639"/>
<path d="M110.113 77.0377C102.516 77.0377 96.2764 71.0685 96.2764 63.6086C96.2764 56.1471 102.313 50.1794 109.773 50.1794C117.303 50.1794 123 55.4025 123 62.0498C123 64.6266 121.17 66.1868 118.185 66.1868H110.385C108.825 66.1868 107.672 65.1023 107.672 63.6765C107.672 62.3201 108.825 61.2342 110.385 61.2342H116.218C116.761 61.2342 117.168 60.9623 117.168 60.4201C117.168 58.4535 114.658 55.4009 109.979 55.4009C105.638 55.4009 102.111 59.1317 102.111 63.6086C102.111 68.1534 105.706 71.7482 110.182 71.7482C115.338 71.7482 117.034 68.6956 119.136 68.6956C120.9 68.6956 121.849 69.8481 121.849 71.138C121.849 72.3584 121.035 73.4444 119 74.7328C116.963 76.0196 113.912 77.0377 110.113 77.0377Z" fill="#00D639"/>
</g>
<defs>
<clipPath id="clip0_2020_695">
<rect width="116" height="65.424" fill="white" transform="translate(7 32)"/>
</clipPath>
</defs>
</svg>
