<svg width="130" height="130" viewBox="0 0 130 130" fill="none" xmlns="http://www.w3.org/2000/svg">
<rect width="130" height="130" rx="16" fill="#F0F3FF"/>
<g clip-path="url(#clip0_2021_697)">
<path fill-rule="evenodd" clip-rule="evenodd" d="M7 93.3813H65.6222L123 36H7V93.3813Z" fill="url(#paint0_linear_2021_697)"/>
<path fill-rule="evenodd" clip-rule="evenodd" d="M75.8399 46.7876H64.4231V73.9314L54.4464 46.7841H44.5572L36.0383 69.485C35.1364 63.7661 29.2148 61.784 24.5551 60.3019C21.4754 59.3161 18.2174 57.8619 18.2454 56.2539C18.2664 54.936 19.9967 53.7125 23.412 53.8978C25.7086 54.0202 27.7361 54.2054 31.7631 56.149L35.7377 49.2381C32.0532 47.3644 26.9671 46.1829 22.8037 46.1759H22.7758C17.9168 46.1759 13.8653 47.7559 11.3554 50.3462C9.60761 52.1605 8.66378 54.4571 8.62183 57.0055C8.55891 60.5116 9.84531 62.9935 12.5475 64.9791C14.8231 66.6465 17.7385 67.7336 20.3078 68.5341C23.4749 69.5129 26.0652 70.3659 26.0302 72.1871C26.0162 72.8513 25.7611 73.4665 25.2856 73.9664C24.4921 74.7844 23.2826 75.092 21.6047 75.1235C18.3677 75.1899 15.9697 74.683 12.149 72.4248L8.62183 79.4301C12.4356 81.5974 16.9485 82.8699 21.5453 82.8699H22.1396C26.1491 82.7929 29.3826 81.6464 31.9693 79.57C32.1127 79.4546 32.249 79.3322 32.3853 79.2099L31.2422 82.2721H41.6104L43.3512 76.9762C45.1725 77.5914 47.2454 77.941 49.4477 77.941C51.6499 77.941 53.611 77.6124 55.4008 77.0251L57.0787 82.2721H73.9907V71.3062H77.6786C86.596 71.3062 91.8745 66.7653 91.8745 59.1553C91.8745 50.6783 86.7463 46.7876 75.8329 46.7876H75.8399ZM49.4511 70.0233C48.1193 70.0233 46.8679 69.7856 45.7912 69.3766L49.4127 57.9598H49.4861L53.0307 69.4081C51.9645 69.7926 50.748 70.0198 49.4477 70.0198L49.4511 70.0233ZM76.5111 63.4619H73.9942V54.2579H76.5111C79.8669 54.2579 82.5376 55.3695 82.5376 58.8057C82.5376 62.242 79.8669 63.4619 76.5111 63.4619Z" fill="white"/>
<path d="M79.6538 89.6619C79.6538 87.9 80.9822 86.5647 82.6846 86.5647C84.387 86.5647 85.6943 87.9 85.6943 89.6619C85.6943 91.4237 84.3625 92.7695 82.6846 92.7695C81.0067 92.7695 79.6538 91.4516 79.6538 89.6619ZM82.6846 93.3917C84.7086 93.3917 86.4424 91.8117 86.4424 89.6619C86.4424 87.512 84.7086 85.9495 82.6846 85.9495C80.6606 85.9495 78.9058 87.526 78.9058 89.6619C78.9058 91.7977 80.6361 93.3917 82.6846 93.3917ZM81.8946 89.9555H82.6426L83.7717 91.8152H84.5023L83.2788 89.9275C83.9081 89.8541 84.3939 89.515 84.3939 88.746C84.3939 87.9 83.8941 87.526 82.8803 87.526H81.2444V91.8152H81.8911V89.9555H81.8946ZM81.8946 89.4032V88.0783H82.7824C83.2264 88.0783 83.7053 88.1727 83.7053 88.7075C83.7053 89.3682 83.2159 89.4032 82.6741 89.4032H81.8946Z" fill="#225FBC"/>
</g>
<defs>
<linearGradient id="paint0_linear_2021_697" x1="65" y1="93.4652" x2="65" y2="36.0804" gradientUnits="userSpaceOnUse">
<stop stop-color="#225FBC"/>
<stop offset="1" stop-color="#1FB2F0"/>
</linearGradient>
<clipPath id="clip0_2021_697">
<rect width="116" height="57.3918" fill="white" transform="translate(7 36)"/>
</clipPath>
</defs>
</svg>
