<svg width="130" height="130" viewBox="0 0 130 130" fill="none" xmlns="http://www.w3.org/2000/svg">
<rect width="130" height="130" rx="16" fill="#F0F3FF"/>
<g clip-path="url(#clip0_2019_694)">
<path d="M58.0172 64.2061H64.3944C67.3507 64.2061 69.7721 65.1676 69.7721 68.5831C69.7721 70.377 68.8711 71.5825 67.1677 72.0847C69.3638 72.5296 70.4478 73.7782 70.4478 76.06C70.4478 79.5759 67.8575 80.681 64.8308 80.681H58.0313L58.0172 64.2061ZM64.0143 71.1232C65.774 71.1232 66.7595 70.5922 66.7595 68.6549C66.7595 66.8466 65.4925 66.4448 63.958 66.4448H61.0721V71.1232H64.0143ZM64.4367 78.4566C66.2245 78.4566 67.3648 77.7534 67.3648 75.859C67.3648 73.7638 65.957 73.2472 64.2255 73.2472H61.0721V78.4566H64.4367ZM78.2328 68.3678C81.8226 68.3678 84.5818 70.9367 84.5818 74.6249C84.5818 78.4135 81.6818 80.9106 78.1061 80.9106C74.5022 80.9106 71.6163 78.3705 71.6163 74.6823C71.6163 70.908 74.6852 68.3678 78.2328 68.3678ZM81.5551 74.6536C81.5551 72.4292 80.457 70.5922 78.1342 70.5922C75.741 70.5922 74.7978 72.5296 74.7978 74.7397C74.7978 76.878 75.91 78.7005 78.2046 78.7005C80.5556 78.7005 81.5551 76.7632 81.5551 74.6536ZM92.1133 68.3678C95.7032 68.3678 98.4624 70.9367 98.4624 74.6249C98.4624 78.4135 95.5624 80.9106 91.9867 80.9106C88.3828 80.9106 85.4968 78.3705 85.4968 74.6823C85.4968 70.908 88.5517 68.3678 92.1133 68.3678ZM95.4357 74.6536C95.4357 72.4292 94.3376 70.5922 92.0148 70.5922C89.6216 70.5922 88.6784 72.5296 88.6784 74.7397C88.6784 76.878 89.7905 78.7005 92.0852 78.7005C94.4362 78.7005 95.4357 76.7632 95.4357 74.6536ZM100.532 63.1728H103.361V73.893L107.655 68.6405H110.752L106.064 74.1656L111.118 80.6953H107.852L103.361 74.8114V80.6953H100.532V63.1728ZM114.004 77.0932C114.441 78.27 115.651 78.8441 116.932 78.8441C117.847 78.8441 118.988 78.557 118.988 77.409C118.988 76.2035 117.707 75.9165 116.242 75.6007C114.342 75.1989 112.216 74.7253 112.216 72.013C112.216 69.5303 114.483 68.3535 116.623 68.3535C118.495 68.3535 120.649 69.071 121.423 70.9797L119.325 71.8982C118.861 70.8219 117.707 70.42 116.735 70.42C115.792 70.42 114.891 70.8075 114.891 71.7834C114.891 72.8884 116.045 73.118 117.481 73.405C119.41 73.7925 121.719 74.2374 121.719 77.0502C121.719 79.8917 119.382 80.8962 116.918 80.8962C114.835 80.8962 112.582 80.1787 111.85 78.0117L114.004 77.0932ZM58.0454 58.9823L63.2541 51.3189H58.5803V49.812H65.7036V50.5583L60.6216 58.2217H65.5488V59.7286H58.0454V58.9823ZM70.1522 52.3235C72.3202 52.3235 73.9813 53.8734 73.9813 56.0978C73.9813 58.3796 72.2357 59.8864 70.0818 59.8864C67.9138 59.8864 66.1682 58.3509 66.1682 56.1408C66.1682 53.8447 68.0124 52.3235 70.1522 52.3235ZM72.1512 56.0978C72.1512 54.7631 71.4896 53.6437 70.0959 53.6437C68.66 53.6437 68.0828 54.8062 68.0828 56.1408C68.0828 57.4324 68.7585 58.5231 70.1381 58.5231C71.56 58.5374 72.1512 57.375 72.1512 56.0978ZM75.2342 49.1806H76.9376V53.6294C77.4022 52.7253 78.3313 52.3235 79.3167 52.3235C81.0201 52.3235 81.8789 53.5433 81.8789 55.1936V59.7429H80.1614V55.3659C80.1614 54.3182 79.6265 53.7586 78.641 53.7586C77.543 53.7586 76.9517 54.4474 76.9517 55.4807V59.7429H75.2483L75.2342 49.1806ZM86.9609 52.3235C89.1289 52.3235 90.7901 53.8734 90.7901 56.0978C90.7901 58.3796 89.0444 59.8864 86.8905 59.8864C84.7226 59.8864 82.9769 58.3509 82.9769 56.1408C82.9769 53.8447 84.8211 52.3235 86.9609 52.3235ZM88.96 56.0978C88.96 54.7631 88.2983 53.6437 86.8905 53.6437C85.4546 53.6437 84.8774 54.8062 84.8774 56.1408C84.8774 57.4324 85.5532 58.5231 86.9328 58.5231C88.3546 58.5374 88.96 57.375 88.96 56.0978ZM37.2104 86.0482H9.32258C8.66093 86.0482 8.12598 85.5029 8.12598 84.8284V74.4957C8.12598 72.2426 9.53374 70.2335 11.6313 69.5016L42.5459 58.6809C44.9532 57.8342 46.5721 55.5237 46.5721 52.9405C46.5721 49.5968 43.8973 46.8701 40.6172 46.8701H10.5192V66.9901C10.5192 67.6646 9.98423 68.21 9.32258 68.21C8.66093 68.21 8.12598 67.6646 8.12598 66.9901V45.6503C8.12598 44.9758 8.66093 44.4304 9.32258 44.4304H40.6032C45.2066 44.4304 48.9512 48.2478 48.9512 52.9405C48.9512 56.5713 46.6847 59.8147 43.3061 60.9914L12.4056 71.8121C11.2794 72.2139 10.5192 73.2902 10.5192 74.5101V83.6086H37.2104C39.7022 83.6086 42.0532 82.6184 43.8269 80.8101C45.5867 79.0163 46.5721 76.6197 46.5721 74.0795C46.5721 72.2713 46.0794 70.5205 45.1362 68.9993C44.207 67.4924 42.8837 66.2869 41.307 65.512C40.7158 65.2106 40.4624 64.4931 40.758 63.876C41.0396 63.2732 41.7575 63.0149 42.3629 63.3163C44.3337 64.2922 45.9949 65.8134 47.1634 67.7077C48.3459 69.6164 48.9794 71.8264 48.9794 74.0939C48.9794 77.2941 47.7546 80.2935 45.5444 82.561C43.292 84.7997 40.3498 86.0482 37.2104 86.0482Z" fill="#1A58BF"/>
<path d="M21.5843 61.4938C18.9517 61.4938 16.7979 59.3124 16.7979 56.6144C16.7979 53.9165 18.9377 51.7351 21.5843 51.7351C24.2309 51.7351 26.3707 53.9165 26.3707 56.6144C26.3707 59.3124 24.2168 61.4938 21.5843 61.4938ZM21.5843 54.1748C20.261 54.1748 19.1911 55.2654 19.1911 56.6144C19.1911 57.9634 20.261 59.0541 21.5843 59.0541C22.9076 59.0541 23.9775 57.9634 23.9775 56.6144C23.9775 55.2654 22.8935 54.1748 21.5843 54.1748ZM33.5784 78.7149C30.9459 78.7149 28.792 76.5336 28.792 73.8356C28.792 71.1376 30.9318 68.9563 33.5784 68.9563C36.225 68.9563 38.3648 71.1376 38.3648 73.8356C38.3648 76.5336 36.211 78.7149 33.5784 78.7149ZM33.5784 71.3959C32.2551 71.3959 31.1852 72.4866 31.1852 73.8356C31.1852 75.1846 32.2551 76.2753 33.5784 76.2753C34.9017 76.2753 35.9716 75.1846 35.9716 73.8356C35.9716 72.4866 34.8877 71.3959 33.5784 71.3959Z" fill="#1A58BF"/>
</g>
<defs>
<clipPath id="clip0_2019_694">
<rect width="116" height="42.4789" fill="white" transform="translate(7 44)"/>
</clipPath>
</defs>
</svg>
