<svg width="100" height="100" viewBox="0 0 100 100" fill="none" xmlns="http://www.w3.org/2000/svg">
<path d="M20.8573 39.7798C20.8089 40.8342 19.9137 41.6508 18.8593 41.6024C17.8048 41.554 16.9883 40.6588 17.0387 39.6044C17.0891 38.5499 17.9823 37.7334 19.0367 37.7817C20.0912 37.8301 20.9077 38.7253 20.8573 39.7798ZM97.1749 71.5967L91.4369 73.8205C90.9127 74.0242 90.3744 74.1189 89.8441 74.1189C88.0699 74.1189 86.3924 73.0443 85.715 71.2943L85.215 70.004L80.5456 71.9536C80.7714 73.2762 80.5537 74.6512 79.8984 75.8468C79.1202 77.2641 77.8278 78.2904 76.2653 78.7379C76.2008 78.7561 76.1363 78.7742 76.0717 78.7904C76.5818 80.3307 76.481 82.0626 75.6463 83.5787C74.4145 85.8167 71.9608 86.9639 69.5676 86.6473C69.6402 87.7481 69.4104 88.8792 68.8438 89.9095C68.0676 91.3228 66.7813 92.347 65.2228 92.7966C64.249 93.0768 63.247 93.1091 62.2893 92.9014C62.3195 93.9398 62.0837 94.9962 61.5514 95.966C60.7732 97.3793 59.4324 98.4398 57.8739 98.8773C57.3356 99.0285 56.7892 99.1031 56.2469 99.1031C55.2328 99.1031 54.2388 98.841 53.3416 98.3269L51.7589 97.4176C50.9746 98.5225 49.8516 99.333 48.529 99.7342C47.9363 99.9136 47.3294 100.002 46.7266 100.002C45.7286 100.002 44.7427 99.7584 43.8395 99.2745C42.5007 98.5588 41.5148 97.4035 40.9967 96.0567C39.3253 96.7664 37.3656 96.7341 35.674 95.8289C34.4744 95.1878 33.553 94.1817 33.0026 92.9982C31.2425 93.9519 29.053 94.0345 27.1638 93.0224C24.8009 91.7583 23.5972 89.1655 23.9823 86.6554C22.944 86.6796 21.8996 86.4437 20.948 85.9336C19.5024 85.1614 18.4419 83.865 17.9641 82.2884C17.4863 80.7118 17.6496 79.0464 18.4218 77.6008L19.9662 74.7137C19.6214 73.8931 19.45 72.9959 19.2887 72.1189C18.9924 70.5282 18.7625 69.5423 18.0589 69.2701C17.7827 69.1632 17.1254 68.889 14.7181 67.8164L14.0971 69.2197C13.6213 70.2983 12.7503 71.127 11.6475 71.5544C11.1273 71.756 10.585 71.8568 10.0447 71.8568C9.43779 71.8568 8.83496 71.7298 8.26438 71.4778L2.63528 68.9898C0.405408 68.0039 -0.608718 65.387 0.377182 63.1551L13.2967 33.9188C13.7725 32.8402 14.6435 32.0115 15.7484 31.5841C16.8532 31.1567 18.0548 31.1849 19.1315 31.6607L24.7606 34.1486C25.8392 34.6245 26.6679 35.4954 27.0953 36.5983C27.5227 37.7031 27.4945 38.9048 27.0187 39.9814L26.0489 42.175L29.7123 43.8645C29.7506 43.8826 29.7889 43.9028 29.8272 43.923C30.9078 44.5318 32.0147 44.6689 33.2204 44.5701C29.309 39.935 27.186 34.0982 27.186 27.834V10.6967C27.186 10.0515 27.5711 9.46888 28.1638 9.21484L49.3617 0.130042C49.767 -0.0433474 50.2266 -0.0433474 50.6319 0.130042L71.8298 9.21484C72.4225 9.46888 72.8076 10.0515 72.8076 10.6967V27.8381C72.8076 34.2696 70.5656 40.2576 66.4486 44.9492C68.7511 45.8302 70.3499 46.2395 71.8398 45.4653L75.0354 43.7556L74.1564 41.4874C73.2753 39.2132 74.4084 36.6467 76.6826 35.7636L82.4206 33.5398C84.6928 32.6587 87.2614 33.7918 88.1445 36.066L99.7011 65.8749C100.582 68.1491 99.4491 70.7157 97.1749 71.5987V71.5967ZM30.4119 27.8381C30.4119 33.9672 32.7264 39.6245 36.9422 43.8645C37.8636 43.6488 38.8414 43.431 39.8696 43.2818C35.4563 39.4915 32.8292 34.0075 32.8292 27.8381V14.4185C32.8292 13.7734 33.2143 13.1907 33.8071 12.9367L49.3617 6.27125C49.767 6.09786 50.2266 6.09786 50.6319 6.27125L66.1845 12.9367C66.7773 13.1907 67.1624 13.7734 67.1624 14.4185V27.8361C67.1624 33.7252 64.741 39.1064 60.5191 42.927C61.4627 43.1286 62.3579 43.4028 63.2087 43.7012C67.3236 39.4794 69.5817 33.8845 69.5817 27.8361V11.7592L49.9968 3.36597L30.4119 11.7592V27.8361V27.8381ZM55.3356 42.7354C60.8034 39.5661 63.9365 34.1527 63.9365 27.8381V15.4831L49.9968 9.5092L36.0571 15.4831V27.8381C36.0571 35.9954 41.541 42.7375 49.7649 44.7899C51.7509 43.6266 53.6057 42.9996 55.3356 42.7354ZM24.067 38.6789C24.196 38.3886 24.2021 38.064 24.0852 37.7636C23.9682 37.4632 23.7444 37.2273 23.4561 37.1003L17.827 34.6124C17.2242 34.3462 16.5145 34.6204 16.2484 35.2233L3.32279 64.4636C3.05665 65.0684 3.33085 65.7761 3.93368 66.0422L9.56279 68.5301C9.85312 68.6592 10.1777 68.6652 10.4781 68.5483C10.7785 68.4314 11.0144 68.2076 11.1435 67.9193L24.067 38.6789ZM25.6477 82.8186L29.3352 76.4375C29.9421 75.0423 29.3776 73.4032 28.0328 72.6854C26.6054 71.9233 24.8251 72.4637 24.065 73.8871L21.2625 79.125C20.8956 79.8105 20.819 80.6029 21.0468 81.3569C21.2746 82.109 21.7787 82.7259 22.4642 83.0928C23.4864 83.6392 24.7384 83.5243 25.6477 82.8186ZM32.6579 88.9619L36.7305 81.0747C36.9765 79.8247 36.3696 78.5142 35.2446 77.9133C34.2123 77.3629 32.9522 77.4839 32.0409 78.2016L27.4784 86.2138C26.7162 87.6393 27.2566 89.4195 28.68 90.1816C30.1034 90.9417 31.8877 90.3954 32.6558 88.9619H32.6579ZM40.9019 92.1776L44.5129 85.236C44.7568 83.986 44.152 82.6775 43.0269 82.0767C41.906 81.4779 40.4886 81.6936 39.5854 82.5767L35.6519 90.1958C35.5752 91.3409 36.172 92.4417 37.1902 92.9861C38.4563 93.6635 40.035 93.3127 40.9019 92.1776ZM49.3234 95.2301L52.0109 90.2058C52.5392 89.2179 52.4484 87.9881 51.7771 87.0748C51.521 86.726 51.1944 86.4437 50.8093 86.238C49.6883 85.6392 48.269 85.855 47.3677 86.7401L43.8274 93.5466C43.7084 94.7281 44.3052 95.8672 45.3596 96.4317C46.0451 96.7987 46.8375 96.8753 47.5915 96.6475C48.3436 96.4196 48.9605 95.9156 49.3274 95.2301H49.3234ZM57.6098 90.5929C57.5231 90.5445 55.5473 89.3953 55.5473 89.3953C55.4747 90.1998 55.2489 90.9962 54.8557 91.728L53.3214 94.599L54.9444 95.5305C55.5614 95.8853 56.2912 95.97 56.9989 95.7724C57.7308 95.5668 58.3578 95.0708 58.7207 94.4115C59.4606 93.0647 58.9647 91.351 57.6118 90.5929H57.6098ZM77.1181 71.7318C76.8621 71.2036 76.4548 70.7701 75.9407 70.4757L60.6784 61.776C58.0876 60.2982 54.8497 61.6087 51.0996 63.1268C48.2972 64.2619 45.1479 65.5362 41.9544 65.5362C38.8354 65.5362 35.6781 64.3204 32.7607 60.5663C32.3816 60.0804 32.2304 59.4534 32.3474 58.8486C32.4643 58.2437 32.8373 57.7175 33.3716 57.405C37.6761 54.8929 41.3112 52.1509 44.1762 49.2557C44.9403 48.4835 45.6883 47.794 46.4201 47.177C43.1197 45.7294 40.2991 46.3887 37.3394 47.0823C34.4139 47.7678 31.3917 48.4754 28.303 46.7698L24.7424 45.1266L16.0165 64.8688C18.1758 65.8305 18.9601 66.1652 19.2202 66.266C21.3714 67.1007 21.9803 69.1552 22.3291 70.881C24.1981 69.0443 27.1195 68.5422 29.551 69.8386C31.3514 70.8003 32.4885 72.5463 32.7466 74.4455C34.0873 74.1996 35.5047 74.3951 36.7607 75.0665C38.2708 75.873 39.3273 77.2319 39.7749 78.7904C41.3172 78.3004 43.033 78.4234 44.5431 79.2299C46.0532 80.0363 47.1097 81.3952 47.5573 82.9537C49.0996 82.4638 50.8174 82.5868 52.3255 83.3932C53.0452 83.7783 53.6682 84.2904 54.1783 84.9154L62.2127 89.4619C62.8558 89.8187 63.6038 89.9014 64.3216 89.6958C65.0494 89.4861 65.6482 89.0103 66.0071 88.355C66.743 87.0163 66.243 85.3066 64.8901 84.5445C64.8014 84.4941 53.6158 78.1674 53.6158 78.1674C52.8396 77.7299 52.5634 76.746 53.0009 75.9698C53.4384 75.1935 54.4202 74.9193 55.1965 75.3548L69.0071 83.1271C70.36 83.8691 72.0656 83.3751 72.8096 82.0223C73.5455 80.6835 73.0455 78.9738 71.6926 78.2117C68.4527 76.3952 64.7793 74.3387 61.1804 72.2782C60.4082 71.8346 60.1401 70.8507 60.5816 70.0765C61.0232 69.3023 62.0091 69.0342 62.7833 69.4777C66.372 71.5322 70.0394 73.5867 73.2733 75.3972C73.9104 75.754 74.6544 75.8367 75.3701 75.6331C76.102 75.4234 76.7028 74.9456 77.0657 74.2883C77.5032 73.4939 77.5234 72.5604 77.1181 71.7278V71.7318ZM84.0456 66.9958L76.2109 46.7859L73.3459 48.3182C70.237 49.9351 67.1946 48.7234 64.253 47.5541C59.3679 45.6085 54.3154 43.5984 46.4705 51.5279C43.658 54.3687 40.1781 57.0582 36.1075 59.5341C40.285 64.0301 44.7588 62.2176 49.8899 60.1409C54.0372 58.4615 58.3255 56.7256 62.2752 58.9776L77.5375 67.6773C78.1645 68.0342 78.7149 68.4918 79.1746 69.0302L84.0436 66.9979L84.0456 66.9958ZM96.693 67.0382L85.1364 37.2293C84.9529 36.7555 84.4993 36.4652 84.0174 36.4652C83.8743 36.4652 83.7271 36.4914 83.586 36.5458L77.848 38.7697C77.2331 39.0076 76.9246 39.7031 77.1645 40.3201L88.7211 70.129C88.959 70.7439 89.6546 71.0524 90.2715 70.8124L96.0095 68.5886C96.6244 68.3507 96.9309 67.6551 96.693 67.0382ZM82.2331 39.6548C81.1807 39.6548 80.3218 40.5136 80.3218 41.5681C80.3218 42.6225 81.1807 43.4814 82.2331 43.4814C83.2856 43.4814 84.1444 42.6225 84.1444 41.5681C84.1444 40.5136 83.2856 39.6548 82.2331 39.6548ZM50.6823 35.1103C49.8879 35.9047 48.8335 36.3402 47.7105 36.3402C46.5875 36.3402 45.533 35.9027 44.7387 35.1103L39.0027 29.3744C37.3656 27.7373 37.3656 25.0699 39.0027 23.4328C39.7971 22.6384 40.8515 22.2029 41.9745 22.2029C43.0975 22.2029 44.152 22.6404 44.9463 23.4328L47.7004 26.1868L55.0473 18.7674C55.8356 17.971 56.888 17.5295 58.009 17.5254H58.0251C59.1421 17.5254 60.1925 17.9589 60.9848 18.7472C62.622 20.3763 62.632 23.0376 61.005 24.6788C59.7268 25.9691 58.4526 27.2614 57.1763 28.5558C55.0533 30.7091 52.8577 32.9349 50.6823 35.1103ZM48.402 32.8301C50.5694 30.6627 52.7609 28.4409 54.8799 26.2917C56.1562 24.9973 57.4344 23.7009 58.7147 22.4086C59.0917 22.0275 59.0897 21.4126 58.7126 21.0356C58.5272 20.8521 58.2832 20.7593 58.0231 20.7533C57.765 20.7533 57.5231 20.8561 57.3417 21.0396L48.8557 29.6103C48.5532 29.9147 48.1419 30.0881 47.7145 30.0881H47.7105C47.2831 30.0881 46.8718 29.9187 46.5693 29.6163L42.6701 25.7171C42.4866 25.5336 42.2406 25.4308 41.9806 25.4308C41.7205 25.4308 41.4745 25.5316 41.291 25.7171C40.91 26.0981 40.91 26.7171 41.291 27.0961L47.027 32.8321C47.2105 33.0156 47.4564 33.1184 47.7165 33.1184C47.9766 33.1184 48.2226 33.0176 48.4061 32.8321L48.402 32.8301Z" fill="white"/>
</svg>
