<svg width="100" height="91" viewBox="0 0 100 91" fill="none" xmlns="http://www.w3.org/2000/svg">
<path d="M99.1188 21.2078L88.7975 3.33112C87.9088 1.78996 86.4731 0.68829 84.7542 0.229262C83.0353 -0.229766 81.2421 0.00463098 79.701 0.895341C78.1598 1.7841 77.0581 3.21978 76.5991 4.9387C76.5014 5.30592 76.437 5.67705 76.4018 6.04818L74.1028 7.37643C72.9308 6.64589 71.6572 6.09506 70.3036 5.73369L55.767 1.83684C54.1009 1.38953 52.3605 1.61807 50.8701 2.48143C49.3778 3.34089 48.3093 4.7336 47.862 6.40173C47.4147 8.0679 47.6432 9.80635 48.5066 11.2987C49.368 12.791 50.7607 13.8595 52.4269 14.3048L55.1967 15.0471L53.0558 16.2835L39.6092 8.52107C35.6264 6.22007 30.8643 6.00716 26.7154 7.90773L23.6194 6.11849C23.4378 3.95618 22.2092 1.9892 20.3164 0.897294C17.1364 -0.936865 13.0559 0.155036 11.2218 3.33503L9.9072 5.61063C9.50286 6.31187 9.74312 7.20649 10.4424 7.61278C11.1436 8.01711 12.0383 7.77686 12.4445 7.07757L13.7591 4.80196C14.7866 3.0225 17.0719 2.40916 18.8534 3.43855C20.0019 4.10072 20.7168 5.34108 20.7168 6.67324C20.7168 7.32369 20.5449 7.96633 20.2168 8.53084L9.89547 26.4075C8.86803 28.189 6.58266 28.8003 4.80319 27.7749C3.65269 27.1088 2.93583 25.8704 2.93583 24.5402C2.93583 23.8917 3.10967 23.249 3.43783 22.6806L9.53021 12.1288C9.93454 11.4276 9.69428 10.533 8.99304 10.1267C8.29181 9.72235 7.39719 9.96261 6.9909 10.6639L0.894617 21.2098C0.310576 22.2216 0 23.3721 0 24.5343C0 26.9076 1.27551 29.1187 3.3304 30.3064C4.37542 30.9099 5.52006 31.1971 6.64712 31.1971C7.61205 31.1971 8.56332 30.9841 9.43645 30.5857L11.7414 31.9178C11.6964 33.3008 11.8546 34.6798 12.218 36.0276L16.1129 50.5681C16.5602 52.2342 17.6286 53.6269 19.119 54.4864C20.1113 55.0607 21.2149 55.3556 22.3342 55.3556C22.8948 55.3556 23.4612 55.2814 24.0179 55.1329C27.4557 54.211 29.5028 50.6657 28.5809 47.2279L27.8386 44.4581L31.6651 46.6673V63.0399C31.6651 67.64 33.8606 71.8689 37.5798 74.5137V78.0902C35.8472 79.2934 34.7103 81.2975 34.7103 83.5614C34.7103 87.2337 37.697 90.2203 41.3692 90.2203H62.0118C65.684 90.2203 68.6706 87.2337 68.6706 83.5614C68.6706 81.3229 67.5592 79.3384 65.8578 78.1312V75.4708C67.0806 74.8184 68.194 73.9902 69.1804 73.0038L70.8818 71.3044C71.4541 70.7321 71.4541 69.8043 70.8818 69.2319C70.3094 68.6596 69.3816 68.6596 68.8093 69.2319L67.106 70.9333C66.143 71.8982 65.0277 72.6678 63.7893 73.2245C63.2638 73.4609 62.924 73.9843 62.924 74.5606V76.969C62.6251 76.928 62.3184 76.9045 62.0079 76.9045H41.3633C41.0723 76.9045 40.7851 76.926 40.5039 76.9612V73.7324C40.5039 73.1913 40.2089 72.7186 39.7733 72.4647C36.5269 70.4039 34.5892 66.886 34.5892 63.0419V36.3225C34.5892 34.7833 35.8081 33.5 37.3063 33.4609C38.0857 33.4414 38.8123 33.7305 39.3592 34.2794C39.8866 34.8068 40.1757 35.5061 40.1777 36.2503V50.0074C40.1777 50.8161 40.834 51.4724 41.6426 51.4724C42.4513 51.4724 43.1076 50.8161 43.1076 50.0074V32.6073C43.1076 31.0662 44.3617 29.8122 45.9028 29.8122C47.444 29.8122 48.698 31.0662 48.698 32.6073V50.0074C48.698 50.8161 49.3543 51.4724 50.163 51.4724C50.9717 51.4724 51.628 50.8161 51.628 50.0074V30.5876C51.628 29.0465 52.882 27.7924 54.4232 27.7924C55.9643 27.7924 57.2183 29.0465 57.2183 30.5876V50.0074C57.2183 50.8161 57.8727 51.4724 58.6814 51.4724C59.4901 51.4724 60.1464 50.8161 60.1464 50.0074V32.58C60.1542 31.8436 60.4433 31.1521 60.9687 30.6306C61.4941 30.1032 62.1954 29.8122 62.9416 29.8122C64.4827 29.8122 65.7367 31.0662 65.7367 32.6073V58.7973C65.7367 59.3892 66.0942 59.9244 66.6411 60.151C67.188 60.3776 67.819 60.2526 68.237 59.8326L72.7647 55.3048C73.4308 54.6388 74.3137 54.2715 75.2552 54.2715C76.1967 54.2715 77.0816 54.6388 77.7477 55.3048C78.4137 55.9709 78.779 56.8558 78.779 57.7973C78.779 58.7387 78.4118 59.6236 77.7477 60.2897L72.9288 65.1085C72.3565 65.6808 72.3565 66.6086 72.9288 67.181C73.216 67.4661 73.591 67.6107 73.9641 67.6107C74.3372 67.6107 74.7142 67.4681 74.9993 67.181L79.8182 62.3621C81.037 61.1433 81.709 59.522 81.709 57.7992C81.709 56.0764 81.037 54.4551 79.8182 53.2363C78.5993 52.0174 76.978 51.3455 75.2533 51.3455C73.5285 51.3455 71.9092 52.0174 70.6903 53.2363L68.6628 55.2638V49.9996L80.4237 43.208C84.4065 40.9089 86.9731 36.891 87.4029 32.3495L90.495 30.5642C90.8524 30.7322 91.2294 30.8728 91.6201 30.9763C92.1943 31.1306 92.7764 31.2068 93.3546 31.2068C94.509 31.2068 95.6478 30.9041 96.6733 30.3122C99.8513 28.4761 100.945 24.3956 99.1091 21.2156L99.1188 21.2078ZM62.0137 79.8287C64.0686 79.8287 65.7426 81.5007 65.7426 83.5575C65.7426 85.6144 64.0706 87.2864 62.0137 87.2864H41.3711C39.3143 87.2864 37.6423 85.6144 37.6423 83.5575C37.6423 81.5007 39.3143 79.8287 41.3711 79.8287H62.0137ZM59.5369 28.0034C58.5915 26.1399 56.6577 24.8586 54.429 24.8586C53.5207 24.8586 52.6613 25.0715 51.8975 25.4504L46.6314 22.4111C45.9302 22.0067 45.0355 22.247 44.6293 22.9482C44.223 23.6495 44.4652 24.5441 45.1664 24.9504L49.6024 27.5112C49.4989 27.6733 49.4031 27.8393 49.3172 28.0112C48.364 27.3022 47.1842 26.8822 45.9087 26.8822C43.1877 26.8822 40.9062 28.7906 40.3281 31.3397C39.4081 30.7869 38.3474 30.5056 37.2379 30.5329C34.1654 30.613 31.6671 33.2109 31.6671 36.3245V43.2822L26.2427 40.151C25.729 39.8541 25.0883 39.8971 24.6176 40.2585C24.1468 40.6198 23.9417 41.2273 24.0941 41.7996L25.7505 47.9858C26.2545 49.8629 25.1352 51.7986 23.2581 52.3026C22.3478 52.5467 21.3985 52.4217 20.584 51.949C19.7695 51.4802 19.1854 50.7204 18.9413 49.8102L15.0464 35.2697C14.6928 33.9532 14.5834 32.6034 14.7202 31.2537C14.7788 30.6794 14.4955 30.1247 13.9955 29.8376L11.9113 28.6343C12.0969 28.396 12.2687 28.1401 12.425 27.8706L22.7463 9.98996C22.8909 9.73993 23.0178 9.4821 23.1292 9.21645L25.9204 10.8299C26.3502 11.078 26.901 11.0877 27.3405 10.8572C30.7588 9.05042 34.7943 9.12464 38.1384 11.0545L61.2734 24.4113C62.1837 24.9367 62.715 25.8997 62.7208 26.8841C61.5567 26.9291 60.455 27.3197 59.535 28.0054L59.5369 28.0034ZM85.3226 30.1657C84.8577 30.4099 84.5393 30.8982 84.5393 31.4608C84.3772 35.3029 82.2989 38.7407 78.9704 40.6628L68.6745 46.6087V32.6015C68.6745 30.4079 67.4342 28.4995 65.6176 27.5385C65.8676 25.3137 64.7757 23.0478 62.7423 21.872L55.9839 17.9692L59.7225 15.8108C60.2362 15.5139 60.5194 14.9377 60.4433 14.3517C60.3671 13.7638 59.9432 13.2813 59.3709 13.127L53.1848 11.4667C52.2745 11.2225 51.5147 10.6404 51.0459 9.82588C50.5751 9.01135 50.4501 8.06204 50.6943 7.1518C50.9384 6.24155 51.5205 5.48172 52.337 5.01097C53.1516 4.54022 54.1009 4.41521 55.0111 4.65937L69.5496 8.55623C70.872 8.90978 72.0948 9.48991 73.1886 10.281C73.6574 10.6209 74.2805 10.6521 74.7806 10.363L76.8667 9.15785C76.9819 9.43912 77.1148 9.71649 77.271 9.9841L87.5923 27.8608C87.7369 28.1128 87.899 28.3491 88.0709 28.5757L85.3284 30.1599L85.3226 30.1657ZM95.2181 27.7651C94.3547 28.2632 93.3507 28.396 92.3897 28.1382C91.4267 27.8803 90.6239 27.2631 90.1258 26.4017L79.8045 8.52497C79.3064 7.66161 79.1736 6.65761 79.4314 5.69658C79.6892 4.73555 80.3065 3.93079 81.1679 3.43269C81.7422 3.10063 82.3809 2.93069 83.0255 2.93069C83.3497 2.93069 83.6759 2.97366 83.9963 3.05961C84.9593 3.31745 85.7621 3.93469 86.2602 4.7961L96.5815 22.6728C97.6089 24.4523 96.9975 26.7376 95.2161 27.7651H95.2181Z" fill="white"/>
</svg>
