<svg width="160" height="60" viewBox="0 0 160 60" fill="none" xmlns="http://www.w3.org/2000/svg">
<rect y="-0.000976562" width="160" height="60" rx="30" fill="#F2F2F2"/>
<path d="M59.4682 20.4837C60.2468 19.5478 60.7731 18.2893 60.636 16.999C59.5011 17.0519 58.1085 17.7235 57.3081 18.6594C56.5844 19.4632 55.9484 20.7746 56.1128 22.0067C57.3903 22.1124 58.6678 21.3933 59.4682 20.4785" fill="black"/>
<path d="M60.6196 22.25C58.7664 22.1442 57.1874 23.2652 56.3047 23.2652C55.422 23.2652 54.0623 22.3028 52.5985 22.3293C50.6905 22.3557 48.9196 23.3974 47.9492 25.0525C45.959 28.3628 47.4228 33.2752 49.3582 35.9773C50.3012 37.3099 51.4306 38.7799 52.9274 38.727C54.3364 38.6742 54.8902 37.844 56.6063 37.844C58.3223 37.844 58.8212 38.727 60.3125 38.7006C61.8641 38.6742 62.8291 37.3628 63.7721 36.0302C64.8521 34.5073 65.2908 33.0426 65.3237 32.9579C65.2962 32.9315 62.3356 31.8369 62.3082 28.5531C62.2808 25.8034 64.6328 24.4973 64.7425 24.4127C63.4157 22.5196 61.3378 22.3028 60.6196 22.25Z" fill="black"/>
<path d="M76.7661 18.5271C80.7958 18.5271 83.6029 21.2081 83.6029 25.1052C83.6029 29.0024 80.741 31.7151 76.6674 31.7151H72.2045V38.5577H68.9807V18.5271H76.7661ZM72.2045 29.1082H75.9053C78.7124 29.1082 80.3078 27.6487 80.3078 25.1264C80.3078 22.6041 78.7124 21.1552 75.9163 21.1552H72.2045V29.1082Z" fill="black"/>
<path d="M84.4418 34.4067C84.4418 31.8527 86.4703 30.2822 90.0724 30.0865L94.2173 29.8485V28.7222C94.2173 27.0988 93.0824 26.1259 91.1799 26.1259C89.3816 26.1259 88.2577 26.9561 87.9835 28.2622H85.0449C85.2148 25.6235 87.5504 23.6829 91.2896 23.6829C95.0287 23.6829 97.304 25.5548 97.304 28.4843V38.5471H94.327V36.1464H94.2557C93.3785 37.7698 91.465 38.7957 89.4748 38.7957C86.5087 38.7957 84.4363 37.0189 84.4363 34.3961L84.4418 34.4067ZM94.2173 33.09V31.9373L90.4891 32.1594C88.6305 32.2863 87.5833 33.0742 87.5833 34.3274C87.5833 35.5806 88.6798 36.4373 90.3466 36.4373C92.5177 36.4373 94.2173 34.9937 94.2173 33.09Z" fill="black"/>
<path d="M100.128 43.9302V41.5031C100.358 41.556 100.873 41.556 101.136 41.556C102.578 41.556 103.351 40.9743 103.828 39.4725C103.828 39.4461 104.103 38.5842 104.103 38.5683L98.6309 23.9473H101.997L105.824 35.8292H105.879L109.706 23.9473H112.99L107.321 39.3139C106.027 42.8568 104.53 43.9937 101.389 43.9937C101.131 43.9937 100.352 43.9672 100.122 43.9249L100.128 43.9302Z" fill="black"/>
</svg>
