<svg width="200" height="59" viewBox="0 0 200 59" fill="none" xmlns="http://www.w3.org/2000/svg">
<path d="M198.889 51.9634C198.889 55.0424 196.343 57.5365 193.194 57.5365H6.81403C3.66633 57.5365 1.11133 55.0424 1.11133 51.9634V7.51944C1.11133 4.44184 3.66633 1.93903 6.81403 1.93903H193.192C196.343 1.93903 198.888 4.44184 198.888 7.51944L198.889 51.9634Z" fill="black"/>
<path d="M192.593 2.00623C196.022 2.00623 198.813 4.72721 198.813 8.07109V51.4044C198.813 54.7483 196.022 57.4693 192.593 57.4693H7.40741C3.97778 57.4693 1.18704 54.7483 1.18704 51.4044V8.07109C1.18704 4.72721 3.97778 2.00623 7.40741 2.00623H192.593ZM192.593 0.848873H7.40741C3.33519 0.848873 0 4.10068 0 8.07109V51.4044C0 55.3748 3.33519 58.6266 7.40741 58.6266H192.593C196.665 58.6266 200 55.3748 200 51.4044V8.07109C200 4.10068 196.665 0.848873 192.593 0.848873Z" fill="#A6A6A6"/>
<path d="M44.6343 29.4258C44.5913 24.7703 48.5439 22.5054 48.7246 22.4C46.4861 19.2179 43.0165 18.7831 41.7972 18.7484C38.8832 18.4494 36.0565 20.4485 34.5721 20.4485C33.058 20.4485 30.7721 18.7773 28.3084 18.8264C25.138 18.8741 22.1721 20.6638 20.5454 23.4429C17.1884 29.1094 19.6921 37.4366 22.9084 42.017C24.5172 44.2602 26.3972 46.7649 28.858 46.6768C31.2654 46.58 32.1646 45.1803 35.0698 45.1803C37.9484 45.1803 38.7928 46.6768 41.3024 46.6204C43.8861 46.58 45.5128 44.3671 47.0654 42.1036C48.9246 39.5325 49.6713 37.0004 49.7009 36.8704C49.6402 36.8502 44.6832 35.0056 44.6343 29.4258Z" fill="white"/>
<path d="M39.8935 15.7353C41.1884 14.1565 42.0743 12.0086 41.8284 9.82898C39.9543 9.90987 37.6106 11.0929 36.2609 12.637C35.0669 13.9976 34.0002 16.2279 34.2758 18.3252C36.3809 18.4783 38.5424 17.2895 39.8935 15.7353Z" fill="white"/>
<path d="M72.6666 15.3063C72.6666 17.0064 72.1436 18.2862 71.0992 19.1457C70.1318 19.9387 68.7569 20.3359 66.9762 20.3359C66.0932 20.3359 65.3377 20.2983 64.7051 20.2232V10.934C65.5303 10.804 66.4192 10.7375 67.3792 10.7375C69.0755 10.7375 70.354 11.0972 71.2162 11.8165C72.1821 12.6298 72.6666 13.7925 72.6666 15.3063ZM71.0295 15.3482C71.0295 14.2461 70.7303 13.4011 70.1318 12.8118C69.5332 12.2239 68.6592 11.9292 67.508 11.9292C67.0192 11.9292 66.6029 11.961 66.2577 12.0274V19.0893C66.4488 19.1182 66.7984 19.1312 67.3066 19.1312C68.4947 19.1312 69.4118 18.8091 70.0577 18.1649C70.7036 17.5207 71.0295 16.5818 71.0295 15.3482Z" fill="white"/>
<path d="M81.3464 16.7912C81.3464 17.8384 81.0397 18.6964 80.4263 19.3695C79.7834 20.0614 78.9315 20.4067 77.8678 20.4067C76.8426 20.4067 76.0264 20.0759 75.4175 19.4114C74.8101 18.7484 74.5063 17.9121 74.5063 16.9039C74.5063 15.8494 74.8189 14.9842 75.4471 14.3125C76.0752 13.6409 76.9197 13.3043 77.9834 13.3043C79.0086 13.3043 79.8323 13.6351 80.456 14.2981C81.0486 14.9423 81.3464 15.7743 81.3464 16.7912ZM79.736 16.8403C79.736 16.212 79.5967 15.6732 79.3197 15.224C78.9938 14.6809 78.5301 14.4093 77.9271 14.4093C77.3034 14.4093 76.8293 14.6809 76.5034 15.224C76.2249 15.6732 76.0871 16.2207 76.0871 16.8678C76.0871 17.4961 76.2263 18.0349 76.5034 18.4841C76.8397 19.0272 77.3078 19.2988 77.9123 19.2988C78.5049 19.2988 78.9701 19.0229 79.3049 18.4697C79.5923 18.0118 79.736 17.4687 79.736 16.8403Z" fill="white"/>
<path d="M92.9852 13.443L90.8 20.2521H89.3778L88.4726 17.2953C88.243 16.5572 88.0563 15.8234 87.9111 15.0954H87.883C87.7482 15.8437 87.5615 16.576 87.3215 17.2953L86.36 20.2521H84.9215L82.8667 13.443H84.4623L85.2519 16.68C85.443 17.4455 85.6 18.175 85.726 18.8654H85.7541C85.8697 18.2963 86.0608 17.5712 86.3304 16.6944L87.3215 13.4444H88.5867L89.5363 16.6251C89.766 17.4008 89.9526 18.1475 90.0963 18.8669H90.1393C90.2445 18.1663 90.403 17.4195 90.6134 16.6251L91.4608 13.4444H92.9852V13.443Z" fill="white"/>
<path d="M101.034 20.2521H99.4815V16.3521C99.4815 15.1503 99.0133 14.5494 98.0741 14.5494C97.6133 14.5494 97.2415 14.7141 96.9526 15.0449C96.6667 15.3757 96.5215 15.7657 96.5215 16.212V20.2507H94.9689V15.3887C94.9689 14.7907 94.9496 14.1421 94.9126 13.4401H96.277L96.3496 14.5047H96.3926C96.5733 14.1739 96.843 13.9009 97.197 13.6828C97.6178 13.4285 98.0889 13.3 98.6044 13.3C99.2563 13.3 99.7985 13.5051 100.23 13.9168C100.766 14.4209 101.034 15.1734 101.034 16.173V20.2521Z" fill="white"/>
<path d="M105.315 20.2521H103.764V10.3187H105.315V20.2521Z" fill="white"/>
<path d="M114.456 16.7912C114.456 17.8384 114.15 18.6964 113.536 19.3695C112.893 20.0614 112.04 20.4067 110.978 20.4067C109.951 20.4067 109.135 20.0759 108.527 19.4114C107.92 18.7484 107.616 17.9121 107.616 16.9039C107.616 15.8494 107.929 14.9842 108.557 14.3125C109.185 13.6409 110.03 13.3043 111.092 13.3043C112.118 13.3043 112.941 13.6351 113.566 14.2981C114.158 14.9423 114.456 15.7743 114.456 16.7912ZM112.844 16.8403C112.844 16.212 112.705 15.6732 112.428 15.224C112.104 14.6809 111.638 14.4093 111.037 14.4093C110.412 14.4093 109.938 14.6809 109.613 15.224C109.335 15.6732 109.197 16.2207 109.197 16.8678C109.197 17.4961 109.336 18.0349 109.613 18.4841C109.95 19.0272 110.418 19.2988 111.022 19.2988C111.615 19.2988 112.078 19.0229 112.413 18.4697C112.702 18.0118 112.844 17.4687 112.844 16.8403Z" fill="white"/>
<path d="M121.97 20.2521H120.576L120.461 19.4678H120.418C119.941 20.0932 119.261 20.4067 118.378 20.4067C117.718 20.4067 117.185 20.2001 116.783 19.7899C116.419 19.4172 116.237 18.9535 116.237 18.4032C116.237 17.5712 116.592 16.9371 117.308 16.498C118.022 16.0589 119.026 15.8437 120.32 15.8538V15.7267C120.32 14.8297 119.837 14.3819 118.869 14.3819C118.181 14.3819 117.573 14.5509 117.049 14.886L116.733 13.8922C117.382 13.5008 118.183 13.3043 119.129 13.3043C120.954 13.3043 121.869 14.2432 121.869 16.121V18.6285C121.869 19.3089 121.903 19.8505 121.97 20.2521ZM120.358 17.9121V16.862C118.646 16.8331 117.789 17.291 117.789 18.2342C117.789 18.5895 117.887 18.8553 118.087 19.033C118.287 19.2107 118.542 19.2988 118.846 19.2988C119.186 19.2988 119.505 19.1933 119.795 18.9839C120.087 18.773 120.266 18.5058 120.333 18.1779C120.349 18.1042 120.358 18.0147 120.358 17.9121Z" fill="white"/>
<path d="M130.793 20.2521H129.415L129.342 19.1587H129.299C128.859 19.9907 128.11 20.4067 127.056 20.4067C126.215 20.4067 125.514 20.0846 124.959 19.4403C124.403 18.7961 124.126 17.9598 124.126 16.9328C124.126 15.8307 124.427 14.938 125.031 14.2562C125.616 13.6207 126.333 13.3029 127.187 13.3029C128.124 13.3029 128.781 13.6106 129.154 14.2273H129.184V10.3187H130.738V18.4177C130.738 19.0807 130.756 19.6917 130.793 20.2521ZM129.184 17.3806V16.2452C129.184 16.0488 129.169 15.8899 129.141 15.7686C129.053 15.4046 128.865 15.0983 128.579 14.8513C128.29 14.6043 127.942 14.4801 127.541 14.4801C126.962 14.4801 126.508 14.704 126.175 15.1532C125.844 15.6024 125.677 16.1759 125.677 16.8764C125.677 17.5496 125.836 18.0956 126.154 18.5159C126.49 18.9637 126.944 19.1876 127.511 19.1876C128.021 19.1876 128.428 19.0012 128.738 18.6271C129.037 18.2819 129.184 17.8659 129.184 17.3806Z" fill="white"/>
<path d="M144.071 16.7912C144.071 17.8384 143.764 18.6964 143.151 19.3695C142.508 20.0614 141.658 20.4067 140.592 20.4067C139.569 20.4067 138.752 20.0759 138.142 19.4114C137.535 18.7484 137.231 17.9121 137.231 16.9039C137.231 15.8494 137.544 14.9842 138.172 14.3125C138.8 13.6409 139.644 13.3043 140.709 13.3043C141.733 13.3043 142.558 13.6351 143.181 14.2981C143.773 14.9423 144.071 15.7743 144.071 16.7912ZM142.462 16.8403C142.462 16.212 142.323 15.6732 142.046 15.224C141.718 14.6809 141.256 14.4093 140.652 14.4093C140.029 14.4093 139.555 14.6809 139.228 15.224C138.949 15.6732 138.812 16.2207 138.812 16.8678C138.812 17.4961 138.951 18.0349 139.228 18.4841C139.564 19.0272 140.032 19.2988 140.637 19.2988C141.229 19.2988 141.696 19.0229 142.031 18.4697C142.317 18.0118 142.462 17.4687 142.462 16.8403Z" fill="white"/>
<path d="M152.419 20.2521H150.868V16.3521C150.868 15.1503 150.4 14.5494 149.459 14.5494C148.999 14.5494 148.627 14.7141 148.339 15.0449C148.052 15.3757 147.908 15.7657 147.908 16.212V20.2507H146.354V15.3887C146.354 14.7907 146.336 14.1421 146.299 13.4401H147.662L147.735 14.5047H147.778C147.96 14.1739 148.23 13.9009 148.582 13.6828C149.004 13.4285 149.474 13.3 149.991 13.3C150.642 13.3 151.184 13.5051 151.615 13.9168C152.153 14.4209 152.419 15.1734 152.419 16.173V20.2521Z" fill="white"/>
<path d="M162.868 14.5769H161.158V17.8847C161.158 18.7254 161.462 19.1457 162.064 19.1457C162.342 19.1457 162.573 19.1226 162.755 19.0749L162.795 20.2233C162.489 20.3359 162.086 20.3923 161.59 20.3923C160.976 20.3923 160.499 20.2103 160.154 19.8463C159.807 19.4823 159.635 18.8698 159.635 18.0104V14.5769H158.615V13.443H159.635V12.195L161.157 11.7473V13.4416H162.867V14.5769H162.868Z" fill="white"/>
<path d="M171.087 20.2521H169.533V16.381C169.533 15.1604 169.065 14.5494 168.127 14.5494C167.407 14.5494 166.915 14.9033 166.646 15.6111C166.6 15.7599 166.573 15.9419 166.573 16.1557V20.2507H165.022V10.3187H166.573V14.4223H166.603C167.092 13.6756 167.792 13.3029 168.701 13.3029C169.343 13.3029 169.875 13.508 170.298 13.9197C170.823 14.4324 171.087 15.1951 171.087 16.2033V20.2521Z" fill="white"/>
<path d="M179.566 16.5254C179.566 16.797 179.545 17.0252 179.508 17.2115H174.852C174.872 17.8847 175.095 18.3974 175.526 18.7528C175.92 19.0705 176.428 19.2294 177.05 19.2294C177.739 19.2294 178.367 19.1225 178.933 18.9073L179.176 19.9589C178.514 20.2391 177.735 20.3792 176.832 20.3792C175.751 20.3792 174.899 20.0687 174.283 19.4475C173.664 18.8264 173.357 17.993 173.357 16.9472C173.357 15.9202 173.643 15.0651 174.219 14.3833C174.821 13.6553 175.634 13.2913 176.661 13.2913C177.665 13.2913 178.428 13.6553 178.944 14.3833C179.36 14.9611 179.566 15.6761 179.566 16.5254ZM178.084 16.134C178.096 15.6848 177.994 15.2977 177.784 14.9712C177.514 14.5509 177.104 14.34 176.548 14.34C176.041 14.34 175.628 14.5451 175.312 14.9568C175.055 15.2847 174.902 15.6761 174.852 16.134H178.084Z" fill="white"/>
<path d="M79.474 46.3546H76.1096L74.2666 40.7083H67.8607L66.1051 46.3546H62.8296L69.1763 27.132H73.0963L79.474 46.3546ZM73.7111 38.3394L72.0444 33.32C71.8681 32.8072 71.5377 31.5996 71.0503 29.6987H70.9911C70.797 30.5163 70.4844 31.7238 70.0548 33.32L68.4177 38.3394H73.7111Z" fill="white"/>
<path d="M95.7953 39.2538C95.7953 41.6111 95.142 43.4745 93.8353 44.8423C92.665 46.06 91.2116 46.6681 89.4768 46.6681C87.6042 46.6681 86.2591 46.0123 85.4398 44.7008H85.3805V52.0025H82.222V37.0568C82.222 35.5748 82.182 34.0538 82.105 32.4938H84.8828L85.0591 34.6908H85.1183C86.1716 33.0355 87.7702 32.2092 89.9153 32.2092C91.5924 32.2092 92.9924 32.8549 94.1124 34.1477C95.2353 35.4419 95.7953 37.1434 95.7953 39.2538ZM92.5776 39.3665C92.5776 38.0173 92.2665 36.9051 91.6413 36.0298C90.9583 35.1169 90.0413 34.6605 88.8916 34.6605C88.1124 34.6605 87.4042 34.9147 86.7716 35.4159C86.1376 35.9215 85.7228 36.5816 85.5287 37.3991C85.4309 37.7805 85.382 38.0925 85.382 38.338V40.6491C85.382 41.6573 85.6991 42.5081 86.3331 43.2029C86.9672 43.8977 87.7909 44.2443 88.8042 44.2443C89.9939 44.2443 90.9198 43.7966 91.582 42.9039C92.2457 42.0098 92.5776 40.8311 92.5776 39.3665Z" fill="white"/>
<path d="M112.146 39.2538C112.146 41.6111 111.493 43.4745 110.185 44.8423C109.016 46.06 107.563 46.6681 105.828 46.6681C103.955 46.6681 102.61 46.0123 101.792 44.7008H101.733V52.0025H98.5746V37.0568C98.5746 35.5748 98.5346 34.0538 98.4575 32.4938H101.235L101.412 34.6908H101.471C102.523 33.0355 104.121 32.2092 106.268 32.2092C107.943 32.2092 109.343 32.8549 110.466 34.1477C111.585 35.4419 112.146 37.1434 112.146 39.2538ZM108.929 39.3665C108.929 38.0173 108.616 36.9051 107.991 36.0298C107.308 35.1169 106.394 34.6605 105.243 34.6605C104.462 34.6605 103.755 34.9147 103.121 35.4159C102.487 35.9215 102.074 36.5816 101.88 37.3991C101.783 37.7805 101.733 38.0925 101.733 38.338V40.6491C101.733 41.6573 102.05 42.5081 102.681 43.2029C103.315 43.8962 104.139 44.2443 105.155 44.2443C106.345 44.2443 107.271 43.7966 107.933 42.9039C108.597 42.0098 108.929 40.8311 108.929 39.3665Z" fill="white"/>
<path d="M130.428 40.964C130.428 42.5991 129.846 43.9295 128.677 44.9565C127.392 46.0788 125.604 46.6392 123.306 46.6392C121.185 46.6392 119.484 46.2406 118.197 45.4418L118.929 42.875C120.315 43.6926 121.837 44.1028 123.495 44.1028C124.684 44.1028 125.61 43.8399 126.275 43.317C126.938 42.7941 127.268 42.0921 127.268 41.2168C127.268 40.4368 126.995 39.7796 126.449 39.2466C125.905 38.7136 124.997 38.2181 123.729 37.7602C120.277 36.505 118.552 34.6662 118.552 32.2482C118.552 30.668 119.157 29.3723 120.367 28.3641C121.573 27.3545 123.182 26.8503 125.194 26.8503C126.988 26.8503 128.478 27.1551 129.668 27.7632L128.878 30.2737C127.767 29.6843 126.511 29.3897 125.105 29.3897C123.994 29.3897 123.126 29.6569 122.503 30.1885C121.978 30.6637 121.714 31.2429 121.714 31.929C121.714 32.6888 122.015 33.3171 122.619 33.8111C123.145 34.2676 124.1 34.7616 125.487 35.2946C127.183 35.9605 128.429 36.739 129.231 37.6317C130.029 38.5215 130.428 39.6351 130.428 40.964Z" fill="white"/>
<path d="M140.871 34.8049H137.39V41.5345C137.39 43.2462 138.003 44.1013 139.233 44.1013C139.797 44.1013 140.265 44.0537 140.636 43.9583L140.723 46.2969C140.101 46.5237 139.282 46.6378 138.267 46.6378C137.019 46.6378 136.044 46.2665 135.341 45.5255C134.64 44.7831 134.287 43.538 134.287 41.7888V34.802H132.213V32.4909H134.287V29.953L137.39 29.0401V32.4909H140.871V34.8049Z" fill="white"/>
<path d="M156.579 39.3101C156.579 41.4407 155.954 43.1899 154.707 44.5578C153.398 45.9661 151.662 46.6681 149.498 46.6681C147.412 46.6681 145.751 45.9936 144.513 44.6445C143.274 43.2954 142.655 41.5924 142.655 39.5398C142.655 37.3919 143.292 35.6326 144.57 34.2647C145.846 32.8954 147.567 32.2107 149.732 32.2107C151.818 32.2107 153.496 32.8852 154.763 34.2358C155.975 35.5459 156.579 37.2374 156.579 39.3101ZM153.302 39.4098C153.302 38.1315 153.022 37.0351 152.455 36.1208C151.793 35.0144 150.846 34.4626 149.619 34.4626C148.35 34.4626 147.385 35.0158 146.723 36.1208C146.156 37.0366 145.876 38.1502 145.876 39.4676C145.876 40.7459 146.156 41.8422 146.723 42.7551C147.406 43.8616 148.36 44.4134 149.591 44.4134C150.797 44.4134 151.744 43.85 152.427 42.7262C153.009 41.7946 153.302 40.6867 153.302 39.4098Z" fill="white"/>
<path d="M166.846 35.2021C166.533 35.1458 166.2 35.1169 165.85 35.1169C164.739 35.1169 163.88 35.5257 163.275 36.3447C162.749 37.0669 162.486 37.9798 162.486 39.0819V46.3547H159.329L159.358 36.8589C159.358 35.2613 159.318 33.8068 159.24 32.4952H161.991L162.106 35.1472H162.194C162.527 34.2358 163.053 33.502 163.773 32.9517C164.477 32.4562 165.237 32.2092 166.056 32.2092C166.348 32.2092 166.612 32.2295 166.846 32.2656V35.2021Z" fill="white"/>
<path d="M180.972 38.7684C180.972 39.3202 180.935 39.7853 180.856 40.1652H171.381C171.418 41.5346 171.876 42.5818 172.756 43.304C173.554 43.9497 174.587 44.2732 175.855 44.2732C177.258 44.2732 178.538 44.0551 179.689 43.6174L180.184 45.7552C178.839 46.3272 177.25 46.6118 175.418 46.6118C173.213 46.6118 171.483 45.9791 170.224 44.7152C168.968 43.4513 168.338 41.7541 168.338 39.625C168.338 37.5349 168.923 35.7943 170.095 34.4062C171.322 32.9242 172.979 32.1832 175.065 32.1832C177.114 32.1832 178.665 32.9242 179.719 34.4062C180.553 35.5834 180.972 37.0394 180.972 38.7684ZM177.96 37.9697C177.981 37.0568 177.775 36.2681 177.347 35.6022C176.8 34.7457 175.96 34.3181 174.83 34.3181C173.797 34.3181 172.957 34.7356 172.316 35.5733C171.79 36.2392 171.477 37.038 171.381 37.9682H177.96V37.9697Z" fill="white"/>
</svg>
