<svg width="20" height="20" viewBox="0 0 20 20" fill="none" xmlns="http://www.w3.org/2000/svg">
<path d="M9.7082 17.8429C5.6777 17.8429 3.66244 17.8429 2.41032 16.5908C1.1582 15.3387 1.1582 13.3234 1.1582 9.29292C1.1582 5.26241 1.1582 3.24716 2.41032 1.99504C3.66244 0.74292 5.6777 0.74292 9.7082 0.74292C13.7387 0.74292 15.754 0.74292 17.0061 1.99504C18.2582 3.24716 18.2582 5.26241 18.2582 9.29292" stroke="#3B3B44" stroke-linecap="round"/>
<path d="M1.1582 5.24292H18.2582" stroke="#3B3B44" stroke-linejoin="round"/>
<path d="M8.35781 13.3429H9.25781M4.75781 13.3429H5.65781M8.35781 9.74292H11.9578M4.75781 9.74292H5.65781" stroke="#3B3B44" stroke-linecap="round" stroke-linejoin="round"/>
<path d="M17.717 17.303L19.157 18.743M18.437 14.783C18.437 12.9936 16.9864 11.543 15.197 11.543C13.4077 11.543 11.957 12.9936 11.957 14.783C11.957 16.5723 13.4077 18.023 15.197 18.023C16.9864 18.023 18.437 16.5723 18.437 14.783Z" stroke="#3B3B44" stroke-linecap="round" stroke-linejoin="round"/>
</svg>
