<svg width="145" height="44" viewBox="0 0 145 44" fill="none" xmlns="http://www.w3.org/2000/svg">
<g clip-path="url(#clip0_0_2025)">
<path d="M48.7021 31.717L48.215 32.1758C47.8645 31.834 47.4802 31.5744 47.0621 31.3971C46.6439 31.2199 46.2374 31.1318 45.8403 31.1318C45.3473 31.1318 44.8766 31.2523 44.4304 31.4922C43.9842 31.7332 43.6384 32.0588 43.3931 32.4702C43.1478 32.8815 43.0252 33.3172 43.0252 33.775C43.0252 34.2327 43.1525 34.6904 43.406 35.1133C43.6594 35.5363 44.011 35.8689 44.4584 36.1111C44.9058 36.3532 45.3964 36.4738 45.9302 36.4738C46.5773 36.4738 47.1251 36.293 47.5725 35.9303C48.0199 35.5688 48.285 35.0983 48.368 34.5212H46.3612V33.9186H49.0735C49.0677 34.8839 48.7791 35.6499 48.2068 36.2165C47.6344 36.7832 46.8705 37.0671 45.9115 37.0671C44.7481 37.0671 43.8265 36.6742 43.1478 35.8874C42.6257 35.2825 42.3652 34.5815 42.3652 33.7865C42.3652 33.1956 42.5147 32.6452 42.8149 32.1353C43.1151 31.6254 43.5251 31.228 44.0472 30.9406C44.5694 30.6532 45.1593 30.5095 45.8181 30.5095C46.3507 30.5095 46.853 30.6045 47.3237 30.7957C47.7945 30.9869 48.2535 31.2929 48.7009 31.7147L48.7021 31.717Z" fill="white"/>
<path d="M54.6347 32.2942V36.9108H54.0449V36.117C53.7937 36.4195 53.5122 36.6478 53.2003 36.8007C52.8885 36.9537 52.5462 37.0301 52.1759 37.0301C51.5171 37.0301 50.9541 36.7938 50.488 36.3198C50.022 35.8459 49.7884 35.27 49.7884 34.5909C49.7884 33.9119 50.0231 33.358 50.4939 32.8852C50.9646 32.4124 51.53 32.176 52.1923 32.176C52.5742 32.176 52.92 32.2571 53.2295 32.4182C53.5391 32.5793 53.8101 32.8215 54.0449 33.1436V32.2954H54.6347V32.2942ZM52.2413 32.7485C51.9084 32.7485 51.6001 32.8296 51.3186 32.9918C51.037 33.154 50.8128 33.3823 50.6457 33.6766C50.4787 33.971 50.3958 34.2815 50.3958 34.6095C50.3958 34.9374 50.4799 35.2456 50.6481 35.5423C50.8163 35.8389 51.0417 36.0695 51.3256 36.2352C51.6094 36.4009 51.9131 36.4832 52.2378 36.4832C52.5626 36.4832 52.8756 36.4009 53.1688 36.2375C53.462 36.073 53.6874 35.8517 53.8463 35.5724C54.0051 35.2931 54.0834 34.978 54.0834 34.6268C54.0834 34.0926 53.9059 33.6465 53.5519 33.2873C53.198 32.9281 52.7611 32.7485 52.2425 32.7485H52.2413Z" fill="white"/>
<path d="M56.3285 30.5791H56.9277V32.2929H57.8774V32.8063H56.9277V36.9095H56.3285V32.8063H55.512V32.2929H56.3285V30.5791Z" fill="white"/>
<path d="M62.5193 35.3789L63.0239 35.6419C62.8581 35.9641 62.6677 36.2248 62.4504 36.4229C62.2331 36.6211 61.989 36.7717 61.718 36.8749C61.447 36.978 61.1398 37.0301 60.7976 37.0301C60.0383 37.0301 59.4449 36.7833 59.0162 36.2897C58.5875 35.7961 58.3738 35.2375 58.3738 34.6153C58.3738 34.0301 58.5548 33.5075 58.9169 33.0497C59.376 32.4669 59.9916 32.176 60.7625 32.176C61.5334 32.176 62.1899 32.475 62.663 33.0718C62.9994 33.4936 63.1711 34.0196 63.1769 34.65H58.9894C59.001 35.1865 59.1739 35.6257 59.508 35.9687C59.8421 36.3117 60.2544 36.4832 60.7462 36.4832C60.9833 36.4832 61.2134 36.4426 61.4377 36.3604C61.6619 36.2781 61.8523 36.1703 62.0089 36.0348C62.1654 35.8992 62.3359 35.6813 62.5181 35.3789H62.5193ZM62.5193 34.1355C62.4399 33.8192 62.3231 33.5654 62.17 33.3754C62.017 33.1865 61.815 33.0335 61.5638 32.9165C61.3127 32.8006 61.0487 32.7427 60.7719 32.7427C60.3151 32.7427 59.9227 32.8887 59.5944 33.1795C59.355 33.3916 59.1727 33.7102 59.0501 34.1344H62.5193V34.1355Z" fill="white"/>
<path d="M63.49 32.2942H64.1056L65.5318 35.6465L67.0164 32.2942H67.1251L68.6202 35.6465L70.0745 32.2942H70.6971L68.6751 36.9108H68.5641L67.076 33.6048L65.589 36.9108H65.4781L63.49 32.2942Z" fill="white"/>
<path d="M75.8611 32.2942V36.9108H75.2713V36.117C75.0201 36.4195 74.7386 36.6478 74.4267 36.8007C74.1149 36.9537 73.7726 37.0301 73.4023 37.0301C72.7435 37.0301 72.1805 36.7938 71.7145 36.3198C71.2484 35.8459 71.0148 35.27 71.0148 34.5909C71.0148 33.9119 71.2496 33.358 71.7203 32.8852C72.191 32.4124 72.7564 32.176 73.4187 32.176C73.8006 32.176 74.1464 32.2571 74.4559 32.4182C74.7655 32.5793 75.0365 32.8215 75.2713 33.1436V32.2954H75.8611V32.2942ZM73.4677 32.7485C73.1348 32.7485 72.8265 32.8296 72.545 32.9918C72.2623 33.154 72.0392 33.3823 71.8721 33.6766C71.7051 33.971 71.6222 34.2815 71.6222 34.6095C71.6222 34.9374 71.7063 35.2456 71.8745 35.5423C72.0427 35.8389 72.2681 36.0695 72.552 36.2352C72.8358 36.4009 73.1395 36.4832 73.4642 36.4832C73.789 36.4832 74.102 36.4009 74.3952 36.2375C74.6884 36.073 74.9138 35.8517 75.0727 35.5724C75.2304 35.2931 75.3098 34.978 75.3098 34.6268C75.3098 34.0926 75.1323 33.6465 74.7783 33.2873C74.4244 32.9281 73.9875 32.7485 73.4689 32.7485H73.4677Z" fill="white"/>
<path d="M76.5328 32.2942H77.1659L78.765 35.8493L80.3186 32.2942H80.9563L78.1798 38.6003H77.5467L78.4426 36.562L76.5328 32.2942Z" fill="white"/>
<path d="M84.3274 30.5791H84.9267V32.2929H85.8763V32.8063H84.9267V36.9095H84.3274V32.8063H83.5098V32.2929H84.3274V30.5791Z" fill="white"/>
<path d="M88.8012 32.1748C89.5184 32.1748 90.1129 32.4321 90.5837 32.9477C91.0124 33.417 91.2261 33.9732 91.2261 34.6152C91.2261 35.2572 90.9995 35.8238 90.5475 36.3059C90.0942 36.7879 89.5125 37.0289 88.8012 37.0289C88.0898 37.0289 87.5034 36.7879 87.0502 36.3059C86.597 35.8238 86.3704 35.2595 86.3704 34.6152C86.3704 33.9709 86.5842 33.4216 87.0128 32.9512C87.4847 32.4332 88.0793 32.1748 88.8 32.1748H88.8012ZM88.7988 32.7565C88.3012 32.7565 87.8725 32.9384 87.5151 33.3035C87.1577 33.6685 86.979 34.11 86.979 34.6279C86.979 34.9617 87.0607 35.2734 87.2231 35.5619C87.3866 35.8505 87.6062 36.0729 87.8842 36.2305C88.1622 36.3881 88.4671 36.4658 88.7988 36.4658C89.1306 36.4658 89.4354 36.387 89.7134 36.2305C89.9914 36.0741 90.2111 35.8505 90.3746 35.5619C90.5381 35.2734 90.6187 34.9617 90.6187 34.6279C90.6187 34.11 90.4388 33.6685 90.0802 33.3035C89.7216 32.9384 89.2941 32.7565 88.7988 32.7565Z" fill="white"/>
<path d="M94.5084 36.9108V30.6685H95.8132C96.7547 30.6685 97.4368 30.7438 97.862 30.8933C98.4717 31.1053 98.9495 31.4726 99.2929 31.9964C99.6363 32.5202 99.808 33.1436 99.808 33.8678C99.808 34.4936 99.6714 35.0428 99.3992 35.5191C99.127 35.9942 98.7731 36.3453 98.3386 36.5713C97.904 36.7972 97.2943 36.9108 96.5094 36.9108H94.5073H94.5084ZM95.1112 36.321H95.8389C96.7091 36.321 97.3118 36.2677 97.6482 36.1599C98.1213 36.007 98.4939 35.7323 98.7649 35.3349C99.0359 34.9374 99.1714 34.4519 99.1714 33.8783C99.1714 33.2757 99.0242 32.7612 98.731 32.3348C98.4379 31.9084 98.0279 31.6152 97.5034 31.4576C97.1097 31.3394 96.4615 31.2791 95.5574 31.2791H95.1123V36.321H95.1112Z" fill="white"/>
<path d="M100.962 30.3926C101.099 30.3926 101.214 30.4412 101.311 30.5374C101.408 30.6336 101.456 30.7495 101.456 30.8851C101.456 31.0206 101.408 31.133 101.311 31.2292C101.214 31.3254 101.099 31.3729 100.962 31.3729C100.825 31.3729 100.713 31.3254 100.617 31.2292C100.522 31.133 100.473 31.0183 100.473 30.8851C100.473 30.7518 100.521 30.6336 100.617 30.5374C100.714 30.4412 100.829 30.3926 100.962 30.3926ZM100.664 32.2941H101.263V36.9107H100.664V32.2941Z" fill="white"/>
<path d="M106.345 32.2941H106.944V35.9732C106.944 36.621 106.887 37.0949 106.773 37.395C106.617 37.8192 106.345 38.1459 105.956 38.3754C105.568 38.6048 105.102 38.7195 104.557 38.7195C104.158 38.7195 103.799 38.6639 103.482 38.5515C103.164 38.4391 102.905 38.2885 102.705 38.1007C102.505 37.9119 102.322 37.6361 102.154 37.2734H102.804C102.982 37.5793 103.209 37.8053 103.49 37.9524C103.77 38.0996 104.117 38.1726 104.531 38.1726C104.944 38.1726 105.284 38.0973 105.564 37.9466C105.845 37.796 106.046 37.6059 106.166 37.3777C106.286 37.1494 106.346 36.7809 106.346 36.2722V36.0346C106.12 36.3174 105.845 36.5352 105.519 36.6859C105.193 36.8365 104.848 36.913 104.483 36.913C104.054 36.913 103.652 36.8075 103.275 36.5966C102.898 36.3858 102.607 36.1018 102.401 35.7461C102.196 35.3892 102.093 34.9975 102.093 34.5711C102.093 34.1447 102.2 33.7461 102.414 33.3764C102.628 33.0067 102.924 32.7147 103.303 32.5004C103.681 32.286 104.08 32.1782 104.5 32.1782C104.848 32.1782 105.173 32.2501 105.474 32.3926C105.776 32.5351 106.065 32.7715 106.346 33.0995V32.2976L106.345 32.2941ZM104.578 32.7483C104.239 32.7483 103.924 32.8295 103.634 32.9928C103.343 33.1562 103.115 33.3799 102.949 33.6673C102.783 33.9546 102.701 34.2652 102.701 34.5989C102.701 35.1053 102.872 35.5236 103.214 35.855C103.556 36.1864 104 36.3521 104.545 36.3521C105.089 36.3521 105.537 36.1876 105.873 35.8597C106.208 35.5317 106.375 35.1007 106.375 34.5653C106.375 34.2177 106.298 33.9071 106.144 33.6336C105.99 33.3602 105.771 33.1446 105.49 32.9871C105.207 32.8283 104.903 32.7495 104.578 32.7495V32.7483Z" fill="white"/>
<path d="M108.259 30.3926C108.396 30.3926 108.511 30.4412 108.608 30.5374C108.705 30.6336 108.753 30.7495 108.753 30.8851C108.753 31.0206 108.705 31.133 108.608 31.2292C108.511 31.3254 108.396 31.3729 108.259 31.3729C108.122 31.3729 108.01 31.3254 107.915 31.2292C107.819 31.133 107.77 31.0183 107.77 30.8851C107.77 30.7518 107.818 30.6336 107.915 30.5374C108.011 30.4412 108.126 30.3926 108.259 30.3926ZM107.961 32.2941H108.56V36.9107H107.961V32.2941Z" fill="white"/>
<path d="M110.153 30.5791H110.752V32.2929H111.701V32.8063H110.752V36.9095H110.153V32.8063H109.335V32.2929H110.153V30.5791Z" fill="white"/>
<path d="M117.061 32.2942V36.9108H116.471V36.117C116.22 36.4195 115.938 36.6478 115.626 36.8007C115.314 36.9537 114.972 37.0301 114.602 37.0301C113.943 37.0301 113.38 36.7938 112.914 36.3198C112.448 35.8459 112.214 35.27 112.214 34.5909C112.214 33.9119 112.449 33.358 112.92 32.8852C113.39 32.4124 113.956 32.176 114.618 32.176C115 32.176 115.346 32.2571 115.655 32.4182C115.965 32.5793 116.236 32.8215 116.471 33.1436V32.2954H117.061V32.2942ZM114.667 32.7485C114.334 32.7485 114.026 32.8296 113.744 32.9918C113.462 33.154 113.239 33.3823 113.072 33.6766C112.905 33.971 112.822 34.2815 112.822 34.6095C112.822 34.9374 112.906 35.2456 113.074 35.5423C113.242 35.8389 113.468 36.0695 113.751 36.2352C114.035 36.4009 114.339 36.4832 114.664 36.4832C114.988 36.4832 115.301 36.4009 115.595 36.2375C115.888 36.073 116.113 35.8517 116.272 35.5724C116.43 35.2931 116.509 34.978 116.509 34.6268C116.509 34.0926 116.332 33.6465 115.978 33.2873C115.624 32.9281 115.187 32.7485 114.668 32.7485H114.667Z" fill="white"/>
<path d="M118.143 30.512H118.743V36.9107H118.143V30.512Z" fill="white"/>
<path d="M122.178 30.6685H123.418C123.917 30.6685 124.302 30.7276 124.569 30.8446C124.837 30.9616 125.049 31.1424 125.204 31.3857C125.36 31.6291 125.438 31.8991 125.438 32.1969C125.438 32.4738 125.37 32.7264 125.234 32.9547C125.097 33.183 124.897 33.3673 124.633 33.5086C124.96 33.6187 125.211 33.7485 125.388 33.8968C125.564 34.0451 125.701 34.2248 125.799 34.4356C125.897 34.6465 125.946 34.8748 125.946 35.1205C125.946 35.6211 125.762 36.0452 125.393 36.3917C125.023 36.7381 124.528 36.912 123.906 36.912H122.178V30.6696V30.6685ZM122.794 31.2791V33.278H123.153C123.59 33.278 123.913 33.2375 124.118 33.1575C124.324 33.0764 124.487 32.9501 124.606 32.7751C124.727 32.6013 124.786 32.4078 124.786 32.1957C124.786 31.9095 124.686 31.6859 124.484 31.5236C124.282 31.3614 123.962 31.2791 123.521 31.2791H122.792H122.794ZM122.794 33.9061V36.299H123.574C124.034 36.299 124.37 36.2549 124.585 36.1657C124.799 36.0765 124.972 35.9374 125.102 35.7474C125.231 35.5573 125.297 35.3522 125.297 35.1321C125.297 34.8551 125.206 34.6129 125.022 34.4067C124.839 34.2004 124.589 34.059 124.269 33.9826C124.055 33.9316 123.681 33.9061 123.15 33.9061H122.794Z" fill="white"/>
<path d="M126.69 32.2942H127.302V32.9686C127.485 32.7033 127.677 32.504 127.879 32.373C128.082 32.2409 128.293 32.176 128.513 32.176C128.678 32.176 128.855 32.2282 129.043 32.3336L128.731 32.8342C128.606 32.7809 128.5 32.7531 128.414 32.7531C128.215 32.7531 128.022 32.8342 127.837 32.9976C127.652 33.1598 127.511 33.4124 127.415 33.7554C127.341 34.0185 127.304 34.5504 127.304 35.3511V36.9131H126.691V32.2965L126.69 32.2942Z" fill="white"/>
<path d="M134.014 32.2942V36.9108H133.424V36.117C133.173 36.4195 132.892 36.6478 132.58 36.8007C132.268 36.9537 131.926 37.0301 131.555 37.0301C130.897 37.0301 130.334 36.7938 129.867 36.3198C129.401 35.8459 129.168 35.27 129.168 34.5909C129.168 33.9119 129.403 33.358 129.873 32.8852C130.344 32.4124 130.909 32.176 131.572 32.176C131.954 32.176 132.299 32.2571 132.609 32.4182C132.919 32.5793 133.19 32.8215 133.424 33.1436V32.2954H134.014V32.2942ZM131.621 32.7485C131.288 32.7485 130.98 32.8296 130.698 32.9918C130.415 33.154 130.192 33.3823 130.025 33.6766C129.858 33.971 129.775 34.2815 129.775 34.6095C129.775 34.9374 129.859 35.2456 130.028 35.5423C130.196 35.8389 130.421 36.0695 130.705 36.2352C130.989 36.4009 131.293 36.4832 131.617 36.4832C131.942 36.4832 132.255 36.4009 132.548 36.2375C132.841 36.073 133.067 35.8517 133.226 35.5724C133.383 35.2931 133.463 34.978 133.463 34.6268C133.463 34.0926 133.285 33.6465 132.931 33.2873C132.577 32.9281 132.141 32.7485 131.622 32.7485H131.621Z" fill="white"/>
<path d="M135.187 32.2942H135.786V33.1216C136.026 32.8052 136.291 32.5677 136.582 32.4113C136.872 32.2548 137.189 32.176 137.531 32.176C137.874 32.176 138.188 32.2641 138.458 32.4391C138.727 32.614 138.926 32.8504 139.054 33.1482C139.183 33.4449 139.247 33.9072 139.247 34.5353V36.912H138.648V34.7091C138.648 34.1772 138.626 33.8226 138.581 33.6442C138.512 33.3383 138.379 33.1088 138.182 32.9547C137.986 32.8006 137.729 32.723 137.412 32.723C137.05 32.723 136.725 32.8423 136.439 33.0799C136.153 33.3174 135.964 33.6118 135.873 33.9629C135.815 34.1923 135.787 34.6106 135.787 35.219V36.912H135.188V32.2954L135.187 32.2942Z" fill="white"/>
<path d="M145 30.512V36.9107H144.41V36.117C144.159 36.4194 143.877 36.6477 143.566 36.8007C143.254 36.9536 142.911 37.0301 142.541 37.0301C141.882 37.0301 141.319 36.7937 140.853 36.3198C140.387 35.8458 140.154 35.2699 140.154 34.5909C140.154 33.9118 140.388 33.3579 140.859 32.8851C141.33 32.4124 141.895 32.176 142.558 32.176C142.939 32.176 143.285 32.2571 143.595 32.4182C143.904 32.5792 144.175 32.8214 144.41 33.1435V30.512H145ZM142.607 32.7484C142.274 32.7484 141.965 32.8295 141.684 32.9917C141.401 33.154 141.178 33.3823 141.011 33.6766C140.844 33.9709 140.761 34.2815 140.761 34.6094C140.761 34.9373 140.845 35.2456 141.013 35.5422C141.182 35.8389 141.407 36.0695 141.691 36.2352C141.975 36.4009 142.278 36.4832 142.603 36.4832C142.928 36.4832 143.241 36.4009 143.534 36.2375C143.827 36.0729 144.053 35.8516 144.212 35.5724C144.369 35.2931 144.449 34.9779 144.449 34.6268C144.449 34.0926 144.271 33.6465 143.917 33.2872C143.563 32.928 143.126 32.7484 142.608 32.7484H142.607Z" fill="white"/>
<path d="M42.4879 27.303V13.1312C42.4879 12.6711 42.6502 12.2795 42.975 11.9573C43.2997 11.6352 43.6933 11.4741 44.1582 11.4741H50.0021C51.641 11.4741 52.8931 11.8125 53.7587 12.4869C54.6242 13.2227 55.0576 14.2204 55.0576 15.4777C55.0576 16.2761 54.8871 16.9505 54.5472 17.5021C54.2061 18.0235 53.7272 18.4384 53.1092 18.7443C53.9129 19.0827 54.5308 19.5578 54.9642 20.1708C55.366 20.7536 55.5669 21.5207 55.5669 22.4709C55.5669 24.0052 55.0716 25.201 54.0823 26.0597C53.0613 26.8882 51.6234 27.3019 49.7685 27.3019H42.4867L42.4879 27.303ZM45.6417 17.5936H49.3982C50.2019 17.5936 50.7894 17.4557 51.1609 17.1799C51.5323 16.9042 51.7181 16.4743 51.7181 15.8914C51.7181 15.3085 51.5323 14.8786 51.1609 14.6028C50.8513 14.3572 50.2486 14.2343 49.3515 14.2343H45.6405V17.5936H45.6417ZM45.6417 24.4501H49.5384C50.404 24.4501 51.0686 24.2821 51.5335 23.9437C51.9657 23.6378 52.183 23.1152 52.183 22.3794C52.183 21.6436 51.9669 21.1071 51.5335 20.7687C51.1317 20.4628 50.4507 20.3087 49.4929 20.3087H45.6429V24.4501H45.6417Z" fill="white"/>
<path d="M57.0492 27.3031V21.3667C57.0492 20.1708 57.2267 19.1662 57.583 18.3527C57.9381 17.5404 58.4252 16.888 59.0443 16.3967C59.6318 15.9366 60.3198 15.5994 61.1083 15.3839C61.8967 15.1695 62.7086 15.0618 63.5437 15.0618H64.0075V18.3284H62.941C62.0439 18.3284 61.3793 18.5427 60.9471 18.9726C60.5137 19.4026 60.2976 20.077 60.2976 20.997V27.3008H57.0504L57.0492 27.3031Z" fill="white"/>
<path d="M73.0484 26.7977C72.399 27.1361 71.711 27.3424 70.9844 27.4188C70.2579 27.4953 69.6166 27.5336 69.0594 27.5336C67.9462 27.5336 66.972 27.2346 66.1369 26.6367C65.3017 26.0387 64.8847 25.0491 64.8847 23.669C64.8847 22.3805 65.2631 21.4604 66.0212 20.9077C66.7781 20.3549 67.7441 19.9876 68.9204 19.8033C69.0746 19.8033 69.2603 19.7802 69.4776 19.7338C69.6937 19.6875 69.9413 19.6492 70.2193 19.6191C71.5801 19.4349 72.26 19.0362 72.26 18.4232C72.26 17.9632 72.0205 17.6642 71.5404 17.5263C71.0603 17.3884 70.62 17.3189 70.2181 17.3189C69.7848 17.3189 69.3982 17.3803 69.0582 17.5032C68.7172 17.626 68.4707 17.8566 68.3165 18.1938H65.2082C65.3309 17.2436 65.7654 16.4614 66.5071 15.8473C67.3423 15.1416 68.5326 14.7893 70.0791 14.7893C71.8102 14.7893 73.1091 15.0813 73.9759 15.663C74.8718 16.2772 75.3215 17.1358 75.3215 18.2402V22.428C75.3215 23.6551 75.0972 24.6134 74.6487 25.3041C74.2001 25.9947 73.6663 26.493 73.0484 26.8001V26.7977ZM72.3067 21.1383C71.8733 21.3526 71.2706 21.5519 70.4973 21.7362L69.4309 21.9668C68.8737 22.1209 68.4719 22.3202 68.2254 22.5647C68.0093 22.9031 67.9007 23.2403 67.9007 23.5775C67.9007 24.0375 68.0397 24.406 68.3177 24.6818C68.5957 24.9275 68.9975 25.0503 69.5231 25.0503C70.3887 25.0503 71.0685 24.8046 71.5638 24.3145C72.059 23.8243 72.3055 23.1487 72.3055 22.2901V21.1394L72.3067 21.1383Z" fill="white"/>
<path d="M87.3761 27.3031H85.7525C85.2888 27.3031 84.9091 27.1582 84.6159 26.8662C84.3216 26.5754 84.1756 26.1988 84.1756 25.7387V19.4813C84.1756 18.7455 83.9513 18.209 83.5028 17.8706C83.0542 17.5334 82.5519 17.3642 81.9948 17.3642C81.4376 17.3642 80.9435 17.5334 80.5101 17.8706C80.0768 18.209 79.8607 18.7443 79.8607 19.4813V27.3042H76.6134V20.1256C76.6134 18.0398 77.1624 16.6446 78.2604 15.9378C79.3572 15.2321 80.572 14.8497 81.9013 14.7871C83.2621 14.7871 84.5143 15.1405 85.6579 15.8451C86.8014 16.5508 87.3738 17.9772 87.3738 20.1244V27.3031H87.3761Z" fill="white"/>
<path d="M96.882 11.4288H98.4589C98.8911 11.4288 99.2625 11.5899 99.5721 11.912C99.8805 12.2342 100.036 12.5946 100.036 12.9932V21.9656C100.036 24.1441 99.4015 25.6169 98.1342 26.3829C96.8656 27.15 95.4908 27.5335 94.0062 27.5335C93.2013 27.5335 92.4129 27.4026 91.6408 27.1419C90.8675 26.8811 90.2496 26.4594 89.7859 25.8765C88.8888 24.742 88.4402 23.1928 88.4402 21.2286C88.4402 19.2645 88.8876 17.7477 89.7859 16.5808C90.7133 15.3849 91.9036 14.7858 93.3579 14.7858C94.13 14.7858 94.811 14.9399 95.3985 15.2459C96.0164 15.6143 96.5117 16.0894 96.8831 16.6723V11.4265L96.882 11.4288ZM91.5941 21.0919C91.5941 22.319 91.8265 23.2542 92.2902 23.8985C92.754 24.5427 93.4186 24.8649 94.2853 24.8649C95.152 24.8649 95.77 24.5427 96.2337 23.8985C96.6659 23.2542 96.8831 22.319 96.8831 21.0919C96.8831 19.9876 96.6507 19.1127 96.187 18.4696C95.6917 17.8566 95.0271 17.5495 94.1919 17.5495C93.3567 17.5495 92.754 17.8716 92.2902 18.5159C91.8265 19.1301 91.5941 19.9887 91.5941 21.093V21.0919Z" fill="white"/>
<path d="M104.716 21.6436V27.303H101.423V13.1312C101.423 12.6711 101.586 12.2795 101.911 11.9573C102.235 11.6352 102.629 11.4741 103.093 11.4741H108.52C110.22 11.4741 111.488 11.904 112.323 12.7627C113.188 13.6213 113.622 14.8948 113.622 16.582C113.622 18.1777 113.205 19.4349 112.37 20.355C111.534 21.2137 110.329 21.6436 108.752 21.6436H104.716ZM104.716 18.7907H107.917C108.782 18.7907 109.402 18.6064 109.772 18.2379C110.174 17.9007 110.375 17.3178 110.375 16.4893C110.375 15.7836 110.189 15.217 109.819 14.7871C109.385 14.4186 108.813 14.2343 108.103 14.2343H104.716V18.7895V18.7907Z" fill="white"/>
<path d="M114.778 19.3887C114.778 16.8115 115.458 14.7721 116.819 13.2691C118.272 11.7662 120.174 11.0142 122.524 11.0142C124.874 11.0142 126.745 11.7662 128.229 13.2691C129.62 14.8034 130.316 16.8428 130.316 19.3887C130.316 21.9345 129.62 23.96 128.229 25.463C126.806 26.9358 124.904 27.6716 122.524 27.6716C120.143 27.6716 118.21 26.9358 116.819 25.463C115.458 23.9902 114.778 21.9658 114.778 19.3887ZM118.071 19.3887C118.071 21.1685 118.458 22.5174 119.231 23.4374C120.003 24.3888 121.101 24.8639 122.524 24.8639C123.946 24.8639 125.013 24.3888 125.817 23.4374C126.62 22.4559 127.023 21.106 127.023 19.3887C127.023 17.6713 126.621 16.3051 125.817 15.2935C125.012 14.3433 123.915 13.8671 122.524 13.8671C121.133 13.8671 120.003 14.3433 119.231 15.2935C118.458 16.2449 118.071 17.6099 118.071 19.3887Z" fill="white"/>
<path d="M131.891 22.3794H135.138C135.261 23.2995 135.617 23.9438 136.204 24.3122C136.822 24.7422 137.673 24.9565 138.755 24.9565C139.713 24.9565 140.441 24.7885 140.935 24.4501C141.429 24.1129 141.677 23.6216 141.677 22.9773C141.677 21.9958 140.286 21.1986 137.502 20.5845L137.41 20.5381L137.038 20.4466C135.461 20.1094 134.41 19.7559 133.885 19.3886C133.265 19.0514 132.833 18.5601 132.586 17.9158C132.276 17.363 132.122 16.6585 132.122 15.7987C132.122 14.2958 132.648 13.115 133.699 12.2552C134.75 11.4266 136.28 11.0129 138.291 11.0129C140.176 11.0129 141.63 11.4428 142.651 12.3015C143.702 13.2529 144.258 14.4951 144.321 16.0281H142.466C141.755 16.0281 141.245 15.706 140.936 15.0617C140.781 14.7558 140.565 14.4939 140.287 14.2795C139.73 13.8809 138.973 13.6816 138.014 13.6816C137.055 13.6816 136.42 13.8508 136.019 14.188C135.555 14.5264 135.322 15.0015 135.322 15.6145C135.322 16.443 136.218 17.0571 138.013 17.4546C138.538 17.6087 138.925 17.7003 139.172 17.7304C139.728 17.9146 140.216 18.0606 140.634 18.1672C141.051 18.275 141.384 18.3596 141.631 18.4199C142.063 18.6041 142.497 18.7883 142.93 18.9726C143.548 19.3411 144.027 19.8162 144.368 20.399C144.708 21.0433 144.879 21.749 144.879 22.5161C144.879 24.1732 144.323 25.4606 143.209 26.3818C142.096 27.2405 140.519 27.6704 138.479 27.6704C136.438 27.6704 134.798 27.2266 133.748 26.3355C132.603 25.4455 131.985 24.1268 131.893 22.3782L131.891 22.3794Z" fill="white"/>
<path d="M10.2534 28.4017C10.0724 27.6532 9.97659 26.8698 9.97659 26.061C9.97659 24.9579 10.153 23.8999 10.4812 22.9184L10.4088 22.8489L9.81422 23.3854C9.79437 25.0285 9.69274 26.7922 10.2523 28.4029L10.2534 28.4017Z" fill="url(#paint0_linear_0_2025)"/>
<path d="M9.81775 22.28V23.382L10.4088 22.8478L9.81775 22.28Z" fill="url(#paint1_linear_0_2025)"/>
<path d="M22.7192 17.5219C22.7426 17.5323 22.7636 17.5439 22.787 17.5543L22.7391 17.5022L22.7192 17.5219Z" fill="url(#paint2_linear_0_2025)"/>
<path d="M27.3121 21.7794L33.7856 15.7561C32.5066 13.9507 30.8981 12.3956 29.0514 11.1638L22.7379 17.5023L22.7858 17.5545C24.733 18.4143 26.3333 19.9091 27.3121 21.7794Z" fill="url(#paint3_linear_0_2025)"/>
<path d="M22.9727 8.56119C21.6913 8.27381 20.3597 8.12085 18.9907 8.12085C17.457 8.12085 15.9689 8.31089 14.5485 8.66779L18.7547 13.2044L22.9738 8.56119H22.9727Z" fill="url(#paint4_linear_0_2025)"/>
<path d="M18.7536 13.2043L14.5473 8.66772C12.8875 9.08489 11.3211 9.73148 9.87964 10.567V13.4778L14.5321 17.8499L18.7536 13.2043Z" fill="url(#paint5_linear_0_2025)"/>
<path d="M14.5321 17.8499L14.5765 17.8916C15.8626 17.1662 17.3589 16.7525 18.9907 16.7525C20.3177 16.7525 21.5768 17.0283 22.7192 17.522L22.7391 17.5023L18.7548 13.2043L14.5333 17.8499H14.5321Z" fill="url(#paint6_linear_0_2025)"/>
<path d="M22.9727 8.56104L18.7536 13.2043L22.7379 17.5022L29.0514 11.1637C27.2315 9.95041 25.1792 9.05583 22.9727 8.56104Z" fill="url(#paint7_linear_0_2025)"/>
<path d="M33.7856 15.7561L27.3121 21.7794C27.596 22.3206 27.8331 22.8895 28.006 23.4863H36.8846C36.4722 20.638 35.3813 18.0076 33.7856 15.7561Z" fill="#82287F"/>
<path d="M9.81773 13.4211V22.28L10.48 22.9185C11.1762 20.8385 12.558 19.1073 14.3838 18.0122L14.5309 17.85L9.81656 13.4211H9.81773Z" fill="url(#paint8_linear_0_2025)"/>
<g filter="url(#filter0_d_0_2025)">
<path d="M9.06083 10.3584V25.5036C9.06083 25.5036 9.82476 26.1004 9.79906 24.4364C9.75701 21.7793 10.0514 15.2948 9.4241 10.6631C9.3914 10.4256 9.42878 10.6666 9.3914 10.4256C9.31547 9.93656 9.15778 10.8613 9.05966 10.3595L9.06083 10.3584Z" fill="white"/>
</g>
<path d="M9.85745 10.7974L9.76167 8.74405C9.66706 6.71155 8.48262 4.99888 6.94425 3.60834C5.40706 2.21665 2.04882 -0.0904805 0 0.00222182C0 0.00222182 0.182221 1.82382 0.400653 4.57129L9.87965 13.4777V10.5668C9.74882 10.6433 9.98594 10.7186 9.85745 10.7974Z" fill="url(#paint9_linear_0_2025)"/>
<path d="M0.400665 4.57129C0.600407 7.08816 0.83052 10.3826 0.980035 13.7708L9.81892 22.2798V13.4209L0.400665 4.57129Z" fill="url(#paint10_linear_0_2025)"/>
<path d="M14.3849 18.0121C14.4492 17.9738 14.5099 17.9287 14.5765 17.8916L14.5321 17.8499L14.3849 18.0121Z" fill="url(#paint11_linear_0_2025)"/>
<path d="M1.08749 22.988C1.07814 23.2569 1.0688 23.5269 1.05595 23.7864C0.985865 24.3311 1.08632 28.2709 1.60144 30.8028L5.43276 27.3416L1.08749 22.988Z" fill="#B1D23F"/>
<path d="M1.60144 30.8028C1.71124 31.3428 1.83973 31.8202 1.98924 32.1852C2.46582 33.4877 3.09191 34.7195 3.84416 35.8621L9.19515 31.1111L5.43275 27.3416L1.60144 30.8028Z" fill="url(#paint12_linear_0_2025)"/>
<path d="M9.19514 31.1121L3.84415 35.8631C5.16291 37.8643 6.87883 39.5827 8.87391 40.9223L13.8406 35.7669L9.19514 31.1121Z" fill="url(#paint13_linear_0_2025)"/>
<path d="M13.0977 43.0186C14.9445 43.6524 16.9255 44.0001 18.9907 44.0001C19.959 44.0001 20.9075 43.9201 21.835 43.7752L17.2806 39.2131L13.0977 43.0197V43.0186Z" fill="#EA7024"/>
<path d="M13.8406 35.7659L8.87393 40.9213C10.1717 41.7927 11.5897 42.5007 13.0977 43.0187L17.2806 39.2121L13.8418 35.7659H13.8406Z" fill="url(#paint14_linear_0_2025)"/>
<path d="M36.8635 28.7969H27.9604C27.7443 29.4945 27.4465 30.1573 27.0808 30.7738L33.4632 36.8122C35.2072 34.5073 36.4057 31.7738 36.8647 28.7969H36.8635Z" fill="#D71A63"/>
<path d="M27.0797 30.7739C26.0015 32.5874 24.3195 34.0057 22.3092 34.7612L28.4277 41.3593C30.3819 40.1704 32.0908 38.6234 33.4621 36.8111L27.0797 30.7727V30.7739Z" fill="url(#paint15_linear_0_2025)"/>
<path d="M15.073 34.4877C13.0849 33.5282 11.5418 31.8503 10.6961 29.7795L9.19516 31.1121L13.8406 35.767L15.073 34.4888V34.4877Z" fill="#E5C31F"/>
<path d="M18.9895 35.3694C17.5633 35.3694 16.241 35.0519 15.0718 34.4875L13.8394 35.7657L17.2783 39.2119L22.0885 34.8329C21.1166 35.1724 20.077 35.3682 18.9884 35.3682L18.9895 35.3694Z" fill="url(#paint16_linear_0_2025)"/>
<path d="M28.4276 41.3593L22.3092 34.7612C22.238 34.7879 22.162 34.8076 22.0896 34.8331L17.2794 39.2121L21.8338 43.7742C24.219 43.3999 26.4489 42.5621 28.4276 41.3593Z" fill="url(#paint17_linear_0_2025)"/>
<path d="M9.81541 23.3854L5.43393 27.3427L9.19633 31.1122L10.6973 29.7796C10.5163 29.3369 10.3691 28.8769 10.2546 28.4018C9.6951 26.7922 9.79672 25.0274 9.81658 23.3843L9.81541 23.3854Z" fill="url(#paint18_linear_0_2025)"/>
<path d="M0.980011 13.771C1.12018 16.9518 1.18559 20.2092 1.08747 22.9879L5.43274 27.3415L9.81773 23.3808V22.2788L0.980011 13.771Z" fill="url(#paint19_linear_0_2025)"/>
</g>
<defs>
<filter id="filter0_d_0_2025" x="8.05966" y="9.27783" width="2.77246" height="17.3298" filterUnits="userSpaceOnUse" color-interpolation-filters="sRGB">
<feFlood flood-opacity="0" result="BackgroundImageFix"/>
<feColorMatrix in="SourceAlpha" type="matrix" values="0 0 0 0 0 0 0 0 0 0 0 0 0 0 0 0 0 0 127 0" result="hardAlpha"/>
<feOffset/>
<feGaussianBlur stdDeviation="0.5"/>
<feColorMatrix type="matrix" values="0 0 0 0 0 0 0 0 0 0 0 0 0 0 0 0 0 0 1 0"/>
<feBlend mode="normal" in2="BackgroundImageFix" result="effect1_dropShadow_0_2025"/>
<feBlend mode="normal" in="SourceGraphic" in2="effect1_dropShadow_0_2025" result="shape"/>
</filter>
<linearGradient id="paint0_linear_0_2025" x1="9.79437" y1="25.6253" x2="10.4812" y2="25.6253" gradientUnits="userSpaceOnUse">
<stop stop-color="#214B37"/>
<stop offset="1" stop-color="#2F6444"/>
</linearGradient>
<linearGradient id="paint1_linear_0_2025" x1="9.57245" y1="22.8304" x2="12.9622" y2="22.8304" gradientUnits="userSpaceOnUse">
<stop stop-color="#214B37"/>
<stop offset="1" stop-color="#2F6444"/>
</linearGradient>
<linearGradient id="paint2_linear_0_2025" x1="22.7192" y1="17.5277" x2="22.7858" y2="17.5277" gradientUnits="userSpaceOnUse">
<stop offset="0.01" stop-color="#175179"/>
<stop offset="1" stop-color="#18446C"/>
</linearGradient>
<linearGradient id="paint3_linear_0_2025" x1="22.7379" y1="16.4722" x2="33.7856" y2="16.4722" gradientUnits="userSpaceOnUse">
<stop stop-color="#801B54"/>
<stop offset="1" stop-color="#661548"/>
</linearGradient>
<linearGradient id="paint4_linear_0_2025" x1="18.0609" y1="8.21008" x2="22.8237" y2="12.8265" gradientUnits="userSpaceOnUse">
<stop offset="0.01" stop-color="#175179"/>
<stop offset="1" stop-color="#101C41"/>
</linearGradient>
<linearGradient id="paint5_linear_0_2025" x1="9.87964" y1="13.2588" x2="18.7536" y2="13.2588" gradientUnits="userSpaceOnUse">
<stop offset="0.29" stop-color="#1D5566"/>
<stop offset="0.76" stop-color="#2164A5"/>
</linearGradient>
<linearGradient id="paint6_linear_0_2025" x1="14.5321" y1="15.5486" x2="22.7379" y2="15.5486" gradientUnits="userSpaceOnUse">
<stop stop-color="#326497"/>
<stop offset="1" stop-color="#294B99"/>
</linearGradient>
<linearGradient id="paint7_linear_0_2025" x1="23.8114" y1="7.42659" x2="23.9942" y2="17.1337" gradientUnits="userSpaceOnUse">
<stop offset="0.01" stop-color="#175179"/>
<stop offset="1" stop-color="#18446C"/>
</linearGradient>
<linearGradient id="paint8_linear_0_2025" x1="9.57243" y1="18.1687" x2="12.9622" y2="18.1687" gradientUnits="userSpaceOnUse">
<stop stop-color="#214B37"/>
<stop offset="1" stop-color="#2F6444"/>
</linearGradient>
<linearGradient id="paint9_linear_0_2025" x1="2.60249" y1="-12.6795" x2="4.92287" y2="5.63971" gradientUnits="userSpaceOnUse">
<stop stop-color="#90C34D"/>
<stop offset="1" stop-color="#65BC53"/>
</linearGradient>
<linearGradient id="paint10_linear_0_2025" x1="0.400665" y1="13.4255" x2="9.81775" y2="13.4255" gradientUnits="userSpaceOnUse">
<stop stop-color="#90C34D"/>
<stop offset="1" stop-color="#65BC53"/>
</linearGradient>
<linearGradient id="paint11_linear_0_2025" x1="14.3849" y1="17.931" x2="14.5765" y2="17.931" gradientUnits="userSpaceOnUse">
<stop stop-color="#326497"/>
<stop offset="1" stop-color="#294B99"/>
</linearGradient>
<linearGradient id="paint12_linear_0_2025" x1="1.60144" y1="31.6024" x2="9.19515" y2="31.6024" gradientUnits="userSpaceOnUse">
<stop stop-color="#C6D92C"/>
<stop offset="1" stop-color="#DEC623"/>
</linearGradient>
<linearGradient id="paint13_linear_0_2025" x1="3.84415" y1="36.016" x2="13.8406" y2="36.016" gradientUnits="userSpaceOnUse">
<stop stop-color="#E5C31F"/>
<stop offset="1" stop-color="#E1AD24"/>
</linearGradient>
<linearGradient id="paint14_linear_0_2025" x1="8.87393" y1="39.3928" x2="17.2795" y2="39.3928" gradientUnits="userSpaceOnUse">
<stop stop-color="#F39D1E"/>
<stop offset="1" stop-color="#E87524"/>
</linearGradient>
<linearGradient id="paint15_linear_0_2025" x1="22.3104" y1="36.0672" x2="33.4633" y2="36.0672" gradientUnits="userSpaceOnUse">
<stop offset="0.02" stop-color="#CE1F3E"/>
<stop offset="1" stop-color="#AE2036"/>
</linearGradient>
<linearGradient id="paint16_linear_0_2025" x1="13.8406" y1="36.8491" x2="22.0908" y2="36.8491" gradientUnits="userSpaceOnUse">
<stop offset="0.02" stop-color="#EB8037"/>
<stop offset="1" stop-color="#E55F25"/>
</linearGradient>
<linearGradient id="paint17_linear_0_2025" x1="17.2794" y1="39.2677" x2="28.4276" y2="39.2677" gradientUnits="userSpaceOnUse">
<stop offset="0.02" stop-color="#E44525"/>
<stop offset="1" stop-color="#EB4124"/>
</linearGradient>
<linearGradient id="paint18_linear_0_2025" x1="12.1235" y1="27.199" x2="2.52312" y2="27.385" gradientUnits="userSpaceOnUse">
<stop stop-color="#B1D23F"/>
<stop offset="1" stop-color="#63BB46"/>
</linearGradient>
<linearGradient id="paint19_linear_0_2025" x1="8.45341" y1="25.5303" x2="0.20944" y2="17.5894" gradientUnits="userSpaceOnUse">
<stop stop-color="#B1D23F"/>
<stop offset="1" stop-color="#63BB46"/>
</linearGradient>
<clipPath id="clip0_0_2025">
<rect width="145" height="44" fill="white"/>
</clipPath>
</defs>
</svg>
