<svg width="20" height="24" viewBox="0 0 20 24" fill="none" xmlns="http://www.w3.org/2000/svg">
<g clip-path="url(#clip0_325_645)">
<path d="M19.1832 0C18.5202 0.0294608 17.8595 0.0976719 17.2044 0.204291C16.5716 0.266324 15.9474 0.398263 15.343 0.597739C15.0615 0.720481 14.5544 1.15092 13.8215 1.88906C13.0886 2.62719 12.0243 3.98829 10.6284 5.97235C10.3361 6.39102 10.0463 6.81977 9.76148 7.24853C9.47416 6.81977 9.18684 6.39102 8.89202 5.97235C7.50121 3.98829 6.4377 2.62719 5.70148 1.88906C4.96944 1.1526 4.45225 0.721322 4.17992 0.597739C3.57479 0.398063 2.94976 0.266121 2.31607 0.204291C1.66179 0.0975946 1.00192 0.0293827 0.33979 0C0.112431 0 1.47984e-09 0.0882737 1.47984e-09 0.252211C-9.1601e-06 0.372437 0.042521 0.488712 0.119926 0.580084C0.341674 0.82138 0.577801 1.04879 0.82699 1.26105C2.77412 3.09042 4.9203 5.79328 7.26552 9.36962C7.4654 9.6748 7.65778 9.98249 7.85266 10.2902C7.47039 10.9409 7.10312 11.5966 6.72585 12.265C5.65152 14.2297 2.66586 20.1768 1.26172 23.733C1.48658 23.8818 2.01126 23.96 2.82326 23.96C4.08415 23.96 4.83369 23.7919 5.07187 23.4556C5.31006 23.1193 5.74729 22.176 6.38356 20.6258C7.3612 18.1861 8.48938 15.8106 9.76148 13.5134C11.0341 15.8147 12.1622 18.1944 13.1394 20.6384C13.7757 22.2105 14.2129 23.1538 14.4511 23.4682C14.6893 23.7826 15.4388 23.9508 16.6997 23.9726C17.5167 23.9726 18.0364 23.8944 18.2612 23.7456C16.8571 20.1768 13.8714 14.2297 12.7971 12.265C12.4298 11.5966 12.0476 10.9409 11.6703 10.2902C11.8627 9.98249 12.0576 9.6748 12.2549 9.36962C14.5985 5.79664 16.7455 3.09378 18.696 1.26105C18.9453 1.04979 19.1806 0.822316 19.4005 0.580084C19.4788 0.489071 19.5223 0.372758 19.523 0.252211C19.523 0.0882737 19.408 0 19.1832 0Z" fill="#FF0000"/>
</g>
<defs>
<clipPath id="clip0_325_645">
<rect width="19.523" height="23.96" fill="white"/>
</clipPath>
</defs>
</svg>
