<svg width="27" height="23" viewBox="0 0 27 23" fill="none" xmlns="http://www.w3.org/2000/svg">
<g clip-path="url(#clip0_128_576)">
<path d="M20.13 12.4702C20.13 18.0302 15.62 22.5302 10.07 22.5302C4.52 22.5302 0 18.0302 0 12.4702C0 6.91016 4.51 2.41016 10.06 2.41016C15.62 2.41016 20.12 6.92016 20.12 12.4702H20.13Z" fill="#FFA3A3"/>
<path d="M16.0698 5.35025C16.1898 5.24025 16.3098 5.12025 16.4198 5.01025C16.2998 5.12025 16.1898 5.24025 16.0698 5.35025Z" fill="#DD4444"/>
<path d="M16.4199 5.0102C17.1599 4.3102 17.8999 3.6202 18.6699 2.9502C18.0199 3.5202 17.2499 4.2102 16.4199 5.0102Z" fill="#DD4444"/>
<path d="M16.07 5.3501C14.08 7.2801 11.76 9.7501 9.69995 12.4701L9.71995 12.4901C11.65 9.9601 13.78 7.5701 16.06 5.3601L16.07 5.3501Z" fill="#DD4444"/>
<path d="M22.5899 0.000234375L22.5599 0.0202344C21.1999 0.900234 19.8999 1.88023 18.6799 2.95023C17.9099 3.62023 17.1599 4.31024 16.4299 5.01023C16.3099 5.12023 16.1999 5.24023 16.0799 5.35023C13.7899 7.57023 11.6699 9.95023 9.73992 12.4802L9.71992 12.4602C8.68992 13.8202 7.73992 15.2402 6.91992 16.6802C6.97992 16.7702 7.04992 16.8702 7.10992 16.9602C8.09992 18.4102 9.02992 19.8202 9.64992 20.8702L9.77992 21.0902L9.89992 20.8702C9.97992 20.7302 17.9499 6.80023 25.3099 0.250234L25.5999 -0.00976562H22.6099L22.5899 0.000234375Z" fill="#DD4444"/>
<path d="M17.55 19.6299C17.55 19.6299 9.40002 11.0599 5.52002 6.59992L7.28002 4.66992C7.28002 4.66992 23.9 17.0099 26.22 19.4799L17.55 19.6299Z" fill="#DD4444"/>
</g>
<defs>
<clipPath id="clip0_128_576">
<rect width="26.22" height="22.54" fill="white"/>
</clipPath>
</defs>
</svg>
