<svg width="180" height="71" viewBox="0 0 180 71" fill="none" xmlns="http://www.w3.org/2000/svg">
<path d="M145.906 30.8234L161.89 9.99512L178.089 9.98242L158.092 33.8968L180 60.4592L162.995 60.4719L145.906 38.5959L145.919 60.4846L132.8 60.4909L132.762 10.0205L145.881 10.0142L145.906 30.8234Z" fill="#333343"/>
<path d="M101.519 32.2649L127.561 32.2458C127.561 34.9256 127.453 37.3576 127.231 39.5421C127.009 41.7265 126.564 43.7585 125.897 45.6318C124.964 48.2671 123.694 50.5975 122.087 52.6296C120.481 54.6616 118.595 56.3571 116.436 57.7223C114.27 59.0876 111.895 60.1227 109.311 60.8402C106.72 61.5578 104.002 61.9134 101.145 61.9197C97.2205 61.9197 93.6327 61.2784 90.4005 59.983C87.1619 58.6939 84.387 56.8778 82.0628 54.5346C79.7387 52.1914 77.9289 49.3847 76.6335 46.1017C75.3381 42.8251 74.6904 39.1992 74.6841 35.224C74.6841 31.2997 75.3127 27.6928 76.5827 24.4098C77.8527 21.1269 79.6562 18.3265 81.9993 16.0023C84.3425 13.6782 87.162 11.8685 90.464 10.573C93.766 9.27762 97.4491 8.62991 101.507 8.62356C106.771 8.61721 111.394 9.75388 115.363 12.0272C119.338 14.3005 122.487 17.8248 124.812 22.5937L112.365 27.7563C111.203 24.9877 109.692 23.0065 107.844 21.8C105.99 20.5935 103.882 19.9965 101.519 19.9965C99.5573 19.9965 97.7729 20.3648 96.1664 21.1078C94.5598 21.8444 93.1882 22.8922 92.0515 24.2574C90.9148 25.6227 90.0195 27.261 89.3781 29.1788C88.7304 31.0965 88.4129 33.2428 88.4129 35.605C88.4129 37.745 88.6923 39.7326 89.2511 41.5614C89.8099 43.3902 90.6481 44.9714 91.7658 46.3113C92.8834 47.6511 94.2677 48.6862 95.9187 49.4228C97.5697 50.1594 99.4874 50.5277 101.678 50.5213C102.974 50.5213 104.225 50.3753 105.425 50.0832C106.631 49.7911 107.711 49.3212 108.67 48.6735C109.629 48.0258 110.422 47.1876 111.045 46.1588C111.667 45.1301 112.092 43.8792 112.315 42.4123L101.539 42.4187L101.519 32.2649Z" fill="#333343"/>
<path d="M23.7691 48.9085V62.7453C23.7691 67.0824 27.287 70.6003 31.6241 70.6003C35.9612 70.6003 39.4791 67.0824 39.4791 62.7453V48.9085L31.6241 44.3745L23.7691 48.9085Z" fill="#41CD9D"/>
<path d="M39.4855 21.6919V7.85504C39.4855 3.51794 35.9676 0 31.6305 0C27.2933 0 23.7691 3.51159 23.7691 7.85504V21.6919L31.6241 26.2258L39.4855 21.6919Z" fill="#A06CC8"/>
<path d="M59.3232 42.2155L47.3406 35.2939L31.6242 44.3682L39.4792 48.9022L51.4618 55.8174C55.2211 57.9891 60.0281 56.7 62.1934 52.9408C64.3715 49.1943 63.0824 44.3872 59.3232 42.2155Z" fill="#007884"/>
<path d="M31.6242 26.2258L23.7692 21.6919L11.7866 14.7703C8.02735 12.5986 3.22035 13.8876 1.05497 17.6469C-1.11675 21.4061 0.172312 26.2131 3.93156 28.3785L15.9141 35.2937L31.6242 26.2258Z" fill="#FFC000"/>
<path d="M47.3407 35.3001L59.3232 28.3849C63.0825 26.2131 64.3716 21.4125 62.1998 17.6532C60.0281 13.894 55.2275 12.6049 51.4682 14.7767L39.4856 21.6919L31.6242 26.2258L15.9141 35.3001L3.93156 42.2153C0.172312 44.387 -1.11675 49.1877 1.05497 52.9469C2.50914 55.4679 5.15077 56.8776 7.8686 56.8776C9.20212 56.8776 10.5547 56.5411 11.7929 55.8235L23.7755 48.9019L31.6306 44.368L47.3407 35.3001Z" fill="#FF4125"/>
</svg>
