<svg width="331" height="272" viewBox="0 0 331 272" fill="none" xmlns="http://www.w3.org/2000/svg">
<g clip-path="url(#clip0_642_3602)">
<path d="M54.5829 20.8953C23.184 29.2068 101.643 103.657 76.471 139.231C51.2993 174.811 7.68975 181.776 21.4781 228.958C35.2664 276.14 99.0069 286.253 134.799 252.02C170.584 217.78 200.508 226.758 226.911 252.411C253.314 278.063 297.565 258.183 292.435 231.889C287.304 205.595 276.581 150.358 292.845 118.658C309.109 86.951 300.227 40.4619 277.088 42.2191C253.956 43.9827 214.489 104.587 168.487 100.9C122.486 97.2121 107.889 6.78635 54.5829 20.8953Z" fill="#D4DDF4"/>
<path d="M205.632 71.6621C182.455 84.7771 109.101 45.3168 118.08 16.4576C127.058 -12.4017 151.781 3.63122 172.771 12.6097C193.755 21.5881 227.533 -2.14064 241.104 6.19649C254.68 14.5336 265.602 37.7236 205.632 71.6621Z" fill="#F8F7FF"/>
<path d="M175.156 272.337C216.461 272.337 249.946 269.77 249.946 266.603C249.946 263.437 216.461 260.87 175.156 260.87C133.85 260.87 100.365 263.437 100.365 266.603C100.365 269.77 133.85 272.337 175.156 272.337Z" fill="#D4DDF4"/>
<path d="M134.365 19.5679H66.3789V87.5539H134.365V19.5679Z" stroke="#A0ADD7" stroke-width="2" stroke-linecap="round" stroke-linejoin="round"/>
<path d="M301.153 59.3809H198.754V112.296H301.153V59.3809Z" stroke="#A0ADD7" stroke-width="2" stroke-linecap="round" stroke-linejoin="round"/>
<path d="M310.149 179.782H228.83V249.262H310.149V179.782Z" stroke="#A0ADD7" stroke-width="2" stroke-linecap="round" stroke-linejoin="round"/>
<path d="M69.5335 251.924C69.5399 251.751 69.5591 251.571 69.5784 251.398L69.6104 251.135L64.9929 250.571L64.9609 250.833C64.9288 251.109 64.9032 251.391 64.8839 251.674L64.8711 251.937L69.5142 252.18L69.5271 251.917L69.5335 251.924Z" fill="#D4DDF4"/>
<path d="M70.4758 255.932L70.3475 255.701L66.3008 257.997L66.429 258.228C66.5701 258.472 66.7176 258.716 66.8716 258.953L67.0191 259.171L70.8926 256.599L70.7451 256.381C70.6489 256.234 70.5591 256.086 70.4693 255.932H70.4758Z" fill="#D4DDF4"/>
<path d="M80.1962 245.748L80.4335 245.87L82.5499 241.727L82.3126 241.605C82.0561 241.477 81.7995 241.355 81.5366 241.246L81.2929 241.143L79.4844 245.427L79.7281 245.53C79.8884 245.594 80.0423 245.671 80.1962 245.748Z" fill="#D4DDF4"/>
<path d="M68.192 244.023C67.9996 244.228 67.8073 244.44 67.6277 244.658L67.4609 244.863L71.0395 247.833L71.2062 247.627C71.3153 247.493 71.4371 247.364 71.5525 247.236L71.7321 247.044L68.3652 243.837L68.1856 244.03L68.192 244.023Z" fill="#D4DDF4"/>
<path d="M83.4571 249.025L83.5725 249.262L87.7346 247.191L87.6192 246.954C87.4909 246.697 87.3563 246.447 87.2088 246.203L87.0741 245.979L83.0723 248.345L83.2069 248.57C83.2967 248.717 83.3801 248.871 83.4571 249.025Z" fill="#D4DDF4"/>
<path d="M84.2338 252.046V252.309C84.2338 252.488 84.2338 252.662 84.2146 252.835L84.1953 253.098L88.832 253.418L88.8513 253.155C88.8705 252.873 88.8833 252.591 88.8833 252.309V252.046H84.2338Z" fill="#D4DDF4"/>
<path d="M79.0048 259.35C78.8381 259.402 78.6713 259.447 78.5046 259.479L78.248 259.536L79.2677 264.077L79.5243 264.019C79.8065 263.955 80.0758 263.885 80.3516 263.801L80.6017 263.724L79.2613 259.273L79.0112 259.35H79.0048Z" fill="#D4DDF4"/>
<path d="M82.7834 256.689C82.6808 256.83 82.5718 256.964 82.4564 257.099L82.2832 257.298L85.8169 260.325L85.99 260.126C86.176 259.914 86.3492 259.69 86.5159 259.466L86.6762 259.254L82.9438 256.477L82.7834 256.689Z" fill="#D4DDF4"/>
<path d="M73.9135 259.036L73.6762 258.927L71.7715 263.166L72.0152 263.275C72.2781 263.391 72.5475 263.5 72.8168 263.602L73.0669 263.692L74.6382 259.318L74.3881 259.228C74.2277 259.171 74.0738 259.107 73.9135 259.036Z" fill="#D4DDF4"/>
<path d="M74.8481 240.476C74.5659 240.521 74.2901 240.585 74.0143 240.649L73.7578 240.714L74.8673 245.228L75.1238 245.164C75.2906 245.126 75.4637 245.087 75.6369 245.062L75.8934 245.017L75.1046 240.431L74.8481 240.476Z" fill="#D4DDF4"/>
<path d="M156.201 11.4938C156.208 11.3206 156.227 11.1411 156.246 10.9679L156.278 10.705L151.661 10.1406L151.629 10.4036C151.597 10.6793 151.571 10.9615 151.552 11.2437L151.539 11.5066L156.182 11.7503L156.195 11.4874L156.201 11.4938Z" fill="#D4DDF4"/>
<path d="M157.144 15.5024L157.015 15.2715L152.969 17.5674L153.097 17.7983C153.238 18.042 153.386 18.2857 153.54 18.523L153.687 18.741L157.561 16.1693L157.413 15.9513C157.317 15.8038 157.227 15.6563 157.137 15.5024H157.144Z" fill="#D4DDF4"/>
<path d="M166.864 5.31804L167.101 5.43989L169.218 1.29698L168.981 1.17513C168.724 1.04686 168.467 0.925014 168.205 0.81599L167.961 0.713379L166.152 4.99738L166.396 5.09999C166.556 5.16412 166.71 5.24108 166.864 5.31804Z" fill="#D4DDF4"/>
<path d="M154.86 3.59321C154.668 3.79843 154.475 4.01006 154.296 4.22811L154.129 4.43333L157.707 7.40263L157.874 7.19741C157.983 7.06273 158.105 6.93447 158.221 6.80621L158.4 6.61381L155.033 3.40723L154.854 3.59962L154.86 3.59321Z" fill="#D4DDF4"/>
<path d="M170.125 8.59508L170.24 8.83237L174.403 6.76092L174.287 6.52363C174.159 6.2671 174.024 6.01699 173.877 5.77329L173.742 5.54883L169.74 7.91529L169.875 8.13975C169.965 8.28725 170.048 8.44117 170.125 8.59508Z" fill="#D4DDF4"/>
<path d="M170.902 11.616V11.8789C170.902 12.0585 170.902 12.2316 170.883 12.4048L170.863 12.6677L175.5 12.9884L175.519 12.7254C175.538 12.4433 175.551 12.1611 175.551 11.8789V11.616H170.902Z" fill="#D4DDF4"/>
<path d="M165.673 18.9202C165.506 18.9715 165.339 19.0164 165.173 19.0485L164.916 19.1062L165.936 23.6467L166.192 23.589C166.474 23.5249 166.744 23.4543 167.02 23.371L167.27 23.294L165.929 18.8433L165.679 18.9202H165.673Z" fill="#D4DDF4"/>
<path d="M169.451 16.2588C169.349 16.3998 169.233 16.5345 169.124 16.6692L168.951 16.868L172.485 19.895L172.658 19.6962C172.844 19.4846 173.017 19.2601 173.184 19.0357L173.344 18.824L169.612 16.0471L169.451 16.2588Z" fill="#D4DDF4"/>
<path d="M160.581 18.6061L160.344 18.4971L158.439 22.7362L158.683 22.8452C158.946 22.9606 159.215 23.0697 159.485 23.1723L159.735 23.2621L161.306 18.8819L161.056 18.7921C160.896 18.7344 160.742 18.6702 160.581 18.5997V18.6061Z" fill="#D4DDF4"/>
<path d="M161.516 0.046357C161.234 0.0912492 160.958 0.155381 160.682 0.219513L160.426 0.283644L161.535 4.79852L161.792 4.73439C161.959 4.69591 162.132 4.65743 162.305 4.63177L162.561 4.58688L161.779 0.00146484L161.522 0.046357H161.516Z" fill="#D4DDF4"/>
<path d="M38.1921 148.209C38.1921 148.12 38.2049 148.03 38.2177 147.94L38.237 147.805L35.8897 147.517L35.8705 147.652C35.8513 147.793 35.8384 147.934 35.832 148.081V148.216L38.1857 148.338V148.203L38.1921 148.209Z" fill="#D4DDF4"/>
<path d="M38.6716 150.249L38.6075 150.134L36.5488 151.301L36.613 151.416C36.6835 151.538 36.7605 151.667 36.8374 151.782L36.9144 151.891L38.8832 150.583L38.8063 150.474C38.755 150.397 38.7101 150.326 38.6652 150.249H38.6716Z" fill="#D4DDF4"/>
<path d="M43.6189 145.067L43.7408 145.131L44.8182 143.021L44.6963 142.964C44.5681 142.899 44.4334 142.835 44.2987 142.778L44.1768 142.726L43.2598 144.907L43.3816 144.958C43.465 144.99 43.5419 145.029 43.6189 145.067Z" fill="#D4DDF4"/>
<path d="M37.5126 144.189C37.4164 144.291 37.3202 144.4 37.224 144.509L37.1406 144.612L38.962 146.119L39.0453 146.016C39.1031 145.946 39.1608 145.882 39.2249 145.818L39.3147 145.721L37.6024 144.093L37.5126 144.189Z" fill="#D4DDF4"/>
<path d="M45.2725 146.734L45.3302 146.856L47.4465 145.804L47.3888 145.683C47.3247 145.554 47.2541 145.426 47.1836 145.298L47.1131 145.182L45.0801 146.388L45.1506 146.503C45.1955 146.58 45.2404 146.657 45.2789 146.734H45.2725Z" fill="#D4DDF4"/>
<path d="M45.6627 148.274V148.408C45.6627 148.498 45.6627 148.588 45.6562 148.678V148.812L48.0035 148.973V148.838C48.0227 148.697 48.0291 148.549 48.0291 148.408V148.274H45.6627Z" fill="#D4DDF4"/>
<path d="M43.0064 151.987C42.9231 152.013 42.8397 152.032 42.7499 152.051L42.6152 152.077L43.1347 154.386L43.263 154.353C43.4041 154.321 43.5451 154.283 43.6798 154.244L43.8081 154.206L43.1283 151.942L43 151.981L43.0064 151.987Z" fill="#D4DDF4"/>
<path d="M44.9245 150.634C44.8732 150.704 44.8155 150.775 44.7578 150.845L44.668 150.948L46.4637 152.487L46.5534 152.385C46.6496 152.276 46.7394 152.167 46.8228 152.051L46.8998 151.942L45.0015 150.531L44.9245 150.64V150.634Z" fill="#D4DDF4"/>
<path d="M40.4164 151.827L40.2946 151.769L39.3262 153.924L39.448 153.981C39.5827 154.039 39.7174 154.097 39.8585 154.148L39.9867 154.193L40.7884 151.968L40.6601 151.923C40.5767 151.891 40.4998 151.859 40.4228 151.827H40.4164Z" fill="#D4DDF4"/>
<path d="M40.8972 142.386C40.7561 142.412 40.6151 142.438 40.474 142.476L40.3457 142.508L40.9101 144.804L41.0383 144.772C41.1217 144.753 41.2115 144.734 41.3013 144.721L41.4359 144.695L41.0383 142.367L40.9037 142.393L40.8972 142.386Z" fill="#D4DDF4"/>
<path d="M302.323 148.8C302.323 148.71 302.336 148.62 302.349 148.531L302.368 148.396L300.021 148.107L300.001 148.242C299.982 148.383 299.969 148.524 299.963 148.672V148.806L302.317 148.928V148.794L302.323 148.8Z" fill="#BBC6EA"/>
<path d="M302.802 150.839L302.738 150.724L300.68 151.891L300.744 152.007C300.814 152.128 300.891 152.257 300.968 152.372L301.045 152.481L303.014 151.173L302.937 151.064C302.886 150.987 302.841 150.916 302.796 150.839H302.802Z" fill="#BBC6EA"/>
<path d="M307.742 145.664L307.864 145.728L308.941 143.618L308.819 143.56C308.691 143.496 308.556 143.432 308.422 143.374L308.3 143.323L307.383 145.503L307.505 145.555C307.588 145.587 307.665 145.625 307.742 145.664Z" fill="#BBC6EA"/>
<path d="M301.643 144.785C301.547 144.888 301.451 144.997 301.355 145.106L301.271 145.209L303.093 146.716L303.176 146.613C303.234 146.543 303.292 146.478 303.356 146.414L303.446 146.318L301.733 144.689L301.643 144.785Z" fill="#BBC6EA"/>
<path d="M309.403 147.325L309.461 147.447L311.577 146.395L311.52 146.273C311.456 146.145 311.385 146.017 311.314 145.888L311.244 145.773L309.211 146.979L309.281 147.094C309.326 147.171 309.371 147.248 309.41 147.325H309.403Z" fill="#BBC6EA"/>
<path d="M309.794 148.864V148.998C309.794 149.088 309.794 149.178 309.787 149.268V149.402L312.134 149.563V149.428C312.154 149.287 312.16 149.14 312.16 148.998V148.864H309.794Z" fill="#BBC6EA"/>
<path d="M307.131 152.577C307.048 152.603 306.964 152.622 306.874 152.641L306.746 152.667L307.266 154.976L307.394 154.944C307.535 154.912 307.676 154.873 307.811 154.835L307.939 154.796L307.259 152.532L307.131 152.571V152.577Z" fill="#BBC6EA"/>
<path d="M309.055 151.224C309.004 151.295 308.946 151.365 308.889 151.436L308.799 151.538L310.595 153.078L310.684 152.975C310.78 152.866 310.87 152.757 310.954 152.642L311.031 152.532L309.132 151.122L309.055 151.231V151.224Z" fill="#BBC6EA"/>
<path d="M304.547 152.417L304.425 152.359L303.457 154.514L303.579 154.571C303.714 154.629 303.848 154.687 303.989 154.738L304.118 154.783L304.919 152.558L304.791 152.513C304.708 152.481 304.631 152.449 304.554 152.417H304.547Z" fill="#BBC6EA"/>
<path d="M305.022 142.983C304.881 143.009 304.74 143.034 304.599 143.073L304.471 143.105L305.035 145.401L305.163 145.369C305.247 145.35 305.336 145.33 305.426 145.317L305.561 145.292L305.163 142.964L305.029 142.99L305.022 142.983Z" fill="#BBC6EA"/>
<path d="M256.915 32.9201C256.915 32.8303 256.928 32.7405 256.94 32.6572L256.96 32.5225L254.612 32.2339L254.593 32.3686C254.574 32.5097 254.561 32.6507 254.555 32.7982V32.9329L256.908 33.0548V32.9201H256.915Z" fill="#BBC6EA"/>
<path d="M257.394 34.9594L257.33 34.844L255.271 36.0112L255.336 36.1266C255.406 36.2485 255.483 36.3767 255.56 36.4922L255.637 36.6012L257.606 35.2929L257.529 35.1839C257.478 35.1069 257.433 35.0364 257.388 34.9594H257.394Z" fill="#BBC6EA"/>
<path d="M262.334 29.7842L262.456 29.8483L263.533 27.7384L263.411 27.6806C263.283 27.6165 263.148 27.5524 263.014 27.4947L262.892 27.4434L261.975 29.6238L262.096 29.6751C262.18 29.7072 262.257 29.7457 262.334 29.7842Z" fill="#BBC6EA"/>
<path d="M256.235 28.9055C256.139 29.0081 256.043 29.1172 255.947 29.2262L255.863 29.3288L257.685 30.8359L257.768 30.7333C257.826 30.6627 257.883 30.5986 257.948 30.5345L258.037 30.4383L256.325 28.8093L256.235 28.9055Z" fill="#BBC6EA"/>
<path d="M263.995 31.4516L264.053 31.5735L266.169 30.5217L266.111 30.3999C266.047 30.2716 265.977 30.1434 265.906 30.0151L265.836 29.8997L263.803 31.1053L263.873 31.2208C263.918 31.2977 263.963 31.3747 264.002 31.4516H263.995Z" fill="#BBC6EA"/>
<path d="M264.385 32.9844V33.1191C264.385 33.2088 264.385 33.2986 264.379 33.3884V33.5231L266.726 33.6834V33.5487C266.745 33.4076 266.752 33.2601 266.752 33.1191V32.9844H264.385Z" fill="#BBC6EA"/>
<path d="M261.723 36.6975C261.639 36.7231 261.556 36.7424 261.466 36.7616L261.338 36.7873L261.857 39.096L261.986 39.0639C262.127 39.0319 262.268 38.9934 262.402 38.9549L262.531 38.9164L261.851 36.6526L261.723 36.6911V36.6975Z" fill="#BBC6EA"/>
<path d="M263.647 35.3443C263.596 35.4149 263.538 35.4854 263.48 35.5559L263.391 35.6586L265.186 37.1977L265.276 37.0951C265.372 36.9861 265.462 36.8771 265.545 36.7616L265.622 36.6526L263.724 35.2417L263.647 35.3507V35.3443Z" fill="#BBC6EA"/>
<path d="M259.139 36.5372L259.017 36.4795L258.049 38.6343L258.171 38.692C258.305 38.7498 258.44 38.8075 258.581 38.8588L258.709 38.9037L259.511 36.6783L259.383 36.6334C259.299 36.6013 259.222 36.5693 259.145 36.5372H259.139Z" fill="#BBC6EA"/>
<path d="M259.614 27.1032C259.473 27.1289 259.332 27.1545 259.191 27.193L259.062 27.2251L259.627 29.521L259.755 29.4889C259.838 29.4697 259.928 29.4504 260.018 29.4376L260.153 29.412L259.755 27.084L259.62 27.1096L259.614 27.1032Z" fill="#BBC6EA"/>
<path d="M156.481 78.1904C154.82 73.7525 150.838 70.0841 137.421 71.9311C124.005 73.7845 111.461 93.473 114.68 101.522C117.9 109.57 132.881 111.52 139.55 105.119C146.227 98.719 159.367 85.899 156.481 78.1904Z" fill="#3F327A"/>
<path d="M231.369 60.0345C231.369 60.0345 243.144 60.3552 250.692 54.051C250.692 54.051 252.411 76.5741 236.545 78.1838L231.369 60.0345Z" fill="#6353C4"/>
<path d="M217.665 39.5571C237.186 44.0206 241.483 56.5263 237.866 72.8991C234.249 89.272 225.649 113.238 202.69 109.384C177.268 105.113 175.036 88.8166 178.467 70.8405C181.898 52.8644 191.736 33.6249 217.665 39.5571Z" fill="#FF95A9"/>
<path d="M199.123 79.0366C198.059 82.9038 193.499 85.0201 188.926 83.7631C184.354 82.5062 181.513 78.3568 182.571 74.4897C183.635 70.6226 188.195 68.5062 192.768 69.7632C197.34 71.0202 200.181 75.1695 199.123 79.0366Z" fill="#D87187"/>
<path d="M229.317 78.9912C224.744 77.7342 220.184 79.8506 219.12 83.7177C218.055 87.5849 220.902 91.7342 225.475 92.9912C227.438 93.5299 229.4 93.4465 231.087 92.8629C232.658 89.8038 233.953 86.5588 235.024 83.3265C233.94 81.3384 231.907 79.6967 229.317 78.9848V78.9912Z" fill="#D87187"/>
<path d="M215.877 63.3755C215.877 63.3755 209.143 75.4707 210.163 76.8303C211.182 78.1899 216.281 78.4144 216.614 79.9984C216.954 81.5825 208.393 85.3149 208.393 85.3149" stroke="#B5556E" stroke-linecap="round" stroke-linejoin="round"/>
<path d="M193.877 85.3149C193.877 85.3149 197.27 92.5169 204.138 93.7932C211.007 95.0694 213.719 91.8436 213.719 91.8436" stroke="#B5556E" stroke-linecap="round" stroke-linejoin="round"/>
<path d="M177.281 80.0499L179.75 65.2483C179.75 65.2483 177.435 56.148 171.157 60.3037C164.885 64.4595 169.329 82.5895 177.281 80.0563V80.0499Z" fill="#D87187"/>
<path d="M179.43 67.1592L179.75 65.2417C179.75 65.2417 177.435 56.1414 171.157 60.2971C168.97 61.7465 168.091 64.8954 168.2 68.2687C173.068 63.2472 177.358 65.4662 179.43 67.1592Z" fill="#FF95A9"/>
<path d="M231.369 91.7025L236.737 77.6897C236.737 77.6897 243.343 71.0136 246.652 77.7731C249.961 84.5325 236.942 97.9168 231.369 91.7025Z" fill="#D87187"/>
<path d="M246.652 77.7731C243.343 71.0136 236.738 77.6897 236.738 77.6897L236.045 79.5046C238.687 79.0942 243.516 79.3507 245.164 86.1487C246.973 83.2948 247.807 80.1331 246.652 77.7795V77.7731Z" fill="#FF95A9"/>
<path d="M213.226 68.4098C216.855 69.5193 222.371 64.0617 227.347 64.966C232.324 65.8702 239.289 71.1162 239.026 72.9055C238.763 74.6883 237.095 82.801 235.941 83.5129C234.787 84.2247 226.834 84.943 223.076 82.8715C219.318 80.8001 215.111 75.4258 210.487 74.5536C205.863 73.6815 200.213 79.5559 192.293 77.5229C184.379 75.49 178.158 70.1221 178.049 68.4162C177.934 66.7168 180.102 59.5276 181.044 59.0402C181.987 58.5464 192.986 56.398 199.431 58.0718C205.876 59.7456 208.602 66.9989 213.226 68.4162V68.4098Z" fill="#504A63"/>
<path d="M203.381 68.2046C203.355 66.7681 193.203 62.8304 191.863 63.8373C190.523 64.8441 192.004 70.1093 195.429 71.3599C198.847 72.6105 203.42 70.1735 203.381 68.1982V68.2046Z" fill="#D4DDF4"/>
<path d="M220.356 72.6296C220.978 71.3341 231.842 71.9818 232.644 73.4569C233.446 74.9319 229.905 79.1005 226.269 78.8119C222.639 78.5297 219.503 74.406 220.356 72.6296Z" fill="#D4DDF4"/>
<path d="M233.991 62.7409C233.991 62.7409 227.257 61.6891 223.371 64.1582C219.478 66.6273 222.403 68.6987 224.724 67.7303C227.039 66.7619 229.938 63.8375 233.998 62.7409H233.991Z" fill="#271E17"/>
<path d="M194.404 55.4167C194.404 55.4167 201.209 55.731 204.531 58.9312C207.846 62.1313 204.569 63.5743 202.491 62.1634C200.413 60.7525 198.162 57.3022 194.404 55.4232V55.4167Z" fill="#271E17"/>
<path d="M175.732 57.4368C175.732 57.4368 172.314 45.97 178.047 35.8757C183.78 25.7878 202.225 19.7658 212.511 23.2417C222.798 26.7177 226.492 35.5358 226.492 35.5358L175.738 57.4368H175.732Z" fill="#696181"/>
<path d="M179.467 66.2357C179.467 66.2357 189.644 53.7685 205.498 48.3429C221.351 42.9174 231.67 45.9252 231.67 45.9252C231.67 45.9252 234.165 45.8097 233.991 44.0269C233.825 42.244 228.566 32.2395 224.577 31.1364C220.588 30.0333 205.838 29.9115 192.691 35.8244C179.55 41.7374 172.848 51.5495 172.252 54.32C171.655 57.0841 175.048 66.8385 179.46 66.2421L179.467 66.2357Z" fill="#5264AE"/>
<mask id="mask0_642_3602" style="mask-type:luminance" maskUnits="userSpaceOnUse" x="172" y="30" width="62" height="37">
<path d="M179.465 66.2359C179.465 66.2359 189.642 53.7687 205.496 48.3432C221.349 42.9176 231.668 45.9254 231.668 45.9254C231.668 45.9254 234.163 45.81 233.989 44.0271C233.823 42.2442 228.564 32.2397 224.575 31.1366C220.586 30.0336 205.836 29.9117 192.689 35.8247C179.548 41.7376 172.846 51.5498 172.25 54.3202C171.653 57.0843 175.046 66.8388 179.458 66.2423L179.465 66.2359Z" fill="white"/>
</mask>
<g mask="url(#mask0_642_3602)">
<path d="M174.564 48.087C174.705 50.556 175.09 53.0315 175.879 55.3851C176.668 57.7388 177.944 59.8744 179.445 61.8753C179.849 62.4076 180.259 62.9399 180.67 63.4657C181.08 63.9916 181.651 64.4341 181.978 65.037C182.177 65.4025 182.728 65.0754 182.53 64.7163C182.273 64.2481 181.888 63.8698 181.523 63.4786C181.093 63.0168 180.715 62.5038 180.336 62.0035C179.612 61.0608 178.912 60.0988 178.29 59.0855C177.008 56.9948 176.193 54.6797 175.712 52.2748C175.437 50.8895 175.276 49.4914 175.193 48.0805C175.167 47.6701 174.526 47.6701 174.552 48.0805L174.564 48.087Z" fill="#D4DDF4"/>
<path d="M180.766 42.1545C181.863 44.8994 182.921 47.6635 183.934 50.4404C184.762 52.717 185.531 55.0322 186.641 57.1998C187.237 58.367 187.936 59.4829 188.821 60.4449C189.103 60.7463 189.552 60.2974 189.276 59.9896C187.68 58.258 186.698 56.007 185.858 53.8329C184.935 51.4536 184.088 49.0487 183.184 46.663C182.594 45.0982 182.004 43.5398 181.388 41.9878C181.234 41.6094 180.619 41.7762 180.773 42.1609L180.766 42.1545Z" fill="#D4DDF4"/>
<path d="M189.917 36.1003C191.379 37.9793 192.38 40.1855 193.245 42.3852C194.195 44.7965 195.118 47.2207 196.074 49.6321C196.651 51.0943 197.228 52.5565 197.805 54.0187C197.953 54.3971 198.575 54.2303 198.421 53.8455C197.376 51.1905 196.33 48.5418 195.278 45.8868C194.374 43.6037 193.579 41.2693 192.482 39.0632C191.879 37.8575 191.193 36.7031 190.366 35.6385C190.116 35.3115 189.661 35.7668 189.911 36.0939L189.917 36.1003Z" fill="#D4DDF4"/>
<path d="M199.819 31.9127C200.89 32.4001 201.717 33.2915 202.39 34.2343C203.128 35.2604 203.718 36.3891 204.257 37.5307C205.565 40.3268 206.572 43.2512 207.553 46.1756C208.194 48.0867 208.823 50.0043 209.509 51.9026C209.65 52.2874 210.266 52.1206 210.125 51.7294C208.855 48.2214 207.777 44.6429 206.456 41.1477C205.533 38.7107 204.532 36.1903 203.038 34.0419C202.288 32.9645 201.364 31.9063 200.139 31.3548C199.767 31.188 199.44 31.7396 199.819 31.9063V31.9127Z" fill="#D4DDF4"/>
<path d="M209.677 30.0848C213.896 33.8429 216.263 39.4032 217.616 44.7838C217.988 46.2653 218.283 47.7659 218.501 49.2794C218.559 49.6835 219.175 49.5103 219.117 49.1063C218.322 43.514 216.513 37.7999 213.236 33.1503C212.332 31.8677 211.306 30.6748 210.132 29.6295C209.824 29.3537 209.369 29.8091 209.677 30.0848Z" fill="#D4DDF4"/>
<path d="M218.809 28.9048C219.117 28.8855 219.399 29.1421 219.617 29.3345C219.944 29.6295 220.239 29.963 220.522 30.2964C221.124 31.0147 221.682 31.7651 222.215 32.5346C223.516 34.4073 224.652 36.421 225.344 38.6015C225.62 39.4801 225.825 40.3908 226.05 41.2822C226.37 42.5584 226.685 43.8411 226.986 45.1237C227.127 45.7201 227.262 46.3229 227.377 46.9258C227.416 47.1374 227.461 47.3426 227.486 47.5543C227.486 47.5286 227.486 47.6633 227.499 47.7018C227.531 47.8365 227.448 47.6633 227.64 47.5607C227.281 47.7659 227.602 48.3174 227.961 48.1122C228.237 47.9583 228.128 47.5415 228.089 47.2913C228.012 46.7975 227.903 46.3101 227.8 45.8291C227.499 44.4631 227.166 43.0971 226.826 41.7375C226.601 40.8333 226.383 39.929 226.139 39.0312C225.505 36.684 224.325 34.5035 222.965 32.4962C222.324 31.5534 221.644 30.6363 220.913 29.7706C220.419 29.1934 219.669 28.2186 218.816 28.2635C218.405 28.2827 218.405 28.924 218.816 28.9048H218.809Z" fill="#D4DDF4"/>
</g>
<path d="M205.5 48.3431C205.5 48.3431 212.369 42.8342 222.546 42.661C232.724 42.4943 242.049 46.2203 248.75 38.082C248.75 38.082 252.002 49.9977 242.703 57.437C233.404 64.8763 223.778 56.5263 219.75 53.3454C215.883 50.2927 211.439 46.8168 205.506 48.3431H205.5Z" fill="#6B667A"/>
<path d="M297.455 137.878C297.455 137.878 283.34 152.218 280.204 152.051C277.068 151.884 274.862 144.079 272.995 141.873C271.129 139.667 269.436 136.063 270.962 128.45C272.489 120.838 271.129 114.822 270.032 112.873C268.929 110.923 272.662 110.243 275.375 113.296C278.087 116.349 279.646 119.459 279.588 124.006C279.588 124.006 286.739 112.276 294.999 112.443C297.083 112.488 298.424 120.395 297.455 137.871V137.878Z" fill="#D87187"/>
<path d="M207.264 231.164H142.209C142.209 231.164 150.803 239.533 140.85 259.427H208.624C198.677 239.527 207.264 231.164 207.264 231.164Z" fill="#696181"/>
<path d="M208.618 259.427C203.744 249.679 203.32 242.701 204.16 238.116C188.82 250.795 158.223 252.642 143.671 252.763C142.966 254.822 142.042 257.041 140.85 259.433H208.624L208.618 259.427Z" fill="#6B667A"/>
<path d="M61.5981 82.8653H287.868C290.266 82.8653 292.216 84.8149 292.216 87.2134V228.906C292.216 231.305 290.266 233.254 287.868 233.254H61.5981C59.1996 233.254 57.25 231.305 57.25 228.906V87.207C57.25 84.8085 59.1996 82.8589 61.5981 82.8589V82.8653Z" fill="#6B667A"/>
<path d="M176.445 198.328C117.809 210.834 73.898 202.285 57.2559 202.144V228.9C57.2559 231.298 59.199 233.248 61.604 233.248H287.867C290.266 233.248 292.215 231.305 292.215 228.9V132.087C281.403 143.977 240.544 184.655 176.445 198.322V198.328Z" fill="#696181"/>
<path d="M276.656 93.7935H72.8071C70.4057 93.7935 68.459 95.7402 68.459 98.1416V207.614C68.459 210.016 70.4057 211.963 72.8071 211.963H276.656C279.058 211.963 281.004 210.016 281.004 207.614V98.1416C281.004 95.7402 279.058 93.7935 276.656 93.7935Z" fill="#BBC6EA"/>
<path d="M276.663 93.7935H72.8071C70.4086 93.7935 68.459 95.7366 68.459 98.1416V104.991H281.004V98.1416C281.004 95.7431 279.061 93.7935 276.656 93.7935H276.663Z" fill="#5264AE"/>
<path d="M205.128 96.833H74.9473V102.092H205.128V96.833Z" fill="#F8F7FF"/>
<path d="M230.557 96.833H211.215V102.092H230.557V96.833Z" fill="#F8F7FF"/>
<path d="M276.667 99.4624C276.667 100.912 275.493 102.092 274.038 102.092C272.582 102.092 271.408 100.918 271.408 99.4624C271.408 98.0066 272.582 96.833 274.038 96.833C275.493 96.833 276.667 98.0066 276.667 99.4624Z" fill="#EA4977"/>
<path d="M269.485 99.4624C269.485 100.912 268.312 102.092 266.856 102.092C265.4 102.092 264.227 100.918 264.227 99.4624C264.227 98.0066 265.4 96.833 266.856 96.833C268.312 96.833 269.485 98.0066 269.485 99.4624Z" fill="#FFC359"/>
<path d="M262.302 99.4624C262.302 100.912 261.128 102.092 259.672 102.092C258.217 102.092 257.043 100.918 257.043 99.4624C257.043 98.0066 258.217 96.833 259.672 96.833C261.128 96.833 262.302 98.0066 262.302 99.4624Z" fill="#BFE583"/>
<path d="M218.727 114.925H130.745C128.343 114.925 126.396 116.872 126.396 119.273V197.796C126.396 200.197 128.343 202.144 130.745 202.144H218.727C221.128 202.144 223.075 200.197 223.075 197.796V119.273C223.075 116.872 221.128 114.925 218.727 114.925Z" fill="#F8F7FF"/>
<path d="M209.037 161.08H140.436V169.918H209.037V161.08Z" fill="#5264AE"/>
<path d="M162.646 166.878H162.396L160.639 164.223H160.626V166.878H160.369V163.787H160.626L162.383 166.442H162.396V163.787H162.646V166.878Z" fill="white"/>
<path d="M164.839 166.878C164.82 166.801 164.813 166.73 164.8 166.679C164.794 166.621 164.788 166.564 164.788 166.506C164.704 166.628 164.589 166.724 164.448 166.807C164.307 166.884 164.146 166.929 163.973 166.929C163.749 166.929 163.575 166.871 163.454 166.75C163.332 166.628 163.268 166.474 163.268 166.269C163.268 166.057 163.357 165.884 163.543 165.762C163.729 165.634 163.973 165.57 164.287 165.57H164.794V165.287C164.794 165.121 164.743 164.992 164.634 164.903C164.531 164.806 164.383 164.762 164.191 164.762C164.012 164.762 163.87 164.806 163.749 164.896C163.633 164.986 163.575 165.095 163.575 165.223H163.345V165.21C163.332 165.037 163.409 164.883 163.575 164.749C163.742 164.614 163.947 164.543 164.204 164.543C164.46 164.543 164.659 164.608 164.813 164.736C164.967 164.864 165.044 165.05 165.044 165.287V166.416C165.044 166.499 165.044 166.576 165.057 166.653C165.063 166.73 165.083 166.807 165.102 166.878H164.839ZM164.005 166.698C164.185 166.698 164.351 166.653 164.486 166.57C164.621 166.487 164.73 166.378 164.788 166.243V165.762H164.274C164.044 165.762 163.858 165.813 163.723 165.909C163.588 166.006 163.518 166.127 163.518 166.275C163.518 166.397 163.563 166.499 163.646 166.576C163.729 166.653 163.851 166.692 163.999 166.692L164.005 166.698Z" fill="white"/>
<path d="M165.936 164.582L165.962 164.96C166.032 164.826 166.135 164.723 166.257 164.646C166.378 164.569 166.526 164.537 166.693 164.537C166.859 164.537 167.013 164.582 167.135 164.665C167.251 164.749 167.34 164.877 167.392 165.057C167.462 164.896 167.558 164.768 167.687 164.678C167.815 164.588 167.969 164.544 168.155 164.544C168.399 164.544 168.591 164.627 168.719 164.787C168.854 164.948 168.918 165.204 168.918 165.544V166.884H168.662V165.538C168.662 165.255 168.61 165.057 168.514 164.935C168.411 164.819 168.277 164.762 168.097 164.762C167.898 164.762 167.751 164.826 167.642 164.948C167.533 165.069 167.469 165.23 167.443 165.422C167.443 165.435 167.443 165.448 167.443 165.467C167.443 165.486 167.443 165.499 167.443 165.506V166.884H167.187V165.538C167.187 165.262 167.135 165.063 167.033 164.941C166.93 164.819 166.789 164.762 166.616 164.762C166.443 164.762 166.295 164.806 166.186 164.896C166.077 164.986 166.006 165.108 165.962 165.268V166.884H165.705V164.588H165.93L165.936 164.582Z" fill="white"/>
<path d="M170.431 166.923C170.142 166.923 169.905 166.814 169.712 166.602C169.52 166.391 169.424 166.121 169.424 165.794V165.679C169.424 165.352 169.52 165.076 169.706 164.864C169.892 164.646 170.123 164.537 170.392 164.537C170.674 164.537 170.899 164.627 171.059 164.806C171.22 164.986 171.303 165.223 171.303 165.518V165.736H169.68V165.801C169.68 166.057 169.751 166.275 169.886 166.448C170.02 166.621 170.206 166.711 170.424 166.711C170.585 166.711 170.719 166.692 170.828 166.647C170.937 166.602 171.034 166.538 171.117 166.461L171.226 166.634C171.143 166.724 171.027 166.795 170.899 166.852C170.764 166.904 170.61 166.929 170.424 166.929L170.431 166.923ZM170.399 164.755C170.213 164.755 170.052 164.826 169.924 164.967C169.796 165.108 169.725 165.287 169.7 165.506V165.518H171.046V165.454C171.046 165.255 170.989 165.089 170.873 164.954C170.758 164.819 170.597 164.755 170.392 164.755H170.399Z" fill="white"/>
<path d="M174.709 166.115C174.709 165.948 174.645 165.807 174.523 165.704C174.395 165.595 174.177 165.505 173.862 165.422C173.522 165.339 173.266 165.23 173.093 165.089C172.92 164.947 172.83 164.768 172.83 164.537C172.83 164.306 172.926 164.107 173.125 163.96C173.317 163.812 173.567 163.735 173.875 163.735C174.183 163.735 174.452 163.825 174.645 163.998C174.837 164.178 174.933 164.39 174.927 164.646V164.659H174.69C174.69 164.454 174.619 164.28 174.472 164.152C174.324 164.024 174.125 163.953 173.875 163.953C173.625 163.953 173.433 164.011 173.291 164.12C173.15 164.229 173.08 164.37 173.08 164.531C173.08 164.691 173.144 164.819 173.272 164.922C173.401 165.024 173.625 165.114 173.939 165.198C174.273 165.281 174.523 165.396 174.696 165.544C174.869 165.685 174.959 165.877 174.959 166.115C174.959 166.352 174.856 166.557 174.657 166.705C174.459 166.852 174.196 166.923 173.888 166.923C173.58 166.923 173.311 166.846 173.08 166.692C172.849 166.538 172.74 166.313 172.746 166.012V165.999H172.984C172.984 166.236 173.073 166.416 173.253 166.532C173.433 166.647 173.644 166.705 173.888 166.705C174.132 166.705 174.33 166.653 174.478 166.544C174.632 166.435 174.702 166.294 174.702 166.121L174.709 166.115Z" fill="white"/>
<path d="M176.986 166.499C176.916 166.634 176.813 166.737 176.691 166.814C176.569 166.884 176.422 166.923 176.249 166.923C176.005 166.923 175.819 166.839 175.678 166.679C175.543 166.512 175.473 166.262 175.473 165.916V164.582H175.729V165.922C175.729 166.204 175.774 166.403 175.87 166.525C175.966 166.647 176.101 166.711 176.274 166.711C176.467 166.711 176.621 166.666 176.736 166.583C176.851 166.499 176.928 166.377 176.973 166.224V164.588H177.23V166.884H177.005L176.986 166.506V166.499Z" fill="white"/>
<path d="M178.954 164.8L178.768 164.787C178.608 164.787 178.48 164.832 178.377 164.922C178.274 165.012 178.204 165.133 178.159 165.294V166.878H177.902V164.582H178.127L178.159 164.967V164.992C178.223 164.851 178.313 164.742 178.428 164.659C178.537 164.582 178.672 164.543 178.826 164.543C178.858 164.543 178.89 164.543 178.922 164.55C178.954 164.55 178.98 164.563 178.999 164.569L178.967 164.806L178.954 164.8Z" fill="white"/>
<path d="M179.602 164.582L179.628 164.986C179.698 164.845 179.801 164.736 179.923 164.659C180.044 164.582 180.198 164.543 180.365 164.543C180.615 164.543 180.801 164.62 180.936 164.774C181.071 164.928 181.128 165.166 181.128 165.486V166.884H180.872V165.486C180.872 165.223 180.82 165.037 180.724 164.928C180.628 164.819 180.487 164.762 180.307 164.762C180.128 164.762 179.987 164.806 179.871 164.903C179.756 164.999 179.679 165.121 179.628 165.275V166.878H179.371V164.582H179.596H179.602Z" fill="white"/>
<path d="M183.25 166.878C183.23 166.801 183.217 166.73 183.211 166.679C183.205 166.628 183.198 166.564 183.198 166.506C183.115 166.628 182.999 166.724 182.858 166.807C182.717 166.884 182.557 166.929 182.377 166.929C182.153 166.929 181.98 166.871 181.858 166.75C181.736 166.628 181.672 166.474 181.672 166.269C181.672 166.057 181.762 165.884 181.948 165.762C182.134 165.634 182.377 165.57 182.692 165.57H183.198V165.287C183.198 165.121 183.147 164.992 183.038 164.903C182.929 164.806 182.788 164.762 182.595 164.762C182.416 164.762 182.275 164.806 182.153 164.896C182.037 164.986 181.98 165.095 181.98 165.223H181.749V165.21C181.736 165.037 181.813 164.883 181.98 164.749C182.146 164.614 182.352 164.543 182.608 164.543C182.865 164.543 183.064 164.608 183.217 164.736C183.371 164.864 183.448 165.05 183.448 165.287V166.416C183.448 166.499 183.448 166.576 183.461 166.653C183.468 166.73 183.487 166.807 183.506 166.878H183.243H183.25ZM182.416 166.698C182.595 166.698 182.762 166.653 182.897 166.57C183.038 166.487 183.14 166.378 183.198 166.243V165.762H182.685C182.454 165.762 182.268 165.813 182.134 165.909C181.993 166.006 181.928 166.127 181.928 166.275C181.928 166.397 181.973 166.499 182.057 166.576C182.14 166.653 182.262 166.692 182.409 166.692L182.416 166.698Z" fill="white"/>
<path d="M184.348 164.582L184.374 164.96C184.444 164.826 184.547 164.723 184.669 164.646C184.791 164.569 184.938 164.537 185.105 164.537C185.272 164.537 185.425 164.582 185.547 164.665C185.663 164.749 185.753 164.877 185.804 165.057C185.874 164.896 185.971 164.768 186.099 164.678C186.227 164.588 186.381 164.544 186.567 164.544C186.811 164.544 187.003 164.627 187.131 164.787C187.266 164.948 187.33 165.204 187.33 165.544V166.884H187.074V165.538C187.074 165.255 187.022 165.057 186.926 164.935C186.824 164.819 186.689 164.762 186.509 164.762C186.31 164.762 186.163 164.826 186.054 164.948C185.945 165.069 185.881 165.23 185.855 165.422C185.855 165.435 185.855 165.448 185.855 165.467C185.855 165.486 185.855 165.499 185.855 165.506V166.884H185.599V165.538C185.599 165.262 185.547 165.063 185.445 164.941C185.342 164.819 185.201 164.762 185.028 164.762C184.855 164.762 184.707 164.806 184.598 164.896C184.496 164.986 184.419 165.108 184.374 165.268V166.884H184.117V164.588H184.342L184.348 164.582Z" fill="white"/>
<path d="M188.851 166.923C188.562 166.923 188.325 166.814 188.132 166.602C187.94 166.391 187.844 166.121 187.844 165.794V165.679C187.844 165.352 187.94 165.076 188.126 164.864C188.312 164.646 188.543 164.537 188.812 164.537C189.094 164.537 189.319 164.627 189.479 164.806C189.639 164.986 189.723 165.223 189.723 165.518V165.736H188.1V165.801C188.1 166.057 188.171 166.275 188.305 166.448C188.44 166.621 188.626 166.711 188.844 166.711C189.005 166.711 189.139 166.692 189.248 166.647C189.357 166.602 189.453 166.538 189.537 166.461L189.646 166.634C189.562 166.724 189.447 166.795 189.319 166.852C189.184 166.904 189.03 166.929 188.844 166.929L188.851 166.923ZM188.819 164.755C188.633 164.755 188.472 164.826 188.344 164.967C188.216 165.108 188.145 165.287 188.12 165.506V165.518H189.466V165.454C189.466 165.255 189.409 165.089 189.293 164.954C189.178 164.819 189.017 164.755 188.812 164.755H188.819Z" fill="white"/>
<path d="M209.037 175.363H140.436V184.2H209.037V175.363Z" fill="#5264AE"/>
<path d="M160.729 179.031L160.023 178.8L160.094 178.589L160.799 178.852V178.069H161.011L160.992 178.858L161.678 178.589L161.749 178.8L161.043 179.044L161.518 179.666L161.338 179.801L160.883 179.153L160.447 179.794L160.267 179.666L160.729 179.031Z" fill="white"/>
<path d="M162.575 179.031L161.869 178.8L161.94 178.589L162.645 178.852V178.069H162.857L162.838 178.858L163.524 178.589L163.594 178.8L162.889 179.044L163.363 179.666L163.184 179.801L162.729 179.153L162.292 179.794L162.113 179.666L162.575 179.031Z" fill="white"/>
<path d="M164.418 179.031L163.713 178.8L163.783 178.589L164.489 178.852V178.069H164.701L164.681 178.858L165.367 178.589L165.438 178.8L164.733 179.044L165.207 179.666L165.028 179.801L164.572 179.153L164.136 179.794L163.957 179.666L164.418 179.031Z" fill="white"/>
<path d="M166.264 179.031L165.559 178.8L165.629 178.589L166.335 178.852V178.069H166.546L166.527 178.858L167.213 178.589L167.284 178.8L166.578 179.044L167.053 179.666L166.873 179.801L166.418 179.153L165.988 179.794L165.809 179.666L166.27 179.031H166.264Z" fill="white"/>
<path d="M168.104 179.031L167.398 178.8L167.469 178.589L168.174 178.852V178.069H168.386L168.367 178.858L169.053 178.589L169.124 178.8L168.418 179.044L168.893 179.666L168.713 179.801L168.258 179.153L167.828 179.794L167.649 179.666L168.11 179.031H168.104Z" fill="white"/>
<path d="M169.952 179.031L169.246 178.8L169.317 178.589L170.022 178.852V178.069H170.234L170.214 178.858L170.901 178.589L170.971 178.8L170.266 179.044L170.74 179.666L170.561 179.801L170.105 179.153L169.676 179.794L169.496 179.666L169.958 179.031H169.952Z" fill="white"/>
<path d="M171.793 179.031L171.088 178.8L171.158 178.589L171.864 178.852V178.069H172.076L172.056 178.858L172.742 178.589L172.813 178.8L172.108 179.044L172.582 179.666L172.403 179.801L171.947 179.153L171.518 179.794L171.338 179.666L171.8 179.031H171.793Z" fill="white"/>
<path d="M173.639 179.031L172.934 178.8L173.004 178.589L173.71 178.852V178.069H173.921L173.902 178.858L174.588 178.589L174.659 178.8L173.953 179.044L174.428 179.666L174.248 179.801L173.793 179.153L173.363 179.794L173.184 179.666L173.645 179.031H173.639Z" fill="white"/>
<path d="M175.485 179.031L174.779 178.8L174.85 178.589L175.555 178.852V178.069H175.767L175.748 178.858L176.434 178.589L176.504 178.8L175.799 179.044L176.274 179.666L176.094 179.801L175.639 179.153L175.209 179.794L175.029 179.666L175.491 179.031H175.485Z" fill="white"/>
<path d="M177.327 179.031L176.621 178.8L176.692 178.589L177.397 178.852V178.069H177.609L177.589 178.858L178.276 178.589L178.346 178.8L177.641 179.044L178.115 179.666L177.936 179.801L177.48 179.153L177.051 179.794L176.871 179.666L177.333 179.031H177.327Z" fill="white"/>
<path d="M179.174 179.031L178.469 178.8L178.539 178.589L179.245 178.852V178.069H179.456L179.437 178.858L180.123 178.589L180.194 178.8L179.488 179.044L179.963 179.666L179.783 179.801L179.328 179.153L178.898 179.794L178.719 179.666L179.181 179.031H179.174Z" fill="white"/>
<path d="M181.014 179.031L180.309 178.8L180.379 178.589L181.085 178.852V178.069H181.296L181.277 178.858L181.963 178.589L182.034 178.8L181.328 179.044L181.803 179.666L181.623 179.801L181.168 179.153L180.738 179.794L180.559 179.666L181.02 179.031H181.014Z" fill="white"/>
<path d="M182.86 179.031L182.154 178.8L182.225 178.589L182.93 178.852V178.069H183.142L183.123 178.858L183.809 178.589L183.879 178.8L183.174 179.044L183.649 179.666L183.469 179.801L183.014 179.153L182.584 179.794L182.404 179.666L182.866 179.031H182.86Z" fill="white"/>
<path d="M184.709 179.031L184.004 178.8L184.074 178.589L184.78 178.852V178.069H184.992L184.972 178.858L185.658 178.589L185.729 178.8L185.024 179.044L185.498 179.666L185.319 179.801L184.863 179.153L184.434 179.794L184.254 179.666L184.716 179.031H184.709Z" fill="white"/>
<path d="M186.549 179.031L185.844 178.8L185.914 178.589L186.62 178.852V178.069H186.831L186.812 178.858L187.498 178.589L187.569 178.8L186.863 179.044L187.338 179.666L187.158 179.801L186.703 179.153L186.273 179.794L186.094 179.666L186.556 179.031H186.549Z" fill="white"/>
<path d="M188.395 179.031L187.689 178.8L187.76 178.589L188.465 178.852V178.069H188.677L188.658 178.858L189.344 178.589L189.415 178.8L188.709 179.044L189.184 179.666L189.004 179.801L188.549 179.153L188.119 179.794L187.94 179.666L188.401 179.031H188.395Z" fill="white"/>
<path d="M184.403 189.375H165.061V194.634H184.403V189.375Z" fill="#BBC6EA"/>
<path d="M170.296 193.441H171.521V193.614H170.098V191.145H170.303V193.441H170.296Z" fill="#5264AE"/>
<path d="M173.617 192.582C173.617 192.902 173.527 193.159 173.354 193.358C173.181 193.557 172.943 193.653 172.648 193.653C172.353 193.653 172.129 193.557 171.956 193.358C171.783 193.159 171.699 192.902 171.699 192.582V192.178C171.699 191.857 171.783 191.601 171.956 191.402C172.129 191.203 172.36 191.107 172.648 191.107C172.937 191.107 173.181 191.203 173.354 191.402C173.527 191.601 173.617 191.857 173.617 192.178V192.582ZM173.412 192.178C173.412 191.908 173.341 191.697 173.206 191.53C173.072 191.37 172.886 191.286 172.642 191.286C172.398 191.286 172.225 191.37 172.09 191.53C171.956 191.69 171.892 191.908 171.892 192.178V192.582C171.892 192.851 171.956 193.069 172.09 193.229C172.225 193.39 172.405 193.473 172.642 193.473C172.879 193.473 173.072 193.39 173.206 193.229C173.341 193.069 173.405 192.851 173.405 192.582V192.178H173.412Z" fill="#5264AE"/>
<path d="M175.921 193.319C175.863 193.396 175.767 193.473 175.619 193.544C175.472 193.614 175.286 193.646 175.061 193.646C174.773 193.646 174.535 193.55 174.356 193.351C174.17 193.153 174.08 192.902 174.08 192.588V192.133C174.08 191.825 174.17 191.575 174.343 191.383C174.516 191.19 174.747 191.094 175.023 191.094C175.299 191.094 175.497 191.158 175.645 191.293C175.792 191.427 175.882 191.601 175.908 191.812V191.825H175.715C175.683 191.658 175.613 191.524 175.504 191.421C175.395 191.318 175.234 191.267 175.023 191.267C174.811 191.267 174.625 191.351 174.491 191.511C174.356 191.671 174.285 191.876 174.285 192.127V192.582C174.285 192.838 174.356 193.05 174.503 193.217C174.644 193.383 174.837 193.467 175.068 193.467C175.234 193.467 175.369 193.441 175.485 193.396C175.6 193.351 175.677 193.3 175.722 193.249V192.607H175.068V192.434H175.927V193.313L175.921 193.319Z" fill="#5264AE"/>
<path d="M176.779 193.614H176.574V191.145H176.779V193.614Z" fill="#5264AE"/>
<path d="M179.295 193.614H179.089L177.685 191.492H177.672V193.614H177.467V191.145H177.672L179.077 193.268H179.089V191.145H179.295V193.614Z" fill="#5264AE"/>
<path opacity="0.2" d="M202.669 93.7935H72.8091C70.4105 93.7935 68.4609 95.7366 68.4609 98.1416V177.678C82.1082 158.419 121.947 112.687 202.669 93.7999V93.7935Z" fill="white"/>
<path d="M174.733 228.059C177.836 228.059 180.351 225.544 180.351 222.441C180.351 219.339 177.836 216.823 174.733 216.823C171.63 216.823 169.115 219.339 169.115 222.441C169.115 225.544 171.63 228.059 174.733 228.059Z" fill="white"/>
<path d="M222.678 258.298H126.795C125.672 258.298 124.762 259.208 124.762 260.331V265.538C124.762 266.661 125.672 267.571 126.795 267.571H222.678C223.801 267.571 224.711 266.661 224.711 265.538V260.331C224.711 259.208 223.801 258.298 222.678 258.298Z" fill="#6B667A"/>
<path d="M124.762 262.934V265.532C124.762 266.654 125.672 267.565 126.795 267.565H222.672C223.794 267.565 224.705 266.654 224.705 265.532V262.934H124.762Z" fill="#696181"/>
<path d="M215.337 116.951C216.344 118.497 215.901 120.562 214.362 121.562L159.696 157.11C158.15 158.117 156.085 157.675 155.085 156.135L132.562 121.504C131.555 119.959 131.998 117.894 133.537 116.893L188.203 81.3451C189.748 80.3382 191.813 80.7807 192.814 82.3199L215.337 116.951Z" fill="#FFC359"/>
<path d="M195.749 86.8121L135.494 126.002L141.676 135.507L201.931 96.3171L195.749 86.8121Z" fill="#5264AE"/>
<path d="M199.909 105.095L175.211 121.159L183.697 134.206L208.395 118.143L199.909 105.095Z" fill="#BBC6EA"/>
<path d="M178.471 122.415C178.368 122.415 178.265 122.364 178.201 122.268C178.105 122.12 178.15 121.921 178.297 121.825L199.262 108.191C199.41 108.095 199.608 108.139 199.705 108.287C199.801 108.434 199.756 108.633 199.608 108.729L178.644 122.364C178.592 122.396 178.528 122.415 178.471 122.415Z" fill="white"/>
<path d="M180.369 125.346C180.266 125.346 180.164 125.295 180.1 125.199C180.003 125.051 180.048 124.852 180.196 124.756L201.161 111.122C201.308 111.026 201.507 111.071 201.603 111.218C201.699 111.366 201.654 111.564 201.507 111.661L180.542 125.295C180.491 125.327 180.427 125.346 180.369 125.346Z" fill="white"/>
<path d="M182.273 128.27C182.171 128.27 182.068 128.219 182.004 128.123C181.908 127.975 181.953 127.777 182.1 127.68L203.065 114.046C203.212 113.95 203.411 113.995 203.507 114.142C203.604 114.29 203.559 114.488 203.411 114.585L182.446 128.219C182.395 128.251 182.331 128.27 182.273 128.27Z" fill="white"/>
<path d="M184.178 131.195C184.075 131.195 183.972 131.143 183.908 131.047C183.812 130.9 183.857 130.701 184.004 130.605L204.969 116.97C205.117 116.874 205.315 116.919 205.412 117.066C205.508 117.214 205.463 117.413 205.315 117.509L184.351 131.143C184.299 131.175 184.235 131.195 184.178 131.195Z" fill="white"/>
<path d="M146.369 74.3229C150.91 72.8992 172.31 78.1324 174.363 79.7164C176.415 81.3005 182.571 86.431 183.392 89.1951C184.213 91.9656 181.045 103.035 179.916 103.234C178.794 103.432 177.184 101.996 177.107 98.321C177.03 94.6463 178.005 91.2601 176.8 89.8172C175.594 88.3742 171.355 86.1168 171.355 86.1168C171.355 86.1168 173.862 96.8139 172.779 98.802C171.695 100.784 169.027 104.375 167.898 104.478C166.769 104.58 164.942 101.63 164.942 101.63C164.942 101.63 162.774 104.747 161.337 105.587C159.901 106.427 157.951 103.759 157.951 103.759C157.951 103.759 155.899 106.184 153.949 105.587C152 104.991 149.114 98.6481 149.64 97.5899C151.076 94.7232 153.879 97.7118 153.879 97.7118C153.879 97.7118 152.41 90.6316 150.871 88.6884C149.332 86.7388 137.846 76.9972 146.356 74.3294L146.369 74.3229Z" fill="#FF95A9"/>
<path d="M164.949 101.624C164.949 101.624 168.111 95.8581 167.7 93.9085C167.29 91.9589 165.417 87.1362 165.417 87.1362" stroke="#B5556E" stroke-linecap="round" stroke-linejoin="round"/>
<path d="M158.575 89.9133C158.575 89.9133 160.422 95.2747 160.011 97.1025C159.601 98.9367 157.959 103.753 157.959 103.753" stroke="#B5556E" stroke-linecap="round" stroke-linejoin="round"/>
<path d="M153.891 97.7056C153.891 97.7056 152.589 100.168 153.891 103.76" stroke="#B5556E" stroke-linecap="round" stroke-linejoin="round"/>
<path d="M293.794 135.947C290.716 136.185 285.893 139.872 284.758 137.82C283.617 135.768 285.624 133.151 285.624 133.151C285.624 133.151 283.694 132.843 283.379 131.016C283.059 129.188 284.951 126.699 284.951 126.699C283.591 126.161 283.097 124.333 282.969 123.268C282.841 122.204 286.47 116.714 287.971 115.81C289.472 114.906 292.088 114.662 292.088 114.662C292.088 114.662 292.345 112.552 292.088 111.68C291.832 110.808 289.145 110.019 288.119 109.961C287.093 109.903 285.534 109.865 282.571 109.955C279.608 110.044 278.755 108.306 280.416 106.53C282.077 104.747 290.081 104.132 290.979 104.401C291.877 104.67 297.501 108.069 298.239 109.955C298.976 111.84 297.899 115.855 297.899 115.855C297.899 115.855 299.059 116.522 299.566 118.273C300.073 120.023 297.443 122.723 297.443 122.723C297.443 122.723 299.239 124.096 299.765 125.327C300.291 126.558 297.835 130.124 297.835 130.124C297.835 130.124 299.579 131.144 300.054 132.625C300.528 134.107 298.617 136.871 297.924 137.717C297.232 138.564 293.781 135.954 293.781 135.954L293.794 135.947Z" fill="#FF95A9"/>
<path d="M284.957 126.7C284.957 126.7 289.562 121.531 290.729 121.332C291.896 121.133 297.456 122.704 297.456 122.704" stroke="#B5556E" stroke-linecap="round" stroke-linejoin="round"/>
<path d="M297.907 115.842C297.907 115.842 295.399 114.553 292.09 114.655" stroke="#B5556E" stroke-linecap="round" stroke-linejoin="round"/>
<path d="M285.625 133.158C285.625 133.158 289.973 128.816 291.769 128.508C293.565 128.2 296.245 129.291 297.849 130.111" stroke="#B5556E" stroke-linecap="round" stroke-linejoin="round"/>
<path d="M301.547 172.233H267.256V206.524H301.547V172.233Z" fill="#5264AE"/>
<path d="M294.241 196.097C293.003 194.333 288.238 193.358 287.443 191.947C286.648 190.536 287.09 188.593 287.09 188.593H281.716C281.716 188.593 282.158 190.536 281.363 191.947C280.568 193.358 275.803 194.333 274.565 196.097C273.328 197.86 273.507 206.518 273.507 206.518H295.305C295.305 206.518 295.485 197.867 294.247 196.097H294.241Z" fill="#DDD6FF"/>
<path d="M284.403 206.518H295.299C295.299 206.518 295.479 197.867 294.241 196.097C293.176 194.577 289.502 193.647 287.994 192.512C287.154 193.05 285.987 193.531 284.403 193.531C282.819 193.531 281.652 193.044 280.818 192.505C279.305 193.634 275.63 194.57 274.565 196.09C273.328 197.854 273.507 206.512 273.507 206.512H284.403V206.518Z" fill="#BBC6EA"/>
<path d="M284.404 189.959C288.003 189.959 290.92 186.901 290.92 183.129C290.92 179.357 288.003 176.299 284.404 176.299C280.806 176.299 277.889 179.357 277.889 183.129C277.889 186.901 280.806 189.959 284.404 189.959Z" fill="#F8F7FF"/>
<path d="M130.88 43.8093C130.649 43.6298 130.502 43.3412 130.502 43.0269L130.528 34.5423C130.528 32.6825 131.265 30.9381 132.58 29.6298C133.901 28.3215 135.645 27.6032 137.505 27.6097C141.34 27.6225 144.451 30.7521 144.438 34.5872L144.425 38.2299C144.425 38.7814 143.976 39.2239 143.431 39.2175C142.886 39.2175 142.437 38.7686 142.443 38.2235L142.456 34.5808C142.463 31.8424 140.244 29.6042 137.505 29.5977C136.178 29.5977 134.927 30.1044 133.984 31.0407C133.042 31.977 132.522 33.2212 132.516 34.5487L132.49 43.0333C132.49 43.5849 132.041 44.0274 131.496 44.021C131.265 44.021 131.053 43.9376 130.88 43.8093Z" fill="#BBC6EA"/>
<path d="M126.496 61.4225L126.558 42.677C126.561 41.9972 127.114 41.4539 127.787 41.4561L147.142 41.5203C147.822 41.5225 148.365 42.0759 148.363 42.7493L148.301 61.4949C148.299 62.1746 147.745 62.7179 147.072 62.7157L127.717 62.6515C127.037 62.6493 126.494 62.0959 126.496 61.4225Z" fill="#5264AE"/>
<path d="M127.719 62.6512L147.074 62.7153C147.754 62.7153 148.305 62.1702 148.305 61.4904L148.344 49.0938C141.264 55.1798 131.432 57.4373 126.507 58.2133L126.494 61.4135C126.494 62.0932 127.039 62.6448 127.719 62.6448V62.6512Z" fill="#BBC6EA"/>
<path d="M139.548 49.934C139.548 48.7668 138.612 47.8176 137.444 47.8176C136.277 47.8176 135.328 48.7539 135.328 49.9211C135.328 50.6458 135.694 51.2936 136.252 51.6719L135.488 57.2771L139.349 57.2899L138.624 51.6784C139.182 51.3 139.554 50.6587 139.561 49.934H139.548Z" fill="#3F327A"/>
<path d="M96.2167 81.0566C94.6583 79.9471 65.1128 59.0273 62.5732 59.0273C60.0336 59.0273 31.5078 79.2224 29.0323 80.9796C27.9934 81.3644 27.2559 82.352 27.2559 83.5192V123.473C27.2559 124.974 28.4679 126.186 29.9686 126.186H95.088C96.5887 126.186 97.8007 124.974 97.8007 123.473V83.5192C97.8007 82.4226 97.1466 81.4863 96.2103 81.0566H96.2167Z" fill="#5264AE"/>
<path d="M91.6108 48.5098H33.4434V121.133H91.6108V48.5098Z" fill="#BBC6EA"/>
<path d="M84.9995 56.6545H74.1484V76.8368H84.9995V56.6545Z" fill="#97A7DD"/>
<path d="M69.0611 56.6545H38.7012V59.7072H69.0611V56.6545Z" fill="#97A7DD"/>
<path d="M69.0611 65.2163H38.7012V68.269H69.0611V65.2163Z" fill="#97A7DD"/>
<path d="M69.0611 73.7776H38.7012V76.8303H69.0611V73.7776Z" fill="#97A7DD"/>
<path d="M84.9979 82.8652H38.7012V85.9179H84.9979V82.8652Z" fill="#97A7DD"/>
<path d="M84.9979 91.4268H38.7012V94.4794H84.9979V91.4268Z" fill="#97A7DD"/>
<path d="M84.9979 99.9883H38.7012V103.041H84.9979V99.9883Z" fill="#97A7DD"/>
<path d="M27.2559 123.473C27.2559 124.974 28.4679 126.186 29.9686 126.186H85L27.2559 84.8213V123.473Z" fill="#FFC359"/>
<path d="M97.8072 123.473C97.8072 124.974 96.5952 126.186 95.0945 126.186H40.0566L97.8008 84.8213V123.473H97.8072Z" fill="#FFD188"/>
<path d="M289.277 74.4002C297.311 74.4002 303.823 67.8882 303.823 59.8551C303.823 51.8221 297.311 45.3101 289.277 45.3101C281.244 45.3101 274.732 51.8221 274.732 59.8551C274.732 67.8882 281.244 74.4002 289.277 74.4002Z" fill="#5264AE"/>
<path d="M293.548 71.8607C300.687 68.9486 304.114 60.8 301.202 53.6603C298.29 46.5207 290.141 43.0937 283.002 46.0059C275.862 48.918 272.435 57.0666 275.347 64.2062C278.259 71.3459 286.408 74.7729 293.548 71.8607Z" fill="#FF819F"/>
<path d="M293.548 71.8607C300.687 68.9486 304.114 60.8 301.202 53.6603C298.29 46.5207 290.141 43.0937 283.002 46.0059C275.862 48.918 272.435 57.0666 275.347 64.2062C278.259 71.3459 286.408 74.7729 293.548 71.8607Z" fill="#BBC6EA"/>
<mask id="mask1_642_3602" style="mask-type:luminance" maskUnits="userSpaceOnUse" x="274" y="44" width="29" height="29">
<path d="M293.546 71.8607C300.685 68.9486 304.112 60.8 301.2 53.6603C298.288 46.5207 290.139 43.0937 283 46.0059C275.86 48.918 272.433 57.0666 275.345 64.2062C278.257 71.3459 286.406 74.7729 293.546 71.8607Z" fill="white"/>
</mask>
<g mask="url(#mask1_642_3602)">
<path d="M272.68 66.0949L299.795 42.0071" stroke="#F8F7FF" stroke-width="3" stroke-miterlimit="10"/>
<path d="M274.713 70.443L301.828 46.3616" stroke="#F8F7FF" stroke-width="6" stroke-miterlimit="10"/>
</g>
<path d="M288.27 69.5067C294.107 69.5067 298.839 64.7749 298.839 58.9378C298.839 53.1008 294.107 48.3689 288.27 48.3689C282.433 48.3689 277.701 53.1008 277.701 58.9378C277.701 64.7749 282.433 69.5067 288.27 69.5067Z" fill="#D4DDF4"/>
<path d="M278.656 60.3872C278.656 54.5512 283.389 49.8183 289.225 49.8183C292.63 49.8183 295.657 51.4344 297.588 53.9419C295.805 50.6263 292.303 48.3689 288.276 48.3689C282.44 48.3689 277.707 53.1018 277.707 58.9378C277.707 61.3684 278.534 63.6002 279.913 65.3895C279.112 63.9016 278.656 62.2021 278.656 60.3936V60.3872Z" fill="#5264AE"/>
<path d="M288.714 52.3066C289.105 52.3066 289.42 52.6145 289.42 53.0121V53.3712C290.382 53.4867 291.202 53.7945 291.953 54.2691C292.216 54.4166 292.447 54.6603 292.447 55.0515C292.447 55.5581 292.036 55.9493 291.529 55.9493C291.363 55.9493 291.202 55.898 291.042 55.8018C290.471 55.4555 289.913 55.2118 289.355 55.0835V58.226C291.837 58.8481 292.902 59.8421 292.902 61.5929C292.902 63.3437 291.497 64.5879 289.42 64.7803V65.7615C289.42 66.1527 289.112 66.4669 288.714 66.4669C288.316 66.4669 287.996 66.1591 287.996 65.7615V64.7482C286.771 64.6199 285.642 64.1774 284.642 63.472C284.366 63.2924 284.199 63.0295 284.199 62.6896C284.199 62.1829 284.59 61.7917 285.097 61.7917C285.296 61.7917 285.488 61.8559 285.636 61.9713C286.405 62.5292 287.156 62.9012 288.054 63.0679V59.8485C285.668 59.2265 284.552 58.3286 284.552 56.4816C284.552 54.7308 285.944 53.5187 287.983 53.3584V53.0121C287.983 52.6209 288.31 52.3066 288.701 52.3066H288.714ZM288.06 57.8861V54.9938C287.015 55.09 286.489 55.6479 286.489 56.3662C286.489 57.0845 286.797 57.4757 288.06 57.8861ZM289.349 60.1564V63.1321C290.394 63.0166 290.965 62.4972 290.965 61.7084C290.965 60.9901 290.606 60.5476 289.349 60.1564Z" fill="#5264AE"/>
</g>
<defs>
<clipPath id="clip0_642_3602">
<rect width="331" height="272" fill="white"/>
</clipPath>
</defs>
</svg>
