<svg width="20" height="15" viewBox="0 0 20 15" fill="none" xmlns="http://www.w3.org/2000/svg">
<path d="M19.6211 4.95337C19.7734 4.83228 20 4.94556 20 5.13696V13.1252C20 14.1604 19.1602 15.0002 18.125 15.0002H1.875C0.839844 15.0002 0 14.1604 0 13.1252V5.14087C0 4.94556 0.222656 4.83618 0.378906 4.95728C1.25391 5.63696 2.41406 6.50024 6.39844 9.39478C7.22266 9.99634 8.61328 11.262 10 11.2542C11.3945 11.2659 12.8125 9.9729 13.6055 9.39478C17.5898 6.50024 18.7461 5.63306 19.6211 4.95337ZM10 10.0002C10.9062 10.0159 12.2109 8.85962 12.8672 8.38306C18.0508 4.62134 18.4453 4.29321 19.6406 3.35571C19.8672 3.17993 20 2.90649 20 2.61743V1.87524C20 0.840088 19.1602 0.000244141 18.125 0.000244141H1.875C0.839844 0.000244141 0 0.840088 0 1.87524V2.61743C0 2.90649 0.132812 3.17603 0.359375 3.35571C1.55469 4.28931 1.94922 4.62134 7.13281 8.38306C7.78906 8.85962 9.09375 10.0159 10 10.0002Z" fill="#333343"/>
</svg>
