<svg width="80" height="80" viewBox="0 0 80 80" fill="none" xmlns="http://www.w3.org/2000/svg">
<rect y="-0.000976562" width="80" height="80" rx="16" fill="#D5DDFD"/>
<path fill-rule="evenodd" clip-rule="evenodd" d="M66.8492 10.6325C67.6937 9.78788 69.062 9.78788 69.9066 10.6325C70.7512 11.4771 70.7512 12.8453 69.9066 13.6899L13.6908 69.9056C13.2686 70.3279 12.7153 70.539 12.1621 70.539C11.6089 70.539 11.0557 70.3279 10.6334 69.9056C9.78885 69.061 9.78885 67.6928 10.6334 66.8482L18.4698 59.0119C17.1009 58.4211 15.8339 57.6365 14.7351 56.6365C11.8378 54.1067 10 50.3662 10 46.1933C10 39.7501 14.3892 34.2151 20.4863 32.6366C21.3729 25.6529 27.2539 20.3556 34.3458 20.3556C38.8862 20.3556 42.9294 22.5178 45.4807 25.8907C46.3962 27.0779 47.0995 28.4364 47.5927 29.8889L66.8492 10.6325ZM29.5242 60.1823L57.4807 32.2258C64.7671 32.7015 70.54 38.7988 70.54 46.1933C70.54 53.9121 64.2697 60.1823 56.551 60.1823H29.5242Z" fill="#5264AE"/>
</svg>
