<svg width="685" height="580" viewBox="0 0 685 580" fill="none" xmlns="http://www.w3.org/2000/svg">
<rect width="685" height="580" fill="white"/>
<g clip-path="url(#clip0_2001_677)">
<path d="M77.5197 191.429C83.6643 186.137 84.361 176.859 79.0758 170.706C73.7906 164.553 64.5248 163.855 58.3802 169.147C52.2356 174.44 51.5389 183.718 56.8241 189.871C62.1093 196.023 71.375 196.721 77.5197 191.429Z" fill="#D5DDFD"/>
<path d="M173.412 356.822C181.517 356.822 188.087 350.243 188.087 342.127C188.087 334.011 181.517 327.432 173.412 327.432C165.307 327.432 158.737 334.011 158.737 342.127C158.737 350.243 165.307 356.822 173.412 356.822Z" fill="#D5DDFD"/>
<path d="M250.179 560.964C255.281 554.658 254.313 545.405 248.016 540.295C241.72 535.185 232.478 536.155 227.375 542.46C222.273 548.765 223.241 558.019 229.538 563.129C235.835 568.238 245.076 567.269 250.179 560.964Z" fill="#D5DDFD"/>
<path d="M436.386 434.885C442.117 429.146 442.117 419.842 436.386 414.103C430.655 408.365 421.363 408.365 415.632 414.103C409.901 419.842 409.901 429.146 415.632 434.885C421.363 440.624 430.655 440.624 436.386 434.885Z" fill="#D5DDFD"/>
<path d="M604.609 419.147C605.911 411.137 600.483 403.586 592.483 402.281C584.484 400.977 576.943 406.413 575.64 414.423C574.337 422.433 579.766 429.984 587.765 431.289C595.765 432.593 603.306 427.157 604.609 419.147Z" fill="#D5DDFD"/>
<path d="M462.963 254.301C471.068 254.301 477.638 247.722 477.638 239.606C477.638 231.49 471.068 224.911 462.963 224.911C454.858 224.911 448.288 231.49 448.288 239.606C448.288 247.722 454.858 254.301 462.963 254.301Z" fill="#D5DDFD"/>
<path d="M286.38 158.853C287.836 150.869 282.553 143.215 274.58 141.757C266.607 140.299 258.963 145.589 257.507 153.573C256.051 161.556 261.334 169.21 269.307 170.668C277.28 172.126 284.924 166.836 286.38 158.853Z" fill="#D5DDFD"/>
<path d="M44.6753 279.202C52.7802 279.202 59.3505 272.623 59.3505 264.507C59.3505 256.392 52.7802 249.812 44.6753 249.812C36.5703 249.812 30 256.392 30 264.507C30 272.623 36.5703 279.202 44.6753 279.202Z" fill="#D5DDFD"/>
<path d="M243.905 48.0728C252.01 48.0728 258.58 41.4937 258.58 33.378C258.58 25.2622 252.01 18.6831 243.905 18.6831C235.8 18.6831 229.229 25.2622 229.229 33.378C229.229 41.4937 235.8 48.0728 243.905 48.0728Z" fill="#D5DDFD"/>
<path d="M334.426 18.6973C339.582 18.6973 343.762 14.5118 343.762 9.34867C343.762 4.18554 339.582 0 334.426 0C329.27 0 325.09 4.18554 325.09 9.34867C325.09 14.5118 329.27 18.6973 334.426 18.6973Z" fill="#D5DDFD"/>
<path d="M372.827 153.439C377.984 153.439 382.164 149.253 382.164 144.09C382.164 138.927 377.984 134.741 372.827 134.741C367.671 134.741 363.491 138.927 363.491 144.09C363.491 149.253 367.671 153.439 372.827 153.439Z" fill="#D5DDFD"/>
<path d="M211.614 233.46C216.77 233.46 220.95 229.274 220.95 224.111C220.95 218.948 216.77 214.762 211.614 214.762C206.457 214.762 202.277 218.948 202.277 224.111C202.277 229.274 206.457 233.46 211.614 233.46Z" fill="#D5DDFD"/>
<path d="M211.614 411.427C216.77 411.427 220.95 407.242 220.95 402.079C220.95 396.916 216.77 392.73 211.614 392.73C206.457 392.73 202.277 396.916 202.277 402.079C202.277 407.242 206.457 411.427 211.614 411.427Z" fill="#D5DDFD"/>
<path d="M60.1499 426.122C65.3062 426.122 69.4861 421.937 69.4861 416.773C69.4861 411.61 65.3062 407.425 60.1499 407.425C54.9937 407.425 50.8137 411.61 50.8137 416.773C50.8137 421.937 54.9937 426.122 60.1499 426.122Z" fill="#D5DDFD"/>
<path d="M519.908 243.58C525.065 243.58 529.245 239.395 529.245 234.231C529.245 229.068 525.065 224.883 519.908 224.883C514.752 224.883 510.572 229.068 510.572 234.231C510.572 239.395 514.752 243.58 519.908 243.58Z" fill="#D5DDFD"/>
<path d="M594.47 149.536C599.626 149.536 603.806 145.35 603.806 140.187C603.806 135.024 599.626 130.838 594.47 130.838C589.313 130.838 585.133 135.024 585.133 140.187C585.133 145.35 589.313 149.536 594.47 149.536Z" fill="#D5DDFD"/>
<path d="M405.889 42.7266C411.046 42.7266 415.226 38.5411 415.226 33.378C415.226 28.2148 411.046 24.0293 405.889 24.0293C400.733 24.0293 396.553 28.2148 396.553 33.378C396.553 38.5411 400.733 42.7266 405.889 42.7266Z" fill="#D5DDFD"/>
<path d="M482.007 565.666C487.163 565.666 491.343 561.481 491.343 556.317C491.343 551.154 487.163 546.969 482.007 546.969C476.851 546.969 472.671 551.154 472.671 556.317C472.671 561.481 476.851 565.666 482.007 565.666Z" fill="#D5DDFD"/>
<path d="M356.154 452.21C361.31 452.21 365.49 448.025 365.49 442.861C365.49 437.698 361.31 433.513 356.154 433.513C350.997 433.513 346.817 437.698 346.817 442.861C346.817 448.025 350.997 452.21 356.154 452.21Z" fill="#D5DDFD"/>
<path d="M442.906 491.663C448.062 491.663 452.242 487.478 452.242 482.315C452.242 477.151 448.062 472.966 442.906 472.966C437.75 472.966 433.57 477.151 433.57 482.315C433.57 487.478 437.75 491.663 442.906 491.663Z" fill="#D5DDFD"/>
<path d="M300.166 567.737C300.166 572.897 295.983 577.086 290.83 577.086C285.676 577.086 281.493 572.897 281.493 567.737C281.493 562.576 285.676 558.388 290.83 558.388C295.983 558.388 300.166 562.576 300.166 567.737Z" fill="#D5DDFD"/>
<path d="M189.058 551.729C189.058 556.889 184.875 561.078 179.722 561.078C174.568 561.078 170.386 556.889 170.386 551.729C170.386 546.569 174.568 542.38 179.722 542.38C184.875 542.38 189.058 546.569 189.058 551.729Z" fill="#D5DDFD"/>
<path d="M622.664 309.006C627.82 309.006 632 304.821 632 299.658C632 294.495 627.82 290.309 622.664 290.309C617.508 290.309 613.328 294.495 613.328 299.658C613.328 304.821 617.508 309.006 622.664 309.006Z" fill="#D5DDFD"/>
<path d="M623.363 299.829L621.979 299.486L592.328 418.575L533.013 322.643L520.522 233.474L517.953 233.717L595.797 139.715L480.551 118.13L516.24 233.888L463.249 238.877L374.469 144.876L474.441 122.576L408.631 35.8364L413.07 33.2062L334.64 8.69097L334.44 8.63379L244.462 32.5344L244.362 32.0341L243.562 32.7631L242.063 33.1633L242.72 33.535L159.208 109.554L213.041 221.652L211.471 223.425L69.6004 180.112L159.365 116.029L158.537 114.871L67.8873 179.597L67.5162 179.483L67.3877 179.94L66.9737 180.241L67.2307 180.541L43.8901 264.908L96.9524 295.698L50.2999 351.39L51.3991 352.305L98.2086 296.427L168.444 337.181L171.257 344.028L63.6189 358.766L63.8188 360.181L172.37 345.315L173.284 345.186L170.471 338.353L171.756 339.097L210.429 401.507L60.1072 416.773L58.7224 416.916L179.222 553.616L179.436 553.859H235.34L234.583 556.117L235.939 556.575L236.853 553.873H239.108L291.556 573.417L355.997 445.291L380.194 545.082L381.578 544.739L357.053 443.576L425.547 425.479L442.264 482.586L480.836 555.603L383.106 551.057L383.034 552.486L483.263 557.146L482.835 556.332L512.871 477.597L427.203 424.492L531.429 324.788L515.24 470.407L516.654 470.564L532.828 325.045L592.914 422.22L623.378 299.844L623.363 299.829ZM593.156 140.659L517.267 232.302L482.621 119.946L593.171 140.659H593.156ZM471.971 121.633L373.398 143.618L329.815 82.6084L403.463 38.8669L372.413 139.83L373.77 140.244L405.276 37.7805L407.389 36.5226L471.957 121.618L471.971 121.633ZM405.918 35.765L406.175 34.9216L406.532 35.3933L405.904 35.765H405.918ZM407.774 34.6643L406.132 32.5058L409.601 33.5922L407.774 34.6786V34.6643ZM334.426 10.0918L405.49 32.3057L404.091 36.8656L328.987 81.4648L328.83 81.2361L328.63 81.4934L245.789 33.6351L334.44 10.0918H334.426ZM327.702 82.6084L268.516 154.582L244.933 34.7786L327.702 82.5941V82.6084ZM160.95 109.868L243.462 34.7643L267.688 157.841L328.745 83.5947L371.814 143.875L271.999 155.682L271.728 155.711L214.069 220.466L160.964 109.868H160.95ZM213.698 223.01L214.04 223.725L212.513 224.325L213.684 223.01H213.698ZM45.5318 264.178L68.3013 181.842L129.815 256.402L97.8517 294.555L45.5176 264.193L45.5318 264.178ZM99.1222 295.269L131.299 256.86L131.685 256.402L70.0572 181.699L211.285 224.811L134.683 255.001L167.545 334.965L99.1365 295.269H99.1222ZM290.885 571.259L239.679 552.515L239.508 552.401H237.31L269.558 456.541L354.997 443.919L290.9 571.259H290.885ZM481.907 554.602L443.577 482.071L427.217 426.151L511.072 478.14L481.907 554.602ZM425.647 423.921L356.025 442.318L268.487 455.254L235.811 552.401H180.065L61.6204 418.031L211.699 402.779L212.841 402.665L172.784 337.996L169.572 336.138L136.567 255.802L216.01 224.497L214.74 221.852L272.442 157.055L372.842 145.19L462.721 240.349L519.323 235.018L531.586 322.629L425.661 423.949L425.647 423.921Z" fill="#D5DDFD"/>
<path d="M479.223 144.232C491.104 144.232 500.736 134.588 500.736 122.69C500.736 110.793 491.104 101.148 479.223 101.148C467.342 101.148 457.71 110.793 457.71 122.69C457.71 134.588 467.342 144.232 479.223 144.232Z" fill="#D5DDFD"/>
<path d="M156.053 127.408C164.174 127.408 170.757 120.816 170.757 112.684C170.757 104.553 164.174 97.9609 156.053 97.9609C147.932 97.9609 141.349 104.553 141.349 112.684C141.349 120.816 147.932 127.408 156.053 127.408Z" fill="#D5DDFD"/>
<path d="M553.825 334.421C556.332 324.006 549.932 313.528 539.531 311.018C529.13 308.508 518.666 314.916 516.16 325.331C513.653 335.746 520.053 346.224 530.454 348.734C540.855 351.244 551.318 344.836 553.825 334.421Z" fill="#D5DDFD"/>
<path d="M136.343 489.99C138.448 481.24 133.072 472.438 124.334 470.329C115.597 468.221 106.806 473.604 104.7 482.354C102.595 491.103 107.971 499.905 116.709 502.014C125.446 504.122 134.237 498.739 136.343 489.99Z" fill="#D5DDFD"/>
<path d="M395.525 547.015C396.682 539.773 391.757 532.963 384.525 531.804C377.292 530.646 370.491 535.577 369.334 542.819C368.177 550.061 373.102 556.871 380.334 558.03C387.567 559.189 394.368 554.257 395.525 547.015Z" fill="#D5DDFD"/>
<path d="M272.756 472.322C278.708 472.322 283.534 467.49 283.534 461.53C283.534 455.569 278.708 450.737 272.756 450.737C266.803 450.737 261.978 455.569 261.978 461.53C261.978 467.49 266.803 472.322 272.756 472.322Z" fill="#D5DDFD"/>
<path d="M342.985 88.1416C345.355 77.9456 339.021 67.7568 328.839 65.3841C318.656 63.0114 308.481 69.3534 306.112 79.5494C303.742 89.7453 310.076 99.9342 320.258 102.307C330.44 104.68 340.616 98.3375 342.985 88.1416Z" fill="#D5DDFD"/>
<path d="M136.91 264.993C142.988 264.993 147.916 260.059 147.916 253.972C147.916 247.885 142.988 242.951 136.91 242.951C130.831 242.951 125.903 247.885 125.903 253.972C125.903 260.059 130.831 264.993 136.91 264.993Z" fill="#D5DDFD"/>
<path d="M64.1756 365.942C71.0033 365.942 76.5382 360.4 76.5382 353.563C76.5382 346.726 71.0033 341.184 64.1756 341.184C57.3479 341.184 51.813 346.726 51.813 353.563C51.813 360.4 57.3479 365.942 64.1756 365.942Z" fill="#D5DDFD"/>
<path d="M521.253 478.566C522.826 471.032 518.002 463.647 510.477 462.071C502.953 460.496 495.578 465.327 494.005 472.861C492.431 480.396 497.256 487.781 504.78 489.356C512.304 490.931 519.679 486.101 521.253 478.566Z" fill="#D5DDFD"/>
</g>
<g clip-path="url(#clip1_2001_677)">
<path d="M506.458 92.896H505.992V44.2198C505.992 28.0852 492.907 15 476.772 15H299.643C283.509 15 270.423 28.0852 270.423 44.2198V92.896H269.958C267.849 92.896 266.144 94.6009 266.144 96.71V130.376C266.144 132.486 267.849 134.19 269.958 134.19H270.423V142.223H269.958C267.849 142.223 266.144 143.927 266.144 146.036V179.703C266.144 181.812 267.849 183.517 269.958 183.517H270.423V478.386C270.423 494.521 283.509 507.606 299.643 507.606H476.772C492.907 507.606 505.992 494.521 505.992 478.386V154.842H506.458C508.567 154.842 510.272 153.137 510.272 151.028V96.71C510.272 94.6009 508.567 92.896 506.458 92.896Z" fill="#333343"/>
<path d="M473.758 22.2236H302.666C289.557 22.2236 278.93 32.8507 278.93 45.9598V476.646C278.93 489.755 289.557 500.383 302.666 500.383H473.758C486.867 500.383 497.494 489.755 497.494 476.646V45.9598C497.494 32.8507 486.867 22.2236 473.758 22.2236Z" fill="white"/>
<path d="M463.037 413.119H313.37C310.473 413.119 308.124 415.467 308.124 418.365V439.869C308.124 442.766 310.473 445.115 313.37 445.115H463.037C465.934 445.115 468.283 442.766 468.283 439.869V418.365C468.283 415.467 465.934 413.119 463.037 413.119Z" fill="#5264AE"/>
<path d="M388.208 355.118C404.831 355.118 418.306 341.643 418.306 325.02C418.306 308.397 404.831 294.921 388.208 294.921C371.585 294.921 358.109 308.397 358.109 325.02C358.109 341.643 371.585 355.118 388.208 355.118Z" fill="#84C98B"/>
<path d="M461.024 125.851L315.216 126.105C310.449 126.114 306.593 129.984 306.601 134.75L306.747 218.297C306.755 223.063 310.625 226.92 315.391 226.911L461.2 226.657C465.966 226.648 469.823 222.778 469.815 218.012L469.669 134.465C469.661 129.699 465.79 125.842 461.024 125.851Z" fill="#5264AE"/>
<path d="M347.239 197.331C347.133 197.384 347.019 197.419 346.887 197.419L323.608 197.463C323.186 197.463 322.843 197.121 322.843 196.699C322.843 196.277 323.186 195.934 323.608 195.934L346.887 195.89C347.309 195.89 347.652 196.233 347.652 196.655C347.652 196.954 347.485 197.208 347.239 197.331Z" fill="white"/>
<path d="M382.566 197.27C382.461 197.323 382.346 197.358 382.215 197.358L358.935 197.402C358.514 197.402 358.171 197.059 358.171 196.637C358.171 196.215 358.514 195.873 358.935 195.873L382.215 195.829C382.636 195.829 382.979 196.171 382.979 196.593C382.979 196.892 382.812 197.147 382.566 197.27Z" fill="white"/>
<path d="M417.893 197.208C417.788 197.261 417.674 197.296 417.542 197.296L394.263 197.34C393.841 197.34 393.498 196.998 393.498 196.576C393.498 196.154 393.841 195.811 394.263 195.811L417.542 195.767C417.964 195.767 418.306 196.11 418.306 196.532C418.306 196.831 418.139 197.085 417.893 197.208Z" fill="white"/>
<path d="M453.23 197.147C453.124 197.2 453.01 197.235 452.878 197.235L429.599 197.279C429.177 197.279 428.834 196.936 428.834 196.514C428.834 196.092 429.177 195.75 429.599 195.75L452.878 195.706C453.3 195.706 453.643 196.048 453.643 196.47C453.643 196.769 453.476 197.024 453.23 197.147Z" fill="white"/>
<path d="M325.603 203.096V208.325H324.873V203.747H323.687V203.096H325.603Z" fill="white"/>
<path d="M330.419 207.657V208.308H326.666V207.798L328.793 205.742C329.346 205.205 329.452 204.872 329.452 204.546C329.452 204.01 329.065 203.685 328.336 203.685C327.773 203.685 327.316 203.87 327 204.256L326.49 203.817C326.895 203.316 327.589 203.026 328.397 203.026C329.487 203.026 330.19 203.58 330.19 204.476C330.19 204.986 330.041 205.443 329.338 206.119L327.738 207.657H330.419Z" fill="white"/>
<path d="M334.927 202.015H335.577L333.125 209.055H332.475L334.927 202.015Z" fill="white"/>
<path d="M341.351 207.64V208.29H337.598V207.78L339.725 205.724C340.279 205.188 340.384 204.854 340.384 204.529C340.384 203.993 339.997 203.668 339.268 203.668C338.706 203.668 338.249 203.852 337.932 204.239L337.423 203.799C337.827 203.298 338.521 203.008 339.329 203.008C340.419 203.008 341.122 203.562 341.122 204.458C341.122 204.968 340.973 205.425 340.27 206.102L338.67 207.64H341.351Z" fill="white"/>
<path d="M346.369 206.998H345.376V208.281H344.655V206.998H341.755V206.48L344.418 203.052H345.226L342.669 206.357H344.681V205.214H345.384V206.348H346.377V206.989L346.369 206.998Z" fill="white"/>
<path d="M331.113 156.309C331.517 155.396 332.387 154.745 333.424 154.657V152.865H328.503V156.309H331.113Z" fill="white"/>
<path d="M328.019 152.865H325.884C324.583 152.865 323.538 153.928 323.538 155.22V156.318H328.028V152.873L328.019 152.865Z" fill="white"/>
<path d="M330.876 160.246C330.876 159.737 331.016 159.262 331.253 158.849C331.016 158.436 330.876 157.962 330.876 157.452C330.876 157.223 330.902 157.013 330.955 156.802H328.52L328.529 161.943H331.456C331.104 161.468 330.884 160.888 330.884 160.255L330.876 160.246Z" fill="white"/>
<path d="M336.236 156.301H338.284V152.847H333.925V154.649C334.962 154.736 335.832 155.387 336.245 156.292L336.236 156.301Z" fill="white"/>
<path d="M339.4 156.784H336.403C336.456 156.995 336.482 157.215 336.482 157.443C336.482 157.953 336.342 158.427 336.104 158.84C336.342 159.253 336.482 159.728 336.482 160.238C336.482 161.705 335.366 162.909 333.925 163.032V163.718H338.293H338.539H339.409V156.793L339.4 156.784Z" fill="white"/>
<path d="M328.038 156.806L323.548 156.813L323.557 161.945L328.047 161.938L328.038 156.806Z" fill="white"/>
<path d="M333.688 162.558C334.962 162.558 335.999 161.512 335.999 160.238C335.999 159.833 335.893 159.438 335.683 159.078L335.542 158.832L335.683 158.586C335.885 158.234 335.99 157.83 335.99 157.426C335.99 156.151 334.944 155.114 333.67 155.114C332.396 155.114 331.359 156.16 331.359 157.434C331.359 157.839 331.464 158.234 331.675 158.594L331.816 158.84L331.675 159.087C331.473 159.438 331.368 159.842 331.368 160.247C331.368 161.521 332.413 162.558 333.688 162.558Z" fill="white"/>
<path d="M343.812 156.769L339.884 156.776L339.896 163.701L343.824 163.694L343.812 156.769Z" fill="white"/>
<path d="M338.785 167.83H341.474C342.774 167.83 343.82 166.767 343.82 165.475V164.192H338.776V167.83H338.785Z" fill="white"/>
<path d="M341.447 152.847H338.758V156.301H343.803V155.193C343.803 153.893 342.748 152.847 341.447 152.847Z" fill="white"/>
<path d="M323.546 162.435V165.51C323.546 166.811 324.61 167.857 325.902 167.857H328.037L328.028 162.426H323.538L323.546 162.435Z" fill="white"/>
<path d="M338.289 164.196L333.93 164.203L333.936 167.842L338.295 167.834L338.289 164.196Z" fill="white"/>
<path d="M331.912 162.417H328.52L328.529 167.848H333.442V163.032C332.862 162.98 332.343 162.76 331.912 162.417Z" fill="white"/>
<path d="M323.529 188.166L323.959 187.656C324.241 188.06 324.61 188.271 325.049 188.271C325.638 188.271 325.945 187.911 325.945 187.208V184.273H324.047V183.622H326.675V187.173C326.675 188.341 326.112 188.913 325.049 188.913C324.425 188.913 323.863 188.649 323.529 188.157V188.166Z" fill="white"/>
<path d="M327.738 186.874C327.738 185.696 328.608 184.853 329.795 184.853C330.981 184.853 331.851 185.687 331.851 186.865C331.851 188.043 330.99 188.886 329.803 188.895C328.617 188.904 327.738 188.051 327.738 186.874ZM331.13 186.874C331.13 186.03 330.559 185.485 329.795 185.485C329.03 185.485 328.459 186.03 328.459 186.874C328.459 187.717 329.039 188.271 329.795 188.271C330.55 188.271 331.122 187.717 331.122 186.874H331.13Z" fill="white"/>
<path d="M336.596 186.566V188.842H335.885V186.645C335.885 185.872 335.489 185.485 334.812 185.494C334.048 185.494 333.556 185.951 333.565 186.812V188.851H332.853V183.315H333.556V185.459C333.855 185.081 334.347 184.861 334.953 184.861C335.92 184.861 336.596 185.415 336.596 186.575V186.566Z" fill="white"/>
<path d="M341.685 186.557V188.833H340.973V186.636C340.973 185.863 340.577 185.476 339.901 185.485C339.136 185.485 338.644 185.942 338.653 186.803V188.842H337.941V184.888H338.618V185.485C338.908 185.081 339.417 184.853 340.041 184.844C341.008 184.844 341.685 185.397 341.685 186.557Z" fill="white"/>
<path d="M345.121 183.596H347.326C349.005 183.596 350.147 184.65 350.156 186.197C350.156 187.753 349.023 188.816 347.335 188.816H345.129L345.121 183.596ZM347.283 188.166C348.574 188.166 349.4 187.375 349.4 186.197C349.4 185.028 348.566 184.237 347.274 184.237H345.859V188.166H347.274H347.283Z" fill="white"/>
<path d="M350.824 186.839C350.824 185.661 351.694 184.817 352.88 184.817C354.067 184.817 354.937 185.652 354.937 186.83C354.937 188.007 354.076 188.851 352.889 188.86C351.703 188.86 350.824 188.016 350.824 186.839ZM354.216 186.839C354.216 185.995 353.645 185.45 352.88 185.45C352.116 185.45 351.545 185.995 351.545 186.839C351.545 187.682 352.125 188.236 352.88 188.236C353.636 188.236 354.207 187.682 354.207 186.839H354.216Z" fill="white"/>
<path d="M359.489 187.058H356.281C356.369 187.761 356.932 188.218 357.714 188.218C358.18 188.218 358.566 188.06 358.856 187.735L359.252 188.201C358.891 188.623 358.347 188.842 357.696 188.842C356.422 188.842 355.57 187.999 355.561 186.821C355.552 185.643 356.404 184.8 357.547 184.8C358.689 184.8 359.506 185.617 359.506 186.839C359.506 186.9 359.507 186.988 359.489 187.058ZM356.281 186.549H358.821C358.742 185.881 358.241 185.406 357.547 185.415C356.853 185.424 356.352 185.881 356.281 186.549Z" fill="white"/>
<path d="M333.371 83.5369H302.508C301.339 83.5369 300.39 82.5878 300.39 81.419C300.39 80.2502 301.339 79.3011 302.508 79.3011H333.371C334.54 79.3011 335.489 80.2502 335.489 81.419C335.489 82.5878 334.54 83.5369 333.371 83.5369Z" fill="#333343"/>
<path d="M380.22 83.5369H349.356C348.188 83.5369 347.239 82.5878 347.239 81.419C347.239 80.2502 348.188 79.3011 349.356 79.3011H380.22C381.388 79.3011 382.337 80.2502 382.337 81.419C382.337 82.5878 381.388 83.5369 380.22 83.5369Z" fill="#333343"/>
<path d="M427.068 83.5369H396.205C395.036 83.5369 394.087 82.5878 394.087 81.419C394.087 80.2502 395.036 79.3011 396.205 79.3011H427.068C428.237 79.3011 429.186 80.2502 429.186 81.419C429.186 82.5878 428.237 83.5369 427.068 83.5369Z" fill="#333343"/>
<path d="M473.916 83.5369H443.053C441.884 83.5369 440.935 82.5878 440.935 81.419C440.935 80.2502 441.884 79.3011 443.053 79.3011H473.916C475.085 79.3011 476.034 80.2502 476.034 81.419C476.034 82.5878 475.085 83.5369 473.916 83.5369Z" fill="#333343"/>
<path d="M388.208 349.433C401.691 349.433 412.621 338.503 412.621 325.02C412.621 311.537 401.691 300.607 388.208 300.607C374.725 300.607 363.795 311.537 363.795 325.02C363.795 338.503 374.725 349.433 388.208 349.433Z" fill="#99CF90"/>
<path d="M388.208 342.719C397.983 342.719 405.907 334.795 405.907 325.02C405.907 315.245 397.983 307.321 388.208 307.321C378.433 307.321 370.509 315.245 370.509 325.02C370.509 334.795 378.433 342.719 388.208 342.719Z" fill="#A9D7AE"/>
<path d="M377.17 326.479L383.559 332.867L399.245 317.181" stroke="white" stroke-width="2.42" stroke-linecap="round" stroke-linejoin="round"/>
<path d="M371.933 430.87C371.933 432.048 371.063 432.724 369.323 432.724H366.124V425.782H369.12C370.667 425.782 371.564 426.441 371.564 427.566C371.564 428.357 371.133 428.884 370.5 429.139C371.397 429.341 371.933 429.921 371.933 430.861V430.87ZM366.862 426.388V428.91H369.077C370.184 428.91 370.834 428.48 370.834 427.654C370.834 426.828 370.193 426.397 369.077 426.397H366.862V426.388ZM371.194 430.817C371.194 429.912 370.527 429.517 369.305 429.517H366.853V432.127H369.305C370.527 432.127 371.194 431.731 371.194 430.817Z" fill="white"/>
<path d="M378.005 430.334H373.638C373.717 431.424 374.551 432.153 375.694 432.153C376.327 432.153 376.898 431.925 377.293 431.468L377.689 431.925C377.223 432.478 376.502 432.777 375.676 432.777C374.051 432.777 372.934 431.67 372.934 430.114C372.934 428.559 374.015 427.469 375.483 427.469C376.951 427.469 378.014 428.55 378.014 430.114C378.014 430.176 378.005 430.255 378.005 430.334ZM373.638 429.807H377.337C377.249 428.787 376.502 428.067 375.483 428.067C374.464 428.067 373.725 428.779 373.638 429.807Z" fill="white"/>
<path d="M383.076 432.144V432.733H378.831V432.267L382.118 428.111H378.893V427.513H383.023V427.979L379.736 432.144H383.084H383.076Z" fill="white"/>
<path d="M388.401 429.49V432.724H387.725V431.907C387.408 432.443 386.793 432.768 385.932 432.768C384.754 432.768 384.025 432.153 384.025 431.248C384.025 430.44 384.543 429.772 386.037 429.772H387.698V429.455C387.698 428.559 387.188 428.076 386.222 428.076C385.545 428.076 384.912 428.313 384.482 428.691L384.165 428.163C384.693 427.715 385.466 427.46 386.292 427.46C387.645 427.46 388.41 428.137 388.41 429.482L388.401 429.49ZM387.698 431.16V430.308H386.064C385.053 430.308 384.728 430.703 384.728 431.239C384.728 431.846 385.211 432.223 386.046 432.223C386.881 432.223 387.426 431.846 387.707 431.16H387.698Z" fill="white"/>
<path d="M395.115 429.701V432.724H394.412V429.763C394.412 428.664 393.841 428.093 392.848 428.093C391.723 428.093 391.02 428.787 391.02 429.983V432.724H390.317V425.36H391.02V428.418C391.407 427.812 392.092 427.469 392.971 427.469C394.245 427.469 395.115 428.207 395.115 429.701Z" fill="white"/>
<path d="M397.031 425.369H397.734V432.733H397.031V425.369Z" fill="white"/>
<path d="M404.246 430.334H399.878C399.957 431.424 400.792 432.153 401.935 432.153C402.567 432.153 403.138 431.925 403.534 431.468L403.929 431.925C403.464 432.478 402.743 432.777 401.917 432.777C400.291 432.777 399.175 431.67 399.175 430.114C399.175 428.559 400.256 427.469 401.724 427.469C403.191 427.469 404.255 428.55 404.255 430.114C404.255 430.176 404.246 430.255 404.246 430.334ZM399.878 429.807H403.578C403.49 428.787 402.743 428.067 401.724 428.067C400.704 428.067 399.966 428.779 399.878 429.807Z" fill="white"/>
<path d="M410.494 429.701V432.724H409.791V429.763C409.791 428.664 409.22 428.093 408.227 428.093C407.102 428.093 406.399 428.787 406.399 429.983V432.724H405.696V427.504H406.372V428.471C406.75 427.838 407.453 427.469 408.359 427.469C409.633 427.469 410.503 428.207 410.503 429.701H410.494Z" fill="white"/>
<path d="M374.314 150.281H373.848V101.605C373.848 85.4702 360.763 72.385 344.629 72.385H167.5C151.365 72.385 138.28 85.4702 138.28 101.605V150.281H137.814C135.705 150.281 134 151.986 134 154.095V187.761C134 189.871 135.705 191.575 137.814 191.575H138.28V199.608H137.814C135.705 199.608 134 201.312 134 203.422V237.088C134 239.197 135.705 240.902 137.814 240.902H138.28V535.771C138.28 551.906 151.365 564.991 167.5 564.991H344.629C360.763 564.991 373.848 551.906 373.848 535.771V212.236H374.314C376.423 212.236 378.128 210.531 378.128 208.422V154.104C378.128 151.995 376.423 150.29 374.314 150.29V150.281Z" fill="#333343"/>
<path d="M341.614 79.6174H170.523C157.413 79.6174 146.786 90.2445 146.786 103.354V534.04C146.786 547.149 157.413 557.776 170.523 557.776H341.614C354.723 557.776 365.35 547.149 365.35 534.04V103.354C365.35 90.2445 354.723 79.6174 341.614 79.6174Z" fill="white"/>
<path d="M256.75 377.607C289.287 377.607 315.664 351.23 315.664 318.693C315.664 286.155 289.287 259.778 256.75 259.778C224.212 259.778 197.835 286.155 197.835 318.693C197.835 351.23 224.212 377.607 256.75 377.607Z" fill="#D5DDFD"/>
<path d="M256.064 358.994C278.322 358.994 296.365 340.95 296.365 318.693C296.365 296.435 278.322 278.391 256.064 278.391C233.806 278.391 215.763 296.435 215.763 318.693C215.763 340.95 233.806 358.994 256.064 358.994Z" fill="#F0F3FF"/>
<path d="M222.749 275.069H187.044C184.413 275.069 182.281 277.202 182.281 279.832V354.899C182.281 357.529 184.413 359.662 187.044 359.662H222.749C225.38 359.662 227.512 357.529 227.512 354.899V279.832C227.512 277.202 225.38 275.069 222.749 275.069Z" fill="white"/>
<path d="M222.749 360.576H187.044C183.915 360.576 181.367 358.027 181.367 354.899V279.841C181.367 276.713 183.915 274.164 187.044 274.164H222.749C225.878 274.164 228.426 276.713 228.426 279.841V354.899C228.426 358.027 225.878 360.576 222.749 360.576ZM187.044 275.983C184.926 275.983 183.195 277.706 183.195 279.832V354.89C183.195 357.008 184.917 358.739 187.044 358.739H222.749C224.867 358.739 226.598 357.017 226.598 354.89V279.832C226.598 277.714 224.876 275.983 222.749 275.983H187.044Z" fill="#5264AE"/>
<path d="M210.648 279.85H199.154C198.644 279.85 198.24 279.437 198.24 278.936C198.24 278.435 198.653 278.022 199.154 278.022H210.648C211.158 278.022 211.562 278.435 211.562 278.936C211.562 279.437 211.149 279.85 210.648 279.85Z" fill="#5264AE"/>
<path d="M204.901 356.314C205.755 356.314 206.448 355.621 206.448 354.767C206.448 353.913 205.755 353.22 204.901 353.22C204.047 353.22 203.354 353.913 203.354 354.767C203.354 355.621 204.047 356.314 204.901 356.314Z" fill="#474747"/>
<path d="M204.901 357.228C203.547 357.228 202.44 356.12 202.44 354.767C202.44 353.414 203.547 352.306 204.901 352.306C206.254 352.306 207.361 353.414 207.361 354.767C207.361 356.12 206.254 357.228 204.901 357.228ZM204.901 354.143C204.558 354.143 204.277 354.424 204.277 354.767C204.277 355.11 204.558 355.391 204.901 355.391C205.244 355.391 205.525 355.11 205.525 354.767C205.525 354.424 205.244 354.143 204.901 354.143Z" fill="#5264AE"/>
<path d="M325.084 275.069H289.379C286.748 275.069 284.616 277.202 284.616 279.832V354.899C284.616 357.529 286.748 359.662 289.379 359.662H325.084C327.715 359.662 329.847 357.529 329.847 354.899V279.832C329.847 277.202 327.715 275.069 325.084 275.069Z" fill="white"/>
<path d="M325.084 360.576H289.379C286.251 360.576 283.702 358.027 283.702 354.899V279.841C283.702 276.713 286.251 274.164 289.379 274.164H325.084C328.213 274.164 330.761 276.713 330.761 279.841V354.899C330.761 358.027 328.213 360.576 325.084 360.576ZM289.379 275.983C287.261 275.983 285.53 277.706 285.53 279.832V354.89C285.53 357.008 287.252 358.739 289.379 358.739H325.084C327.202 358.739 328.933 357.017 328.933 354.89V279.832C328.933 277.714 327.211 275.983 325.084 275.983H289.379Z" fill="#5264AE"/>
<path d="M312.975 279.85H301.48C300.97 279.85 300.566 279.437 300.566 278.936C300.566 278.435 300.979 278.022 301.48 278.022H312.975C313.484 278.022 313.888 278.435 313.888 278.936C313.888 279.437 313.475 279.85 312.975 279.85Z" fill="#5264AE"/>
<path d="M307.227 356.314C308.081 356.314 308.774 355.621 308.774 354.767C308.774 353.913 308.081 353.22 307.227 353.22C306.373 353.22 305.681 353.913 305.681 354.767C305.681 355.621 306.373 356.314 307.227 356.314Z" fill="#474747"/>
<path d="M307.227 357.228C305.874 357.228 304.767 356.12 304.767 354.767C304.767 353.414 305.874 352.306 307.227 352.306C308.581 352.306 309.688 353.414 309.688 354.767C309.688 356.12 308.581 357.228 307.227 357.228ZM307.227 354.143C306.885 354.143 306.603 354.424 306.603 354.767C306.603 355.11 306.885 355.391 307.227 355.391C307.57 355.391 307.851 355.11 307.851 354.767C307.851 354.424 307.57 354.143 307.227 354.143Z" fill="#5264AE"/>
<path d="M201.219 146.168H170.356C169.187 146.168 168.238 145.219 168.238 144.05C168.238 142.882 169.187 141.932 170.356 141.932H201.219C202.387 141.932 203.337 142.882 203.337 144.05C203.337 145.219 202.387 146.168 201.219 146.168Z" fill="#333343"/>
<path d="M248.076 146.168H217.213C216.044 146.168 215.095 145.219 215.095 144.05C215.095 142.882 216.044 141.932 217.213 141.932H248.076C249.245 141.932 250.194 142.882 250.194 144.05C250.194 145.219 249.245 146.168 248.076 146.168Z" fill="#333343"/>
<path d="M294.924 146.168H264.061C262.892 146.168 261.943 145.219 261.943 144.05C261.943 142.882 262.892 141.932 264.061 141.932H294.924C296.093 141.932 297.042 142.882 297.042 144.05C297.042 145.219 296.093 146.168 294.924 146.168Z" fill="#333343"/>
<path d="M341.772 146.168H310.909C309.741 146.168 308.791 145.219 308.791 144.05C308.791 142.882 309.741 141.932 310.909 141.932H341.772C342.941 141.932 343.89 142.882 343.89 144.05C343.89 145.219 342.941 146.168 341.772 146.168Z" fill="#333343"/>
<path d="M235.175 188.754V190.266H226.958V189.071L232.627 182.146H227.055V180.634H234.999V181.83L229.331 188.754H235.184H235.175Z" fill="#333343"/>
<path d="M242.829 185.96V190.266H241.204V189.37C240.791 190.002 239.991 190.363 238.892 190.363C237.214 190.363 236.151 189.44 236.151 188.157C236.151 186.874 236.977 185.969 239.209 185.969H241.107V185.854C241.107 184.853 240.501 184.255 239.279 184.255C238.453 184.255 237.601 184.527 237.047 184.984L236.37 183.728C237.152 183.121 238.295 182.823 239.481 182.823C241.599 182.823 242.829 183.824 242.829 185.951V185.96ZM241.107 187.972V187.12H239.332C238.163 187.12 237.847 187.559 237.847 188.095C237.847 188.711 238.374 189.115 239.253 189.115C240.132 189.115 240.826 188.728 241.107 187.972Z" fill="#333343"/>
<path d="M252.268 186.057V190.266H250.545V186.276C250.545 184.967 249.895 184.334 248.796 184.334C247.575 184.334 246.749 185.081 246.749 186.549V190.266H245.026V180.054H246.749V183.772C247.311 183.165 248.181 182.831 249.201 182.831C250.967 182.831 252.268 183.833 252.268 186.057Z" fill="#333343"/>
<path d="M254.456 180.054H256.178V190.266H254.456V180.054Z" fill="#333343"/>
<path d="M265.555 182.911V190.257H263.92V189.317C263.367 189.994 262.506 190.345 261.556 190.345C259.667 190.345 258.393 189.317 258.393 187.094V182.893H260.115V186.856C260.115 188.192 260.748 188.825 261.838 188.825C263.033 188.825 263.85 188.078 263.85 186.61V182.893H265.573L265.555 182.911Z" fill="#333343"/>
<path d="M275.055 186.057V190.266H273.332V186.276C273.332 184.967 272.682 184.334 271.583 184.334C270.362 184.334 269.536 185.081 269.536 186.549V190.266H267.813V182.919H269.448V183.868C270.01 183.192 270.907 182.84 271.979 182.84C273.745 182.84 275.046 183.842 275.046 186.065L275.055 186.057Z" fill="#333343"/>
<path d="M284.607 182.911V189.15C284.607 191.821 283.219 193.034 280.644 193.034C279.264 193.034 277.902 192.674 277.067 191.988L277.84 190.697C278.491 191.233 279.537 191.575 280.556 191.575C282.182 191.575 282.894 190.828 282.894 189.343V188.957C282.287 189.616 281.417 189.932 280.433 189.932C278.324 189.932 276.716 188.5 276.716 186.364C276.716 184.229 278.324 182.823 280.433 182.823C281.461 182.823 282.375 183.157 282.981 183.886V182.911H284.616H284.607ZM282.911 186.364C282.911 185.125 281.971 184.281 280.679 184.281C279.387 184.281 278.438 185.125 278.438 186.364C278.438 187.603 279.378 188.473 280.679 188.473C281.98 188.473 282.911 187.621 282.911 186.364Z" fill="#333343"/>
<path d="M176.771 213.993C176.771 215.083 175.962 215.707 174.354 215.707H171.401V209.283H174.17C175.602 209.283 176.428 209.889 176.428 210.935C176.428 211.673 176.033 212.157 175.444 212.394C176.27 212.579 176.762 213.115 176.762 213.993H176.771ZM172.078 209.846V212.174H174.126C175.154 212.174 175.751 211.779 175.751 211.006C175.751 210.232 175.154 209.837 174.126 209.837H172.078V209.846ZM176.085 213.941C176.085 213.106 175.47 212.737 174.345 212.737H172.078V215.153H174.345C175.47 215.153 176.085 214.784 176.085 213.941Z" fill="#333343"/>
<path d="M182.386 213.501H178.353C178.423 214.512 179.196 215.18 180.251 215.18C180.84 215.18 181.358 214.969 181.727 214.547L182.096 214.969C181.666 215.479 180.998 215.76 180.233 215.76C178.73 215.76 177.702 214.732 177.702 213.299C177.702 211.867 178.704 210.847 180.057 210.847C181.411 210.847 182.395 211.849 182.395 213.299C182.395 213.352 182.386 213.431 182.386 213.501ZM178.353 213.018H181.771C181.692 212.069 180.998 211.41 180.057 211.41C179.117 211.41 178.432 212.069 178.353 213.018Z" fill="#333343"/>
<path d="M186.271 215.417C186.016 215.646 185.629 215.76 185.251 215.76C184.346 215.76 183.836 215.25 183.836 214.354V211.436H182.975V210.882H183.836V209.828H184.487V210.882H185.954V211.436H184.487V214.319C184.487 214.89 184.777 215.197 185.321 215.197C185.585 215.197 185.857 215.118 186.033 214.951L186.262 215.417H186.271Z" fill="#333343"/>
<path d="M189.882 210.847V211.48C189.83 211.48 189.768 211.471 189.724 211.471C188.714 211.471 188.098 212.113 188.098 213.255V215.716H187.448V210.891H188.072V211.84C188.371 211.199 188.986 210.856 189.882 210.856V210.847Z" fill="#333343"/>
<path d="M194.698 212.719V215.707H194.074V214.951C193.784 215.443 193.213 215.751 192.413 215.751C191.324 215.751 190.656 215.18 190.656 214.345C190.656 213.598 191.13 212.974 192.519 212.974H194.048V212.684C194.048 211.858 193.582 211.41 192.677 211.41C192.053 211.41 191.464 211.629 191.069 211.981L190.779 211.498C191.262 211.085 191.983 210.847 192.738 210.847C193.986 210.847 194.689 211.471 194.689 212.719H194.698ZM194.048 214.257V213.466H192.536C191.596 213.466 191.297 213.835 191.297 214.327C191.297 214.89 191.745 215.233 192.519 215.233C193.292 215.233 193.793 214.881 194.048 214.248V214.257Z" fill="#333343"/>
<path d="M200.955 210.883V215.118C200.955 216.779 200.138 217.535 198.538 217.535C197.66 217.535 196.798 217.271 196.289 216.788L196.623 216.296C197.08 216.709 197.783 216.955 198.521 216.955C199.742 216.955 200.305 216.393 200.305 215.206V214.591C199.901 215.206 199.215 215.531 198.424 215.531C197.044 215.531 195.999 214.565 195.999 213.185C195.999 211.805 197.044 210.856 198.424 210.856C199.233 210.856 199.927 211.19 200.331 211.823V210.9H200.955V210.883ZM200.322 213.176C200.322 212.13 199.549 211.419 198.486 211.419C197.422 211.419 196.658 212.13 196.658 213.176C196.658 214.222 197.422 214.951 198.486 214.951C199.549 214.951 200.322 214.231 200.322 213.176Z" fill="#333343"/>
<path d="M206.984 213.501H202.95C203.02 214.512 203.794 215.18 204.848 215.18C205.437 215.18 205.955 214.969 206.325 214.547L206.694 214.969C206.263 215.479 205.595 215.76 204.831 215.76C203.328 215.76 202.3 214.732 202.3 213.299C202.3 211.867 203.301 210.847 204.655 210.847C206.008 210.847 206.992 211.849 206.992 213.299C206.992 213.352 206.984 213.431 206.984 213.501ZM202.95 213.018H206.368C206.289 212.069 205.595 211.41 204.655 211.41C203.715 211.41 203.029 212.069 202.95 213.018Z" fill="#333343"/>
<path d="M292.622 215.118V215.707H288.078V209.283H292.481V209.872H288.755V212.157H292.077V212.737H288.755V215.118H292.622Z" fill="#333343"/>
<path d="M298.36 210.882V215.707H297.736V214.828C297.394 215.417 296.77 215.751 296.005 215.751C294.775 215.751 293.966 215.065 293.966 213.677V210.882H294.617V213.615C294.617 214.644 295.153 215.162 296.067 215.162C297.077 215.162 297.71 214.512 297.71 213.413V210.882H298.36Z" fill="#333343"/>
<path d="M302.614 210.847V211.48C302.561 211.48 302.499 211.471 302.455 211.471C301.445 211.471 300.83 212.113 300.83 213.255V215.716H300.179V210.891H300.803V211.84C301.102 211.199 301.717 210.856 302.614 210.856V210.847Z" fill="#333343"/>
<path d="M303.457 211.339C303.457 211.058 303.677 210.847 303.941 210.847C304.204 210.847 304.433 211.058 304.433 211.339C304.433 211.621 304.204 211.84 303.941 211.84C303.677 211.84 303.457 211.621 303.457 211.339ZM303.457 215.25C303.457 214.969 303.677 214.758 303.941 214.758C304.204 214.758 304.433 214.969 304.433 215.25C304.433 215.531 304.204 215.751 303.941 215.751C303.677 215.751 303.457 215.531 303.457 215.25Z" fill="#333343"/>
<path d="M309.582 209.283V215.707H308.923V209.872H307.412V209.283H309.582Z" fill="#333343"/>
<path d="M311.112 212.499C311.112 210.452 312.184 209.23 313.669 209.23C315.154 209.23 316.235 210.452 316.235 212.499C316.235 214.547 315.154 215.769 313.669 215.769C312.184 215.769 311.112 214.547 311.112 212.499ZM315.558 212.499C315.558 210.786 314.785 209.837 313.669 209.837C312.553 209.837 311.779 210.786 311.779 212.499C311.779 214.213 312.553 215.162 313.669 215.162C314.785 215.162 315.558 214.213 315.558 212.499Z" fill="#333343"/>
<path d="M317.193 212.499C317.193 210.452 318.265 209.23 319.75 209.23C321.235 209.23 322.316 210.452 322.316 212.499C322.316 214.547 321.235 215.769 319.75 215.769C318.265 215.769 317.193 214.547 317.193 212.499ZM321.639 212.499C321.639 210.786 320.866 209.837 319.75 209.837C318.634 209.837 317.861 210.786 317.861 212.499C317.861 214.213 318.634 215.162 319.75 215.162C320.866 215.162 321.639 214.213 321.639 212.499Z" fill="#333343"/>
<path d="M323.177 215.25C323.177 214.969 323.397 214.758 323.661 214.758C323.924 214.758 324.153 214.969 324.153 215.25C324.153 215.531 323.924 215.751 323.661 215.751C323.397 215.751 323.177 215.531 323.177 215.25Z" fill="#333343"/>
<path d="M325.014 212.499C325.014 210.452 326.086 209.23 327.571 209.23C329.056 209.23 330.137 210.452 330.137 212.499C330.137 214.547 329.056 215.769 327.571 215.769C326.086 215.769 325.014 214.547 325.014 212.499ZM329.461 212.499C329.461 210.786 328.687 209.837 327.571 209.837C326.455 209.837 325.682 210.786 325.682 212.499C325.682 214.213 326.455 215.162 327.571 215.162C328.687 215.162 329.461 214.213 329.461 212.499Z" fill="#333343"/>
<path d="M331.086 212.499C331.086 210.452 332.159 209.23 333.644 209.23C335.129 209.23 336.21 210.452 336.21 212.499C336.21 214.547 335.129 215.769 333.644 215.769C332.159 215.769 331.086 214.547 331.086 212.499ZM335.533 212.499C335.533 210.786 334.76 209.837 333.644 209.837C332.528 209.837 331.754 210.786 331.754 212.499C331.754 214.213 332.528 215.162 333.644 215.162C334.76 215.162 335.533 214.213 335.533 212.499Z" fill="#333343"/>
<path d="M338.714 223.247H167.561C165.329 223.247 163.51 221.428 163.51 219.196V204.933C163.51 202.701 165.329 200.882 167.561 200.882H338.714C340.946 200.882 342.766 202.701 342.766 204.933V219.196C342.766 221.428 340.946 223.247 338.714 223.247ZM167.561 201.119C165.452 201.119 163.738 202.833 163.738 204.942V219.205C163.738 221.314 165.452 223.027 167.561 223.027H338.714C340.823 223.027 342.537 221.314 342.537 219.205V204.942C342.537 202.833 340.823 201.119 338.714 201.119H167.561Z" fill="#333343"/>
<path d="M251.978 407.187H172.86C170.851 407.187 169.222 408.816 169.222 410.825V432.065C169.222 434.075 170.851 435.704 172.86 435.704H251.978C253.987 435.704 255.616 434.075 255.616 432.065V410.825C255.616 408.816 253.987 407.187 251.978 407.187Z" fill="#5264AE"/>
<path d="M342.968 436.275H263.841C261.521 436.275 259.632 434.385 259.632 432.065V410.825C259.632 408.505 261.521 406.616 263.841 406.616H342.968C345.288 406.616 347.177 408.505 347.177 410.825V432.065C347.177 434.385 345.288 436.275 342.968 436.275ZM263.841 407.758C262.154 407.758 260.774 409.129 260.774 410.825V432.065C260.774 433.753 262.145 435.132 263.841 435.132H342.968C344.655 435.132 346.035 433.761 346.035 432.065V410.825C346.035 409.138 344.664 407.758 342.968 407.758H263.841Z" fill="#5264AE"/>
<path d="M189.707 423.638L190.049 422.926C190.524 423.357 191.341 423.673 192.167 423.673C193.274 423.673 193.758 423.242 193.758 422.68C193.758 421.107 189.865 422.1 189.865 419.718C189.865 418.725 190.638 417.882 192.325 417.882C193.081 417.882 193.854 418.084 194.391 418.453L194.092 419.191C193.529 418.831 192.897 418.664 192.334 418.664C191.244 418.664 190.77 419.121 190.77 419.683C190.77 421.256 194.663 420.272 194.663 422.627C194.663 423.611 193.872 424.455 192.176 424.455C191.192 424.455 190.234 424.121 189.715 423.647L189.707 423.638Z" fill="white"/>
<path d="M195.41 421.942C195.41 420.492 196.482 419.464 197.976 419.464C198.846 419.464 199.575 419.824 199.962 420.5L199.294 420.931C198.978 420.457 198.503 420.237 197.976 420.237C197.018 420.237 196.306 420.905 196.306 421.942C196.306 422.979 197.018 423.655 197.976 423.655C198.512 423.655 198.987 423.436 199.294 422.961L199.962 423.383C199.575 424.06 198.855 424.429 197.976 424.429C196.482 424.429 195.41 423.392 195.41 421.942Z" fill="white"/>
<path d="M204.954 421.432V424.367H204.119V423.726C203.829 424.165 203.284 424.42 202.519 424.42C201.421 424.42 200.718 423.831 200.718 422.987C200.718 422.205 201.219 421.564 202.669 421.564H204.066V421.388C204.066 420.641 203.635 420.21 202.765 420.21C202.185 420.21 201.597 420.413 201.228 420.738L200.858 420.079C201.359 419.674 202.089 419.455 202.871 419.455C204.198 419.455 204.954 420.096 204.954 421.432ZM204.075 422.882V422.205H202.713C201.843 422.205 201.597 422.548 201.597 422.961C201.597 423.444 202.001 423.752 202.669 423.752C203.337 423.752 203.855 423.453 204.075 422.891V422.882Z" fill="white"/>
<path d="M211.211 421.573V424.367H210.332V421.669C210.332 420.711 209.857 420.246 209.022 420.246C208.082 420.246 207.484 420.808 207.484 421.863V424.367H206.606V419.507H207.449V420.246C207.81 419.754 208.434 419.464 209.198 419.464C210.384 419.464 211.219 420.14 211.219 421.573H211.211Z" fill="white"/>
<path d="M214.734 422.1L213.724 423.04V424.367H212.845V417.557H213.724V421.924L216.378 419.499H217.441L215.394 421.511L217.643 424.367H216.562L214.734 422.1Z" fill="white"/>
<path d="M222.257 421.432V424.367H221.422V423.726C221.132 424.165 220.587 424.42 219.823 424.42C218.724 424.42 218.021 423.831 218.021 422.987C218.021 422.205 218.522 421.564 219.972 421.564H221.369V421.388C221.369 420.641 220.939 420.21 220.069 420.21C219.489 420.21 218.9 420.413 218.531 420.738L218.162 420.079C218.663 419.674 219.392 419.455 220.174 419.455C221.501 419.455 222.257 420.096 222.257 421.432ZM221.378 422.882V422.205H220.016C219.146 422.205 218.9 422.548 218.9 422.961C218.9 423.444 219.304 423.752 219.972 423.752C220.64 423.752 221.158 423.453 221.378 422.891V422.882Z" fill="white"/>
<path d="M226.51 419.464V420.316C226.44 420.307 226.37 420.307 226.308 420.307C225.359 420.307 224.779 420.887 224.779 421.95V424.376H223.9V419.516H224.744V420.333C225.052 419.762 225.658 419.472 226.519 419.472L226.51 419.464Z" fill="white"/>
<path d="M230.526 424.086C230.263 424.314 229.858 424.429 229.463 424.429C228.479 424.429 227.925 423.884 227.925 422.908V420.237H227.099V419.516H227.925V418.453H228.804V419.516H230.201V420.237H228.804V422.873C228.804 423.4 229.076 423.69 229.568 423.69C229.823 423.69 230.069 423.611 230.254 423.462L230.526 424.095V424.086Z" fill="white"/>
<path d="M235.808 422.232H231.862C231.976 423.084 232.662 423.655 233.62 423.655C234.191 423.655 234.665 423.462 235.026 423.067L235.509 423.638C235.07 424.147 234.402 424.429 233.593 424.429C232.02 424.429 230.975 423.392 230.975 421.942C230.975 420.492 232.012 419.464 233.418 419.464C234.824 419.464 235.825 420.474 235.825 421.968C235.825 422.038 235.817 422.153 235.808 422.232ZM231.862 421.599H234.982C234.894 420.782 234.279 420.202 233.418 420.202C232.556 420.202 231.95 420.773 231.853 421.599H231.862Z" fill="white"/>
<path d="M288.219 421.16C288.219 419.261 289.669 417.873 291.62 417.873C292.613 417.873 293.474 418.216 294.063 418.875L293.465 419.455C292.973 418.927 292.367 418.69 291.655 418.69C290.205 418.69 289.133 419.736 289.133 421.16C289.133 422.583 290.205 423.629 291.655 423.629C292.358 423.629 292.964 423.383 293.465 422.856L294.063 423.436C293.474 424.095 292.613 424.446 291.611 424.446C289.669 424.446 288.219 423.058 288.219 421.16Z" fill="#5264AE"/>
<path d="M299.037 421.432V424.367H298.202V423.726C297.912 424.165 297.367 424.42 296.603 424.42C295.504 424.42 294.801 423.831 294.801 422.987C294.801 422.205 295.302 421.564 296.752 421.564H298.149V421.388C298.149 420.641 297.719 420.21 296.849 420.21C296.269 420.21 295.68 420.413 295.311 420.738L294.942 420.079C295.443 419.674 296.172 419.455 296.954 419.455C298.281 419.455 299.037 420.096 299.037 421.432ZM298.158 422.882V422.205H296.796C295.926 422.205 295.68 422.548 295.68 422.961C295.68 423.444 296.084 423.752 296.752 423.752C297.42 423.752 297.938 423.453 298.158 422.891V422.882Z" fill="#5264AE"/>
<path d="M305.285 421.573V424.367H304.406V421.669C304.406 420.711 303.932 420.246 303.097 420.246C302.157 420.246 301.559 420.808 301.559 421.863V424.367H300.68V419.507H301.524V420.246C301.884 419.754 302.508 419.464 303.273 419.464C304.459 419.464 305.294 420.14 305.294 421.573H305.285Z" fill="#5264AE"/>
<path d="M306.498 421.942C306.498 420.492 307.57 419.464 309.064 419.464C309.934 419.464 310.663 419.824 311.05 420.5L310.382 420.931C310.066 420.457 309.591 420.237 309.064 420.237C308.106 420.237 307.394 420.905 307.394 421.942C307.394 422.979 308.106 423.655 309.064 423.655C309.6 423.655 310.075 423.436 310.382 422.961L311.05 423.383C310.663 424.06 309.943 424.429 309.064 424.429C307.57 424.429 306.498 423.392 306.498 421.942Z" fill="#5264AE"/>
<path d="M316.49 422.232H312.544C312.658 423.084 313.344 423.655 314.301 423.655C314.873 423.655 315.347 423.462 315.708 423.067L316.191 423.638C315.752 424.147 315.084 424.429 314.275 424.429C312.702 424.429 311.656 423.392 311.656 421.942C311.656 420.492 312.693 419.464 314.099 419.464C315.505 419.464 316.507 420.474 316.507 421.968C316.507 422.038 316.498 422.153 316.49 422.232ZM312.544 421.599H315.664C315.576 420.782 314.961 420.202 314.099 420.202C313.238 420.202 312.632 420.773 312.535 421.599H312.544Z" fill="#5264AE"/>
<path d="M317.729 417.565H318.608V424.376H317.729V417.565Z" fill="#5264AE"/>
<path d="M170.408 508.608L172.93 494.451H176.859L174.424 508.608H170.408Z" fill="#3C58BF"/>
<path d="M170.408 508.608L173.633 494.451H176.859L174.424 508.608H170.408Z" fill="#293688"/>
<path d="M188.661 494.609C187.87 494.293 186.613 493.976 185.04 493.976C181.103 493.976 178.274 495.945 178.274 498.774C178.274 500.901 180.242 501.999 181.815 502.711C183.388 503.423 183.863 503.889 183.863 504.522C183.863 505.462 182.606 505.937 181.499 505.937C179.926 505.937 179.064 505.699 177.72 505.146L177.166 504.908L176.613 508.133C177.553 508.529 179.284 508.924 181.094 508.924C185.26 508.924 188.019 506.956 188.019 503.968C188.019 502.316 187 501.059 184.636 500.031C183.221 499.319 182.351 498.933 182.351 498.221C182.351 497.588 183.063 496.964 184.636 496.964C185.972 496.964 186.921 497.201 187.624 497.518L188.019 497.676L188.652 494.609H188.661Z" fill="#3C58BF"/>
<path d="M188.661 494.609C187.87 494.293 186.613 493.976 185.04 493.976C181.103 493.976 178.985 495.945 178.985 498.774C178.985 500.901 180.242 501.999 181.815 502.711C183.388 503.423 183.863 503.889 183.863 504.522C183.863 505.462 182.606 505.937 181.499 505.937C179.926 505.937 179.064 505.699 177.72 505.146L177.166 504.908L176.613 508.133C177.553 508.529 179.284 508.924 181.094 508.924C185.26 508.924 188.019 506.956 188.019 503.968C188.019 502.316 187 501.059 184.636 500.031C183.221 499.319 182.351 498.933 182.351 498.221C182.351 497.588 183.063 496.964 184.636 496.964C185.972 496.964 186.921 497.201 187.624 497.518L188.019 497.676L188.652 494.609H188.661Z" fill="#293688"/>
<path d="M195.427 494.451C194.487 494.451 193.775 494.53 193.38 495.47L187.483 508.608H191.728L192.519 506.244H197.554L198.029 508.608H201.808L198.503 494.451H195.436H195.427ZM193.617 503.889C193.854 503.177 195.19 499.723 195.19 499.723C195.19 499.723 195.507 498.862 195.744 498.309L195.981 499.644C195.981 499.644 196.772 503.186 196.921 503.968H193.617V503.889Z" fill="#3C58BF"/>
<path d="M196.368 494.451C195.427 494.451 194.716 494.53 194.32 495.47L187.474 508.608H191.719L192.51 506.244H197.545L198.02 508.608H201.799L198.494 494.451H196.368ZM193.617 503.889C193.934 503.098 195.19 499.723 195.19 499.723C195.19 499.723 195.507 498.862 195.744 498.309L195.981 499.644C195.981 499.644 196.772 503.186 196.921 503.968H193.617V503.889Z" fill="#293688"/>
<path d="M163.176 504.363L162.78 502.316C162.069 499.952 159.793 497.36 157.27 496.103L160.812 508.687H165.056L171.428 494.53H167.183L163.167 504.363H163.176Z" fill="#3C58BF"/>
<path d="M163.176 504.363L162.78 502.316C162.069 499.952 159.793 497.36 157.27 496.103L160.812 508.687H165.056L171.428 494.53H167.965L163.167 504.363H163.176Z" fill="#293688"/>
<path d="M152.244 494.451L152.956 494.609C157.991 495.786 161.453 498.774 162.789 502.316L161.374 495.628C161.137 494.688 160.434 494.451 159.564 494.451H152.253H152.244Z" fill="#FFBC00"/>
<path d="M152.244 494.451C157.279 495.628 161.445 498.695 162.789 502.237L161.453 496.648C161.216 495.707 160.434 495.154 159.564 495.154L152.253 494.442L152.244 494.451Z" fill="#F7981D"/>
<path d="M152.244 494.451C157.279 495.628 161.445 498.695 162.789 502.237L161.849 499.17C161.612 498.229 161.295 497.28 160.197 496.885L152.253 494.451H152.244Z" fill="#ED7C00"/>
<path d="M167.104 503.889L164.433 501.217L163.176 504.205L162.86 502.237C162.148 499.873 159.872 497.28 157.349 496.024L160.891 508.608H165.136L167.104 503.889Z" fill="#051244"/>
<path d="M174.424 508.608L171.041 505.146L170.408 508.608H174.424Z" fill="#051244"/>
<path d="M183.467 503.731C183.784 504.047 183.942 504.284 183.863 504.592C183.863 505.532 182.606 506.007 181.499 506.007C179.926 506.007 179.064 505.77 177.72 505.216L177.166 504.979L176.613 508.204C177.553 508.599 179.284 508.995 181.094 508.995C183.608 508.995 185.655 508.283 186.833 507.026L183.45 503.722L183.467 503.731Z" fill="#051244"/>
<path d="M188.028 508.608H191.728L192.519 506.244H197.554L198.029 508.608H201.808L200.472 502.87L195.753 498.309L195.99 499.565C195.99 499.565 196.781 503.107 196.93 503.889H193.626C193.942 503.098 195.199 499.723 195.199 499.723C195.199 499.723 195.515 498.862 195.753 498.309" fill="#051244"/>
<path d="M264.087 497.896H260.915C260.73 497.896 260.546 498.08 260.449 498.265L259.14 506.481C259.14 506.666 259.237 506.763 259.421 506.763H261.1C261.284 506.763 261.381 506.666 261.381 506.481L261.75 504.153C261.75 503.968 261.934 503.783 262.216 503.783H263.244C265.388 503.783 266.601 502.755 266.882 500.708C267.067 499.864 266.882 499.117 266.513 498.651C265.95 498.186 265.116 497.904 264.087 497.904M264.457 500.98C264.272 502.096 263.428 502.096 262.593 502.096H262.031L262.4 499.952C262.4 499.855 262.497 499.767 262.681 499.767H262.866C263.428 499.767 263.982 499.767 264.263 500.136C264.448 500.233 264.448 500.506 264.448 500.98" fill="#139AD6"/>
<path d="M241.221 497.896H238.049C237.864 497.896 237.68 498.08 237.583 498.265L236.274 506.481C236.274 506.666 236.37 506.763 236.555 506.763H238.049C238.233 506.763 238.418 506.578 238.515 506.393L238.884 504.153C238.884 503.968 239.068 503.783 239.349 503.783H240.378C242.522 503.783 243.735 502.755 244.016 500.708C244.2 499.864 244.016 499.117 243.647 498.651C243.084 498.186 242.337 497.904 241.221 497.904M241.59 500.98C241.406 502.096 240.562 502.096 239.727 502.096H239.262L239.631 499.952C239.631 499.855 239.727 499.767 239.912 499.767H240.096C240.659 499.767 241.212 499.767 241.494 500.136C241.59 500.233 241.678 500.506 241.59 500.98Z" fill="#263B80"/>
<path d="M250.835 500.883H249.341C249.245 500.883 249.06 500.98 249.06 501.068L248.963 501.534L248.867 501.349C248.498 500.883 247.839 500.699 247.092 500.699C245.413 500.699 243.919 502.008 243.638 503.775C243.453 504.706 243.735 505.55 244.2 506.103C244.666 506.657 245.316 506.85 246.16 506.85C247.557 506.85 248.304 506.007 248.304 506.007L248.208 506.473C248.208 506.657 248.304 506.754 248.489 506.754H249.886C250.071 506.754 250.255 506.569 250.352 506.385L251.196 501.156C251.099 501.059 250.914 500.875 250.826 500.875M248.682 503.863C248.498 504.706 247.839 505.356 246.907 505.356C246.441 505.356 246.063 505.172 245.879 504.987C245.694 504.706 245.598 504.337 245.598 503.871C245.694 503.028 246.441 502.377 247.276 502.377C247.742 502.377 248.023 502.562 248.304 502.747C248.586 503.028 248.673 503.493 248.673 503.863" fill="#263B80"/>
<path d="M273.605 500.883H272.111C272.014 500.883 271.83 500.98 271.83 501.068L271.733 501.534L271.636 501.349C271.267 500.883 270.608 500.699 269.861 500.699C268.183 500.699 266.689 502.008 266.407 503.775C266.223 504.706 266.504 505.55 266.97 506.103C267.436 506.657 268.086 506.85 268.93 506.85C270.327 506.85 271.074 506.007 271.074 506.007L270.977 506.473C270.977 506.657 271.074 506.754 271.258 506.754H272.656C272.84 506.754 273.025 506.569 273.121 506.385L273.965 501.156C273.868 501.059 273.78 500.875 273.596 500.875M271.452 503.863C271.267 504.706 270.608 505.356 269.677 505.356C269.211 505.356 268.833 505.172 268.648 504.987C268.464 504.706 268.367 504.337 268.367 503.871C268.464 503.028 269.211 502.377 270.046 502.377C270.511 502.377 270.793 502.562 271.074 502.747C271.443 503.028 271.54 503.493 271.443 503.863" fill="#139AD6"/>
<path d="M258.955 500.883H257.365C257.18 500.883 257.083 500.98 256.996 501.068L254.939 504.24L254.008 501.253C253.911 501.068 253.823 500.971 253.542 500.971H252.048C251.863 500.971 251.767 501.156 251.767 501.34L253.445 506.288L251.855 508.529C251.758 508.713 251.855 508.995 252.039 508.995H253.533C253.718 508.995 253.814 508.898 253.902 508.81L259.034 501.437C259.316 501.156 259.131 500.875 258.938 500.875" fill="#263B80"/>
<path d="M275.38 498.177L274.07 506.578C274.07 506.763 274.167 506.859 274.352 506.859H275.661C275.846 506.859 276.03 506.675 276.127 506.49L277.436 498.273C277.436 498.089 277.34 497.992 277.155 497.992H275.661C275.564 497.896 275.477 497.992 275.38 498.177Z" fill="#139AD6"/>
<path d="M229.366 495.101C228.716 494.354 227.503 493.985 225.816 493.985H221.15C220.868 493.985 220.587 494.266 220.499 494.547L218.636 506.771C218.636 507.053 218.821 507.237 219.005 507.237H221.897L222.644 502.667V502.852C222.74 502.571 223.013 502.29 223.294 502.29H224.691C227.398 502.29 229.454 501.173 230.105 498.089V497.808C230.04 497.808 230.04 497.808 230.105 497.808C230.201 496.595 230.008 495.848 229.358 495.101" fill="#263B80"/>
<path d="M230.025 497.808V498.089C229.375 501.261 227.319 502.289 224.612 502.289H223.215C222.934 502.289 222.652 502.571 222.565 502.852L221.633 508.546C221.633 508.731 221.73 508.916 222.002 508.916H224.428C224.709 508.916 224.99 508.731 224.99 508.45V508.353L225.456 505.462V505.277C225.456 504.996 225.737 504.812 226.018 504.812H226.387C228.716 504.812 230.588 503.88 231.054 501.077C231.238 499.961 231.15 498.933 230.588 498.273C230.491 498.089 230.307 497.904 230.025 497.808Z" fill="#139AD6"/>
<path d="M229.366 497.526C229.27 497.526 229.182 497.43 229.085 497.43C228.989 497.43 228.901 497.43 228.804 497.333C228.435 497.236 228.057 497.236 227.591 497.236H223.953C223.856 497.236 223.768 497.236 223.672 497.333C223.487 497.43 223.391 497.614 223.391 497.799L222.644 502.65V502.834C222.74 502.553 223.013 502.272 223.294 502.272H224.691C227.398 502.272 229.454 501.156 230.105 498.071C230.105 497.975 230.105 497.887 230.201 497.79C230.017 497.693 229.92 497.606 229.735 497.606C229.548 497.541 229.425 497.509 229.366 497.509" fill="#232C65"/>
<path d="M300.399 509.003C304.549 509.003 307.913 505.64 307.913 501.49C307.913 497.34 304.549 493.976 300.399 493.976C296.249 493.976 292.885 497.34 292.885 501.49C292.885 505.64 296.249 509.003 300.399 509.003Z" fill="#EE0005"/>
<path d="M309.732 509.003C313.881 509.003 317.245 505.64 317.245 501.49C317.245 497.34 313.881 493.976 309.732 493.976C305.582 493.976 302.218 497.34 302.218 501.49C302.218 505.64 305.582 509.003 309.732 509.003Z" fill="#0098E2"/>
<path fill-rule="evenodd" clip-rule="evenodd" d="M346.263 507.053C347.581 508.265 349.348 509.003 351.263 509.003C355.394 509.003 358.733 505.638 358.733 501.499C358.733 497.359 355.394 493.976 351.263 493.976C349.339 493.976 347.573 494.714 346.263 495.927C344.752 497.307 343.803 499.293 343.803 501.499C343.803 503.704 344.76 505.69 346.263 507.061V507.053Z" fill="#FAB31E"/>
<path fill-rule="evenodd" clip-rule="evenodd" d="M348.68 500.699C348.653 500.426 348.601 500.172 348.548 499.899H343.978C344.031 499.627 344.11 499.372 344.18 499.108H348.319C348.232 498.836 348.126 498.563 348.012 498.309H344.506C344.637 498.036 344.778 497.764 344.927 497.509H347.573C347.406 497.236 347.212 496.964 347.001 496.718H345.49C345.718 496.437 345.982 496.164 346.254 495.918C344.927 494.723 343.17 493.967 341.236 493.967C337.124 493.967 333.767 497.333 333.767 501.49C333.767 505.647 337.124 508.995 341.236 508.995C343.17 508.995 344.927 508.256 346.254 507.044C346.527 506.798 346.773 506.543 347.001 506.253H345.49C345.288 505.998 345.103 505.734 344.919 505.453H347.564C347.731 505.198 347.871 504.935 348.003 504.653H344.497C344.383 504.399 344.268 504.135 344.172 503.863H348.311C348.399 503.608 348.469 503.335 348.53 503.063C348.583 502.808 348.636 502.536 348.662 502.263C348.689 502.008 348.697 501.745 348.697 501.472C348.697 501.2 348.689 500.927 348.662 500.673L348.68 500.699Z" fill="#E40520"/>
<path fill-rule="evenodd" clip-rule="evenodd" d="M357.74 503.239C357.74 503.098 357.846 502.993 357.969 502.993C358.109 502.993 358.215 503.098 358.215 503.239C358.215 503.37 358.109 503.485 357.969 503.485C357.837 503.485 357.74 503.37 357.74 503.239ZM357.969 503.423C358.074 503.423 358.162 503.344 358.162 503.239C358.162 503.133 358.074 503.054 357.969 503.054C357.881 503.054 357.784 503.133 357.784 503.239C357.784 503.344 357.872 503.423 357.969 503.423ZM357.942 503.344H357.89V503.142H358.03C358.03 503.142 358.057 503.177 358.057 503.203C358.057 503.212 358.048 503.239 358.021 503.256L358.074 503.344H358.013L357.986 503.265H357.951V503.344V503.23H357.977C357.977 503.23 358.004 503.23 358.004 503.221C358.013 503.221 358.013 503.212 358.013 503.195C358.013 503.195 358.013 503.186 358.004 503.186C358.004 503.177 357.995 503.186 357.977 503.186H357.951V503.353L357.942 503.344Z" fill="white"/>
<path fill-rule="evenodd" clip-rule="evenodd" d="M343.723 503.669C343.477 503.731 343.302 503.775 343.117 503.775C342.73 503.775 342.502 503.529 342.502 503.089C342.502 503.001 342.511 502.905 342.528 502.808L342.581 502.509L342.616 502.263L342.968 500.145H343.741L343.653 500.611H344.145L344.031 501.384H343.539L343.337 502.65C343.328 502.711 343.328 502.755 343.328 502.782C343.328 502.949 343.407 503.01 343.6 503.01C343.688 503.01 343.767 503.001 343.846 502.984L343.741 503.669H343.723Z" fill="#06326E"/>
<path fill-rule="evenodd" clip-rule="evenodd" d="M346.228 503.643C345.947 503.722 345.683 503.757 345.402 503.757C344.523 503.757 344.022 503.291 344.022 502.377C344.022 501.305 344.62 500.532 345.437 500.532C346.096 500.532 346.518 500.971 346.518 501.657C346.518 501.885 346.492 502.105 346.43 502.421H344.822C344.813 502.474 344.813 502.5 344.813 502.527C344.813 502.887 345.059 503.072 345.525 503.072C345.824 503.072 346.079 503.01 346.36 502.878L346.228 503.652V503.643ZM345.753 501.797V501.639C345.753 501.384 345.613 501.235 345.367 501.235C345.112 501.235 344.927 501.428 344.848 501.789H345.753V501.797Z" fill="#06326E"/>
<path fill-rule="evenodd" clip-rule="evenodd" d="M337.537 503.704H336.737L337.203 500.778L336.157 503.704H335.603L335.542 500.787L335.05 503.704H334.259L334.892 499.899H336.069L336.096 502.246L336.886 499.899H338.178L337.546 503.704H337.537Z" fill="#06326E"/>
<path fill-rule="evenodd" clip-rule="evenodd" d="M339.479 502.325C339.4 502.316 339.373 502.316 339.321 502.316C338.855 502.316 338.626 502.5 338.626 502.782C338.626 502.975 338.741 503.107 338.925 503.107C339.312 503.107 339.47 502.782 339.479 502.333V502.325ZM340.12 503.704H339.426V503.379C339.259 503.625 339.013 503.757 338.591 503.757C338.205 503.757 337.871 503.406 337.871 502.905C337.871 502.764 337.897 502.632 337.932 502.5C338.064 502.026 338.539 501.727 339.277 501.718C339.365 501.718 339.505 501.718 339.637 501.727C339.663 501.622 339.663 501.586 339.663 501.525C339.663 501.323 339.496 501.253 339.119 501.253C338.89 501.253 338.626 501.288 338.451 501.358L338.336 501.384H338.284L338.398 500.699C338.776 500.585 339.039 500.532 339.338 500.532C340.032 500.532 340.41 500.857 340.41 501.446C340.41 501.604 340.419 501.718 340.375 502.052L340.191 503.159L340.164 503.353V503.511L340.138 503.616V503.704H340.12Z" fill="#06326E"/>
<path fill-rule="evenodd" clip-rule="evenodd" d="M350.121 500.637C350.349 500.637 350.56 500.699 350.842 500.84L350.982 500.013C350.903 499.978 350.877 499.978 350.78 499.934L350.455 499.846C350.349 499.82 350.226 499.811 350.077 499.811C349.682 499.811 349.444 499.82 349.198 499.97C349.066 500.057 348.899 500.172 348.724 500.383L348.618 500.356L347.792 500.936L347.827 500.611H346.975L346.474 503.704H347.283L347.581 502.043C347.581 502.043 347.696 501.815 347.748 501.736C347.906 501.543 348.029 501.543 348.196 501.543H348.258C348.232 501.727 348.223 501.92 348.223 502.14C348.223 503.142 348.794 503.775 349.664 503.775C349.884 503.775 350.077 503.748 350.376 503.669L350.516 502.79C350.262 502.931 350.024 502.993 349.831 502.993C349.356 502.993 349.066 502.632 349.066 502.061C349.066 501.226 349.488 500.629 350.095 500.629L350.121 500.637Z" fill="#06326E"/>
<path fill-rule="evenodd" clip-rule="evenodd" d="M356.967 499.899L356.782 500.98C356.589 500.681 356.36 500.541 356.044 500.541C355.622 500.541 355.218 500.787 354.972 501.253L354.453 500.927L354.506 500.602H353.645L353.153 503.696H353.953L354.225 502.035C354.225 502.035 354.427 501.806 354.48 501.727C354.612 501.569 354.735 501.543 354.84 501.534C354.752 501.789 354.699 502.105 354.699 502.448C354.699 503.221 355.095 503.74 355.693 503.74C355.991 503.74 356.22 503.634 356.44 503.388L356.404 503.696H357.169L357.784 499.89H356.958L356.967 499.899ZM355.974 502.966C355.701 502.966 355.561 502.764 355.561 502.36C355.561 501.753 355.816 501.314 356.193 501.314C356.475 501.314 356.615 501.534 356.615 501.92C356.615 502.536 356.36 502.966 355.974 502.966Z" fill="#06326E"/>
<path fill-rule="evenodd" clip-rule="evenodd" d="M352.248 502.325C352.169 502.316 352.142 502.316 352.089 502.316C351.624 502.316 351.395 502.5 351.395 502.782C351.395 502.975 351.509 503.107 351.694 503.107C352.081 503.107 352.239 502.782 352.248 502.333V502.325ZM352.889 503.704H352.177L352.204 503.379C352.019 503.625 351.782 503.757 351.351 503.757C350.956 503.757 350.604 503.423 350.604 502.905C350.604 502.166 351.158 501.718 352.037 501.718C352.125 501.718 352.265 501.718 352.388 501.727C352.415 501.622 352.423 501.586 352.423 501.525C352.423 501.323 352.256 501.253 351.87 501.253C351.65 501.253 351.378 501.288 351.202 501.358L351.096 501.384H351.044L351.158 500.699C351.536 500.585 351.799 500.532 352.098 500.532C352.793 500.532 353.153 500.857 353.153 501.446C353.153 501.604 353.179 501.718 353.118 502.052L352.951 503.159L352.924 503.353L352.898 503.511V503.616L352.889 503.704Z" fill="#06326E"/>
<path fill-rule="evenodd" clip-rule="evenodd" d="M341.816 501.27C341.975 501.27 342.194 501.279 342.423 501.323L342.537 500.602C342.309 500.576 341.992 500.541 341.816 500.541C340.911 500.541 340.621 501.033 340.621 501.595C340.621 501.973 340.788 502.237 341.228 502.448C341.553 502.606 341.606 502.632 341.606 502.773C341.606 502.966 341.439 503.08 341.131 503.08C340.885 503.08 340.656 503.045 340.393 502.949L340.305 503.66H340.314L340.472 503.696C340.525 503.704 340.586 503.722 340.674 503.731C340.867 503.74 341.034 503.757 341.14 503.757C342.045 503.757 342.414 503.406 342.414 502.729C342.414 502.307 342.212 502.044 341.808 501.868C341.456 501.71 341.421 501.683 341.421 501.543C341.421 501.402 341.579 501.27 341.816 501.27Z" fill="#06326E"/>
<path fill-rule="evenodd" clip-rule="evenodd" d="M351.202 499.767L351.061 500.593C350.78 500.453 350.569 500.391 350.341 500.391C349.734 500.391 349.313 500.989 349.313 501.824C349.313 502.404 349.594 502.755 350.077 502.755C350.27 502.755 350.499 502.694 350.763 502.562L350.622 503.423C350.323 503.502 350.13 503.537 349.91 503.537C349.031 503.537 348.495 502.905 348.495 501.885C348.495 500.532 349.242 499.574 350.314 499.574C350.455 499.574 350.587 499.583 350.692 499.609L351.017 499.688C351.123 499.723 351.149 499.741 351.22 499.767H351.202Z" fill="white"/>
<path fill-rule="evenodd" clip-rule="evenodd" d="M348.601 500.339H348.522C348.249 500.339 348.1 500.47 347.854 500.839L347.933 500.365H347.195L346.694 503.458H347.502C347.801 501.56 347.88 501.244 348.267 501.244H348.319C348.399 500.866 348.504 500.602 348.627 500.356H348.601V500.339Z" fill="white"/>
<path fill-rule="evenodd" clip-rule="evenodd" d="M343.934 503.423C343.715 503.502 343.539 503.529 343.354 503.529C342.941 503.529 342.713 503.3 342.713 502.843C342.713 502.764 342.722 502.659 342.739 502.571L342.792 502.263L342.827 502.017L343.179 499.899H343.978L343.89 500.365H344.303L344.198 501.13H343.785L343.565 502.421C343.556 502.474 343.556 502.509 343.556 502.553C343.556 502.711 343.636 502.773 343.829 502.773C343.917 502.773 343.996 502.773 344.049 502.747L343.943 503.432L343.934 503.423Z" fill="white"/>
<path fill-rule="evenodd" clip-rule="evenodd" d="M340.823 501.34C340.823 501.727 341.008 502 341.43 502.202C341.764 502.36 341.816 502.404 341.816 502.536C341.816 502.729 341.676 502.817 341.351 502.817C341.105 502.817 340.885 502.782 340.63 502.703L340.516 503.414H340.551L340.692 503.45C340.744 503.458 340.806 503.476 340.911 503.476C341.096 503.502 341.245 503.502 341.351 503.502C342.203 503.502 342.599 503.177 342.599 502.474C342.599 502.052 342.432 501.806 342.027 501.613C341.676 501.455 341.641 501.42 341.641 501.279C341.641 501.112 341.781 501.033 342.045 501.033C342.203 501.033 342.423 501.042 342.625 501.068L342.739 500.356C342.537 500.321 342.212 500.295 342.027 500.295C341.122 500.295 340.806 500.769 340.815 501.34H340.823Z" fill="white"/>
<path fill-rule="evenodd" clip-rule="evenodd" d="M357.38 503.458H356.615L356.65 503.16C356.431 503.388 356.202 503.493 355.903 503.493C355.306 503.493 354.919 502.993 354.919 502.219C354.919 501.191 355.526 500.312 356.237 500.312C356.563 500.312 356.791 500.453 357.011 500.734L357.195 499.653H357.995L357.38 503.458ZM356.193 502.738C356.571 502.738 356.826 502.298 356.826 501.692C356.826 501.288 356.686 501.086 356.404 501.086C356.044 501.086 355.772 501.507 355.772 502.114C355.772 502.527 355.912 502.729 356.193 502.729V502.738Z" fill="white"/>
<path fill-rule="evenodd" clip-rule="evenodd" d="M346.404 503.397C346.123 503.485 345.859 503.529 345.569 503.529C344.664 503.529 344.198 503.054 344.198 502.14C344.198 501.086 344.796 500.295 345.604 500.295C346.272 500.295 346.703 500.734 346.703 501.42C346.703 501.648 346.676 501.868 346.597 502.193H344.998C344.998 502.193 344.989 502.254 344.989 502.281C344.989 502.641 345.235 502.826 345.701 502.826C345.999 502.826 346.254 502.773 346.536 502.632L346.404 503.406V503.397ZM345.956 501.551V501.393C345.956 501.138 345.815 500.998 345.569 500.998C345.314 500.998 345.129 501.191 345.05 501.551H345.956Z" fill="white"/>
<path fill-rule="evenodd" clip-rule="evenodd" d="M337.739 503.458H336.939L337.405 500.532L336.359 503.458H335.806L335.744 500.558L335.252 503.458H334.505L335.138 499.653H336.298L336.333 502.017L337.106 499.653H338.372L337.739 503.458Z" fill="white"/>
<path fill-rule="evenodd" clip-rule="evenodd" d="M339.742 502.079C339.663 502.079 339.628 502.07 339.558 502.07C339.11 502.07 338.872 502.237 338.872 502.544C338.872 502.738 338.978 502.852 339.154 502.852C339.488 502.852 339.725 502.544 339.734 502.079H339.742ZM340.34 503.458H339.672V503.133C339.479 503.388 339.206 503.511 338.837 503.511C338.398 503.511 338.099 503.177 338.099 502.676C338.099 501.912 338.618 501.481 339.514 501.481C339.602 501.481 339.716 501.49 339.848 501.507C339.874 501.402 339.874 501.367 339.874 501.314C339.874 501.112 339.734 501.033 339.356 501.033C339.127 501.033 338.864 501.059 338.688 501.112L338.574 501.147H338.495L338.609 500.462C339.004 500.347 339.277 500.303 339.576 500.303C340.27 500.303 340.648 500.611 340.648 501.209C340.648 501.367 340.639 501.481 340.586 501.824L340.402 502.922L340.375 503.116V503.274L340.349 503.388V503.467L340.34 503.458Z" fill="white"/>
<path fill-rule="evenodd" clip-rule="evenodd" d="M352.511 502.079C352.423 502.079 352.38 502.07 352.327 502.07C351.861 502.07 351.633 502.237 351.633 502.544C351.633 502.738 351.747 502.852 351.931 502.852C352.257 502.852 352.503 502.544 352.511 502.079ZM353.1 503.458H352.432V503.133C352.239 503.388 351.966 503.511 351.597 503.511C351.158 503.511 350.859 503.177 350.859 502.676C350.859 501.912 351.378 501.481 352.274 501.481C352.362 501.481 352.476 501.49 352.599 501.507C352.626 501.402 352.634 501.367 352.634 501.314C352.634 501.112 352.494 501.033 352.116 501.033C351.887 501.033 351.615 501.059 351.43 501.112L351.325 501.147H351.246L351.36 500.462C351.756 500.347 352.028 500.303 352.327 500.303C353.021 500.303 353.381 500.611 353.381 501.209C353.381 501.367 353.381 501.481 353.32 501.824L353.153 502.922L353.127 503.116L353.1 503.274V503.388L353.091 503.467L353.1 503.458Z" fill="white"/>
<path fill-rule="evenodd" clip-rule="evenodd" d="M355.271 500.339H355.192C354.919 500.339 354.77 500.47 354.524 500.839L354.603 500.365H353.865L353.373 503.458H354.172C354.471 501.56 354.55 501.244 354.937 501.244H354.99C355.069 500.866 355.174 500.602 355.297 500.356H355.271V500.339Z" fill="white"/>
<path d="M253.946 315.336C252.733 316.548 252.733 318.508 253.946 319.721C255.159 320.933 257.119 320.933 258.331 319.721C259.544 318.508 259.544 316.548 258.331 315.336C257.119 314.123 255.15 314.123 253.946 315.336Z" fill="#D5DDFD"/>
<path d="M262.717 310.95C262.11 310.344 261.135 310.344 260.528 310.95C259.922 311.557 259.922 312.532 260.528 313.139C262.945 315.555 262.945 319.492 260.528 321.909C259.922 322.515 259.922 323.491 260.528 324.097C260.827 324.396 261.231 324.554 261.627 324.554C262.022 324.554 262.418 324.405 262.725 324.097C266.355 320.477 266.355 314.58 262.725 310.942L262.717 310.95Z" fill="#D5DDFD"/>
<path d="M251.749 310.95C251.143 310.344 250.167 310.344 249.561 310.95C247.803 312.708 246.837 315.046 246.837 317.533C246.837 320.02 247.803 322.357 249.561 324.115C249.86 324.414 250.264 324.572 250.659 324.572C251.055 324.572 251.45 324.422 251.758 324.115C252.364 323.508 252.364 322.533 251.758 321.927C249.341 319.51 249.341 315.573 251.758 313.156C252.373 312.55 252.373 311.574 251.758 310.959L251.749 310.95Z" fill="#D5DDFD"/>
<path d="M267.093 306.565C266.487 305.959 265.511 305.959 264.905 306.565C264.298 307.172 264.298 308.147 264.905 308.753C269.738 313.587 269.738 321.461 264.905 326.294C264.298 326.9 264.298 327.876 264.905 328.482C265.203 328.781 266.293 329.431 267.093 328.482C272.603 321.953 273.139 312.611 267.093 306.565Z" fill="#D5DDFD"/>
<path d="M247.364 308.753C247.97 308.147 247.97 307.172 247.364 306.565C246.758 305.959 245.782 305.959 245.176 306.565C239.13 312.611 239.27 322.313 245.176 328.491C246.002 329.361 247.065 328.79 247.364 328.491C247.97 327.885 247.97 326.909 247.364 326.303C242.531 321.461 242.531 313.596 247.364 308.753Z" fill="#D5DDFD"/>
<path d="M319.776 294.227H294.687C293.465 294.227 292.481 295.22 292.481 296.433V308.332C292.481 309.544 293.474 310.537 294.687 310.537H319.776C320.989 310.537 321.982 309.544 321.982 308.332V296.433C321.982 295.22 320.989 294.227 319.776 294.227ZM292.938 302.382C292.938 302.382 292.947 302.382 292.956 302.382C292.964 302.382 292.964 302.382 292.973 302.382H292.947H292.938ZM321.042 308.332C321.042 309.026 320.471 309.597 319.776 309.597H294.687C293.984 309.597 293.413 309.026 293.413 308.332V296.433C293.413 295.739 293.984 295.167 294.687 295.167H319.776C320.471 295.167 321.042 295.739 321.042 296.433V308.332Z" fill="#5264AE"/>
<path d="M299.503 299.262C299.485 299.166 299.45 299.069 299.38 298.999L298.712 298.331C298.123 297.742 297.165 297.742 296.576 298.331L295.908 298.999C295.838 299.069 295.794 299.166 295.785 299.262C295.548 299.702 295.548 300.238 295.785 300.677C295.803 300.765 295.838 300.853 295.908 300.923L296.576 301.591C297.165 302.18 298.123 302.18 298.712 301.591L299.38 300.923C299.45 300.853 299.485 300.765 299.503 300.677C299.74 300.238 299.74 299.702 299.503 299.262ZM297.314 300.976L296.708 300.37C296.488 300.15 296.488 299.781 296.708 299.561L297.35 298.92C297.534 298.805 297.754 298.805 297.938 298.92L298.58 299.561C298.8 299.781 298.8 300.15 298.58 300.37L297.974 300.976C297.771 301.117 297.517 301.117 297.314 300.976Z" fill="#5264AE"/>
<path d="M318.818 306.635H314.785C314.53 306.635 314.319 306.425 314.319 306.17C314.319 305.915 314.53 305.704 314.785 305.704H318.818C319.073 305.704 319.284 305.915 319.284 306.17C319.284 306.425 319.073 306.635 318.818 306.635Z" fill="#5264AE"/>
<path d="M312.588 306.635H308.554C308.299 306.635 308.088 306.425 308.088 306.17C308.088 305.915 308.299 305.704 308.554 305.704H312.588C312.843 305.704 313.054 305.915 313.054 306.17C313.054 306.425 312.843 306.635 312.588 306.635Z" fill="#5264AE"/>
<path d="M306.348 306.635H302.315C302.06 306.635 301.849 306.425 301.849 306.17C301.849 305.915 302.06 305.704 302.315 305.704H306.348C306.603 305.704 306.814 305.915 306.814 306.17C306.814 306.425 306.603 306.635 306.348 306.635Z" fill="#5264AE"/>
<path d="M300.118 306.635H296.084C295.829 306.635 295.618 306.425 295.618 306.17C295.618 305.915 295.829 305.704 296.084 305.704H300.118C300.373 305.704 300.584 305.915 300.584 306.17C300.584 306.425 300.373 306.635 300.118 306.635Z" fill="#5264AE"/>
<path d="M220.675 295.624H215.077C214.717 295.624 214.427 295.334 214.427 294.974C214.427 294.614 214.717 294.324 215.077 294.324H220.675C221.035 294.324 221.325 294.614 221.325 294.974C221.325 295.334 221.035 295.624 220.675 295.624Z" fill="#5264AE"/>
<path d="M212.028 295.624H206.43C206.07 295.624 205.78 295.334 205.78 294.974C205.78 294.614 206.07 294.324 206.43 294.324H212.028C212.388 294.324 212.678 294.614 212.678 294.974C212.678 295.334 212.388 295.624 212.028 295.624Z" fill="#5264AE"/>
<path d="M203.372 295.624H197.774C197.414 295.624 197.124 295.334 197.124 294.974C197.124 294.614 197.414 294.324 197.774 294.324H203.372C203.732 294.324 204.022 294.614 204.022 294.974C204.022 295.334 203.732 295.624 203.372 295.624Z" fill="#5264AE"/>
<path d="M194.716 295.624H189.118C188.757 295.624 188.467 295.334 188.467 294.974C188.467 294.614 188.757 294.324 189.118 294.324H194.716C195.076 294.324 195.366 294.614 195.366 294.974C195.366 295.334 195.076 295.624 194.716 295.624Z" fill="#5264AE"/>
<path d="M220.675 303.674H215.077C214.717 303.674 214.427 303.384 214.427 303.024C214.427 302.663 214.717 302.373 215.077 302.373H220.675C221.035 302.373 221.325 302.663 221.325 303.024C221.325 303.384 221.035 303.674 220.675 303.674Z" fill="#5264AE"/>
<path d="M212.028 303.674H206.43C206.07 303.674 205.78 303.384 205.78 303.024C205.78 302.663 206.07 302.373 206.43 302.373H212.028C212.388 302.373 212.678 302.663 212.678 303.024C212.678 303.384 212.388 303.674 212.028 303.674Z" fill="#5264AE"/>
<path d="M203.372 303.674H197.774C197.414 303.674 197.124 303.384 197.124 303.024C197.124 302.663 197.414 302.373 197.774 302.373H203.372C203.732 302.373 204.022 302.663 204.022 303.024C204.022 303.384 203.732 303.674 203.372 303.674Z" fill="#5264AE"/>
<path d="M194.716 303.674H189.118C188.757 303.674 188.467 303.384 188.467 303.024C188.467 302.663 188.757 302.373 189.118 302.373H194.716C195.076 302.373 195.366 302.663 195.366 303.024C195.366 303.384 195.076 303.674 194.716 303.674Z" fill="#5264AE"/>
<path d="M202.897 336.33H188.924V341.102H202.897V336.33Z" fill="#5264AE"/>
<path d="M220.649 336.55V340.882H207.115V336.55H220.649ZM220.868 336.33H206.896V341.102H220.868V336.33Z" fill="#5264AE"/>
<path d="M314.222 336.33H300.25V341.102H314.222V336.33Z" fill="#5264AE"/>
</g>
<defs>
<clipPath id="clip0_2001_677">
<rect width="602" height="580" fill="white" transform="translate(30)"/>
</clipPath>
<clipPath id="clip1_2001_677">
<rect width="376.272" height="550" fill="white" transform="translate(134 15)"/>
</clipPath>
</defs>
</svg>
