<svg width="784" height="593" viewBox="0 0 784 593" fill="none" xmlns="http://www.w3.org/2000/svg">
<g clip-path="url(#clip0_2009_684)">
<path d="M744.232 263.179L526.215 150.785C519.092 147.113 510.339 149.906 506.664 157.024L442.217 281.847C438.542 288.965 441.337 297.711 448.46 301.384L666.477 413.778C673.6 417.45 682.353 414.657 686.028 407.539L750.475 282.716C754.15 275.599 751.355 266.852 744.232 263.179Z" fill="#5264AE"/>
<path d="M518.908 281.864C518.711 281.864 518.508 281.818 518.321 281.721L483.52 263.776C482.892 263.451 482.643 262.68 482.969 262.05C483.294 261.419 484.066 261.173 484.697 261.499L519.498 279.444C520.126 279.769 520.375 280.54 520.049 281.17C519.821 281.611 519.372 281.864 518.908 281.864Z" fill="white"/>
<path d="M571.729 309.101C571.532 309.101 571.329 309.054 571.142 308.957L536.341 291.012C535.713 290.687 535.464 289.916 535.79 289.286C536.115 288.656 536.887 288.41 537.518 288.735L572.319 306.68C572.947 307.005 573.196 307.776 572.87 308.406C572.642 308.847 572.193 309.101 571.729 309.101Z" fill="white"/>
<path d="M624.55 336.337C624.353 336.337 624.15 336.291 623.963 336.193L589.162 318.248C588.534 317.923 588.285 317.152 588.611 316.522C588.936 315.892 589.708 315.646 590.339 315.971L625.14 333.916C625.768 334.241 626.017 335.012 625.691 335.643C625.463 336.083 625.014 336.337 624.55 336.337Z" fill="white"/>
<path d="M677.371 363.57C677.174 363.57 676.971 363.524 676.784 363.427L641.983 345.482C641.355 345.157 641.106 344.386 641.432 343.756C641.757 343.125 642.529 342.879 643.16 343.205L677.961 361.15C678.589 361.475 678.838 362.246 678.512 362.876C678.284 363.317 677.835 363.57 677.371 363.57Z" fill="white"/>
<path d="M482.125 273.731L478.093 281.539L476.988 280.97L480.518 274.133L478.754 273.224L479.254 272.253L482.123 273.731H482.125Z" fill="white"/>
<path d="M485.794 284.28L485.294 285.251L479.68 282.356L480.072 281.598L484.838 280.171C486.078 279.795 486.489 279.385 486.742 278.893C487.158 278.089 486.842 277.305 485.748 276.741C484.909 276.308 484.092 276.226 483.312 276.559L482.892 275.509C483.881 275.073 485.143 275.173 486.36 275.801C487.991 276.641 488.606 278.019 487.917 279.357C487.524 280.115 486.95 280.681 485.366 281.15L481.789 282.215L485.796 284.283L485.794 284.28Z" fill="white"/>
<path d="M496.897 279.341L497.869 279.841L488.76 288.448L487.788 287.949L496.897 279.341Z" fill="white"/>
<path d="M502.137 292.708L501.637 293.679L496.023 290.784L496.415 290.026L501.181 288.599C502.422 288.223 502.832 287.813 503.086 287.321C503.501 286.517 503.185 285.733 502.091 285.169C501.253 284.736 500.435 284.654 499.655 284.987L499.235 283.937C500.224 283.501 501.486 283.601 502.704 284.229C504.334 285.069 504.949 286.447 504.26 287.785C503.867 288.543 503.293 289.109 501.709 289.578L498.133 290.644L502.14 292.711L502.137 292.708Z" fill="white"/>
<path d="M510.128 295.626L508.644 294.86L507.654 296.779L506.572 296.22L507.562 294.302L503.219 292.063L503.621 291.281L510.256 288.233L511.461 288.855L505.085 291.812L508.087 293.359L508.961 291.663L510.01 292.204L509.136 293.899L510.62 294.665L510.125 295.623L510.128 295.626Z" fill="white"/>
<path d="M526.579 208.169C527.886 207.124 529.696 206.822 531.314 207.485L532.698 204.803L525.351 201.014L522.692 206.163L526.579 208.166V208.169Z" fill="white"/>
<path d="M524.623 200.638L521.426 198.99C519.485 197.989 517.101 198.75 516.099 200.689L515.253 202.328L521.964 205.789L524.623 200.64V200.638Z" fill="white"/>
<path d="M523.177 213.866C523.571 213.103 524.146 212.496 524.823 212.065C524.784 211.266 524.943 210.444 525.338 209.68C525.512 209.345 525.722 209.043 525.958 208.768L522.315 206.891L518.352 214.563L522.723 216.817C522.556 215.844 522.687 214.809 523.174 213.864L523.177 213.866Z" fill="white"/>
<path d="M534.229 212.112L537.29 213.69L539.948 208.541L533.426 205.177L532.042 207.859C533.521 208.792 534.326 210.441 534.229 212.112Z" fill="white"/>
<path d="M538.582 215.28L534.095 212.967C534.008 213.318 533.885 213.664 533.711 214C533.316 214.763 532.742 215.37 532.065 215.8C532.103 216.6 531.944 217.422 531.55 218.185C530.419 220.373 527.812 221.3 525.574 220.381L525.048 221.398L531.57 224.761L531.934 224.948L533.239 225.622L538.579 215.28H538.582Z" fill="white"/>
<path d="M514.864 203.039L510.903 210.711L517.614 214.171L521.576 206.499L514.864 203.039Z" fill="white"/>
<path d="M525.579 219.482C527.486 220.465 529.84 219.715 530.824 217.809C531.137 217.204 531.283 216.525 531.25 215.841L531.226 215.367L531.626 215.111C532.203 214.742 532.672 214.228 532.985 213.626C533.97 211.72 533.218 209.368 531.311 208.384C529.404 207.401 527.05 208.151 526.066 210.057C525.753 210.662 525.607 211.34 525.64 212.024L525.663 212.498L525.263 212.755C524.687 213.123 524.217 213.638 523.905 214.24C522.92 216.146 523.671 218.498 525.579 219.482Z" fill="white"/>
<path d="M539.298 215.634L533.958 225.976L539.827 229.002L545.167 218.659L539.298 215.634Z" fill="white"/>
<path d="M529.119 231.296L533.142 233.371C535.082 234.373 537.466 233.612 538.469 231.673L539.461 229.751L531.924 225.865L529.119 231.299V231.296Z" fill="white"/>
<path d="M544.701 210.99L540.679 208.915L538.02 214.064L545.557 217.95L546.403 216.31C547.406 214.371 546.644 211.989 544.704 210.987L544.701 210.99Z" fill="white"/>
<path d="M510.538 211.456L508.167 216.046C507.164 217.986 507.926 220.368 509.866 221.37L513.063 223.017L517.247 214.914L510.535 211.453L510.538 211.456Z" fill="white"/>
<path d="M524.663 222.105L521.858 227.539L528.38 230.902L531.186 225.467L524.663 222.105Z" fill="white"/>
<path d="M523.043 217.906L517.975 215.293L513.791 223.396L521.139 227.185L524.846 220.007C524.023 219.489 523.407 218.752 523.041 217.909L523.043 217.906Z" fill="white"/>
<path d="M490.583 249.853L491.621 249.428C491.734 250.25 492.113 250.855 492.772 251.193C493.654 251.646 494.387 251.349 494.931 250.299L497.194 245.916L494.369 244.461L494.869 243.49L498.799 245.516L496.064 250.814C495.167 252.553 493.874 252.976 492.277 252.151C491.352 251.675 490.711 250.834 490.583 249.851V249.853Z" fill="white"/>
<path d="M497.871 251.18C498.781 249.418 500.732 248.841 502.506 249.758C504.28 250.673 504.931 252.592 504.021 254.352C503.111 256.112 501.165 256.706 499.391 255.791C497.617 254.877 496.961 252.943 497.871 251.18ZM502.94 253.793C503.591 252.533 503.163 251.28 502.024 250.694C500.886 250.107 499.607 250.478 498.956 251.739C498.304 252.999 498.738 254.267 499.876 254.854C501.014 255.44 502.288 255.054 502.94 253.793Z" fill="white"/>
<path d="M511.351 257.567L509.595 260.969L508.523 260.415L510.218 257.136C510.818 255.976 510.53 255.107 509.515 254.585C508.377 253.998 507.287 254.298 506.626 255.581L505.055 258.627L503.983 258.074L508.256 249.797L509.328 250.35L507.675 253.552C508.415 253.214 509.318 253.271 510.223 253.737C511.664 254.48 512.253 255.827 511.353 257.569L511.351 257.567Z" fill="white"/>
<path d="M518.952 261.486L517.196 264.888L516.124 264.335L517.819 261.056C518.419 259.895 518.131 259.027 517.116 258.504C515.978 257.918 514.889 258.217 514.227 259.501L512.656 262.547L511.584 261.993L514.637 256.081L515.665 256.611L515.204 257.503C515.95 257.123 516.888 257.17 517.826 257.654C519.267 258.397 519.857 259.744 518.957 261.486H518.952Z" fill="white"/>
<path d="M526.374 259.734L529.665 261.432C532.178 262.728 533.067 265.19 531.868 267.511C530.668 269.832 528.143 270.534 525.633 269.24L522.341 267.542L526.374 259.734ZM526.069 268.234C527.999 269.23 529.85 268.687 530.752 266.935C531.657 265.183 531.029 263.364 529.096 262.367L526.986 261.278L523.956 267.145L526.066 268.234H526.069Z" fill="white"/>
<path d="M532.388 268.977C533.298 267.214 535.249 266.638 537.023 267.555C538.797 268.472 539.448 270.388 538.538 272.148C537.628 273.908 535.682 274.502 533.908 273.588C532.134 272.673 531.478 270.739 532.388 268.977ZM537.456 271.589C538.107 270.329 537.679 269.076 536.541 268.49C535.403 267.903 534.124 268.275 533.472 269.535C532.821 270.795 533.254 272.063 534.393 272.65C535.531 273.237 536.805 272.85 537.456 271.589Z" fill="white"/>
<path d="M545.162 276.016L540.363 273.542C539.961 274.648 540.443 275.77 541.614 276.375C542.307 276.731 543.009 276.797 543.691 276.541L543.924 277.538C543.065 277.886 542.078 277.802 541.097 277.294C539.187 276.311 538.566 274.395 539.476 272.632C540.386 270.87 542.294 270.27 544.001 271.151C545.708 272.033 546.293 273.887 545.352 275.704C545.306 275.793 545.227 275.921 545.162 276.016ZM540.761 272.77L544.555 274.728C544.955 273.677 544.57 272.589 543.532 272.053C542.494 271.518 541.389 271.825 540.758 272.77H540.761Z" fill="white"/>
<path d="M526.507 129.97H525.989V75.626C525.989 57.6069 511.371 43 493.339 43H295.432C277.399 43 262.781 57.6069 262.781 75.626V129.97H262.263C259.91 129.97 258 131.876 258 134.23V171.823C258 174.175 259.907 176.084 262.263 176.084H262.781V185.05H262.263C259.91 185.05 258 186.956 258 189.31V226.903C258 229.255 259.907 231.163 262.263 231.163H262.781V560.374C262.781 578.393 277.399 593 295.432 593H493.339C511.371 593 525.989 578.393 525.989 560.374V199.136H526.507C528.86 199.136 530.77 197.231 530.77 194.876V134.228C530.77 131.876 528.863 129.968 526.507 129.968V129.97Z" fill="#333343"/>
<path d="M489.97 51.0695H298.8C284.155 51.0695 272.282 62.9332 272.282 77.5678V558.432C272.282 573.067 284.155 584.931 298.8 584.931H489.97C504.616 584.931 516.488 573.067 516.488 558.432V77.5678C516.488 62.9332 504.616 51.0695 489.97 51.0695Z" fill="white"/>
<path d="M395.154 383.777C431.509 383.777 460.981 354.328 460.981 318C460.981 281.672 431.509 252.223 395.154 252.223C358.799 252.223 329.328 281.672 329.328 318C329.328 354.328 358.799 383.777 395.154 383.777Z" fill="#D5DDFD"/>
<path d="M394.385 362.994C419.253 362.994 439.413 342.85 439.413 318C439.413 293.151 419.253 273.006 394.385 273.006C369.517 273.006 349.358 293.151 349.358 318C349.358 342.85 369.517 362.994 394.385 362.994Z" fill="#F0F3FF"/>
<path d="M428.64 318.179C428.074 318.179 427.615 317.721 427.615 317.155V305.15C427.615 303.618 426.366 302.371 424.833 302.371H388.914C388.348 302.371 387.889 301.912 387.889 301.346C387.889 300.78 388.348 300.322 388.914 300.322H424.833C427.497 300.322 429.666 302.489 429.666 305.15V317.155C429.666 317.721 429.207 318.179 428.64 318.179Z" fill="#5264AE"/>
<path d="M423.005 336.047H388.912C388.345 336.047 387.886 335.589 387.886 335.022C387.886 334.456 388.345 333.998 388.912 333.998H423.005C423.572 333.998 424.031 334.456 424.031 335.022C424.031 335.589 423.572 336.047 423.005 336.047Z" fill="#5264AE"/>
<path d="M427.94 343.379C427.594 343.379 427.258 343.205 427.064 342.89L416.766 326.067C415.366 323.779 415.896 320.8 418.001 319.137C419.116 318.256 420.506 317.864 421.918 318.031C423.328 318.197 424.59 318.904 425.467 320.021L437.544 335.389C437.892 335.835 437.816 336.478 437.369 336.828C436.923 337.179 436.28 337.1 435.929 336.657L423.851 321.289C423.313 320.603 422.539 320.17 421.675 320.067C420.808 319.965 419.955 320.206 419.27 320.746C417.978 321.766 417.653 323.595 418.511 324.998L428.81 341.821C429.104 342.303 428.953 342.936 428.471 343.23C428.304 343.333 428.12 343.381 427.938 343.381L427.94 343.379Z" fill="#5264AE"/>
<path d="M451.169 358.362C450.821 358.362 450.48 358.183 450.288 357.863L447.201 352.691C446.158 350.718 445.606 348.497 445.606 346.268V332.176C445.606 328.544 444.122 324.999 441.538 322.445L428.269 309.346C427.866 308.949 427.861 308.301 428.261 307.897C428.658 307.494 429.307 307.489 429.712 307.886L442.981 320.984C445.955 323.92 447.66 327.998 447.66 332.174V346.266C447.66 348.154 448.124 350.037 449.003 351.707L452.051 356.81C452.341 357.297 452.182 357.924 451.695 358.214C451.531 358.311 451.349 358.36 451.169 358.36V358.362Z" fill="#5264AE"/>
<path d="M431.165 367.73C430.763 367.73 430.381 367.492 430.217 367.098L425.384 355.442C419.657 352.947 415.984 347.357 415.984 341.084V335.23C415.984 334.664 416.443 334.205 417.009 334.205C417.576 334.205 418.035 334.664 418.035 335.23V341.084C418.035 346.663 421.38 351.62 426.556 353.71L426.953 353.872L432.111 366.314C432.329 366.836 432.081 367.436 431.555 367.654C431.427 367.707 431.294 367.733 431.163 367.733L431.165 367.73Z" fill="#5264AE"/>
<path d="M401.648 344.339C400.348 344.339 399.028 344.106 397.743 343.617L396.736 343.233L400.345 335.071C400.574 334.554 401.179 334.318 401.699 334.549C402.217 334.777 402.45 335.381 402.222 335.901L399.512 342.029C403.822 343.1 408.37 340.809 409.998 336.562L410.649 334.864C410.851 334.336 411.443 334.07 411.974 334.274C412.502 334.477 412.766 335.069 412.564 335.599L411.913 337.297C410.241 341.657 406.067 344.342 401.65 344.342L401.648 344.339Z" fill="#5264AE"/>
<path d="M389.483 317.003C389.222 317.003 388.958 316.903 388.758 316.704C388.358 316.304 388.358 315.656 388.758 315.254L390.222 313.791C390.711 313.302 390.711 312.502 390.222 312.013L388.758 310.55C388.358 310.151 388.358 309.503 388.758 309.101C389.158 308.701 389.806 308.701 390.209 309.101L391.673 310.563C392.962 311.852 392.962 313.95 391.673 315.238L390.209 316.701C390.009 316.901 389.747 317.001 389.483 317.001V317.003Z" fill="#5264AE"/>
<path d="M392.978 327.529H388.914C388.348 327.529 387.889 327.071 387.889 326.505C387.889 325.939 388.348 325.48 388.914 325.48H392.978C393.544 325.48 394.003 325.939 394.003 326.505C394.003 327.071 393.544 327.529 392.978 327.529Z" fill="#5264AE"/>
<path d="M408.862 327.529H400.012C399.446 327.529 398.987 327.071 398.987 326.505C398.987 325.939 399.446 325.48 400.012 325.48H408.862C409.428 325.48 409.887 325.939 409.887 326.505C409.887 327.071 409.428 327.529 408.862 327.529Z" fill="#5264AE"/>
<path d="M382.821 269.294H342.925C339.986 269.294 337.603 271.675 337.603 274.612V358.419C337.603 361.356 339.986 363.737 342.925 363.737H382.821C385.76 363.737 388.143 361.356 388.143 358.419V274.612C388.143 271.675 385.76 269.294 382.821 269.294Z" fill="white"/>
<path d="M382.818 364.762H342.923C339.423 364.762 336.575 361.915 336.575 358.419V274.612C336.575 271.115 339.423 268.269 342.923 268.269H382.818C386.317 268.269 389.166 271.115 389.166 274.612V358.419C389.166 361.915 386.317 364.762 382.818 364.762ZM342.923 270.319C340.554 270.319 338.626 272.245 338.626 274.612V358.419C338.626 360.786 340.554 362.712 342.923 362.712H382.818C385.187 362.712 387.115 360.786 387.115 358.419V274.612C387.115 272.245 385.187 270.319 382.818 270.319H342.923Z" fill="#5264AE"/>
<path d="M369.292 274.628H356.451C355.884 274.628 355.426 274.169 355.426 273.603C355.426 273.037 355.884 272.578 356.451 272.578H369.292C369.859 272.578 370.318 273.037 370.318 273.603C370.318 274.169 369.859 274.628 369.292 274.628Z" fill="#5264AE"/>
<path d="M362.873 359.997C363.826 359.997 364.598 359.225 364.598 358.273C364.598 357.32 363.826 356.549 362.873 356.549C361.92 356.549 361.148 357.32 361.148 358.273C361.148 359.225 361.92 359.997 362.873 359.997Z" fill="#474747"/>
<path d="M362.873 361.021C361.355 361.021 360.122 359.789 360.122 358.273C360.122 356.756 361.355 355.524 362.873 355.524C364.391 355.524 365.624 356.756 365.624 358.273C365.624 359.789 364.391 361.021 362.873 361.021ZM362.873 357.573C362.488 357.573 362.173 357.886 362.173 358.273C362.173 358.659 362.486 358.972 362.873 358.972C363.26 358.972 363.573 358.659 363.573 358.273C363.573 357.886 363.26 357.573 362.873 357.573Z" fill="#5264AE"/>
<path d="M333.109 125.382H298.621C297.311 125.382 296.252 124.322 296.252 123.013C296.252 121.703 297.313 120.643 298.621 120.643H333.109C334.419 120.643 335.478 121.703 335.478 123.013C335.478 124.322 334.417 125.382 333.109 125.382Z" fill="#333343"/>
<path d="M385.456 125.382H350.968C349.658 125.382 348.599 124.322 348.599 123.013C348.599 121.703 349.66 120.643 350.968 120.643H385.456C386.766 120.643 387.825 121.703 387.825 123.013C387.825 124.322 386.764 125.382 385.456 125.382Z" fill="#333343"/>
<path d="M437.803 125.382H403.314C402.004 125.382 400.945 124.322 400.945 123.013C400.945 121.703 402.007 120.643 403.314 120.643H437.803C439.113 120.643 440.172 121.703 440.172 123.013C440.172 124.322 439.11 125.382 437.803 125.382Z" fill="#333343"/>
<path d="M490.15 125.382H455.661C454.351 125.382 453.292 124.322 453.292 123.013C453.292 121.703 454.354 120.643 455.661 120.643H490.15C491.46 120.643 492.518 121.703 492.518 123.013C492.518 124.322 491.457 125.382 490.15 125.382Z" fill="#333343"/>
<path d="M371.043 172.92V174.611H361.86V173.273L368.198 165.542H361.968V163.851H370.843V165.189L364.506 172.92H371.043Z" fill="#333343"/>
<path d="M379.596 169.8V174.611H377.78V173.611C377.319 174.318 376.427 174.718 375.196 174.718C373.32 174.718 372.135 173.688 372.135 172.259C372.135 170.829 373.058 169.815 375.55 169.815H377.673V169.692C377.673 168.57 376.996 167.909 375.627 167.909C374.704 167.909 373.75 168.216 373.135 168.724L372.381 167.325C373.258 166.649 374.535 166.311 375.858 166.311C378.227 166.311 379.596 167.433 379.596 169.8ZM377.673 172.044V171.091H375.689C374.381 171.091 374.027 171.583 374.027 172.182C374.027 172.874 374.612 173.319 375.596 173.319C376.581 173.319 377.35 172.889 377.673 172.044Z" fill="#333343"/>
<path d="M390.147 169.907V174.611H388.225V170.153C388.225 168.693 387.502 167.986 386.271 167.986C384.902 167.986 383.979 168.816 383.979 170.461V174.611H382.057V163.206H383.979V167.356C384.61 166.679 385.579 166.311 386.717 166.311C388.686 166.311 390.147 167.433 390.147 169.907Z" fill="#333343"/>
<path d="M392.593 163.206H394.516V174.611H392.593V163.206Z" fill="#333343"/>
<path d="M404.991 166.403V174.611H403.16V173.565C402.545 174.319 401.576 174.718 400.515 174.718C398.407 174.718 396.977 173.565 396.977 171.091V166.403H398.9V170.829C398.9 172.32 399.607 173.027 400.822 173.027C402.161 173.027 403.068 172.197 403.068 170.553V166.403H404.991Z" fill="#333343"/>
<path d="M415.604 169.907V174.611H413.682V170.153C413.682 168.693 412.959 167.986 411.728 167.986C410.359 167.986 409.436 168.816 409.436 170.461V174.611H407.513V166.403H409.344V167.463C409.975 166.71 410.974 166.311 412.174 166.311C414.143 166.311 415.604 167.433 415.604 169.907Z" fill="#333343"/>
<path d="M426.279 166.403V173.366C426.279 176.347 424.726 177.7 421.849 177.7C420.311 177.7 418.788 177.3 417.85 176.532L418.711 175.087C419.434 175.686 420.603 176.071 421.742 176.071C423.557 176.071 424.356 175.241 424.356 173.581V173.15C423.68 173.888 422.711 174.242 421.603 174.242C419.25 174.242 417.45 172.643 417.45 170.261C417.45 167.878 419.25 166.311 421.603 166.311C422.757 166.311 423.772 166.679 424.449 167.494V166.403H426.279ZM424.387 170.261C424.387 168.877 423.341 167.94 421.895 167.94C420.45 167.94 419.388 168.877 419.388 170.261C419.388 171.644 420.434 172.612 421.895 172.612C423.357 172.612 424.387 171.659 424.387 170.261Z" fill="#333343"/>
<path d="M305.789 201.101C305.789 202.321 304.886 203.018 303.092 203.018H299.79V195.845H302.887C304.486 195.845 305.409 196.521 305.409 197.689C305.409 198.509 304.968 199.052 304.312 199.318C305.235 199.523 305.789 200.128 305.789 201.101ZM300.549 196.47V199.072H302.835C303.984 199.072 304.65 198.632 304.65 197.771C304.65 196.91 303.984 196.47 302.835 196.47H300.549ZM305.03 201.04C305.03 200.107 304.343 199.698 303.081 199.698H300.549V202.392H303.081C304.343 202.392 305.03 201.983 305.03 201.04Z" fill="#333343"/>
<path d="M312.064 200.548H307.552C307.634 201.675 308.496 202.423 309.675 202.423C310.331 202.423 310.916 202.188 311.326 201.716L311.736 202.187C311.254 202.761 310.506 203.069 309.654 203.069C307.973 203.069 306.824 201.921 306.824 200.323C306.824 198.724 307.942 197.587 309.46 197.587C310.977 197.587 312.075 198.704 312.075 200.323C312.075 200.384 312.064 200.466 312.064 200.548ZM307.552 200.005H311.377C311.285 198.95 310.516 198.212 309.46 198.212C308.403 198.212 307.645 198.95 307.552 200.005Z" fill="#333343"/>
<path d="M316.402 202.69C316.115 202.946 315.684 203.069 315.264 203.069C314.249 203.069 313.685 202.495 313.685 201.501V198.242H312.721V197.628H313.685V196.449H314.413V197.628H316.053V198.242H314.413V201.46C314.413 202.095 314.741 202.444 315.346 202.444C315.643 202.444 315.94 202.351 316.146 202.167L316.402 202.69Z" fill="#333343"/>
<path d="M320.442 197.587V198.294C320.381 198.294 320.319 198.283 320.268 198.283C319.14 198.283 318.453 199.001 318.453 200.271V203.018H317.725V197.628H318.422V198.683C318.761 197.966 319.448 197.587 320.442 197.587Z" fill="#333343"/>
<path d="M325.816 199.677V203.018H325.118V202.177C324.79 202.731 324.154 203.069 323.262 203.069C322.042 203.069 321.293 202.433 321.293 201.501C321.293 200.671 321.827 199.974 323.375 199.974H325.088V199.646C325.088 198.724 324.565 198.222 323.56 198.222C322.862 198.222 322.206 198.468 321.765 198.857L321.437 198.314C321.981 197.853 322.78 197.587 323.631 197.587C325.026 197.587 325.816 198.283 325.816 199.677ZM325.088 201.399V200.517H323.396C322.35 200.517 322.011 200.927 322.011 201.48C322.011 202.106 322.514 202.495 323.375 202.495C324.237 202.495 324.801 202.106 325.088 201.399Z" fill="#333343"/>
<path d="M332.809 197.628V202.362C332.809 204.216 331.897 205.057 330.112 205.057C329.128 205.057 328.164 204.759 327.6 204.227L327.969 203.673C328.482 204.134 329.261 204.411 330.092 204.411C331.456 204.411 332.081 203.786 332.081 202.454V201.767C331.63 202.454 330.861 202.813 329.979 202.813C328.441 202.813 327.272 201.737 327.272 200.189C327.272 198.642 328.441 197.587 329.979 197.587C330.881 197.587 331.661 197.956 332.112 198.663V197.628H332.809ZM332.102 200.189C332.102 199.021 331.24 198.222 330.051 198.222C328.861 198.222 328.01 199.021 328.01 200.189C328.01 201.358 328.861 202.167 330.051 202.167C331.24 202.167 332.102 201.358 332.102 200.189Z" fill="#333343"/>
<path d="M339.546 200.548H335.034C335.117 201.675 335.978 202.423 337.157 202.423C337.813 202.423 338.398 202.188 338.808 201.716L339.218 202.187C338.736 202.761 337.988 203.069 337.137 203.069C335.455 203.069 334.306 201.921 334.306 200.323C334.306 198.724 335.424 197.587 336.942 197.587C338.459 197.587 339.557 198.704 339.557 200.323C339.557 200.384 339.546 200.466 339.546 200.548ZM335.034 200.005H338.859C338.767 198.95 337.998 198.212 336.942 198.212C335.886 198.212 335.127 198.95 335.034 200.005Z" fill="#333343"/>
<path d="M435.231 202.362V203.018H430.155V195.845H435.078V196.501H430.914V199.052H434.626V199.698H430.914V202.362H435.231Z" fill="#333343"/>
<path d="M441.64 197.628V203.018H440.943V202.034C440.564 202.69 439.866 203.069 439.005 203.069C437.631 203.069 436.729 202.3 436.729 200.753V197.628H437.457V200.681C437.457 201.829 438.051 202.413 439.077 202.413C440.205 202.413 440.912 201.685 440.912 200.456V197.628H441.64Z" fill="#333343"/>
<path d="M446.398 197.587V198.294C446.337 198.294 446.275 198.283 446.224 198.283C445.096 198.283 444.409 199.001 444.409 200.271V203.018H443.681V197.628H444.378V198.683C444.717 197.966 445.404 197.587 446.398 197.587Z" fill="#333343"/>
<path d="M447.342 198.14C447.342 197.822 447.588 197.587 447.885 197.587C448.183 197.587 448.439 197.822 448.439 198.14C448.439 198.458 448.183 198.704 447.885 198.704C447.588 198.704 447.342 198.458 447.342 198.14ZM447.342 202.505C447.342 202.188 447.588 201.952 447.885 201.952C448.183 201.952 448.439 202.188 448.439 202.505C448.439 202.823 448.183 203.069 447.885 203.069C447.588 203.069 447.342 202.823 447.342 202.505Z" fill="#333343"/>
<path d="M454.182 195.847V203.02H453.443V196.503H451.751V195.847H454.182Z" fill="#333343"/>
<path d="M455.894 199.431C455.894 197.146 457.094 195.783 458.755 195.783C460.416 195.783 461.626 197.146 461.626 199.431C461.626 201.716 460.416 203.079 458.755 203.079C457.094 203.079 455.894 201.716 455.894 199.431ZM460.868 199.431C460.868 197.515 460.006 196.459 458.755 196.459C457.504 196.459 456.643 197.515 456.643 199.431C456.643 201.347 457.504 202.403 458.755 202.403C460.006 202.403 460.868 201.347 460.868 199.431Z" fill="#333343"/>
<path d="M462.683 199.431C462.683 197.146 463.883 195.783 465.544 195.783C467.205 195.783 468.415 197.146 468.415 199.431C468.415 201.716 467.205 203.079 465.544 203.079C463.883 203.079 462.683 201.716 462.683 199.431ZM467.656 199.431C467.656 197.515 466.795 196.459 465.544 196.459C464.293 196.459 463.431 197.515 463.431 199.431C463.431 201.347 464.293 202.403 465.544 202.403C466.795 202.403 467.656 201.347 467.656 199.431Z" fill="#333343"/>
<path d="M469.369 202.505C469.369 202.187 469.615 201.952 469.912 201.952C470.21 201.952 470.466 202.187 470.466 202.505C470.466 202.823 470.21 203.069 469.912 203.069C469.615 203.069 469.369 202.823 469.369 202.505Z" fill="#333343"/>
<path d="M471.42 199.431C471.42 197.146 472.619 195.783 474.281 195.783C475.942 195.783 477.152 197.146 477.152 199.431C477.152 201.716 475.942 203.079 474.281 203.079C472.619 203.079 471.42 201.716 471.42 199.431ZM476.393 199.431C476.393 197.515 475.532 196.459 474.281 196.459C473.03 196.459 472.168 197.515 472.168 199.431C472.168 201.347 473.03 202.403 474.281 202.403C475.532 202.403 476.393 201.347 476.393 199.431Z" fill="#333343"/>
<path d="M478.208 199.431C478.208 197.146 479.408 195.783 481.069 195.783C482.73 195.783 483.94 197.146 483.94 199.431C483.94 201.716 482.73 203.079 481.069 203.079C479.408 203.079 478.208 201.716 478.208 199.431ZM483.181 199.431C483.181 197.515 482.32 196.459 481.069 196.459C479.818 196.459 478.957 197.515 478.957 199.431C478.957 201.347 479.818 202.403 481.069 202.403C482.32 202.403 483.181 201.347 483.181 199.431Z" fill="#333343"/>
<path d="M486.735 211.435H295.501C293.006 211.435 290.976 209.406 290.976 206.914V190.99C290.976 188.498 293.006 186.469 295.501 186.469H486.735C489.229 186.469 491.26 188.498 491.26 190.99V206.914C491.26 209.406 489.229 211.435 486.735 211.435ZM295.501 186.727C293.147 186.727 291.232 188.641 291.232 190.993V206.916C291.232 209.268 293.147 211.182 295.501 211.182H486.735C489.088 211.182 491.003 209.268 491.003 206.916V190.993C491.003 188.641 489.088 186.727 486.735 186.727H295.501Z" fill="#333343"/>
<path d="M389.829 416.798H301.423C299.179 416.798 297.359 418.615 297.359 420.858V444.577C297.359 446.819 299.179 448.637 301.423 448.637H389.829C392.074 448.637 393.893 446.819 393.893 444.577V420.858C393.893 418.615 392.074 416.798 389.829 416.798Z" fill="#5264AE"/>
<path d="M491.488 449.278H403.084C400.489 449.278 398.379 447.169 398.379 444.577V420.861C398.379 418.268 400.489 416.16 403.084 416.16H491.488C494.082 416.16 496.192 418.268 496.192 420.861V444.577C496.192 447.169 494.082 449.278 491.488 449.278ZM403.084 417.438C401.197 417.438 399.661 418.973 399.661 420.858V444.574C399.661 446.46 401.197 447.994 403.084 447.994H491.488C493.375 447.994 494.91 446.46 494.91 444.574V420.858C494.91 418.973 493.375 417.438 491.488 417.438H403.084Z" fill="#5264AE"/>
<path d="M320.24 435.168L320.619 434.368C321.152 434.85 322.065 435.198 322.988 435.198C324.229 435.198 324.762 434.717 324.762 434.092C324.762 432.34 320.414 433.446 320.414 430.782C320.414 429.675 321.275 428.733 323.162 428.733C324.003 428.733 324.875 428.958 325.47 429.368L325.131 430.188C324.506 429.788 323.798 429.604 323.162 429.604C321.942 429.604 321.419 430.116 321.419 430.741C321.419 432.493 325.767 431.397 325.767 434.03C325.767 435.127 324.885 436.069 322.988 436.069C321.891 436.069 320.814 435.701 320.24 435.168Z" fill="white"/>
<path d="M326.618 433.272C326.618 431.653 327.818 430.505 329.489 430.505C330.463 430.505 331.274 430.905 331.704 431.663L330.956 432.145C330.607 431.612 330.074 431.366 329.479 431.366C328.413 431.366 327.613 432.114 327.613 433.272C327.613 434.43 328.413 435.188 329.479 435.188C330.074 435.188 330.607 434.942 330.956 434.409L331.704 434.881C331.274 435.639 330.463 436.049 329.489 436.049C327.818 436.049 326.618 434.891 326.618 433.272Z" fill="white"/>
<path d="M337.283 432.708V435.987H336.35V435.27C336.021 435.762 335.416 436.049 334.565 436.049C333.335 436.049 332.555 435.393 332.555 434.45C332.555 433.579 333.119 432.862 334.74 432.862H336.298V432.667C336.298 431.837 335.816 431.356 334.842 431.356C334.196 431.356 333.54 431.581 333.119 431.94L332.709 431.202C333.273 430.751 334.083 430.505 334.955 430.505C336.442 430.505 337.283 431.223 337.283 432.708ZM336.298 434.327V433.569H334.781C333.806 433.569 333.53 433.948 333.53 434.409C333.53 434.953 333.981 435.291 334.729 435.291C335.478 435.291 336.052 434.952 336.298 434.327Z" fill="white"/>
<path d="M344.266 432.862V435.987H343.282V432.975C343.282 431.909 342.748 431.387 341.815 431.387C340.769 431.387 340.092 432.012 340.092 433.19V435.987H339.108V430.557H340.051V431.376C340.451 430.823 341.149 430.505 342.01 430.505C343.333 430.505 344.266 431.264 344.266 432.862Z" fill="white"/>
<path d="M348.204 433.456L347.076 434.502V435.987H346.091V428.387H347.076V433.264L350.039 430.559H351.229L348.942 432.803L351.455 435.99H350.245L348.204 433.459V433.456Z" fill="white"/>
<path d="M356.612 432.708V435.987H355.679V435.27C355.351 435.762 354.746 436.049 353.895 436.049C352.664 436.049 351.885 435.393 351.885 434.45C351.885 433.579 352.449 432.862 354.069 432.862H355.628V432.667C355.628 431.837 355.146 431.356 354.172 431.356C353.526 431.356 352.87 431.581 352.449 431.94L352.039 431.202C352.603 430.751 353.413 430.505 354.285 430.505C355.772 430.505 356.612 431.223 356.612 432.708ZM355.628 434.327V433.569H354.11C353.136 433.569 352.859 433.948 352.859 434.409C352.859 434.953 353.311 435.291 354.059 435.291C354.808 435.291 355.382 434.952 355.628 434.327Z" fill="white"/>
<path d="M361.36 430.505V431.458C361.278 431.448 361.207 431.448 361.135 431.448C360.079 431.448 359.422 432.094 359.422 433.282V435.987H358.438V430.557H359.381V431.469C359.73 430.833 360.407 430.505 361.36 430.505Z" fill="white"/>
<path d="M365.852 435.667C365.554 435.923 365.103 436.046 364.662 436.046C363.565 436.046 362.94 435.442 362.94 434.345V431.364H362.017V430.554H362.94V429.365H363.924V430.554H365.483V431.364H363.924V434.304C363.924 434.888 364.232 435.216 364.775 435.216C365.062 435.216 365.339 435.124 365.544 434.96L365.852 435.667Z" fill="white"/>
<path d="M371.748 433.6H367.339C367.462 434.553 368.231 435.188 369.308 435.188C369.943 435.188 370.477 434.973 370.877 434.532L371.42 435.168C370.928 435.742 370.179 436.049 369.277 436.049C367.523 436.049 366.354 434.891 366.354 433.272C366.354 431.653 367.513 430.505 369.082 430.505C370.651 430.505 371.769 431.633 371.769 433.303C371.769 433.385 371.759 433.508 371.748 433.6ZM367.339 432.893H370.825C370.723 431.981 370.036 431.335 369.082 431.335C368.128 431.335 367.441 431.971 367.339 432.893Z" fill="white"/>
<path d="M430.309 432.401C430.309 430.28 431.929 428.733 434.114 428.733C435.221 428.733 436.185 429.112 436.841 429.85L436.175 430.495C435.621 429.911 434.944 429.645 434.155 429.645C432.534 429.645 431.335 430.813 431.335 432.401C431.335 433.989 432.534 435.157 434.155 435.157C434.944 435.157 435.621 434.881 436.175 434.297L436.841 434.942C436.185 435.68 435.221 436.069 434.103 436.069C431.929 436.069 430.309 434.522 430.309 432.401Z" fill="#5264AE"/>
<path d="M442.399 432.708V435.987H441.466V435.27C441.138 435.762 440.533 436.049 439.682 436.049C438.451 436.049 437.672 435.393 437.672 434.45C437.672 433.579 438.236 432.862 439.856 432.862H441.415V432.667C441.415 431.837 440.933 431.356 439.959 431.356C439.313 431.356 438.656 431.581 438.236 431.94L437.826 431.202C438.39 430.751 439.2 430.505 440.072 430.505C441.558 430.505 442.399 431.223 442.399 432.708ZM441.415 434.327V433.569H439.897C438.923 433.569 438.646 433.948 438.646 434.409C438.646 434.953 439.097 435.291 439.846 435.291C440.595 435.291 441.169 434.952 441.415 434.327Z" fill="#5264AE"/>
<path d="M449.383 432.862V435.987H448.398V432.975C448.398 431.909 447.865 431.387 446.932 431.387C445.886 431.387 445.209 432.012 445.209 433.19V435.987H444.225V430.557H445.168V431.376C445.568 430.823 446.265 430.505 447.127 430.505C448.449 430.505 449.383 431.264 449.383 432.862Z" fill="#5264AE"/>
<path d="M450.736 433.272C450.736 431.653 451.936 430.505 453.607 430.505C454.582 430.505 455.392 430.905 455.822 431.663L455.074 432.145C454.725 431.612 454.192 431.366 453.597 431.366C452.531 431.366 451.731 432.114 451.731 433.272C451.731 434.43 452.531 435.188 453.597 435.188C454.192 435.188 454.725 434.942 455.074 434.409L455.822 434.881C455.392 435.639 454.582 436.049 453.607 436.049C451.936 436.049 450.736 434.891 450.736 433.272Z" fill="#5264AE"/>
<path d="M461.903 433.6H457.494C457.617 434.553 458.386 435.188 459.463 435.188C460.099 435.188 460.632 434.973 461.032 434.532L461.575 435.168C461.083 435.742 460.334 436.049 459.432 436.049C457.679 436.049 456.51 434.891 456.51 433.272C456.51 431.653 457.668 430.505 459.237 430.505C460.806 430.505 461.924 431.633 461.924 433.303C461.924 433.385 461.914 433.508 461.903 433.6ZM457.494 432.893H460.98C460.878 431.981 460.191 431.335 459.237 431.335C458.284 431.335 457.596 431.971 457.494 432.893Z" fill="#5264AE"/>
<path d="M463.288 428.384H464.272V435.985H463.288V428.384Z" fill="#5264AE"/>
<path d="M298.682 530.041L301.495 514.23H305.891L303.166 530.041H298.682Z" fill="#3C58BF"/>
<path d="M298.682 530.041L302.287 514.23H305.891L303.166 530.041H298.682Z" fill="#293688"/>
<path d="M319.073 514.407C318.194 514.056 316.789 513.705 315.03 513.705C310.636 513.705 307.47 515.9 307.47 519.061C307.47 521.433 309.667 522.663 311.426 523.452C313.185 524.244 313.71 524.769 313.71 525.473C313.71 526.526 312.303 527.054 311.072 527.054C309.314 527.054 308.347 526.79 306.852 526.175L306.237 525.911L305.622 529.513C306.676 529.951 308.611 530.392 310.631 530.392C315.289 530.392 318.366 528.196 318.366 524.858C318.366 523.014 317.222 521.608 314.587 520.468C313.005 519.676 312.039 519.238 312.039 518.446C312.039 517.745 312.831 517.04 314.587 517.04C316.082 517.04 317.135 517.304 317.927 517.655L318.366 517.832L319.068 514.407H319.073Z" fill="#3C58BF"/>
<path d="M319.073 514.407C318.194 514.056 316.789 513.705 315.03 513.705C310.636 513.705 308.262 515.9 308.262 519.061C308.262 521.433 309.67 522.663 311.426 523.452C313.185 524.244 313.71 524.769 313.71 525.473C313.71 526.526 312.303 527.054 311.072 527.054C309.314 527.054 308.347 526.79 306.852 526.175L306.237 525.911L305.622 529.513C306.676 529.951 308.611 530.392 310.631 530.392C315.289 530.392 318.366 528.196 318.366 524.858C318.366 523.014 317.222 521.608 314.587 520.468C313.005 519.676 312.039 519.238 312.039 518.446C312.039 517.745 312.831 517.04 314.587 517.04C316.082 517.04 317.135 517.304 317.927 517.655L318.366 517.832L319.068 514.407H319.073Z" fill="#293688"/>
<path d="M326.633 514.23C325.58 514.23 324.788 514.317 324.349 515.372L317.758 530.041H322.503L323.383 527.405H329.007L329.535 530.041H333.755L330.064 514.232H326.636L326.633 514.23ZM324.611 524.769C324.875 523.977 326.369 520.114 326.369 520.114C326.369 520.114 326.721 519.148 326.985 518.534L327.249 520.027C327.249 520.027 328.128 523.98 328.302 524.858H324.611V524.771V524.769Z" fill="#3C58BF"/>
<path d="M327.687 514.23C326.633 514.23 325.841 514.317 325.403 515.372L317.756 530.041H322.501L323.38 527.405H329.005L329.533 530.041H333.753L330.061 514.232H327.687V514.23ZM324.611 524.769C324.962 523.89 326.369 520.114 326.369 520.114C326.369 520.114 326.721 519.148 326.985 518.534L327.249 520.027C327.249 520.027 328.128 523.98 328.302 524.858H324.611V524.771V524.769Z" fill="#293688"/>
<path d="M290.597 525.297L290.158 523.014C289.366 520.378 286.818 517.481 284.005 516.074L287.961 530.128H292.706L299.826 514.32H295.08L290.597 525.299V525.297Z" fill="#3C58BF"/>
<path d="M290.597 525.297L290.158 523.014C289.366 520.378 286.818 517.481 284.005 516.074L287.961 530.128H292.706L299.826 514.32H295.957L290.597 525.299V525.297Z" fill="#293688"/>
<path d="M278.378 514.23L279.17 514.407C284.795 515.723 288.664 519.061 290.158 523.014L288.576 515.549C288.312 514.496 287.523 514.232 286.554 514.232H278.378V514.23Z" fill="#FFBC00"/>
<path d="M278.378 514.23C284.003 515.547 288.661 518.972 290.156 522.924L288.661 516.689C288.397 515.636 287.518 515.021 286.551 515.021L278.376 514.23H278.378Z" fill="#F7981D"/>
<path d="M278.378 514.23C284.003 515.547 288.661 518.972 290.156 522.924L289.102 519.499C288.838 518.446 288.487 517.391 287.256 516.953L278.378 514.23Z" fill="#ED7C00"/>
<path d="M294.991 524.769L292.001 521.782L290.594 525.12L290.243 522.924C289.451 520.288 286.902 517.391 284.09 515.985L288.046 530.038H292.791L294.988 524.769H294.991Z" fill="#051244"/>
<path d="M303.166 530.041L299.387 526.175L298.682 530.041H303.166Z" fill="#051244"/>
<path d="M313.275 524.594C313.626 524.945 313.803 525.209 313.713 525.56C313.713 526.613 312.305 527.141 311.075 527.141C309.316 527.141 308.35 526.877 306.855 526.262L306.24 525.998L305.625 529.6C306.678 530.038 308.614 530.479 310.634 530.479C313.446 530.479 315.733 529.687 317.051 528.283L313.272 524.594H313.275Z" fill="#051244"/>
<path d="M318.371 530.041H322.501L323.38 527.405H329.005L329.533 530.041H333.753L332.258 523.629L326.985 518.534L327.249 519.94C327.249 519.94 328.128 523.893 328.302 524.771H324.611C324.962 523.893 326.369 520.117 326.369 520.117C326.369 520.117 326.721 519.151 326.985 518.536" fill="#051244"/>
<path d="M403.345 518.08H399.799C399.592 518.08 399.382 518.288 399.279 518.498L397.82 527.666C397.82 527.874 397.925 527.979 398.133 527.979H400.01C400.217 527.979 400.322 527.874 400.322 527.666L400.74 525.061C400.74 524.853 400.948 524.643 401.261 524.643H402.407C404.804 524.643 406.16 523.498 406.473 521.205C406.68 520.268 406.473 519.435 406.055 518.913C405.429 518.393 404.491 518.08 403.342 518.08M403.76 521.518C403.553 522.768 402.614 522.768 401.676 522.768H401.05L401.468 520.373C401.468 520.268 401.573 520.165 401.781 520.165H401.989C402.614 520.165 403.24 520.165 403.553 520.583C403.76 520.688 403.76 521.001 403.76 521.521" fill="#139AD6"/>
<path d="M377.798 518.08H374.253C374.045 518.08 373.835 518.288 373.733 518.498L372.274 527.666C372.274 527.874 372.379 527.979 372.587 527.979H374.255C374.463 527.979 374.673 527.771 374.776 527.561L375.194 525.061C375.194 524.853 375.401 524.643 375.714 524.643H376.86C379.257 524.643 380.613 523.498 380.926 521.205C381.134 520.268 380.926 519.435 380.508 518.913C379.883 518.393 379.049 518.08 377.796 518.08M378.214 521.518C378.006 522.768 377.068 522.768 376.13 522.768H375.609L376.027 520.373C376.027 520.268 376.132 520.165 376.34 520.165H376.547C377.173 520.165 377.798 520.165 378.111 520.583C378.216 520.688 378.319 521.001 378.216 521.521" fill="#263B80"/>
<path d="M388.54 521.413H386.871C386.766 521.413 386.558 521.518 386.558 521.62L386.453 522.14L386.348 521.933C385.93 521.413 385.202 521.203 384.367 521.203C382.49 521.203 380.821 522.661 380.508 524.641C380.301 525.683 380.613 526.621 381.134 527.246C381.654 527.871 382.385 528.079 383.323 528.079C384.887 528.079 385.72 527.141 385.72 527.141L385.615 527.661C385.615 527.868 385.72 527.974 385.928 527.974H387.492C387.699 527.974 387.909 527.766 388.012 527.556L388.95 521.72C388.845 521.615 388.638 521.408 388.532 521.408M386.135 524.743C385.928 525.681 385.197 526.411 384.154 526.411C383.633 526.411 383.215 526.203 383.008 525.993C382.8 525.681 382.695 525.263 382.695 524.743C382.8 523.806 383.633 523.076 384.572 523.076C385.092 523.076 385.405 523.283 385.718 523.493C386.03 523.806 386.135 524.326 386.135 524.743Z" fill="#263B80"/>
<path d="M413.982 521.413H412.313C412.207 521.413 412 521.518 412 521.62L411.895 522.14L411.79 521.933C411.372 521.413 410.644 521.203 409.808 521.203C407.931 521.203 406.262 522.661 405.95 524.641C405.742 525.683 406.055 526.621 406.575 527.246C407.096 527.871 407.826 528.079 408.765 528.079C410.328 528.079 411.162 527.141 411.162 527.141L411.056 527.661C411.056 527.868 411.162 527.974 411.369 527.974H412.933C413.141 527.974 413.351 527.766 413.453 527.556L414.392 521.72C414.287 521.615 414.184 521.408 413.974 521.408M411.577 524.743C411.369 525.681 410.639 526.411 409.595 526.411C409.075 526.411 408.657 526.203 408.449 525.993C408.242 525.681 408.136 525.263 408.136 524.743C408.242 523.806 409.075 523.076 410.013 523.076C410.533 523.076 410.846 523.283 411.159 523.493C411.577 523.806 411.679 524.326 411.577 524.743Z" fill="#139AD6"/>
<path d="M397.61 521.413H395.839C395.631 521.413 395.526 521.518 395.421 521.62L393.126 525.163L392.083 521.828C391.978 521.62 391.875 521.515 391.562 521.515H389.894C389.686 521.515 389.581 521.723 389.581 521.933L391.457 527.456L389.686 529.956C389.581 530.164 389.686 530.476 389.894 530.476H391.562C391.77 530.476 391.875 530.371 391.98 530.269L397.715 522.038C398.028 521.725 397.82 521.413 397.61 521.413Z" fill="#263B80"/>
<path d="M415.963 518.393L414.504 527.771C414.504 527.979 414.61 528.084 414.817 528.084H416.276C416.484 528.084 416.694 527.876 416.796 527.666L418.255 518.498C418.255 518.29 418.15 518.185 417.942 518.185H416.273C416.168 518.08 416.066 518.185 415.961 518.393" fill="#139AD6"/>
<path d="M364.557 514.955C363.827 514.122 362.473 513.705 360.594 513.705H355.379C355.067 513.705 354.754 514.017 354.649 514.33L352.565 527.979C352.565 528.291 352.772 528.499 352.982 528.499H356.215L357.048 523.393V523.601C357.153 523.288 357.466 522.976 357.779 522.976H359.343C362.368 522.976 364.66 521.725 365.39 518.288V517.975C365.32 517.975 365.32 517.975 365.39 517.975C365.496 516.62 365.285 515.787 364.557 514.952" fill="#263B80"/>
<path d="M365.288 517.975V518.288C364.557 521.83 362.263 522.976 359.24 522.976H357.676C357.364 522.976 357.051 523.288 356.946 523.601L355.902 529.956C355.902 530.164 356.008 530.374 356.32 530.374H359.033C359.345 530.374 359.658 530.166 359.658 529.854V529.749L360.179 526.518V526.311C360.179 525.998 360.491 525.791 360.804 525.791H361.222C363.829 525.791 365.913 524.748 366.436 521.623C366.644 520.373 366.542 519.228 365.916 518.498C365.811 518.29 365.603 518.08 365.29 517.978" fill="#139AD6"/>
<path d="M364.557 517.663C364.452 517.663 364.35 517.558 364.244 517.558C364.139 517.558 364.037 517.558 363.932 517.453C363.514 517.348 363.099 517.348 362.576 517.348H358.51C358.405 517.348 358.302 517.348 358.197 517.453C357.989 517.558 357.884 517.765 357.884 517.973L357.051 523.391V523.598C357.156 523.286 357.469 522.973 357.782 522.973H359.345C362.37 522.973 364.662 521.723 365.393 518.285C365.393 518.18 365.393 518.078 365.498 517.973C365.29 517.868 365.185 517.765 364.978 517.765C364.769 517.695 364.63 517.66 364.56 517.66" fill="#232C65"/>
<path d="M443.925 530.479C448.56 530.479 452.318 526.724 452.318 522.092C452.318 517.46 448.56 513.705 443.925 513.705C439.289 513.705 435.531 517.46 435.531 522.092C435.531 526.724 439.289 530.479 443.925 530.479Z" fill="#EE0005"/>
<path d="M454.351 530.479C458.986 530.479 462.744 526.724 462.744 522.092C462.744 517.46 458.986 513.705 454.351 513.705C449.715 513.705 445.958 517.46 445.958 522.092C445.958 526.724 449.715 530.479 454.351 530.479Z" fill="#0098E2"/>
<path fill-rule="evenodd" clip-rule="evenodd" d="M495.169 528.304C496.638 529.657 498.612 530.479 500.76 530.479C505.372 530.479 509.105 526.721 509.105 522.099C509.105 517.478 505.372 513.705 500.76 513.705C498.612 513.705 496.638 514.524 495.169 515.88C493.482 517.419 492.416 519.638 492.416 522.099C492.416 524.561 493.482 526.78 495.169 528.306V528.304Z" fill="#FAB31E"/>
<path fill-rule="evenodd" clip-rule="evenodd" d="M497.866 521.205C497.838 520.903 497.779 520.616 497.722 520.314H492.621C492.677 520.012 492.764 519.725 492.852 519.435H497.476C497.376 519.133 497.261 518.831 497.13 518.544H493.21C493.354 518.242 493.513 517.939 493.685 517.652H496.638C496.451 517.35 496.236 517.048 496.005 516.774H494.318C494.577 516.456 494.867 516.154 495.169 515.882C493.685 514.542 491.726 513.707 489.565 513.707C484.968 513.707 481.22 517.465 481.22 522.102C481.22 526.739 484.966 530.481 489.565 530.481C491.726 530.481 493.687 529.662 495.169 528.306C495.472 528.032 495.746 527.745 496.005 527.428H494.318C494.087 527.141 493.885 526.851 493.685 526.536H496.638C496.825 526.249 496.984 525.96 497.128 525.645H493.208C493.077 525.358 492.949 525.068 492.846 524.766H497.471C497.571 524.479 497.643 524.177 497.715 523.875C497.774 523.588 497.83 523.283 497.858 522.983C497.886 522.696 497.902 522.407 497.902 522.105C497.902 521.802 497.886 521.5 497.858 521.213L497.866 521.205Z" fill="#E40520"/>
<path fill-rule="evenodd" clip-rule="evenodd" d="M507.995 524.041C507.995 523.882 508.11 523.767 508.254 523.767C508.413 523.767 508.528 523.882 508.528 524.041C508.528 524.185 508.413 524.315 508.254 524.315C508.11 524.315 507.995 524.185 507.995 524.041ZM508.254 524.244C508.369 524.244 508.469 524.156 508.469 524.041C508.469 523.926 508.369 523.839 508.254 523.839C508.154 523.839 508.051 523.926 508.051 524.041C508.051 524.156 508.151 524.244 508.254 524.244ZM508.226 524.156H508.169V523.926H508.328C508.356 523.941 508.356 523.969 508.356 523.998C508.356 524.013 508.341 524.041 508.313 524.057L508.369 524.156H508.297L508.269 524.069H508.226V524.026H508.254C508.269 524.026 508.282 524.026 508.282 524.01C508.297 524.01 508.297 523.995 508.297 523.982C508.297 523.982 508.297 523.967 508.282 523.967C508.282 523.952 508.267 523.967 508.254 523.967H508.226V524.154V524.156Z" fill="white"/>
<path fill-rule="evenodd" clip-rule="evenodd" d="M492.331 524.518C492.057 524.589 491.857 524.633 491.654 524.633C491.221 524.633 490.962 524.359 490.962 523.87C490.962 523.77 490.978 523.667 490.99 523.552L491.047 523.221L491.09 522.947L491.48 520.585H492.344L492.244 521.103H492.793L492.662 521.966H492.113L491.883 523.378C491.867 523.449 491.867 523.493 491.867 523.521C491.867 523.708 491.954 523.78 492.17 523.78C492.27 523.78 492.357 523.765 492.444 523.752L492.329 524.515L492.331 524.518Z" fill="#06326E"/>
<path fill-rule="evenodd" clip-rule="evenodd" d="M495.128 524.49C494.81 524.577 494.523 524.62 494.205 524.62C493.226 524.62 492.664 524.103 492.664 523.081C492.664 521.887 493.328 521.021 494.249 521.021C494.985 521.021 495.459 521.51 495.459 522.274C495.459 522.532 495.431 522.778 495.359 523.124H493.557C493.541 523.183 493.541 523.211 493.541 523.239C493.541 523.642 493.816 523.844 494.333 523.844C494.664 523.844 494.954 523.772 495.269 523.629L495.126 524.492L495.128 524.49ZM494.595 522.43V522.258C494.595 521.971 494.436 521.813 494.162 521.813C493.874 521.813 493.672 522.028 493.585 522.433H494.592L494.595 522.43Z" fill="#06326E"/>
<path fill-rule="evenodd" clip-rule="evenodd" d="M485.414 524.561H484.522L485.04 521.293L483.874 524.561H483.253L483.181 521.308L482.633 524.561H481.754L482.459 520.314H483.771L483.799 522.935L484.679 520.314H486.119L485.414 524.561Z" fill="#06326E"/>
<path fill-rule="evenodd" clip-rule="evenodd" d="M487.591 523.019C487.504 523.004 487.476 523.004 487.419 523.004C486.901 523.004 486.64 523.206 486.64 523.521C486.64 523.736 486.771 523.882 486.971 523.882C487.404 523.882 487.576 523.521 487.591 523.019ZM488.311 524.559H487.532L487.547 524.2C487.345 524.474 487.071 524.618 486.596 524.618C486.163 524.618 485.789 524.228 485.789 523.667C485.789 523.508 485.817 523.365 485.86 523.222C486.004 522.689 486.537 522.358 487.36 522.343C487.46 522.343 487.619 522.343 487.763 522.358C487.791 522.243 487.791 522.199 487.791 522.128C487.791 521.897 487.604 521.825 487.186 521.825C486.927 521.825 486.637 521.869 486.437 521.941L486.307 521.969L486.25 521.984L486.381 521.205C486.799 521.075 487.101 521.018 487.432 521.018C488.211 521.018 488.629 521.38 488.629 522.041C488.629 522.212 488.645 522.343 488.586 522.717L488.383 523.954L488.355 524.169L488.34 524.341L488.324 524.456L488.309 524.556L488.311 524.559Z" fill="#06326E"/>
<path fill-rule="evenodd" clip-rule="evenodd" d="M499.479 521.134C499.737 521.134 499.968 521.205 500.286 521.364L500.445 520.442C500.358 520.398 500.33 520.398 500.214 520.355L499.853 520.255C499.737 520.227 499.594 520.211 499.435 520.211C498.989 520.211 498.73 520.227 498.456 520.383C498.312 520.483 498.125 520.614 497.922 520.844L497.807 520.816L496.884 521.464L496.928 521.105H495.977L495.415 524.561H496.323L496.653 522.704C496.653 522.704 496.784 522.445 496.841 522.358C497.012 522.143 497.158 522.143 497.346 522.143H497.417C497.389 522.345 497.374 522.561 497.374 522.806C497.374 523.928 498.007 524.636 498.989 524.636C499.235 524.636 499.45 524.607 499.781 524.52L499.94 523.542C499.653 523.7 499.391 523.772 499.176 523.772C498.643 523.772 498.325 523.37 498.325 522.735C498.325 521.8 498.802 521.136 499.479 521.136V521.134Z" fill="#06326E"/>
<path fill-rule="evenodd" clip-rule="evenodd" d="M507.131 520.314L506.928 521.523C506.713 521.193 506.454 521.034 506.108 521.034C505.631 521.034 505.185 521.308 504.911 521.825V521.81L504.334 521.464L504.39 521.106H503.424L502.875 524.561H503.77L504.073 522.704C504.073 522.704 504.303 522.445 504.36 522.358C504.503 522.187 504.647 522.156 504.762 522.143C504.662 522.43 504.603 522.776 504.603 523.165C504.603 524.028 505.049 524.605 505.713 524.605C506.044 524.605 506.303 524.49 506.549 524.215L506.505 524.561H507.357L508.049 520.314H507.126H507.131ZM506.021 523.742C505.718 523.742 505.559 523.511 505.559 523.065C505.559 522.389 505.847 521.9 506.264 521.9C506.582 521.9 506.741 522.146 506.741 522.576C506.741 523.268 506.454 523.742 506.021 523.742Z" fill="#06326E"/>
<path fill-rule="evenodd" clip-rule="evenodd" d="M501.858 523.019C501.77 523.004 501.742 523.004 501.686 523.004C501.168 523.004 500.906 523.206 500.906 523.521C500.906 523.736 501.037 523.882 501.237 523.882C501.67 523.882 501.842 523.521 501.858 523.019ZM502.578 524.559H501.786L501.814 524.2C501.611 524.474 501.34 524.618 500.863 524.618C500.417 524.618 500.027 524.244 500.027 523.667C500.027 522.847 500.647 522.343 501.627 522.343C501.727 522.343 501.886 522.343 502.016 522.358C502.045 522.243 502.06 522.199 502.06 522.128C502.06 521.897 501.873 521.825 501.44 521.825C501.194 521.825 500.891 521.869 500.691 521.941L500.576 521.969L500.517 521.984L500.647 521.205C501.065 521.075 501.368 521.018 501.699 521.018C502.478 521.018 502.88 521.38 502.88 522.041C502.88 522.212 502.909 522.343 502.837 522.717L502.65 523.954L502.621 524.169L502.593 524.341L502.578 524.456V524.556V524.559Z" fill="#06326E"/>
<path fill-rule="evenodd" clip-rule="evenodd" d="M490.198 521.838C490.37 521.838 490.616 521.854 490.875 521.895L491.006 521.088C490.747 521.059 490.401 521.016 490.198 521.016C489.191 521.016 488.857 521.564 488.857 522.197C488.857 522.614 489.045 522.917 489.534 523.147C489.893 523.319 489.952 523.35 489.952 523.508C489.952 523.724 489.765 523.854 489.419 523.854C489.145 523.854 488.886 523.811 488.599 523.711L488.499 524.502L488.514 524.518L488.686 524.546C488.742 524.561 488.816 524.574 488.916 524.589C489.132 524.605 489.319 524.618 489.434 524.618C490.442 524.618 490.86 524.228 490.86 523.465C490.86 522.988 490.629 522.701 490.183 522.499C489.793 522.327 489.75 522.297 489.75 522.14C489.75 521.984 489.921 521.838 490.196 521.838H490.198Z" fill="#06326E"/>
<path fill-rule="evenodd" clip-rule="evenodd" d="M500.689 520.168L500.53 521.09C500.212 520.931 499.981 520.86 499.722 520.86C499.045 520.86 498.569 521.523 498.569 522.458C498.569 523.106 498.886 523.496 499.42 523.496C499.635 523.496 499.894 523.424 500.184 523.28L500.025 524.246C499.694 524.333 499.476 524.377 499.233 524.377C498.253 524.377 497.648 523.672 497.648 522.532C497.648 521.021 498.484 519.955 499.681 519.955C499.84 519.955 499.984 519.971 500.099 519.999L500.458 520.086C500.573 520.13 500.601 520.142 500.689 520.173V520.168Z" fill="white"/>
<path fill-rule="evenodd" clip-rule="evenodd" d="M497.779 520.803H497.692C497.389 520.803 497.215 520.947 496.943 521.364L497.03 520.831H496.21L495.649 524.287H496.556C496.887 522.171 496.974 521.81 497.407 521.81H497.464C497.551 521.392 497.666 521.09 497.81 520.816L497.782 520.801L497.779 520.803Z" fill="white"/>
<path fill-rule="evenodd" clip-rule="evenodd" d="M492.562 524.244C492.318 524.331 492.116 524.359 491.913 524.359C491.452 524.359 491.193 524.1 491.193 523.596C491.193 523.508 491.208 523.393 491.221 523.293L491.28 522.947L491.324 522.673L491.713 520.311H492.605L492.505 520.829H492.967L492.852 521.679H492.39L492.147 523.119C492.131 523.178 492.131 523.219 492.131 523.263C492.131 523.434 492.218 523.508 492.434 523.508C492.534 523.508 492.621 523.508 492.68 523.48L492.564 524.244H492.562Z" fill="white"/>
<path fill-rule="evenodd" clip-rule="evenodd" d="M489.088 521.925C489.088 522.358 489.291 522.66 489.765 522.891C490.139 523.063 490.198 523.122 490.198 523.265C490.198 523.48 490.039 523.583 489.68 523.583C489.406 523.583 489.163 523.539 488.873 523.452L488.742 524.244L488.786 524.259L488.945 524.287C489.001 524.302 489.075 524.315 489.191 524.315C489.393 524.343 489.565 524.343 489.68 524.343C490.631 524.343 491.078 523.982 491.078 523.191C491.078 522.714 490.89 522.443 490.444 522.225C490.055 522.053 490.011 522.01 490.011 521.851C490.011 521.664 490.17 521.577 490.457 521.577C490.629 521.577 490.875 521.592 491.106 521.62L491.236 520.829C491.006 520.785 490.647 520.757 490.444 520.757C489.437 520.757 489.075 521.29 489.091 521.923L489.088 521.925Z" fill="white"/>
<path fill-rule="evenodd" clip-rule="evenodd" d="M507.592 524.287H506.741L506.785 523.957C506.539 524.215 506.28 524.331 505.949 524.331C505.285 524.331 504.854 523.77 504.854 522.906C504.854 521.754 505.531 520.775 506.323 520.775C506.685 520.775 506.944 520.934 507.187 521.252L507.39 520.042H508.285L507.592 524.29V524.287ZM506.267 523.48C506.685 523.48 506.972 522.991 506.972 522.315C506.972 521.869 506.813 521.638 506.498 521.638C506.095 521.638 505.79 522.115 505.79 522.791C505.79 523.252 505.949 523.483 506.267 523.483V523.48Z" fill="white"/>
<path fill-rule="evenodd" clip-rule="evenodd" d="M495.328 524.215C495.01 524.315 494.723 524.359 494.392 524.359C493.385 524.359 492.864 523.826 492.864 522.804C492.864 521.623 493.528 520.744 494.436 520.744C495.184 520.744 495.661 521.234 495.661 521.997C495.661 522.256 495.633 522.502 495.546 522.86H493.759C493.744 522.904 493.744 522.932 493.744 522.96C493.744 523.365 494.018 523.565 494.536 523.565C494.867 523.565 495.156 523.508 495.472 523.35L495.328 524.213V524.215ZM494.823 522.156V521.984C494.823 521.697 494.664 521.538 494.39 521.538C494.103 521.538 493.9 521.754 493.813 522.158H494.82L494.823 522.156Z" fill="white"/>
<path fill-rule="evenodd" clip-rule="evenodd" d="M485.645 524.287H484.753L485.271 521.018L484.104 524.287H483.484L483.412 521.047L482.864 524.287H482.028L482.733 520.04H484.03L484.074 522.676L484.938 520.04H486.35L485.645 524.287Z" fill="white"/>
<path fill-rule="evenodd" clip-rule="evenodd" d="M487.878 522.745C487.791 522.745 487.747 522.73 487.676 522.73C487.171 522.73 486.912 522.917 486.912 523.262C486.912 523.478 487.027 523.608 487.23 523.608C487.604 523.608 487.863 523.262 487.878 522.745ZM488.542 524.285H487.794L487.809 523.923C487.578 524.21 487.276 524.341 486.858 524.341C486.368 524.341 486.037 523.967 486.037 523.406C486.037 522.555 486.614 522.066 487.622 522.066C487.722 522.066 487.853 522.081 487.996 522.094C488.024 521.979 488.024 521.935 488.024 521.879C488.024 521.649 487.865 521.561 487.447 521.561C487.189 521.561 486.899 521.59 486.699 521.649L486.568 521.692L486.481 521.707L486.612 520.929C487.058 520.798 487.36 520.755 487.694 520.755C488.473 520.755 488.891 521.1 488.891 521.764C488.891 521.935 488.875 522.066 488.819 522.455L488.616 523.68L488.588 523.895L488.573 524.067L488.558 524.197L488.542 524.285Z" fill="white"/>
<path fill-rule="evenodd" clip-rule="evenodd" d="M502.145 522.745C502.045 522.745 502.001 522.73 501.942 522.73C501.424 522.73 501.163 522.917 501.163 523.262C501.163 523.478 501.294 523.608 501.494 523.608C501.853 523.608 502.127 523.262 502.142 522.745H502.145ZM502.809 524.285H502.06L502.076 523.923C501.845 524.21 501.542 524.341 501.124 524.341C500.635 524.341 500.304 523.967 500.304 523.406C500.304 522.555 500.881 522.066 501.888 522.066C501.988 522.066 502.119 522.081 502.25 522.094C502.278 521.979 502.293 521.935 502.293 521.879C502.293 521.649 502.135 521.561 501.717 521.561C501.458 521.561 501.155 521.59 500.953 521.649L500.837 521.692L500.75 521.707L500.881 520.929C501.327 520.798 501.629 520.755 501.963 520.755C502.742 520.755 503.145 521.1 503.145 521.764C503.145 521.935 503.145 522.066 503.073 522.455L502.886 523.68L502.857 523.895L502.829 524.067L502.814 524.197V524.285H502.809Z" fill="white"/>
<path fill-rule="evenodd" clip-rule="evenodd" d="M505.229 520.803H505.142C504.839 520.803 504.667 520.947 504.393 521.364L504.48 520.831H503.66L503.111 524.287H504.006C504.337 522.171 504.424 521.81 504.857 521.81H504.916C505.003 521.392 505.119 521.09 505.262 520.816L505.234 520.801L505.229 520.803Z" fill="white"/>
<path d="M582.92 122.662L555.318 85.4287C573.295 67.8393 599.661 65.0172 611.452 65.3719L637.469 100.771C626.594 99.2421 603.053 102.772 582.92 122.662Z" fill="white"/>
<path d="M583.506 118.177L558.945 85.046C576.39 69.1487 599.841 67.3477 610.872 67.5824L633.112 99.08C622.978 97.7978 603.043 100.215 583.506 118.177Z" fill="#D5DDFD"/>
<path d="M603.061 97.3806L601.317 94.8248C599.961 95.4729 598.322 95.6974 597.14 95.4642L596.012 92.6832C597.239 92.8583 598.79 92.7863 600.064 92.1116C601.377 91.4139 601.721 90.1186 600.858 88.8529C600.048 87.667 598.794 87.2863 596.761 87.4019C593.878 87.5641 591.6 87.0529 589.92 84.6002C588.37 82.3325 588.433 79.9227 590.225 78.3313L588.463 75.7442L590.176 74.8322L591.849 77.2839C593.205 76.6358 594.369 76.5567 595.324 76.6194L596.417 79.3448C595.715 79.3197 594.386 79.2016 592.963 79.9621C591.501 80.7385 591.628 81.9669 592.237 82.8636C592.976 83.9454 594.14 84.1543 596.53 84.1062C599.625 83.9684 601.642 84.8367 603.244 87.1842C604.776 89.4276 604.896 92.0589 602.915 93.7591L604.773 96.4756L603.06 97.3876L603.061 97.3806Z" fill="white"/>
<path d="M687.109 534.609L662.549 487.593C679.14 444.345 703.137 421.484 713.851 414.136L736.993 459.003C727.132 463.677 705.68 485.873 687.107 534.632L687.109 534.609Z" fill="white"/>
<path d="M687.701 526.283L665.847 484.442C681.927 444.545 703.264 425.483 713.287 418.397L733.057 458.935C723.867 463.533 705.709 481.321 687.701 526.283Z" fill="#D5DDFD"/>
<path d="M702.99 458.857L703.464 460.694L699.458 466.987C699.595 467.338 699.777 467.672 700.014 467.986C700.247 468.289 700.513 468.524 700.811 468.658C701.109 468.791 701.467 468.745 701.886 468.518C702.312 468.278 702.78 467.764 703.31 466.958C703.734 466.293 704.101 465.56 704.408 464.783C704.715 464.005 704.97 463.315 705.181 462.697C705.392 462.079 705.596 461.363 705.783 460.553L706.838 461.104L706.739 461.624C706.363 463.155 706.053 464.292 705.798 465.039C705.547 465.795 705.229 466.577 704.848 467.394C704.468 468.21 703.998 469.061 703.447 469.931C703.167 470.373 702.866 470.768 702.551 471.134C702.236 471.5 701.92 471.777 701.592 472.002C700.926 472.456 700.362 472.626 699.891 472.513C699.42 472.401 699.029 472.18 698.716 471.817C698.403 471.454 698.161 471.075 697.987 470.671C697.812 470.267 697.695 469.986 697.646 469.826L696.422 471.758L695.948 469.921L702.979 458.861L702.99 458.857ZM702.517 457.021L702.043 455.184L698.006 461.523C697.91 460.865 697.852 460.147 697.825 459.385C697.798 458.622 697.829 457.871 697.908 457.112C697.988 456.354 698.148 455.599 698.382 454.86C698.61 454.112 698.93 453.42 699.348 452.768C700.186 451.442 700.918 450.536 701.529 450.047L702.283 451.811L703.349 450.129L702.493 446.343L702.03 446.698C701.722 446.938 701.282 447.374 700.72 448.024C700.153 448.665 699.57 449.469 698.969 450.403C698.297 451.464 697.74 452.606 697.298 453.826C696.857 455.047 696.54 456.198 696.339 457.316C696.134 458.425 696.02 459.588 696.003 460.793C695.987 461.998 696.046 463.197 696.181 464.389L695.021 466.207L695.495 468.043L702.526 456.984L702.517 457.021Z" fill="white"/>
</g>
<g clip-path="url(#clip1_2009_684)">
<path d="M768.514 169.137C759.966 169.137 753.028 162.2 753.028 153.651C753.028 106.976 715.055 68.9724 668.349 68.9724C659.801 68.9724 652.863 62.0346 652.863 53.4862C652.863 44.9378 659.801 38 668.349 38C732.121 38 784 89.8788 784 153.651C784 162.2 777.062 169.137 768.514 169.137Z" fill="#D5DDFD"/>
<path d="M721.095 169.137C712.547 169.137 705.609 162.199 705.609 153.651C705.609 133.085 688.884 116.36 668.318 116.36C659.77 116.36 652.832 109.422 652.832 100.874C652.832 92.3256 659.77 85.3878 668.318 85.3878C705.95 85.3878 736.581 116.02 736.581 153.651C736.581 162.199 729.643 169.137 721.095 169.137Z" fill="#D5DDFD"/>
<path d="M668.349 174C679.587 174 688.698 164.89 688.698 153.651C688.698 142.413 679.587 133.302 668.349 133.302C657.111 133.302 648 142.413 648 153.651C648 164.89 657.111 174 668.349 174Z" fill="#D5DDFD"/>
</g>
<path d="M180.072 130.285L176.193 78.4731C203.771 72.5611 230.446 85.6627 241.407 93.0637L244.877 142.187C235.484 134.23 211.048 123.483 180.063 130.284L180.072 130.285Z" fill="white"/>
<path d="M183.31 126.389L179.858 80.2811C205.911 75.649 229.211 87.9865 239.531 94.8069L241.762 137.973C232.926 130.696 212.582 121.052 183.31 126.389Z" fill="#D5DDFD"/>
<path d="M214.334 103.135C215.701 103.257 217.069 103.369 218.436 103.492C218.408 104.155 218.361 104.815 218.285 105.461C217.047 105.358 215.81 105.245 214.562 105.14C214.674 105.541 214.706 105.94 214.638 106.324C214.515 107.084 214.156 107.87 213.573 108.663C212.979 109.465 212.105 110.245 210.941 111.002C211.717 110.884 212.389 110.853 212.968 110.899C213.706 110.968 214.498 111.146 215.355 111.435C216.76 111.917 217.733 112.172 218.281 112.224C218.94 112.281 219.892 112.129 221.101 111.753C221.117 112.463 221.113 113.17 221.081 113.863C220.125 114.105 219.376 114.246 218.882 114.304C218.38 114.351 217.911 114.373 217.463 114.326C217.084 114.29 216.721 114.216 216.361 114.122C216.138 114.059 215.632 113.862 214.832 113.531C214.032 113.2 213.507 112.99 213.265 112.914C212.875 112.816 212.461 112.744 212.043 112.702C211.394 112.646 210.661 112.679 209.842 112.82C209.012 112.96 208.214 113.164 207.434 113.443C207.489 112.733 207.504 112.018 207.503 111.28C208.546 110.929 209.53 110.357 210.393 109.586C211.266 108.816 211.85 107.811 212.084 106.572C212.183 106.04 212.205 105.488 212.127 104.92C211.269 104.843 210.411 104.766 209.552 104.699C209.649 104.046 209.716 103.389 209.754 102.728C210.422 102.786 211.091 102.845 211.76 102.904C211.528 101.879 211.345 101.134 211.253 100.665C211.161 100.197 211.107 99.744 211.071 99.3039C210.936 97.4237 211.316 96.0243 212.363 95.0981C213.21 94.3646 214.338 94.0569 215.825 94.1868C217.341 94.3212 218.745 94.8735 219.976 95.8448C221.205 96.8261 222.114 98.1238 222.558 99.7667C221.811 99.8276 221.055 99.8772 220.298 99.9366C220.057 98.8392 219.52 97.9608 218.762 97.282C218.003 96.6032 217.17 96.2266 216.29 96.1566C215.352 96.0779 214.647 96.3271 214.135 96.9182C213.623 97.5093 213.432 98.2493 213.509 99.1605C213.604 100.155 213.912 101.485 214.325 103.124L214.334 103.135Z" fill="white"/>
<path d="M184.986 318.804L152.298 290.584C165.055 270.925 188.456 262.978 199.249 260.901L230.124 287.779C219.922 288.609 199.241 296.617 184.986 318.804Z" fill="white"/>
<path d="M184.609 314.603L155.524 289.486C168.147 271.476 189.098 265.054 199.177 263.013L225.824 287.12C216.35 288.018 198.718 294.285 184.619 314.604L184.609 314.603Z" fill="#D5DDFD"/>
<path d="M180.701 218.309L139.611 231.606C129.433 210.491 134.785 186.376 138.611 176.066L177.611 163.632C173.026 172.788 169.136 194.623 180.709 218.321L180.701 218.309Z" fill="white"/>
<path d="M176.923 216.454L140.358 228.28C131.51 208.151 136.9 186.903 140.389 177.23L174.821 166.968C170.678 175.532 166.875 193.852 176.923 216.454Z" fill="#D5DDFD"/>
<path d="M161.161 192.639C159.956 192.855 158.75 193.08 157.575 193.3C157.698 194.784 158.046 196.322 158.626 197.864C158.165 197.967 157.716 198.062 157.266 198.167C156.636 196.628 156.238 195.083 156.066 193.591C155.546 193.686 155.035 193.792 154.535 193.89C154.756 195.398 155.214 196.942 155.886 198.478C155.414 198.59 154.944 198.692 154.474 198.794C153.871 197.542 153.424 196.262 153.134 195.016C151.027 197.018 149.457 199.08 148.455 200.993C147.943 200.29 147.475 199.564 147.067 198.836C148.057 197.416 149.346 195.949 150.894 194.511C151.422 194.023 151.933 193.644 152.371 193.346C151.97 193.256 151.351 193.073 150.502 192.795C148.564 192.163 146.637 191.523 144.728 190.896C144.7 190.134 144.73 189.39 144.816 188.675C147.399 189.594 150.028 190.541 152.687 191.492C152.684 190.288 152.825 189.137 153.107 188.056C153.695 187.972 154.293 187.899 154.891 187.816C154.5 189.092 154.312 190.49 154.349 191.941C154.879 191.848 155.41 191.745 155.949 191.653C155.961 190.209 156.195 188.839 156.634 187.589C157.2 187.522 157.776 187.456 158.343 187.378C157.858 188.6 157.576 189.954 157.516 191.38C158.751 191.169 159.993 190.97 161.247 190.762C161.168 191.367 161.136 191.989 161.144 192.617L161.161 192.639Z" fill="white"/>
<path d="M178.599 416.33L157.364 453.927C135.568 445.281 123.184 423.909 119.014 413.736L139.298 378.181C142.123 388.023 154.044 406.727 178.599 416.33Z" fill="white"/>
<path d="M174.561 417.519L155.658 450.985C135.516 442.159 125.098 422.869 121.117 413.391L139.502 382.528C142.252 391.641 151.857 407.697 174.559 417.529L174.561 417.519Z" fill="#D5DDFD"/>
<path d="M149.446 408.754L147.929 411.207C148.997 412.114 149.803 413.427 150.054 414.526L148.117 416.543C147.796 415.434 147.16 414.136 146.09 413.31C144.995 412.45 143.762 412.651 143.014 413.874C142.309 415.013 142.463 416.219 143.324 417.914C144.556 420.301 144.985 422.447 143.534 424.799C142.19 426.975 140.112 427.829 138.083 426.921L136.552 429.403L135.13 428.292L136.581 425.94C135.513 425.033 135.009 424.069 134.698 423.234L136.607 421.273C136.851 421.875 137.252 423.057 138.439 423.982C139.653 424.93 140.647 424.36 141.18 423.499C141.819 422.462 141.553 421.391 140.61 419.371C139.326 416.784 139.297 414.737 140.692 412.488C142.022 410.34 144.218 409.241 146.41 410.274L148.021 407.662L149.443 408.773L149.446 408.754Z" fill="white"/>
<path d="M186.724 281.17L193.355 290.91C193.626 290.718 193.859 290.51 194.032 290.303C194.685 289.511 194.98 288.614 194.91 287.593C194.849 286.573 194.376 285.603 193.514 284.666L195.427 282.817C196.623 284.228 197.238 285.735 197.273 287.337C197.308 288.94 196.791 290.379 195.741 291.659C195.434 292.028 195.058 292.377 194.615 292.705L198.008 297.769L196.59 298.741L193.135 293.688C191.995 294.216 190.71 294.359 189.271 294.105C187.843 293.852 186.385 293.12 184.926 291.913C183.576 290.792 182.599 289.616 181.995 288.374C181.391 287.131 181.215 285.862 181.457 284.573C181.699 283.285 182.206 282.188 182.959 281.268C183.181 280.998 183.527 280.645 183.986 280.208L180.643 275.283L182.039 274.328L185.393 279.244C186.345 278.758 187.255 278.55 188.137 278.6C189.02 278.65 189.947 278.94 190.9 279.466L189.565 281.714C188.549 281.209 187.603 281.038 186.71 281.199L186.724 281.17ZM185.204 281.945C184.979 282.165 184.81 282.352 184.699 282.487C184.182 283.108 183.873 283.83 183.769 284.664C183.667 285.488 183.863 286.346 184.371 287.21C184.869 288.083 185.605 288.91 186.559 289.699C187.514 290.488 188.503 291.11 189.395 291.434C190.287 291.759 191.084 291.837 191.787 291.668L185.194 281.944L185.204 281.945Z" fill="white"/>
<defs>
<clipPath id="clip0_2009_684">
<rect width="494.068" height="550" fill="white" transform="translate(258 43)"/>
</clipPath>
<clipPath id="clip1_2009_684">
<rect width="136" height="136" fill="white" transform="translate(648 38)"/>
</clipPath>
</defs>
</svg>
