<svg width="30" height="24" viewBox="0 0 30 24" fill="none" xmlns="http://www.w3.org/2000/svg">
<path fill-rule="evenodd" clip-rule="evenodd" d="M24.8202 0.00657238C24.3242 0.24956 23.828 0.492718 23.3321 0.735706C22.301 1.3621 21.3161 2.14082 20.413 2.92319C16.8406 6.01816 14.6276 8.16857 11.7897 12.0337C10.8334 13.3361 9.75819 14.5298 8.84194 15.8922C8.58441 16.2365 8.32679 16.5809 8.06926 16.9252C8.03108 16.9354 7.99297 16.9455 7.95478 16.9556H7.92612C7.24156 14.6274 6.21679 12.2878 4.34892 11.2134C2.98838 10.4308 0.490883 11.6928 0.0848547 12.7021C-0.37484 13.8449 1.16533 15.8717 1.5444 16.6517C2.15131 17.9007 2.67539 19.2369 3.17566 20.571C3.44569 21.2913 3.61741 22.4892 4.14863 22.9407C4.67424 23.3875 5.38959 23.4577 6.1519 23.6699C6.82124 23.8561 8.07054 24.1671 8.75613 23.761C9.54581 23.2933 10.858 21.0269 11.4176 20.1455C12.865 17.8664 14.6185 15.8443 16.1967 13.7046C17.2286 12.3059 18.7908 10.6113 20.0602 9.45112C22.0081 7.67085 22.3187 7.10638 24.3909 5.44484C25.4974 4.60429 26.6041 3.76357 27.7105 2.92311C28.3496 2.52814 28.9888 2.13316 29.628 1.73819C29.8023 1.59378 29.8353 1.30546 30 1.16096C29.9582 -0.00797109 26.1889 -0.0220895 24.8202 0.00657238Z" fill="#65BC53"/>
</svg>
