<svg width="32" height="32" viewBox="0 0 32 32" fill="none" xmlns="http://www.w3.org/2000/svg">
<path d="M24.0887 23.7275L22.7831 21.1163L21.4775 23.7275H24.0887Z" fill="#5264AE"/>
<path d="M29.1885 13.5666H27.8602V10.7564C27.8602 10.4912 27.748 10.2386 27.5513 10.0608C27.3546 9.88306 27.0917 9.79699 26.8281 9.82368C26.6788 9.83881 23.3352 10.2169 21.6705 13.5666H20.3083V15.6221C20.3083 18.2062 18.206 20.3084 15.622 20.3084H13.5664V29.1886C13.5664 30.7388 14.8276 31.9999 16.3777 31.9999H29.1885C30.7386 32 31.9998 30.7388 31.9998 29.1887V16.3779C31.9998 14.8277 30.7386 13.5666 29.1885 13.5666ZM18.1812 26.1273L21.9445 18.6007C22.1033 18.2831 22.4279 18.0825 22.783 18.0825C23.1382 18.0825 23.4627 18.2831 23.6216 18.6007L27.3849 26.1273C27.6165 26.5904 27.4287 27.1535 26.9657 27.3851C26.5026 27.6167 25.9394 27.429 25.7078 26.9659L25.0262 25.6025H20.54L19.8583 26.9659C19.6941 27.2944 19.363 27.4843 19.0191 27.4843C18.8782 27.4843 18.7352 27.4524 18.6006 27.3851C18.1374 27.1536 17.9497 26.5904 18.1812 26.1273Z" fill="#5264AE"/>
<path d="M10.1048 7.89624H8.32812C8.44412 8.82505 8.74144 9.60599 9.2165 10.2352C9.6915 9.60599 9.98881 8.82505 10.1048 7.89624Z" fill="#5264AE"/>
<path d="M15.6221 18.4334C17.1723 18.4334 18.4334 17.1722 18.4334 15.6221V2.81137C18.4334 1.26119 17.1722 0 15.6221 0H2.81137C1.26119 0 0 1.26119 0 2.81137V15.6221C0 17.1723 1.26119 18.4334 2.81131 18.4334H4.13956V21.2436C4.13956 21.5088 4.25181 21.7614 4.4485 21.9392C4.62162 22.0956 4.84588 22.1811 5.077 22.1811C5.10844 22.1811 5.14013 22.1796 5.17169 22.1763C5.32094 22.1612 8.66456 21.7831 10.3293 18.4334H15.6221ZM9.71638 13.0546C9.55238 12.9671 9.38488 12.8682 9.21675 12.7583C9.04856 12.8682 8.88112 12.9671 8.71712 13.0546C7.1175 13.9077 5.52069 13.9175 5.4535 13.9175C4.93575 13.9175 4.516 13.4977 4.516 12.98C4.516 12.4622 4.93575 12.0425 5.4535 12.0425C5.46175 12.0424 6.61844 12.0256 7.76937 11.4342C7.11087 10.591 6.59188 9.44681 6.44194 7.89625H5.45344C4.93569 7.89625 4.51594 7.4765 4.51594 6.95875C4.51594 6.441 4.93569 6.02125 5.45344 6.02125H8.27925V5.45344C8.27925 4.93569 8.699 4.51594 9.21675 4.51594C9.7345 4.51594 10.1543 4.93569 10.1543 5.45344V6.02125H12.98C13.4977 6.02125 13.9175 6.441 13.9175 6.95875C13.9175 7.4765 13.4977 7.89625 12.98 7.89625H11.9916C11.8416 9.44681 11.3227 10.591 10.6642 11.4342C11.8151 12.0256 12.9719 12.0424 12.9839 12.0425C13.5016 12.0425 13.9194 12.4622 13.9194 12.98C13.9194 13.4977 13.4977 13.9175 12.98 13.9175C12.9128 13.9175 11.316 13.9078 9.71638 13.0546Z" fill="#5264AE"/>
<path d="M22.8545 5.3637C23.0375 5.54676 23.2775 5.63832 23.5173 5.63832C23.7572 5.63832 23.9972 5.54682 24.1802 5.3637C24.5463 4.99757 24.5463 4.40401 24.1802 4.03788L23.9111 3.76876C27.3616 3.9732 30.1064 6.8447 30.1064 10.3457C30.1064 10.8634 30.5261 11.2832 31.0439 11.2832C31.5616 11.2832 31.9814 10.8634 31.9814 10.3457C31.9814 5.80363 28.385 2.08626 23.8903 1.89032L24.1802 1.60038C24.5463 1.23426 24.5463 0.640695 24.1802 0.27457C23.8142 -0.0914922 23.2205 -0.0915547 22.8544 0.27457L20.9728 2.15626C20.6067 2.52238 20.6067 3.11595 20.9728 3.48207L22.8545 5.3637Z" fill="#5264AE"/>
<path d="M9.127 26.6176C8.76094 26.2514 8.16731 26.2514 7.80119 26.6176C7.43506 26.9837 7.43506 27.5772 7.80119 27.9434L8.07031 28.2125C4.61975 28.0081 1.875 25.1366 1.875 21.6356C1.875 21.1178 1.45525 20.6981 0.9375 20.6981C0.41975 20.6981 0 21.1178 0 21.6356C0 26.1776 3.59644 29.895 8.09112 30.0909L7.80119 30.3809C7.43506 30.747 7.43506 31.3406 7.80119 31.7067C7.98425 31.8897 8.22419 31.9812 8.46406 31.9812C8.70394 31.9812 8.94394 31.8897 9.12694 31.7066L11.0086 29.825C11.3747 29.4589 11.3747 28.8653 11.0086 28.4992L9.127 26.6176Z" fill="#5264AE"/>
</svg>
