<svg width="42" height="50" viewBox="0 0 42 50" fill="none" xmlns="http://www.w3.org/2000/svg">
<path d="M41.8358 20.9361C41.8358 26.4816 39.6376 31.794 35.7324 35.7241L21.8188 49.6378C21.3358 50.1207 20.5531 50.1207 20.0702 49.6378L6.14816 35.7241C-2.02853 27.5724 -2.05351 14.3248 6.0982 6.14816C14.2499 -2.02853 27.4975 -2.05351 35.6742 6.0982C39.6126 10.0283 41.8275 15.3657 41.8192 20.9361H41.8358ZM34.3252 20.8029C34.3252 13.4172 28.3384 7.42212 20.9445 7.42212C13.5505 7.42212 7.56367 13.4172 7.56367 20.8029C7.56367 28.1886 13.5505 34.1837 20.9445 34.1837C28.3301 34.1837 34.3169 28.1886 34.3252 20.8029Z" fill="#5264AE"/>
</svg>
