<svg width="145" height="44" viewBox="0 0 145 44" fill="none" xmlns="http://www.w3.org/2000/svg">
<g clip-path="url(#clip0_0_3099)">
<path d="M48.7021 31.7172L48.215 32.1761C47.8646 31.8343 47.4803 31.5747 47.0621 31.3974C46.6439 31.2201 46.2374 31.132 45.8403 31.132C45.3474 31.132 44.8766 31.2525 44.4304 31.4924C43.9842 31.7334 43.6384 32.0591 43.3931 32.4704C43.1478 32.8818 43.0252 33.3175 43.0252 33.7752C43.0252 34.2329 43.1525 34.6906 43.406 35.1136C43.6595 35.5365 44.0111 35.8691 44.4584 36.1113C44.9058 36.3535 45.3964 36.474 45.9302 36.474C46.5773 36.474 47.1252 36.2932 47.5725 35.9305C48.0199 35.569 48.2851 35.0985 48.368 34.5215H46.3612V33.9189H49.0735C49.0677 34.8842 48.7792 35.6501 48.2068 36.2168C47.6345 36.7834 46.8705 37.0673 45.9115 37.0673C44.7481 37.0673 43.8265 36.6745 43.1479 35.8877C42.6257 35.2828 42.3652 34.5817 42.3652 33.7868C42.3652 33.1958 42.5147 32.6454 42.8149 32.1355C43.1151 31.6257 43.5251 31.2282 44.0473 30.9408C44.5694 30.6535 45.1593 30.5098 45.8181 30.5098C46.3507 30.5098 46.853 30.6048 47.3237 30.796C47.7945 30.9872 48.2535 31.2931 48.7009 31.7149L48.7021 31.7172Z" fill="#191919"/>
<path d="M54.635 32.294V36.9106H54.0451V36.1168C53.7939 36.4192 53.5124 36.6475 53.2005 36.8005C52.8887 36.9534 52.5464 37.0299 52.1761 37.0299C51.5173 37.0299 50.9543 36.7935 50.4883 36.3196C50.0222 35.8456 49.7886 35.2697 49.7886 34.5907C49.7886 33.9116 50.0234 33.3577 50.4941 32.885C50.9648 32.4122 51.5302 32.1758 52.1925 32.1758C52.5745 32.1758 52.9202 32.2569 53.2297 32.418C53.5393 32.579 53.8103 32.8212 54.0451 33.1434V32.2951H54.635V32.294ZM52.2415 32.7482C51.9086 32.7482 51.6003 32.8293 51.3188 32.9916C51.0373 33.1538 50.813 33.3821 50.6459 33.6764C50.4789 33.9707 50.396 34.2813 50.396 34.6092C50.396 34.9372 50.4801 35.2454 50.6483 35.542C50.8165 35.8387 51.0419 36.0693 51.3258 36.235C51.6096 36.4007 51.9133 36.483 52.238 36.483C52.5628 36.483 52.8758 36.4007 53.169 36.2373C53.4622 36.0728 53.6876 35.8514 53.8465 35.5722C54.0054 35.2929 54.0836 34.9777 54.0836 34.6266C54.0836 34.0924 53.9061 33.6463 53.5521 33.287C53.1982 32.9278 52.7613 32.7482 52.2427 32.7482H52.2415Z" fill="#191919"/>
<path d="M56.3287 30.5791H56.9279V32.2929H57.8776V32.8063H56.9279V36.9095H56.3287V32.8063H55.5122V32.2929H56.3287V30.5791Z" fill="#191919"/>
<path d="M62.5195 35.3786L63.0242 35.6417C62.8583 35.9638 62.6679 36.2246 62.4506 36.4227C62.2334 36.6209 61.9892 36.7715 61.7182 36.8746C61.4473 36.9778 61.14 37.0299 60.7978 37.0299C60.0385 37.0299 59.4452 36.7831 59.0165 36.2894C58.5878 35.7958 58.374 35.2373 58.374 34.615C58.374 34.0298 58.5551 33.5072 58.9172 33.0495C59.3762 32.4666 59.9918 32.1758 60.7628 32.1758C61.5337 32.1758 62.1902 32.4747 62.6632 33.0715C62.9996 33.4933 63.1713 34.0194 63.1772 34.6498H58.9896C59.0013 35.1863 59.1742 35.6255 59.5082 35.9685C59.8423 36.3115 60.2546 36.483 60.7464 36.483C60.9835 36.483 61.2136 36.4424 61.4379 36.3601C61.6622 36.2779 61.8526 36.1701 62.0091 36.0345C62.1656 35.8989 62.3362 35.6811 62.5184 35.3786H62.5195ZM62.5195 34.1353C62.4401 33.8189 62.3233 33.5652 62.1703 33.3751C62.0173 33.1862 61.8152 33.0333 61.5641 32.9162C61.3129 32.8004 61.0489 32.7424 60.7721 32.7424C60.3154 32.7424 59.9229 32.8884 59.5947 33.1793C59.3552 33.3913 59.173 33.71 59.0503 34.1341H62.5195V34.1353Z" fill="#191919"/>
<path d="M63.4902 32.2939H64.1058L65.532 35.6463L67.0167 32.2939H67.1253L68.6205 35.6463L70.0747 32.2939H70.6973L68.6754 36.9105H68.5644L67.0763 33.6045L65.5893 36.9105H65.4783L63.4902 32.2939Z" fill="#191919"/>
<path d="M75.861 32.294V36.9106H75.2711V36.1168C75.02 36.4192 74.7385 36.6475 74.4266 36.8005C74.1147 36.9534 73.7725 37.0299 73.4022 37.0299C72.7434 37.0299 72.1804 36.7935 71.7143 36.3196C71.2483 35.8456 71.0146 35.2697 71.0146 34.5907C71.0146 33.9116 71.2494 33.3577 71.7202 32.885C72.1909 32.4122 72.7563 32.1758 73.4186 32.1758C73.8005 32.1758 74.1463 32.2569 74.4558 32.418C74.7654 32.579 75.0364 32.8212 75.2711 33.1434V32.2951H75.861V32.294ZM73.4676 32.7482C73.1347 32.7482 72.8263 32.8293 72.5448 32.9916C72.2622 33.1538 72.0391 33.3821 71.872 33.6764C71.705 33.9707 71.622 34.2813 71.622 34.6092C71.622 34.9372 71.7062 35.2454 71.8744 35.542C72.0426 35.8387 72.268 36.0693 72.5518 36.235C72.8357 36.4007 73.1394 36.483 73.4641 36.483C73.7888 36.483 74.1019 36.4007 74.3951 36.2373C74.6883 36.0728 74.9137 35.8514 75.0726 35.5722C75.2303 35.2929 75.3097 34.9777 75.3097 34.6266C75.3097 34.0924 75.1321 33.6463 74.7782 33.287C74.4243 32.9278 73.9874 32.7482 73.4688 32.7482H73.4676Z" fill="#191919"/>
<path d="M76.5327 32.2939H77.1658L78.7649 35.8491L80.3185 32.2939H80.9562L78.1797 38.6H77.5466L78.4425 36.5617L76.5327 32.2939Z" fill="#191919"/>
<path d="M84.3274 30.5791H84.9267V32.2929H85.8763V32.8063H84.9267V36.9095H84.3274V32.8063H83.5098V32.2929H84.3274V30.5791Z" fill="#191919"/>
<path d="M88.8014 32.1748C89.5186 32.1748 90.1131 32.4321 90.5839 32.9477C91.0126 33.417 91.2263 33.9732 91.2263 34.6152C91.2263 35.2572 90.9997 35.8238 90.5477 36.3059C90.0945 36.7879 89.5127 37.0289 88.8014 37.0289C88.09 37.0289 87.5036 36.7879 87.0504 36.3059C86.5972 35.8238 86.3706 35.2595 86.3706 34.6152C86.3706 33.9709 86.5844 33.4216 87.0131 32.9512C87.485 32.4332 88.0795 32.1748 88.8002 32.1748H88.8014ZM88.7991 32.7565C88.3015 32.7565 87.8728 32.9384 87.5153 33.3035C87.1579 33.6685 86.9792 34.11 86.9792 34.6279C86.9792 34.9617 87.0609 35.2734 87.2233 35.5619C87.3868 35.8505 87.6064 36.0729 87.8844 36.2305C88.1624 36.3881 88.4673 36.4658 88.7991 36.4658C89.1308 36.4658 89.4357 36.387 89.7137 36.2305C89.9917 36.0741 90.2113 35.8505 90.3748 35.5619C90.5383 35.2734 90.6189 34.9617 90.6189 34.6279C90.6189 34.11 90.439 33.6685 90.0804 33.3035C89.7218 32.9384 89.2943 32.7565 88.7991 32.7565Z" fill="#191919"/>
<path d="M94.5085 36.9108V30.6685H95.8132C96.7547 30.6685 97.4369 30.7438 97.8621 30.8933C98.4718 31.1053 98.9495 31.4726 99.293 31.9964C99.6364 32.5202 99.8081 33.1436 99.8081 33.8678C99.8081 34.4936 99.6714 35.0428 99.3993 35.5191C99.1271 35.9942 98.7732 36.3453 98.3386 36.5713C97.9041 36.7972 97.2944 36.9108 96.5094 36.9108H94.5073H94.5085ZM95.1112 36.321H95.8389C96.7092 36.321 97.3119 36.2677 97.6483 36.1599C98.1214 36.007 98.494 35.7323 98.765 35.3349C99.036 34.9374 99.1715 34.4519 99.1715 33.8783C99.1715 33.2757 99.0243 32.7612 98.7311 32.3348C98.4379 31.9084 98.0279 31.6152 97.5035 31.4576C97.1098 31.3394 96.4615 31.2791 95.5574 31.2791H95.1124V36.321H95.1112Z" fill="#191919"/>
<path d="M100.962 30.3926C101.099 30.3926 101.214 30.4412 101.311 30.5374C101.408 30.6336 101.456 30.7495 101.456 30.8851C101.456 31.0206 101.408 31.133 101.311 31.2292C101.214 31.3254 101.099 31.3729 100.962 31.3729C100.825 31.3729 100.713 31.3254 100.617 31.2292C100.522 31.133 100.473 31.0183 100.473 30.8851C100.473 30.7518 100.521 30.6336 100.617 30.5374C100.714 30.4412 100.829 30.3926 100.962 30.3926ZM100.664 32.2941H101.263V36.9107H100.664V32.2941Z" fill="#191919"/>
<path d="M106.345 32.2941H106.944V35.9732C106.944 36.621 106.887 37.0949 106.773 37.395C106.617 37.8192 106.345 38.1459 105.956 38.3754C105.568 38.6048 105.102 38.7195 104.557 38.7195C104.158 38.7195 103.799 38.6639 103.482 38.5515C103.164 38.4391 102.905 38.2885 102.705 38.1007C102.505 37.9119 102.322 37.6361 102.154 37.2734H102.804C102.982 37.5793 103.209 37.8053 103.49 37.9524C103.77 38.0996 104.117 38.1726 104.531 38.1726C104.944 38.1726 105.284 38.0973 105.564 37.9466C105.845 37.796 106.046 37.6059 106.166 37.3777C106.286 37.1494 106.346 36.7809 106.346 36.2722V36.0346C106.12 36.3174 105.845 36.5352 105.519 36.6859C105.193 36.8365 104.848 36.913 104.483 36.913C104.054 36.913 103.652 36.8075 103.275 36.5966C102.898 36.3858 102.607 36.1018 102.401 35.7461C102.196 35.3892 102.093 34.9975 102.093 34.5711C102.093 34.1447 102.2 33.7461 102.414 33.3764C102.628 33.0067 102.924 32.7147 103.303 32.5004C103.681 32.286 104.08 32.1782 104.5 32.1782C104.848 32.1782 105.173 32.2501 105.474 32.3926C105.776 32.5351 106.065 32.7715 106.346 33.0995V32.2976L106.345 32.2941ZM104.578 32.7483C104.239 32.7483 103.924 32.8295 103.633 32.9928C103.343 33.1562 103.115 33.3799 102.949 33.6673C102.783 33.9546 102.701 34.2652 102.701 34.5989C102.701 35.1053 102.872 35.5236 103.214 35.855C103.556 36.1864 104 36.3521 104.545 36.3521C105.089 36.3521 105.537 36.1876 105.873 35.8597C106.208 35.5317 106.375 35.1007 106.375 34.5653C106.375 34.2177 106.298 33.9071 106.144 33.6336C105.989 33.3602 105.771 33.1446 105.49 32.9871C105.207 32.8283 104.903 32.7495 104.578 32.7495V32.7483Z" fill="#191919"/>
<path d="M108.259 30.3926C108.396 30.3926 108.511 30.4412 108.608 30.5374C108.705 30.6336 108.753 30.7495 108.753 30.8851C108.753 31.0206 108.705 31.133 108.608 31.2292C108.511 31.3254 108.396 31.3729 108.259 31.3729C108.122 31.3729 108.01 31.3254 107.914 31.2292C107.819 31.133 107.77 31.0183 107.77 30.8851C107.77 30.7518 107.817 30.6336 107.914 30.5374C108.011 30.4412 108.126 30.3926 108.259 30.3926ZM107.961 32.2941H108.56V36.9107H107.961V32.2941Z" fill="#191919"/>
<path d="M110.153 30.5791H110.752V32.2929H111.701V32.8063H110.752V36.9095H110.153V32.8063H109.335V32.2929H110.153V30.5791Z" fill="#191919"/>
<path d="M117.061 32.294V36.9106H116.471V36.1168C116.22 36.4192 115.938 36.6475 115.626 36.8005C115.314 36.9534 114.972 37.0299 114.602 37.0299C113.943 37.0299 113.38 36.7935 112.914 36.3196C112.448 35.8456 112.214 35.2697 112.214 34.5907C112.214 33.9116 112.449 33.3577 112.92 32.885C113.391 32.4122 113.956 32.1758 114.618 32.1758C115 32.1758 115.346 32.2569 115.656 32.418C115.965 32.579 116.236 32.8212 116.471 33.1434V32.2951H117.061V32.294ZM114.667 32.7482C114.334 32.7482 114.026 32.8293 113.745 32.9916C113.462 33.1538 113.239 33.3821 113.072 33.6764C112.905 33.9707 112.822 34.2813 112.822 34.6092C112.822 34.9372 112.906 35.2454 113.074 35.542C113.242 35.8387 113.468 36.0693 113.752 36.235C114.035 36.4007 114.339 36.483 114.664 36.483C114.989 36.483 115.302 36.4007 115.595 36.2373C115.888 36.0728 116.113 35.8514 116.272 35.5722C116.43 35.2929 116.509 34.9777 116.509 34.6266C116.509 34.0924 116.332 33.6463 115.978 33.287C115.624 32.9278 115.187 32.7482 114.668 32.7482H114.667Z" fill="#191919"/>
<path d="M118.144 30.5117H118.743V36.9105H118.144V30.5117Z" fill="#191919"/>
<path d="M122.178 30.6685H123.419C123.917 30.6685 124.302 30.7276 124.569 30.8446C124.837 30.9616 125.049 31.1424 125.205 31.3857C125.36 31.6291 125.438 31.8991 125.438 32.1969C125.438 32.4738 125.371 32.7264 125.234 32.9547C125.097 33.183 124.898 33.3673 124.634 33.5086C124.961 33.6187 125.212 33.7485 125.388 33.8968C125.564 34.0451 125.701 34.2248 125.799 34.4356C125.897 34.6465 125.946 34.8748 125.946 35.1205C125.946 35.6211 125.762 36.0452 125.393 36.3917C125.024 36.7381 124.528 36.912 123.906 36.912H122.178V30.6696V30.6685ZM122.794 31.2791V33.278H123.154C123.59 33.278 123.913 33.2375 124.118 33.1575C124.324 33.0764 124.488 32.9501 124.607 32.7751C124.727 32.6013 124.787 32.4078 124.787 32.1957C124.787 31.9095 124.686 31.6859 124.484 31.5236C124.282 31.3614 123.962 31.2791 123.522 31.2791H122.793H122.794ZM122.794 33.9061V36.299H123.574C124.034 36.299 124.371 36.2549 124.586 36.1657C124.799 36.0765 124.972 35.9374 125.102 35.7474C125.232 35.5573 125.297 35.3522 125.297 35.1321C125.297 34.8551 125.206 34.6129 125.023 34.4067C124.839 34.2004 124.589 34.059 124.269 33.9826C124.055 33.9316 123.682 33.9061 123.15 33.9061H122.794Z" fill="#191919"/>
<path d="M126.69 32.294H127.303V32.9684C127.485 32.703 127.677 32.5037 127.88 32.3728C128.082 32.2407 128.293 32.1758 128.513 32.1758C128.679 32.1758 128.855 32.2279 129.043 32.3334L128.731 32.834C128.606 32.7807 128.5 32.7529 128.415 32.7529C128.215 32.7529 128.022 32.834 127.837 32.9974C127.652 33.1596 127.512 33.4122 127.415 33.7552C127.341 34.0182 127.304 34.5501 127.304 35.3508V36.9129H126.692V32.2963L126.69 32.294Z" fill="#191919"/>
<path d="M134.014 32.294V36.9106H133.424V36.1168C133.173 36.4192 132.892 36.6475 132.58 36.8005C132.268 36.9534 131.926 37.0299 131.556 37.0299C130.897 37.0299 130.334 36.7935 129.868 36.3196C129.402 35.8456 129.168 35.2697 129.168 34.5907C129.168 33.9116 129.403 33.3577 129.873 32.885C130.344 32.4122 130.91 32.1758 131.572 32.1758C131.954 32.1758 132.3 32.2569 132.609 32.418C132.919 32.579 133.19 32.8212 133.424 33.1434V32.2951H134.014V32.294ZM131.621 32.7482C131.288 32.7482 130.98 32.8293 130.698 32.9916C130.415 33.1538 130.192 33.3821 130.025 33.6764C129.858 33.9707 129.775 34.2813 129.775 34.6092C129.775 34.9372 129.859 35.2454 130.028 35.542C130.196 35.8387 130.421 36.0693 130.705 36.235C130.989 36.4007 131.293 36.483 131.617 36.483C131.942 36.483 132.255 36.4007 132.548 36.2373C132.842 36.0728 133.067 35.8514 133.226 35.5722C133.384 35.2929 133.463 34.9777 133.463 34.6266C133.463 34.0924 133.285 33.6463 132.932 33.287C132.578 32.9278 132.141 32.7482 131.622 32.7482H131.621Z" fill="#191919"/>
<path d="M135.187 32.294H135.786V33.1213C136.026 32.805 136.291 32.5674 136.582 32.411C136.873 32.2546 137.189 32.1758 137.531 32.1758C137.874 32.1758 138.188 32.2638 138.458 32.4388C138.727 32.6138 138.926 32.8502 139.055 33.148C139.183 33.4446 139.247 33.907 139.247 34.5351V36.9117H138.648V34.7089C138.648 34.177 138.626 33.8224 138.581 33.644C138.513 33.338 138.379 33.1086 138.182 32.9545C137.986 32.8004 137.729 32.7227 137.412 32.7227C137.05 32.7227 136.725 32.8421 136.439 33.0796C136.153 33.3172 135.964 33.6115 135.873 33.9626C135.815 34.1921 135.787 34.6104 135.787 35.2187V36.9117H135.188V32.2951L135.187 32.294Z" fill="#191919"/>
<path d="M145 30.5117V36.9105H144.41V36.1167C144.159 36.4192 143.878 36.6475 143.566 36.8004C143.254 36.9534 142.912 37.0299 142.541 37.0299C141.883 37.0299 141.32 36.7935 140.853 36.3195C140.387 35.8456 140.154 35.2697 140.154 34.5906C140.154 33.9116 140.389 33.3577 140.859 32.8849C141.33 32.4121 141.895 32.1757 142.558 32.1757C142.94 32.1757 143.285 32.2568 143.595 32.4179C143.905 32.579 144.176 32.8212 144.41 33.1433V30.5117H145ZM142.607 32.7482C142.274 32.7482 141.966 32.8293 141.684 32.9915C141.401 33.1537 141.178 33.382 141.011 33.6763C140.844 33.9707 140.761 34.2812 140.761 34.6092C140.761 34.9371 140.845 35.2453 141.014 35.542C141.182 35.8386 141.407 36.0692 141.691 36.2349C141.975 36.4006 142.279 36.4829 142.603 36.4829C142.928 36.4829 143.241 36.4006 143.534 36.2372C143.827 36.0727 144.053 35.8514 144.212 35.5721C144.369 35.2928 144.449 34.9777 144.449 34.6265C144.449 34.0923 144.271 33.6462 143.917 33.287C143.563 32.9278 143.127 32.7482 142.608 32.7482H142.607Z" fill="#191919"/>
<path d="M42.488 27.3035V13.1317C42.488 12.6716 42.6503 12.28 42.9751 11.9578C43.2998 11.6357 43.6934 11.4746 44.1583 11.4746H50.0023C51.6411 11.4746 52.8933 11.813 53.7588 12.4874C54.6244 13.2232 55.0577 14.2209 55.0577 15.4782C55.0577 16.2766 54.8872 16.951 54.5473 17.5026C54.2062 18.024 53.7273 18.4389 53.1094 18.7448C53.913 19.0832 54.5309 19.5583 54.9643 20.1712C55.3661 20.7541 55.567 21.5212 55.567 22.4714C55.567 24.0056 55.0717 25.2015 54.0824 26.0602C53.0615 26.8887 51.6236 27.3024 49.7686 27.3024H42.4868L42.488 27.3035ZM45.6418 17.5941H49.3984C50.202 17.5941 50.7895 17.4562 51.161 17.1804C51.5324 16.9046 51.7182 16.4747 51.7182 15.8919C51.7182 15.309 51.5324 14.8791 51.161 14.6033C50.8515 14.3577 50.2487 14.2348 49.3516 14.2348H45.6406V17.5941H45.6418ZM45.6418 24.4506H49.5385C50.4041 24.4506 51.0687 24.2826 51.5336 23.9442C51.9658 23.6383 52.1831 23.1157 52.1831 22.3799C52.1831 21.6441 51.967 21.1075 51.5336 20.7692C51.1318 20.4633 50.4508 20.3091 49.493 20.3091H45.643V24.4506H45.6418Z" fill="#191919"/>
<path d="M57.0493 27.3034V21.3669C57.0493 20.1711 57.2269 19.1664 57.5831 18.3529C57.9382 17.5406 58.4253 16.8882 59.0444 16.3969C59.632 15.9369 60.32 15.5997 61.1084 15.3842C61.8969 15.1698 62.7087 15.062 63.5439 15.062H64.0076V18.3286H62.9411C62.044 18.3286 61.3794 18.543 60.9472 18.9729C60.5139 19.4028 60.2978 20.0772 60.2978 20.9973V27.301H57.0505L57.0493 27.3034Z" fill="#191919"/>
<path d="M73.0485 26.798C72.399 27.1363 71.711 27.3426 70.9845 27.4191C70.258 27.4956 69.6167 27.5338 69.0595 27.5338C67.9463 27.5338 66.9721 27.2348 66.137 26.6369C65.3018 26.039 64.8848 25.0494 64.8848 23.6693C64.8848 22.3807 65.2632 21.4606 66.0213 20.9079C66.7782 20.3552 67.7442 19.9878 68.9205 19.8036C69.0747 19.8036 69.2604 19.7804 69.4777 19.7341C69.6938 19.6877 69.9414 19.6495 70.2194 19.6193C71.5802 19.4351 72.26 19.0365 72.26 18.4235C72.26 17.9634 72.0206 17.6645 71.5405 17.5266C71.0604 17.3887 70.6201 17.3192 70.2182 17.3192C69.7849 17.3192 69.3982 17.3806 69.0583 17.5034C68.7173 17.6262 68.4708 17.8568 68.3166 18.194H65.2083C65.331 17.2438 65.7655 16.4617 66.5072 15.8475C67.3424 15.1418 68.5327 14.7896 70.0792 14.7896C71.8103 14.7896 73.1092 15.0816 73.976 15.6633C74.8719 16.2774 75.3216 17.1361 75.3216 18.2404V22.4282C75.3216 23.6554 75.0973 24.6137 74.6488 25.3043C74.2002 25.9949 73.6664 26.4932 73.0485 26.8003V26.798ZM72.3068 21.1385C71.8734 21.3529 71.2707 21.5522 70.4974 21.7364L69.431 21.967C68.8738 22.1211 68.472 22.3205 68.2255 22.565C68.0094 22.9033 67.9008 23.2405 67.9008 23.5777C67.9008 24.0378 68.0398 24.4063 68.3178 24.682C68.5958 24.9277 68.9976 25.0505 69.5232 25.0505C70.3888 25.0505 71.0686 24.8049 71.5639 24.3147C72.0591 23.8246 72.3056 23.149 72.3056 22.2903V21.1397L72.3068 21.1385Z" fill="#191919"/>
<path d="M87.3765 27.3031H85.7529C85.2891 27.3031 84.9095 27.1582 84.6163 26.8662C84.322 26.5754 84.1759 26.1988 84.1759 25.7387V19.4813C84.1759 18.7455 83.9517 18.209 83.5031 17.8706C83.0546 17.5334 82.5523 17.3642 81.9951 17.3642C81.438 17.3642 80.9439 17.5334 80.5105 17.8706C80.0771 18.209 79.861 18.7443 79.861 19.4813V27.3042H76.6138V20.1256C76.6138 18.0398 77.1628 16.6446 78.2608 15.9378C79.3576 15.2321 80.5724 14.8497 81.9017 14.7871C83.2625 14.7871 84.5147 15.1405 85.6582 15.8451C86.8018 16.5508 87.3742 17.9772 87.3742 20.1244V27.3031H87.3765Z" fill="#191919"/>
<path d="M96.8822 11.4291H98.4591C98.8913 11.4291 99.2627 11.5901 99.5723 11.9123C99.8806 12.2344 100.036 12.5948 100.036 12.9934V21.9659C100.036 24.1444 99.4017 25.6172 98.1343 26.3831C96.8658 27.1502 95.491 27.5338 94.0063 27.5338C93.2015 27.5338 92.4131 27.4028 91.641 27.1421C90.8677 26.8814 90.2498 26.4596 89.7861 25.8767C88.889 24.7423 88.4404 23.193 88.4404 21.2289C88.4404 19.2647 88.8878 17.7479 89.7861 16.581C90.7135 15.3851 91.9038 14.7861 93.3581 14.7861C94.1302 14.7861 94.8112 14.9402 95.3987 15.2461C96.0166 15.6146 96.5119 16.0897 96.8833 16.6726V11.4268L96.8822 11.4291ZM91.5943 21.0921C91.5943 22.3193 91.8267 23.2544 92.2904 23.8987C92.7542 24.543 93.4188 24.8651 94.2855 24.8651C95.1522 24.8651 95.7701 24.543 96.2339 23.8987C96.6661 23.2544 96.8833 22.3193 96.8833 21.0921C96.8833 19.9878 96.6509 19.1129 96.1872 18.4698C95.6919 17.8568 95.0272 17.5497 94.1921 17.5497C93.3569 17.5497 92.7542 17.8719 92.2904 18.5162C91.8267 19.1303 91.5943 19.989 91.5943 21.0933V21.0921Z" fill="#191919"/>
<path d="M104.717 21.6441V27.3035H101.424V13.1317C101.424 12.6716 101.586 12.28 101.911 11.9578C102.236 11.6357 102.629 11.4746 103.093 11.4746H108.52C110.221 11.4746 111.488 11.9045 112.323 12.7632C113.189 13.6218 113.622 14.8953 113.622 16.5825C113.622 18.1781 113.205 19.4354 112.37 20.3555C111.535 21.2141 110.329 21.6441 108.752 21.6441H104.717ZM104.717 18.7911H107.917C108.783 18.7911 109.402 18.6069 109.772 18.2384C110.174 17.9012 110.375 17.3183 110.375 16.4898C110.375 15.7841 110.189 15.2175 109.819 14.7876C109.385 14.4191 108.813 14.2348 108.103 14.2348H104.717V18.79V18.7911Z" fill="#191919"/>
<path d="M114.778 19.3887C114.778 16.8115 115.458 14.7721 116.819 13.2691C118.272 11.7662 120.174 11.0142 122.524 11.0142C124.874 11.0142 126.745 11.7662 128.229 13.2691C129.62 14.8034 130.316 16.8428 130.316 19.3887C130.316 21.9345 129.62 23.96 128.229 25.463C126.806 26.9358 124.904 27.6716 122.524 27.6716C120.143 27.6716 118.21 26.9358 116.819 25.463C115.458 23.9902 114.778 21.9658 114.778 19.3887ZM118.071 19.3887C118.071 21.1685 118.458 22.5174 119.231 23.4374C120.003 24.3888 121.101 24.8639 122.524 24.8639C123.947 24.8639 125.013 24.3888 125.817 23.4374C126.62 22.4559 127.023 21.106 127.023 19.3887C127.023 17.6713 126.622 16.3051 125.817 15.2935C125.012 14.3433 123.915 13.8671 122.524 13.8671C121.133 13.8671 120.003 14.3433 119.231 15.2935C118.458 16.2449 118.071 17.6099 118.071 19.3887Z" fill="#191919"/>
<path d="M131.891 22.3796H135.138C135.261 23.2997 135.617 23.944 136.204 24.3125C136.822 24.7424 137.673 24.9568 138.755 24.9568C139.713 24.9568 140.441 24.7887 140.935 24.4504C141.429 24.1132 141.677 23.6219 141.677 22.9776C141.677 21.9961 140.286 21.1989 137.502 20.5847L137.41 20.5383L137.038 20.4468C135.461 20.1096 134.41 19.7562 133.885 19.3888C133.265 19.0516 132.833 18.5603 132.586 17.916C132.276 17.3633 132.122 16.6588 132.122 15.7989C132.122 14.296 132.648 13.1152 133.699 12.2554C134.75 11.4269 136.28 11.0132 138.291 11.0132C140.176 11.0132 141.63 11.4431 142.651 12.3017C143.702 13.2531 144.258 14.4953 144.321 16.0284H142.466C141.755 16.0284 141.245 15.7062 140.936 15.062C140.781 14.756 140.565 14.4942 140.287 14.2798C139.73 13.8812 138.973 13.6819 138.014 13.6819C137.055 13.6819 136.42 13.851 136.019 14.1882C135.555 14.5266 135.322 15.0017 135.322 15.6147C135.322 16.4432 136.218 17.0574 138.013 17.4548C138.538 17.609 138.925 17.7005 139.172 17.7306C139.728 17.9149 140.216 18.0609 140.634 18.1675C141.051 18.2753 141.384 18.3598 141.631 18.4201C142.063 18.6043 142.497 18.7886 142.93 18.9728C143.548 19.3413 144.027 19.8164 144.368 20.3993C144.708 21.0436 144.879 21.7493 144.879 22.5164C144.879 24.1734 144.323 25.4608 143.209 26.3821C142.096 27.2407 140.519 27.6706 138.479 27.6706C136.438 27.6706 134.798 27.2268 133.748 26.3357C132.603 25.4458 131.985 24.1271 131.893 22.3785L131.891 22.3796Z" fill="#191919"/>
<path d="M10.2535 28.402C10.0725 27.6534 9.97671 26.8701 9.97671 26.0613C9.97671 24.9581 10.1531 23.9001 10.4813 22.9186L10.4089 22.8491L9.81435 23.3856C9.79449 25.0288 9.69287 26.7924 10.2524 28.4032L10.2535 28.402Z" fill="url(#paint0_linear_0_3099)"/>
<path d="M9.81787 22.2798V23.3818L10.4089 22.8476L9.81787 22.2798Z" fill="url(#paint1_linear_0_3099)"/>
<path d="M22.7192 17.5221C22.7426 17.5326 22.7636 17.5442 22.787 17.5546L22.7391 17.5024L22.7192 17.5221Z" fill="url(#paint2_linear_0_3099)"/>
<path d="M27.312 21.7792L33.7855 15.7558C32.5065 13.9504 30.898 12.3954 29.0513 11.1636L22.7378 17.5021L22.7857 17.5542C24.7329 18.4141 26.3332 19.9089 27.312 21.7792Z" fill="url(#paint3_linear_0_3099)"/>
<path d="M22.9726 8.56094C21.6912 8.27356 20.3596 8.12061 18.9906 8.12061C17.4569 8.12061 15.9687 8.31065 14.5483 8.66755L18.7546 13.2042L22.9737 8.56094H22.9726Z" fill="url(#paint4_linear_0_3099)"/>
<path d="M18.7538 13.2046L14.5475 8.66797C12.8877 9.08513 11.3213 9.73173 9.87988 10.5672V13.4781L14.5324 17.8501L18.7538 13.2046Z" fill="url(#paint5_linear_0_3099)"/>
<path d="M14.5322 17.8501L14.5766 17.8919C15.8627 17.1665 17.359 16.7528 18.9908 16.7528C20.3177 16.7528 21.5769 17.0286 22.7193 17.5222L22.7392 17.5025L18.7548 13.2046L14.5334 17.8501H14.5322Z" fill="url(#paint6_linear_0_3099)"/>
<path d="M22.9725 8.56104L18.7534 13.2043L22.7377 17.5022L29.0512 11.1637C27.2314 9.95041 25.179 9.05583 22.9725 8.56104Z" fill="url(#paint7_linear_0_3099)"/>
<path d="M33.7855 15.7559L27.312 21.7792C27.5959 22.3203 27.833 22.8893 28.0059 23.4861H36.8845C36.4721 20.6378 35.3811 18.0074 33.7855 15.7559Z" fill="#82287F"/>
<path d="M9.81757 13.4209V22.2798L10.4799 22.9183C11.1761 20.8382 12.5579 19.107 14.3836 18.012L14.5308 17.8498L9.81641 13.4209H9.81757Z" fill="url(#paint8_linear_0_3099)"/>
<g filter="url(#filter0_d_0_3099)">
<path d="M9.06074 10.3584V25.5036C9.06074 25.5036 9.82466 26.1004 9.79897 24.4364C9.75692 21.7793 10.0513 15.2948 9.42401 10.6631C9.39131 10.4256 9.42869 10.6666 9.39131 10.4256C9.31538 9.93656 9.15769 10.8613 9.05957 10.3595L9.06074 10.3584Z" fill="white"/>
</g>
<path d="M9.85745 10.7974L9.76167 8.74405C9.66706 6.71155 8.48262 4.99888 6.94425 3.60834C5.40706 2.21665 2.04882 -0.0904805 0 0.00222182C0 0.00222182 0.182221 1.82382 0.400653 4.57129L9.87965 13.4777V10.5668C9.74882 10.6433 9.98594 10.7186 9.85745 10.7974Z" fill="url(#paint9_linear_0_3099)"/>
<path d="M0.400879 4.57129C0.600621 7.08816 0.830734 10.3826 0.980248 13.7708L9.81913 22.2798V13.4209L0.400879 4.57129Z" fill="url(#paint10_linear_0_3099)"/>
<path d="M14.3848 18.0123C14.449 17.9741 14.5098 17.9289 14.5763 17.8918L14.5319 17.8501L14.3848 18.0123Z" fill="url(#paint11_linear_0_3099)"/>
<path d="M1.08752 22.9878C1.07817 23.2566 1.06883 23.5266 1.05598 23.7862C0.985896 24.3308 1.08635 28.2707 1.60148 30.8026L5.43279 27.3413L1.08752 22.9878Z" fill="#B1D23F"/>
<path d="M1.60156 30.8026C1.71136 31.3426 1.83985 31.82 1.98937 32.185C2.46594 33.4875 3.09204 34.7193 3.84428 35.8618L9.19527 31.1108L5.43288 27.3413L1.60156 30.8026Z" fill="url(#paint12_linear_0_3099)"/>
<path d="M9.19523 31.1123L3.84424 35.8633C5.163 37.8645 6.87892 39.583 8.874 40.9225L13.8407 35.7671L9.19523 31.1123Z" fill="url(#paint13_linear_0_3099)"/>
<path d="M13.0977 43.0188C14.9444 43.6527 16.9255 44.0003 18.9906 44.0003C19.959 44.0003 20.9075 43.9203 21.8349 43.7755L17.2806 39.2134L13.0977 43.02V43.0188Z" fill="#EA7024"/>
<path d="M13.8407 35.7656L8.87402 40.921C10.1718 41.7924 11.5898 42.5004 13.0978 43.0184L17.2807 39.2118L13.8419 35.7656H13.8407Z" fill="url(#paint14_linear_0_3099)"/>
<path d="M36.8638 28.7969H27.9606C27.7445 29.4945 27.4467 30.1573 27.0811 30.7738L33.4635 36.8122C35.2074 34.5073 36.4059 31.7738 36.8649 28.7969H36.8638Z" fill="#D71A63"/>
<path d="M27.0795 30.7736C26.0014 32.5871 24.3194 34.0055 22.3091 34.761L28.4275 41.3591C30.3817 40.1702 32.0906 38.6232 33.4619 36.8109L27.0795 30.7725V30.7736Z" fill="url(#paint15_linear_0_3099)"/>
<path d="M15.0731 34.4879C13.085 33.5284 11.542 31.8505 10.6963 29.7798L9.19531 31.1124L13.8408 35.7672L15.0731 34.4891V34.4879Z" fill="#E5C31F"/>
<path d="M18.9894 35.3696C17.5632 35.3696 16.2409 35.0521 15.0717 34.4878L13.8394 35.7659L17.2782 39.2121L22.0884 34.8331C21.1165 35.1726 20.0769 35.3685 18.9883 35.3685L18.9894 35.3696Z" fill="url(#paint16_linear_0_3099)"/>
<path d="M28.4275 41.3593L22.3091 34.7612C22.2378 34.7879 22.1619 34.8076 22.0895 34.8331L17.2793 39.2121L21.8337 43.7742C24.2189 43.3999 26.4487 42.5621 28.4275 41.3593Z" fill="url(#paint17_linear_0_3099)"/>
<path d="M9.81556 23.3854L5.43408 27.3427L9.19648 31.1122L10.6975 29.7796C10.5164 29.3369 10.3692 28.8769 10.2548 28.4018C9.69525 26.7922 9.79687 25.0274 9.81673 23.3843L9.81556 23.3854Z" fill="url(#paint18_linear_0_3099)"/>
<path d="M0.97998 13.771C1.12015 16.9518 1.18556 20.2092 1.08744 22.9879L5.43271 27.3415L9.8177 23.3808V22.2788L0.97998 13.771Z" fill="url(#paint19_linear_0_3099)"/>
</g>
<defs>
<filter id="filter0_d_0_3099" x="8.05957" y="9.27783" width="2.77246" height="17.3301" filterUnits="userSpaceOnUse" color-interpolation-filters="sRGB">
<feFlood flood-opacity="0" result="BackgroundImageFix"/>
<feColorMatrix in="SourceAlpha" type="matrix" values="0 0 0 0 0 0 0 0 0 0 0 0 0 0 0 0 0 0 127 0" result="hardAlpha"/>
<feOffset/>
<feGaussianBlur stdDeviation="0.5"/>
<feColorMatrix type="matrix" values="0 0 0 0 0 0 0 0 0 0 0 0 0 0 0 0 0 0 1 0"/>
<feBlend mode="normal" in2="BackgroundImageFix" result="effect1_dropShadow_0_3099"/>
<feBlend mode="normal" in="SourceGraphic" in2="effect1_dropShadow_0_3099" result="shape"/>
</filter>
<linearGradient id="paint0_linear_0_3099" x1="9.79449" y1="25.6256" x2="10.4813" y2="25.6256" gradientUnits="userSpaceOnUse">
<stop stop-color="#214B37"/>
<stop offset="1" stop-color="#2F6444"/>
</linearGradient>
<linearGradient id="paint1_linear_0_3099" x1="9.57257" y1="22.8302" x2="12.9623" y2="22.8302" gradientUnits="userSpaceOnUse">
<stop stop-color="#214B37"/>
<stop offset="1" stop-color="#2F6444"/>
</linearGradient>
<linearGradient id="paint2_linear_0_3099" x1="22.7192" y1="17.5279" x2="22.7858" y2="17.5279" gradientUnits="userSpaceOnUse">
<stop offset="0.01" stop-color="#175179"/>
<stop offset="1" stop-color="#18446C"/>
</linearGradient>
<linearGradient id="paint3_linear_0_3099" x1="22.7378" y1="16.4719" x2="33.7855" y2="16.4719" gradientUnits="userSpaceOnUse">
<stop stop-color="#801B54"/>
<stop offset="1" stop-color="#661548"/>
</linearGradient>
<linearGradient id="paint4_linear_0_3099" x1="18.0608" y1="8.20983" x2="22.8235" y2="12.8262" gradientUnits="userSpaceOnUse">
<stop offset="0.01" stop-color="#175179"/>
<stop offset="1" stop-color="#101C41"/>
</linearGradient>
<linearGradient id="paint5_linear_0_3099" x1="9.87988" y1="13.2591" x2="18.7538" y2="13.2591" gradientUnits="userSpaceOnUse">
<stop offset="0.29" stop-color="#1D5566"/>
<stop offset="0.76" stop-color="#2164A5"/>
</linearGradient>
<linearGradient id="paint6_linear_0_3099" x1="14.5322" y1="15.5488" x2="22.738" y2="15.5488" gradientUnits="userSpaceOnUse">
<stop stop-color="#326497"/>
<stop offset="1" stop-color="#294B99"/>
</linearGradient>
<linearGradient id="paint7_linear_0_3099" x1="23.8112" y1="7.42659" x2="23.994" y2="17.1337" gradientUnits="userSpaceOnUse">
<stop offset="0.01" stop-color="#175179"/>
<stop offset="1" stop-color="#18446C"/>
</linearGradient>
<linearGradient id="paint8_linear_0_3099" x1="9.57228" y1="18.1684" x2="12.9621" y2="18.1684" gradientUnits="userSpaceOnUse">
<stop stop-color="#214B37"/>
<stop offset="1" stop-color="#2F6444"/>
</linearGradient>
<linearGradient id="paint9_linear_0_3099" x1="2.60249" y1="-12.6795" x2="4.92287" y2="5.63971" gradientUnits="userSpaceOnUse">
<stop stop-color="#90C34D"/>
<stop offset="1" stop-color="#65BC53"/>
</linearGradient>
<linearGradient id="paint10_linear_0_3099" x1="0.400879" y1="13.4255" x2="9.81796" y2="13.4255" gradientUnits="userSpaceOnUse">
<stop stop-color="#90C34D"/>
<stop offset="1" stop-color="#65BC53"/>
</linearGradient>
<linearGradient id="paint11_linear_0_3099" x1="14.3848" y1="17.9312" x2="14.5763" y2="17.9312" gradientUnits="userSpaceOnUse">
<stop stop-color="#326497"/>
<stop offset="1" stop-color="#294B99"/>
</linearGradient>
<linearGradient id="paint12_linear_0_3099" x1="1.60156" y1="31.6021" x2="9.19527" y2="31.6021" gradientUnits="userSpaceOnUse">
<stop stop-color="#C6D92C"/>
<stop offset="1" stop-color="#DEC623"/>
</linearGradient>
<linearGradient id="paint13_linear_0_3099" x1="3.84424" y1="36.0163" x2="13.8407" y2="36.0163" gradientUnits="userSpaceOnUse">
<stop stop-color="#E5C31F"/>
<stop offset="1" stop-color="#E1AD24"/>
</linearGradient>
<linearGradient id="paint14_linear_0_3099" x1="8.87402" y1="39.3926" x2="17.2795" y2="39.3926" gradientUnits="userSpaceOnUse">
<stop stop-color="#F39D1E"/>
<stop offset="1" stop-color="#E87524"/>
</linearGradient>
<linearGradient id="paint15_linear_0_3099" x1="22.3103" y1="36.0669" x2="33.4631" y2="36.0669" gradientUnits="userSpaceOnUse">
<stop offset="0.02" stop-color="#CE1F3E"/>
<stop offset="1" stop-color="#AE2036"/>
</linearGradient>
<linearGradient id="paint16_linear_0_3099" x1="13.8405" y1="36.8494" x2="22.0907" y2="36.8494" gradientUnits="userSpaceOnUse">
<stop offset="0.02" stop-color="#EB8037"/>
<stop offset="1" stop-color="#E55F25"/>
</linearGradient>
<linearGradient id="paint17_linear_0_3099" x1="17.2793" y1="39.2677" x2="28.4275" y2="39.2677" gradientUnits="userSpaceOnUse">
<stop offset="0.02" stop-color="#E44525"/>
<stop offset="1" stop-color="#EB4124"/>
</linearGradient>
<linearGradient id="paint18_linear_0_3099" x1="12.1237" y1="27.199" x2="2.52328" y2="27.385" gradientUnits="userSpaceOnUse">
<stop stop-color="#B1D23F"/>
<stop offset="1" stop-color="#63BB46"/>
</linearGradient>
<linearGradient id="paint19_linear_0_3099" x1="8.45338" y1="25.5303" x2="0.20941" y2="17.5894" gradientUnits="userSpaceOnUse">
<stop stop-color="#B1D23F"/>
<stop offset="1" stop-color="#63BB46"/>
</linearGradient>
<clipPath id="clip0_0_3099">
<rect width="145" height="44" fill="white"/>
</clipPath>
</defs>
</svg>
