<svg width="160" height="60" viewBox="0 0 160 60" fill="none" xmlns="http://www.w3.org/2000/svg">
<rect y="-0.000976562" width="160" height="60" rx="30" fill="#F2F2F2"/>
<path d="M101.638 26.4354H96.7743C96.4851 26.4354 96.2065 26.7246 96.0566 27.0032L94.0532 39.5911C94.0532 39.8803 94.1925 40.0196 94.4817 40.0196H97.0529C97.3421 40.0196 97.4814 39.8803 97.4814 39.5911L98.0492 36.0129C98.0492 35.7236 98.3385 35.4451 98.767 35.4451H100.342C103.631 35.4451 105.495 33.8703 105.923 30.7206C106.213 29.4351 105.923 28.2888 105.356 27.571C104.498 26.8532 103.213 26.4247 101.638 26.4247M102.206 31.1492C101.917 32.8632 100.631 32.8632 99.3455 32.8632H98.4884L99.0562 29.5743C99.0562 29.4351 99.1955 29.2851 99.4847 29.2851H99.774C100.631 29.2851 101.488 29.2851 101.917 29.8529C102.206 29.9921 102.206 30.4207 102.206 31.1384" fill="#139AD6"/>
<path d="M66.5849 26.4355H61.7211C61.4319 26.4355 61.1533 26.7248 61.0034 27.0033L59 39.5912C59 39.8804 59.1393 40.0197 59.4285 40.0197H61.7211C62.0104 40.0197 62.2889 39.7305 62.4389 39.4519L63.0067 36.013C63.0067 35.7238 63.296 35.4452 63.7245 35.4452H65.2993C68.5882 35.4452 70.4523 33.8704 70.8808 30.7208C71.1701 29.4352 70.8808 28.2889 70.313 27.5711C69.456 26.8533 68.3097 26.4248 66.5956 26.4248M67.1634 31.1493C66.8741 32.8634 65.5885 32.8634 64.303 32.8634H63.5852L64.153 29.5745C64.153 29.4352 64.2923 29.2852 64.5815 29.2852H64.8708C65.7278 29.2852 66.5849 29.2852 67.0134 29.853C67.1527 29.9923 67.3026 30.4208 67.1527 31.1386" fill="#263B80"/>
<path d="M81.326 31.01H79.0334C78.8941 31.01 78.6049 31.1493 78.6049 31.2992L78.4656 32.017L78.3264 31.7278C77.7586 31.01 76.7515 30.7314 75.6052 30.7314C73.0341 30.7314 70.7415 32.7348 70.313 35.4559C70.0237 36.8915 70.4522 38.177 71.17 39.0341C71.8878 39.8911 72.8841 40.1804 74.1697 40.1804C76.3123 40.1804 77.4586 38.8948 77.4586 38.8948L77.3193 39.6126C77.3193 39.9018 77.4586 40.0411 77.7479 40.0411H79.8905C80.1797 40.0411 80.4583 39.7519 80.6082 39.4733L81.8938 31.4599C81.7545 31.3207 81.4653 31.0314 81.326 31.0314M78.0371 35.6059C77.7479 36.8915 76.7515 37.8985 75.316 37.8985C74.5982 37.8985 74.0304 37.6092 73.7412 37.3307C73.4519 36.9022 73.3126 36.3344 73.3126 35.6166C73.4519 34.331 74.5982 33.324 75.8838 33.324C76.6015 33.324 77.0301 33.6133 77.4586 33.8918C77.8871 34.3203 78.0264 35.0381 78.0264 35.6059" fill="#263B80"/>
<path d="M116.229 31.0099H113.937C113.797 31.0099 113.508 31.1491 113.508 31.2991L113.369 32.0169L113.23 31.7276C112.662 31.0099 111.655 30.7313 110.509 30.7313C107.937 30.7313 105.645 32.7347 105.216 35.4558C104.927 36.8913 105.356 38.1769 106.073 39.034C106.791 39.891 107.787 40.1803 109.073 40.1803C111.216 40.1803 112.362 38.8947 112.362 38.8947L112.223 39.6125C112.223 39.9017 112.362 40.041 112.651 40.041H114.794C115.083 40.041 115.362 39.7517 115.512 39.4732L116.797 31.4598C116.658 31.3205 116.508 31.0313 116.229 31.0313M112.94 35.6058C112.651 36.8913 111.655 37.8984 110.219 37.8984C109.502 37.8984 108.934 37.6091 108.644 37.3306C108.355 36.9021 108.216 36.3343 108.216 35.6165C108.355 34.3309 109.502 33.3239 110.787 33.3239C111.505 33.3239 111.933 33.6131 112.362 33.8917C112.93 34.3202 113.08 35.038 112.93 35.6058" fill="#139AD6"/>
<path d="M93.7748 31.0096H91.3429C91.0536 31.0096 90.9144 31.1489 90.7751 31.2989L87.6254 36.1626L86.1899 31.5882C86.0506 31.2989 85.9006 31.1596 85.4721 31.1596H83.1795C82.8903 31.1596 82.751 31.4489 82.751 31.7274L85.3221 39.3123L82.8903 42.7512C82.751 43.0404 82.8903 43.469 83.1795 43.469H85.4721C85.7614 43.469 85.9006 43.3297 86.0399 43.1797L93.914 31.8774C94.3425 31.4489 94.0533 31.0204 93.7748 31.0204" fill="#263B80"/>
<path d="M118.95 26.8637L116.947 39.7409C116.947 40.0301 117.086 40.1694 117.376 40.1694H119.379C119.668 40.1694 119.947 39.8801 120.097 39.6016L122.1 27.0137C122.1 26.7245 121.961 26.5852 121.671 26.5852H119.379C119.24 26.4459 119.09 26.5852 118.95 26.8744" fill="#139AD6"/>
<path d="M53.4446 18.7131C52.4483 17.5668 50.5842 16.999 48.0131 16.999H40.8567C40.4282 16.999 39.9997 17.4275 39.8604 17.8561L37 36.5933C37 37.0218 37.2893 37.311 37.5678 37.311H42.003L43.1493 30.3047V30.5939C43.2886 30.1654 43.7171 29.7369 44.1456 29.7369H46.2883C50.4342 29.7369 53.5839 28.0228 54.5909 23.2983V22.8698C54.498 22.8698 54.498 22.8698 54.5909 22.8698C54.7302 21.0057 54.4516 19.8701 53.4446 18.7238" fill="#263B80"/>
<path d="M54.4516 22.8697V23.2982C53.4553 28.162 50.3056 29.7368 46.1489 29.7368H44.0063C43.5778 29.7368 43.1493 30.1653 43.01 30.5939L41.5745 39.325C41.5745 39.6143 41.7137 39.8928 42.1423 39.8928H45.8597C46.2882 39.8928 46.7167 39.6036 46.7167 39.175V39.0358L47.4345 34.6006V34.3113C47.4345 33.8828 47.863 33.5935 48.2916 33.5935H48.8594C52.4375 33.5935 55.2979 32.158 56.0157 27.8727C56.305 26.1586 56.155 24.5838 55.2979 23.5768C55.1587 23.2875 54.8694 23.009 54.4409 22.859" fill="#139AD6"/>
<path d="M53.4447 22.4305C53.3054 22.4305 53.1554 22.2912 53.0161 22.2912C52.8769 22.2912 52.7269 22.2912 52.5876 22.152C52.0198 22.0127 51.4413 22.0127 50.7235 22.0127H45.142C45.0028 22.0127 44.8528 22.0127 44.7135 22.152C44.4242 22.2912 44.285 22.5805 44.285 22.8697L43.1387 30.3046V30.5939C43.2779 30.1654 43.7065 29.7368 44.135 29.7368H46.2776C50.4236 29.7368 53.5732 28.0227 54.5802 23.2983C54.5802 23.159 54.5802 23.009 54.7195 22.8697C54.4303 22.7305 54.291 22.5805 54.0017 22.5805C53.7161 22.4876 53.5268 22.4412 53.4339 22.4412" fill="#232C65"/>
</svg>
