<svg width="400" height="244" viewBox="0 0 400 244" fill="none" xmlns="http://www.w3.org/2000/svg">
<g clip-path="url(#clip0_2092_1214)">
<path d="M34.9299 44.12H31.3999V171.76H34.9299V44.12Z" fill="#7291BA"/>
<path d="M66.32 53.82C65.1 54.03 63.87 54.23 62.63 54.42C55.52 55.5 48.21 56.14 40.71 56.39C32.13 56.68 23.31 56.47 14.27 55.82C10.37 55.54 6.43 55.18 2.45 54.74C1.63 54.65 0.82 54.56 0 54.46L12.88 2.35001C13.71 2.16001 14.54 1.98001 15.37 1.81001L17.1 1.48001C26.16 -0.17999 34.73 -0.42999 43.54 0.66001C45.64 0.91001 47.74 1.25001 49.88 1.66001C50.98 1.87001 52.09 2.10001 53.2 2.35001L66.32 53.82Z" fill="#A9CBE6"/>
<path d="M62.6402 54.42C55.5302 55.5 48.2202 56.14 40.7202 56.39C44.8802 53.92 48.9602 49.19 48.0902 40.21C47.1602 30.63 44.5602 8.94001 43.5602 0.670013C45.6602 0.920013 47.7602 1.26001 49.9002 1.67001L62.6402 54.42Z" fill="#95B9DB"/>
</g>
<g clip-path="url(#clip1_2092_1214)">
<path d="M266.142 244C340.07 244 400 235.315 400 224.603C400 213.89 340.07 205.205 266.142 205.205C192.215 205.205 132.285 213.89 132.285 224.603C132.285 235.315 192.215 244 266.142 244Z" fill="#9CCFF0"/>
<path d="M266.142 228.809C292.573 228.809 313.999 226.327 313.999 223.265C313.999 220.203 292.573 217.721 266.142 217.721C239.711 217.721 218.285 220.203 218.285 223.265C218.285 226.327 239.711 228.809 266.142 228.809Z" fill="#EBE7E1"/>
<path d="M266.142 236.627C239.211 236.627 213.892 235.416 194.832 233.21C163.861 229.62 163.861 225.174 163.861 223.265C163.861 221.356 163.861 216.91 194.832 213.321C213.892 211.115 239.211 209.892 266.142 209.892C293.074 209.892 318.393 211.103 337.453 213.321C368.423 216.91 368.423 221.356 368.423 223.265C368.423 225.174 368.423 229.62 337.453 233.21C318.393 235.416 293.074 236.627 266.142 236.627ZM167.328 223.265C167.74 223.86 171.149 227.14 196.822 229.975C215.562 232.055 240.172 233.198 266.142 233.198C292.113 233.198 316.722 232.055 335.462 229.975C361.136 227.129 364.545 223.848 364.957 223.265C364.545 222.671 361.136 219.39 335.462 216.555C316.722 214.475 292.113 213.332 266.142 213.332C240.172 213.332 215.562 214.475 196.822 216.555C171.149 219.402 167.74 222.682 167.328 223.265Z" fill="#EBE7E1"/>
<path d="M200.037 199.89C194.088 208.074 186.617 214.029 178.494 218.487C172.11 221.974 165.349 224.534 158.576 226.489C149.435 229.129 138.051 230.981 125.821 231.735C92.6994 233.793 53.3087 227.814 35.0262 207.583C15.245 185.728 8.60935 157.071 26.171 115.099C31.8686 101.485 40.1174 86.4769 51.2836 69.8228C68.7881 43.7499 105.959 26.4328 136.483 44.1614C153.908 54.2773 160.04 67.7881 159.571 83.6079C159.091 99.4276 166.985 111.635 177.316 119.385C177.888 119.808 178.46 120.231 179.043 120.643C188.951 127.809 199.992 133.776 206.204 145.652C214.796 162.147 210.632 185.316 200.037 199.89Z" fill="#9CCFF0"/>
<path d="M206.192 145.687C199.98 133.81 188.94 127.844 179.032 120.677C169.57 117.156 160.749 111.83 156.448 102.971C152.066 93.9296 153.393 83.1049 150.041 73.6291C145.064 59.5353 127.182 45.6131 113.464 52.8142C80.1488 70.2914 58.5142 107.92 60.2074 145.481C60.7223 157.323 63.9943 170.034 73.3987 177.235C81.0183 183.064 91.1549 184.173 100.731 184.699C120.272 185.785 139.904 185.396 159.388 183.544C165.005 182.996 170.783 182.367 176.16 184.047C181.537 185.739 186.4 190.46 186.297 196.095C186.194 201.387 181.949 205.605 177.751 208.817C169.673 215.035 160.017 219.23 150.258 221.768C125.546 228.192 100.193 224.888 75.5839 218.041C60.6536 213.892 45.7004 207.594 35.3122 196.106C22.0523 181.475 18.1395 160.26 20.3933 140.669C21.4001 131.959 23.4824 123.466 26.171 115.122C8.59784 157.094 15.2335 185.739 35.0262 207.605C53.3086 227.837 92.6994 233.815 125.821 231.758C138.051 231.004 149.434 229.152 158.576 226.511C159.457 226.26 160.338 225.986 161.207 225.711C161.699 225.551 162.191 225.391 162.694 225.231C163.083 225.105 163.472 224.98 163.85 224.843C164.399 224.66 164.937 224.465 165.474 224.271C165.818 224.145 166.149 224.031 166.493 223.905C167.053 223.7 167.602 223.482 168.163 223.265C168.483 223.139 168.804 223.014 169.124 222.888C169.685 222.659 170.245 222.431 170.794 222.202C171.115 222.065 171.435 221.928 171.756 221.779C172.305 221.539 172.842 221.299 173.392 221.048C173.735 220.888 174.089 220.716 174.433 220.556C174.936 220.316 175.451 220.076 175.943 219.825C176.492 219.55 177.03 219.264 177.579 218.979C177.876 218.819 178.174 218.67 178.46 218.51C178.46 218.51 178.46 218.499 178.483 218.499C186.617 214.041 194.099 208.074 200.037 199.901C210.631 185.316 214.796 162.147 206.192 145.687Z" fill="white"/>
<path d="M240.938 201.479C242.494 202.507 245.698 208.36 250.755 210.863C254.347 212.635 263.019 212.063 274.231 213.698C275.101 213.824 276.027 213.972 276.725 214.509C278.029 215.527 278.041 217.607 277.149 219.002C276.268 220.396 274.723 221.219 273.236 221.916C262.973 226.774 252.196 226.671 249.999 227.46C247.025 228.546 245.206 231.038 242.048 230.821C239.302 230.638 237.529 227.883 236.911 225.208C236.236 222.271 236.167 221.196 235.401 218.727C230.287 213.389 228.125 209.446 228.479 204.348C232.861 202.382 235.103 203.833 240.938 201.479Z" fill="#E57873"/>
<path d="M133.303 127.432C154.411 128.621 195.507 132.747 201.856 135.479C210.952 139.377 235.893 178.584 251.017 203.868C245.297 208.989 238.993 213.458 232.815 216.944C220.665 199.97 207.634 183.636 194.797 169.313C171.332 164.49 147.432 161.792 123.475 161.278C122.274 150.35 123.143 136.782 133.303 127.432Z" fill="#333343"/>
<path d="M111.462 9.25278C106.165 14.5451 105.17 27.1643 105.501 33.8625C105.833 40.5608 105.936 47.9106 101.806 53.1914C99.1403 56.6091 95.0673 58.6209 91.9669 61.65C85.7202 67.7767 84.1986 77.8584 87.4592 85.974C90.7084 94.0896 98.1907 100.125 106.565 102.662C114.94 105.189 124.081 104.446 132.376 101.657C140.625 98.879 148.908 93.0952 150.327 84.5223C151.86 75.2751 144.938 66.5308 145.041 57.1578C145.11 51.5912 147.638 46.4018 149.674 41.2238C151.711 36.0458 154.365 19.5859 152.066 17.7227C146.711 13.3792 142.192 14.7394 135.431 13.3792C128.681 12.0304 124.081 7.1953 111.462 9.25278Z" fill="#1A2E35"/>
<path d="M250.835 201.479C253.912 203.868 256.99 206.257 260.125 208.428C270.982 205.194 270.227 205.971 281.084 202.725C281.931 202.473 282.823 202.222 283.681 202.416C285.294 202.782 286.175 204.668 285.958 206.314C285.741 207.96 284.7 209.343 283.647 210.612C276.393 219.345 266.566 223.791 264.918 225.437C262.676 227.677 262.081 230.695 259.129 231.838C256.566 232.832 253.58 231.221 252.105 228.912C250.629 226.591 250.285 223.757 250.148 221.825C246.819 218.67 243.135 215.881 240.229 213.366C243.387 209.709 246.533 206.062 250.835 201.479Z" fill="#FDA68A"/>
<path d="M90.4798 119.877C87.3908 127.798 82.6543 133.227 81.7276 148.933C80.7895 164.707 91.5438 176.709 109.918 178.972C131.129 181.59 153.931 176.892 174.707 176.617C178.208 176.572 181.618 177.646 184.501 179.635C206.593 194.906 221.58 208.028 244.027 221.768C246.224 215.584 247.986 209.846 255.045 203.228C233.17 180.401 216.764 168.479 192.818 148.921C189.638 146.327 185.748 144.692 181.64 144.361C165.955 143.058 149.423 144.509 134.687 141.309C135.751 136.462 137.719 125.466 137.17 121.42C121.13 119.294 105.719 115.476 90.4798 119.877Z" fill="#333343"/>
<path d="M124.974 72.5775C125.523 73.2062 126.163 73.892 127.056 73.9606C128.005 74.0292 128.783 73.3548 129.39 72.7147C132.525 69.3998 134.595 65.3306 135.431 61.147C134.653 60.7013 133.909 60.2783 133.222 59.8897C132.593 59.5125 132.124 58.9867 131.85 58.3809C131.667 57.9351 131.598 57.455 131.644 56.9635C132.09 52.8142 132.479 50.5167 133.932 46.3103C127.01 44.7558 120.489 42.8926 116.736 39.7721C116.279 41.7038 115.741 45.4759 114.585 49.2137C113.361 53.18 111.439 57.1007 108.19 58.7809C114.585 62.5301 120.283 67.2166 124.974 72.5775Z" fill="#FDA68A"/>
<path d="M93.2713 66.7251C89.0726 72.2231 86.6471 113.396 88.695 124.666C102.55 131.113 122.617 130.278 137.925 127.066C137.536 119.145 140.099 105.566 142.227 99.8506C145.453 89.2545 147.615 84.488 150.247 70.0285C145.51 66.8165 139.813 63.6274 135.431 61.1356C134.596 65.3306 132.525 69.3998 129.39 72.7032C128.784 73.3433 127.994 74.0177 127.056 73.9491C126.164 73.892 125.523 73.1947 124.974 72.5661C120.272 67.1937 114.586 62.5187 108.202 58.7466C107.95 58.8724 107.71 59.021 107.447 59.1238C98.0422 62.7473 95.5252 63.776 93.2713 66.7251Z" fill="white"/>
<path d="M131.655 56.9521C131.609 57.4436 131.655 57.9237 131.861 58.3694C127.765 63.3303 118.613 56.8492 114.608 49.1908C115.764 45.453 116.302 41.681 116.759 39.7492C120.5 42.8812 127.033 44.7329 133.955 46.2875C132.49 50.4939 132.09 52.8028 131.655 56.9521Z" fill="#E57873"/>
<path d="M150.247 70.0742C153.805 73.2405 154.651 113.807 157.397 116.253C158.862 117.556 176.057 126.312 185.587 130.976C182.304 133.056 179.364 135.685 176.915 138.748C165.943 136.942 149.492 132.359 145.522 129.398C140.568 125.706 140.476 102.811 139.115 89.1745C142.261 83.0707 143.474 76.2352 150.247 70.0742Z" fill="#1A58BF"/>
<path d="M148.862 136.462C145.19 137.96 144.95 138.108 141.586 135.994C138.566 134.096 136.209 132.039 136.209 125.809C136.209 104.949 139.653 80.0416 133.532 60.0612C139.081 63.1474 144.286 65.3649 149.148 68.9541C150.613 70.0399 151.002 71.8574 151.002 73.6863C151.002 108.698 150.087 114.584 148.862 136.462Z" fill="#1A58BF"/>
<path d="M147.741 126.381C147.741 126.381 147.719 126.381 147.707 126.381C147.387 126.358 147.158 126.083 147.169 125.775C147.764 116.802 147.993 107.978 148.222 99.4505C148.439 91.2206 148.657 82.7163 149.206 74.3264C149.229 74.0063 149.503 73.7663 149.812 73.7891C150.133 73.812 150.361 74.0863 150.35 74.3949C149.801 82.762 149.572 91.2549 149.366 99.4734C149.149 108.012 148.92 116.848 148.313 125.843C148.291 126.141 148.039 126.381 147.741 126.381Z" fill="#333343"/>
<path d="M149.057 98.0103C148.908 98.0103 148.771 97.9531 148.656 97.8388C148.428 97.6216 148.428 97.2559 148.656 97.0272C150.27 95.4041 151.459 93.3924 152.077 91.2206C152.169 90.912 152.478 90.7291 152.787 90.8319C153.096 90.9234 153.267 91.232 153.176 91.5406C152.501 93.9067 151.219 96.0785 149.457 97.8388C149.343 97.9531 149.194 98.0103 149.057 98.0103Z" fill="#333343"/>
<path d="M128.726 141.595L128.681 144.269L165.211 145.081L214.018 140.314L214.189 136.599L128.726 141.595Z" fill="#D6CDC3"/>
<path d="M128.681 141.583L197.795 133.365L205.323 137.64L164.982 141.926L128.681 141.583Z" fill="white"/>
<path d="M246.429 94.4096L244.771 92.375L190.861 94.4096L163.506 141.937L164.936 143.321L246.429 94.4096Z" fill="#F5F2ED"/>
<path d="M191.914 96.1585L164.937 143.321L216.455 138.394L246.43 94.4097L191.914 96.1585Z" fill="#EBE7E1"/>
<path d="M144.629 32.5366C148.073 30.7992 151.986 31.5879 153.358 34.2969C154.731 37.0059 153.061 40.6294 149.606 42.3668C146.162 44.1042 142.249 43.3155 140.877 40.6065C139.504 37.8861 141.174 34.2741 144.629 32.5366Z" fill="#E57873"/>
<path d="M152.706 24.581C152.066 29.1075 150.04 34.1026 147.089 39.6235C146.059 35.1085 145.396 29.599 144.469 24.1009C143.542 18.58 142.352 13.0705 140.293 8.56695C139.824 7.5725 139.332 6.61234 138.783 5.73219C140.007 5.61789 141.231 5.73219 142.409 6.05225C144.251 6.54376 145.968 7.49248 147.375 8.76126C149.709 10.8416 151.276 13.6764 152.214 16.6597C152.992 19.1173 153.13 21.7577 152.706 24.581Z" fill="#1A2E35"/>
<path d="M149.24 29.2561C149.206 30.1477 149.148 31.0507 149.068 31.9651C147.81 46.6189 141.655 56.6777 132.227 56.6777C118.922 56.6777 110.295 41.7724 110.295 27.1529C110.295 12.5333 119.128 2.31451 129.47 3.52614C135.431 4.21197 139.79 6.18943 142.879 9.09277C144.927 11.0245 146.403 13.3563 147.409 15.9968C148.565 18.9687 149.114 22.3292 149.229 25.9527C149.229 25.9641 149.229 25.9755 149.229 25.987C149.286 27.05 149.274 28.1473 149.229 29.2561H149.24Z" fill="#FDA68A"/>
<path d="M149.24 29.2561C148.839 27.8387 148.256 26.4556 147.455 25.2097C139.607 29.3132 130.248 30.8907 121.381 29.3933C119.7 30.7992 118.041 32.1823 116.382 33.5654C116.416 26.9014 116.508 22.3864 119.116 19.1516C121.553 16.1225 125.637 14.9795 129.493 14.488C133.841 13.9164 138.257 13.9393 142.593 14.568C144.252 14.7966 145.979 15.1623 147.421 15.9968C148.576 18.9687 149.125 22.3292 149.24 25.9527C149.24 25.9641 149.24 25.9756 149.24 25.987C149.286 27.05 149.274 28.1473 149.24 29.2561Z" fill="#E57873"/>
<path d="M151.162 20.2374C149.331 21.7806 147.043 23.0608 144.48 24.0895C137.17 27.0386 127.662 28.0102 120.26 27.6558C116.622 35.6457 115.146 38.5147 114.219 45.4759C110.661 42.1382 107.767 36.0343 106.909 31.2335C106.062 26.4442 106.142 21.4376 107.481 16.7283C109.586 9.32137 114.883 5.34357 118.556 3.42325C119.471 2.92031 120.295 2.5774 120.935 2.3145C125.626 0.508489 130.923 0.668515 135.728 2.14304C138.36 2.95461 140.568 4.33769 142.421 6.0294C146.174 9.42424 148.496 14.0079 149.995 17.4484C150.464 18.5229 150.853 19.4716 151.162 20.2374Z" fill="#1A2E35"/>
<path d="M106.874 36.4001C108.282 33.7025 112.206 32.9595 115.627 34.7427C119.047 36.5258 120.684 40.1607 119.276 42.8583C117.869 45.5559 113.945 46.2989 110.524 44.5157C107.103 42.7326 105.467 39.0977 106.874 36.4001Z" fill="#FDA68A"/>
<path d="M124.493 33.5654C126.953 32.1594 129.058 31.2335 131.941 32.9138" stroke="#6B393A" stroke-miterlimit="10" stroke-linecap="round"/>
<path d="M141.06 33.1424C143.165 31.5765 145.865 31.8394 147.489 33.5654" stroke="#6B393A" stroke-miterlimit="10" stroke-linecap="round"/>
<path d="M138.268 39.532C138.485 41.7496 138.336 43.9899 137.833 46.1617" stroke="#CF5F66" stroke-miterlimit="10" stroke-linecap="round"/>
<path d="M136.3 49.3279C132.868 49.8309 130.534 48.7793 128.692 46.2646" stroke="#CF5F66" stroke-miterlimit="10" stroke-linecap="round"/>
<path d="M129.207 41.4867C129.769 41.4867 130.225 40.7702 130.225 39.8864C130.225 39.0026 129.769 38.2861 129.207 38.2861C128.644 38.2861 128.188 39.0026 128.188 39.8864C128.188 40.7702 128.644 41.4867 129.207 41.4867Z" fill="#494D54"/>
<path d="M142.867 41.4867C143.43 41.4867 143.886 40.7702 143.886 39.8864C143.886 39.0026 143.43 38.2861 142.867 38.2861C142.305 38.2861 141.849 39.0026 141.849 39.8864C141.849 40.7702 142.305 41.4867 142.867 41.4867Z" fill="#494D54"/>
<path d="M152.706 24.581C152.409 22.9808 151.951 21.4262 151.311 19.9288C150.956 19.083 150.51 18.26 149.995 17.4713C148.325 14.8423 145.888 12.6819 142.947 11.7332C142.112 10.5559 141.231 9.50425 140.293 8.56695C136.952 5.17211 133.04 3.24036 128.887 2.56597C125.432 2.00587 121.839 2.32593 118.533 3.44611C119.448 2.94317 120.272 2.60026 120.912 2.33736C125.603 0.531346 130.9 0.691373 135.705 2.1659C138.337 2.97746 140.545 4.36055 142.398 6.05226C144.24 6.54376 145.956 7.49249 147.364 8.76127C149.698 10.8416 151.265 13.6764 152.203 16.6597C152.992 19.1173 153.13 21.7577 152.706 24.581Z" fill="#33454B"/>
<path d="M110.055 57.4664C115.203 61.1699 116.519 68.1653 117.183 74.4635C119.082 92.5236 118.922 110.79 116.714 128.815C116.267 132.45 115.684 136.234 113.533 139.194C110.776 143.001 105.982 144.715 101.383 145.732C94.4383 147.264 87.242 147.687 79.4165 146.327C85.0568 130.77 87.4594 116.07 86.7844 99.5419C86.4755 92.1464 86.6929 85.4368 87.3679 77.9841C88.3632 66.8394 96.7722 62.1529 110.055 57.4664Z" fill="#1A58BF"/>
<path d="M140.659 128.975C144.789 127.672 148.931 126.358 153.244 125.02C157.351 124.403 161.71 125.752 164.742 128.895C165.76 130.77 166.367 132.873 166.493 134.999C166.516 135.456 166.527 135.925 166.367 136.348C166.218 136.771 165.875 137.16 165.417 137.251C164.902 137.354 164.376 137.034 164.067 136.611C163.758 136.188 163.621 135.662 163.461 135.159C162.855 133.25 161.905 131.456 160.509 129.741C161.47 132.084 161.436 134.702 161.333 137.228C161.31 137.788 161.276 138.371 160.99 138.851C160.704 139.331 160.097 139.674 159.582 139.469C159.045 139.251 158.862 138.611 158.747 138.051C158.335 136.097 157.912 134.153 157.752 131.936C157.798 134.108 157.74 136.279 157.603 138.451C157.557 139.148 157.466 139.914 156.962 140.394C156.608 140.726 156.082 140.852 155.612 140.726C155.143 140.6 154.754 140.211 154.56 139.663C154.423 140.131 154.274 140.623 153.954 140.989C153.633 141.366 153.095 141.595 152.638 141.423C152.146 141.229 151.929 140.657 151.803 140.131C151.517 138.92 151.391 137.674 151.745 136.76C149.801 137.937 147.467 138.463 145.201 138.257C142.936 138.051 140.751 137.091 139.378 135.594C139.527 133.25 140.042 130.919 140.659 128.975Z" fill="#FDA68A"/>
<path d="M94.793 65.182C91.4752 66.8851 89.2099 70.2114 88.0543 73.7663C86.9103 77.3097 86.7501 81.1046 86.773 84.8309C86.8645 101.474 89.0955 127.467 96.1888 131.559C104.815 136.542 125.603 139.171 141.449 138.737C141.094 135.376 140.43 131.627 142.661 128.381C129.504 126.506 113.064 120.62 110.284 117.842C107.023 114.584 109.38 92.1236 106.337 76.6925C105.456 72.1774 101.738 66.4165 94.793 65.182Z" fill="#1A58BF"/>
<path d="M116.977 122.037C116.977 122.037 116.942 122.037 116.92 122.037C114.837 121.854 110.57 120.585 109.666 118.379C108.888 116.493 108.43 110.389 107.847 102.674C107.103 92.7751 106.177 80.4417 104.197 71.8345C104.129 71.5259 104.323 71.2173 104.632 71.1487C104.941 71.0801 105.25 71.2744 105.319 71.5831C107.321 80.2702 108.247 92.6494 109.003 102.594C109.552 109.909 110.032 116.23 110.742 117.945C111.314 119.339 114.597 120.677 117.034 120.894C117.343 120.928 117.583 121.203 117.549 121.511C117.526 121.808 117.274 122.037 116.977 122.037Z" fill="#333343"/>
<path d="M107.996 94.3525C107.904 94.3525 107.813 94.3297 107.721 94.2839C107.447 94.1353 107.344 93.7924 107.492 93.5067C109.849 89.1174 110.479 86.6255 111.188 81.3561C111.234 81.0475 111.52 80.8189 111.829 80.8646C112.137 80.9103 112.366 81.1961 112.32 81.5047C111.611 86.8427 110.925 89.5403 108.499 94.0439C108.396 94.2382 108.202 94.3411 107.996 94.3411V94.3525Z" fill="#333343"/>
<path d="M113.819 137.045C113.819 137.045 113.773 137.045 113.762 137.045C112.538 136.92 111.245 136.794 109.941 136.679C103.431 136.074 97.2871 135.502 95.365 133.582C92.8366 131.056 92.2531 127.695 91.3035 122.117C91.0862 120.837 90.8459 119.42 90.5484 117.876C89.4272 111.853 88.5005 105.189 87.3908 96.3757C87.3564 96.0671 87.5738 95.7813 87.8827 95.7356C88.2031 95.6899 88.4776 95.9185 88.5234 96.2271C89.8391 106.606 90.6972 112.413 91.6811 117.659C91.9671 119.214 92.2188 120.631 92.4362 121.923C93.3858 127.455 93.9006 130.507 96.1773 132.77C97.8134 134.405 104.312 135.011 110.055 135.536C111.371 135.662 112.664 135.776 113.888 135.914C114.197 135.948 114.425 136.234 114.391 136.542C114.357 136.84 114.117 137.057 113.819 137.057V137.045Z" fill="#333343"/>
<path d="M145.51 195.855C118.201 175.269 81.5558 167.587 48.2744 175.474L145.51 195.855Z" fill="#9CCFF0"/>
<path d="M104.586 184.15C91.5663 165.301 67.9525 154.317 46.0776 157.7C45.3111 169.211 52.9993 180.184 63.1702 185.625C73.3411 191.066 85.5256 191.683 104.586 184.15Z" fill="#9CCFF0"/>
<path d="M96.1885 187.362C105.879 180.378 118.201 177.143 130.076 178.458C141.952 179.784 153.255 185.659 161.252 195.043C140.545 200.587 118.178 199.764 96.1885 187.362Z" fill="#9CCFF0"/>
</g>
<defs>
<clipPath id="clip0_2092_1214">
<rect width="66.32" height="171.76" fill="white"/>
</clipPath>
<clipPath id="clip1_2092_1214">
<rect width="384" height="243" fill="white" transform="translate(16 1)"/>
</clipPath>
</defs>
</svg>
