<svg width="456" height="300" viewBox="0 0 456 300" fill="none" xmlns="http://www.w3.org/2000/svg">
<mask id="mask0_0_1235" style="mask-type:luminance" maskUnits="userSpaceOnUse" x="0" y="0" width="456" height="300">
<path d="M436 0H20C8.9543 0 0 8.9543 0 20V280C0 291.046 8.9543 300 20 300H436C447.046 300 456 291.046 456 280V20C456 8.9543 447.046 0 436 0Z" fill="white"/>
</mask>
<g mask="url(#mask0_0_1235)">
<path d="M296.45 145.99H296.02V100.81C296.02 85.8299 283.88 73.6899 268.9 73.6899H104.48C89.5 73.6899 77.36 85.8299 77.36 100.81V145.99H76.93C74.97 145.99 73.39 147.58 73.39 149.53V180.78C73.39 182.74 74.98 184.32 76.93 184.32H77.36V191.77H76.93C74.97 191.77 73.39 193.36 73.39 195.31V226.56C73.39 228.52 74.98 230.1 76.93 230.1H77.36V503.81C77.36 518.79 89.5 530.93 104.48 530.93H268.9C283.88 530.93 296.02 518.79 296.02 503.81V203.49H296.45C298.41 203.49 299.99 201.9 299.99 199.95V149.53C299.99 147.57 298.4 145.99 296.45 145.99Z" fill="#333343"/>
<path d="M261.11 80.3899H112.25C97.3328 80.3899 85.24 92.4827 85.24 107.4V497.23C85.24 512.147 97.3328 524.24 112.25 524.24H261.11C276.027 524.24 288.12 512.147 288.12 497.23V107.4C288.12 92.4827 276.027 80.3899 261.11 80.3899Z" fill="white"/>
<path d="M155.31 176.42H118.34V213.39H155.31V176.42Z" fill="#5264AE"/>
<path d="M226.44 180.4C226.44 180.57 214.08 180.71 198.83 180.71C183.58 180.71 171.22 180.57 171.22 180.4C171.22 180.23 183.58 180.09 198.83 180.09C214.08 180.09 226.44 180.23 226.44 180.4Z" fill="#5264AE"/>
<path d="M270.47 191.73C270.47 191.9 248.25 192.04 220.85 192.04C193.45 192.04 171.22 191.9 171.22 191.73C171.22 191.56 193.43 191.42 220.85 191.42C248.27 191.42 270.47 191.56 270.47 191.73Z" fill="#333343"/>
<path d="M269.3 199.82C269.3 199.99 247.34 200.13 220.26 200.13C193.18 200.13 171.22 199.99 171.22 199.82C171.22 199.65 193.17 199.51 220.26 199.51C247.35 199.51 269.3 199.65 269.3 199.82Z" fill="#333343"/>
<path d="M229.13 207.54C229.13 207.71 216.17 207.85 200.18 207.85C184.19 207.85 171.22 207.71 171.22 207.54C171.22 207.37 184.18 207.23 200.18 207.23C216.18 207.23 229.13 207.37 229.13 207.54Z" fill="#333343"/>
<path d="M155.31 243.27H118.34V280.24H155.31V243.27Z" fill="#5264AE"/>
<path d="M226.44 247.25C226.44 247.42 214.08 247.56 198.83 247.56C183.58 247.56 171.22 247.42 171.22 247.25C171.22 247.08 183.58 246.94 198.83 246.94C214.08 246.94 226.44 247.08 226.44 247.25Z" fill="#5264AE"/>
<path d="M270.47 258.58C270.47 258.75 248.25 258.89 220.85 258.89C193.45 258.89 171.22 258.75 171.22 258.58C171.22 258.41 193.43 258.27 220.85 258.27C248.27 258.27 270.47 258.41 270.47 258.58Z" fill="#333343"/>
<path d="M269.3 266.67C269.3 266.84 247.34 266.98 220.26 266.98C193.18 266.98 171.22 266.84 171.22 266.67C171.22 266.5 193.17 266.36 220.26 266.36C247.35 266.36 269.3 266.5 269.3 266.67Z" fill="#333343"/>
<path d="M229.13 274.39C229.13 274.56 216.17 274.7 200.18 274.7C184.19 274.7 171.22 274.56 171.22 274.39C171.22 274.22 184.18 274.08 200.18 274.08C216.18 274.08 229.13 274.22 229.13 274.39Z" fill="#333343"/>
<path d="M247.2 217.16C247.2 217.16 240.14 206.57 239.95 206.48C239.95 206.48 233.57 195.74 231.45 195.74C229.32 195.74 230.1 197.92 232.28 201.76C234.2 205.13 234.39 207.24 234.39 207.24L229.15 210.4C229.15 210.4 225.65 209.05 225.51 212.31C225.46 213.4 225.75 214.75 226.11 216.74C226.32 217.9 226.85 219.14 227.94 218.7C228.44 218.5 228.85 218.11 228.88 217.39C228.95 215.46 228.59 214.75 228.83 214.75C229.14 214.75 232.6 224.87 232.6 224.87L247.19 217.16H247.2Z" fill="#FFBF9D"/>
<path d="M232.93 208.84C232.39 208.47 231.85 208.1 231.25 207.84C230.65 207.58 229.99 207.44 229.34 207.54C228.94 207.61 228.54 207.78 228.28 208.11C227.93 208.55 227.9 209.18 228.08 209.72C228.26 210.26 228.6 210.71 228.94 211.16" fill="#FFBF9D"/>
<path d="M235.32 206.7C234.81 206.35 234.29 206 233.73 205.76C233.16 205.51 232.53 205.38 231.92 205.48C231.54 205.54 231.16 205.71 230.91 206.01C230.58 206.42 230.55 207.02 230.72 207.52C230.89 208.02 232.03 209.19 232.35 209.62" fill="#FFBF9D"/>
<path d="M244.74 211.18L254.95 233.01L243.7 244.51L237.84 228.24C237.84 228.24 234.7 228.87 233.42 226.78C231.99 224.45 230.11 217.73 230.11 217.73L244.75 211.18H244.74Z" fill="#FFBF9D"/>
<path d="M237.44 210.57C237.25 210.65 236.73 209.28 235.76 207.9C234.77 206.53 233.47 205.86 233.57 205.68C233.6 205.55 235.13 205.98 236.27 207.52C237.34 209.05 237.58 210.52 237.45 210.56L237.44 210.57Z" fill="#FF9A6C"/>
<path d="M226.12 210.67C226.07 210.61 226.36 210.28 227 210.04C227.63 209.81 228.66 209.74 229.62 210.27C230.57 210.8 231.06 211.65 231.35 212.21C231.64 212.8 231.74 213.18 231.67 213.22C231.59 213.26 231.34 212.95 230.97 212.44C230.6 211.95 230.09 211.24 229.32 210.81C228.55 210.39 227.7 210.36 227.12 210.46C226.53 210.55 226.18 210.73 226.12 210.65V210.67Z" fill="#FF9A6C"/>
<path d="M229.92 207.59C229.9 207.43 231.4 207.39 232.71 208.55C233.99 209.7 234.32 211.07 234.18 211.11C234 211.2 233.43 210.02 232.3 209.02C231.17 208 229.9 207.77 229.93 207.58L229.92 207.59Z" fill="#FF9A6C"/>
<path d="M227.41 212.3C227.59 212.33 227.62 212.99 228.04 213.62C228.43 214.27 229.01 214.59 228.96 214.76C228.94 214.93 228.04 214.82 227.51 213.96C226.97 213.1 227.25 212.24 227.42 212.3H227.41Z" fill="#FF9A6C"/>
<path d="M247.17 216.73C247.17 216.73 247.53 210.21 245.95 208.74C244.38 207.26 239.86 208.8 239.86 208.8" fill="#FFBF9D"/>
<path d="M239.23 205.69C239.37 205.58 240.63 207.09 242.04 209.06C243.46 211.03 244.49 212.7 244.34 212.8C244.19 212.9 242.93 211.39 241.53 209.43C240.12 207.48 239.09 205.8 239.23 205.69Z" fill="#FF9A6C"/>
<path d="M349.23 211.63C349.07 210.76 348.86 209.74 348.56 208.55C348.3 207.53 347.86 206.57 347.27 205.69C346.56 204.63 345.55 203.26 344.77 202.68C343.8 201.96 344.21 200.44 345.3 200.45C346.39 200.45 349.11 202.36 350.98 205.76C352.85 209.16 353.94 203.16 354.38 200.98C354.82 198.8 356.49 192.12 357.27 191.72C358.41 191.14 359.24 192.25 358.75 194.42C358.25 196.61 357.25 203.19 358.41 203.37C359.56 203.54 361.64 192.41 361.64 192.41C361.64 192.41 361.7 189.96 363.05 190.12C365.49 190.41 362.4 202.07 362.08 203.18C361.86 203.95 363.11 204.18 363.31 203.35C363.51 202.49 365.13 192.2 367.61 192.47C369.51 192.68 365.16 202.09 366.01 204.41C366.86 206.73 368.59 196.93 370.4 197.21C371.07 197.31 371.56 197.48 369.76 202.96C368.88 205.62 365.49 218.08 365.49 218.08L367.44 228.29L351.93 232.22L349.23 211.63Z" fill="#FFBF9D"/>
<path d="M329.61 156.29L329.77 207.14L307.96 208.18L307.33 195.81C307.33 195.81 299.58 197.35 297.58 190.15C296.3 185.55 296.62 150.03 296.62 150.03L329.61 156.29Z" fill="#FFBF9D"/>
<path d="M293.75 153.61C297.19 154.59 297.93 160.21 297.93 160.21L303.32 172.11C306.07 169.96 309.75 170.08 310.45 174.91C310.95 178.4 306.62 179.1 306.62 179.1C309.14 183.39 310.85 186.87 314.53 190.95C318.51 195.37 320.73 195.82 325.05 195.89H329.81C329.81 195.89 332.14 188.33 336.45 169.44C341.23 148.48 316.44 151.18 311.85 145.83C304.37 137.12 282.93 150.51 293.76 153.61H293.75Z" fill="#1A2E35"/>
<path d="M335.98 171.42C340 168.72 340.36 161.17 338.02 156.64C335.68 152.11 330.74 149.04 325.64 148.94C324.96 148.93 324.25 148.96 323.62 148.71C322.68 148.35 322.07 147.45 321.45 146.65C317.86 141.98 314.33 137.39 307.64 137.39C306.55 137.39 305.35 137.39 303.43 138.43C302.47 138.95 301.13 140.71 300.9 141.78C299.64 141.18 298.36 140.58 296.98 140.37C295.6 140.16 294.09 140.4 293.05 141.33C292.01 142.26 291.62 143.96 292.43 145.09C290.17 144.95 288.04 146.81 287.68 149.05C287.32 151.28 290.52 152.85 290.86 153.02C290.86 153.02 289.1 156.7 293.29 158.9C294.98 159.79 297.17 158.72 297.42 158.59" fill="#1A2E35"/>
<path d="M320.06 176.31C320.24 176.31 320.3 178.02 320.76 180.04C321.21 182.07 321.89 183.63 321.73 183.71C321.59 183.79 320.62 182.3 320.15 180.18C319.67 178.06 319.9 176.3 320.06 176.31Z" fill="#375A64"/>
<path d="M317.42 173.81C317.6 173.8 317.83 175.43 318.2 177.42C318.57 179.41 318.94 181.01 318.77 181.07C318.61 181.12 317.96 179.57 317.58 177.54C317.2 175.51 317.25 173.82 317.42 173.82V173.81Z" fill="#375A64"/>
<path d="M309.86 165.42C309.9 165.36 310.62 165.69 311.52 166.58C312.43 167.45 313.43 168.92 314.12 170.71C314.8 172.5 315.11 174.2 315.28 175.42C315.45 176.64 315.49 177.41 315.41 177.42C315.32 177.44 315.12 176.7 314.84 175.5C314.55 174.31 314.19 172.66 313.53 170.94C312.87 169.22 311.98 167.8 311.2 166.89C310.42 165.97 309.81 165.51 309.87 165.43L309.86 165.42Z" fill="#375A64"/>
<path d="M306.81 159.71C307 159.74 306.49 161.88 307.15 164.41C307.76 166.95 309.22 168.6 309.07 168.72C308.99 168.86 307.21 167.29 306.54 164.57C305.84 161.85 306.67 159.63 306.81 159.71Z" fill="#375A64"/>
<path d="M332.84 172.41C332.76 172.26 333.29 171.8 334.04 171.38C334.79 170.96 335.47 170.74 335.55 170.9C335.63 171.05 335.1 171.51 334.35 171.93C333.6 172.35 332.92 172.57 332.84 172.41Z" fill="#375A64"/>
<path d="M322.31 166.98C322.49 166.94 322.82 167.87 323.44 168.89C324.05 169.91 324.72 170.64 324.6 170.78C324.5 170.91 323.57 170.34 322.9 169.22C322.22 168.1 322.14 167.01 322.31 166.99V166.98Z" fill="#375A64"/>
<path d="M319.06 165.24C319.23 165.19 319.7 166.32 320.52 167.56C321.33 168.8 322.2 169.67 322.09 169.81C321.99 169.94 320.88 169.24 320 167.91C319.11 166.58 318.9 165.28 319.06 165.25V165.24Z" fill="#375A64"/>
<path d="M302.96 143.95C302.96 143.95 303.03 143.84 303.2 143.67C303.37 143.49 303.65 143.27 304.04 143C304.82 142.49 306.11 141.93 307.79 141.84C309.46 141.73 311.52 142.08 313.45 143.23C315.38 144.37 317.06 146.26 318.26 148.5C319.13 150.13 319.72 151.82 320.14 153.4L319.71 153.21C321.43 152.33 323.24 151.97 324.84 151.98C326.44 151.98 327.84 152.31 328.93 152.73C330.02 153.15 330.82 153.65 331.32 154.03C331.82 154.42 332.06 154.66 332.04 154.69C331.98 154.78 330.95 153.82 328.8 153.09C326.71 152.37 323.27 152.02 320 153.75L319.67 153.93L319.57 153.57C319.15 152.03 318.56 150.39 317.72 148.81C316.56 146.64 314.97 144.84 313.17 143.73C311.37 142.62 309.42 142.24 307.83 142.29C306.22 142.33 304.97 142.79 304.18 143.22C303.39 143.66 303.02 144.01 302.98 143.97L302.96 143.95Z" fill="#375A64"/>
<path d="M291.49 146.71C291.52 146.78 290.93 146.73 290.42 147.42C290.18 147.75 289.98 148.26 290.07 148.83C290.15 149.39 290.57 149.98 291.22 150.32C291.86 150.68 292.7 150.79 293.55 150.57C294.41 150.36 295.25 149.88 296.08 149.28C296.91 148.68 297.76 147.95 298.79 147.38C299.81 146.81 300.97 146.4 302.18 146.17C304.62 145.72 307.02 146.01 309.03 146.68C311.05 147.36 312.7 148.37 313.97 149.33C315.24 150.29 316.15 151.21 316.75 151.87C317.34 152.53 317.63 152.93 317.6 152.96C317.51 153.05 316.25 151.52 313.7 149.7C312.42 148.8 310.8 147.87 308.84 147.24C306.9 146.62 304.6 146.36 302.28 146.79C301.13 147.01 300.04 147.39 299.07 147.92C298.1 148.44 297.27 149.14 296.4 149.75C295.54 150.36 294.61 150.87 293.65 151.08C292.69 151.3 291.7 151.15 290.98 150.71C290.25 150.28 289.77 149.57 289.7 148.88C289.64 148.19 289.91 147.63 290.21 147.28C290.86 146.55 291.51 146.71 291.47 146.72L291.49 146.71Z" fill="#375A64"/>
<path d="M351.78 209.62L378.44 257.28C379.99 261.32 379.1 266.59 376.38 269.95L376.93 269.16C374.77 271.83 371.52 273.39 368.08 273.39H367.58C363.05 273.39 358.95 270.7 357.15 266.55L350.89 257.05L351.78 209.62Z" fill="#5264AE"/>
<path d="M294.05 206.21C299.28 203.54 304.44 202.94 310.08 202.77C316.64 202.58 325.89 201.66 332.96 202.41C332.96 202.41 354.5 201.75 354.6 218.45L351.75 282.55L356.36 310.02L291.8 311.97L292.26 279.56C291.46 262.7 293.16 238.82 293.16 238.82C292.17 229.75 287.21 225.67 286.5 219.78C285.88 214.57 289.36 208.6 294.04 206.21H294.05Z" fill="#5264AE"/>
<path d="M312.25 283.48C312.32 283.39 313.72 284.64 316.34 286.03C318.94 287.43 322.9 288.84 327.43 288.92C331.96 289 335.97 287.73 338.62 286.42C341.3 285.12 342.73 283.92 342.8 284.02C342.82 284.05 342.49 284.38 341.83 284.9C341.17 285.42 340.16 286.11 338.82 286.82C336.17 288.25 332.08 289.63 327.42 289.55C322.76 289.47 318.72 287.94 316.12 286.42C314.81 285.66 313.82 284.94 313.18 284.39C312.54 283.85 312.21 283.51 312.24 283.48H312.25Z" fill="#1A2E35"/>
<path d="M354.6 218.45C354.6 218.45 354.64 218.67 354.64 219.08C354.64 219.57 354.64 220.17 354.64 220.9C354.61 222.57 354.57 224.83 354.52 227.57C354.38 233.2 354.14 240.99 353.77 249.58C353.41 258.17 352.99 265.95 352.6 271.57C352.4 274.38 352.23 276.66 352.07 278.22C351.99 278.95 351.93 279.54 351.88 280.03C351.83 280.44 351.79 280.66 351.77 280.66C351.75 280.66 351.74 280.44 351.75 280.02C351.77 279.53 351.79 278.93 351.82 278.21C351.9 276.54 352.01 274.29 352.15 271.55C352.41 265.84 352.75 258.1 353.13 249.56C353.49 241.01 353.82 233.28 354.06 227.57C354.19 224.83 354.3 222.57 354.38 220.9C354.43 220.17 354.47 219.57 354.5 219.09C354.53 218.68 354.56 218.46 354.58 218.46L354.6 218.45Z" fill="#1A2E35"/>
<path d="M368.13 223.99C368.13 223.99 370.57 231.16 371.01 232.13C371.01 232.13 377.04 249.56 379 261.33L359.73 226.52C359.57 226.54 367.88 224.06 368.14 223.99H368.13Z" fill="#5264AE"/>
<path d="M358.64 221.88C358.64 221.88 359.09 222.5 359.79 223.67C360.56 224.92 361.58 226.59 362.81 228.61C365.35 232.79 369.08 238.41 372.83 244.89C374.7 248.13 376.27 251.33 377.62 254.28C378.97 257.24 379.66 260.22 379.42 262.71C379.22 265.2 378.43 267.1 377.71 268.27C377.35 268.86 377.02 269.29 376.78 269.56C376.54 269.83 376.4 269.96 376.38 269.95C376.33 269.91 376.85 269.35 377.49 268.15C378.13 266.97 378.84 265.09 378.97 262.68C379.14 260.27 378.44 257.42 377.09 254.51C375.72 251.6 374.14 248.41 372.28 245.19C368.56 238.74 364.88 233.07 362.43 228.83C361.19 226.72 360.23 224.99 359.58 223.78C358.94 222.57 358.6 221.89 358.64 221.87V221.88Z" fill="#1A2E35"/>
<path d="M239.9 239.68L254.84 229.91L264.27 246.24C264.27 246.24 277.34 228.07 283.28 217.43C288.74 207.63 295.81 204.99 299.23 204.28C300.24 204.07 301.15 204.91 301.04 205.93L295.89 241.26C295.24 243.1 284.46 258.73 278.43 266.6C268.37 279.73 253.56 271.33 249.49 262.14C246.26 254.85 241.23 243.77 239.91 239.68H239.9Z" fill="#5264AE"/>
<path d="M259.97 260.99C259.89 260.99 259.83 260.09 259.84 258.64C259.86 257.19 259.94 255.17 260.4 252.97C260.86 250.77 261.7 248.88 262.53 247.66C263.35 246.43 264.07 245.85 264.12 245.9C264.2 245.97 263.61 246.65 262.91 247.89C262.21 249.13 261.47 250.96 261.02 253.1C260.57 255.23 260.42 257.22 260.29 258.66C260.17 260.1 260.07 260.99 259.98 260.99H259.97Z" fill="#1A2E35"/>
<path d="M255.6 253.69C255.53 253.69 255.45 252.9 255.73 251.66C256.01 250.44 256.73 248.76 258.1 247.36C259.42 245.95 261.16 245.09 262.49 245.18C263.83 245.23 264.45 245.89 264.39 245.93C264.34 246.02 263.68 245.56 262.5 245.62C261.33 245.65 259.81 246.46 258.56 247.79C257.29 249.1 256.55 250.64 256.17 251.78C255.79 252.93 255.71 253.69 255.61 253.69H255.6Z" fill="#1A2E35"/>
<path d="M300.19 208.65C300.19 208.65 300.35 208.75 300.63 208.98C300.92 209.2 301.3 209.56 301.76 210.08C302.66 211.1 303.83 212.77 304.57 215.13C305.35 217.46 305.69 220.44 305.28 223.67C305.07 225.28 304.69 226.96 303.99 228.6C303.32 230.24 302.44 231.83 301.56 233.46C297.88 239.92 294.06 245.44 291.24 249.4C289.82 251.37 288.65 252.95 287.8 254.01C287.38 254.55 287.04 254.95 286.81 255.22C286.58 255.49 286.45 255.63 286.43 255.61C286.39 255.58 286.83 254.97 287.6 253.86C288.43 252.66 289.53 251.07 290.87 249.14C293.59 245.13 297.35 239.57 301 233.15C301.88 231.53 302.75 229.95 303.41 228.36C304.09 226.79 304.47 225.16 304.69 223.59C305.12 220.45 304.84 217.55 304.13 215.26C303.47 212.95 302.38 211.29 301.56 210.24C301.14 209.71 300.79 209.33 300.54 209.08C300.3 208.82 300.17 208.68 300.19 208.66V208.65Z" fill="#1A2E35"/>
<g opacity="0.3">
<path d="M316.86 286.36C312.1 284.19 308.33 279.21 308.2 274.16C308.16 272.8 308.41 271.34 309.37 270.39C310.78 269 313.16 269.26 314.91 270.18C317.8 271.7 319.68 274.54 321.71 277.1C323.74 279.65 326.31 282.16 329.56 282.47C330.95 282.6 332.34 282.31 333.73 282.16C335.12 282.01 336.59 282 337.83 282.66C339.07 283.31 339.96 284.8 339.52 286.13C339.52 286.13 333.82 289.68 327.86 289.26C321.91 288.84 316.86 286.38 316.86 286.38V286.36Z" fill="black"/>
</g>
<path d="M254.42 123.83H118.94C112.799 123.83 107.82 128.809 107.82 134.95C107.82 141.091 112.799 146.07 118.94 146.07H254.42C260.561 146.07 265.54 141.091 265.54 134.95C265.54 128.809 260.561 123.83 254.42 123.83Z" fill="#F0F3FF"/>
<path d="M260.79 139.03L258.89 137.13C259.48 136.37 259.84 135.42 259.84 134.38C259.84 131.9 257.83 129.9 255.36 129.9C252.89 129.9 250.88 131.91 250.88 134.38C250.88 136.85 252.89 138.86 255.36 138.86C256.4 138.86 257.35 138.5 258.11 137.91L260.01 139.81C260.12 139.91 260.26 139.97 260.41 139.97C260.56 139.97 260.7 139.91 260.81 139.81C261.03 139.59 261.03 139.24 260.81 139.02L260.79 139.03ZM251.99 134.38C251.99 132.52 253.5 131.02 255.35 131.02C257.21 131.02 258.71 132.53 258.71 134.38C258.71 136.24 257.2 137.74 255.35 137.74C253.5 137.74 251.99 136.23 251.99 134.38Z" fill="#333343"/>
<path d="M101.56 101.05L97.34 103.87V109.85H105.78V103.87L101.56 101.05Z" stroke="#333343" stroke-miterlimit="10"/>
<path d="M269.03 102.65H276.02" stroke="#333343" stroke-miterlimit="10" stroke-linecap="round"/>
<path d="M269.03 105.45H276.02" stroke="#333343" stroke-miterlimit="10" stroke-linecap="round"/>
<path d="M269.03 108.25H276.02" stroke="#333343" stroke-miterlimit="10" stroke-linecap="round"/>
</g>
</svg>
