<svg width="456" height="300" viewBox="0 0 456 300" fill="none" xmlns="http://www.w3.org/2000/svg">
<g clip-path="url(#clip0_0_933)">
<mask id="mask0_0_933" style="mask-type:luminance" maskUnits="userSpaceOnUse" x="0" y="0" width="456" height="300">
<path d="M436 0H20C8.9543 0 0 8.9543 0 20V280C0 291.046 8.9543 300 20 300H436C447.046 300 456 291.046 456 280V20C456 8.9543 447.046 0 436 0Z" fill="white"/>
</mask>
<g mask="url(#mask0_0_933)">
<path d="M157.892 242.118C157.892 242.118 133.454 287.317 154.493 298.276C168.564 305.598 248.405 349.287 248.405 349.287C248.405 349.287 230.345 425.261 230.345 438.954L256.146 445.735C256.146 445.735 292.315 340.733 285.526 330.463C278.737 320.194 211.53 276.366 211.53 276.366L216.964 261.302L157.9 242.126L157.892 242.118Z" fill="#682741"/>
<path d="M343.113 191.607C343.293 192.699 344.352 193.43 345.469 193.241L347.504 192.904C348.629 192.716 349.393 191.681 349.212 190.598C349.031 189.506 347.972 188.775 346.856 188.964L344.82 189.301C343.695 189.489 342.932 190.524 343.113 191.607Z" fill="#1E1328"/>
<path d="M344.467 185.927C344.804 186.977 346.101 187.503 347.365 187.1L349.655 186.37C350.919 185.968 351.675 184.786 351.338 183.735C351.001 182.684 349.704 182.159 348.44 182.561L346.15 183.292C344.886 183.694 344.131 184.876 344.467 185.927Z" fill="#1E1328"/>
<path d="M343.474 181.42C343.958 182.413 345.157 182.824 346.15 182.331L352.315 179.351C353.308 178.867 353.719 177.668 353.226 176.675C352.742 175.682 351.543 175.271 350.55 175.764L344.385 178.744C343.392 179.228 342.981 180.427 343.474 181.42Z" fill="#FFBF9D"/>
<path d="M344.82 189.301L346.856 188.964C347.332 188.882 347.8 188.972 348.194 189.186L347.381 192.929L345.477 193.241C344.352 193.43 343.301 192.691 343.121 191.607C342.94 190.515 343.704 189.481 344.828 189.301H344.82Z" fill="#FFBF9D"/>
<path d="M346.15 183.283L348.44 182.553C348.851 182.421 349.269 182.389 349.655 182.438L348.744 186.657L347.373 187.092C346.109 187.495 344.812 186.969 344.475 185.918C344.139 184.868 344.894 183.686 346.158 183.283H346.15Z" fill="#FFBF9D"/>
<path d="M344.385 178.744L350.55 175.764C350.739 175.674 350.936 175.608 351.133 175.583L350.082 180.435L346.15 182.331C345.157 182.816 343.958 182.413 343.474 181.42C342.989 180.427 343.392 179.228 344.385 178.744Z" fill="#1E1328"/>
<path d="M316.277 192.543C319.035 178.539 319.791 177.463 319.791 177.463C324.404 177.792 322.533 184.868 321.933 187.117C326.621 190.787 324.577 198.823 324.577 198.823L337.465 201.614C336.135 209.216 324.339 211.367 324.339 211.367L317.837 208.231L312.657 206.983L316.277 192.543Z" fill="#FFBF9D"/>
<path d="M328.689 208.37L313.806 217.958L305.745 205.44L319.068 196.861L328.689 208.37Z" fill="#FFBF9D"/>
<path opacity="0.2" d="M315.757 200.434L308.035 205.409L316.099 217.927L323.822 212.952L315.757 200.434Z" fill="#1E283A"/>
<path opacity="0.2" d="M324.339 199.899L324.568 198.823L337.457 201.614C337.391 201.984 337.301 202.337 337.194 202.682L324.339 199.899Z" fill="#1E283A"/>
<path d="M324.183 215.011L310.835 198.027L262.73 223.409C255.374 202.025 251.27 178.612 250.892 177.504V175.468C241.444 192.264 242.552 214.617 245.835 232.324L239.785 235.518L248.971 246.041C251.5 255.4 253.946 261.516 253.946 261.516C253.946 261.516 256.795 260.588 260.283 259.012L261.58 260.498L324.174 215.011H324.183Z" fill="#E23E57"/>
<path d="M324.183 215.011L310.835 198.027L262.73 223.409C255.374 202.025 251.27 178.612 250.892 177.504V175.468C241.444 192.264 242.552 214.617 245.835 232.324L239.785 235.518L248.971 246.041C251.5 255.4 253.946 261.516 253.946 261.516C253.946 261.516 256.795 260.588 260.283 259.012L261.58 260.498L324.174 215.011H324.183Z" fill="#5264AE"/>
<path d="M352.66 159.822H352.61L353.727 154.7C354.096 153.009 353.021 151.334 351.33 150.964L332.736 146.909C331.045 146.54 329.371 147.615 329.001 149.306L327.885 154.42H327.836C327.614 154.363 327.392 154.503 327.351 154.724L326.58 158.262C326.53 158.484 326.67 158.706 326.892 158.747H326.941L326.76 159.6H326.711C326.489 159.543 326.268 159.682 326.227 159.904L325.455 163.442C325.406 163.664 325.545 163.886 325.767 163.927H325.816L319.068 194.899C318.699 196.59 319.774 198.265 321.465 198.634L340.059 202.69C341.75 203.059 343.425 201.984 343.794 200.293L351.198 166.324H351.248C351.469 166.381 351.691 166.242 351.732 166.02L352.972 160.315C353.021 160.093 352.881 159.871 352.66 159.83V159.822Z" fill="#333343"/>
<path d="M350.843 151.647L332.885 147.732C331.507 147.431 330.147 148.305 329.846 149.682L319.989 194.895C319.688 196.272 320.561 197.632 321.939 197.933L339.897 201.848C341.275 202.149 342.635 201.275 342.935 199.898L352.793 154.686C353.094 153.308 352.22 151.948 350.843 151.647Z" fill="white"/>
<path d="M334.583 155.43L331.341 154.724C331.218 154.7 331.144 154.577 331.168 154.453C331.193 154.33 331.316 154.256 331.439 154.281L334.682 154.987C334.805 155.012 334.879 155.135 334.854 155.258C334.83 155.381 334.707 155.455 334.583 155.43Z" fill="#333343"/>
<path d="M339.501 156.497L336.258 155.791C336.135 155.767 336.061 155.644 336.086 155.52C336.11 155.397 336.233 155.323 336.357 155.348L339.599 156.054C339.722 156.079 339.796 156.202 339.772 156.325C339.747 156.448 339.624 156.522 339.501 156.497Z" fill="#333343"/>
<path d="M344.418 157.573L341.175 156.867C341.052 156.842 340.978 156.719 341.003 156.596C341.027 156.473 341.151 156.399 341.274 156.423L344.516 157.129C344.639 157.154 344.713 157.277 344.689 157.4C344.664 157.523 344.541 157.597 344.418 157.573Z" fill="#333343"/>
<path d="M349.343 158.648L346.101 157.942C345.978 157.917 345.904 157.794 345.928 157.671C345.953 157.548 346.076 157.474 346.199 157.499L349.442 158.205C349.565 158.229 349.639 158.352 349.614 158.476C349.59 158.599 349.466 158.673 349.343 158.648Z" fill="#333343"/>
<path d="M337.465 159.223C337.424 159.395 337.268 159.469 337.005 159.412L336.496 159.305L336.718 158.287L337.194 158.394C337.44 158.443 337.547 158.583 337.514 158.738C337.489 158.845 337.424 158.911 337.333 158.935C337.432 158.993 337.489 159.1 337.465 159.231V159.223ZM336.882 158.476L336.824 158.755L337.095 158.812C337.227 158.837 337.309 158.812 337.333 158.714C337.358 158.615 337.292 158.558 337.161 158.525L336.89 158.468L336.882 158.476ZM337.284 159.165C337.309 159.067 337.243 159.001 337.095 158.968L336.792 158.903L336.726 159.198L337.03 159.264C337.169 159.297 337.26 159.264 337.284 159.165Z" fill="#333343"/>
<path d="M338.343 159.223L338.245 159.682L338.072 159.641L338.097 159.543C338.039 159.6 337.949 159.617 337.826 159.592C337.645 159.551 337.555 159.428 337.588 159.297C337.621 159.165 337.727 159.083 337.966 159.132L338.163 159.173C338.187 159.058 338.138 158.976 338.007 158.952C337.916 158.935 337.826 158.944 337.752 158.976L337.711 158.829C337.81 158.779 337.933 158.779 338.064 158.804C338.286 158.853 338.392 158.985 338.343 159.214V159.223ZM338.113 159.395L338.13 159.305L337.941 159.264C337.818 159.239 337.777 159.272 337.76 159.329C337.744 159.395 337.793 159.453 337.883 159.469C337.974 159.485 338.056 159.469 338.105 159.395H338.113Z" fill="#333343"/>
<path d="M339.336 159.453L339.238 159.896L339.057 159.855L339.148 159.436C339.18 159.297 339.123 159.214 339.008 159.19C338.877 159.165 338.77 159.223 338.737 159.379L338.655 159.773L338.474 159.732L338.647 158.952L338.819 158.993L338.795 159.091C338.869 159.034 338.975 159.017 339.09 159.042C339.279 159.083 339.394 159.223 339.345 159.453H339.336Z" fill="#333343"/>
<path d="M339.862 159.682L339.698 159.781L339.657 159.986L339.476 159.945L339.714 158.862L339.895 158.903L339.755 159.551L340.207 159.28L340.428 159.329L340.034 159.584L340.289 160.109L340.067 160.06L339.87 159.666L339.862 159.682Z" fill="#333343"/>
<path d="M341.816 159.773C341.766 159.994 341.569 160.101 341.307 160.043L341.077 159.994L341.011 160.29L340.822 160.249L341.044 159.231L341.463 159.321C341.733 159.378 341.865 159.551 341.816 159.781V159.773ZM341.627 159.731C341.651 159.6 341.586 159.51 341.422 159.477L341.2 159.428L341.11 159.83L341.331 159.879C341.495 159.912 341.602 159.863 341.627 159.731Z" fill="#333343"/>
<path d="M342.587 160.15L342.489 160.61L342.316 160.569L342.341 160.47C342.283 160.528 342.193 160.544 342.07 160.52C341.889 160.479 341.799 160.355 341.832 160.224C341.865 160.093 341.972 160.011 342.21 160.06L342.407 160.101C342.431 159.986 342.382 159.904 342.251 159.879C342.16 159.863 342.07 159.871 341.996 159.904L341.955 159.756C342.054 159.707 342.177 159.707 342.308 159.732C342.53 159.781 342.636 159.912 342.587 160.142V160.15ZM342.357 160.323L342.374 160.232L342.185 160.191C342.062 160.167 342.021 160.199 342.004 160.257C341.988 160.323 342.037 160.38 342.127 160.396C342.218 160.413 342.3 160.396 342.349 160.323H342.357Z" fill="#333343"/>
<path d="M343.605 160.035L343.055 160.799C342.948 160.963 342.834 160.988 342.702 160.963C342.628 160.947 342.546 160.905 342.513 160.848L342.612 160.733C342.636 160.774 342.686 160.807 342.735 160.815C342.801 160.832 342.842 160.807 342.899 160.741L342.916 160.717L342.743 159.863L342.932 159.904L343.055 160.536L343.425 160.011L343.597 160.052L343.605 160.035Z" fill="#333343"/>
<path d="M333.886 161.275L333.943 161.201C333.992 161.267 334.083 161.324 334.181 161.349C334.313 161.382 334.386 161.341 334.395 161.275C334.436 161.086 333.943 161.103 334.001 160.815C334.025 160.692 334.14 160.618 334.345 160.659C334.436 160.676 334.526 160.725 334.583 160.782L334.526 160.865C334.468 160.807 334.395 160.766 334.329 160.758C334.198 160.733 334.132 160.774 334.115 160.84C334.074 161.029 334.567 161.012 334.51 161.3C334.485 161.415 334.37 161.497 334.165 161.456C334.05 161.431 333.935 161.365 333.886 161.291V161.275Z" fill="#C90000"/>
<path d="M334.624 161.218C334.666 161.045 334.821 160.947 335.002 160.988C335.109 161.012 335.183 161.07 335.216 161.168L335.125 161.201C335.101 161.136 335.051 161.095 334.986 161.086C334.871 161.062 334.764 161.119 334.739 161.25C334.715 161.382 334.78 161.48 334.895 161.505C334.961 161.521 335.027 161.505 335.076 161.456L335.142 161.521C335.076 161.595 334.977 161.62 334.879 161.595C334.698 161.554 334.6 161.406 334.633 161.226L334.624 161.218Z" fill="#C90000"/>
<path d="M335.79 161.414L335.716 161.767L335.618 161.743L335.634 161.669C335.585 161.718 335.511 161.735 335.421 161.71C335.289 161.677 335.216 161.595 335.24 161.488C335.257 161.398 335.339 161.332 335.511 161.365L335.675 161.398V161.373C335.7 161.283 335.659 161.217 335.552 161.201C335.486 161.185 335.404 161.201 335.355 161.226L335.33 161.135C335.404 161.102 335.495 161.094 335.593 161.111C335.757 161.143 335.831 161.242 335.79 161.406V161.414ZM335.642 161.562L335.659 161.48L335.495 161.447C335.388 161.423 335.347 161.455 335.339 161.505C335.322 161.562 335.363 161.611 335.445 161.628C335.527 161.644 335.593 161.628 335.634 161.562H335.642Z" fill="#C90000"/>
<path d="M336.537 161.595L336.463 161.932L336.357 161.907L336.43 161.579C336.455 161.464 336.414 161.398 336.307 161.374C336.192 161.349 336.11 161.398 336.077 161.53L336.012 161.833L335.905 161.809L336.036 161.226L336.135 161.25L336.119 161.341C336.176 161.292 336.258 161.275 336.348 161.292C336.488 161.324 336.57 161.423 336.537 161.595Z" fill="#C90000"/>
<path d="M338.236 161.505L337.81 162.219L337.695 162.194L337.621 161.529L337.276 162.104L337.161 162.079L337.071 161.25L337.186 161.275L337.26 161.948L337.613 161.365L337.711 161.39L337.785 162.071L338.138 161.488L338.245 161.513L338.236 161.505Z" fill="#C90000"/>
<path d="M338.335 161.538C338.335 161.538 338.384 161.472 338.425 161.48C338.466 161.488 338.491 161.529 338.483 161.562C338.474 161.603 338.433 161.628 338.392 161.62C338.351 161.612 338.327 161.571 338.335 161.538ZM338.31 161.726L338.417 161.751L338.286 162.334L338.179 162.309L338.31 161.726Z" fill="#C90000"/>
<path d="M338.836 162.408C338.836 162.408 338.745 162.432 338.696 162.424C338.581 162.4 338.524 162.317 338.548 162.203L338.622 161.882L338.524 161.858L338.54 161.767L338.639 161.792L338.663 161.661L338.77 161.685L338.745 161.817L338.91 161.85L338.893 161.94L338.729 161.907L338.663 162.227C338.647 162.293 338.672 162.334 338.737 162.342C338.77 162.342 338.803 162.342 338.828 162.334L338.844 162.416L338.836 162.408Z" fill="#C90000"/>
<path d="M339.591 162.26L339.517 162.597L339.41 162.572L339.484 162.244C339.509 162.129 339.468 162.063 339.361 162.039C339.246 162.014 339.164 162.063 339.131 162.194L339.066 162.498L338.959 162.474L339.139 161.653L339.246 161.677L339.181 161.997C339.238 161.948 339.32 161.932 339.41 161.956C339.55 161.989 339.632 162.088 339.599 162.26H339.591Z" fill="#C90000"/>
<path d="M340.042 162.309C340.092 162.08 340.305 161.948 340.543 162.006C340.666 162.03 340.757 162.096 340.814 162.194L340.724 162.252C340.675 162.178 340.609 162.129 340.527 162.112C340.354 162.071 340.198 162.17 340.157 162.342C340.116 162.515 340.223 162.671 340.395 162.703C340.478 162.72 340.56 162.703 340.633 162.654L340.691 162.736C340.601 162.802 340.486 162.818 340.371 162.794C340.133 162.744 340.001 162.539 340.051 162.309H340.042Z" fill="#C90000"/>
<path d="M341.348 162.621L341.274 162.974L341.175 162.95L341.192 162.876C341.142 162.925 341.069 162.941 340.978 162.917C340.847 162.884 340.773 162.802 340.798 162.695C340.814 162.605 340.896 162.539 341.069 162.572L341.233 162.605V162.58C341.257 162.49 341.216 162.424 341.11 162.408C341.044 162.391 340.962 162.408 340.913 162.432L340.888 162.342C340.962 162.309 341.052 162.301 341.151 162.318C341.315 162.35 341.389 162.449 341.348 162.613V162.621ZM341.2 162.769L341.216 162.687L341.052 162.654C340.945 162.629 340.904 162.662 340.896 162.712C340.88 162.769 340.921 162.818 341.003 162.835C341.085 162.851 341.151 162.835 341.192 162.769H341.2Z" fill="#C90000"/>
<path d="M342.513 162.892L342.439 163.229L342.333 163.204L342.407 162.876C342.431 162.761 342.39 162.695 342.292 162.671C342.185 162.646 342.103 162.703 342.07 162.827L342.004 163.13L341.898 163.106L341.972 162.777C341.996 162.662 341.955 162.597 341.857 162.572C341.75 162.547 341.668 162.605 341.635 162.728L341.569 163.032L341.463 163.007L341.594 162.424L341.692 162.449L341.676 162.539C341.733 162.49 341.807 162.474 341.898 162.49C341.988 162.506 342.054 162.564 342.078 162.646C342.136 162.589 342.226 162.564 342.325 162.589C342.464 162.621 342.546 162.72 342.505 162.892H342.513Z" fill="#C90000"/>
<path d="M343.219 163.13L342.743 163.023C342.735 163.13 342.801 163.212 342.916 163.245C342.981 163.262 343.047 163.245 343.104 163.212L343.145 163.294C343.08 163.344 342.989 163.36 342.891 163.335C342.702 163.294 342.604 163.138 342.645 162.966C342.686 162.794 342.834 162.695 343.006 162.728C343.178 162.761 343.269 162.917 343.228 163.089C343.228 163.097 343.228 163.114 343.219 163.122V163.13ZM342.76 162.95L343.137 163.032C343.145 162.933 343.088 162.843 342.989 162.826C342.891 162.81 342.801 162.859 342.768 162.95H342.76Z" fill="#C90000"/>
<path d="M343.761 162.9L343.736 163.007C343.736 163.007 343.72 163.007 343.712 163.007C343.597 162.983 343.515 163.04 343.482 163.163L343.416 163.459L343.31 163.434L343.441 162.851L343.539 162.876L343.515 162.974C343.564 162.917 343.646 162.892 343.753 162.917L343.761 162.9Z" fill="#C90000"/>
<path d="M344.303 163.27L344.229 163.623L344.131 163.598L344.147 163.524C344.098 163.573 344.024 163.59 343.934 163.565C343.802 163.532 343.728 163.45 343.753 163.344C343.769 163.253 343.851 163.188 344.024 163.22L344.188 163.253V163.229C344.213 163.138 344.172 163.073 344.065 163.056C343.999 163.04 343.917 163.056 343.868 163.081L343.843 162.991C343.917 162.958 344.007 162.95 344.106 162.966C344.27 162.999 344.344 163.097 344.303 163.261V163.27ZM344.155 163.417L344.172 163.335L344.007 163.303C343.901 163.278 343.86 163.311 343.851 163.36C343.835 163.417 343.876 163.467 343.958 163.483C344.04 163.5 344.106 163.483 344.147 163.417H344.155Z" fill="#C90000"/>
<path d="M344.471 166.996L332.296 164.341C331.57 164.183 330.852 164.643 330.694 165.37L326.925 182.654C326.767 183.381 327.227 184.098 327.954 184.257L340.129 186.911C340.856 187.07 341.573 186.609 341.731 185.883L345.5 168.598C345.658 167.872 345.198 167.154 344.471 166.996Z" fill="#E5F2FF"/>
<path d="M333.418 171.422L332.933 173.646L335.158 174.131L335.642 171.906L333.418 171.422ZM334.78 173.54L333.524 173.269L333.795 172.013L335.051 172.284L334.78 173.54Z" fill="#333343"/>
<path d="M334.496 173.097L334.611 172.568L334.082 172.453L333.967 172.982L334.496 173.097Z" fill="#333343"/>
<path d="M338.261 172.472L337.777 174.697L340.001 175.181L340.486 172.956L338.261 172.472ZM339.624 174.59L338.368 174.319L338.639 173.063L339.895 173.334L339.624 174.59Z" fill="#333343"/>
<path d="M339.335 174.15L339.45 173.62L338.921 173.505L338.806 174.034L339.335 174.15Z" fill="#333343"/>
<path d="M332.408 176.035L331.924 178.26L334.148 178.744L334.633 176.519L332.408 176.035ZM333.771 178.153L332.515 177.882L332.786 176.626L334.042 176.897L333.771 178.153Z" fill="#333343"/>
<path d="M333.487 177.705L333.602 177.176L333.073 177.061L332.958 177.59L333.487 177.705Z" fill="#333343"/>
<path d="M333.322 174.188L332.84 174.083L332.515 175.575L332.996 175.68L333.322 174.188Z" fill="#333343"/>
<path d="M335.054 174.56L334.572 174.455L334.356 175.45L334.837 175.555L335.054 174.56Z" fill="#333343"/>
<path d="M337.894 172.396L337.068 172.216L336.963 172.697L337.789 172.877L337.894 172.396Z" fill="#333343"/>
<path d="M339.934 175.548L339.108 175.368L339.003 175.849L339.829 176.029L339.934 175.548Z" fill="#333343"/>
<path d="M338.358 178.769L337.404 178.561L337.299 179.042L338.253 179.25L338.358 178.769Z" fill="#333343"/>
<path d="M339.105 179.331L338.624 179.226L338.519 179.707L339 179.812L339.105 179.331Z" fill="#333343"/>
<path d="M338.993 178.177L338.512 178.072L338.414 178.521L338.895 178.626L338.993 178.177Z" fill="#333343"/>
<path d="M336.763 176.975L336.583 177.801L337.064 177.906L337.244 177.08L336.763 176.975Z" fill="#333343"/>
<path d="M336.7 175.616L336.52 176.442L337.001 176.547L337.181 175.721L336.7 175.616Z" fill="#333343"/>
<path d="M335.953 172.479L335.764 173.345L336.261 173.453L336.45 172.587L335.953 172.479Z" fill="#333343"/>
<path d="M333.671 174.296L333.566 174.777L334.047 174.882L334.152 174.401L333.671 174.296Z" fill="#333343"/>
<path d="M335.72 173.741L335.615 174.222L336.096 174.327L336.201 173.846L335.72 173.741Z" fill="#333343"/>
<path d="M338.596 176.673L338.491 177.154L339.534 177.381L339.639 176.9L338.596 176.673Z" fill="#333343"/>
<path d="M335.953 175.783L335.848 176.264L336.329 176.369L336.434 175.888L335.953 175.783Z" fill="#333343"/>
<path d="M337.297 179.047L337.218 179.408L337.7 179.513L337.778 179.152L337.297 179.047Z" fill="#333343"/>
<path d="M332.947 174.734L332.842 175.215L333.323 175.32L333.428 174.839L332.947 174.734Z" fill="#333343"/>
<path d="M336.935 178.463L336.117 178.285L336.012 178.766L336.831 178.944L336.935 178.463Z" fill="#333343"/>
<path d="M338.899 177.951L338.689 178.914L339.187 179.022L339.396 178.06L338.899 177.951Z" fill="#333343"/>
<path d="M338.677 177.403L338.572 177.885L339.391 178.063L339.496 177.582L338.677 177.403Z" fill="#333343"/>
<path d="M336.823 173.058L336.634 173.924L337.131 174.032L337.32 173.166L336.823 173.058Z" fill="#333343"/>
<path d="M337.712 173.261L335.876 172.861L335.769 173.35L337.606 173.75L337.712 173.261Z" fill="#333343"/>
<path d="M335.754 175.767L333.918 175.367L333.811 175.856L335.648 176.256L335.754 175.767Z" fill="#333343"/>
<path d="M338.089 175.649L338.179 175.165L337.686 175.058L337.588 175.543L337.481 176.027L337.982 176.142L339.32 176.429L339.427 175.945L338.089 175.649Z" fill="#333343"/>
<path d="M337.777 176.987L337.301 176.872L337.407 176.371L337.892 176.495L338.376 176.601L338.269 177.094L337.974 178.432L337.489 178.325L337.777 176.987Z" fill="#333343"/>
<path d="M336.857 174.96L336.972 174.476L337.473 174.582L337.35 175.067L337.243 175.559L336.751 175.444L335.413 175.157L335.519 174.664L336.857 174.96Z" fill="#333343"/>
<path d="M335.043 176.602L334.936 177.086L335.831 177.283L335.56 178.539L334.665 178.342L334.559 178.826L335.938 179.13L336.422 176.905L335.043 176.602Z" fill="#333343"/>
<path d="M334.862 177.454L334.746 177.983L335.276 178.098L335.391 177.569L334.862 177.454Z" fill="#333343"/>
<path d="M334.321 170.855L333.122 170.601L332.851 170.535L332.794 170.806L332.539 172.004L332.802 172.062L333.065 170.863L334.263 171.126L334.321 170.855Z" fill="#333343"/>
<path d="M341.044 173.86L341.298 172.661L341.356 172.39L341.093 172.333L339.895 172.07L339.837 172.341L341.036 172.604L340.773 173.802L341.044 173.86Z" fill="#333343"/>
<path d="M332.531 179.179L331.333 178.924L331.062 178.859L331.119 178.596L331.382 177.398L331.653 177.455L331.39 178.654L332.589 178.916L332.531 179.179Z" fill="#333343"/>
<path d="M339.886 179.253L339.624 180.451L339.566 180.714L339.295 180.657L338.097 180.394L338.163 180.131L339.353 180.394L339.616 179.195L339.886 179.253Z" fill="#333343"/>
<path d="M339.714 190.959L339.763 191.033C339.689 191.09 339.599 191.098 339.492 191.082C339.328 191.049 339.222 190.918 339.213 190.77L339.107 190.745V190.696L339.213 190.721C339.213 190.713 339.213 190.696 339.213 190.68C339.213 190.663 339.213 190.655 339.221 190.639L339.123 190.614V190.565L339.238 190.589C339.312 190.458 339.46 190.384 339.624 190.417C339.722 190.442 339.804 190.491 339.845 190.573L339.772 190.622C339.73 190.557 339.673 190.524 339.607 190.507C339.492 190.483 339.394 190.524 339.336 190.614L339.632 190.68V190.729L339.312 190.663C339.312 190.672 339.304 190.688 339.304 190.704C339.304 190.721 339.304 190.729 339.304 190.745L339.607 190.811V190.86L339.304 190.795C339.32 190.893 339.394 190.983 339.509 191.008C339.583 191.025 339.648 191.008 339.706 190.967L339.714 190.959Z" fill="#333343"/>
<path d="M340.404 190.59L340.264 191.238L340.174 191.222L340.297 190.655L340.149 190.623L340.166 190.54L340.404 190.59Z" fill="#333343"/>
<path d="M340.88 191.287L340.863 191.369L340.395 191.271L340.412 191.205L340.732 191.008C340.814 190.959 340.839 190.918 340.847 190.877C340.863 190.811 340.822 190.762 340.732 190.737C340.666 190.721 340.601 190.737 340.551 190.77L340.502 190.704C340.568 190.655 340.658 190.639 340.757 190.655C340.888 190.688 340.962 190.77 340.937 190.885C340.921 190.951 340.896 191 340.789 191.066L340.551 191.213L340.88 191.287Z" fill="#333343"/>
<path d="M341.003 191.058C341.052 190.844 341.183 190.754 341.339 190.787C341.495 190.82 341.577 190.967 341.528 191.173C341.479 191.378 341.348 191.476 341.192 191.443C341.036 191.411 340.954 191.263 341.003 191.058ZM341.438 191.156C341.471 190.992 341.421 190.893 341.323 190.869C341.224 190.844 341.134 190.918 341.101 191.082C341.069 191.246 341.118 191.345 341.216 191.37C341.315 191.394 341.405 191.32 341.438 191.156Z" fill="#333343"/>
<path d="M341.553 191.46C341.553 191.46 341.594 191.402 341.627 191.41C341.66 191.418 341.685 191.451 341.677 191.485C341.668 191.518 341.635 191.542 341.602 191.534C341.569 191.526 341.545 191.493 341.553 191.46Z" fill="#333343"/>
<path d="M341.807 191.238C341.857 191.024 341.988 190.934 342.144 190.967C342.3 191 342.382 191.148 342.333 191.353C342.283 191.558 342.152 191.657 341.996 191.624C341.84 191.591 341.758 191.443 341.807 191.238ZM342.242 191.336C342.275 191.172 342.226 191.074 342.127 191.049C342.029 191.024 341.939 191.098 341.906 191.263C341.873 191.427 341.922 191.525 342.021 191.55C342.119 191.574 342.21 191.501 342.242 191.336Z" fill="#333343"/>
<path d="M342.423 191.369C342.472 191.156 342.604 191.066 342.76 191.098C342.916 191.131 342.998 191.279 342.948 191.484C342.899 191.69 342.768 191.788 342.612 191.755C342.456 191.722 342.374 191.575 342.423 191.369ZM342.858 191.468C342.891 191.304 342.842 191.205 342.743 191.181C342.645 191.156 342.554 191.23 342.522 191.394C342.489 191.558 342.538 191.657 342.636 191.681C342.735 191.706 342.825 191.632 342.858 191.468Z" fill="#333343"/>
<path d="M323.789 189.219C323.756 189.358 323.641 189.424 323.468 189.383L323.312 189.35L323.271 189.547L323.181 189.531L323.321 188.882L323.575 188.94C323.739 188.972 323.83 189.079 323.797 189.227L323.789 189.219ZM323.698 189.202C323.715 189.112 323.665 189.046 323.55 189.022L323.394 188.989L323.329 189.276L323.485 189.309C323.6 189.334 323.674 189.293 323.698 189.202Z" fill="#333343"/>
<path d="M324.183 189.236L324.166 189.318H324.15C324.051 189.293 323.986 189.342 323.961 189.449L323.912 189.695L323.821 189.679L323.928 189.186L324.01 189.203L323.994 189.285C324.035 189.236 324.109 189.219 324.191 189.236H324.183Z" fill="#333343"/>
<path d="M324.191 189.498C324.224 189.35 324.355 189.277 324.503 189.301C324.65 189.326 324.733 189.457 324.7 189.605C324.667 189.753 324.536 189.835 324.388 189.802C324.24 189.769 324.158 189.646 324.191 189.498ZM324.609 189.588C324.634 189.482 324.577 189.4 324.486 189.383C324.396 189.367 324.306 189.416 324.281 189.523C324.256 189.63 324.314 189.712 324.412 189.728C324.511 189.744 324.593 189.695 324.618 189.588H324.609Z" fill="#333343"/>
<path d="M325.381 189.293L325.233 189.974L325.151 189.958L325.168 189.884C325.118 189.933 325.044 189.942 324.979 189.925C324.839 189.892 324.757 189.769 324.79 189.621C324.823 189.474 324.946 189.392 325.094 189.424C325.159 189.441 325.217 189.482 325.25 189.539L325.307 189.268L325.397 189.285L325.381 189.293ZM325.2 189.712C325.225 189.605 325.168 189.523 325.077 189.506C324.987 189.49 324.897 189.539 324.872 189.646C324.847 189.753 324.905 189.835 325.003 189.851C325.102 189.868 325.184 189.818 325.209 189.712H325.2Z" fill="#333343"/>
<path d="M325.956 189.621L325.849 190.114L325.767 190.097L325.783 190.023C325.734 190.064 325.668 190.081 325.603 190.064C325.48 190.04 325.406 189.949 325.439 189.802L325.496 189.523L325.586 189.539L325.529 189.81C325.504 189.908 325.545 189.966 325.627 189.982C325.718 189.999 325.792 189.958 325.816 189.851L325.874 189.596L325.964 189.613L325.956 189.621Z" fill="#333343"/>
<path d="M326.03 189.892C326.062 189.744 326.194 189.671 326.341 189.703C326.432 189.72 326.497 189.777 326.514 189.851L326.44 189.876C326.415 189.818 326.374 189.785 326.325 189.777C326.227 189.753 326.144 189.81 326.12 189.909C326.095 190.007 326.153 190.097 326.251 190.114C326.309 190.122 326.358 190.114 326.399 190.073L326.456 190.13C326.399 190.188 326.325 190.212 326.235 190.196C326.087 190.163 325.997 190.032 326.03 189.892Z" fill="#333343"/>
<path d="M326.834 190.295C326.834 190.295 326.76 190.311 326.719 190.303C326.621 190.278 326.58 190.212 326.596 190.114L326.653 189.843L326.571 189.827L326.588 189.753L326.67 189.769L326.695 189.662L326.785 189.679L326.76 189.786L326.9 189.818L326.883 189.892L326.744 189.859L326.686 190.122C326.678 190.171 326.695 190.212 326.744 190.221C326.768 190.221 326.793 190.221 326.818 190.221L326.834 190.286V190.295Z" fill="#333343"/>
<path d="M327.335 189.761L327.425 189.777L327.286 190.426L327.195 190.409L327.335 189.761Z" fill="#333343"/>
<path d="M327.622 189.826L327.893 189.884C328.098 189.933 328.213 190.089 328.172 190.286C328.131 190.483 327.959 190.582 327.753 190.532L327.483 190.475L327.622 189.826ZM327.762 190.45C327.918 190.483 328.041 190.409 328.074 190.261C328.106 190.114 328.024 189.999 327.868 189.958L327.696 189.917L327.589 190.401L327.762 190.442V190.45Z" fill="#333343"/>
<path d="M334.222 191.263L334.083 191.911L334.009 191.895L333.73 191.328L333.623 191.813L333.533 191.796L333.672 191.148L333.746 191.164L334.025 191.731L334.132 191.246L334.222 191.263Z" fill="#333343"/>
<path d="M334.271 191.689C334.304 191.542 334.436 191.468 334.583 191.492C334.731 191.517 334.813 191.648 334.78 191.796C334.748 191.944 334.616 192.026 334.468 191.993C334.321 191.96 334.239 191.837 334.271 191.689ZM334.69 191.78C334.715 191.673 334.657 191.591 334.567 191.574C334.477 191.558 334.386 191.607 334.362 191.714C334.337 191.821 334.395 191.903 334.493 191.919C334.592 191.936 334.674 191.886 334.698 191.78H334.69Z" fill="#333343"/>
<path d="M335.38 191.673L335.059 192.116L334.969 192.1L334.862 191.566L334.953 191.583L335.035 192.01L335.289 191.657L335.38 191.673Z" fill="#333343"/>
<path d="M335.79 191.969L335.724 192.264L335.642 192.248L335.659 192.182C335.659 192.182 335.56 192.231 335.486 192.215C335.38 192.19 335.322 192.116 335.339 192.034C335.355 191.952 335.421 191.903 335.568 191.936L335.708 191.969V191.952C335.724 191.878 335.692 191.821 335.61 191.804C335.552 191.788 335.486 191.804 335.445 191.821L335.421 191.747C335.478 191.714 335.56 191.714 335.634 191.731C335.765 191.763 335.831 191.837 335.798 191.977L335.79 191.969ZM335.667 192.092L335.683 192.026L335.544 191.993C335.454 191.977 335.421 192.001 335.412 192.042C335.404 192.092 335.437 192.133 335.503 192.149C335.568 192.166 335.626 192.149 335.659 192.092H335.667Z" fill="#333343"/>
<path d="M336.036 191.616L336.127 191.632L335.979 192.313L335.889 192.297L336.036 191.616Z" fill="#333343"/>
<path d="M336.677 192.174L336.619 192.453L336.529 192.437L336.586 192.166C336.611 192.067 336.57 192.01 336.488 191.993C336.398 191.977 336.324 192.018 336.299 192.125L336.242 192.379L336.151 192.363L336.258 191.87L336.34 191.887L336.324 191.96C336.373 191.919 336.439 191.903 336.521 191.919C336.636 191.944 336.71 192.034 336.677 192.174Z" fill="#333343"/>
<path d="M337.268 192.379L336.874 192.289C336.874 192.379 336.923 192.453 337.021 192.469C337.079 192.486 337.128 192.469 337.177 192.445L337.21 192.511C337.153 192.552 337.079 192.568 336.997 192.552C336.841 192.519 336.759 192.387 336.792 192.248C336.824 192.108 336.948 192.018 337.087 192.051C337.227 192.084 337.309 192.207 337.276 192.355C337.276 192.355 337.276 192.371 337.276 192.379H337.268ZM336.882 192.231L337.194 192.297C337.202 192.215 337.153 192.141 337.071 192.125C336.989 192.108 336.915 192.149 336.882 192.231Z" fill="#333343"/>
<path d="M337.621 192.65C337.621 192.65 337.547 192.666 337.506 192.658C337.407 192.634 337.366 192.568 337.383 192.469L337.44 192.199L337.358 192.182L337.374 192.108L337.457 192.125L337.481 192.018L337.571 192.034L337.547 192.141L337.686 192.174L337.67 192.248L337.53 192.215L337.473 192.478C337.465 192.527 337.481 192.568 337.53 192.576C337.555 192.576 337.58 192.576 337.604 192.576L337.621 192.642V192.65Z" fill="#333343"/>
<path d="M338.236 192.223L338.015 192.174L338.031 192.092L338.565 192.207L338.548 192.289L338.327 192.24L338.204 192.806L338.113 192.79L338.236 192.223Z" fill="#333343"/>
<path d="M338.951 192.74L338.557 192.65C338.557 192.74 338.606 192.814 338.704 192.831C338.762 192.847 338.811 192.831 338.86 192.806L338.893 192.872C338.836 192.913 338.762 192.929 338.68 192.913C338.524 192.88 338.442 192.748 338.474 192.609C338.507 192.469 338.63 192.379 338.77 192.412C338.91 192.445 338.992 192.568 338.959 192.716C338.959 192.716 338.959 192.732 338.959 192.74H338.951ZM338.565 192.592L338.877 192.658C338.885 192.576 338.836 192.502 338.754 192.486C338.671 192.469 338.598 192.51 338.565 192.592Z" fill="#333343"/>
<path d="M338.975 192.921L339.024 192.855C339.024 192.855 339.123 192.929 339.189 192.946C339.271 192.962 339.312 192.946 339.32 192.905C339.345 192.798 339.016 192.823 339.057 192.626C339.074 192.535 339.164 192.494 339.295 192.527C339.361 192.544 339.427 192.576 339.468 192.609L339.418 192.675C339.418 192.675 339.336 192.617 339.287 192.609C339.213 192.593 339.164 192.609 339.156 192.65C339.131 192.765 339.46 192.741 339.418 192.929C339.402 193.02 339.304 193.052 339.172 193.028C339.09 193.011 339.016 192.97 338.983 192.929L338.975 192.921Z" fill="#333343"/>
<path d="M339.771 193.118C339.771 193.118 339.698 193.134 339.657 193.126C339.558 193.101 339.517 193.036 339.533 192.937L339.591 192.666L339.509 192.65L339.525 192.576L339.607 192.592L339.632 192.486L339.722 192.502L339.698 192.609L339.837 192.642L339.821 192.716L339.681 192.683L339.624 192.945C339.616 192.995 339.632 193.036 339.681 193.044C339.706 193.044 339.73 193.044 339.755 193.044L339.771 193.11V193.118Z" fill="#333343"/>
<path d="M340.116 192.987L339.993 193.061L339.96 193.192L339.87 193.175L340.018 192.494L340.108 192.511L340.01 192.946L340.33 192.757L340.436 192.781L340.19 192.937L340.354 193.274L340.248 193.249L340.116 192.978V192.987Z" fill="#333343"/>
<path d="M340.428 193.036C340.461 192.888 340.592 192.814 340.74 192.839C340.888 192.863 340.97 192.995 340.937 193.143C340.904 193.29 340.773 193.372 340.625 193.34C340.477 193.307 340.395 193.184 340.428 193.036ZM340.847 193.126C340.871 193.019 340.814 192.937 340.724 192.921C340.633 192.904 340.543 192.954 340.518 193.06C340.494 193.167 340.551 193.249 340.65 193.266C340.748 193.282 340.83 193.233 340.855 193.126H340.847Z" fill="#333343"/>
<path d="M341.536 193.233L341.479 193.512L341.389 193.496L341.446 193.225C341.471 193.126 341.43 193.069 341.348 193.052C341.257 193.036 341.183 193.077 341.159 193.184L341.101 193.438L341.011 193.422L341.118 192.929L341.2 192.945L341.183 193.019C341.233 192.978 341.298 192.962 341.38 192.978C341.495 193.003 341.569 193.093 341.536 193.233Z" fill="#333343"/>
<path d="M341.914 193.586C341.914 193.586 341.84 193.602 341.799 193.594C341.701 193.57 341.66 193.504 341.676 193.405L341.733 193.135L341.651 193.118L341.668 193.044L341.75 193.061L341.774 192.954L341.865 192.97L341.84 193.077L341.98 193.11L341.963 193.184L341.824 193.151L341.766 193.414C341.758 193.463 341.774 193.504 341.824 193.512C341.848 193.512 341.873 193.512 341.898 193.512L341.914 193.578V193.586Z" fill="#333343"/>
<path d="M342.013 193.381C342.045 193.233 342.177 193.159 342.324 193.183C342.472 193.208 342.554 193.339 342.522 193.487C342.489 193.635 342.357 193.717 342.21 193.684C342.062 193.651 341.98 193.528 342.013 193.381ZM342.431 193.471C342.456 193.364 342.398 193.282 342.308 193.266C342.218 193.249 342.127 193.298 342.103 193.405C342.078 193.512 342.136 193.594 342.234 193.61C342.333 193.627 342.415 193.578 342.439 193.471H342.431Z" fill="#333343"/>
<path d="M322.992 191.008L322.771 190.959L322.787 190.877L323.321 190.992L323.304 191.074L323.083 191.024L322.959 191.591L322.869 191.574L322.992 191.008Z" fill="#333343"/>
<path d="M323.698 191.443L323.633 191.739L323.55 191.722L323.567 191.657C323.567 191.657 323.468 191.706 323.394 191.689C323.288 191.665 323.23 191.591 323.247 191.509C323.263 191.427 323.329 191.378 323.477 191.41L323.616 191.443V191.427C323.633 191.353 323.6 191.295 323.518 191.279C323.46 191.263 323.394 191.279 323.353 191.295L323.329 191.222C323.386 191.189 323.468 191.189 323.542 191.205C323.674 191.238 323.739 191.312 323.706 191.451L323.698 191.443ZM323.575 191.566L323.591 191.501L323.452 191.468C323.362 191.451 323.329 191.476 323.321 191.517C323.312 191.566 323.345 191.607 323.411 191.624C323.477 191.64 323.534 191.624 323.567 191.566H323.575Z" fill="#333343"/>
<path d="M324.166 191.336L324.15 191.419H324.133C324.035 191.394 323.969 191.443 323.944 191.55L323.895 191.796L323.805 191.78L323.912 191.287L323.994 191.304L323.977 191.386C324.018 191.336 324.092 191.32 324.174 191.336H324.166Z" fill="#333343"/>
<path d="M324.289 191.213C324.289 191.213 324.33 191.164 324.363 191.172C324.396 191.181 324.421 191.213 324.412 191.238C324.412 191.271 324.371 191.295 324.338 191.287C324.306 191.279 324.281 191.246 324.289 191.213ZM324.273 191.369L324.363 191.386L324.256 191.878L324.166 191.862L324.273 191.369Z" fill="#333343"/>
<path d="M324.642 191.402V191.443L324.774 191.476L324.757 191.55L324.618 191.517L324.527 191.936L324.437 191.919L324.527 191.501L324.445 191.484L324.462 191.41L324.544 191.427V191.386C324.577 191.287 324.642 191.238 324.749 191.263C324.79 191.271 324.823 191.287 324.839 191.312L324.798 191.369C324.798 191.369 324.757 191.337 324.733 191.328C324.683 191.32 324.65 191.337 324.634 191.394L324.642 191.402Z" fill="#333343"/>
<path d="M325.348 191.821L325.291 192.1L325.2 192.083L325.258 191.812C325.283 191.714 325.241 191.657 325.159 191.64C325.069 191.624 324.995 191.665 324.971 191.771L324.913 192.026L324.823 192.01L324.93 191.517L325.012 191.533L324.995 191.607C325.044 191.566 325.11 191.55 325.192 191.566C325.307 191.591 325.381 191.681 325.348 191.821Z" fill="#333343"/>
<path d="M326.013 191.747L325.906 192.239L325.824 192.223L325.841 192.149C325.792 192.19 325.726 192.207 325.66 192.19C325.537 192.166 325.463 192.075 325.496 191.928L325.553 191.648L325.644 191.665L325.586 191.936C325.562 192.034 325.603 192.092 325.685 192.108C325.775 192.125 325.849 192.084 325.874 191.977L325.931 191.722L326.021 191.739L326.013 191.747Z" fill="#333343"/>
<path d="M326.949 192.166L326.892 192.445L326.801 192.428L326.859 192.157C326.883 192.059 326.842 192.001 326.76 191.985C326.67 191.969 326.604 192.01 326.58 192.116L326.522 192.371L326.432 192.354L326.489 192.083C326.514 191.985 326.473 191.928 326.391 191.911C326.3 191.895 326.235 191.936 326.21 192.042L326.153 192.297L326.062 192.281L326.169 191.788L326.251 191.804L326.235 191.878C326.284 191.837 326.35 191.821 326.424 191.837C326.497 191.854 326.555 191.895 326.571 191.969C326.621 191.919 326.694 191.903 326.777 191.919C326.892 191.944 326.965 192.034 326.933 192.174L326.949 192.166Z" fill="#333343"/>
<path d="M327.926 192.379L327.868 192.658L327.778 192.642L327.836 192.371C327.86 192.272 327.819 192.215 327.737 192.199C327.647 192.182 327.581 192.223 327.556 192.33L327.499 192.584L327.409 192.568L327.466 192.297C327.491 192.199 327.45 192.141 327.368 192.125C327.277 192.108 327.212 192.149 327.187 192.256L327.13 192.511L327.039 192.494L327.146 192.002L327.228 192.018L327.212 192.092C327.261 192.051 327.327 192.034 327.4 192.051C327.474 192.067 327.532 192.108 327.548 192.182C327.597 192.133 327.671 192.117 327.753 192.133C327.868 192.158 327.942 192.248 327.909 192.387L327.926 192.379Z" fill="#333343"/>
<path d="M328.517 192.576L328.123 192.486C328.123 192.576 328.172 192.65 328.271 192.666C328.328 192.683 328.377 192.666 328.427 192.642L328.459 192.707C328.402 192.748 328.328 192.765 328.246 192.748C328.09 192.716 328.008 192.584 328.041 192.445C328.074 192.305 328.197 192.215 328.336 192.248C328.476 192.28 328.558 192.404 328.525 192.551C328.525 192.551 328.525 192.568 328.525 192.576H328.517ZM328.131 192.428L328.443 192.494C328.451 192.412 328.402 192.338 328.32 192.321C328.238 192.305 328.164 192.346 328.131 192.428Z" fill="#333343"/>
<path d="M328.968 192.387L328.952 192.469H328.936C328.837 192.445 328.771 192.494 328.747 192.601L328.698 192.847L328.607 192.83L328.714 192.338L328.796 192.354L328.78 192.436C328.821 192.387 328.895 192.371 328.977 192.387H328.968Z" fill="#333343"/>
<path d="M336.504 193.865L336.365 194.513L336.291 194.497L336.012 193.93L335.905 194.415L335.815 194.398L335.954 193.75L336.028 193.766L336.307 194.333L336.414 193.848L336.504 193.865Z" fill="#333343"/>
<path d="M336.545 194.3C336.578 194.152 336.709 194.078 336.857 194.103C337.005 194.128 337.087 194.259 337.054 194.407C337.021 194.555 336.89 194.637 336.742 194.604C336.595 194.571 336.512 194.448 336.545 194.3ZM336.964 194.39C336.989 194.284 336.931 194.202 336.841 194.185C336.751 194.169 336.66 194.218 336.636 194.325C336.611 194.431 336.668 194.513 336.767 194.53C336.865 194.546 336.948 194.497 336.972 194.39H336.964Z" fill="#333343"/>
<path d="M337.654 194.284L337.333 194.727L337.243 194.711L337.136 194.177L337.227 194.193L337.309 194.62L337.563 194.267L337.654 194.284Z" fill="#333343"/>
<path d="M338.064 194.579L337.998 194.875L337.916 194.859L337.933 194.793C337.933 194.793 337.834 194.842 337.76 194.826C337.654 194.801 337.596 194.727 337.613 194.645C337.629 194.563 337.695 194.514 337.842 194.547L337.982 194.579V194.563C337.998 194.489 337.966 194.432 337.883 194.415C337.826 194.399 337.76 194.415 337.719 194.432L337.695 194.358C337.752 194.325 337.834 194.325 337.908 194.341C338.039 194.374 338.105 194.448 338.072 194.588L338.064 194.579ZM337.941 194.703L337.957 194.637L337.818 194.604C337.727 194.588 337.695 194.612 337.686 194.653C337.678 194.703 337.711 194.744 337.777 194.76C337.842 194.776 337.9 194.76 337.933 194.703H337.941Z" fill="#333343"/>
<path d="M338.31 194.226L338.401 194.243L338.253 194.924L338.163 194.908L338.31 194.226Z" fill="#333343"/>
<path d="M338.951 194.785L338.893 195.064L338.803 195.047L338.86 194.776C338.885 194.678 338.844 194.62 338.762 194.604C338.671 194.588 338.598 194.629 338.573 194.735L338.516 194.99L338.425 194.973L338.532 194.481L338.614 194.497L338.598 194.571C338.647 194.53 338.713 194.514 338.795 194.53C338.91 194.555 338.983 194.645 338.951 194.785Z" fill="#333343"/>
<path d="M339.542 194.981L339.148 194.891C339.148 194.981 339.197 195.055 339.295 195.072C339.353 195.088 339.402 195.072 339.451 195.047L339.484 195.113C339.427 195.154 339.353 195.17 339.271 195.154C339.115 195.121 339.033 194.99 339.066 194.85C339.098 194.711 339.222 194.62 339.361 194.653C339.501 194.686 339.583 194.809 339.55 194.957C339.55 194.957 339.55 194.973 339.55 194.981H339.542ZM339.156 194.834L339.468 194.899C339.476 194.817 339.427 194.743 339.345 194.727C339.263 194.711 339.189 194.752 339.156 194.834Z" fill="#333343"/>
<path d="M339.903 195.252C339.903 195.252 339.829 195.269 339.788 195.261C339.689 195.236 339.648 195.17 339.665 195.072L339.722 194.801L339.64 194.785L339.657 194.711L339.739 194.727L339.763 194.62L339.854 194.637L339.829 194.744L339.969 194.776L339.952 194.85L339.813 194.817L339.755 195.08C339.747 195.129 339.763 195.17 339.813 195.179C339.837 195.179 339.862 195.179 339.886 195.179L339.903 195.244V195.252Z" fill="#333343"/>
<path d="M340.51 194.825L340.289 194.776L340.305 194.694L340.839 194.809L340.822 194.891L340.601 194.842L340.477 195.408L340.387 195.392L340.51 194.825Z" fill="#333343"/>
<path d="M341.224 195.351L340.83 195.261C340.83 195.351 340.88 195.425 340.978 195.441C341.036 195.458 341.085 195.441 341.134 195.417L341.167 195.482C341.11 195.523 341.036 195.54 340.954 195.523C340.798 195.491 340.716 195.359 340.748 195.22C340.781 195.08 340.904 194.99 341.044 195.023C341.183 195.056 341.266 195.179 341.233 195.326C341.233 195.326 341.233 195.343 341.233 195.351H341.224ZM340.839 195.203L341.151 195.269C341.159 195.187 341.11 195.113 341.027 195.097C340.945 195.08 340.872 195.121 340.839 195.203Z" fill="#333343"/>
<path d="M341.257 195.523L341.307 195.458C341.307 195.458 341.405 195.532 341.471 195.548C341.553 195.564 341.594 195.548 341.602 195.507C341.627 195.4 341.298 195.425 341.339 195.228C341.356 195.138 341.446 195.097 341.577 195.129C341.643 195.146 341.709 195.179 341.75 195.211L341.701 195.277C341.701 195.277 341.619 195.22 341.569 195.211C341.495 195.195 341.446 195.211 341.438 195.253C341.413 195.367 341.742 195.343 341.701 195.532C341.684 195.622 341.586 195.655 341.454 195.63C341.372 195.614 341.298 195.573 341.266 195.532L341.257 195.523Z" fill="#333343"/>
<path d="M342.045 195.72C342.045 195.72 341.972 195.737 341.931 195.728C341.832 195.704 341.791 195.638 341.807 195.54L341.865 195.269L341.783 195.252L341.799 195.178L341.881 195.195L341.906 195.088L341.996 195.105L341.972 195.211L342.111 195.244L342.095 195.318L341.955 195.285L341.898 195.548C341.889 195.597 341.906 195.638 341.955 195.646C341.98 195.646 342.004 195.646 342.029 195.646L342.045 195.712V195.72Z" fill="#333343"/>
<path d="M324.043 187.536L323.698 187.462L323.591 187.61L323.493 187.585L323.928 187.002L324.018 187.019L324.174 187.725L324.076 187.7L324.043 187.519V187.536ZM324.027 187.454L323.953 187.109L323.747 187.396L324.027 187.454Z" fill="#333343"/>
<path d="M325.135 187.643L325.077 187.922L324.987 187.905L325.044 187.634C325.069 187.536 325.028 187.478 324.946 187.462C324.856 187.445 324.79 187.487 324.765 187.593L324.708 187.848L324.618 187.831L324.675 187.56C324.7 187.462 324.659 187.404 324.577 187.388C324.486 187.372 324.421 187.413 324.396 187.519L324.338 187.774L324.248 187.757L324.355 187.265L324.437 187.281L324.421 187.355C324.47 187.314 324.536 187.298 324.609 187.314C324.683 187.331 324.741 187.372 324.757 187.445C324.806 187.396 324.88 187.38 324.962 187.396C325.077 187.421 325.151 187.511 325.118 187.651L325.135 187.643Z" fill="#333343"/>
<path d="M325.25 187.708C325.283 187.561 325.414 187.487 325.562 187.511C325.709 187.536 325.791 187.667 325.759 187.815C325.726 187.963 325.594 188.045 325.447 188.012C325.299 187.979 325.217 187.856 325.25 187.708ZM325.668 187.799C325.693 187.692 325.636 187.61 325.545 187.593C325.455 187.577 325.365 187.626 325.34 187.733C325.315 187.84 325.373 187.922 325.471 187.938C325.57 187.955 325.652 187.905 325.677 187.799H325.668Z" fill="#333343"/>
<path d="M326.391 187.7L326.284 188.193L326.202 188.176L326.218 188.102C326.169 188.143 326.103 188.16 326.038 188.143C325.915 188.119 325.841 188.028 325.874 187.881L325.931 187.602L326.021 187.618L325.964 187.889C325.939 187.987 325.98 188.045 326.062 188.061C326.153 188.078 326.227 188.037 326.251 187.93L326.309 187.675L326.399 187.692L326.391 187.7Z" fill="#333343"/>
<path d="M326.974 188.045L326.916 188.324L326.826 188.308L326.883 188.037C326.908 187.938 326.867 187.881 326.785 187.864C326.694 187.848 326.621 187.889 326.596 187.996L326.539 188.25L326.448 188.234L326.555 187.741L326.637 187.757L326.621 187.831C326.67 187.79 326.736 187.774 326.818 187.79C326.933 187.815 327.006 187.905 326.974 188.045Z" fill="#333343"/>
<path d="M327.359 188.398C327.359 188.398 327.286 188.415 327.244 188.406C327.146 188.382 327.105 188.316 327.121 188.217L327.179 187.947L327.097 187.93L327.113 187.856L327.195 187.873L327.22 187.766L327.31 187.782L327.286 187.889L327.425 187.922L327.409 187.996L327.269 187.963L327.212 188.226C327.203 188.275 327.22 188.316 327.269 188.324C327.294 188.324 327.318 188.324 327.343 188.324L327.359 188.39V188.398Z" fill="#333343"/>
<path d="M167.029 301.929L209.19 443.634L121.247 427.306L176.018 332.368H298.324L301.92 338.821L209.19 443.634" stroke="#E23E57" stroke-width="4.73" stroke-linecap="round" stroke-linejoin="round"/>
<path d="M147.146 294.541L191.467 298.407C191.467 298.407 192.025 305.049 186.049 306.419C180.081 307.79 154.682 313.808 149.478 309.449C144.273 305.09 141.589 298.161 147.138 294.541H147.146Z" fill="#311D3F"/>
<path d="M290.016 320.342C292.709 319.119 295.467 318.093 298.291 317.231L295.648 310.647L326.341 304.203C328.739 303.743 330.306 301.412 329.847 298.998C329.387 296.585 327.08 295.001 324.683 295.46L288.711 302.922C287.414 303.169 286.298 303.998 285.666 305.163C285.034 306.329 284.952 307.725 285.452 308.964L290.016 320.342Z" fill="#877881"/>
<path d="M306.254 290.773C306.254 290.773 319.602 291.701 320.981 295.879C322.36 300.057 320.283 303.743 314.841 309.12C310.4 313.52 307.173 307.946 307.173 307.946C307.173 307.946 316.384 307.019 314.537 301.913C312.698 296.807 303.947 307.487 298.882 298.662C293.817 289.837 306.246 290.765 306.246 290.765L306.254 290.773Z" fill="#FFBF9D"/>
<path d="M157.892 242.118C157.892 242.118 133.454 287.317 154.493 298.276C168.564 305.599 236.592 334.577 236.592 334.577C236.592 334.577 195.555 380.58 186.049 401.119L206.087 412.636C206.087 412.636 286.897 335.956 283.277 324.168C278.376 308.185 217.843 279.929 217.843 279.929L223.4 263.117L157.892 242.118Z" fill="#333343"/>
<path d="M173.473 270.456C187.789 272.746 202.172 275.176 216.562 276.892C217.293 276.982 218.031 277.064 218.762 277.146L223.4 263.109L157.892 242.11C157.892 242.11 152.137 252.757 148.616 264.964C156.685 267.566 165.149 269.118 173.473 270.448V270.456Z" fill="#1A1243"/>
<path d="M232.315 109.871C232.315 109.871 235.451 90.6614 262.483 91.0226C289.516 91.3756 290.238 121.355 282.669 141.344C275.101 161.325 265.077 165.347 254.258 162.138C243.447 158.928 222.579 146.631 232.315 109.871Z" fill="#FFB6B6"/>
<path d="M267.287 146.218C267.509 146.013 268.794 147.929 271.155 148.814C272.32 149.261 273.471 149.361 274.326 149.439C275.182 149.516 275.718 149.595 275.728 149.726C275.733 149.842 275.217 149.974 274.352 150.067C273.497 150.14 272.221 150.147 270.896 149.651C269.556 149.159 268.563 148.255 267.996 147.532C267.414 146.814 267.219 146.256 267.297 146.198L267.287 146.218Z" fill="#263238"/>
<g opacity="0.7">
<path d="M234.942 124.844C233.801 123.416 233.473 121.207 235.87 121.076L235.566 121.281C235.894 120.403 236.173 119.475 236.362 118.564C236.707 117.234 236.756 114.123 234.671 114.936C233.891 115.346 233.226 116.118 232.652 116.889C233.21 115.601 234.384 113.589 236.091 114.345C238.48 115.954 237.003 119.68 236.108 121.766C233.949 121.626 234.351 123.399 234.95 124.852L234.942 124.844Z" fill="#AF7068"/>
</g>
<path d="M276.956 123.136C276.956 128.505 276.39 133.816 275.257 139.062C275.257 133.693 275.823 128.382 276.956 123.136Z" fill="#AF7068"/>
<path opacity="0.1" d="M267.056 155.176C255.933 147.977 243.898 142.608 231.839 137.272C234.417 154.372 246.599 160.135 254.48 162.474C260.833 164.362 266.916 163.763 272.4 158.969C270.668 157.647 268.895 156.375 267.056 155.185V155.176Z" fill="#1E1328"/>
<path d="M232.061 139.144C232.061 139.144 231.872 142.116 231.379 140.942C229.762 137.051 226.405 123.637 228.752 111.406C231.806 95.4804 238.677 86.7542 238.677 86.7542L257.771 92.1475C257.771 92.1475 259.298 109.608 242.749 115.773L239.35 126.732L236.379 126.65C236.379 126.65 240.705 113.984 235.615 112.44C230.526 110.897 228.744 122.972 234.343 126.822" fill="#1A2E35"/>
<path d="M267.343 125.46C267.401 124.163 267.327 122.874 266.99 121.692C266.424 119.221 263.583 117.981 261.646 119.853C260.743 120.666 260.045 121.758 259.594 122.973C259.733 121.684 260.267 120.395 261.203 119.393C262.639 117.653 265.521 117.793 266.818 119.64C268.016 121.339 267.893 123.605 267.351 125.468L267.343 125.46Z" fill="#1E1328"/>
<path d="M283.449 130.418C283.416 128.366 283.622 125.361 281.66 124.228C280.65 123.67 279.657 124.384 279.016 125.197C278.319 126.092 277.801 127.159 277.424 128.292C277.522 127.101 277.875 125.903 278.557 124.86C279.763 122.824 282.308 122.808 283.343 125.008C284.098 126.724 283.901 128.677 283.449 130.418Z" fill="#1E1328"/>
<path d="M274.575 117.571C268.41 112.703 263.46 110.339 255.99 114.23C261.145 106.661 271.538 109.822 274.575 117.571Z" fill="#1E1328"/>
<path d="M278.901 120.14C280.084 117.71 283.375 115.904 285.937 117.546C287.447 118.589 287.726 120.699 287.045 122.193C286.446 121.322 285.961 120.543 285.452 120.042C284.919 119.549 284.533 119.443 283.934 119.385C282.374 119.328 280.65 119.943 278.901 120.14Z" fill="#1E1328"/>
<path d="M291.297 106.53C291.297 106.53 294.351 83.2491 277.383 74.687C260.407 66.125 234.95 71.6086 229.861 100.365L291.297 106.53Z" fill="#E23E57"/>
<path d="M291.297 106.53C291.297 106.53 294.351 83.2491 277.383 74.687C260.407 66.125 234.95 71.6086 229.861 100.365L291.297 106.53Z" fill="#333343"/>
<path d="M229.852 100.365C229.852 100.365 300.122 121.593 308.602 114.402C313.371 110.364 298.414 104.133 291.97 102.072C287.554 105.496 229.852 100.357 229.852 100.357V100.365Z" fill="#384A92"/>
<path d="M264.478 164.732C257.533 155.628 224.098 134.211 224.098 134.211C218.04 141.755 214.19 147.624 211.866 151.573C187.642 160.135 166.405 191.682 148.402 251.206C148.402 251.206 192.846 273.625 233.128 272.927C233.128 272.927 259.873 208.166 255.399 172.924L264.486 164.74L264.478 164.732Z" fill="#E23E57"/>
<path d="M264.478 164.732C257.533 155.628 224.098 134.211 224.098 134.211C218.04 141.755 214.19 147.624 211.866 151.573C187.642 160.135 166.405 191.682 148.402 251.206C148.402 251.206 192.846 273.625 233.128 272.927C233.128 272.927 259.873 208.166 255.399 172.924L264.486 164.74L264.478 164.732Z" fill="#5264AE"/>
<path d="M215.519 144.029C215.519 144.029 242.076 146.278 245.466 172.079C248.865 197.88 232.57 259.653 157.892 237.25L158.573 229.78C158.573 229.78 200.661 242.677 227.143 214.848C253.618 187.011 205.422 151.031 205.422 151.031L215.528 144.029H215.519Z" fill="#311D3F"/>
<path d="M215.519 144.029C215.519 144.029 242.076 146.278 245.466 172.079C248.865 197.88 232.57 259.653 157.892 237.25L162.366 230.297C162.366 230.297 200.464 241.831 227.135 214.848C254.143 187.528 207.458 154.971 207.458 154.971L215.519 144.029Z" fill="#384A92"/>
<path d="M154.14 242.077C154.14 242.077 106.922 223.517 84.692 207.558C84.692 207.558 119.769 132.708 141.975 102.934C141.975 102.934 194.775 126.847 215.519 144.02C215.519 144.02 174.573 216.211 154.14 242.069V242.077Z" fill="#384A92"/>
<path d="M156.357 109.731C147.811 105.577 141.983 102.934 141.983 102.934C119.778 132.708 84.7003 207.558 84.7003 207.558C90.1593 211.482 97.1288 215.554 104.533 219.478C121.657 182.833 140.079 146.688 156.357 109.739V109.731Z" fill="#5264AE"/>
<path d="M137.189 110.971L147.368 116.742L100.864 209.75L102.9 211.786L149.74 115.724L137.862 108.935L137.189 110.971Z" fill="#311D3F"/>
<path d="M133.79 127.947L144.314 117.423L144.996 119.122L137.189 132.019L133.79 127.947Z" fill="#311D3F"/>
<path d="M300.311 300.509C300.311 300.509 286.881 295.009 279.476 282.638L293.103 277.532C293.103 277.532 298.357 286.373 307.124 290.888L300.311 300.509Z" fill="#FFBF9D"/>
<path d="M320.571 295.337C320.571 295.337 324.421 302.75 322.45 306.461C320.48 310.171 319.544 305.254 319.544 305.254C319.544 305.254 320.316 310.343 314.586 309.309L320.571 295.337Z" fill="#FFBF9D"/>
<path d="M197.008 180.452C197.008 180.452 194.923 144.02 222.013 155.932C243.767 165.495 248.405 223.188 266.457 241.396L307.428 286.931L290.764 298.137C290.764 298.137 257.427 279.921 233.817 254.703C210.208 229.485 197.008 180.444 197.008 180.444V180.452Z" fill="#5264AE"/>
</g>
</g>
<defs>
<clipPath id="clip0_0_933">
<rect width="456" height="300" fill="white"/>
</clipPath>
</defs>
</svg>
