<svg width="60" height="52" viewBox="0 0 60 52" fill="none" xmlns="http://www.w3.org/2000/svg">
<path d="M45.0191 0.0800564H9.06829C4.72469 -0.539253 0.701288 2.48006 0.0805741 6.82365C-0.026155 7.56794 -0.026155 8.32347 0.0805741 9.06777V36.0309C-0.538735 40.3745 2.47917 44.3993 6.82417 45.0186C7.56846 45.1253 8.32399 45.1253 9.06829 45.0186H30.6388C31.1177 45.0186 31.5137 44.6437 31.5376 44.1648C31.5614 43.0315 32.0347 41.953 32.8534 41.1693L49.3009 24.632C50.3542 23.5703 51.7192 22.8723 53.1951 22.6392C53.6445 22.5957 53.9914 22.2263 54.0068 21.777V9.06777C54.6262 4.72418 51.6082 0.699366 47.2633 0.0800564C46.519 -0.0266727 45.7634 -0.0266727 45.0191 0.0800564ZM44.8422 13.879L30.1262 24.5828C28.2894 25.9211 25.7981 25.9211 23.9612 24.5828L9.24523 13.8804C8.24254 13.1502 8.02066 11.7458 8.75091 10.7431C9.48116 9.74044 10.8855 9.51856 11.8882 10.2488L26.607 20.9498C26.8682 21.1394 27.2207 21.1394 27.4819 20.9498L42.2006 10.2488C43.2033 9.51856 44.6077 9.74044 45.3379 10.7431C46.0682 11.7458 45.8463 13.1502 44.8436 13.8804L44.8422 13.879ZM47.9458 32.3754L54.6571 39.0867L42.6739 51.0109H36.0314V44.36L47.9458 32.3768V32.3754ZM59.2099 30.7871L56.2439 27.8212C55.2104 26.7792 53.528 26.7708 52.486 27.8043C52.4803 27.81 52.4747 27.8156 52.4691 27.8212L50.0424 30.2774L56.7537 36.9887L59.2099 34.562C60.2519 33.534 60.2631 31.8544 59.2352 30.8124C59.2267 30.804 59.2183 30.7956 59.2099 30.7871Z" fill="#5264AE"/>
</svg>
