<svg width="60" height="62" viewBox="0 0 60 62" fill="none" xmlns="http://www.w3.org/2000/svg">
<g clip-path="url(#clip0_22_4362)">
<path d="M51.8997 25.8554C51.9744 17.168 44.5748 9.204 35.4072 8.10373C35.2254 8.08268 35.0264 8.05016 34.8159 8.0138C34.3624 7.93917 33.8936 7.86072 33.4191 7.86072C31.54 7.86072 31.0367 9.18104 30.9047 9.96749C30.7765 10.7329 30.899 11.3758 31.2683 11.8791C31.8902 12.7249 32.9847 12.876 33.8649 12.9966C34.1232 13.0329 34.3663 13.0655 34.5691 13.1114C42.8067 14.9522 45.5794 17.8454 46.9361 26.0123C46.9686 26.2113 46.9839 26.4581 46.9992 26.7184C47.0586 27.6942 47.181 29.7264 49.3643 29.7264C49.5461 29.7264 49.7413 29.7111 49.9441 29.6805C51.9782 29.3705 51.9131 27.5144 51.8825 26.6227C51.873 26.372 51.8653 26.1347 51.8863 25.9759C51.8921 25.9357 51.894 25.8955 51.8959 25.8554H51.8997Z" fill="#5264AE"/>
<path d="M32.8849 4.91581C33.1279 4.93303 33.3594 4.95025 33.5527 4.97895C47.0793 7.05894 53.3001 13.4673 55.0242 27.0991C55.0529 27.3307 55.0586 27.6139 55.0624 27.9124C55.0797 28.9782 55.1141 31.194 57.4945 31.238H57.5691C58.3154 31.238 58.9086 31.0142 59.3334 30.5702C60.0739 29.7953 60.0222 28.6452 59.9801 27.7191C59.9706 27.4914 59.961 27.279 59.9629 27.0915C60.1332 13.1516 48.0647 0.508994 34.1363 0.0382702C34.0789 0.0363567 34.0234 0.0382702 33.9679 0.0478377C33.9411 0.0516648 33.8894 0.0574053 33.8033 0.0574053C33.6637 0.0574053 33.4934 0.0459242 33.3116 0.0325297C33.0915 0.0172216 32.8447 0 32.5921 0C30.3743 0 29.9514 1.57673 29.8979 2.51626C29.7735 4.6881 31.8745 4.84118 32.8849 4.91581Z" fill="#5264AE"/>
<path d="M54.3713 44.7187C54.0842 44.4987 53.7857 44.271 53.5083 44.0471C52.031 42.8588 50.46 41.7624 48.9407 40.7042C48.625 40.4841 48.3093 40.2641 47.9954 40.044C46.0494 38.6759 44.2985 38.0119 42.6453 38.0119C40.4179 38.0119 38.4776 39.2423 36.8741 41.6686C36.1642 42.744 35.3031 43.2664 34.2411 43.2664C33.6135 43.2664 32.8998 43.0865 32.121 42.7344C25.8389 39.8852 21.3517 35.5167 18.7876 29.7513C17.5477 26.9652 17.9495 25.1435 20.1328 23.6606C21.3728 22.8186 23.6786 21.2534 23.5159 18.2549C23.3303 14.8488 15.816 4.602 12.651 3.43859C11.3096 2.9449 9.90321 2.94107 8.4566 3.42711C4.81902 4.65175 2.20708 6.80062 0.903979 9.64027C-0.35511 12.3862 -0.297705 15.6085 1.06854 18.9629C5.01802 28.6586 10.5691 37.1106 17.5726 44.0854C24.4268 50.9128 32.85 56.5059 42.6089 60.7099C43.4891 61.0888 44.4114 61.2954 45.085 61.4447C45.3146 61.4964 45.5136 61.5404 45.6571 61.5806C45.7356 61.6016 45.8179 61.6131 45.9002 61.615H45.9767C50.5672 61.615 56.0781 57.4206 57.7716 52.6387C59.2545 48.452 56.5469 46.3816 54.3713 44.7187Z" fill="#5264AE"/>
<path d="M34.9148 15.9893C34.1284 16.0084 32.4943 16.0505 31.9202 17.7153C31.6523 18.4941 31.6829 19.1696 32.0159 19.7245C32.5038 20.5377 33.4357 20.7884 34.2853 20.9242C37.3641 21.4179 38.9447 23.121 39.2623 26.2821C39.4097 27.7555 40.4028 28.7849 41.6772 28.7849C41.7709 28.7849 41.8666 28.7792 41.9642 28.7677C43.4969 28.5859 44.2394 27.4589 44.1724 25.421C44.1973 23.2932 43.0836 20.8783 41.1892 18.9552C39.2891 17.0264 36.9987 15.9396 34.9148 15.9893Z" fill="#5264AE"/>
</g>
<defs>
<clipPath id="clip0_22_4362">
<rect width="60" height="61.615" fill="white"/>
</clipPath>
</defs>
</svg>
