<svg width="60" height="60" viewBox="0 0 60 60" fill="none" xmlns="http://www.w3.org/2000/svg">
<g clip-path="url(#clip0_143_24267)">
<path d="M3.65 59.9898C1.63 59.9898 0 58.3598 0 56.3498V14.3598C0 14.1198 0.09 13.8798 0.26 13.7098L13.71 0.249766C13.8 0.159766 13.9 0.0897656 14.02 0.0497656L14.08 0.0297656H14.14L14.18 0.00976562H14.2C14.2 0.00976562 14.29 0.00976562 14.34 0.00976562H40.09C42.1 0.00976562 43.73 1.63977 43.74 3.65977V16.7398C43.74 17.2298 43.35 17.6198 42.86 17.6198C42.37 17.6198 41.98 17.2298 41.98 16.7398V3.64977C41.98 2.60977 41.13 1.75977 40.09 1.75977H15.21V11.9098C15.21 13.7298 13.73 15.2098 11.9 15.2098H1.75V56.3498C1.75 57.3898 2.6 58.2398 3.64 58.2398H40.08C41.12 58.2398 41.97 57.3898 41.97 56.3498V52.9098L41.84 52.8598C39.32 51.8198 37.01 50.3598 34.99 48.5298H7.06C6.57 48.5298 6.18 48.1398 6.18 47.6498C6.18 47.1598 6.57 46.7698 7.06 46.7698H33.23C32.53 45.9998 31.88 45.1998 31.27 44.3598C30.57 43.3898 29.94 42.3798 29.38 41.3298H7.06C6.57 41.3298 6.18 40.9398 6.18 40.4498C6.18 39.9598 6.57 39.5698 7.06 39.5698H28.51C27.72 37.8298 27.13 35.9998 26.73 34.1298H7.06C6.58 34.1298 6.18 33.7398 6.18 33.2498C6.18 32.7598 6.57 32.3698 7.06 32.3698H26.41C26.36 32.0398 26.32 31.7098 26.29 31.3798C26.16 30.2098 26.82 29.0998 27.91 28.6398C28.92 28.2098 29.87 27.6298 30.72 26.9298H7.06C6.57 26.9298 6.18 26.5398 6.18 26.0498C6.18 25.5598 6.57 25.1698 7.06 25.1698H32.43C33.26 24.1198 33.89 22.9398 34.31 21.6698C34.62 20.7098 35.44 19.9998 36.43 19.8398C38.55 19.5098 40.7 19.3398 42.85 19.3398C45 19.3398 47.14 19.5098 49.27 19.8398C50.27 19.9998 51.09 20.7098 51.39 21.6698C52.42 24.7998 54.75 27.3398 57.79 28.6398C58.87 29.0998 59.53 30.2098 59.41 31.3798C59.15 33.7998 58.56 36.1698 57.66 38.4398C57.48 38.8898 56.97 39.1098 56.52 38.9298C56.07 38.7498 55.85 38.2398 56.03 37.7898C56.87 35.6798 57.42 33.4598 57.66 31.1998C57.7 30.7998 57.47 30.4198 57.1 30.2598C53.6 28.7698 50.91 25.8398 49.72 22.2198C49.62 21.8898 49.34 21.6398 48.99 21.5798C46.96 21.2598 44.9 21.0998 42.84 21.0998C40.78 21.0998 38.73 21.2598 36.69 21.5798C36.35 21.6398 36.06 21.8898 35.96 22.2198C34.77 25.8398 32.08 28.7598 28.58 30.2598C28.21 30.4098 27.98 30.7998 28.02 31.1998C28.09 31.8198 28.18 32.4298 28.29 33.0398C28.29 33.0798 28.31 33.1098 28.31 33.1498C28.76 35.5298 29.54 37.8298 30.64 39.9798C30.67 40.0198 30.69 40.0698 30.71 40.1098C31.29 41.2298 31.95 42.2998 32.68 43.3198C33.62 44.6298 34.69 45.8398 35.86 46.9398C35.9 46.9698 35.94 47.0098 35.98 47.0498C37.88 48.8198 40.09 50.2298 42.49 51.2198C42.71 51.3098 42.96 51.3098 43.18 51.2198C48.03 49.1498 52.04 45.4898 54.56 40.8598C54.8 40.4398 55.33 40.2798 55.76 40.5198C56.18 40.7598 56.34 41.2898 56.1 41.7198C53.39 46.7098 49.07 50.6298 43.85 52.8598C43.81 52.8798 43.77 52.8898 43.72 52.9098V56.3498C43.72 58.3498 42.09 59.9698 40.09 59.9798H3.65V59.9898ZM3 13.4498H11.91C12.76 13.4498 13.46 12.7598 13.46 11.8998V2.98977L3 13.4498ZM38.13 44.1898C36.84 44.1898 35.8 43.1398 35.8 41.8598V39.1898C35.8 37.8498 36.18 36.5398 36.9 35.4098C37.56 34.3598 38.96 34.0398 40.01 34.6998C41.75 35.8198 43.97 35.8198 45.71 34.6998C46.76 34.0298 48.15 34.3398 48.82 35.3898C49.54 36.5298 49.92 37.8398 49.92 39.1698V41.8398C49.92 43.1298 48.88 44.1698 47.59 44.1698H38.13V44.1898ZM38.38 36.3498C37.84 37.1998 37.56 38.1798 37.56 39.1798V41.8498C37.56 42.1698 37.82 42.4298 38.14 42.4298H47.6C47.92 42.4298 48.17 42.1698 48.18 41.8498C48.06 39.8998 48.57 38.2498 47.36 36.3498C47.29 36.2398 47.17 36.1498 47.04 36.1298C46.8 36.0798 46.68 36.1998 46.45 36.3298L44.22 39.9998C43.94 40.4698 43.43 40.7598 42.88 40.7598C42.33 40.7598 41.82 40.4698 41.54 39.9998L39.31 36.3298C39.07 36.1898 39.01 36.1198 38.83 36.1198C38.66 36.1198 38.49 36.2098 38.4 36.3498H38.38ZM42.86 38.8198L43.82 37.2298C43.18 37.3198 42.53 37.3198 41.89 37.2298L42.86 38.8198ZM38.53 30.2398V28.9898C38.53 26.5998 40.47 24.6698 42.86 24.6598C45.25 24.6598 47.18 26.5998 47.19 28.9898V30.2398C47.19 32.6298 45.25 34.5598 42.86 34.5698C40.47 34.5698 38.54 32.6298 38.54 30.2398H38.53ZM40.29 28.9898V30.2398C40.29 31.6598 41.44 32.8098 42.86 32.8098C44.28 32.8098 45.43 31.6598 45.43 30.2398V28.9898C45.43 27.5698 44.28 26.4198 42.86 26.4198C41.44 26.4198 40.3 27.5698 40.3 28.9898H40.29ZM9.91 19.5198C9.42 19.5198 9.03 19.1298 9.03 18.6398C9.03 18.1498 9.42 17.7598 9.91 17.7598H22.1C22.59 17.7598 22.98 18.1498 22.98 18.6398C22.98 19.1298 22.59 19.5198 22.1 19.5198H9.91Z" fill="#333343"/>
</g>
<defs>
<clipPath id="clip0_143_24267">
<rect width="59.43" height="59.99" fill="white"/>
</clipPath>
</defs>
</svg>
