<svg width="60" height="60" viewBox="0 0 60 60" fill="none" xmlns="http://www.w3.org/2000/svg">
<g clip-path="url(#clip0_143_24254)">
<path d="M10.7398 35.8798H14.8498C15.9498 35.8798 16.8298 34.9898 16.8298 33.8898V33.0498C16.8298 31.9598 15.9398 31.0698 14.8498 31.0698H10.7398C9.64977 31.0698 8.75977 31.9598 8.75977 33.0498V33.8898C8.75977 34.9798 9.64977 35.8698 10.7398 35.8698M10.1998 33.0398C10.1998 32.7398 10.4398 32.4998 10.7398 32.4998H14.8498C15.1498 32.4998 15.3898 32.7398 15.3898 33.0398V33.8798C15.3898 34.1798 15.1498 34.4198 14.8498 34.4198H10.7398C10.4398 34.4198 10.1998 34.1798 10.1998 33.8798V33.0398Z" fill="#333343"/>
<path d="M21.9995 35.8801H26.0995C27.1895 35.8801 28.0795 34.9901 28.0795 33.9001V33.0601C28.0795 31.9701 27.1895 31.0801 26.0995 31.0801H21.9995C20.9095 31.0801 20.0195 31.9701 20.0195 33.0601V33.9001C20.0195 34.9901 20.9095 35.8801 21.9995 35.8801ZM21.4595 33.0501C21.4595 32.7501 21.6995 32.5101 21.9995 32.5101H26.0995C26.3995 32.5101 26.6395 32.7501 26.6395 33.0501V33.8901C26.6395 34.1901 26.3995 34.4301 26.0995 34.4301H21.9995C21.6995 34.4301 21.4595 34.1901 21.4595 33.8901V33.0501Z" fill="#333343"/>
<path d="M49.3697 31.0801H45.1597C44.0697 31.0801 43.1797 31.9701 43.1797 33.0601V33.9001C43.1797 34.9901 44.0697 35.8801 45.1597 35.8801H49.3697C50.4597 35.8801 51.3497 34.9901 51.3497 33.9001V33.0601C51.3497 31.9701 50.4597 31.0801 49.3697 31.0801ZM49.9097 33.9101C49.9097 34.2101 49.6697 34.4501 49.3697 34.4501H45.1597C44.8597 34.4501 44.6197 34.2101 44.6197 33.9101V33.0701C44.6197 32.7701 44.8597 32.5301 45.1597 32.5301H49.3697C49.6697 32.5301 49.9097 32.7701 49.9097 33.0701V33.9101Z" fill="#333343"/>
<path d="M49.3697 22.7598H45.1597C44.0697 22.7598 43.1797 23.6498 43.1797 24.7398V25.5798C43.1797 26.6698 44.0697 27.5598 45.1597 27.5598H49.3697C50.4597 27.5598 51.3497 26.6698 51.3497 25.5798V24.7398C51.3497 23.6498 50.4597 22.7598 49.3697 22.7598ZM49.9097 25.5798C49.9097 25.8798 49.6697 26.1198 49.3697 26.1198H45.1597C44.8597 26.1198 44.6197 25.8798 44.6197 25.5798V24.7398C44.6197 24.4398 44.8597 24.1998 45.1597 24.1998H49.3697C49.6697 24.1998 49.9097 24.4398 49.9097 24.7398V25.5798Z" fill="#333343"/>
<path d="M10.6304 44.0998H26.1004C27.1904 44.0998 28.0804 43.2098 28.0804 42.1198V41.2798C28.0804 40.1898 27.1904 39.2998 26.1004 39.2998H10.6304C9.54039 39.2998 8.65039 40.1898 8.65039 41.2798V42.1198C8.65039 43.2098 9.54039 44.0998 10.6304 44.0998ZM10.0904 41.2698C10.0904 40.9698 10.3304 40.7298 10.6304 40.7298H26.1004C26.4004 40.7298 26.6404 40.9698 26.6404 41.2698V42.1098C26.6404 42.4098 26.4004 42.6498 26.1004 42.6498H10.6304C10.3304 42.6498 10.0904 42.4098 10.0904 42.1098V41.2698Z" fill="#333343"/>
<path d="M40.2105 20.8298H49.4705C50.5605 20.8298 51.4505 19.9398 51.4505 18.8498V18.0098C51.4505 16.9198 50.5605 16.0298 49.4705 16.0298H40.2105C39.1205 16.0298 38.2305 16.9198 38.2305 18.0098V18.8498C38.2305 19.9398 39.1205 20.8298 40.2105 20.8298ZM39.6705 18.0098C39.6705 17.7098 39.9105 17.4698 40.2105 17.4698H49.4705C49.7705 17.4698 50.0105 17.7098 50.0105 18.0098V18.8498C50.0105 19.1498 49.7705 19.3898 49.4705 19.3898H40.2105C39.9105 19.3898 39.6705 19.1498 39.6705 18.8498V18.0098Z" fill="#333343"/>
<path d="M1.8 57.3602H2.64V58.2002C2.64 59.1902 3.45 60.0002 4.44 60.0002H5.4C6.39 60.0002 7.2 59.1902 7.2 58.2002V57.3602H8.04C9.03 57.3602 9.84 56.5502 9.84 55.5602V54.6002C9.84 53.6102 9.03 52.8002 8.04 52.8002H7.2V51.9602C7.2 50.9702 6.39 50.1602 5.4 50.1602H4.44C3.45 50.1602 2.64 50.9702 2.64 51.9602V52.8002H1.8C0.81 52.8002 0 53.6102 0 54.6002V55.5602C0 56.5502 0.81 57.3602 1.8 57.3602ZM1.44 54.6002C1.44 54.4002 1.6 54.2402 1.8 54.2402H3.36C3.76 54.2402 4.08 53.9202 4.08 53.5202V51.9602C4.08 51.7602 4.24 51.6002 4.44 51.6002H5.4C5.6 51.6002 5.76 51.7602 5.76 51.9602V53.5202C5.76 53.9202 6.08 54.2402 6.48 54.2402H8.04C8.24 54.2402 8.4 54.4002 8.4 54.6002V55.5602C8.4 55.7602 8.24 55.9202 8.04 55.9202H6.48C6.08 55.9202 5.76 56.2402 5.76 56.6402V58.2002C5.76 58.4002 5.6 58.5602 5.4 58.5602H4.44C4.24 58.5602 4.08 58.4002 4.08 58.2002V56.6402C4.08 56.2402 3.76 55.9202 3.36 55.9202H1.8C1.6 55.9202 1.44 55.7602 1.44 55.5602V54.6002Z" fill="#333343"/>
<path d="M58.2002 2.64H57.3602V1.8C57.3602 0.81 56.5502 0 55.5602 0H54.6002C53.6102 0 52.8002 0.81 52.8002 1.8V2.64H51.9602C50.9702 2.64 50.1602 3.45 50.1602 4.44V5.4C50.1602 6.39 50.9702 7.2 51.9602 7.2H52.8002V8.04C52.8002 9.03 53.6102 9.84 54.6002 9.84H55.5602C56.5502 9.84 57.3602 9.03 57.3602 8.04V7.2H58.2002C59.1902 7.2 60.0002 6.39 60.0002 5.4V4.44C60.0002 3.45 59.1902 2.64 58.2002 2.64ZM58.5602 5.4C58.5602 5.6 58.4002 5.76 58.2002 5.76H56.6402C56.2402 5.76 55.9202 6.08 55.9202 6.48V8.04C55.9202 8.24 55.7602 8.4 55.5602 8.4H54.6002C54.4002 8.4 54.2402 8.24 54.2402 8.04V6.48C54.2402 6.08 53.9202 5.76 53.5202 5.76H51.9602C51.7602 5.76 51.6002 5.6 51.6002 5.4V4.44C51.6002 4.24 51.7602 4.08 51.9602 4.08H53.5202C53.9202 4.08 54.2402 3.76 54.2402 3.36V1.8C54.2402 1.6 54.4002 1.44 54.6002 1.44H55.5602C55.7602 1.44 55.9202 1.6 55.9202 1.8V3.36C55.9202 3.76 56.2402 4.08 56.6402 4.08H58.2002C58.4002 4.08 58.5602 4.24 58.5602 4.44V5.4Z" fill="#333343"/>
<path d="M55.5 51C53.01 51 51 53.01 51 55.5C51 57.99 53.01 60 55.5 60C57.99 60 60 57.99 60 55.5C60 53.01 57.99 51 55.5 51ZM55.5 58.56C53.81 58.56 52.44 57.19 52.44 55.5C52.44 53.81 53.81 52.44 55.5 52.44C57.19 52.44 58.56 53.81 58.56 55.5C58.56 57.19 57.19 58.56 55.5 58.56Z" fill="#333343"/>
<path d="M4.5 0C2.01 0 0 2.01 0 4.5C0 6.99 2.01 9 4.5 9C6.99 9 9 6.99 9 4.5C9 2.01 6.99 0 4.5 0ZM4.5 7.56C2.81 7.56 1.44 6.19 1.44 4.5C1.44 2.81 2.81 1.44 4.5 1.44C6.19 1.44 7.56 2.81 7.56 4.5C7.56 6.19 6.19 7.56 4.5 7.56Z" fill="#333343"/>
<path d="M3.59961 19.27V40.85C3.59961 45.43 7.31961 49.15 11.8996 49.15H12.4796C14.6296 51.35 17.2496 53.05 20.1296 54.12C21.8596 54.78 23.6796 55.15 25.5296 55.2C31.2096 55.2 35.9096 53.11 39.1696 49.14H48.1096C52.6896 49.14 56.4096 45.42 56.4096 40.84V19.27C56.4096 14.69 52.6896 10.97 48.1096 10.97H45.0896C42.9096 8.71004 40.2596 6.97004 37.3196 5.87004C35.5896 5.21004 33.7696 4.84004 31.9196 4.79004C26.1796 4.79004 21.4496 6.92004 18.1896 10.96H11.8996C7.31961 10.96 3.59961 14.68 3.59961 19.26V19.27ZM38.3396 47.87C35.3196 51.78 31.0096 53.76 25.5296 53.76C21.3896 53.53 17.4696 51.85 14.4396 49.03H26.3696C30.2996 49.03 33.1796 44.38 34.5396 41.61C34.7196 41.25 34.5696 40.82 34.2096 40.64C34.1596 40.62 34.1096 40.6 34.0596 40.59L32.5996 40.24C32.2296 40.15 31.9996 39.78 32.0896 39.41C32.1196 39.27 32.1996 39.14 32.3096 39.05C38.4396 33.84 38.0496 34.16 38.1696 34.08C39.0396 33.45 40.2496 33.64 40.8796 34.51C40.9696 34.63 41.0396 34.76 41.0996 34.9L43.9996 41.85C44.1496 42.2 43.9796 42.6 43.6296 42.75C43.4996 42.81 43.3496 42.82 43.1996 42.78L41.8396 42.45C41.4796 42.36 41.1196 42.56 40.9896 42.91C40.3596 44.69 39.4596 46.36 38.3196 47.86L38.3396 47.87ZM33.8896 34.45C33.5896 34.45 33.3496 34.21 33.3496 33.91V33.07C33.3496 32.77 33.5896 32.53 33.8896 32.53C38.2896 32.53 37.9996 32.53 38.0296 32.53C37.0896 33.04 36.2396 33.69 35.4996 34.46H33.8796L33.8896 34.45ZM19.1096 12.13C22.1296 8.22004 26.4396 6.24004 31.9196 6.24004C36.0596 6.47004 39.9796 8.15004 43.0096 10.97H31.0796C27.1496 10.97 24.2696 15.62 22.9096 18.39C22.7296 18.75 22.8796 19.18 23.2396 19.36C23.2896 19.38 23.3396 19.4 23.3896 19.41L24.8496 19.76C25.2196 19.85 25.4496 20.22 25.3596 20.59C25.3296 20.73 25.2496 20.86 25.1396 20.95L19.3996 25.83C18.5796 26.53 17.3596 26.43 16.6596 25.61C16.5296 25.46 16.4196 25.28 16.3496 25.1L13.4496 18.15C13.2996 17.8 13.4696 17.4 13.8196 17.25C13.8996 17.22 13.9896 17.2 14.0796 17.2C14.5996 17.27 15.1096 17.39 15.6096 17.55C15.9696 17.64 16.3296 17.44 16.4596 17.09C17.0896 15.31 17.9896 13.64 19.1296 12.15L19.1096 12.13ZM11.8996 12.41H17.1396C16.4096 13.54 15.7896 14.73 15.2996 15.99L14.5596 15.81C13.4196 15.54 12.2696 16.24 11.9996 17.38C11.8896 17.82 11.9296 18.28 12.1096 18.7L15.0096 25.65C15.7296 27.37 17.7096 28.19 19.4296 27.47C19.7496 27.34 20.0496 27.15 20.3196 26.92L26.0596 22.04C26.9496 21.28 27.0596 19.94 26.2996 19.04C26.0096 18.7 25.6196 18.46 25.1796 18.35L24.6096 18.21C25.7996 16 28.1896 12.41 31.0596 12.4H48.0996C51.8896 12.4 54.9496 15.47 54.9596 19.26V40.84C54.9596 44.63 51.8896 47.7 48.0996 47.7H40.2196C40.9896 46.54 41.6296 45.3 42.1396 44L42.8796 44.18C44.0196 44.45 45.1696 43.75 45.4396 42.61C45.5396 42.17 45.5096 41.71 45.3296 41.3L42.4296 34.35C41.9796 33.26 40.9896 32.49 39.8296 32.31C39.5296 31.56 38.7996 31.07 37.9996 31.07H33.8996C32.7996 31.07 31.9196 31.96 31.9096 33.05V33.89C31.9096 34.96 32.7496 35.83 33.8196 35.87L31.3796 37.94C30.4896 38.7 30.3796 40.04 31.1396 40.94C31.4296 41.28 31.8196 41.52 32.2596 41.63L32.8296 41.77C31.6296 43.98 29.2496 47.58 26.3696 47.58C11.9496 47.58 12.5696 47.55 12.3596 47.65C12.3496 47.65 12.2796 47.7 12.2696 47.7H11.8996C8.11961 47.7 5.04961 44.63 5.03961 40.84V19.27C5.03961 15.48 8.10961 12.42 11.8996 12.41Z" fill="#333343"/>
</g>
<defs>
<clipPath id="clip0_143_24254">
<rect width="60" height="60" fill="white"/>
</clipPath>
</defs>
</svg>
