<svg width="470" height="375" viewBox="0 0 470 375" fill="none" xmlns="http://www.w3.org/2000/svg">
<circle cx="256.5" cy="194.5" r="169" fill="#D5DDFD"/>
<circle cx="256.5" cy="194.5" r="169" fill="#D5DDFD"/>
<circle cx="256.5" cy="194.5" r="169" stroke="#D5DDFD"/>
<circle cx="256.5" cy="194.5" r="135.5" fill="#D5DDFD"/>
<circle cx="256.5" cy="194.5" r="135.5" fill="#F0F3FF"/>
<g style="mix-blend-mode:multiply" opacity="0.36">
<ellipse cx="254" cy="296" rx="216" ry="79" fill="url(#paint0_radial_2015_693)"/>
</g>
<path d="M88.1829 269.473L235.606 342.546C239.043 343.728 242.792 343.637 246.169 342.289L363.567 273.59C365.49 272.823 366.418 271.065 366.376 269.331C366.333 267.597 369.84 259.352 367.88 258.678L198.515 208.57C195.249 207.447 191.692 207.534 188.485 208.814L88.2476 251.727C86.5874 252.39 85.3418 262.576 85.0607 264.049C84.6482 266.208 85.7037 268.621 88.1829 269.473Z" fill="url(#paint1_linear_2015_693)"/>
<path d="M204.046 187.182L246.835 66.5351C248.246 62.5538 252.602 60.4559 256.592 61.8316L428.671 103.83C432.715 105.223 434.845 109.648 433.415 113.682L385.249 249.799C383.837 253.78 379.482 255.878 375.492 254.502L208.79 197.034C204.745 195.64 202.616 191.216 204.046 187.182Z" fill="url(#paint2_linear_2015_693)"/>
<path d="M198.408 189.086L241.197 68.4386C242.609 64.4573 246.964 62.3595 250.954 63.7351L423.033 105.733C427.078 107.127 429.207 111.551 427.777 115.585L379.611 251.702C378.2 255.684 373.844 257.782 369.854 256.406L203.152 198.938C199.108 197.544 196.978 193.12 198.408 189.086Z" fill="url(#paint3_linear_2015_693)"/>
<path d="M371.199 252.508L204.495 195.044C203.589 194.73 202.859 194.079 202.44 193.213C202.024 192.347 201.971 191.372 202.295 190.461L245.082 69.8143C245.689 68.113 247.468 67.1318 249.229 67.5303L421.697 109.629C422.603 109.943 423.329 110.592 423.747 111.458C424.164 112.324 424.216 113.299 423.895 114.21L375.729 250.327C375.126 252.024 373.344 253.009 371.591 252.613L371.203 252.508H371.199Z" fill="white"/>
<path d="M90.539 259.048L237.962 332.122C241.399 333.303 245.149 333.212 248.526 331.865L365.923 263.165C369.769 261.629 369.636 256.137 365.719 254.792L200.871 198.147C197.605 197.024 194.048 197.111 190.841 198.392L90.3206 250.135C86.2257 251.769 86.3673 257.616 90.537 259.05L90.539 259.048Z" fill="url(#paint4_linear_2015_693)"/>
<path d="M207.444 208.746C204.422 207.544 202.914 206.939 199.897 205.717C196.835 207.613 195.325 208.527 192.31 210.324C195.266 211.566 196.748 212.183 199.713 213.405C202.786 211.588 204.327 210.664 207.444 208.746Z" fill="url(#paint5_linear_2015_693)"/>
<path d="M201.979 217.421C196.893 215.323 194.358 214.259 189.298 212.102C186.289 213.866 184.791 214.728 181.77 216.441C186.724 218.632 189.211 219.713 194.2 221.849C197.318 220.101 198.867 219.221 201.977 217.421H201.979Z" fill="url(#paint6_linear_2015_693)"/>
<path d="M218.373 213.031C215.346 211.859 213.833 211.268 210.81 210.077C207.672 212.003 206.119 212.933 203.019 214.76C205.987 215.974 207.473 216.575 210.45 217.77C213.605 215.921 215.186 214.979 218.375 213.031H218.373Z" fill="url(#paint7_linear_2015_693)"/>
<path d="M229.321 217.216C226.292 216.071 224.775 215.495 221.748 214.331C218.537 216.29 216.945 217.238 213.767 219.098C216.743 220.285 218.234 220.874 221.216 222.043C224.448 220.16 226.065 219.199 229.323 217.216H229.321Z" fill="url(#paint8_linear_2015_693)"/>
<path d="M240.272 221.311C237.242 220.19 235.726 219.626 232.697 218.489C229.419 220.481 227.791 221.448 224.537 223.344C227.52 224.507 229.012 225.084 231.995 226.231C235.297 224.311 236.951 223.33 240.272 221.311Z" fill="url(#paint9_linear_2015_693)"/>
<path d="M251.216 225.324C248.191 224.224 246.676 223.672 243.647 222.557C240.306 224.588 238.642 225.573 235.319 227.507C238.304 228.648 239.794 229.215 242.777 230.344C246.146 228.383 247.833 227.384 251.216 225.324Z" fill="url(#paint10_linear_2015_693)"/>
<path d="M262.139 229.263C259.12 228.183 257.61 227.639 254.585 226.544C251.183 228.616 249.489 229.621 246.1 231.594C249.08 232.717 250.571 233.275 253.549 234.386C256.983 232.383 258.7 231.363 262.139 229.263Z" fill="url(#paint11_linear_2015_693)"/>
<path d="M273.032 233.141C270.023 232.075 268.517 231.541 265.502 230.465C262.046 232.577 260.319 233.605 256.867 235.622C259.844 236.728 261.33 237.278 264.301 238.375C267.793 236.328 269.542 235.286 273.034 233.141H273.032Z" fill="url(#paint12_linear_2015_693)"/>
<path d="M283.882 236.967C280.887 235.915 279.387 235.387 276.382 234.327C272.873 236.483 271.118 237.533 267.605 239.595C270.572 240.687 272.054 241.231 275.013 242.316C278.564 240.222 280.339 239.156 283.88 236.967H283.882Z" fill="url(#paint13_linear_2015_693)"/>
<path d="M294.676 240.748C291.697 239.706 290.205 239.184 287.214 238.136C283.657 240.341 281.874 241.414 278.307 243.522C281.261 244.602 282.735 245.142 285.679 246.216C289.283 244.074 291.087 242.983 294.676 240.746V240.748Z" fill="url(#paint14_linear_2015_693)"/>
<path d="M305.403 244.495C302.445 243.461 300.963 242.945 297.99 241.905C294.387 244.159 292.577 245.257 288.955 247.414C291.893 248.486 293.359 249.022 296.283 250.09C299.94 247.899 301.768 246.783 305.403 244.495Z" fill="url(#paint15_linear_2015_693)"/>
<path d="M316.052 248.217C313.118 247.189 311.646 246.676 308.694 245.644C305.046 247.948 303.209 249.073 299.537 251.28C302.455 252.346 303.911 252.88 306.815 253.944C310.522 251.699 312.374 250.556 316.052 248.217Z" fill="url(#paint16_linear_2015_693)"/>
<path d="M326.613 251.923C323.705 250.899 322.245 250.386 319.319 249.36C315.628 251.717 313.768 252.868 310.047 255.128C312.943 256.192 314.386 256.722 317.264 257.786C321.019 255.488 322.894 254.316 326.615 251.923H326.613Z" fill="url(#paint17_linear_2015_693)"/>
<path d="M329.848 253.064C326.117 255.476 324.232 256.655 320.465 258.971C325.108 260.691 327.415 261.551 332.003 263.274C335.823 260.893 337.734 259.684 341.51 257.207C336.875 255.548 334.541 254.721 329.85 253.064H329.848Z" fill="url(#paint18_linear_2015_693)"/>
<path d="M211.868 221.454C208.912 220.261 207.433 219.66 204.483 218.448C201.355 220.257 199.794 221.141 196.659 222.895C199.555 224.127 201.005 224.74 203.911 225.956C207.1 224.179 208.687 223.285 211.87 221.452L211.868 221.454Z" fill="url(#paint19_linear_2015_693)"/>
<path d="M222.565 225.725C219.602 224.554 218.122 223.965 215.161 222.78C211.954 224.623 210.355 225.523 207.144 227.309C210.051 228.519 211.507 229.12 214.419 230.315C217.679 228.507 219.307 227.592 222.565 225.725Z" fill="url(#paint20_linear_2015_693)"/>
<path d="M233.278 229.917C230.314 228.768 228.831 228.189 225.867 227.026C222.587 228.905 220.949 229.824 217.667 231.644C220.583 232.834 222.041 233.425 224.959 234.6C228.287 232.755 229.95 231.822 233.278 229.917Z" fill="url(#paint21_linear_2015_693)"/>
<path d="M243.992 234.04C241.029 232.907 239.545 232.338 236.581 231.195C233.232 233.113 231.56 234.052 228.211 235.907C231.129 237.078 232.589 237.661 235.509 238.82C238.902 236.937 240.599 235.984 243.992 234.038V234.04Z" fill="url(#paint22_linear_2015_693)"/>
<path d="M254.693 238.102C251.735 236.985 250.255 236.425 247.292 235.298C243.877 237.256 242.172 238.215 238.761 240.111C241.679 241.266 243.139 241.842 246.055 242.987C249.509 241.063 251.236 240.09 254.693 238.102Z" fill="url(#paint23_linear_2015_693)"/>
<path d="M265.371 242.114C262.421 241.009 260.944 240.455 257.988 239.344C254.512 241.347 252.775 242.326 249.303 244.264C252.217 245.407 253.675 245.975 256.585 247.11C260.095 245.144 261.854 244.149 265.371 242.116V242.114Z" fill="url(#paint24_linear_2015_693)"/>
<path d="M276.009 246.083C273.071 244.99 271.6 244.44 268.654 243.342C265.119 245.389 263.352 246.392 259.823 248.373C262.731 249.506 264.183 250.068 267.083 251.195C270.648 249.184 272.436 248.164 276.009 246.083Z" fill="url(#paint25_linear_2015_693)"/>
<path d="M286.597 250.021C283.675 248.935 282.211 248.391 279.279 247.301C275.688 249.396 273.892 250.422 270.311 252.449C273.206 253.574 274.652 254.134 277.538 255.255C281.153 253.196 282.969 252.154 286.599 250.024L286.597 250.021Z" fill="url(#paint26_linear_2015_693)"/>
<path d="M297.121 253.936C294.219 252.856 292.763 252.314 289.849 251.229C286.205 253.374 284.381 254.426 280.749 256.499C283.629 257.618 285.066 258.176 287.934 259.293C291.6 257.185 293.442 256.117 297.123 253.936H297.121Z" fill="url(#paint27_linear_2015_693)"/>
<path d="M307.567 257.836C304.688 256.758 303.244 256.218 300.35 255.138C296.656 257.335 294.803 258.411 291.123 260.535C293.984 261.65 295.41 262.208 298.255 263.323C301.968 261.164 303.836 260.068 307.567 257.834V257.836Z" fill="url(#paint28_linear_2015_693)"/>
<path d="M317.925 261.733C315.074 260.655 313.642 260.114 310.77 259.036C307.025 261.286 305.149 262.39 301.422 264.565C304.259 265.68 305.675 266.238 308.493 267.355C312.253 265.144 314.145 264.021 317.925 261.731V261.733Z" fill="url(#paint29_linear_2015_693)"/>
<path d="M311.63 268.601C314.441 269.718 315.842 270.278 318.631 271.399C322.434 269.131 324.353 267.98 328.179 265.635C325.358 264.555 323.941 264.015 321.098 262.937C317.304 265.243 315.403 266.374 311.63 268.603V268.601Z" fill="url(#paint30_linear_2015_693)"/>
<path d="M148.189 234.735C152.875 237.003 155.235 238.126 159.985 240.353C163.479 238.478 165.186 237.57 168.539 235.777C163.774 233.556 161.404 232.437 156.697 230.174C153.378 231.954 151.684 232.86 148.189 234.735Z" fill="url(#paint31_linear_2015_693)"/>
<path d="M162.322 241.448C165.083 242.736 166.468 243.376 169.248 244.654C172.738 242.777 174.449 241.865 177.826 240.06C175.042 238.79 173.653 238.15 170.884 236.868C167.523 238.662 165.817 239.572 162.322 241.448Z" fill="url(#paint32_linear_2015_693)"/>
<path d="M172.349 246.074C175.135 247.347 176.533 247.98 179.331 249.243C182.811 247.361 184.526 246.443 187.923 244.624C185.121 243.37 183.721 242.741 180.931 241.474C177.548 243.281 175.835 244.197 172.347 246.074H172.349Z" fill="url(#paint33_linear_2015_693)"/>
<path d="M231.893 263.774C230.631 263.234 230.001 262.963 228.739 262.423C225.908 261.209 224.49 260.6 221.659 259.382C220.397 258.84 219.766 258.567 218.504 258.023C215.673 256.801 214.258 256.19 211.429 254.964C210.169 254.418 209.538 254.145 208.278 253.596C205.451 252.366 204.04 251.749 201.219 250.513C197.142 248.725 195.106 247.827 191.047 246.018C187.644 247.841 185.929 248.761 182.453 250.645C186.51 252.463 188.546 253.368 192.625 255.17C195.446 256.416 196.859 257.04 199.69 258.28C200.95 258.832 201.581 259.109 202.845 259.661C205.678 260.899 207.095 261.516 209.932 262.751C211.196 263.301 211.829 263.574 213.093 264.122C215.93 265.354 217.352 265.969 220.191 267.197C221.457 267.745 222.088 268.018 223.354 268.565C224.773 269.178 225.483 269.485 226.903 270.098C228.322 270.711 229.032 271.019 230.449 271.632C233.822 269.692 235.529 268.729 238.971 266.803C237.557 266.198 236.85 265.894 235.436 265.289C234.021 264.682 233.313 264.381 231.897 263.774H231.893Z" fill="url(#paint34_linear_2015_693)"/>
<path d="M233.606 272.997C236.442 274.223 237.859 274.836 240.688 276.062C244.031 274.104 245.731 273.128 249.173 271.176C246.354 269.966 244.943 269.364 242.118 268.154C238.676 270.088 236.971 271.053 233.606 272.999V272.997Z" fill="url(#paint35_linear_2015_693)"/>
<path d="M243.836 277.427C246.663 278.653 248.074 279.266 250.891 280.494C254.202 278.516 255.894 277.528 259.334 275.544C256.529 274.334 255.124 273.729 252.309 272.521C248.869 274.484 247.17 275.463 243.838 277.427H243.836Z" fill="url(#paint36_linear_2015_693)"/>
<path d="M254.028 281.862C256.841 283.092 258.245 283.707 261.045 284.939C264.321 282.938 266.006 281.937 269.439 279.922C266.653 278.708 265.256 278.103 262.455 276.893C259.017 278.886 257.327 279.877 254.026 281.864L254.028 281.862Z" fill="url(#paint37_linear_2015_693)"/>
<path d="M264.163 286.315C266.958 287.549 268.351 288.168 271.129 289.406C274.369 287.381 276.045 286.363 279.473 284.314C276.709 283.096 275.321 282.487 272.541 281.273C269.109 283.3 267.427 284.306 264.163 286.315Z" fill="url(#paint38_linear_2015_693)"/>
<path d="M274.222 290.788C276.992 292.03 278.375 292.653 281.127 293.901C284.329 291.85 285.995 290.818 289.416 288.732C286.68 287.506 285.305 286.893 282.549 285.673C279.123 287.735 277.451 288.754 274.222 290.788Z" fill="url(#paint39_linear_2015_693)"/>
<path d="M194.633 225.124C188.251 222.375 185.07 220.983 178.745 218.147C175.71 219.848 174.185 220.692 171.085 222.389C177.291 225.26 180.415 226.674 186.692 229.464C189.895 227.73 191.479 226.866 194.633 225.122V225.124Z" fill="url(#paint40_linear_2015_693)"/>
<path d="M204.284 229.235C201.397 228.017 199.955 227.404 197.075 226.172C193.902 227.924 192.311 228.79 189.094 230.53C191.927 231.782 193.346 232.405 196.188 233.643C199.447 231.885 201.063 231.009 204.284 229.235Z" fill="url(#paint41_linear_2015_693)"/>
<path d="M214.739 233.601C211.843 232.403 210.395 231.8 207.504 230.588C204.26 232.371 202.634 233.253 199.358 235.019C202.206 236.251 203.631 236.864 206.487 238.086C209.803 236.299 211.451 235.407 214.741 233.601H214.739Z" fill="url(#paint42_linear_2015_693)"/>
<path d="M225.216 237.9C222.315 236.718 220.865 236.125 217.967 234.934C214.657 236.751 212.998 237.647 209.668 239.443C212.525 240.659 213.955 241.264 216.818 242.468C220.185 240.651 221.864 239.741 225.219 237.9H225.216Z" fill="url(#paint43_linear_2015_693)"/>
<path d="M235.705 242.14C232.803 240.974 231.351 240.388 228.449 239.212C225.076 241.065 223.39 241.98 220.007 243.807C222.87 245.006 224.304 245.605 227.169 246.797C230.585 244.946 232.292 244.019 235.707 242.14H235.705Z" fill="url(#paint44_linear_2015_693)"/>
<path d="M246.188 246.33C243.288 245.176 241.838 244.598 238.936 243.435C235.505 245.326 233.79 246.259 230.358 248.12C233.224 249.307 234.658 249.9 237.523 251.08C240.983 249.194 242.718 248.247 246.188 246.33Z" fill="url(#paint45_linear_2015_693)"/>
<path d="M256.655 250.481C253.763 249.338 252.315 248.763 249.417 247.614C245.931 249.546 244.188 250.499 240.714 252.394C243.577 253.572 245.009 254.159 247.868 255.332C251.371 253.408 253.13 252.441 256.655 250.481Z" fill="url(#paint46_linear_2015_693)"/>
<path d="M267.088 254.6C264.206 253.463 262.764 252.894 259.874 251.753C256.336 253.728 254.568 254.701 251.054 256.635C253.911 257.806 255.339 258.389 258.19 259.556C261.731 257.594 263.514 256.604 267.088 254.6Z" fill="url(#paint47_linear_2015_693)"/>
<path d="M277.473 258.698C274.608 257.567 273.17 256.999 270.294 255.866C266.705 257.885 264.915 258.88 261.362 260.855C264.21 262.02 265.631 262.603 268.468 263.764C272.045 261.759 273.851 260.75 277.473 258.698Z" fill="url(#paint48_linear_2015_693)"/>
<path d="M287.8 262.783C284.953 261.654 283.525 261.087 280.664 259.958C277.028 262.024 275.216 263.042 271.627 265.061C274.46 266.224 275.874 266.804 278.692 267.966C282.304 265.918 284.132 264.885 287.8 262.783Z" fill="url(#paint49_linear_2015_693)"/>
<path d="M298.049 266.865C295.224 265.734 293.808 265.17 290.967 264.041C287.285 266.157 285.453 267.197 281.829 269.26C284.642 270.424 286.045 271.004 288.844 272.167C292.49 270.074 294.336 269.016 298.049 266.865Z" fill="url(#paint50_linear_2015_693)"/>
<path d="M291.958 273.466C297.402 275.738 300.109 276.877 305.48 279.163C309.177 276.988 311.055 275.888 314.839 273.65C309.42 271.435 306.688 270.331 301.191 268.125C297.464 270.292 295.612 271.358 291.958 273.466Z" fill="url(#paint51_linear_2015_693)"/>
<path d="M185.614 232.158C178.51 228.98 174.975 227.37 167.968 224.092C164.83 225.8 163.24 226.657 159.98 228.409C166.892 231.713 170.385 233.34 177.408 236.552C180.734 234.776 182.37 233.902 185.612 232.158H185.614Z" fill="url(#paint52_linear_2015_693)"/>
<path d="M195.069 236.346C192.238 235.104 190.825 234.481 188.006 233.224C184.75 234.972 183.108 235.848 179.775 237.628C182.564 238.897 183.963 239.528 186.764 240.786C190.121 238.994 191.779 238.11 195.069 236.344V236.346Z" fill="url(#paint53_linear_2015_693)"/>
<path d="M205.322 240.801C202.479 239.577 201.059 238.962 198.224 237.724C194.918 239.498 193.254 240.384 189.887 242.182C192.693 243.435 194.101 244.058 196.918 245.298C200.303 243.487 201.981 242.591 205.32 240.799L205.322 240.801Z" fill="url(#paint54_linear_2015_693)"/>
<path d="M215.611 245.201C212.76 243.991 211.336 243.384 208.491 242.164C205.136 243.965 203.452 244.865 200.061 246.681C202.881 247.92 204.295 248.535 207.122 249.763C210.531 247.93 212.228 247.021 215.613 245.199L215.611 245.201Z" fill="url(#paint55_linear_2015_693)"/>
<path d="M225.92 249.552C223.067 248.354 221.639 247.754 218.788 246.548C215.391 248.379 213.688 249.291 210.272 251.132C213.101 252.358 214.519 252.967 217.352 254.185C220.782 252.328 222.494 251.405 225.92 249.552Z" fill="url(#paint56_linear_2015_693)"/>
<path d="M236.235 253.863C233.382 252.676 231.954 252.079 229.101 250.883C225.663 252.747 223.944 253.673 220.511 255.538C223.346 256.754 224.763 257.359 227.598 258.571C231.044 256.687 232.773 255.749 236.237 253.863H236.235Z" fill="url(#paint57_linear_2015_693)"/>
<path d="M246.538 258.146C243.691 256.965 242.265 256.374 239.412 255.186C235.938 257.084 234.205 258.027 230.753 259.918C233.588 261.126 235.004 261.729 237.837 262.932C241.297 261.021 243.038 260.066 246.536 258.146H246.538Z" fill="url(#paint58_linear_2015_693)"/>
<path d="M256.815 262.404C253.976 261.227 252.554 260.638 249.709 259.459C246.2 261.393 244.455 262.352 240.991 264.272C243.822 265.475 245.236 266.076 248.061 267.276C251.531 265.334 253.286 264.363 256.815 262.402V262.404Z" fill="url(#paint59_linear_2015_693)"/>
<path d="M267.051 266.653C264.226 265.477 262.81 264.891 259.975 263.715C256.436 265.686 254.677 266.663 251.205 268.615C254.026 269.815 255.435 270.416 258.248 271.615C261.726 269.641 263.492 268.649 267.053 266.651L267.051 266.653Z" fill="url(#paint60_linear_2015_693)"/>
<path d="M277.231 270.895C274.424 269.722 273.017 269.133 270.196 267.96C266.627 269.971 264.859 270.968 261.377 272.953C264.186 274.152 265.585 274.753 268.382 275.955C271.868 273.946 273.641 272.936 277.231 270.895Z" fill="url(#paint61_linear_2015_693)"/>
<path d="M271.493 277.294C280.122 281.014 284.409 282.878 292.872 286.638C296.366 284.536 298.164 283.474 301.812 281.324C293.321 277.656 289.017 275.839 280.354 272.204C276.759 274.257 274.981 275.275 271.493 277.294Z" fill="url(#paint62_linear_2015_693)"/>
<path d="M370.656 234.877L370.246 234.734C328.452 220.202 286.093 205.056 245.13 190.409C238.192 187.929 231.254 185.447 224.314 182.968L223.909 182.825L224.057 182.42C228.471 170.268 232.971 157.915 237.322 145.971C244.552 126.129 252.028 105.612 259.322 85.41L259.453 85.0459L259.829 85.141C280.243 90.324 300.982 95.6506 321.038 100.801C349.31 108.062 378.545 115.567 407.337 122.8L407.784 122.913L407.636 123.35C396.419 156.829 384.365 193.175 370.788 234.464L370.652 234.877H370.656ZM225.007 182.309C231.812 184.741 238.614 187.172 245.417 189.606C286.245 204.204 328.46 219.298 370.115 233.785C383.578 192.845 395.543 156.764 406.682 123.518C378.031 116.32 348.952 108.853 320.826 101.631C300.891 96.5124 280.285 91.2202 259.995 86.0675C252.741 106.15 245.312 126.544 238.125 146.267C233.822 158.079 229.371 170.29 225.005 182.311L225.007 182.309Z" fill="#D0D2D3"/>
<path d="M403.584 134.147C373.811 126.607 343.586 118.768 314.357 111.185C295.223 106.223 275.436 101.09 255.963 96.0916L256.175 95.2642C275.649 100.265 295.436 105.395 314.572 110.36C343.8 117.94 374.024 125.779 403.794 133.319L403.584 134.149V134.147Z" fill="#D0D2D3"/>
<path d="M399.854 145.257C369.101 137.272 337.885 128.964 307.698 120.928C289.541 116.095 270.765 111.098 252.288 106.223L252.506 105.396C270.985 110.271 289.761 115.268 307.918 120.101C338.105 128.136 369.319 136.445 400.071 144.428L399.856 145.255L399.854 145.257Z" fill="#D0D2D3"/>
<path d="M396.114 156.455C364.371 147.907 332.156 139.008 301.003 130.4C283.875 125.668 266.163 120.774 248.733 115.996L248.96 115.171C266.391 119.949 284.101 124.843 301.231 129.575C332.383 138.181 364.596 147.08 396.336 155.627L396.114 156.452V156.455Z" fill="#D0D2D3"/>
<path d="M392.367 167.707C359.573 158.482 326.296 148.876 294.115 139.587C278.108 134.966 261.554 130.188 245.266 125.514L245.5 124.693C261.791 129.366 278.344 134.145 294.352 138.765C326.531 148.055 359.806 157.66 392.597 166.885L392.367 167.709V167.707Z" fill="#D0D2D3"/>
<path d="M388.623 178.989C354.659 168.977 320.199 158.555 286.876 148.476C272.12 144.013 256.86 139.397 241.846 134.879L242.092 134.06C257.107 138.579 272.366 143.194 287.124 147.657C320.446 157.735 354.904 168.158 388.866 178.168L388.623 178.987V178.989Z" fill="#D0D2D3"/>
<path d="M384.89 190.269C349.622 179.386 313.849 168.057 279.254 157.1C265.879 152.864 252.05 148.486 238.442 144.193L238.699 143.378C252.306 147.671 266.136 152.05 279.511 156.287C314.104 167.241 349.876 178.57 385.141 189.454L384.888 190.271L384.89 190.269Z" fill="#D0D2D3"/>
<path d="M381.178 201.518C344.423 189.687 307.148 177.375 271.101 165.467C259.277 161.561 247.051 157.523 235.021 153.56L235.288 152.749C247.318 156.712 259.544 160.75 271.368 164.656C307.413 176.562 344.686 188.874 381.439 200.704L381.178 201.518Z" fill="#D0D2D3"/>
<path d="M377.491 212.707C339.106 199.905 300.19 186.579 262.551 173.695C252.218 170.157 241.882 166.618 231.547 163.086L231.824 162.277C242.161 165.809 252.495 169.347 262.83 172.886C300.465 185.77 339.381 199.094 377.762 211.896L377.491 212.707Z" fill="#D0D2D3"/>
<path d="M373.839 223.807C333.721 210.067 293.053 195.76 253.726 181.924C245.146 178.906 236.566 175.888 227.983 172.871L228.266 172.064C236.849 175.081 245.429 178.099 254.009 181.117C293.336 194.953 334.002 209.258 374.116 222.998L373.839 223.807Z" fill="#D0D2D3"/>
<path d="M235.098 186.134L234.295 185.843C239.263 172.115 244.327 158.164 249.225 144.67C255.963 126.109 262.931 106.915 269.746 88.0237L270.548 88.313C263.732 107.204 256.765 126.398 250.027 144.96C245.13 158.453 240.064 172.404 235.098 186.132V186.134Z" fill="#D0D2D3"/>
<path d="M246.309 190.136L245.504 189.847C251.605 172.882 257.825 155.639 263.839 138.964C269.519 123.218 275.394 106.935 281.155 90.9167L281.96 91.206C276.198 107.226 270.324 123.508 264.644 139.255C258.628 155.929 252.408 173.173 246.309 190.136Z" fill="#D0D2D3"/>
<path d="M257.657 194.198L256.853 193.911C265.821 168.761 274.971 143.202 283.82 118.484C286.761 110.275 289.699 102.063 292.637 93.854L293.442 94.1413C290.504 102.353 287.563 110.562 284.625 118.772C275.776 143.489 266.626 169.048 257.657 194.198Z" fill="#D0D2D3"/>
<path d="M269.107 198.305L268.302 198.02C279.23 167.072 290.962 133.971 304.169 96.824L304.974 97.1112C291.767 134.256 280.034 167.359 269.107 198.305Z" fill="#D0D2D3"/>
<path d="M280.629 202.438L279.822 202.157C292.526 165.797 305.106 130.02 315.736 99.8181L316.543 100.101C305.912 130.303 293.332 166.078 280.629 202.438Z" fill="#D0D2D3"/>
<path d="M292.19 206.581L291.383 206.302C302.028 175.485 313.449 142.605 327.323 102.822L328.13 103.103C314.256 142.886 302.836 175.766 292.192 206.581H292.19Z" fill="#D0D2D3"/>
<path d="M303.757 210.718L302.948 210.441C316.264 171.536 328.027 137.315 338.907 105.826L339.713 106.106C328.834 137.594 317.071 171.813 303.755 210.718H303.757Z" fill="#D0D2D3"/>
<path d="M315.297 214.833L314.488 214.558C328.104 174.354 339.539 140.756 350.475 108.818L351.284 109.096C340.348 141.031 328.912 174.629 315.297 214.831V214.833Z" fill="#D0D2D3"/>
<path d="M326.78 218.907L325.969 218.636C339.6 177.996 351.052 144.045 362.01 111.792L362.819 112.067C351.861 144.318 340.409 178.269 326.78 218.907Z" fill="#D0D2D3"/>
<path d="M338.17 222.925L337.359 222.656C350.807 182.234 362.626 146.93 373.494 114.732L374.302 115.005C363.435 147.203 351.616 182.505 338.17 222.925Z" fill="#D0D2D3"/>
<path d="M349.438 226.868L348.627 226.599C362.083 185.894 373.949 150.248 384.909 117.623L385.72 117.896C374.762 150.521 362.893 186.165 349.44 226.868H349.438Z" fill="#D0D2D3"/>
<path d="M360.549 230.722L359.738 230.455C373.23 189.476 385.169 153.497 396.237 120.463L397.047 120.734C385.98 153.768 374.041 189.743 360.549 230.722Z" fill="#D0D2D3"/>
<path d="M255.86 85.3472C255.799 85.3472 255.739 85.3391 255.68 85.325C252.643 84.5724 251.13 84.2002 248.113 83.4597C247.711 83.3606 247.464 82.954 247.563 82.5514C247.662 82.1488 248.066 81.902 248.471 82.0011C251.488 82.7416 253.003 83.1138 256.04 83.8664C256.442 83.9655 256.687 84.3721 256.588 84.7747C256.503 85.1166 256.198 85.3452 255.86 85.3452V85.3472Z" fill="#A6A8AB"/>
<path d="M252.205 95.4583C252.145 95.4583 252.084 95.4502 252.023 95.436C248.99 94.6754 247.479 94.2991 244.468 93.5526C244.066 93.4534 243.821 93.0468 243.92 92.6442C244.02 92.2417 244.428 91.9969 244.828 92.096C247.839 92.8425 249.352 93.2188 252.387 93.9794C252.79 94.0806 253.034 94.4872 252.933 94.8898C252.848 95.2297 252.543 95.4583 252.205 95.4583Z" fill="#A6A8AB"/>
<path d="M248.701 105.132C248.639 105.132 248.576 105.124 248.513 105.108C245.488 104.329 243.98 103.943 240.979 103.178C240.576 103.075 240.334 102.668 240.437 102.266C240.54 101.863 240.948 101.622 241.349 101.724C244.352 102.488 245.86 102.875 248.887 103.653C249.288 103.757 249.531 104.165 249.427 104.568C249.34 104.906 249.035 105.132 248.701 105.132Z" fill="#A6A8AB"/>
<path d="M245.31 114.463C245.245 114.463 245.181 114.454 245.116 114.436C242.099 113.631 240.596 113.231 237.608 112.44C237.207 112.334 236.968 111.924 237.074 111.521C237.179 111.121 237.589 110.882 237.992 110.987C240.983 111.778 242.485 112.179 245.504 112.986C245.905 113.093 246.143 113.504 246.036 113.904C245.947 114.24 245.644 114.461 245.312 114.461L245.31 114.463Z" fill="#A6A8AB"/>
<path d="M242.004 123.544C241.937 123.544 241.869 123.536 241.802 123.516C238.797 122.676 237.3 122.259 234.324 121.436C233.925 121.325 233.691 120.912 233.802 120.511C233.913 120.113 234.324 119.878 234.726 119.987C237.705 120.813 239.201 121.23 242.208 122.069C242.607 122.18 242.841 122.595 242.73 122.994C242.637 123.325 242.336 123.542 242.008 123.542L242.004 123.544Z" fill="#A6A8AB"/>
<path d="M238.75 132.465C238.679 132.465 238.609 132.455 238.54 132.435C235.547 131.557 234.059 131.122 231.094 130.262C230.696 130.147 230.467 129.73 230.583 129.332C230.698 128.933 231.114 128.705 231.513 128.82C234.477 129.682 235.968 130.117 238.96 130.995C239.359 131.112 239.585 131.529 239.47 131.925C239.375 132.253 239.076 132.465 238.75 132.465Z" fill="#A6A8AB"/>
<path d="M235.517 141.326C235.444 141.326 235.369 141.316 235.296 141.294C232.316 140.378 230.834 139.924 227.885 139.024C227.489 138.903 227.266 138.484 227.386 138.088C227.507 137.691 227.926 137.469 228.322 137.588C231.27 138.488 232.755 138.941 235.735 139.858C236.132 139.979 236.354 140.4 236.233 140.796C236.134 141.12 235.836 141.326 235.515 141.326H235.517Z" fill="#A6A8AB"/>
<path d="M232.271 150.216C232.194 150.216 232.117 150.203 232.04 150.179C229.072 149.226 227.596 148.753 224.661 147.816C224.267 147.691 224.049 147.268 224.174 146.874C224.299 146.479 224.722 146.261 225.116 146.386C228.053 147.323 229.529 147.796 232.497 148.751C232.892 148.878 233.108 149.301 232.983 149.696C232.882 150.013 232.586 150.218 232.269 150.218L232.271 150.216Z" fill="#A6A8AB"/>
<path d="M228.985 159.23C228.906 159.23 228.825 159.218 228.746 159.192C225.79 158.204 224.318 157.713 221.398 156.744C221.005 156.612 220.791 156.189 220.923 155.795C221.054 155.402 221.479 155.188 221.871 155.319C224.793 156.291 226.265 156.78 229.224 157.767C229.616 157.899 229.828 158.324 229.697 158.716C229.592 159.03 229.298 159.23 228.985 159.23Z" fill="#A6A8AB"/>
<path d="M225.622 168.459C225.542 168.459 225.459 168.445 225.378 168.419C222.429 167.403 220.963 166.899 218.051 165.9C217.659 165.766 217.451 165.34 217.584 164.947C217.718 164.555 218.144 164.346 218.537 164.48C221.449 165.479 222.915 165.983 225.865 166.998C226.257 167.134 226.466 167.561 226.33 167.953C226.223 168.265 225.932 168.459 225.62 168.459H225.622Z" fill="#A6A8AB"/>
<path d="M222.156 178C222.073 178 221.99 177.986 221.907 177.957C218.965 176.922 217.503 176.408 214.599 175.39C214.209 175.253 214.003 174.826 214.14 174.433C214.278 174.041 214.704 173.836 215.097 173.974C218.001 174.992 219.465 175.505 222.407 176.541C222.797 176.679 223.003 177.108 222.866 177.498C222.757 177.806 222.468 178 222.158 178H222.156Z" fill="#A6A8AB"/>
<path d="M228.52 193.573C228.172 193.573 227.86 193.33 227.786 192.976C227.701 192.57 227.962 192.173 228.366 192.088C231.618 191.408 233.221 191.087 236.39 190.462C236.796 190.381 237.191 190.646 237.272 191.052C237.352 191.459 237.088 191.853 236.681 191.934C233.518 192.557 231.919 192.879 228.675 193.557C228.623 193.567 228.572 193.573 228.522 193.573H228.52Z" fill="#A6A8AB"/>
<path d="M239.695 197.575C239.345 197.575 239.032 197.328 238.961 196.972C238.88 196.565 239.143 196.171 239.549 196.088C242.821 195.43 244.445 195.113 247.658 194.498C248.065 194.421 248.459 194.686 248.536 195.094C248.615 195.501 248.348 195.896 247.939 195.972C244.73 196.587 243.11 196.903 239.845 197.56C239.794 197.571 239.746 197.575 239.695 197.575Z" fill="#A6A8AB"/>
<path d="M251.017 201.641C250.665 201.641 250.351 201.392 250.28 201.034C250.202 200.627 250.467 200.233 250.873 200.154C254.175 199.508 255.809 199.197 259.045 198.588C259.451 198.513 259.843 198.78 259.92 199.187C259.997 199.593 259.728 199.986 259.322 200.063C256.09 200.672 254.458 200.981 251.16 201.627C251.112 201.637 251.063 201.641 251.015 201.641H251.017Z" fill="#A6A8AB"/>
<path d="M262.458 205.76C262.106 205.76 261.791 205.509 261.722 205.151C261.643 204.744 261.91 204.35 262.318 204.273C265.538 203.656 267.192 203.344 270.532 202.721C270.941 202.644 271.331 202.915 271.408 203.322C271.485 203.729 271.216 204.121 270.807 204.198C267.471 204.819 265.817 205.13 262.601 205.747C262.553 205.756 262.506 205.762 262.46 205.762L262.458 205.76Z" fill="#A6A8AB"/>
<path d="M273.981 209.911C273.627 209.911 273.313 209.66 273.245 209.3C273.168 208.893 273.435 208.501 273.841 208.422C277.222 207.781 278.864 207.473 282.075 206.874C282.484 206.798 282.874 207.067 282.951 207.475C283.028 207.882 282.759 208.274 282.35 208.351C279.143 208.948 277.499 209.256 274.122 209.897C274.076 209.905 274.027 209.911 273.981 209.911Z" fill="#A6A8AB"/>
<path d="M285.556 214.076C285.202 214.076 284.889 213.825 284.82 213.465C284.743 213.059 285.01 212.664 285.418 212.587C288.581 211.988 290.225 211.679 293.256 211.108L293.653 211.034C294.059 210.957 294.451 211.226 294.528 211.632C294.605 212.039 294.336 212.432 293.93 212.508L293.533 212.583C290.504 213.154 288.86 213.461 285.697 214.062C285.651 214.07 285.602 214.076 285.558 214.076H285.556Z" fill="#A6A8AB"/>
<path d="M297.147 218.24C296.793 218.24 296.479 217.989 296.411 217.631C296.334 217.224 296.601 216.83 297.007 216.753L305.221 215.185C305.63 215.108 306.022 215.375 306.099 215.782C306.176 216.188 305.909 216.583 305.502 216.66L297.288 218.228C297.24 218.236 297.193 218.242 297.147 218.242V218.24Z" fill="#A6A8AB"/>
<path d="M308.72 222.385C308.368 222.385 308.054 222.136 307.984 221.778C307.905 221.371 308.17 220.977 308.576 220.898C311.854 220.261 313.49 219.943 316.752 219.304C317.16 219.225 317.553 219.49 317.631 219.897C317.71 220.303 317.445 220.698 317.039 220.777C313.775 221.418 312.139 221.736 308.861 222.371C308.813 222.381 308.764 222.385 308.718 222.385H308.72Z" fill="#A6A8AB"/>
<path d="M320.242 226.494C319.892 226.494 319.578 226.247 319.508 225.889C319.427 225.482 319.692 225.088 320.096 225.007C323.297 224.37 324.927 224.044 328.213 223.378C328.62 223.295 329.016 223.558 329.097 223.965C329.18 224.372 328.917 224.768 328.51 224.849C325.222 225.517 323.59 225.842 320.387 226.48C320.337 226.49 320.288 226.494 320.24 226.494H320.242Z" fill="#A6A8AB"/>
<path d="M331.681 230.548C331.333 230.548 331.02 230.303 330.947 229.949C330.864 229.542 331.125 229.146 331.531 229.063C334.698 228.412 336.304 228.08 339.574 227.39C339.978 227.305 340.376 227.564 340.463 227.969C340.548 228.373 340.289 228.772 339.885 228.859C336.613 229.548 335.006 229.882 331.835 230.534C331.784 230.544 331.734 230.55 331.683 230.55L331.681 230.548Z" fill="#A6A8AB"/>
<path d="M343.002 234.533C342.656 234.533 342.345 234.292 342.27 233.938C342.183 233.534 342.442 233.133 342.846 233.048C346.158 232.34 347.717 232.002 350.795 231.323C351.2 231.234 351.6 231.489 351.689 231.893C351.778 232.298 351.523 232.698 351.119 232.787C348.037 233.467 346.476 233.807 343.16 234.515C343.107 234.527 343.054 234.531 343.002 234.531V234.533Z" fill="#A6A8AB"/>
<path d="M354.172 238.429C353.829 238.429 353.519 238.193 353.44 237.843C353.349 237.438 353.604 237.038 354.009 236.947C357.244 236.222 358.783 235.872 361.847 235.158C362.249 235.063 362.653 235.316 362.746 235.719C362.839 236.123 362.589 236.526 362.186 236.619C359.117 237.333 357.578 237.685 354.336 238.411C354.282 238.423 354.227 238.429 354.172 238.429Z" fill="#A6A8AB"/>
<path opacity="0.34" d="M239.088 143.167C242.664 141.965 244.461 141.359 248.073 140.129C250.038 142.55 251.025 143.77 253.001 146.23C257.81 143.222 260.226 141.702 265.083 138.601C266.691 140.218 267.498 141.031 269.112 142.663C274.444 139.904 277.123 138.498 282.506 135.613C284.074 137.972 284.86 139.156 286.431 141.535C299.276 135.022 305.768 131.583 318.807 124.311C319.102 131.173 319.266 134.579 319.597 141.417C321.961 141.759 323.144 141.929 325.508 142.267C325.296 149.77 325.199 153.519 324.998 161.063C327.176 160.385 328.266 160.043 330.444 159.351C331.269 163.195 331.682 165.125 332.503 169.003C344.432 164.11 350.395 161.524 362.283 156.092C365.567 163.027 367.195 166.525 370.4 173.583C373.828 171.724 375.541 170.781 378.962 168.874C382.368 169.938 387.965 169.865 391.336 170.909L370.39 234.333L224.462 182.57L239.088 143.169V143.167Z" fill="#35F9C5"/>
<path d="M301.086 164.68L300.503 163.377C299.276 160.632 298.609 159.151 297.557 156.829C292.528 158.299 289.798 159.072 284.749 160.482L283.553 160.816L283.272 159.606C282.676 157.033 282.342 155.601 281.806 153.317C280.575 153.385 279.699 153.432 278.239 153.511L277.386 153.555L277.072 152.76C276.326 150.873 275.877 149.738 275.252 148.17C267.631 152.963 262.804 155.922 256.248 159.94C254.367 161.093 252.347 162.331 250.086 163.719L249.613 164.008L249.088 163.832C246.912 163.104 245.781 162.726 243.702 162.032C241.703 162.327 240.617 162.489 238.538 162.799L238.093 162.865L237.717 162.621C235.672 161.293 234.653 160.632 232.625 159.323L233.911 157.326C235.814 158.554 236.829 159.212 238.633 160.383C240.461 160.112 241.537 159.952 243.446 159.669L243.915 159.6L244.184 159.689C246.259 160.381 247.381 160.757 249.314 161.405C251.387 160.132 253.255 158.987 255.004 157.913C261.892 153.691 266.869 150.64 275.192 145.399L276.399 144.638L276.927 145.963C277.756 148.043 278.219 149.21 278.963 151.089C280.263 151.021 281.149 150.97 282.666 150.885L283.661 150.828L283.887 151.799C284.465 154.263 284.797 155.684 285.301 157.856C289.905 156.568 292.643 155.787 297.875 154.255L298.863 153.966L299.288 154.905C300.406 157.373 301.059 158.819 302.081 161.099C319.977 148.739 329 142.148 346.88 128.405L348.34 127.284L349.933 134.084C350.318 135.724 350.688 137.302 351.163 139.336C353.086 139.241 354.291 139.178 356.423 139.062L357.359 139.012L357.624 139.912C358.17 141.763 358.487 142.841 358.956 144.446C362.101 143.956 363.961 143.655 367.45 143.08L368.418 142.92L368.756 143.843C370.43 148.411 371.336 150.901 372.903 155.279C381.716 152.016 386.341 150.213 395.06 146.726L395.507 146.548L398.989 147.974L398.09 150.173L395.495 149.111C386.68 152.635 382.027 154.444 372.6 157.925L371.476 158.34L371.071 157.211C369.365 152.437 368.459 149.936 366.865 145.585C363.634 146.117 361.769 146.414 358.291 146.954L357.262 147.114L356.969 146.115C356.415 144.221 356.097 143.139 355.61 141.486C353.715 141.587 352.498 141.65 350.287 141.757L349.298 141.806L349.072 140.841C348.484 138.326 348.059 136.515 347.616 134.626L346.862 131.409C329.522 144.717 320.47 151.294 302.251 163.865L301.076 164.676L301.086 164.68Z" fill="#ED4848"/>
<path d="M369.844 175.234L369.318 174.073C366.212 167.231 364.594 163.754 361.711 157.658C350.482 162.781 344.623 165.311 332.953 170.1L331.637 170.64L331.342 169.246C330.598 165.724 330.189 163.818 329.558 160.875C328.127 161.328 327.093 161.652 325.352 162.194L323.769 162.685L323.872 158.771C324.026 152.975 324.121 149.354 324.292 143.289C322.57 143.042 321.417 142.876 319.427 142.589L318.459 142.449L318.41 141.472C318.117 135.449 317.951 132 317.702 126.281C305.941 132.828 299.569 136.202 286.967 142.591L286.023 143.068L285.44 142.186C284.082 140.129 283.311 138.968 282.114 137.165C277.243 139.773 274.583 141.162 269.655 143.714L268.881 144.114L268.266 143.493C266.895 142.105 266.108 141.31 264.915 140.111C260.533 142.906 258.121 144.422 253.63 147.232L252.736 147.792L252.075 146.969C250.321 144.786 249.365 143.598 247.672 141.514C244.609 142.558 242.813 143.163 239.466 144.288L238.71 142.036C242.328 140.821 244.133 140.212 247.688 139L248.471 138.733L248.993 139.374C250.782 141.577 251.747 142.771 253.264 144.658C257.445 142.04 259.86 140.521 264.442 137.594L265.247 137.08L265.92 137.758C267.314 139.158 268.104 139.955 269.338 141.201C274.07 138.751 276.737 137.351 281.942 134.561L282.894 134.052L283.493 134.95C284.856 136.999 285.626 138.162 286.838 139.991C299.363 133.635 305.709 130.25 318.228 123.267L319.908 122.328L319.991 124.252C320.274 130.831 320.44 134.329 320.735 140.376C322.501 140.63 323.658 140.796 325.676 141.086L326.725 141.235L326.695 142.295C326.505 149.01 326.408 152.708 326.244 158.832L326.228 159.43C327.504 159.032 328.501 158.716 330.082 158.213L331.328 157.816L331.603 159.095C332.304 162.364 332.707 164.241 333.366 167.357C344.492 162.781 350.328 160.242 361.788 155.006L362.853 154.521L363.355 155.579C366.39 161.99 368.008 165.451 370.952 171.927C373.656 170.458 375.322 169.539 378.384 167.832L378.829 167.583L379.316 167.735C380.917 168.235 383.16 168.479 385.328 168.716C387.576 168.961 389.902 169.216 391.688 169.768L390.986 172.036C389.419 171.55 387.208 171.31 385.071 171.075C382.992 170.848 380.851 170.614 379.108 170.144C375.923 171.919 374.24 172.843 370.964 174.619L369.844 175.226V175.234Z" fill="#459FE8"/>
<path d="M142.285 283.954C134.241 293.747 110.409 317.04 62.9184 321.92C62.1641 322.003 61.4038 321.835 60.7183 321.432C60.2612 321.165 59.8467 320.771 59.5414 320.346L25.4414 272.016C25.5081 271.9 25.6477 271.767 25.8883 271.724C67.8201 266.641 89.8376 245.725 97.3742 236.957C97.9526 236.281 98.8201 236.267 99.3924 236.601C99.5299 236.682 99.6532 236.785 99.7422 236.896L142.303 282.4C142.469 282.588 142.598 282.786 142.679 283.019C142.647 283.339 142.505 283.685 142.287 283.956L142.285 283.954Z" fill="url(#paint63_linear_2015_693)"/>
<path d="M121.163 291.164C112.324 281.328 106.876 276.175 97.1619 265.609C96.9253 265.352 96.9394 264.951 97.1922 264.717C97.2408 264.672 97.265 264.648 97.3136 264.603C97.5643 264.369 97.9606 264.385 98.1972 264.642C107.94 275.21 113.424 280.379 122.308 290.264C122.524 290.504 122.471 290.876 122.194 291.095C122.14 291.137 122.114 291.158 122.059 291.2C121.78 291.419 121.377 291.402 121.163 291.164Z" fill="#D0D0DD"/>
<path d="M123.877 289.011C114.939 279.054 109.403 273.859 99.6213 263.284C99.3827 263.027 99.3908 262.623 99.6375 262.384C99.684 262.338 99.7082 262.315 99.7547 262.269C99.9994 262.03 100.392 262.046 100.63 262.303C110.438 272.886 116.009 278.099 124.987 288.111C125.204 288.354 125.161 288.73 124.892 288.948C124.84 288.991 124.816 289.011 124.763 289.054C124.494 289.272 124.096 289.252 123.877 289.011Z" fill="#D0D0DD"/>
<path d="M129.917 283.907C117.528 269.977 108.951 262.675 96.689 248.225C96.4403 247.932 96.4544 247.474 96.7153 247.209C96.9782 246.944 97.3927 246.969 97.6414 247.262C109.888 261.7 118.516 269.026 130.947 283.033C131.199 283.316 131.173 283.743 130.89 283.984C130.607 284.223 130.17 284.188 129.917 283.907Z" fill="#D0D0DD"/>
<path d="M118.492 293.211C109.754 283.474 104.395 278.352 94.7515 267.779C94.517 267.523 94.5392 267.126 94.798 266.897C94.8466 266.853 94.8729 266.831 94.9214 266.786C95.1782 266.558 95.5806 266.578 95.8152 266.835C105.491 277.403 110.889 282.535 119.673 292.315C119.885 292.551 119.824 292.924 119.539 293.14C119.485 293.183 119.456 293.203 119.402 293.245C119.115 293.462 118.706 293.448 118.494 293.211H118.492Z" fill="#D0D0DD"/>
<path d="M115.693 295.185C103.861 281.953 95.9649 274.818 83.5912 259.88C83.3425 259.58 83.3849 259.139 83.6802 258.896C83.9754 258.654 84.4183 258.696 84.667 258.996C97.0467 273.883 105.012 281.024 116.909 294.299C117.147 294.566 117.068 294.983 116.735 295.226C116.399 295.469 115.932 295.451 115.693 295.185Z" fill="#D0D0DD"/>
<path d="M112.86 297.184C101.18 284.022 93.4414 276.891 81.0879 261.81C80.8392 261.508 80.8877 261.077 81.1931 260.849C81.4964 260.622 81.9453 260.679 82.194 260.98C94.5576 275.993 102.365 283.124 114.112 296.312C114.349 296.577 114.26 296.99 113.914 297.229C113.568 297.47 113.095 297.449 112.86 297.184Z" fill="#D0D0DD"/>
<path d="M107.19 300.888C95.8115 287.733 88.382 280.545 76.073 265.061C75.8263 264.749 75.891 264.349 76.2125 264.16C76.5341 263.974 76.9992 264.069 77.2459 264.377C89.565 279.752 97.0672 286.92 108.515 300.059C108.745 300.322 108.634 300.725 108.27 300.953C107.904 301.182 107.419 301.152 107.19 300.886V300.888Z" fill="#D0D0DD"/>
<path d="M104.102 302.729C92.8827 289.497 85.615 282.238 73.3303 266.467C73.0836 266.151 73.1584 265.765 73.4921 265.605C73.8237 265.445 74.2969 265.564 74.5436 265.878C86.8384 281.516 94.1769 288.74 105.467 301.932C105.693 302.197 105.572 302.594 105.196 302.814C104.82 303.035 104.326 302.997 104.102 302.731V302.729Z" fill="#D0D0DD"/>
<path d="M100.921 304.487C89.8396 291.063 82.756 283.739 70.5016 267.636C70.2549 267.312 70.3378 266.944 70.6836 266.813C71.0273 266.683 71.5086 266.833 71.7553 267.152C84.0239 283.116 91.2006 290.429 102.331 303.731C102.553 303.998 102.42 304.388 102.033 304.599C101.647 304.809 101.146 304.756 100.923 304.487H100.921Z" fill="#D0D0DD"/>
<path d="M97.5582 306.057C86.5737 292.246 79.7812 285.026 67.6098 268.698C67.3651 268.37 67.452 268 67.8019 267.873C68.1517 267.747 68.635 267.911 68.8817 268.237C81.0977 284.476 88.0216 291.746 99.0566 305.396C99.277 305.669 99.1254 306.049 98.7128 306.231C98.3003 306.415 97.7786 306.332 97.5582 306.055V306.057Z" fill="#D0D0DD"/>
<path d="M91.9425 308.109C81.2108 293.83 74.9258 286.839 62.9889 270.296C62.7503 269.964 62.8454 269.596 63.2013 269.475C63.5552 269.356 64.0425 269.53 64.2831 269.859C76.2949 286.357 82.7254 293.419 93.5359 307.583C93.7523 307.866 93.5723 308.222 93.1335 308.368C92.6947 308.513 92.1588 308.394 91.9425 308.107V308.109Z" fill="#D0D0DD"/>
<path d="M88.2624 309.181C77.7228 294.676 71.7776 287.866 60.0187 271.263C59.7821 270.929 59.8832 270.563 60.2411 270.448C60.599 270.333 61.0864 270.511 61.323 270.844C73.1608 287.427 79.2556 294.32 89.8801 308.732C90.0925 309.021 89.9024 309.363 89.4575 309.488C89.0126 309.614 88.4747 309.472 88.2624 309.183V309.181Z" fill="#D0D0DD"/>
<path d="M84.5659 310.099C74.2185 295.414 68.611 288.809 57.03 272.188C56.7974 271.854 56.9026 271.492 57.2625 271.383C57.6225 271.273 58.1078 271.455 58.3403 271.789C69.9982 288.408 75.7533 295.105 86.1817 309.717C86.3899 310.01 86.1958 310.34 85.7509 310.447C85.304 310.554 84.7722 310.397 84.5639 310.101L84.5659 310.099Z" fill="#D0D0DD"/>
<path d="M80.9121 310.882C70.7345 296.051 65.4546 289.669 54.0313 273.066C53.8028 272.732 53.91 272.376 54.2699 272.271C54.6299 272.167 55.1152 272.354 55.3457 272.687C66.8337 289.303 72.2551 295.784 82.5035 310.554C82.7098 310.85 82.5157 311.171 82.0768 311.262C81.638 311.353 81.1163 311.182 80.9121 310.884V310.882Z" fill="#D0D0DD"/>
<path d="M76.0884 311.779C66.0685 296.788 61.1991 290.731 49.9133 274.189C49.6868 273.857 49.7981 273.507 50.16 273.41C50.522 273.313 51.0033 273.507 51.2318 273.839C62.5479 290.403 67.5427 296.567 77.601 311.511C77.8032 311.811 77.6232 312.12 77.2066 312.193C76.7901 312.266 76.2906 312.078 76.0884 311.779Z" fill="#D0D0DD"/>
<path d="M72.7785 312.329C62.791 297.237 58.1784 291.425 46.9149 274.945C46.6884 274.615 46.7976 274.269 47.1596 274.18C47.5215 274.091 48.0028 274.288 48.2273 274.619C59.4908 291.127 64.2105 297.047 74.2021 312.096C74.4023 312.397 74.2405 312.699 73.8482 312.764C73.4559 312.828 72.9787 312.63 72.7785 312.329Z" fill="#D0D0DD"/>
<path d="M69.7147 312.818C59.6665 297.629 55.2663 292.062 43.9259 275.647C43.6994 275.317 43.8046 274.979 44.1645 274.897C44.5245 274.814 45.0057 275.016 45.2322 275.346C56.5261 291.789 61.0113 297.463 71.021 312.61C71.2212 312.913 71.0857 313.211 70.7258 313.269C70.3658 313.326 69.9149 313.124 69.7127 312.818H69.7147Z" fill="#D0D0DD"/>
<path d="M66.9567 313.265C56.7305 297.971 52.484 292.647 40.9556 276.289C40.725 275.961 40.8261 275.629 41.1841 275.554C41.542 275.479 42.0233 275.686 42.2538 276.013C53.6831 292.394 57.9904 297.826 68.1215 313.071C68.3237 313.377 68.2206 313.672 67.901 313.727C67.5815 313.779 67.1589 313.571 66.9547 313.265H66.9567Z" fill="#D0D0DD"/>
<path d="M93.8474 255.399C92.7271 254.114 92.1771 253.471 91.0952 252.18C91.528 251.755 91.7443 251.541 92.173 251.116C94.8018 254.252 96.1911 255.815 99.0221 258.927C98.5914 259.354 98.375 259.568 97.9403 259.995C96.7735 258.71 96.1951 258.067 95.0566 256.778C92.9536 258.85 91.8778 259.888 89.6514 261.854C89.1681 261.3 88.9274 261.023 88.4502 260.468C90.6726 258.508 91.7484 257.47 93.8494 255.401L93.8474 255.399Z" fill="#D0D0DD"/>
<path d="M378.689 109.31C370.645 119.104 346.813 142.397 299.323 147.276C298.568 147.359 297.808 147.191 297.123 146.789C296.666 146.522 296.251 146.127 295.946 145.702L261.846 97.3722C261.912 97.2569 262.052 97.1234 262.293 97.0809C304.224 91.9971 326.242 71.081 333.779 62.3132C334.357 61.6375 335.224 61.6234 335.797 61.9572C335.934 62.0381 336.058 62.1413 336.147 62.2525L378.707 107.756C378.873 107.945 379.002 108.143 379.083 108.375C379.051 108.695 378.909 109.041 378.691 109.312L378.689 109.31Z" fill="url(#paint64_linear_2015_693)"/>
<path d="M357.565 116.52C348.726 106.684 343.279 101.532 333.564 90.9653C333.328 90.7084 333.342 90.3078 333.595 90.0732C333.643 90.0287 333.667 90.0044 333.716 89.9599C333.967 89.7252 334.363 89.7414 334.6 89.9983C344.342 100.567 349.827 105.735 358.71 115.62C358.926 115.861 358.874 116.233 358.597 116.451C358.542 116.494 358.516 116.514 358.461 116.557C358.182 116.775 357.78 116.759 357.565 116.52Z" fill="#D0D0DD"/>
<path d="M360.28 114.366C351.342 104.408 345.805 99.2152 336.024 88.6388C335.785 88.3819 335.793 87.9773 336.04 87.7386C336.086 87.692 336.111 87.6698 336.157 87.6233C336.402 87.3845 336.794 87.4007 337.033 87.6576C346.84 98.2401 352.411 103.453 361.39 113.465C361.606 113.708 361.564 114.084 361.295 114.303C361.242 114.345 361.218 114.366 361.165 114.408C360.896 114.627 360.498 114.606 360.28 114.366Z" fill="#D0D0DD"/>
<path d="M366.322 109.264C353.932 95.333 345.356 88.0319 333.093 73.5815C332.845 73.2881 332.859 72.8309 333.12 72.5659C333.382 72.3009 333.797 72.3252 334.046 72.6185C346.292 87.0568 354.921 94.3822 367.351 108.39C367.604 108.673 367.577 109.1 367.294 109.34C367.011 109.579 366.574 109.545 366.322 109.264Z" fill="#D0D0DD"/>
<path d="M354.896 118.568C346.158 108.831 340.8 103.708 331.156 93.1361C330.921 92.8792 330.944 92.4827 331.202 92.2541C331.251 92.2096 331.277 92.1873 331.326 92.1428C331.583 91.9142 331.985 91.9345 332.22 92.1914C341.894 102.76 347.293 107.892 356.077 117.671C356.289 117.908 356.229 118.28 355.944 118.497C355.889 118.539 355.861 118.56 355.806 118.602C355.519 118.818 355.111 118.804 354.898 118.568H354.896Z" fill="#D0D0DD"/>
<path d="M352.096 120.54C340.264 107.307 332.367 100.172 319.994 85.2342C319.745 84.9347 319.787 84.4937 320.082 84.251C320.378 84.0082 320.821 84.0507 321.069 84.3501C333.449 99.2375 341.414 106.379 353.311 119.654C353.55 119.921 353.471 120.338 353.137 120.58C352.801 120.823 352.334 120.805 352.096 120.54Z" fill="#D0D0DD"/>
<path d="M349.263 122.541C337.583 109.379 329.844 102.248 317.49 87.1661C317.242 86.8647 317.29 86.4338 317.595 86.2052C317.899 85.9786 318.348 86.0352 318.596 86.3367C330.96 101.35 338.768 108.481 350.514 121.669C350.751 121.934 350.662 122.347 350.316 122.585C349.97 122.826 349.497 122.806 349.263 122.541Z" fill="#D0D0DD"/>
<path d="M343.593 126.245C332.214 113.089 324.784 105.901 312.475 90.4172C312.229 90.1056 312.293 89.7051 312.615 89.5169C312.936 89.3308 313.402 89.4259 313.648 89.7334C325.967 105.108 333.47 112.276 344.917 125.416C345.148 125.678 345.036 126.081 344.672 126.31C344.306 126.538 343.821 126.508 343.593 126.243V126.245Z" fill="#D0D0DD"/>
<path d="M340.506 128.086C329.287 114.853 322.019 107.595 309.735 91.8232C309.488 91.5076 309.563 91.1212 309.896 90.9614C310.228 90.8016 310.701 90.9209 310.948 91.2345C323.243 106.872 330.581 114.097 341.871 127.289C342.097 127.554 341.976 127.95 341.6 128.171C341.224 128.391 340.731 128.353 340.506 128.088V128.086Z" fill="#D0D0DD"/>
<path d="M337.324 129.844C326.242 116.419 319.158 109.096 306.904 92.9924C306.657 92.6687 306.74 92.3006 307.086 92.1691C307.43 92.0396 307.911 92.1893 308.158 92.5089C320.426 108.473 327.603 115.786 338.733 129.087C338.955 129.354 338.822 129.745 338.436 129.955C338.049 130.166 337.548 130.113 337.326 129.844H337.324Z" fill="#D0D0DD"/>
<path d="M333.961 131.412C322.976 117.6 316.184 110.38 304.012 94.0524C303.767 93.7247 303.854 93.3545 304.204 93.227C304.554 93.1016 305.037 93.2654 305.284 93.5911C317.5 109.83 324.424 117.101 335.459 130.75C335.679 131.023 335.528 131.404 335.115 131.586C334.703 131.77 334.181 131.687 333.961 131.41V131.412Z" fill="#D0D0DD"/>
<path d="M328.345 133.465C317.613 119.187 311.328 112.195 299.391 95.6527C299.153 95.3209 299.248 94.9528 299.604 94.8314C299.957 94.712 300.445 94.886 300.685 95.2158C312.697 111.714 319.128 118.776 329.938 132.939C330.155 133.222 329.975 133.578 329.536 133.724C329.097 133.87 328.561 133.75 328.345 133.463V133.465Z" fill="#D0D0DD"/>
<path d="M324.667 134.537C314.127 120.032 308.182 113.223 296.423 96.6197C296.186 96.2859 296.287 95.9197 296.645 95.8044C297.003 95.6891 297.491 95.8671 297.727 96.2009C309.565 112.784 315.66 119.676 326.284 134.088C326.497 134.377 326.307 134.719 325.862 134.845C325.417 134.97 324.879 134.829 324.667 134.539V134.537Z" fill="#D0D0DD"/>
<path d="M320.968 135.454C310.621 120.769 305.013 114.163 293.432 97.5422C293.2 97.2084 293.305 96.8463 293.665 96.737C294.025 96.6278 294.51 96.8099 294.743 97.1437C306.401 113.763 312.156 120.459 322.584 135.071C322.792 135.365 322.598 135.694 322.153 135.802C321.706 135.909 321.175 135.751 320.966 135.456L320.968 135.454Z" fill="#D0D0DD"/>
<path d="M317.316 136.239C307.139 121.408 301.859 115.025 290.436 98.4202C290.207 98.0864 290.314 97.7303 290.674 97.6251C291.034 97.522 291.519 97.7081 291.75 98.0419C303.238 114.657 308.659 121.139 318.908 135.909C319.114 136.204 318.92 136.526 318.481 136.617C318.042 136.708 317.521 136.536 317.316 136.239Z" fill="#D0D0DD"/>
<path d="M312.493 137.133C302.473 122.142 297.603 116.085 286.318 99.5429C286.091 99.2111 286.202 98.8612 286.564 98.7641C286.926 98.6669 287.408 98.8612 287.636 99.1929C298.952 115.757 303.947 121.922 314.005 136.866C314.207 137.165 314.027 137.475 313.611 137.547C313.194 137.62 312.695 137.432 312.493 137.133Z" fill="#D0D0DD"/>
<path d="M309.183 137.685C299.195 122.593 294.583 116.781 283.319 100.302C283.093 99.9718 283.202 99.6258 283.564 99.5368C283.926 99.4478 284.407 99.644 284.632 99.9758C295.895 116.484 300.615 122.403 310.606 137.452C310.807 137.754 310.645 138.055 310.253 138.12C309.86 138.185 309.383 137.986 309.183 137.685Z" fill="#D0D0DD"/>
<path d="M306.117 138.173C296.069 122.984 291.669 117.416 280.328 101.002C280.102 100.672 280.207 100.334 280.567 100.251C280.927 100.168 281.408 100.37 281.635 100.7C292.928 117.143 297.414 122.818 307.423 137.964C307.624 138.268 307.488 138.565 307.128 138.624C306.768 138.68 306.317 138.478 306.115 138.173H306.117Z" fill="#D0D0DD"/>
<path d="M303.361 138.622C293.135 123.328 288.888 118.003 277.36 101.645C277.129 101.317 277.23 100.985 277.588 100.911C277.946 100.836 278.428 101.042 278.658 101.37C290.087 117.75 294.395 123.182 304.526 138.428C304.728 138.733 304.625 139.028 304.305 139.083C303.986 139.136 303.563 138.927 303.359 138.622H303.361Z" fill="#D0D0DD"/>
<path d="M330.25 80.7552C329.129 79.4705 328.579 78.8272 327.498 77.5365C327.93 77.1117 328.147 76.8972 328.575 76.4724C331.204 79.6081 332.593 81.1719 335.424 84.2833C334.994 84.7102 334.777 84.9246 334.343 85.3515C333.176 84.0668 332.597 83.4235 331.459 82.1349C329.356 84.2064 328.28 85.2442 326.054 87.2106C325.57 86.6563 325.33 86.3792 324.853 85.8249C327.075 83.8645 328.151 82.8267 330.252 80.7572L330.25 80.7552Z" fill="#D0D0DD"/>
<path d="M259.322 264.509C259.543 277.185 256.485 310.383 223.487 344.889C222.968 345.44 222.278 345.806 221.495 345.945C220.974 346.038 220.401 346.006 219.896 345.881L162.624 331.165C162.6 331.034 162.62 330.843 162.775 330.653C191.409 299.594 194.623 269.384 194.681 257.816C194.683 256.926 195.335 256.352 195.988 256.236C196.143 256.208 196.305 256.206 196.445 256.236L258.327 263.311C258.576 263.347 258.803 263.414 259.015 263.537C259.197 263.8 259.314 264.157 259.322 264.506V264.509Z" fill="url(#paint65_linear_2015_693)"/>
<path d="M247.911 283.697C234.81 281.933 227.324 281.54 213.083 279.786C212.738 279.744 212.489 279.43 212.527 279.086C212.535 279.02 212.539 278.987 212.546 278.921C212.584 278.579 212.897 278.334 213.243 278.376C227.508 280.112 235.032 280.494 248.199 282.267C248.518 282.309 248.72 282.629 248.652 282.975C248.637 283.041 248.631 283.076 248.617 283.143C248.546 283.489 248.229 283.737 247.911 283.695V283.697Z" fill="#D0D0DD"/>
<path d="M248.583 280.296C235.328 278.504 227.747 278.136 213.45 276.42C213.102 276.38 212.847 276.066 212.88 275.724C212.886 275.659 212.89 275.627 212.896 275.56C212.928 275.22 213.238 274.978 213.583 275.018C227.907 276.723 235.526 277.082 248.846 278.89C249.17 278.935 249.38 279.248 249.315 279.588C249.303 279.653 249.297 279.687 249.285 279.752C249.22 280.092 248.905 280.337 248.583 280.294V280.296Z" fill="#D0D0DD"/>
<path d="M249.877 272.491C231.419 269.91 220.159 269.908 201.462 266.847C201.082 266.784 200.797 266.428 200.825 266.056C200.853 265.684 201.185 265.433 201.565 265.496C220.242 268.557 231.558 268.542 250.095 271.158C250.472 271.211 250.728 271.553 250.668 271.919C250.607 272.285 250.251 272.542 249.877 272.489V272.491Z" fill="#D0D0DD"/>
<path d="M247.205 286.988C234.245 285.234 226.846 284.808 212.656 283.005C212.313 282.961 212.072 282.645 212.12 282.303C212.129 282.236 212.135 282.204 212.143 282.139C212.191 281.797 212.509 281.553 212.855 281.597C227.066 283.375 234.502 283.788 247.525 285.542C247.84 285.584 248.034 285.906 247.957 286.258C247.941 286.325 247.935 286.359 247.919 286.428C247.84 286.78 247.521 287.033 247.205 286.99V286.988Z" fill="#D0D0DD"/>
<path d="M246.351 290.306C228.772 287.895 218.135 287.579 199.038 284.221C198.656 284.154 198.401 283.79 198.468 283.414C198.534 283.037 198.9 282.782 199.283 282.849C218.352 286.165 229.045 286.442 246.701 288.845C247.054 288.894 247.265 289.262 247.168 289.665C247.071 290.067 246.701 290.357 246.349 290.308L246.351 290.306Z" fill="#D0D0DD"/>
<path d="M245.489 293.666C228.07 291.21 217.556 290.794 198.382 287.314C197.998 287.245 197.755 286.885 197.84 286.515C197.925 286.145 198.303 285.898 198.687 285.967C217.825 289.39 228.391 289.76 245.877 292.191C246.229 292.24 246.427 292.612 246.32 293.019C246.213 293.425 245.839 293.717 245.489 293.668V293.666Z" fill="#D0D0DD"/>
<path d="M243.572 300.164C226.387 297.518 216.072 296.859 196.671 293.043C196.283 292.966 196.071 292.618 196.196 292.266C196.322 291.914 196.734 291.688 197.122 291.761C216.462 295.487 226.816 296.084 244.045 298.673C244.391 298.726 244.567 299.104 244.437 299.513C244.306 299.924 243.918 300.215 243.574 300.162L243.572 300.164Z" fill="#D0D0DD"/>
<path d="M242.413 303.569C225.299 300.761 215.063 299.942 195.492 295.89C195.1 295.809 194.906 295.467 195.057 295.129C195.207 294.791 195.644 294.577 196.034 294.656C215.526 298.598 225.792 299.347 242.934 302.076C243.278 302.131 243.444 302.513 243.298 302.924C243.155 303.334 242.754 303.626 242.413 303.569Z" fill="#D0D0DD"/>
<path d="M241.131 306.972C223.997 303.927 213.86 302.942 194.098 298.617C193.701 298.53 193.525 298.194 193.703 297.872C193.881 297.55 194.344 297.352 194.739 297.437C214.42 301.645 224.622 302.564 241.714 305.483C242.055 305.541 242.209 305.926 242.049 306.336C241.892 306.747 241.475 307.032 241.131 306.972Z" fill="#D0D0DD"/>
<path d="M239.586 310.346C222.277 306.945 212.427 305.849 192.583 301.299C192.185 301.208 192.011 300.868 192.197 300.547C192.381 300.225 192.856 300.035 193.254 300.124C213.074 304.576 223.057 305.626 240.3 308.873C240.646 308.938 240.775 309.326 240.579 309.733C240.383 310.14 239.934 310.417 239.586 310.348V310.346Z" fill="#D0D0DD"/>
<path d="M236.64 315.551C219.219 311.629 209.905 310.376 190.099 305.515C189.703 305.418 189.535 305.074 189.729 304.752C189.921 304.431 190.405 304.247 190.803 304.344C210.635 309.126 220.106 310.338 237.513 314.119C237.863 314.194 237.956 314.582 237.716 314.977C237.475 315.373 236.99 315.628 236.64 315.551Z" fill="#D0D0DD"/>
<path d="M234.532 318.754C217.111 314.536 208.173 313.203 188.465 308.175C188.071 308.074 187.909 307.73 188.107 307.411C188.305 307.091 188.791 306.911 189.187 307.01C208.942 311.969 218.047 313.267 235.473 317.362C235.822 317.445 235.899 317.829 235.64 318.212C235.382 318.596 234.882 318.837 234.532 318.754Z" fill="#D0D0DD"/>
<path d="M232.312 321.849C214.921 317.368 206.372 315.972 186.789 310.815C186.397 310.712 186.241 310.368 186.443 310.051C186.645 309.733 187.135 309.559 187.527 309.66C207.168 314.764 215.888 316.136 233.295 320.506C233.645 320.593 233.709 320.971 233.438 321.341C233.168 321.712 232.66 321.938 232.31 321.847L232.312 321.849Z" fill="#D0D0DD"/>
<path d="M230.04 324.815C212.684 320.113 204.528 318.675 185.075 313.429C184.684 313.324 184.535 312.982 184.741 312.669C184.947 312.355 185.439 312.183 185.829 312.288C205.339 317.5 213.666 318.924 231.037 323.532C231.385 323.625 231.445 323.993 231.17 324.348C230.895 324.702 230.386 324.908 230.038 324.815H230.04Z" fill="#D0D0DD"/>
<path d="M226.945 328.624C209.605 323.7 201.973 322.242 182.666 316.953C182.279 316.848 182.136 316.508 182.348 316.201C182.563 315.893 183.054 315.727 183.442 315.833C202.788 321.117 210.586 322.573 227.924 327.439C228.272 327.536 228.335 327.888 228.066 328.214C227.797 328.539 227.293 328.721 226.945 328.622V328.624Z" fill="#D0D0DD"/>
<path d="M224.784 331.189C207.404 326.166 200.126 324.728 180.875 319.476C180.488 319.371 180.349 319.037 180.567 318.736C180.784 318.432 181.279 318.272 181.665 318.378C200.935 323.652 208.362 325.104 225.718 330.091C226.066 330.192 226.139 330.526 225.882 330.829C225.625 331.133 225.134 331.293 224.784 331.191V331.189Z" fill="#D0D0DD"/>
<path d="M222.767 333.548C205.278 328.491 198.319 327.101 179.054 321.946C178.668 321.843 178.53 321.515 178.751 321.22C178.971 320.923 179.469 320.765 179.855 320.87C199.104 326.075 206.198 327.491 223.629 332.541C223.979 332.642 224.068 332.958 223.831 333.235C223.595 333.512 223.119 333.649 222.767 333.548Z" fill="#D0D0DD"/>
<path d="M220.958 335.678C203.264 330.655 196.583 329.35 177.208 324.364C176.82 324.264 176.682 323.945 176.907 323.656C177.131 323.366 177.633 323.21 178.019 323.314C197.333 328.383 204.129 329.731 221.72 334.776C222.072 334.877 222.185 335.171 221.977 335.417C221.769 335.666 221.312 335.78 220.958 335.678Z" fill="#D0D0DD"/>
<path d="M203.945 274.156C202.261 273.903 201.424 273.77 199.766 273.489C199.82 272.884 199.847 272.582 199.897 271.979C203.931 272.663 206 272.955 210.172 273.489C210.121 274.094 210.095 274.397 210.04 275.004C208.319 274.781 207.464 274.666 205.761 274.423C205.503 277.365 205.355 278.854 204.932 281.795C204.206 281.686 203.842 281.631 203.118 281.518C203.541 278.583 203.687 277.096 203.945 274.158V274.156Z" fill="#D0D0DD"/>
<path d="M96.704 135.259C96.9244 147.936 93.8669 181.134 60.869 215.64C60.3493 216.191 59.6598 216.557 58.8772 216.696C58.3555 216.789 57.7832 216.757 57.2776 216.632L0.00761144 201.918C-0.0166547 201.787 0.0035671 201.596 0.159275 201.406C28.7933 170.347 32.0065 140.137 32.0652 128.569C32.0672 127.679 32.7183 127.105 33.3715 126.989C33.5272 126.961 33.689 126.959 33.8285 126.989L95.7111 134.064C95.9598 134.1 96.1863 134.167 96.3987 134.29C96.5807 134.553 96.6979 134.909 96.706 135.259H96.704Z" fill="url(#paint66_linear_2015_693)"/>
<path d="M85.2932 154.448C72.1915 152.684 64.7054 152.291 50.4653 150.537C50.1195 150.495 49.8708 150.181 49.9092 149.837C49.9173 149.771 49.9213 149.738 49.9274 149.672C49.9658 149.33 50.2792 149.085 50.625 149.127C64.8895 150.863 72.414 151.245 85.5804 153.018C85.8999 153.06 86.1021 153.38 86.0333 153.726C86.0192 153.792 86.0131 153.827 85.999 153.894C85.9282 154.24 85.6107 154.488 85.2932 154.446V154.448Z" fill="#D0D0DD"/>
<path d="M85.9651 151.047C72.7097 149.255 65.1286 148.887 50.8318 147.171C50.484 147.131 50.2292 146.817 50.2616 146.475C50.2676 146.41 50.2717 146.378 50.2777 146.311C50.3101 145.971 50.6195 145.729 50.9653 145.769C65.2883 147.474 72.9079 147.833 86.228 149.641C86.5515 149.686 86.7618 149.999 86.6971 150.339C86.685 150.404 86.6789 150.438 86.6668 150.503C86.6021 150.843 86.2866 151.088 85.9651 151.045V151.047Z" fill="#D0D0DD"/>
<path d="M87.2589 143.242C68.8005 140.661 57.541 140.659 38.844 137.598C38.4638 137.535 38.1787 137.179 38.207 136.807C38.2353 136.435 38.567 136.186 38.9471 136.247C57.6239 139.307 68.94 139.293 87.4773 141.909C87.8535 141.962 88.1103 142.304 88.0496 142.67C87.9889 143.036 87.633 143.293 87.2589 143.24V143.242Z" fill="#D0D0DD"/>
<path d="M84.5871 157.739C71.6269 155.985 64.2278 155.559 50.0382 153.756C49.6944 153.712 49.4538 153.396 49.5023 153.054C49.5104 152.987 49.5165 152.955 49.5246 152.89C49.5731 152.548 49.8906 152.303 50.2364 152.348C64.4482 154.126 71.8838 154.539 84.9066 156.293C85.222 156.335 85.4162 156.657 85.3393 157.009C85.3231 157.076 85.3171 157.11 85.3009 157.179C85.222 157.531 84.9025 157.784 84.5871 157.741V157.739Z" fill="#D0D0DD"/>
<path d="M83.7326 161.057C66.1538 158.646 55.5172 158.33 36.4197 154.972C36.0375 154.905 35.7828 154.541 35.8495 154.165C35.9162 153.788 36.2822 153.533 36.6644 153.6C55.7335 156.916 66.4268 157.193 84.0824 159.596C84.4363 159.645 84.6466 160.013 84.5495 160.416C84.4525 160.818 84.0824 161.108 83.7306 161.059L83.7326 161.057Z" fill="#D0D0DD"/>
<path d="M82.8705 164.417C65.4515 161.961 54.9382 161.545 35.764 158.065C35.3798 157.996 35.1371 157.636 35.222 157.266C35.307 156.896 35.6851 156.649 36.0693 156.718C55.2072 160.141 65.7731 160.511 83.2588 162.942C83.6107 162.991 83.8088 163.363 83.7017 163.77C83.5945 164.176 83.2204 164.468 82.8705 164.419V164.417Z" fill="#D0D0DD"/>
<path d="M80.9536 170.915C63.7692 168.269 53.454 167.61 34.0513 163.794C33.663 163.717 33.4507 163.369 33.5761 163.017C33.7014 162.665 34.114 162.439 34.5022 162.512C53.8423 166.238 64.1958 166.835 81.4248 169.424C81.7706 169.477 81.9465 169.855 81.8171 170.264C81.6856 170.675 81.2974 170.966 80.9536 170.913V170.915Z" fill="#D0D0DD"/>
<path d="M79.7946 174.32C62.6809 171.512 52.4446 170.693 32.874 166.641C32.4817 166.56 32.2876 166.218 32.4393 165.88C32.5889 165.542 33.0257 165.328 33.416 165.406C52.9077 169.349 63.1743 170.098 80.3163 172.827C80.6601 172.882 80.8259 173.264 80.6803 173.675C80.5367 174.085 80.1363 174.377 79.7946 174.32Z" fill="#D0D0DD"/>
<path d="M78.5131 177.723C61.3792 174.678 51.2421 173.693 31.4794 169.368C31.083 169.281 30.9071 168.945 31.085 168.623C31.263 168.301 31.7261 168.103 32.1204 168.188C51.8022 172.396 62.0041 173.315 79.0955 176.234C79.4373 176.292 79.591 176.677 79.4312 177.087C79.2735 177.498 78.8569 177.783 78.5131 177.723Z" fill="#D0D0DD"/>
<path d="M76.9682 181.097C59.6584 177.696 49.8084 176.6 29.9648 172.05C29.5664 171.959 29.3925 171.619 29.5786 171.298C29.7626 170.976 30.2378 170.786 30.6361 170.875C50.4555 175.327 60.439 176.377 77.6821 179.624C78.0279 179.689 78.1573 180.077 77.9611 180.484C77.765 180.891 77.316 181.168 76.9682 181.099V181.097Z" fill="#D0D0DD"/>
<path d="M74.0216 186.302C56.6005 182.38 47.2864 181.127 27.4812 176.266C27.0849 176.169 26.917 175.825 27.1111 175.503C27.3033 175.182 27.7866 174.998 28.1849 175.095C48.0164 179.877 57.4883 181.089 74.8952 184.87C75.245 184.945 75.338 185.333 75.0974 185.728C74.8567 186.124 74.3714 186.379 74.0216 186.302Z" fill="#D0D0DD"/>
<path d="M71.917 189.505C54.496 185.287 45.558 183.954 25.8499 178.926C25.4555 178.825 25.2938 178.481 25.4919 178.162C25.6901 177.842 26.1754 177.662 26.5718 177.761C46.3264 182.72 55.4323 184.018 72.8574 188.113C73.2072 188.196 73.284 188.58 73.0252 188.963C72.7664 189.347 72.2669 189.588 71.917 189.505Z" fill="#D0D0DD"/>
<path d="M69.694 192.6C52.3033 188.119 43.7535 186.723 24.1708 181.566C23.7785 181.463 23.6227 181.119 23.825 180.802C24.0272 180.484 24.5166 180.31 24.9089 180.411C44.5502 185.515 53.2699 186.887 70.6768 191.257C71.0266 191.344 71.0913 191.722 70.8203 192.092C70.5494 192.463 70.0418 192.689 69.692 192.598L69.694 192.6Z" fill="#D0D0DD"/>
<path d="M67.4217 195.566C50.0654 190.864 41.9099 189.426 22.4566 184.18C22.0663 184.075 21.9167 183.733 22.1229 183.42C22.3292 183.106 22.8206 182.934 23.2109 183.039C42.7208 188.251 51.0481 189.675 68.4186 194.283C68.7665 194.376 68.8271 194.744 68.5521 195.098C68.2771 195.453 67.7675 195.659 67.4197 195.566H67.4217Z" fill="#D0D0DD"/>
<path d="M64.3271 199.375C46.987 194.451 39.3553 192.993 20.0476 187.704C19.6613 187.599 19.5178 187.259 19.7301 186.952C19.9444 186.644 20.4358 186.478 20.8241 186.584C40.1702 191.868 47.9677 193.324 65.3059 198.19C65.6537 198.287 65.7164 198.639 65.4474 198.965C65.1785 199.29 64.675 199.472 64.3271 199.373V199.375Z" fill="#D0D0DD"/>
<path d="M62.1659 201.942C44.7853 196.919 37.5075 195.481 18.2564 190.229C17.8702 190.124 17.7307 189.79 17.9491 189.487C18.1654 189.183 18.6609 189.023 19.0471 189.129C38.3164 194.403 45.7439 195.855 63.1002 200.842C63.448 200.943 63.5208 201.277 63.264 201.58C63.0072 201.884 62.5158 202.044 62.1659 201.942Z" fill="#D0D0DD"/>
<path d="M60.1493 204.301C42.6595 199.244 35.7012 197.854 16.4359 192.699C16.0497 192.596 15.9122 192.268 16.1326 191.973C16.353 191.676 16.8505 191.518 17.2367 191.623C36.4878 196.828 43.5796 198.244 61.0107 203.294C61.3606 203.395 61.4495 203.711 61.2129 203.988C60.9763 204.265 60.5011 204.402 60.1493 204.301Z" fill="#D0D0DD"/>
<path d="M58.3397 206.429C40.6457 201.406 33.9644 200.101 14.5899 195.115C14.2017 195.015 14.0642 194.696 14.2886 194.406C14.5131 194.117 15.0146 193.961 15.4008 194.065C34.7146 199.134 41.5112 200.482 59.1021 205.527C59.4539 205.628 59.5672 205.922 59.3589 206.168C59.1506 206.417 58.6936 206.53 58.3397 206.429Z" fill="#D0D0DD"/>
<path d="M41.3273 144.907C39.6428 144.654 38.8056 144.521 37.1475 144.24C37.2021 143.635 37.2283 143.333 37.2789 142.73C41.3131 143.414 43.3818 143.706 47.5536 144.24C47.503 144.845 47.4767 145.148 47.4221 145.755C45.7013 145.532 44.8459 145.417 43.1432 145.174C42.8844 148.116 42.7368 149.605 42.3141 152.546C41.5882 152.437 41.2242 152.382 40.5002 152.269C40.9229 149.334 41.0685 147.847 41.3273 144.909V144.907Z" fill="#D0D0DD"/>
<path d="M444.988 176.928C445.209 189.604 442.151 222.802 409.153 257.309C408.634 257.859 407.944 258.225 407.161 258.365C406.64 258.458 406.067 258.426 405.562 258.3L348.29 243.585C348.266 243.453 348.286 243.263 348.442 243.073C377.076 212.013 380.289 181.803 380.347 170.236C380.349 169.346 381.001 168.771 381.654 168.656C381.809 168.627 381.971 168.625 382.111 168.656L443.993 175.73C444.242 175.767 444.469 175.833 444.681 175.957C444.863 176.22 444.98 176.576 444.988 176.926V176.928Z" fill="url(#paint67_linear_2015_693)"/>
<path d="M433.577 196.116C420.476 194.352 412.99 193.958 398.749 192.206C398.404 192.163 398.155 191.85 398.193 191.506C398.201 191.439 398.205 191.407 398.212 191.34C398.25 190.998 398.563 190.753 398.909 190.796C413.174 192.532 420.698 192.914 433.865 194.686C434.184 194.729 434.386 195.048 434.318 195.394C434.303 195.461 434.297 195.495 434.283 195.562C434.212 195.908 433.895 196.157 433.577 196.114V196.116Z" fill="#D0D0DD"/>
<path d="M434.249 192.716C420.994 190.923 413.413 190.555 399.116 188.839C398.768 188.799 398.513 188.485 398.546 188.144C398.552 188.079 398.556 188.046 398.562 187.98C398.594 187.64 398.904 187.397 399.251 187.438C413.575 189.143 421.194 189.501 434.514 191.31C434.838 191.354 435.048 191.668 434.983 192.008C434.971 192.072 434.965 192.107 434.953 192.171C434.888 192.511 434.573 192.756 434.251 192.714L434.249 192.716Z" fill="#D0D0DD"/>
<path d="M435.543 184.911C417.085 182.329 405.825 182.327 387.128 179.267C386.748 179.204 386.463 178.848 386.491 178.475C386.52 178.103 386.851 177.852 387.231 177.915C405.908 180.976 417.224 180.962 435.761 183.578C436.138 183.63 436.394 183.972 436.334 184.338C436.273 184.704 435.917 184.961 435.543 184.909V184.911Z" fill="#D0D0DD"/>
<path d="M432.872 199.408C419.912 197.654 412.513 197.227 398.323 195.424C397.98 195.38 397.739 195.064 397.787 194.723C397.796 194.656 397.802 194.623 397.81 194.559C397.858 194.217 398.176 193.972 398.522 194.016C412.733 195.795 420.169 196.207 433.192 197.961C433.507 198.004 433.701 198.326 433.624 198.678C433.608 198.744 433.602 198.779 433.586 198.847C433.507 199.199 433.188 199.452 432.872 199.41V199.408Z" fill="#D0D0DD"/>
<path d="M432.019 202.726C414.44 200.314 403.803 199.999 384.706 196.64C384.324 196.574 384.069 196.209 384.136 195.833C384.202 195.457 384.568 195.202 384.951 195.269C404.02 198.584 414.713 198.862 432.369 201.265C432.722 201.313 432.933 201.682 432.836 202.084C432.739 202.487 432.369 202.776 432.017 202.728L432.019 202.726Z" fill="#D0D0DD"/>
<path d="M431.157 206.086C413.738 203.63 403.224 203.213 384.05 199.733C383.666 199.665 383.423 199.304 383.508 198.934C383.593 198.564 383.971 198.317 384.355 198.386C403.493 201.809 414.059 202.179 431.545 204.611C431.897 204.659 432.095 205.032 431.988 205.438C431.881 205.845 431.506 206.136 431.157 206.088V206.086Z" fill="#D0D0DD"/>
<path d="M429.238 212.584C412.053 209.938 401.738 209.278 382.337 205.463C381.949 205.386 381.737 205.038 381.862 204.686C381.988 204.334 382.4 204.107 382.788 204.18C402.128 207.907 412.482 208.503 429.711 211.093C430.057 211.145 430.233 211.524 430.103 211.932C429.972 212.343 429.584 212.634 429.24 212.582L429.238 212.584Z" fill="#D0D0DD"/>
<path d="M428.082 215.988C410.968 213.18 400.732 212.361 381.161 208.309C380.769 208.228 380.575 207.886 380.726 207.548C380.876 207.21 381.313 206.996 381.703 207.075C401.195 211.018 411.461 211.766 428.603 214.495C428.947 214.55 429.113 214.932 428.967 215.343C428.824 215.754 428.423 216.045 428.082 215.988Z" fill="#D0D0DD"/>
<path d="M426.797 219.391C409.663 216.346 399.526 215.361 379.764 211.036C379.367 210.949 379.191 210.613 379.369 210.292C379.547 209.97 380.01 209.772 380.405 209.857C400.086 214.064 410.288 214.983 427.38 217.902C427.721 217.961 427.875 218.345 427.715 218.756C427.558 219.167 427.141 219.452 426.797 219.391Z" fill="#D0D0DD"/>
<path d="M425.252 222.766C407.943 219.365 398.093 218.268 378.249 213.719C377.851 213.628 377.677 213.288 377.863 212.966C378.047 212.644 378.522 212.454 378.92 212.543C398.74 216.996 408.723 218.046 425.966 221.293C426.312 221.357 426.441 221.746 426.245 222.153C426.049 222.559 425.6 222.836 425.252 222.768V222.766Z" fill="#D0D0DD"/>
<path d="M422.308 227.971C404.887 224.048 395.573 222.796 375.767 217.935C375.371 217.837 375.203 217.494 375.397 217.172C375.589 216.85 376.073 216.666 376.471 216.763C396.303 221.546 405.774 222.757 423.181 226.539C423.531 226.613 423.624 227.002 423.383 227.396C423.143 227.793 422.658 228.048 422.308 227.971Z" fill="#D0D0DD"/>
<path d="M420.201 231.173C402.78 226.955 393.842 225.622 374.134 220.595C373.74 220.494 373.578 220.15 373.776 219.83C373.974 219.51 374.46 219.33 374.856 219.43C394.611 224.388 403.716 225.687 421.142 229.781C421.491 229.864 421.568 230.249 421.309 230.631C421.051 231.015 420.551 231.256 420.201 231.173Z" fill="#D0D0DD"/>
<path d="M417.98 234.269C400.589 229.788 392.04 228.392 372.457 223.235C372.065 223.132 371.909 222.788 372.111 222.47C372.313 222.153 372.803 221.979 373.195 222.08C392.836 227.184 401.556 228.555 418.963 232.925C419.313 233.012 419.377 233.391 419.106 233.761C418.835 234.131 418.328 234.358 417.978 234.266L417.98 234.269Z" fill="#D0D0DD"/>
<path d="M415.706 237.234C398.35 232.533 390.194 231.094 370.741 225.849C370.351 225.743 370.201 225.402 370.407 225.088C370.613 224.774 371.105 224.603 371.495 224.708C391.005 229.919 399.332 231.343 416.703 235.952C417.051 236.045 417.111 236.413 416.836 236.767C416.561 237.121 416.052 237.327 415.704 237.234H415.706Z" fill="#D0D0DD"/>
<path d="M412.613 241.044C395.273 236.12 387.641 234.661 368.334 229.373C367.947 229.268 367.804 228.928 368.016 228.62C368.231 228.313 368.722 228.147 369.11 228.252C388.456 233.536 396.254 234.993 413.592 239.858C413.94 239.955 414.003 240.307 413.734 240.633C413.465 240.959 412.961 241.141 412.613 241.042V241.044Z" fill="#D0D0DD"/>
<path d="M410.45 243.611C393.07 238.588 385.792 237.149 366.541 231.897C366.154 231.792 366.015 231.458 366.233 231.157C366.45 230.854 366.945 230.694 367.331 230.799C386.601 236.073 394.028 237.526 411.384 242.512C411.732 242.613 411.805 242.947 411.548 243.251C411.291 243.554 410.8 243.714 410.45 243.613V243.611Z" fill="#D0D0DD"/>
<path d="M408.433 245.97C390.944 240.912 383.985 239.522 364.72 234.368C364.334 234.264 364.196 233.937 364.417 233.641C364.637 233.344 365.135 233.186 365.521 233.291C384.772 238.497 391.864 239.913 409.295 244.962C409.645 245.063 409.734 245.379 409.497 245.656C409.261 245.933 408.785 246.071 408.433 245.97Z" fill="#D0D0DD"/>
<path d="M406.624 248.098C388.93 243.075 382.249 241.77 362.874 236.783C362.486 236.684 362.348 236.364 362.573 236.075C362.797 235.786 363.299 235.63 363.685 235.733C382.999 240.803 389.795 242.15 407.386 247.196C407.738 247.297 407.851 247.59 407.643 247.837C407.435 248.086 406.978 248.199 406.624 248.098Z" fill="#D0D0DD"/>
<path d="M389.611 186.576C387.927 186.323 387.09 186.189 385.432 185.908C385.486 185.303 385.513 185.002 385.563 184.399C389.597 185.083 391.666 185.374 395.838 185.908C395.787 186.513 395.761 186.816 395.706 187.423C393.985 187.201 393.13 187.086 391.427 186.843C391.169 189.784 391.021 191.273 390.598 194.215C389.872 194.105 389.508 194.051 388.784 193.937C389.207 191.002 389.353 189.515 389.611 186.578V186.576Z" fill="#D0D0DD"/>
<path d="M194.772 0.746443C200.432 12.0875 211.972 43.3554 197.063 88.7278C196.83 89.45 196.367 90.0751 195.722 90.5404C195.291 90.85 194.761 91.0664 194.25 91.1736L136.234 102.62C136.157 102.513 136.092 102.331 136.149 102.094C148.605 61.7143 138.492 33.0764 133.562 22.6153C133.182 21.8122 133.522 21.0131 134.06 20.6267C134.189 20.5336 134.333 20.4628 134.472 20.4285L193.358 0.0970516C193.599 0.0221997 193.831 -0.0142147 194.076 0.00601551C194.353 0.165834 194.614 0.43692 194.772 0.746443Z" fill="url(#paint68_linear_2015_693)"/>
<path d="M192.739 22.9815C180.157 27.0457 173.233 29.9225 159.628 34.4864C159.298 34.5977 158.938 34.4217 158.825 34.096C158.803 34.0333 158.793 34.0009 158.77 33.9382C158.657 33.6125 158.835 33.2564 159.167 33.1451C172.784 28.5529 179.74 25.6498 192.383 21.5674C192.69 21.4682 193.01 21.6685 193.095 22.0104C193.111 22.0772 193.119 22.1095 193.135 22.1763C193.22 22.5202 193.04 22.8803 192.737 22.9794L192.739 22.9815Z" fill="#D0D0DD"/>
<path d="M191.882 19.6253C179.15 23.73 172.151 26.6694 158.51 31.2941C158.178 31.4074 157.812 31.2354 157.695 30.9138C157.673 30.8531 157.66 30.8207 157.638 30.76C157.521 30.4404 157.695 30.0863 158.026 29.973C171.684 25.3302 178.715 22.3644 191.514 18.2456C191.823 18.1464 192.151 18.3386 192.24 18.6724C192.256 18.7372 192.266 18.7695 192.282 18.8343C192.371 19.1701 192.191 19.5261 191.882 19.6253Z" fill="#D0D0DD"/>
<path d="M189.688 12.0269C171.921 17.665 161.759 22.5243 143.57 27.8328C143.2 27.94 142.789 27.7417 142.654 27.3958C142.518 27.0478 142.71 26.6796 143.08 26.5704C161.252 21.2701 171.456 16.3744 189.309 10.7301C189.671 10.6148 190.05 10.8131 190.153 11.1691C190.256 11.5252 190.046 11.9116 189.686 12.0248L189.688 12.0269Z" fill="#D0D0DD"/>
<path d="M193.519 26.2548C181.069 30.2684 174.209 33.0744 160.629 37.5736C160.299 37.6828 159.945 37.5007 159.842 37.173C159.822 37.1103 159.812 37.0779 159.791 37.0152C159.686 36.6855 159.87 36.3274 160.2 36.2182C173.789 31.6886 180.676 28.8503 193.184 24.8123C193.487 24.7152 193.8 24.9216 193.883 25.2716C193.899 25.3383 193.907 25.3727 193.922 25.4395C194.002 25.7895 193.823 26.1576 193.519 26.2548Z" fill="#D0D0DD"/>
<path d="M194.179 29.6191C177.277 35.0328 167.544 39.3378 148.866 44.5511C148.492 44.6563 148.105 44.4378 148.004 44.0696C147.903 43.7014 148.121 43.313 148.496 43.2078C167.132 37.9682 176.899 33.6025 193.865 28.1484C194.205 28.0392 194.555 28.2799 194.64 28.6845C194.725 29.0891 194.518 29.5099 194.179 29.6191Z" fill="#D0D0DD"/>
<path d="M194.85 33.022C178.074 38.3243 168.41 42.4877 149.608 47.6241C149.231 47.7273 148.857 47.5068 148.774 47.1366C148.692 46.7664 148.926 46.38 149.302 46.2768C168.046 41.1039 177.738 36.8778 194.565 31.5249C194.902 31.4177 195.242 31.6665 195.321 32.0792C195.4 32.4919 195.187 32.9168 194.85 33.024V33.022Z" fill="#D0D0DD"/>
<path d="M195.918 39.712C179.272 44.7433 169.681 48.5991 150.531 53.5313C150.146 53.6304 149.805 53.4079 149.766 53.0356C149.728 52.6654 150.003 52.281 150.385 52.1799C169.44 47.1931 179.041 43.2644 195.702 38.1644C196.036 38.0612 196.359 38.3262 196.418 38.7531C196.477 39.1799 196.252 39.6108 195.918 39.712Z" fill="#D0D0DD"/>
<path d="M196.34 43.2826C179.69 48.1378 170.101 51.8157 150.696 56.6062C150.307 56.7013 149.986 56.4788 149.976 56.1086C149.966 55.7404 150.267 55.358 150.653 55.2609C169.941 50.4057 179.526 46.6469 196.168 41.7127C196.502 41.6136 196.815 41.8867 196.862 42.3196C196.911 42.7525 196.674 43.1875 196.34 43.2846V43.2826Z" fill="#D0D0DD"/>
<path d="M196.648 46.9059C179.876 51.5548 170.305 55.0405 150.609 59.6692C150.215 59.7622 149.911 59.5357 149.932 59.1675C149.954 58.7993 150.286 58.421 150.678 58.3279C170.25 53.6284 179.852 50.0537 196.531 45.3097C196.864 45.2147 197.168 45.4959 197.202 45.9349C197.236 46.3739 196.984 46.8108 196.648 46.9039V46.9059Z" fill="#D0D0DD"/>
<path d="M196.709 50.6161C179.625 55.0202 170.265 58.2813 150.399 62.7421C150 62.8311 149.697 62.6005 149.725 62.2303C149.754 61.86 150.1 61.4838 150.496 61.3927C170.299 56.8551 179.757 53.4928 196.717 48.9774C197.057 48.8864 197.34 49.1817 197.34 49.6329C197.34 50.084 197.052 50.5271 196.709 50.6161Z" fill="#D0D0DD"/>
<path d="M196.292 56.584C178.883 60.5653 169.939 63.4562 149.974 67.6176C149.573 67.7005 149.276 67.4638 149.31 67.0896C149.347 66.7173 149.703 66.3431 150.103 66.2581C170.058 62.0118 179.125 59.0157 196.461 54.917C196.809 54.8341 197.06 55.1436 197.013 55.6028C196.967 56.0641 196.639 56.5051 196.29 56.584H196.292Z" fill="#D0D0DD"/>
<path d="M195.77 60.3832C178.234 64.0975 169.595 66.7517 149.646 70.7249C149.246 70.8038 148.953 70.5631 148.993 70.1908C149.033 69.8166 149.395 69.4443 149.796 69.3634C169.759 65.3093 178.533 62.5519 196.021 58.7223C196.373 58.6454 196.607 58.959 196.538 59.4182C196.47 59.8754 196.124 60.3104 195.772 60.3852L195.77 60.3832Z" fill="#D0D0DD"/>
<path d="M195.101 64.1339C177.477 67.5993 169.162 70.029 149.27 73.8303C148.872 73.9071 148.582 73.6623 148.629 73.2901C148.675 72.9158 149.041 72.5477 149.44 72.4708C169.362 68.5967 177.819 66.0699 195.408 62.4993C195.76 62.4285 195.982 62.74 195.897 63.1912C195.812 63.6423 195.452 64.0651 195.099 64.1339H195.101Z" fill="#D0D0DD"/>
<path d="M194.326 67.7895C176.64 71.0405 168.661 73.2618 148.85 76.9275C148.453 77.0003 148.17 76.7576 148.221 76.3853C148.273 76.0131 148.641 75.6469 149.04 75.5721C168.889 71.8517 177.016 69.5414 194.676 66.2034C195.03 66.1367 195.244 66.4442 195.147 66.8812C195.052 67.3181 194.68 67.7268 194.326 67.7915V67.7895Z" fill="#D0D0DD"/>
<path d="M193.176 72.562C175.409 75.6046 167.893 77.5831 148.195 81.1457C147.8 81.2165 147.525 80.9737 147.584 80.6035C147.645 80.2333 148.017 79.8732 148.413 79.8004C168.146 76.2176 175.81 74.1662 193.55 71.071C193.906 71.0083 194.114 71.2996 194.011 71.7103C193.908 72.121 193.532 72.5013 193.176 72.562Z" fill="#D0D0DD"/>
<path d="M192.329 75.8109C174.483 78.7827 167.296 80.6237 147.663 84.1963C147.269 84.2672 147 84.0284 147.064 83.6602C147.129 83.2941 147.507 82.934 147.901 82.8632C167.561 79.3047 174.889 77.4071 192.697 74.415C193.053 74.3564 193.263 74.6254 193.162 75.0098C193.061 75.3942 192.685 75.7502 192.329 75.8109Z" fill="#D0D0DD"/>
<path d="M191.526 78.809C173.565 81.797 166.689 83.5449 147.084 87.2107C146.692 87.2835 146.427 87.0488 146.498 86.6867C146.569 86.3246 146.951 85.9665 147.343 85.8937C166.956 82.2805 173.965 80.4962 191.869 77.5285C192.229 77.4698 192.444 77.7146 192.351 78.0666C192.258 78.4186 191.886 78.7483 191.526 78.807V78.809Z" fill="#D0D0DD"/>
<path d="M190.812 81.5096C172.683 84.615 166.091 86.3224 146.462 90.1844C146.068 90.2612 145.809 90.0347 145.886 89.6746C145.962 89.3165 146.349 88.9604 146.741 88.8856C166.352 85.1228 173.066 83.4032 191.112 80.3626C191.474 80.3019 191.702 80.5163 191.619 80.8319C191.538 81.1455 191.174 81.4449 190.812 81.5076V81.5096Z" fill="#D0D0DD"/>
<path d="M148.959 33.3536C147.329 33.8513 146.518 34.0941 144.898 34.5553C144.686 33.9869 144.581 33.7016 144.366 33.1372C148.301 32.0144 150.293 31.3832 154.287 30.0642C154.501 30.6307 154.609 30.9179 154.821 31.4884C153.173 32.0306 152.35 32.2976 150.708 32.8115C151.741 35.577 152.249 36.983 153.136 39.8192C152.435 40.0337 152.083 40.1409 151.381 40.3513C150.497 37.5211 149.99 36.1171 148.959 33.3536Z" fill="#D0D0DD"/>
<defs>
<radialGradient id="paint0_radial_2015_693" cx="0" cy="0" r="1" gradientUnits="userSpaceOnUse" gradientTransform="translate(254 296) rotate(90) scale(79 216)">
<stop/>
<stop offset="0.595" stop-opacity="0"/>
<stop offset="1" stop-opacity="0"/>
</radialGradient>
<linearGradient id="paint1_linear_2015_693" x1="354.375" y1="259.633" x2="185.184" y2="279.283" gradientUnits="userSpaceOnUse">
<stop stop-color="#CBCBD6"/>
<stop offset="1" stop-color="#F9FAF9"/>
</linearGradient>
<linearGradient id="paint2_linear_2015_693" x1="295.188" y1="99.0225" x2="354.185" y2="227.801" gradientUnits="userSpaceOnUse">
<stop stop-color="#3B3E5E"/>
<stop offset="1" stop-color="#626282"/>
</linearGradient>
<linearGradient id="paint3_linear_2015_693" x1="261.278" y1="224.191" x2="372.04" y2="79.732" gradientUnits="userSpaceOnUse">
<stop stop-color="#3B3E5E"/>
<stop offset="1" stop-color="#626282"/>
</linearGradient>
<linearGradient id="paint4_linear_2015_693" x1="230.589" y1="210.904" x2="224.167" y2="326.052" gradientUnits="userSpaceOnUse">
<stop stop-color="#CBCBD6"/>
<stop offset="1" stop-color="#F9FAF9"/>
</linearGradient>
<linearGradient id="paint5_linear_2015_693" x1="192.586" y1="208.49" x2="207.157" y2="210.674" gradientUnits="userSpaceOnUse">
<stop stop-color="#3B3E5E"/>
<stop offset="1" stop-color="#626282"/>
</linearGradient>
<linearGradient id="paint6_linear_2015_693" x1="181.912" y1="215.511" x2="201.821" y2="218.495" gradientUnits="userSpaceOnUse">
<stop stop-color="#3B3E5E"/>
<stop offset="1" stop-color="#626282"/>
</linearGradient>
<linearGradient id="paint7_linear_2015_693" x1="203.309" y1="212.838" x2="218.074" y2="215.051" gradientUnits="userSpaceOnUse">
<stop stop-color="#3B3E5E"/>
<stop offset="1" stop-color="#626282"/>
</linearGradient>
<linearGradient id="paint8_linear_2015_693" x1="214.069" y1="217.089" x2="229.008" y2="219.329" gradientUnits="userSpaceOnUse">
<stop stop-color="#3B3E5E"/>
<stop offset="1" stop-color="#626282"/>
</linearGradient>
<linearGradient id="paint9_linear_2015_693" x1="224.854" y1="221.248" x2="239.947" y2="223.511" gradientUnits="userSpaceOnUse">
<stop stop-color="#3B3E5E"/>
<stop offset="1" stop-color="#626282"/>
</linearGradient>
<linearGradient id="paint10_linear_2015_693" x1="235.648" y1="225.329" x2="250.877" y2="227.612" gradientUnits="userSpaceOnUse">
<stop stop-color="#3B3E5E"/>
<stop offset="1" stop-color="#626282"/>
</linearGradient>
<linearGradient id="paint11_linear_2015_693" x1="246.443" y1="229.336" x2="261.788" y2="231.636" gradientUnits="userSpaceOnUse">
<stop stop-color="#3B3E5E"/>
<stop offset="1" stop-color="#626282"/>
</linearGradient>
<linearGradient id="paint12_linear_2015_693" x1="257.22" y1="233.283" x2="272.669" y2="235.599" gradientUnits="userSpaceOnUse">
<stop stop-color="#3B3E5E"/>
<stop offset="1" stop-color="#626282"/>
</linearGradient>
<linearGradient id="paint13_linear_2015_693" x1="267.973" y1="237.177" x2="283.506" y2="239.506" gradientUnits="userSpaceOnUse">
<stop stop-color="#3B3E5E"/>
<stop offset="1" stop-color="#626282"/>
</linearGradient>
<linearGradient id="paint14_linear_2015_693" x1="278.687" y1="241.027" x2="294.29" y2="243.366" gradientUnits="userSpaceOnUse">
<stop stop-color="#3B3E5E"/>
<stop offset="1" stop-color="#626282"/>
</linearGradient>
<linearGradient id="paint15_linear_2015_693" x1="289.347" y1="244.844" x2="305.005" y2="247.192" gradientUnits="userSpaceOnUse">
<stop stop-color="#3B3E5E"/>
<stop offset="1" stop-color="#626282"/>
</linearGradient>
<linearGradient id="paint16_linear_2015_693" x1="299.942" y1="248.637" x2="315.643" y2="250.991" gradientUnits="userSpaceOnUse">
<stop stop-color="#3B3E5E"/>
<stop offset="1" stop-color="#626282"/>
</linearGradient>
<linearGradient id="paint17_linear_2015_693" x1="310.46" y1="252.414" x2="326.192" y2="254.773" gradientUnits="userSpaceOnUse">
<stop stop-color="#3B3E5E"/>
<stop offset="1" stop-color="#626282"/>
</linearGradient>
<linearGradient id="paint18_linear_2015_693" x1="320.816" y1="256.668" x2="341.139" y2="259.715" gradientUnits="userSpaceOnUse">
<stop stop-color="#3B3E5E"/>
<stop offset="1" stop-color="#626282"/>
</linearGradient>
<linearGradient id="paint19_linear_2015_693" x1="196.924" y1="221.126" x2="211.589" y2="223.325" gradientUnits="userSpaceOnUse">
<stop stop-color="#3B3E5E"/>
<stop offset="1" stop-color="#626282"/>
</linearGradient>
<linearGradient id="paint20_linear_2015_693" x1="207.425" y1="225.455" x2="222.276" y2="227.682" gradientUnits="userSpaceOnUse">
<stop stop-color="#3B3E5E"/>
<stop offset="1" stop-color="#626282"/>
</linearGradient>
<linearGradient id="paint21_linear_2015_693" x1="217.96" y1="229.708" x2="232.975" y2="231.959" gradientUnits="userSpaceOnUse">
<stop stop-color="#3B3E5E"/>
<stop offset="1" stop-color="#626282"/>
</linearGradient>
<linearGradient id="paint22_linear_2015_693" x1="228.516" y1="233.894" x2="243.677" y2="236.167" gradientUnits="userSpaceOnUse">
<stop stop-color="#3B3E5E"/>
<stop offset="1" stop-color="#626282"/>
</linearGradient>
<linearGradient id="paint23_linear_2015_693" x1="239.079" y1="238.017" x2="254.367" y2="240.309" gradientUnits="userSpaceOnUse">
<stop stop-color="#3B3E5E"/>
<stop offset="1" stop-color="#626282"/>
</linearGradient>
<linearGradient id="paint24_linear_2015_693" x1="249.633" y1="242.092" x2="265.033" y2="244.401" gradientUnits="userSpaceOnUse">
<stop stop-color="#3B3E5E"/>
<stop offset="1" stop-color="#626282"/>
</linearGradient>
<linearGradient id="paint25_linear_2015_693" x1="260.165" y1="246.128" x2="275.66" y2="248.451" gradientUnits="userSpaceOnUse">
<stop stop-color="#3B3E5E"/>
<stop offset="1" stop-color="#626282"/>
</linearGradient>
<linearGradient id="paint26_linear_2015_693" x1="270.662" y1="250.129" x2="286.237" y2="252.464" gradientUnits="userSpaceOnUse">
<stop stop-color="#3B3E5E"/>
<stop offset="1" stop-color="#626282"/>
</linearGradient>
<linearGradient id="paint27_linear_2015_693" x1="281.111" y1="254.111" x2="296.75" y2="256.455" gradientUnits="userSpaceOnUse">
<stop stop-color="#3B3E5E"/>
<stop offset="1" stop-color="#626282"/>
</linearGradient>
<linearGradient id="paint28_linear_2015_693" x1="291.497" y1="258.077" x2="307.186" y2="260.429" gradientUnits="userSpaceOnUse">
<stop stop-color="#3B3E5E"/>
<stop offset="1" stop-color="#626282"/>
</linearGradient>
<linearGradient id="paint29_linear_2015_693" x1="301.808" y1="262.04" x2="317.533" y2="264.397" gradientUnits="userSpaceOnUse">
<stop stop-color="#3B3E5E"/>
<stop offset="1" stop-color="#626282"/>
</linearGradient>
<linearGradient id="paint30_linear_2015_693" x1="312.026" y1="266.007" x2="327.777" y2="268.369" gradientUnits="userSpaceOnUse">
<stop stop-color="#3B3E5E"/>
<stop offset="1" stop-color="#626282"/>
</linearGradient>
<linearGradient id="paint31_linear_2015_693" x1="148.332" y1="233.776" x2="168.389" y2="236.783" gradientUnits="userSpaceOnUse">
<stop stop-color="#3B3E5E"/>
<stop offset="1" stop-color="#626282"/>
</linearGradient>
<linearGradient id="paint32_linear_2015_693" x1="162.593" y1="239.653" x2="177.552" y2="241.896" gradientUnits="userSpaceOnUse">
<stop stop-color="#3B3E5E"/>
<stop offset="1" stop-color="#626282"/>
</linearGradient>
<linearGradient id="paint33_linear_2015_693" x1="172.624" y1="244.245" x2="187.645" y2="246.497" gradientUnits="userSpaceOnUse">
<stop stop-color="#3B3E5E"/>
<stop offset="1" stop-color="#626282"/>
</linearGradient>
<linearGradient id="paint34_linear_2015_693" x1="181.877" y1="254.508" x2="239.519" y2="263.15" gradientUnits="userSpaceOnUse">
<stop stop-color="#3B3E5E"/>
<stop offset="1" stop-color="#626282"/>
</linearGradient>
<linearGradient id="paint35_linear_2015_693" x1="233.909" y1="270.999" x2="248.866" y2="273.241" gradientUnits="userSpaceOnUse">
<stop stop-color="#3B3E5E"/>
<stop offset="1" stop-color="#626282"/>
</linearGradient>
<linearGradient id="paint36_linear_2015_693" x1="244.145" y1="275.405" x2="259.025" y2="277.636" gradientUnits="userSpaceOnUse">
<stop stop-color="#3B3E5E"/>
<stop offset="1" stop-color="#626282"/>
</linearGradient>
<linearGradient id="paint37_linear_2015_693" x1="254.339" y1="279.821" x2="269.128" y2="282.038" gradientUnits="userSpaceOnUse">
<stop stop-color="#3B3E5E"/>
<stop offset="1" stop-color="#626282"/>
</linearGradient>
<linearGradient id="paint38_linear_2015_693" x1="264.475" y1="284.253" x2="279.158" y2="286.454" gradientUnits="userSpaceOnUse">
<stop stop-color="#3B3E5E"/>
<stop offset="1" stop-color="#626282"/>
</linearGradient>
<linearGradient id="paint39_linear_2015_693" x1="274.538" y1="288.71" x2="289.097" y2="290.893" gradientUnits="userSpaceOnUse">
<stop stop-color="#3B3E5E"/>
<stop offset="1" stop-color="#626282"/>
</linearGradient>
<linearGradient id="paint40_linear_2015_693" x1="171.134" y1="222.08" x2="194.566" y2="225.593" gradientUnits="userSpaceOnUse">
<stop stop-color="#3B3E5E"/>
<stop offset="1" stop-color="#626282"/>
</linearGradient>
<linearGradient id="paint41_linear_2015_693" x1="189.35" y1="228.829" x2="204.019" y2="231.028" gradientUnits="userSpaceOnUse">
<stop stop-color="#3B3E5E"/>
<stop offset="1" stop-color="#626282"/>
</linearGradient>
<linearGradient id="paint42_linear_2015_693" x1="199.626" y1="233.245" x2="214.461" y2="235.469" gradientUnits="userSpaceOnUse">
<stop stop-color="#3B3E5E"/>
<stop offset="1" stop-color="#626282"/>
</linearGradient>
<linearGradient id="paint43_linear_2015_693" x1="209.946" y1="237.596" x2="224.929" y2="239.842" gradientUnits="userSpaceOnUse">
<stop stop-color="#3B3E5E"/>
<stop offset="1" stop-color="#626282"/>
</linearGradient>
<linearGradient id="paint44_linear_2015_693" x1="220.297" y1="241.89" x2="235.406" y2="244.155" gradientUnits="userSpaceOnUse">
<stop stop-color="#3B3E5E"/>
<stop offset="1" stop-color="#626282"/>
</linearGradient>
<linearGradient id="paint45_linear_2015_693" x1="230.661" y1="246.138" x2="245.88" y2="248.419" gradientUnits="userSpaceOnUse">
<stop stop-color="#3B3E5E"/>
<stop offset="1" stop-color="#626282"/>
</linearGradient>
<linearGradient id="paint46_linear_2015_693" x1="241.025" y1="250.344" x2="256.336" y2="252.639" gradientUnits="userSpaceOnUse">
<stop stop-color="#3B3E5E"/>
<stop offset="1" stop-color="#626282"/>
</linearGradient>
<linearGradient id="paint47_linear_2015_693" x1="251.376" y1="254.521" x2="266.759" y2="256.828" gradientUnits="userSpaceOnUse">
<stop stop-color="#3B3E5E"/>
<stop offset="1" stop-color="#626282"/>
</linearGradient>
<linearGradient id="paint48_linear_2015_693" x1="261.694" y1="258.678" x2="277.135" y2="260.993" gradientUnits="userSpaceOnUse">
<stop stop-color="#3B3E5E"/>
<stop offset="1" stop-color="#626282"/>
</linearGradient>
<linearGradient id="paint49_linear_2015_693" x1="271.968" y1="262.821" x2="287.452" y2="265.143" gradientUnits="userSpaceOnUse">
<stop stop-color="#3B3E5E"/>
<stop offset="1" stop-color="#626282"/>
</linearGradient>
<linearGradient id="paint50_linear_2015_693" x1="282.18" y1="266.962" x2="297.693" y2="269.288" gradientUnits="userSpaceOnUse">
<stop stop-color="#3B3E5E"/>
<stop offset="1" stop-color="#626282"/>
</linearGradient>
<linearGradient id="paint51_linear_2015_693" x1="292.184" y1="271.988" x2="314.593" y2="275.347" gradientUnits="userSpaceOnUse">
<stop stop-color="#3B3E5E"/>
<stop offset="1" stop-color="#626282"/>
</linearGradient>
<linearGradient id="paint52_linear_2015_693" x1="159.98" y1="228.427" x2="185.6" y2="232.268" gradientUnits="userSpaceOnUse">
<stop stop-color="#3B3E5E"/>
<stop offset="1" stop-color="#626282"/>
</linearGradient>
<linearGradient id="paint53_linear_2015_693" x1="180.033" y1="235.916" x2="194.803" y2="238.131" gradientUnits="userSpaceOnUse">
<stop stop-color="#3B3E5E"/>
<stop offset="1" stop-color="#626282"/>
</linearGradient>
<linearGradient id="paint54_linear_2015_693" x1="190.155" y1="240.414" x2="205.048" y2="242.646" gradientUnits="userSpaceOnUse">
<stop stop-color="#3B3E5E"/>
<stop offset="1" stop-color="#626282"/>
</linearGradient>
<linearGradient id="paint55_linear_2015_693" x1="200.335" y1="244.856" x2="215.328" y2="247.104" gradientUnits="userSpaceOnUse">
<stop stop-color="#3B3E5E"/>
<stop offset="1" stop-color="#626282"/>
</linearGradient>
<linearGradient id="paint56_linear_2015_693" x1="210.556" y1="249.253" x2="225.629" y2="251.513" gradientUnits="userSpaceOnUse">
<stop stop-color="#3B3E5E"/>
<stop offset="1" stop-color="#626282"/>
</linearGradient>
<linearGradient id="paint57_linear_2015_693" x1="220.802" y1="253.61" x2="235.937" y2="255.879" gradientUnits="userSpaceOnUse">
<stop stop-color="#3B3E5E"/>
<stop offset="1" stop-color="#626282"/>
</linearGradient>
<linearGradient id="paint58_linear_2015_693" x1="231.054" y1="257.938" x2="246.23" y2="260.214" gradientUnits="userSpaceOnUse">
<stop stop-color="#3B3E5E"/>
<stop offset="1" stop-color="#626282"/>
</linearGradient>
<linearGradient id="paint59_linear_2015_693" x1="241.298" y1="262.246" x2="256.501" y2="264.525" gradientUnits="userSpaceOnUse">
<stop stop-color="#3B3E5E"/>
<stop offset="1" stop-color="#626282"/>
</linearGradient>
<linearGradient id="paint60_linear_2015_693" x1="251.52" y1="266.543" x2="266.731" y2="268.823" gradientUnits="userSpaceOnUse">
<stop stop-color="#3B3E5E"/>
<stop offset="1" stop-color="#626282"/>
</linearGradient>
<linearGradient id="paint61_linear_2015_693" x1="261.7" y1="270.836" x2="276.903" y2="273.115" gradientUnits="userSpaceOnUse">
<stop stop-color="#3B3E5E"/>
<stop offset="1" stop-color="#626282"/>
</linearGradient>
<linearGradient id="paint62_linear_2015_693" x1="271.515" y1="277.174" x2="301.758" y2="281.708" gradientUnits="userSpaceOnUse">
<stop stop-color="#3B3E5E"/>
<stop offset="1" stop-color="#626282"/>
</linearGradient>
<linearGradient id="paint63_linear_2015_693" x1="27.0866" y1="326.815" x2="101.359" y2="264.133" gradientUnits="userSpaceOnUse">
<stop stop-color="#E1E2E7"/>
<stop offset="1" stop-color="#F9FAF9"/>
</linearGradient>
<linearGradient id="paint64_linear_2015_693" x1="263.477" y1="152.165" x2="337.75" y2="89.4834" gradientUnits="userSpaceOnUse">
<stop stop-color="#E1E2E7"/>
<stop offset="1" stop-color="#F9FAF9"/>
</linearGradient>
<linearGradient id="paint65_linear_2015_693" x1="199.167" y1="371.77" x2="215.127" y2="275.877" gradientUnits="userSpaceOnUse">
<stop stop-color="#E1E2E7"/>
<stop offset="1" stop-color="#F9FAF9"/>
</linearGradient>
<linearGradient id="paint66_linear_2015_693" x1="36.5812" y1="242.544" x2="52.5415" y2="146.651" gradientUnits="userSpaceOnUse">
<stop stop-color="#E1E2E7"/>
<stop offset="1" stop-color="#F9FAF9"/>
</linearGradient>
<linearGradient id="paint67_linear_2015_693" x1="384.889" y1="284.22" x2="400.852" y2="188.328" gradientUnits="userSpaceOnUse">
<stop stop-color="#E1E2E7"/>
<stop offset="1" stop-color="#F9FAF9"/>
</linearGradient>
<linearGradient id="paint68_linear_2015_693" x1="186.913" y1="123.505" x2="159.938" y2="30.1111" gradientUnits="userSpaceOnUse">
<stop stop-color="#E1E2E7"/>
<stop offset="1" stop-color="#F9FAF9"/>
</linearGradient>
</defs>
</svg>
