<svg width="100" height="101" viewBox="0 0 100 101" fill="none" xmlns="http://www.w3.org/2000/svg">
<path d="M75.6557 11.0851L50.6499 0.139192C50.224 -0.0463975 49.7415 -0.0463975 49.3156 0.139192L24.3118 11.0851C23.7042 11.3508 23.3115 11.9505 23.3115 12.6128V38.7849C23.3213 44.6671 26.1462 50.1879 30.9129 53.634L48.1962 66.0978C49.2628 66.8695 50.7065 66.8695 51.7732 66.0978L69.0565 53.634C73.8232 50.1879 76.6501 44.6651 76.6579 38.7849V12.6128C76.6579 11.9505 76.2652 11.3508 75.6576 11.0851H75.6557ZM73.3212 38.7868C73.3133 43.5985 71.0023 48.1132 67.1029 50.9322L49.9818 63.2808L32.8606 50.9322C28.9613 48.1132 26.6502 43.5965 26.6424 38.7868V13.7029L49.9837 3.48762L73.3231 13.7029V38.7868H73.3212Z" fill="white"/>
<path d="M49.317 7.418L30.9787 15.4472C30.3712 15.7129 29.9785 16.3126 29.9785 16.9749V38.7886C29.9844 42.5297 31.7817 46.0402 34.8136 48.2302L49.0083 58.4689C49.5905 58.8889 50.3758 58.8889 50.958 58.4689L65.1527 48.2302C68.1846 46.0402 69.9819 42.5277 69.9878 38.7886V16.9729C69.9878 16.3107 69.5951 15.7109 68.9876 15.4453L50.6493 7.41605C50.2234 7.23046 49.7409 7.23046 49.315 7.41605L49.317 7.418ZM66.655 18.063V38.7886C66.6491 41.4571 65.3676 43.9636 63.205 45.5264L49.9851 55.0619L36.7652 45.5264C34.6026 43.9616 33.3191 41.4571 33.3152 38.7886V18.0611L49.9851 10.7645L66.655 18.0611V18.063Z" fill="white"/>
<path d="M13.7836 55.3453L10.1773 46.9196C9.40949 45.1828 7.77435 43.9872 5.88719 43.7821C4.00004 43.577 2.14609 44.3955 1.02474 45.9291C-0.0966149 47.4627 -0.313462 49.4768 0.45234 51.2135L6.9851 65.586C7.86617 67.5318 9.09301 69.3017 10.6051 70.8099L20.879 81.0857C20.3007 81.6991 19.9764 82.5098 19.9744 83.3538V96.6909C19.9744 98.5331 21.467 100.026 23.3092 100.026H41.6474C43.4897 100.026 44.9822 98.5331 44.9822 96.6909V83.3538C44.9822 81.5116 43.4897 80.019 41.6474 80.019V76.9168C41.6982 72.9686 40.4108 69.12 37.9923 65.9982C36.5759 64.1345 34.6439 62.726 32.4363 61.9465C28.9257 60.4715 25.6965 58.3988 22.8931 55.822C20.2909 53.6789 16.5928 53.4855 13.7836 55.3493V55.3453ZM41.6474 96.6889H23.3112V83.3518H41.6494V96.6889H41.6474ZM35.3901 68.0788C37.3339 70.6106 38.3635 73.7246 38.3127 76.9168V80.019H24.5302L12.965 68.4539C11.7362 67.227 10.7399 65.7892 10.0229 64.2087L3.4882 49.8343C3.20884 49.2209 3.26159 48.5078 3.6269 47.9413C3.99222 47.3747 4.61932 47.0329 5.29331 47.0329C6.08646 47.0329 6.80342 47.5056 7.11404 48.2343L10.8434 56.9317C11.8339 59.2525 13.2619 61.3604 15.0475 63.1421L22.6626 70.7591C23.0806 71.1928 23.7019 71.3666 24.284 71.2143C24.8662 71.0619 25.3214 70.6067 25.4738 70.0245C25.6261 69.4424 25.4523 68.8211 25.0186 68.4031L17.4035 60.7861C16.6377 60.0222 15.9501 59.1841 15.3484 58.2855C16.9484 57.0528 19.1891 57.0918 20.7481 58.3753C23.864 61.2354 27.4664 63.5152 31.3833 65.1093C32.9794 65.6895 34.3723 66.721 35.3921 68.0807L35.3901 68.0788Z" fill="white"/>
<path d="M36.6463 88.353H34.9799C34.0597 88.353 33.3135 89.0993 33.3135 90.0194C33.3135 90.9396 34.0597 91.6858 34.9799 91.6858H36.6463C37.5664 91.6858 38.3127 90.9396 38.3127 90.0194C38.3127 89.0993 37.5664 88.353 36.6463 88.353Z" fill="white"/>
<path d="M92.9795 65.5841L99.5123 51.2116C100.315 49.469 100.116 47.4275 98.9926 45.8725C97.8693 44.3175 95.9919 43.4891 94.0852 43.706C92.1785 43.9228 90.5356 45.1497 89.7893 46.9177L86.1928 55.3122C83.3718 53.4602 79.6737 53.6614 77.0715 55.8123C74.2681 58.3891 71.0389 60.4618 67.5283 61.9368C65.3208 62.7162 63.3887 64.1248 61.9723 65.9885C59.5538 69.1123 58.2664 72.9628 58.3172 76.9129V80.0152C56.475 80.0152 54.9824 81.5077 54.9824 83.3499V96.687C54.9824 98.5292 56.475 100.022 58.3172 100.022H76.6554C78.4976 100.022 79.9902 98.5292 79.9902 96.687V83.3499C79.9902 82.506 79.6659 81.6953 79.0857 81.0818L89.3595 70.806C90.8716 69.2979 92.0965 67.5279 92.9795 65.5821V65.5841ZM76.6554 96.687H58.3172V83.3499H76.6554V96.687ZM75.4364 80.0171H61.6519V76.9148C61.6011 73.7247 62.6307 70.6107 64.5745 68.0788C65.5923 66.7211 66.9813 65.6896 68.5754 65.1074C72.4943 63.5133 76.0967 61.2335 79.2126 58.3734C80.7696 57.0782 83.0163 57.0352 84.6221 58.268C84.0184 59.1744 83.3269 60.0164 82.5572 60.7861L74.9421 68.4031C74.3111 69.0576 74.3189 70.0969 74.9617 70.7396C75.6044 71.3823 76.6437 71.3921 77.2981 70.7591L84.9132 63.1421C86.7007 61.3605 88.1268 59.2526 89.1173 56.9317L92.8467 48.2324C93.1592 47.5037 93.8742 47.031 94.6674 47.0329C95.3414 47.0329 95.9685 47.3748 96.3338 47.9413C96.6991 48.5079 96.7499 49.2209 96.4725 49.8344L89.9397 64.2068C89.2228 65.7873 88.2265 67.2271 86.9977 68.452L75.4383 80.0171H75.4364Z" fill="white"/>
<path d="M64.9871 88.353H63.3207C62.4006 88.353 61.6543 89.0993 61.6543 90.0194C61.6543 90.9396 62.4006 91.6858 63.3207 91.6858H64.9871C65.9072 91.6858 66.6535 90.9396 66.6535 90.0194C66.6535 89.0993 65.9072 88.353 64.9871 88.353Z" fill="white"/>
<path d="M40.9815 35.3406C40.245 34.7878 39.1998 34.9382 38.6469 35.6747C38.0941 36.4112 38.2445 37.4564 38.981 38.0092L45.6485 43.0104C45.9377 43.2272 46.2874 43.3445 46.6488 43.3445C46.7426 43.3445 46.8383 43.3366 46.9301 43.321C47.3814 43.2429 47.7819 42.983 48.0358 42.6021L61.3729 22.5975C61.7031 22.1012 61.7441 21.4683 61.4803 20.933C61.2166 20.3977 60.6872 20.0461 60.0933 20.007C59.4994 19.9679 58.929 20.2493 58.5988 20.7455L46.2385 39.2849L40.9815 35.3406Z" fill="white"/>
</svg>
