<svg width="160" height="60" viewBox="0 0 160 60" fill="none" xmlns="http://www.w3.org/2000/svg">
<rect y="-0.000976562" width="160" height="60" rx="30" fill="#F2F2F2"/>
<path d="M93.4656 49.9824H67.193C63.7715 49.9824 61 47.1854 61 43.7383V17.2429C61 13.7959 63.7715 10.9988 67.193 10.9988H93.4656C96.8871 10.9988 99.6549 13.7959 99.6549 17.2429V43.7383C99.6549 47.189 96.8871 49.9824 93.4656 49.9824Z" fill="#1677FF"/>
<path d="M70.651 42.0367C64.637 42.0367 62.8587 37.2605 65.831 34.646C66.8242 33.7623 68.6354 33.3315 69.5994 33.2365C73.1705 32.8787 76.4788 34.2553 80.3823 36.176C77.64 39.7837 74.1455 42.0403 70.651 42.0403M92.0306 36.5411C90.4824 36.019 88.4083 35.2193 86.0969 34.3758C87.4845 31.9402 88.5945 29.1687 89.3212 26.1562L81.7005 26.1562L81.7005 23.3884L91.0338 23.3884L91.0338 21.8438L81.7005 21.8438L81.7005 17.2283L77.892 17.2283C77.2237 17.2283 77.2237 17.8928 77.2237 17.8928L77.2237 21.8401L67.7882 21.8401L67.7882 23.3847L77.2274 23.3847L77.2274 26.1526L69.435 26.1526L69.435 27.6972L84.5523 27.6972C84.0009 29.6179 83.256 31.4254 82.376 33.0649C77.472 31.4327 72.2358 30.1108 68.9494 30.9251C66.8461 31.4473 65.4914 32.3821 64.6954 33.357C61.0439 37.8374 63.662 44.6439 71.374 44.6439C75.9347 44.6438 80.3275 42.0805 83.7307 37.8557C88.81 40.3168 98.8626 44.5453 98.8626 44.5453L98.8626 38.5203C98.8626 38.5203 97.5992 38.418 92.0343 36.5375" fill="white"/>
</svg>
