<svg width="6" height="10" viewBox="0 0 6 10" fill="none" xmlns="http://www.w3.org/2000/svg">
<path fill-rule="evenodd" clip-rule="evenodd" d="M0.294699 9.70506C0.108448 9.51769 0.00390622 9.26424 0.00390621 9.00006C0.00390619 8.73587 0.108448 8.48242 0.294699 8.29506L3.5847 5.00006L0.294699 1.70506C0.108448 1.51769 0.00390587 1.26424 0.00390586 1.00006C0.00390585 0.735871 0.108448 0.48242 0.294698 0.295057C0.482061 0.108807 0.735513 0.0042648 0.999699 0.00426479C1.26388 0.00426478 1.51734 0.108807 1.7047 0.295057L5.7047 4.29506C5.89095 4.48242 5.99549 4.73587 5.99549 5.00006C5.99549 5.26424 5.89095 5.51769 5.7047 5.70506L1.7047 9.70506C1.51734 9.89131 1.26388 9.99585 0.999699 9.99585C0.735513 9.99585 0.482061 9.89131 0.294699 9.70506Z" fill="#333343"/>
</svg>
