<svg width="20" height="18" viewBox="0 0 20 18" fill="none" xmlns="http://www.w3.org/2000/svg">
<path d="M9.44872 15.4169C5.60406 15.4169 3.68173 15.4169 2.48735 14.2225C1.29297 13.0282 1.29297 11.1058 1.29297 7.26117V4.769C1.29297 3.28753 1.29297 2.54679 1.60315 1.99098C1.82425 1.59478 2.15117 1.26785 2.54737 1.04675C3.10319 0.736572 3.84393 0.736572 5.32539 0.736572C6.27452 0.736572 6.74909 0.736572 7.16451 0.892355C8.11297 1.24804 8.50412 2.10966 8.93214 2.96565L9.44872 3.99887M6.18642 3.99887H13.3227C15.0409 3.99887 15.8999 3.99887 16.5171 4.41122C16.7842 4.58973 17.0136 4.81911 17.1921 5.08627C17.6045 5.70339 17.6045 6.56247 17.6045 8.28064" stroke="#3B3B44" stroke-linecap="round"/>
<path d="M10.3477 7.2981H4.63867M10.3477 9.74482H4.63867M6.67761 12.1915H4.63867" stroke="#3B3B44" stroke-linecap="round" stroke-linejoin="round"/>
<path d="M13.9149 9.36218L12.9907 9.11453L12.743 10.0389C12.6566 10.3614 12.6134 10.5227 12.6346 10.6837C12.6558 10.8449 12.7393 10.9894 12.9061 11.2786L15.6882 16.0968C15.8456 16.3695 15.9244 16.5058 16.0249 16.5944C16.2163 16.763 16.4754 16.8324 16.7255 16.7821C16.8569 16.7557 16.9933 16.677 17.266 16.5196C17.5387 16.362 17.675 16.2833 17.7636 16.1827C17.9321 15.9913 18.0016 15.7321 17.9514 15.482C17.925 15.3507 17.8463 15.2142 17.6888 14.9416L14.9067 10.1233C14.7399 9.83416 14.6564 9.68962 14.5275 9.59075C14.3986 9.49178 14.2374 9.4486 13.9149 9.36218Z" stroke="#3B3B44" stroke-linejoin="round"/>
</svg>
