<svg width="331" height="272" viewBox="0 0 331 272" fill="none" xmlns="http://www.w3.org/2000/svg">
<g clip-path="url(#clip0_22_230)">
<path d="M47.8715 71.0714C46.7904 87.9802 56.1161 104.085 56.1101 121.03C56.1041 139.293 45.3166 156.002 43.7221 174.192C41.6987 197.283 55.2947 219.818 74.2301 233.186C93.1595 246.553 116.649 251.938 139.746 253.769C161.508 255.491 183.494 254.313 204.954 250.318C221.419 247.254 237.83 242.42 251.879 233.301C265.928 224.182 277.47 210.331 281.118 193.978C287.037 167.442 271.768 140.502 273.103 113.35C274.015 94.8272 282.646 76.613 279.373 58.3565C277.023 45.267 268.603 33.8031 258.045 25.7112C247.488 17.6194 234.906 12.6036 222.156 8.82658C193.713 0.39633 163.586 -2.29893 134.105 0.952304C103.355 4.34253 74.1697 20.4778 56.7443 46.6328C51.8761 53.945 48.4453 62.2302 47.8776 71.0654L47.8715 71.0714Z" fill="#F0F3FF"/>
<path d="M223.744 203.55C223.744 203.55 224.632 203.411 226.118 203.103" stroke="#8FA0E4" stroke-width="1.5" stroke-linecap="round" stroke-linejoin="round"/>
<path d="M231.481 201.774C241.236 198.988 256.741 192.533 256.741 179.613C256.741 160.764 241.671 156.413 245.44 132.923C249.209 109.434 259.64 92.9055 258.19 83.043C256.741 73.1866 244.57 75.5011 238.482 81.8827C233.124 87.4969 223.95 100.979 211.749 101.753" stroke="#8FA0E4" stroke-width="1.5" stroke-linecap="round" stroke-linejoin="round"/>
<path d="M208.982 101.71C208.197 101.632 207.406 101.505 206.603 101.318" stroke="#8FA0E4" stroke-width="1.5" stroke-linecap="round" stroke-linejoin="round"/>
<path d="M108.302 185.457C108.302 185.457 72.5449 182.012 73.0764 154.189" stroke="#8FA0E4" stroke-width="1.5" stroke-linecap="round" stroke-linejoin="round"/>
<path d="M128.699 73.0959C128.699 73.0959 95.8592 74.4194 87.3791 65.409C78.905 56.3986 77.5822 25.6569 117.042 26.9864" stroke="#8FA0E4" stroke-width="1.5" stroke-linecap="round" stroke-linejoin="round"/>
<path d="M262.932 166.354C262.932 162.777 260.033 159.876 256.457 159.876C252.881 159.876 249.982 162.777 249.982 166.354C249.982 166.656 250.012 166.953 250.048 167.243C250.683 173.105 254.144 179.45 255.702 182.061C256.046 182.635 256.88 182.635 257.224 182.061C258.782 179.456 262.243 173.111 262.877 167.243C262.92 166.953 262.944 166.656 262.944 166.354H262.932Z" fill="#8FA0E4"/>
<path d="M259.127 166.354C259.127 167.829 257.931 169.025 256.457 169.025C254.983 169.025 253.787 167.829 253.787 166.354C253.787 164.88 254.983 163.683 256.457 163.683C257.931 163.683 259.127 164.88 259.127 166.354Z" fill="white"/>
<path d="M254.959 161.139C252.972 161.363 251.558 163.133 251.166 165.013C250.906 166.251 251.009 167.527 251.226 168.765C251.456 170.095 251.782 171.412 252.078 172.73C252.156 173.074 252.682 172.929 252.603 172.585C252.35 171.437 252.072 170.294 251.848 169.14C251.619 167.962 251.456 166.741 251.625 165.544C251.873 163.798 253.068 161.9 254.959 161.689C255.303 161.653 255.309 161.103 254.959 161.145V161.139Z" fill="#5264AE"/>
<path d="M233.281 82.1365C233.281 79.7616 231.355 77.8398 228.987 77.8398C226.619 77.8398 224.693 79.7676 224.693 82.1365C224.693 82.336 224.711 82.5354 224.741 82.7288C225.164 86.6206 227.459 90.8266 228.492 92.555C228.721 92.9357 229.271 92.9357 229.5 92.555C230.533 90.8266 232.835 86.6145 233.251 82.7288C233.275 82.5354 233.3 82.342 233.3 82.1365H233.281Z" fill="#384A92"/>
<path d="M230.757 82.1366C230.757 83.1156 229.965 83.9073 228.987 83.9073C228.009 83.9073 227.217 83.1156 227.217 82.1366C227.217 81.1576 228.009 80.366 228.987 80.366C229.965 80.366 230.757 81.1576 230.757 82.1366Z" fill="white"/>
<path d="M228.546 78.6194C227.809 78.6556 227.115 78.9457 226.577 79.4533C226.07 79.9308 225.726 80.5532 225.417 81.1757C225.26 81.4899 225.732 81.7679 225.889 81.4536C226.16 80.9037 226.456 80.3477 226.891 79.9126C227.332 79.4715 227.918 79.2056 228.546 79.1754C228.897 79.1572 228.897 78.6133 228.546 78.6315V78.6194Z" fill="#5264AE"/>
<path d="M227.501 88.3187C227.157 87.4727 226.849 86.6085 226.577 85.7383C226.317 84.8922 226.04 84.022 226.076 83.1276C226.088 82.7771 225.544 82.7771 225.532 83.1276C225.502 84.0401 225.762 84.9224 226.027 85.7866C226.305 86.6931 226.625 87.5875 226.982 88.4638C227.115 88.784 227.64 88.6451 227.507 88.3187H227.501Z" fill="#5264AE"/>
<path d="M89.8194 29.3553C89.8194 25.6991 86.8538 22.7319 83.1996 22.7319C79.5454 22.7319 76.5797 25.6991 76.5797 29.3553C76.5797 29.6635 76.6099 29.9656 76.6522 30.2678C77.2985 36.2626 80.8379 42.747 82.4325 45.406C82.7828 45.9922 83.6344 45.9922 83.9848 45.406C85.5793 42.7409 89.1188 36.2566 89.765 30.2678C89.8073 29.9717 89.8375 29.6695 89.8375 29.3553H89.8194Z" fill="#5264AE"/>
<path d="M85.9296 29.3553C85.9296 30.8661 84.7096 32.0868 83.1996 32.0868C81.6896 32.0868 80.4695 30.8661 80.4695 29.3553C80.4695 27.8445 81.6896 26.6238 83.1996 26.6238C84.7096 26.6238 85.9296 27.8445 85.9296 29.3553Z" fill="white"/>
<path d="M88.1162 26.9442C87.5484 25.518 86.4793 24.2972 85.0056 23.7775C84.6734 23.6627 84.5344 24.1885 84.8606 24.3033C86.2015 24.7807 87.186 25.9591 87.6571 27.2765C88.2611 28.9384 88.1041 30.7634 87.7357 32.4616C87.6632 32.806 88.1887 32.9511 88.2611 32.6066C88.6598 30.7574 88.8289 28.745 88.1101 26.9502L88.1162 26.9442Z" fill="#8FA0E4"/>
<path d="M87.4638 34.794C87.3128 34.7578 87.18 34.8424 87.1256 34.9874C86.9504 35.495 86.7753 35.9966 86.6001 36.5042C86.5518 36.6372 86.6545 36.8064 86.7934 36.8427C86.9444 36.8789 87.0773 36.7943 87.1316 36.6493C87.3068 36.1416 87.482 35.6401 87.6571 35.1324C87.7054 34.9995 87.6028 34.8303 87.4638 34.794Z" fill="#8FA0E4"/>
<path d="M77.6186 145.632C77.6186 143.052 75.5227 140.955 72.9436 140.955C70.3646 140.955 68.2687 143.052 68.2687 145.632C68.2687 145.85 68.2868 146.067 68.317 146.273C68.776 150.503 71.2766 155.084 72.4 156.963C72.6477 157.38 73.2456 157.38 73.4993 156.963C74.6228 155.084 77.1233 150.503 77.5824 146.267C77.6126 146.055 77.6307 145.844 77.6307 145.626L77.6186 145.632Z" fill="#CF5E0E"/>
<path d="M74.8765 145.632C74.8765 146.696 74.0128 147.56 72.9497 147.56C71.8867 147.56 71.0229 146.696 71.0229 145.632C71.0229 144.569 71.8867 143.705 72.9497 143.705C74.0128 143.705 74.8765 144.569 74.8765 145.632Z" fill="white"/>
<path d="M76.477 144.629C76.1025 143.251 75.0093 142.115 73.5476 141.97C73.1973 141.934 73.2033 142.484 73.5476 142.514C74.9005 142.647 75.7945 143.856 76.024 145.113C76.3018 146.587 75.8005 148.062 75.269 149.415C75.1421 149.742 75.6676 149.887 75.7945 149.56C76.4045 148.001 76.9239 146.297 76.4709 144.623L76.477 144.629Z" fill="#FF9230"/>
<path d="M253.709 99.4624H232.484C229.475 99.4624 227.036 101.903 227.036 104.913V126.149C227.036 129.16 229.475 131.6 232.484 131.6H253.709C256.718 131.6 259.157 129.16 259.157 126.149V104.913C259.157 101.903 256.718 99.4624 253.709 99.4624Z" fill="#5264AE"/>
<path d="M254.79 107.5C249.644 112.286 245.138 117.864 241.641 123.961C239.316 120.91 236.253 118.42 232.786 116.764C232.2 116.486 232.617 115.042 233.257 114.945C235.758 114.564 238.47 115.749 240.348 117.435C243.646 112.715 248.188 108.745 253.437 106.358C253.866 106.164 254.367 105.977 254.79 106.182C255.213 106.388 255.255 107.427 254.79 107.494V107.5Z" fill="white"/>
<path d="M100.818 84.4451H73.4993C72.1016 84.4451 70.9685 85.5787 70.9685 86.9772V106.557C70.9685 107.956 72.1016 109.089 73.4993 109.089H100.818C102.216 109.089 103.349 107.956 103.349 106.557V86.9772C103.349 85.5787 102.216 84.4451 100.818 84.4451Z" fill="#FF9230"/>
<path d="M82.1969 101.849L77.0448 96.7671L82.1969 91.6848H85.4223L80.252 96.7671L85.4223 101.849H82.1969Z" fill="white"/>
<path d="M88.8953 101.849L94.0655 96.7671L88.8953 91.6848H92.1206L97.2727 96.7671L92.1206 101.849H88.8953Z" fill="white"/>
<path d="M262.246 58.006C268.632 47.4931 265.291 33.7911 254.783 27.4016C244.276 21.0122 230.581 24.355 224.195 34.8678C217.809 45.3807 221.15 59.0827 231.657 65.4721C242.165 71.8616 255.86 68.5188 262.246 58.006Z" fill="#8FA0E4"/>
<path d="M243.302 32.1411H243.278C235.395 32.1411 228.933 38.5227 228.933 46.3909C228.933 48.3127 229.313 50.1861 230.068 51.9567C231.53 55.3832 234.284 58.1449 237.721 59.6134C239.491 60.3688 241.363 60.7496 243.284 60.7496C251.19 60.7496 257.52 54.229 257.52 46.3909C257.52 38.5529 251.166 32.1532 243.296 32.1411H243.302ZM240.511 34.1233C239.08 35.477 237.914 37.0663 237.038 38.849H233.155C234.936 36.4983 237.528 34.788 240.517 34.1233H240.511ZM232.073 40.5109H236.32C235.734 42.1184 235.389 43.8286 235.299 45.5509H230.636C230.757 43.744 231.264 42.0278 232.073 40.5109ZM232.104 52.3677C231.27 50.8146 230.751 49.0741 230.63 47.2249H235.287C235.365 48.9835 235.716 50.7239 236.313 52.3677H232.104ZM233.179 54.0416H237.032C237.908 55.8183 239.074 57.4077 240.505 58.7613C237.54 58.0966 234.961 56.3864 233.185 54.0416H233.179ZM236.966 47.2249H242.444V52.3677H238.125C237.455 50.7541 237.056 49.0197 236.972 47.2249H236.966ZM242.444 58.2416C241.019 57.0572 239.841 55.631 238.941 54.0416H242.444V58.2416ZM242.444 45.5509H236.972C237.075 43.7984 237.467 42.1003 238.125 40.523H242.444V45.5509ZM242.444 38.843H238.941C239.841 37.2597 241.019 35.8335 242.444 34.643V38.843ZM254.391 40.517C255.195 42.0338 255.696 43.738 255.817 45.5449H251.269C251.178 43.8226 250.834 42.1245 250.248 40.517H254.391ZM253.328 38.843H249.529C248.653 37.0663 247.487 35.477 246.062 34.1233C249.01 34.7941 251.564 36.4982 253.328 38.843ZM244.117 34.643C245.543 35.8275 246.72 37.2536 247.62 38.843H244.117V34.643ZM244.117 40.517H248.442C249.094 42.0942 249.493 43.7924 249.589 45.5449H244.117V40.517ZM249.595 47.2128C249.505 49.0076 249.106 50.7541 248.442 52.3677H244.117V47.2128H249.595ZM244.117 58.2416V54.0356H247.62C246.72 55.6189 245.543 57.0572 244.117 58.2416ZM246.068 58.7613C247.494 57.4077 248.653 55.8123 249.529 54.0356H253.292C251.534 56.3743 248.991 58.0906 246.068 58.7613ZM250.248 52.3677C250.846 50.7239 251.196 48.9774 251.275 47.2128H255.817C255.696 49.062 255.182 50.8146 254.361 52.3677H250.248Z" fill="white"/>
<path d="M259.519 26.2068C255.315 22.8649 250.115 20.8828 244.757 20.5685C239.569 20.2603 234.363 21.614 229.923 24.3032C227.447 25.808 225.224 27.7176 223.382 29.9475C223.128 30.2497 223.563 30.6909 223.817 30.3827C227 26.5211 231.324 23.6566 236.108 22.2062C241.061 20.7015 246.388 20.8223 251.293 22.4419C254.107 23.3726 256.759 24.7927 259.084 26.6419C259.392 26.8897 259.833 26.4546 259.519 26.2068Z" fill="#8FA0E4"/>
<path d="M267.468 38.414C266.302 35.0902 264.508 32.0203 262.183 29.3734C261.917 29.0712 261.482 29.5124 261.748 29.8085C264.001 32.3708 265.746 35.3561 266.876 38.5772C267.009 38.9518 267.607 38.7887 267.474 38.414H267.468Z" fill="#8FA0E4"/>
<path d="M253.358 69.0529C246.207 72.8057 237.497 72.7755 230.376 68.9562C228.492 67.947 226.752 66.696 225.194 65.2396C224.904 64.9677 224.475 65.4149 224.765 65.6868C230.696 71.2345 239.086 73.6034 247.041 71.9596C249.354 71.4822 251.589 70.6724 253.679 69.5786C254.029 69.3913 253.703 68.8655 253.352 69.0529H253.358Z" fill="#8FA0E4"/>
<mask id="mask0_22_230" style="mask-type:luminance" maskUnits="userSpaceOnUse" x="12" y="-24" width="302" height="303">
<path d="M314 -24H12V278.159H314V-24Z" fill="white"/>
</mask>
<g mask="url(#mask0_22_230)">
<path d="M65.5144 278.159C65.5144 278.159 81.158 290.705 90.6831 296.428C109.818 307.928 125.105 302.072 125.105 302.072C125.105 302.072 125.721 288.632 138.218 281.465C164.154 266.581 166.105 237.706 168.527 234.443C172.706 228.793 175.219 220.846 181.283 216.241C187.347 211.636 193.411 208.294 197.38 203.689C201.354 199.084 176.892 170.011 162.674 164.36C148.456 158.71 125.25 167.497 122.321 168.965C119.391 170.428 101.622 225.868 101.622 225.868L65.5204 278.159H65.5144Z" fill="#EAAB93"/>
<path d="M195.725 205.43C185.445 202.529 158.887 196.455 148.661 198.462C138 200.553 134.443 199.924 130.263 205.363C126.084 210.802 124.616 213.521 123.994 221.263C123.366 229.004 126.923 244.692 126.923 244.692C126.923 244.692 137.795 236.534 145.949 231.512C154.103 226.49 162.046 223.354 165.392 223.142C167.82 222.991 172.235 222.29 175.829 222.314C177.345 220.03 179.078 217.909 181.283 216.235C186.556 212.228 191.829 209.176 195.731 205.418L195.725 205.43Z" fill="#E17479"/>
<path d="M162.07 227.149C157.099 229.125 152.043 231.137 147.671 234.274C146.444 235.15 145.285 236.111 144.21 237.162C143.865 237.495 144.391 238.021 144.735 237.688C148.516 234.002 153.288 231.591 158.108 229.554C159.491 228.974 160.88 228.418 162.275 227.862C162.716 227.687 162.523 226.968 162.076 227.143L162.07 227.149Z" fill="#E17479"/>
<path d="M229.102 173.667C228.504 171.787 227.405 170.107 226.263 168.494C225.043 166.771 223.756 165.097 222.415 163.472C221.413 162.257 220.356 161.048 219.021 160.215C217.215 159.084 215.053 158.722 212.939 158.42V177.994C213.887 179.807 215.216 181.317 217.076 182.29C219.643 183.638 222.844 183.704 225.472 182.472C226.861 181.819 228.111 180.786 228.83 179.426C229.748 177.679 229.706 175.546 229.108 173.661L229.102 173.667Z" fill="#EAAB93"/>
<path d="M212.939 170.965C213.742 168.053 215.18 165.345 217.161 163.061C217.499 162.668 216.931 162.094 216.587 162.487C215.047 164.264 213.815 166.276 212.939 168.445V170.965Z" fill="#E17479"/>
<path d="M225.073 192.123C223.195 190.672 221.171 189.415 219.045 188.37C217.97 187.838 214.159 185.614 212.999 186.14C212.975 186.152 212.957 186.17 212.939 186.182V204.844C213.09 205.025 213.259 205.188 213.452 205.339C214.412 206.094 215.693 206.3 216.913 206.306C221.05 206.312 225.133 204.136 227.441 200.698C228.033 199.816 228.522 198.831 228.588 197.773C228.733 195.465 226.903 193.537 225.073 192.123Z" fill="#E17479"/>
<path d="M234.193 139.088C233.348 138.405 232.279 138.06 231.228 137.77C225.327 136.126 219.196 135.51 213.096 134.906C213.041 134.906 212.987 134.9 212.939 134.894V152.945C213.223 153.011 213.609 153.011 214.195 153.017C215.639 153.017 217.094 152.908 218.526 152.763C221.407 152.467 224.258 151.923 227.042 151.132C229.827 150.34 232.69 149.204 234.465 146.919C236.241 144.635 236.44 140.907 234.193 139.088Z" fill="#EAAB93"/>
<path d="M217.541 149.862C217.245 148.545 217.124 147.203 217.179 145.856C217.203 145.336 216.388 145.336 216.369 145.856C216.309 147.27 216.442 148.69 216.756 150.074C216.871 150.582 217.656 150.37 217.535 149.856L217.541 149.862Z" fill="#E17479"/>
<path d="M121.209 59.6196H120.104C119.697 59.6196 119.367 59.9497 119.367 60.3569V82.7469C119.367 83.1541 119.697 83.4842 120.104 83.4842H121.209C121.616 83.4842 121.946 83.1541 121.946 82.7469V60.3569C121.946 59.9497 121.616 59.6196 121.209 59.6196Z" fill="#001B40"/>
<path d="M211.628 52.9541H210.529C210.122 52.9541 209.792 53.2842 209.792 53.6914V65.5481C209.792 65.9553 210.122 66.2854 210.529 66.2854H211.628C212.035 66.2854 212.365 65.9553 212.365 65.5481V53.6914C212.365 53.2842 212.035 52.9541 211.628 52.9541Z" fill="#001B40"/>
<path d="M211.628 69.1438H210.529C210.122 69.1438 209.792 69.4739 209.792 69.8811V81.7378C209.792 82.145 210.122 82.4751 210.529 82.4751H211.628C212.035 82.4751 212.365 82.145 212.365 81.7378V69.8811C212.365 69.4739 212.035 69.1438 211.628 69.1438Z" fill="#001B40"/>
<path d="M196.601 34.0449H135.186C127.504 34.0449 121.276 40.276 121.276 47.9624V199.374C121.276 207.061 127.504 213.292 135.186 213.292H196.601C204.283 213.292 210.511 207.061 210.511 199.374V47.9624C210.511 40.276 204.283 34.0449 196.601 34.0449Z" fill="#333343"/>
<path d="M199.113 37.3022H189.195L188.096 41.3028C187.806 42.3664 186.834 43.1097 185.729 43.1097H148.027C146.922 43.1097 145.955 42.3724 145.659 41.3028L144.56 37.3022H132.667C128.167 37.3022 124.519 40.9523 124.519 45.4544V196.202C124.519 200.704 128.167 204.354 132.667 204.354H199.107C203.607 204.354 207.255 200.704 207.255 196.202V45.4484C207.255 40.9462 203.607 37.2961 199.107 37.2961L199.113 37.3022Z" fill="#FFC28A"/>
<path d="M176.324 40.1667C177.115 40.1667 177.756 39.5255 177.756 38.7345C177.756 37.9435 177.115 37.3022 176.324 37.3022C175.534 37.3022 174.893 37.9435 174.893 38.7345C174.893 39.5255 175.534 40.1667 176.324 40.1667Z" fill="#5264AE"/>
<path d="M169.626 39.6108H154.846C154.399 39.6108 154.037 39.2482 154.037 38.801C154.037 38.3538 154.399 37.9912 154.846 37.9912H169.626C170.073 37.9912 170.435 38.3538 170.435 38.801C170.435 39.2482 170.073 39.6108 169.626 39.6108Z" fill="#001B40"/>
<path d="M196.317 20.7378H135.47C132.801 20.7378 130.638 22.9023 130.638 25.5723V64.4542C130.638 67.1243 132.801 69.2888 135.47 69.2888H196.317C198.985 69.2888 201.149 67.1243 201.149 64.4542V25.5723C201.149 22.9023 198.985 20.7378 196.317 20.7378Z" fill="#5264AE"/>
<mask id="mask1_22_230" style="mask-type:luminance" maskUnits="userSpaceOnUse" x="130" y="20" width="72" height="50">
<path d="M196.317 20.7378H135.47C132.801 20.7378 130.638 22.9023 130.638 25.5723V64.4542C130.638 67.1243 132.801 69.2888 135.47 69.2888H196.317C198.985 69.2888 201.149 67.1243 201.149 64.4542V25.5723C201.149 22.9023 198.985 20.7378 196.317 20.7378Z" fill="white"/>
</mask>
<g mask="url(#mask1_22_230)">
<path d="M171.172 35.03C171.16 38.9944 168.762 42.4631 165.784 44.8804C162.801 47.2977 159.243 48.7783 155.843 50.5006C152.804 52.0416 149.748 53.8606 147.779 56.719C145.665 59.789 145.194 63.8802 146.565 67.349C147.821 70.5337 150.588 73.0296 153.855 74.0207C154.266 74.1476 154.689 74.2443 155.112 74.3228C155.402 74.3772 155.528 73.93 155.233 73.8756C151.868 73.2713 148.866 71.0414 147.338 67.9714C145.671 64.6054 145.937 60.4235 147.954 57.275C149.815 54.3682 152.865 52.5311 155.867 51.0022C159.183 49.3101 162.644 47.8718 165.621 45.5875C168.563 43.3273 171.021 40.1607 171.528 36.3837C171.589 35.9365 171.619 35.4833 171.619 35.03C171.619 34.7339 171.154 34.7279 171.154 35.03H171.172Z" fill="white"/>
<path d="M167.415 19.7227C166.576 18.9371 165.645 18.2603 164.643 17.6982C164.383 17.5532 164.148 17.9521 164.407 18.0971C167.832 20.0067 170.345 23.3788 171.305 27.174C171.577 28.2496 171.722 29.3495 171.728 30.4615C171.728 30.7576 172.193 30.7636 172.193 30.4615C172.163 26.4246 170.363 22.4724 167.415 19.7227Z" fill="white"/>
<path d="M175.787 18.7617C175.43 18.242 175.05 17.7344 174.651 17.2449C174.464 17.0092 174.138 17.3416 174.325 17.5712C177.629 21.6806 179.574 26.914 179.562 32.2018C179.556 37.1209 177.762 41.9857 174.542 45.7083C172.93 47.5696 170.991 49.0864 168.81 50.2225C166.582 51.3889 164.196 52.2168 161.883 53.1898C159.618 54.1446 157.377 55.2626 155.541 56.9244C153.722 58.5742 152.37 60.8827 152.847 63.4088C153.318 65.8986 155.245 67.8868 157.232 69.3069C159.352 70.8238 161.846 71.8269 164.431 72.2077C165.06 72.2983 165.688 72.3527 166.322 72.3769C166.618 72.389 166.618 71.9236 166.322 71.9115C163.688 71.8269 161.097 71.0836 158.808 69.7662C156.634 68.5153 154.447 66.6661 153.565 64.2427C153.131 63.0522 153.094 61.7832 153.517 60.5806C153.934 59.384 154.731 58.3446 155.637 57.4744C157.437 55.7521 159.708 54.6159 161.979 53.649C164.28 52.67 166.654 51.8482 168.883 50.706C171.015 49.6122 172.936 48.1739 174.548 46.3972C177.762 42.8559 179.701 38.2208 179.99 33.4467C180.298 28.2616 178.716 23.0161 175.787 18.7496V18.7617Z" fill="white"/>
<path d="M186.23 60.1998C182.346 56.725 176.838 55.3471 171.74 56.2899C170.471 56.5256 169.227 56.9123 168.049 57.4441C166.841 57.988 165.482 58.6709 164.745 59.8131C164.003 60.9613 163.997 62.4902 164.468 63.7411C164.975 65.0888 165.972 66.1765 167.059 67.089C169.656 69.2646 172.833 70.7089 176.173 71.2709C176.463 71.3193 176.59 70.8721 176.294 70.8237C173.461 70.3524 170.755 69.2344 168.418 67.5665C166.322 66.0617 163.846 63.6142 164.8 60.7618C165.247 59.4263 166.551 58.6951 167.741 58.1089C168.841 57.565 170 57.1601 171.196 56.8882C173.6 56.3382 176.125 56.3382 178.535 56.8519C181.253 57.432 183.82 58.6769 185.898 60.5382C186.121 60.7377 186.447 60.4113 186.224 60.2119L186.23 60.1998Z" fill="white"/>
<path d="M195.809 69.6695C194.178 67.6874 192.306 65.9167 190.24 64.3878C189.999 64.2125 189.769 64.6114 190.005 64.7866C192.034 66.2914 193.87 68.0439 195.477 69.9959C195.664 70.2255 195.996 69.8992 195.803 69.6695H195.809Z" fill="white"/>
<path d="M189.075 71.2711C188.151 71.2892 187.341 70.8239 186.592 70.3283C185.771 69.7845 184.961 69.2285 184.146 68.6786C182.473 67.5424 180.794 66.4124 179.121 65.2762C178.166 64.6296 177.206 63.983 176.252 63.3303C176.004 63.1611 175.769 63.566 176.016 63.7292C179.447 66.0498 182.859 68.4066 186.314 70.697C187.142 71.2469 188.048 71.7485 189.069 71.7304C189.365 71.7304 189.371 71.259 189.069 71.265L189.075 71.2711Z" fill="white"/>
<path d="M202.097 64.7928C198.817 62.5447 195.701 60.067 192.777 57.3717C191.43 56.1329 190.053 54.8578 189.038 53.3228C187.957 51.6851 187.528 49.8419 187.498 47.896C187.432 43.8592 188.489 39.9009 189.129 35.9426C189.667 32.5947 189.902 29.2045 189.069 25.8868C188.362 23.0767 186.906 20.3633 184.478 18.6833C184.182 18.4778 183.874 18.2905 183.554 18.1213C183.288 17.9823 183.053 18.3811 183.319 18.5201C185.976 19.9403 187.631 22.5751 188.459 25.4093C189.413 28.6908 189.256 32.0871 188.742 35.435C188.132 39.3812 187.094 43.2911 187.033 47.3098C187.003 49.1953 187.263 51.0868 188.163 52.7668C189.008 54.3381 190.271 55.6434 191.551 56.8641C194.402 59.5775 197.452 62.0854 200.665 64.3637C201.064 64.6477 201.463 64.9257 201.861 65.1977C202.109 65.3669 202.339 64.962 202.097 64.7988V64.7928Z" fill="white"/>
<path d="M197.609 29.0955C197.476 27.0711 197.102 25.0647 196.504 23.1249C195.827 20.9493 194.867 18.8644 193.641 16.9366C193.484 16.6828 193.079 16.9185 193.242 17.1723C195.411 20.5867 196.751 24.5148 197.108 28.5456C197.289 30.6305 197.192 32.7154 196.896 34.7822C196.588 36.9456 196.111 39.0789 195.749 41.2303C195.344 43.6234 195.09 46.0648 195.368 48.4881C195.405 48.7842 195.87 48.7842 195.833 48.4881C195.32 44.0403 196.613 39.6953 197.277 35.3382C197.591 33.2714 197.748 31.1925 197.609 29.1016V29.0955Z" fill="white"/>
<path d="M205.298 57.8431C202.936 56.5801 200.859 54.8155 199.252 52.6701C199.077 52.4344 198.672 52.6701 198.853 52.9058C200.508 55.1176 202.628 56.9487 205.069 58.248C205.334 58.387 205.57 57.9881 205.304 57.8491L205.298 57.8431Z" fill="white"/>
<path d="M158.917 41.1881C156.416 42.995 153.39 43.7564 150.479 44.6266C149.023 45.0618 147.574 45.5331 146.197 46.1737C144.916 46.772 143.714 47.5334 142.627 48.4399C140.471 50.2287 138.767 52.5553 137.704 55.1478C136.605 57.8189 136.261 60.7499 136.647 63.6083C137.1 66.926 138.52 70.0866 140.736 72.5945C140.936 72.8181 141.262 72.4918 141.063 72.2682C137.197 67.899 135.911 61.5113 137.867 56.006C138.792 53.4134 140.38 51.0687 142.422 49.2255C143.442 48.3069 144.578 47.5153 145.804 46.8808C147.127 46.1979 148.54 45.7084 149.96 45.2672C153.106 44.2943 156.428 43.551 159.146 41.5869C159.388 41.4117 159.152 41.0128 158.911 41.1881H158.917Z" fill="white"/>
<path d="M161.411 21.4088C160.62 20.2485 159.684 19.1909 158.621 18.2784C158.397 18.085 158.065 18.4113 158.295 18.6047C161.997 21.7774 164.033 26.6663 163.876 31.519C163.833 32.8969 163.604 34.2626 163.193 35.58C163.103 35.8641 163.55 35.991 163.64 35.7009C165.126 30.9268 164.214 25.5302 161.411 21.4088Z" fill="white"/>
<path d="M153.692 24.4241C153.487 22.6535 153.143 20.8889 152.569 19.1968C152.424 18.7737 152.267 18.3568 152.092 17.9519C151.977 17.6799 151.53 17.8008 151.645 18.0727C152.986 21.2635 153.396 24.7686 153.493 28.2072C153.578 31.3496 153.245 34.6371 151.439 37.3022C149.911 39.5623 147.544 41.1154 145.043 42.1125C143.744 42.6322 142.398 43.019 141.032 43.303C139.462 43.6294 137.849 43.859 136.243 43.853C134.461 43.853 132.661 43.5085 131.145 42.5295C129.84 41.6895 128.808 40.4204 128.481 38.8794C128.421 38.5894 127.974 38.7102 128.034 39.0003C128.669 42.0158 131.628 43.7925 134.491 44.1914C136.231 44.4331 137.994 44.276 139.722 44.0041C141.153 43.7805 142.573 43.4541 143.944 42.9948C146.607 42.1065 149.193 40.7166 151.041 38.5591C153.173 36.0693 153.892 32.8665 153.958 29.6575C153.994 27.911 153.892 26.1464 153.686 24.406L153.692 24.4241Z" fill="white"/>
<path d="M143.914 31.6337C143.654 32.6006 142.929 33.3379 142.053 33.7971C141.014 34.341 139.824 34.4196 138.677 34.2866C137.487 34.1476 136.309 33.7971 135.18 33.4043C134.225 33.072 133.289 32.6671 132.438 32.1232C131.477 31.5128 130.65 30.7151 130.106 29.7119C129.961 29.446 129.563 29.6817 129.707 29.9476C130.771 31.9056 132.782 33.0296 134.811 33.7669C137.064 34.5827 139.806 35.3744 142.102 34.2987C143.165 33.8032 144.046 32.9148 144.361 31.7666C144.439 31.4765 143.992 31.3557 143.914 31.6458V31.6337Z" fill="white"/>
<path d="M146.124 17.251C145.997 16.979 145.599 17.2147 145.726 17.4867C147.042 20.2726 147.453 23.4513 146.885 26.4729C146.831 26.763 147.278 26.8899 147.332 26.5938C147.924 23.4332 147.501 20.1517 146.124 17.2449V17.251Z" fill="white"/>
<path d="M142.446 16.9609C142.398 16.6648 141.951 16.7917 141.999 17.0818C142.289 18.8162 142.404 20.6654 142.102 22.4058C141.842 23.9227 141.147 25.3368 139.68 25.9955C138.212 26.6542 136.412 26.5877 134.896 26.1405C133.374 25.6933 132.003 24.7989 130.994 23.5661C129.865 22.1883 129.224 20.4297 129.182 18.653C129.176 18.3569 128.711 18.3508 128.717 18.653C128.795 22.1037 131 25.2159 134.238 26.4125C135.82 26.9986 137.656 27.1437 139.281 26.6421C140.078 26.3943 140.815 25.9713 141.359 25.3307C141.86 24.7385 142.192 24.0194 142.392 23.27C142.639 22.3514 142.712 21.3906 142.724 20.4418C142.736 19.2755 142.639 18.1091 142.446 16.9609Z" fill="white"/>
<path d="M134.757 49.2013C132.504 51.7515 130.885 54.8215 129.979 58.0969C129.073 61.3723 128.88 64.8471 129.436 68.2011C129.75 70.0865 130.305 71.9237 131.097 73.6581C131.218 73.93 131.622 73.6943 131.495 73.4224C130.118 70.4008 129.502 67.0649 129.599 63.7533C129.695 60.4416 130.499 57.136 131.973 54.1688C132.806 52.4948 133.845 50.9296 135.083 49.5276C135.282 49.304 134.956 48.9716 134.757 49.2013Z" fill="white"/>
</g>
<path d="M142.657 34.9756H139.263V60.6168H142.657V34.9756Z" fill="#8FA0E4"/>
<path d="M147.362 47.1345H144.632V60.6169H147.362V47.1345Z" fill="white"/>
<path d="M162.529 29.2949H152.092V60.6168H162.529V29.2949Z" fill="white"/>
<path d="M174.621 34.9756H171.226V60.6168H174.621V34.9756Z" fill="#8FA0E4"/>
<path d="M179.326 47.1345H176.596V60.6169H179.326V47.1345Z" fill="white"/>
<path d="M194.499 29.2949H184.062V60.6168H194.499V29.2949Z" fill="white"/>
<path d="M196.317 69.2888H135.47C132.801 69.2888 130.638 71.4533 130.638 74.1234V173.522C130.638 176.192 132.801 178.356 135.47 178.356H196.317C198.985 178.356 201.149 176.192 201.149 173.522V74.1234C201.149 71.4533 198.985 69.2888 196.317 69.2888Z" fill="white"/>
<path d="M130.638 151.035V174.634C130.638 176.688 132.299 178.35 134.352 178.35H197.434C199.488 178.35 201.149 176.688 201.149 174.634V151.035H130.638Z" fill="#5264AE"/>
<mask id="mask2_22_230" style="mask-type:luminance" maskUnits="userSpaceOnUse" x="130" y="151" width="72" height="28">
<path d="M130.638 151.035V174.634C130.638 176.688 132.299 178.35 134.352 178.35H197.434C199.488 178.35 201.149 176.688 201.149 174.634V151.035H130.638Z" fill="white"/>
</mask>
<g mask="url(#mask2_22_230)">
<path d="M187.698 160.124C186.441 158.957 184.889 158.232 183.331 157.561C181.676 156.848 179.912 156.166 178.571 154.921C177.424 153.857 176.56 152.268 176.717 150.66C176.753 150.267 176.868 149.881 177.043 149.524C177.176 149.258 176.771 149.022 176.644 149.288C175.944 150.733 176.234 152.382 177.025 153.73C177.919 155.253 179.38 156.244 180.939 157.005C182.564 157.803 184.303 158.371 185.855 159.326C187.257 160.184 188.61 161.411 189.038 163.061C189.377 164.39 188.893 165.968 187.836 166.844C187.305 167.285 186.628 167.49 185.946 167.394C185.137 167.279 184.43 166.826 183.717 166.457C183.035 166.101 182.304 165.768 181.519 165.78C180.715 165.792 179.966 166.155 179.362 166.675C178.058 167.787 177.393 169.533 177.206 171.195C176.801 174.863 178.728 178.229 181.247 180.737C181.567 181.051 181.893 181.36 182.231 181.656C182.455 181.855 182.787 181.523 182.558 181.329C179.882 178.979 177.599 175.836 177.611 172.132C177.611 170.409 178.136 168.566 179.362 167.309C179.942 166.711 180.703 166.246 181.555 166.252C182.358 166.252 183.089 166.656 183.778 167.031C184.448 167.394 185.143 167.768 185.91 167.871C186.562 167.956 187.22 167.817 187.782 167.466C188.912 166.759 189.546 165.399 189.6 164.094C189.667 162.559 188.791 161.151 187.698 160.136V160.124Z" fill="white"/>
<path d="M194.281 161.991C193.562 158.698 190.971 156.093 187.927 154.812C186.206 154.087 184.321 153.736 182.715 152.739C181.422 151.941 180.299 150.437 180.431 148.847C180.462 148.466 180.582 148.11 180.776 147.784C180.927 147.524 180.522 147.288 180.377 147.548C179.592 148.926 180.045 150.57 180.957 151.766C182.05 153.192 183.729 153.845 185.378 154.401C186.29 154.703 187.208 154.987 188.084 155.386C188.869 155.749 189.624 156.196 190.307 156.728C191.66 157.779 192.789 159.163 193.424 160.764C194.094 162.456 194.227 164.372 193.719 166.125C193.236 167.805 192.149 169.237 190.651 170.131C189.944 170.554 189.171 170.844 188.362 170.983C187.486 171.134 186.635 171.044 185.771 170.85C184.901 170.657 183.989 170.397 183.095 170.566C182.322 170.711 181.682 171.231 181.368 171.95C180.631 173.618 181.567 175.292 182.63 176.567C183.856 178.03 185.294 179.317 186.876 180.387C187.275 180.659 187.692 180.918 188.108 181.16C188.368 181.311 188.604 180.906 188.344 180.761C186.695 179.8 185.185 178.622 183.868 177.25C182.702 176.035 181.186 174.392 181.658 172.555C181.869 171.727 182.485 171.116 183.349 171.008C184.255 170.893 185.167 171.219 186.049 171.394C187.643 171.715 189.256 171.449 190.675 170.669C192.101 169.884 193.236 168.633 193.87 167.134C194.553 165.52 194.668 163.701 194.293 161.997L194.281 161.991Z" fill="white"/>
<path d="M197.428 165.919C197.126 168.814 196.16 172.005 193.423 173.485C192.813 173.812 192.173 173.963 191.503 174.114C190.923 174.247 190.325 174.422 189.884 174.845C188.845 175.848 189.352 177.42 190.162 178.38C191.225 179.637 192.717 180.598 194.215 181.251C194.486 181.372 194.722 180.967 194.45 180.852C193.109 180.272 191.853 179.456 190.82 178.411C190.319 177.909 189.86 177.293 189.775 176.567C189.697 175.897 189.956 175.262 190.56 174.924C191.116 174.616 191.781 174.549 192.385 174.392C192.995 174.235 193.58 173.969 194.106 173.618C195.169 172.917 196.015 171.908 196.6 170.778C197.38 169.273 197.718 167.593 197.893 165.919C197.923 165.623 197.458 165.623 197.428 165.919Z" fill="white"/>
<path d="M196.226 155.839C194.946 154.099 193.212 152.806 191.479 151.543C190.434 150.781 189.389 150.026 188.422 149.174C188.199 148.974 187.867 149.307 188.096 149.5C191.183 152.219 195.423 154.141 197.029 158.184C197.44 159.217 197.615 160.317 197.482 161.423C197.446 161.719 197.911 161.719 197.947 161.423C198.195 159.411 197.41 157.435 196.232 155.833L196.226 155.839Z" fill="white"/>
<path d="M182.956 161.713C181.651 161.254 180.353 160.795 179.048 160.329C177.846 159.9 176.584 159.538 175.491 158.861C174.458 158.22 173.582 157.368 172.724 156.516C171.861 155.652 170.997 154.794 170.592 153.615C170.151 152.34 170.145 150.968 170.145 149.639C170.145 149.343 169.68 149.337 169.68 149.639C169.68 150.872 169.692 152.129 170.012 153.325C170.339 154.528 171.027 155.471 171.891 156.347C172.779 157.253 173.679 158.16 174.712 158.903C175.781 159.677 176.983 160.1 178.215 160.535C179.749 161.079 181.289 161.623 182.823 162.166C183.107 162.269 183.228 161.816 182.944 161.719L182.956 161.713Z" fill="white"/>
<path d="M175.738 181.033C173.83 179.674 172.465 177.619 171.837 175.371C171.528 174.265 171.39 173.111 171.45 171.956C171.516 170.687 171.879 169.503 172.32 168.312C172.797 167.019 173.334 165.678 173.274 164.276C173.22 163.025 172.646 161.925 171.861 160.982C171.057 160.021 170.073 159.242 169.155 158.402C168.188 157.519 167.276 156.571 166.461 155.543C164.673 153.283 163.332 150.461 163.773 147.518C163.815 147.228 163.368 147.101 163.326 147.397C162.94 150.002 163.821 152.522 165.259 154.673C165.996 155.779 166.866 156.8 167.796 157.743C168.714 158.667 169.729 159.483 170.665 160.39C171.565 161.26 172.416 162.269 172.706 163.514C173.045 164.958 172.531 166.409 172.036 167.75C171.577 168.989 171.142 170.216 171.015 171.539C170.906 172.7 170.997 173.872 171.263 175.002C171.861 177.565 173.353 179.903 175.503 181.432C175.744 181.607 175.98 181.203 175.738 181.033Z" fill="white"/>
<path d="M166.527 162.191C165.754 161.327 164.89 160.559 164.141 159.671C162.583 157.828 161.321 155.718 160.439 153.47C160.191 152.842 159.974 152.201 159.781 151.555C159.563 150.817 159.352 150.068 159.442 149.288C159.479 148.992 159.014 148.992 158.977 149.288C158.899 149.971 159.044 150.648 159.225 151.307C159.382 151.881 159.563 152.449 159.762 153.005C160.161 154.111 160.65 155.187 161.212 156.22C162.36 158.317 163.839 160.154 165.531 161.828C166.388 162.674 167.391 163.689 167.264 165.001C167.234 165.297 167.699 165.297 167.729 165.001C167.832 163.907 167.222 162.97 166.521 162.191H166.527Z" fill="white"/>
<path d="M168.968 181.021C166.878 177.848 166.431 173.739 167.772 170.186C167.88 169.908 167.427 169.787 167.325 170.065C165.941 173.721 166.419 177.987 168.569 181.257C168.732 181.505 169.137 181.275 168.968 181.021Z" fill="white"/>
<path d="M162.547 180.81C161.357 179.68 161.025 177.976 161.103 176.392C161.2 174.446 161.883 172.591 162.118 170.663C162.583 166.923 161.26 163.248 159.581 159.967C158.687 158.226 157.685 156.534 156.646 154.879C155.649 153.289 154.653 151.639 153.408 150.237C152.279 148.968 150.781 147.929 149.036 147.808C147.507 147.705 146.124 148.455 145.158 149.603C144.137 150.811 143.545 152.322 143.225 153.857C142.838 155.694 142.802 157.592 143.056 159.453C143.545 163.103 145.14 166.506 147.266 169.485C147.785 170.21 148.335 170.917 148.903 171.6C149.446 172.247 149.996 172.917 150.666 173.443C151.282 173.921 152.013 174.259 152.811 174.217C153.559 174.174 154.26 173.836 154.822 173.353C156.139 172.216 156.447 170.391 156.428 168.736C156.41 166.995 156.145 165.249 155.673 163.569C155.202 161.895 154.526 160.275 153.65 158.77C153.209 158.009 152.726 157.284 152.188 156.589C151.717 155.972 151.228 155.332 150.491 155.018C149.839 154.74 149.126 154.921 148.848 155.616C148.703 155.99 148.685 156.42 148.667 156.812C148.649 157.272 148.667 157.731 148.715 158.19C148.909 160.027 149.573 161.762 150.364 163.418C150.763 164.251 151.204 165.067 151.645 165.883C151.79 166.149 152.188 165.913 152.043 165.647C151.198 164.088 150.358 162.505 149.784 160.819C149.501 159.985 149.277 159.115 149.18 158.239C149.132 157.815 149.114 157.392 149.126 156.963C149.138 156.571 149.126 156.105 149.295 155.737C149.676 154.891 150.684 155.58 151.107 156.003C151.681 156.577 152.158 157.29 152.605 157.967C153.517 159.344 154.26 160.831 154.81 162.39C155.359 163.949 155.722 165.569 155.879 167.213C156.03 168.832 156.102 170.681 155.233 172.132C154.846 172.778 154.236 173.328 153.523 173.588C152.774 173.86 152.007 173.751 151.331 173.334C150.66 172.923 150.129 172.307 149.615 171.721C149.048 171.062 148.498 170.385 147.985 169.69C145.937 166.923 144.33 163.798 143.672 160.396C143.334 158.637 143.249 156.812 143.485 155.03C143.696 153.47 144.131 151.905 144.995 150.576C145.762 149.397 146.922 148.406 148.371 148.267C150.062 148.11 151.633 149.053 152.768 150.225C153.994 151.494 154.937 153.053 155.885 154.534C156.888 156.105 157.848 157.707 158.736 159.35C160.397 162.432 161.822 165.835 161.744 169.4C161.665 172.712 159.775 176.108 161.067 179.39C161.327 180.048 161.701 180.641 162.215 181.124C162.432 181.33 162.758 181.003 162.541 180.798L162.547 180.81Z" fill="white"/>
<path d="M154.049 180.272C150.153 178.314 146.891 175.244 144.499 171.606C141.872 167.611 140.344 162.976 139.776 158.244C139.438 155.422 139.426 152.57 139.686 149.748C139.716 149.452 139.251 149.452 139.22 149.748C138.749 154.848 139.166 160.076 140.785 164.952C142.21 169.243 144.584 173.219 147.827 176.38C149.591 178.102 151.608 179.565 153.813 180.677C154.079 180.81 154.314 180.411 154.049 180.278V180.272Z" fill="white"/>
<path d="M136.617 165.073C135.464 160.909 135.077 156.534 135.506 152.231C135.627 151.053 135.82 149.856 136.309 148.769C136.43 148.497 136.031 148.261 135.911 148.533C135.047 150.473 134.938 152.709 134.884 154.8C134.829 157.018 134.986 159.241 135.343 161.435C135.548 162.704 135.826 163.955 136.17 165.194C136.249 165.484 136.696 165.357 136.617 165.073Z" fill="white"/>
<path d="M144.705 180.834C142.156 177.963 140.199 174.597 138.955 170.965C138.858 170.681 138.411 170.802 138.508 171.086C139.776 174.797 141.775 178.229 144.379 181.16C144.578 181.384 144.904 181.058 144.705 180.834Z" fill="white"/>
<path d="M138.459 180.61C136.007 176.833 134.129 172.7 132.872 168.379C131.616 164.058 130.976 159.562 130.994 155.06C131.006 152.528 131.224 149.996 131.652 147.494C131.701 147.204 131.254 147.077 131.205 147.373C130.432 151.869 130.33 156.462 130.885 160.988C131.441 165.484 132.631 169.896 134.425 174.053C135.445 176.416 136.66 178.689 138.055 180.846C138.218 181.094 138.616 180.864 138.453 180.61H138.459Z" fill="white"/>
</g>
<path d="M138.23 74.9875H136.545V86.8443H138.23V74.9875Z" fill="#001B40"/>
<path d="M139.692 74.9875H138.852V86.8443H139.692V74.9875Z" fill="#001B40"/>
<path d="M144.034 74.9875H143.612V86.8443H144.034V74.9875Z" fill="#001B40"/>
<path d="M144.801 74.9875H144.379V86.8443H144.801V74.9875Z" fill="#001B40"/>
<path d="M150.449 74.9875H150.026V86.8443H150.449V74.9875Z" fill="#001B40"/>
<path d="M142.651 74.9875H140.954V86.8443H142.651V74.9875Z" fill="#001B40"/>
<path d="M149.639 74.9875H148.522V86.8443H149.639V74.9875Z" fill="#001B40"/>
<path d="M147.991 74.9875H145.949V86.8443H147.991V74.9875Z" fill="#001B40"/>
<path d="M153.306 74.9875H151.621V86.8443H153.306V74.9875Z" fill="#001B40"/>
<path d="M154.761 74.9875H153.922V86.8443H154.761V74.9875Z" fill="#001B40"/>
<path d="M159.11 74.9875H158.688V86.8443H159.11V74.9875Z" fill="#001B40"/>
<path d="M159.877 74.9875H159.454V86.8443H159.877V74.9875Z" fill="#001B40"/>
<path d="M165.525 74.9875H165.102V86.8443H165.525V74.9875Z" fill="#001B40"/>
<path d="M157.727 74.9875H156.03V86.8443H157.727V74.9875Z" fill="#001B40"/>
<path d="M164.715 74.9875H163.598V86.8443H164.715V74.9875Z" fill="#001B40"/>
<path d="M163.066 74.9875H161.025V86.8443H163.066V74.9875Z" fill="#001B40"/>
<path d="M168.382 74.9875H166.697V86.8443H168.382V74.9875Z" fill="#001B40"/>
<path d="M169.837 74.9875H168.998V86.8443H169.837V74.9875Z" fill="#001B40"/>
<path d="M174.186 74.9875H173.763V86.8443H174.186V74.9875Z" fill="#001B40"/>
<path d="M174.953 74.9875H174.53V86.8443H174.953V74.9875Z" fill="#001B40"/>
<path d="M180.595 74.9875H180.172V86.8443H180.595V74.9875Z" fill="#001B40"/>
<path d="M172.803 74.9875H171.106V86.8443H172.803V74.9875Z" fill="#001B40"/>
<path d="M179.785 74.9875H178.668V86.8443H179.785V74.9875Z" fill="#001B40"/>
<path d="M178.136 74.9875H176.095V86.8443H178.136V74.9875Z" fill="#001B40"/>
<path d="M183.458 74.9875H181.772V86.8443H183.458V74.9875Z" fill="#001B40"/>
<path d="M184.913 74.9875H184.074V86.8443H184.913V74.9875Z" fill="#001B40"/>
<path d="M189.256 74.9875H188.833V86.8443H189.256V74.9875Z" fill="#001B40"/>
<path d="M190.029 74.9875H189.606V86.8443H190.029V74.9875Z" fill="#001B40"/>
<path d="M187.879 74.9875H186.182V86.8443H187.879V74.9875Z" fill="#001B40"/>
<path d="M195.242 74.9875H193.744V86.8443H195.242V74.9875Z" fill="#001B40"/>
<path d="M193.212 74.9875H191.171V86.8443H193.212V74.9875Z" fill="#001B40"/>
<path d="M154.768 145.904C154.598 145.904 154.459 145.765 154.459 145.596V91.7152C154.459 91.546 154.598 91.407 154.768 91.407C154.937 91.407 155.076 91.546 155.076 91.7152V145.596C155.076 145.765 154.937 145.904 154.768 145.904Z" fill="#F0F3FF"/>
<path d="M181.772 145.904C181.603 145.904 181.464 145.765 181.464 145.596V91.7152C181.464 91.546 181.603 91.407 181.772 91.407C181.942 91.407 182.08 91.546 182.08 91.7152V145.596C182.08 145.765 181.942 145.904 181.772 145.904Z" fill="#F0F3FF"/>
<path d="M190.029 138.375H187.879V145.904H190.029V138.375Z" fill="#5264AE"/>
<path d="M195.242 134.168H191.593V145.904H195.242V134.168Z" fill="#384A92"/>
<path d="M190.029 119.163H187.879V126.693H190.029V119.163Z" fill="#5264AE"/>
<path d="M195.242 114.957H191.593V126.693H195.242V114.957Z" fill="#384A92"/>
<path d="M190.029 99.9519H187.879V107.482H190.029V99.9519Z" fill="#5264AE"/>
<path d="M195.242 95.7397H191.593V107.476H195.242V95.7397Z" fill="#384A92"/>
<path d="M177.762 93.2983H159.75V106.593H177.762V93.2983Z" fill="#384A92"/>
<path d="M177.762 128.089H159.75V141.384H177.762V128.089Z" fill="#384A92"/>
<path d="M171.667 116.722L169.421 112.83C169.233 112.504 168.768 112.504 168.581 112.83L166.334 116.722C166.147 117.048 166.382 117.447 166.757 117.447H168.001V120.759C168.001 121.043 168.231 121.272 168.515 121.272H169.487C169.771 121.272 170 121.043 170 120.759V117.447H171.245C171.619 117.447 171.849 117.042 171.667 116.722Z" fill="#5264AE"/>
<path d="M157.486 162.584C157.202 161.919 156.797 161.296 156.265 160.813C155.74 160.317 155.094 159.949 154.411 159.755C154.049 159.659 153.68 159.61 153.312 159.616L153.336 159.586C151.56 159.616 150.805 160.052 150.805 160.052L152.382 161.46C152.412 161.163 152.587 160.783 152.78 160.438C153.777 160.595 154.61 161.121 155.19 161.834C155.722 162.493 156.048 163.303 156.139 164.143H145.967V161.375C145.967 161.145 145.78 160.958 145.55 160.958C145.321 160.958 145.134 161.145 145.134 161.375V164.143H142.875C142.633 163.357 141.914 162.783 141.051 162.783C139.994 162.783 139.136 163.641 139.136 164.699C139.136 165.756 139.994 166.614 141.051 166.614C141.914 166.614 142.633 166.04 142.875 165.255H145.134V168.022C145.134 168.252 145.321 168.439 145.55 168.439C145.78 168.439 145.967 168.252 145.967 168.022V165.255H156.139C156.042 166.095 155.71 166.898 155.178 167.551C154.592 168.264 153.759 168.778 152.762 168.929C152.575 168.591 152.406 168.222 152.382 167.938L150.805 169.346C150.805 169.346 151.524 169.745 153.179 169.805C153.59 169.823 154.013 169.781 154.423 169.672C155.112 169.473 155.758 169.104 156.284 168.603C156.821 168.113 157.22 167.485 157.504 166.82C157.775 166.149 157.908 165.424 157.914 164.705C157.902 163.986 157.769 163.26 157.498 162.59L157.486 162.584ZM141.051 165.684C140.507 165.684 140.066 165.243 140.066 164.699C140.066 164.155 140.507 163.714 141.051 163.714C141.594 163.714 142.035 164.155 142.035 164.699C142.035 165.243 141.594 165.684 141.051 165.684Z" fill="white"/>
<path d="M83.1995 254.476C83.1995 254.476 88.4482 230.678 88.4482 218.332C88.4482 205.986 88.2368 204.318 89.4931 200.553C90.7495 196.788 97.8585 180.26 99.1088 174.192C100.365 168.125 100.782 162.475 102.244 158.921C103.705 155.368 108.936 141.765 108.936 137.166C108.936 132.567 108.308 125.66 109.147 125.031C109.987 124.403 119.603 122.729 125.455 134.863C131.308 146.998 127.757 159.338 126.083 163.943C124.41 168.548 123.154 171.268 122.949 172.73C122.737 174.192 122.737 179.003 124.41 181.305C126.083 183.608 136.327 202.849 137.372 215.401C138.417 227.953 132.981 242.595 124.41 248.874C115.84 255.147 93.0265 259.915 83.1995 254.476Z" fill="#EAAB93"/>
<path d="M112.548 140.713C113.17 140.357 111.569 126.669 110.591 125.696C110.295 125.4 109.932 125.11 109.57 124.85C109.365 124.91 109.214 124.977 109.141 125.031C108.308 125.66 108.93 132.561 108.93 137.166C108.93 138.387 108.561 140.248 107.994 142.375C109.002 142.037 112.028 141.003 112.542 140.707L112.548 140.713Z" fill="#FFE0D4"/>
<path d="M133.066 238.365C131.646 240.668 130.215 242.982 128.421 245.019C126.561 247.134 124.338 248.699 121.789 249.883C120.243 250.603 118.636 251.177 116.993 251.624C116.534 251.751 116.728 252.464 117.193 252.343C120.08 251.563 122.967 250.397 125.443 248.699C127.714 247.14 129.526 245.031 131.097 242.789C132.021 241.471 132.866 240.105 133.706 238.74C133.96 238.329 133.313 237.96 133.066 238.365Z" fill="#E17479"/>
<path d="M114.076 252.705C112.065 253.201 110.017 253.545 107.951 253.733C107.48 253.775 107.474 254.518 107.951 254.476C110.084 254.283 112.198 253.932 114.275 253.425C114.74 253.31 114.541 252.591 114.076 252.705Z" fill="#E17479"/>
<path d="M120.593 180.707C118.213 181.873 115.785 183.118 114.161 185.282C113.871 185.662 114.517 186.037 114.801 185.656C116.341 183.608 118.727 182.447 120.968 181.348C121.396 181.136 121.022 180.496 120.593 180.707Z" fill="#E17479"/>
<path d="M119.838 169.721C118.34 169.08 116.794 168.566 115.205 168.192C114.74 168.083 114.541 168.802 115.006 168.911C116.528 169.267 118.026 169.751 119.464 170.361C119.651 170.44 119.862 170.415 119.971 170.228C120.062 170.071 120.025 169.799 119.838 169.721Z" fill="#E17479"/>
<path d="M243.622 186.986C243.622 186.986 251.576 191.929 256.88 195.307C262.183 198.685 266.399 203.387 267.123 205.677C267.848 207.968 268.567 214.476 268.567 214.476C268.567 214.476 260.733 213.389 259.29 212.065C257.846 210.742 253.624 203.985 252.422 201.091C251.214 198.196 243.628 186.986 243.628 186.986H243.622Z" fill="#EAAB93"/>
<path d="M258.927 201.925C259.875 203.315 260.624 205.538 259.181 206.403C258.529 206.795 257.695 206.675 256.946 206.536C253.376 205.883 249.765 205.218 246.449 203.738C238.289 200.094 233.07 192.123 228.304 184.556C226.589 181.831 220.766 174.386 227.779 177.142C231.977 178.791 236.005 180.87 239.792 183.324C247.3 188.188 253.878 194.522 258.921 201.919L258.927 201.925Z" fill="#EAAB93"/>
<path d="M187.196 221.595C187.196 221.595 186.526 204.167 187.643 201.931C188.761 199.695 194.342 189.645 194.342 189.645L211.537 191.881L221.141 196.123C221.141 196.123 240.125 201.036 242.354 201.26C244.588 201.484 243.918 195.9 241.683 192.993C239.448 190.086 231.186 180.036 227.169 177.129C223.146 174.223 209.303 163.055 205.286 161.49C201.269 159.925 195.012 159.925 191.666 161.937C188.314 163.949 172.682 185.62 170.9 189.645C169.112 193.67 167.995 201.266 171.124 207.968C174.253 214.67 187.202 221.595 187.202 221.595H187.196Z" fill="#EAAB93"/>
<path d="M194.517 184.871L186.532 167.43C180.643 174.7 172.175 186.744 170.888 189.645C169.608 192.533 168.678 197.265 169.408 202.19C172.048 206.36 175.744 212.035 178.861 216.229C183.035 219.377 187.19 221.601 187.19 221.601C187.19 221.601 186.52 204.173 187.637 201.937C188.754 199.701 194.335 189.651 194.335 189.651L195.749 189.832C195.084 186.992 194.511 184.877 194.511 184.877L194.517 184.871Z" fill="#E17479"/>
<path d="M197.917 230.086C197.917 230.086 193.007 200.371 191.442 194.111C189.878 187.856 173.576 146.073 170.23 138.254C166.878 130.434 160.85 117.477 162.638 110.769C164.425 104.061 168.442 101.608 172.018 104.291C175.593 106.974 187.83 131.951 190.307 136.332C192.783 140.713 210.65 178.471 213.108 182.943C215.566 187.415 218.689 192.552 221.147 196.123C223.605 199.695 197.923 230.086 197.923 230.086H197.917Z" fill="#EAAB93"/>
<path d="M170.882 123.345C171.462 123.46 178.595 120.299 181.657 119.84C177.81 112.655 173.812 105.639 172.012 104.291C169.215 102.194 166.141 103.245 164.081 107.022C164.003 107.808 164.027 108.666 164.262 109.488C164.999 112.062 170.272 123.23 170.882 123.351V123.345Z" fill="#FFE0D4"/>
<path d="M220.06 194.177C215.53 185.995 211.157 177.721 206.935 169.376C205.727 166.989 204.537 164.602 203.353 162.203C203.142 161.774 202.502 162.148 202.713 162.577C206.844 170.971 211.133 179.281 215.578 187.518C216.847 189.868 218.127 192.213 219.42 194.552C219.649 194.969 220.295 194.594 220.06 194.177Z" fill="#E17479"/>
<path d="M243.827 196.377C241.025 191.059 237.401 186.176 233.112 181.964C231.892 180.761 230.618 179.619 229.295 178.537C228.927 178.235 228.401 178.761 228.77 179.063C233.384 182.858 237.407 187.36 240.644 192.388C241.556 193.808 242.402 195.265 243.187 196.758C243.41 197.181 244.051 196.806 243.827 196.383V196.377Z" fill="#E17479"/>
<path d="M259.99 202.94C257.647 199.332 254.929 195.978 251.891 192.938C251.552 192.6 251.027 193.126 251.365 193.464C254.361 196.461 257.037 199.761 259.35 203.314C259.61 203.713 260.256 203.345 259.99 202.94Z" fill="#E17479"/>
<path d="M197.917 230.086C197.917 230.086 196.933 230.847 192.705 225.282C188.477 219.716 180.021 204.354 176.904 198.341C173.787 192.328 160.88 182.756 156.428 182.085C151.977 181.414 149.084 182.532 149.531 184.091C149.978 185.65 156.875 197.362 158.47 203.617C159.805 208.868 161.103 220.163 165.108 226.176C169.112 232.189 173.564 241.985 175.569 246.886C177.574 251.787 184.249 262.024 190.699 269.82C197.15 277.616 213.996 288.729 224.686 302.876C224.686 302.876 262.153 310.484 286.615 286.3C286.615 286.3 277.488 267.82 275.93 260.918C274.372 254.017 270.313 220.393 268.561 214.494C266.809 208.596 249.227 201.919 248.116 201.024C247.004 200.136 222.077 194.57 222.077 194.57L212.951 202.807L197.911 230.104L197.917 230.086Z" fill="#EAAB93"/>
<path d="M153.197 184.593C152.11 183.892 150.388 183.716 149.501 183.674C149.489 183.807 149.489 183.94 149.531 184.085C149.905 185.396 154.87 193.929 157.371 200.323L157.751 200.752C158.077 200.752 161.593 198.438 161.593 197.573C161.593 196.709 154.707 185.572 153.197 184.593Z" fill="#FFE0D4"/>
<path d="M185.892 199.133C184.291 198.147 183.047 196.685 182.304 194.963C182.225 194.775 181.953 194.739 181.796 194.83C181.603 194.939 181.585 195.156 181.664 195.337C182.455 197.168 183.82 198.734 185.517 199.779C185.928 200.033 186.296 199.386 185.892 199.139V199.133Z" fill="#EAAB93"/>
<path d="M185.523 161.725C185.433 161.568 185.179 161.471 185.016 161.592C184.116 162.251 183.222 162.91 182.322 163.562C182.159 163.683 182.08 163.883 182.189 164.07C182.28 164.227 182.533 164.324 182.696 164.203C183.596 163.544 184.49 162.885 185.39 162.233C185.553 162.112 185.632 161.912 185.523 161.725Z" fill="#E17479"/>
<path d="M181.017 211.328C180.969 211.146 180.752 211.001 180.558 211.068C179.151 211.57 177.895 212.446 176.964 213.612C176.838 213.769 176.813 213.987 176.964 214.138C177.091 214.265 177.363 214.295 177.49 214.138C178.342 213.068 179.471 212.24 180.758 211.781C180.945 211.715 181.072 211.527 181.017 211.322V211.328Z" fill="#E17479"/>
<path d="M181.325 214.633C181.223 214.47 180.993 214.386 180.818 214.5C180.48 214.718 180.147 214.942 179.809 215.159C179.731 215.214 179.664 215.286 179.64 215.383C179.616 215.473 179.628 215.588 179.676 215.667C179.779 215.83 180.009 215.915 180.184 215.8C180.522 215.582 180.854 215.359 181.192 215.141C181.271 215.087 181.337 215.014 181.362 214.917C181.386 214.827 181.374 214.712 181.325 214.633Z" fill="#E17479"/>
<path d="M234.357 215.999C234.29 217.262 233.964 218.501 233.402 219.631C233.191 220.06 233.831 220.435 234.042 220.006C234.671 218.755 235.027 217.395 235.099 215.999C235.124 215.522 234.381 215.522 234.357 215.999Z" fill="#E17479"/>
<path d="M251.516 215.461C251.401 214.784 251.293 214.102 251.178 213.425C251.148 213.231 250.9 213.111 250.719 213.165C250.514 213.231 250.423 213.419 250.459 213.624C250.574 214.301 250.683 214.984 250.797 215.661C250.828 215.854 251.075 215.975 251.257 215.921C251.462 215.854 251.552 215.667 251.516 215.461Z" fill="#E17479"/>
<path d="M262.624 216.761C262.443 216.325 261.724 216.513 261.905 216.96C262.69 218.864 263.065 220.9 263.004 222.955C262.992 223.432 263.735 223.432 263.747 222.955C263.808 220.84 263.427 218.719 262.618 216.761H262.624Z" fill="#E17479"/>
</g>
<path d="M136.829 141.626C137.058 141.221 137.378 140.894 137.789 140.665C138.2 140.429 138.659 140.314 139.172 140.314C139.686 140.314 140.145 140.435 140.555 140.671C140.966 140.906 141.286 141.227 141.516 141.638C141.745 142.043 141.86 142.496 141.86 142.979C141.86 143.463 141.745 143.916 141.516 144.327C141.286 144.738 140.966 145.058 140.555 145.3C140.145 145.536 139.686 145.656 139.172 145.656C138.659 145.656 138.2 145.536 137.789 145.3C137.378 145.064 137.058 144.738 136.829 144.327C136.599 143.916 136.484 143.469 136.484 142.979C136.484 142.49 136.599 142.037 136.829 141.626ZM138.188 143.849C138.429 144.061 138.755 144.17 139.166 144.17C139.577 144.17 139.897 144.067 140.139 143.849C140.38 143.632 140.501 143.348 140.501 142.973C140.501 142.599 140.38 142.321 140.139 142.109C139.897 141.898 139.571 141.789 139.166 141.789C138.761 141.789 138.423 141.891 138.188 142.103C137.946 142.314 137.831 142.605 137.831 142.973C137.831 143.342 137.952 143.632 138.188 143.849Z" fill="#384A92"/>
<path d="M141.806 134.815V136.271L138.882 138.199H141.806V139.656H136.575V138.199L139.535 136.271H136.575V134.815H141.806Z" fill="#384A92"/>
<path d="M140.7 132.549V130.911H141.806V134.005H136.563V132.549H140.7Z" fill="#384A92"/>
<path d="M136.563 128.905H141.806V130.361H136.563V128.905Z" fill="#384A92"/>
<path d="M141.806 123.254V124.711L138.882 126.639H141.806V128.095H136.575V126.639L139.535 124.711H136.575V123.254H141.806Z" fill="#384A92"/>
<path d="M137.729 120.988H138.592V119.29H139.698V120.988H140.646V119.073H141.806V122.451H136.563V119.073H137.723V120.988H137.729Z" fill="#384A92"/>
<path d="M136.563 113.09H137.723V114.504H141.8V115.954H137.723V117.356H136.563V113.09Z" fill="#384A92"/>
<path d="M136.563 111.15H141.806V112.606H136.563V111.15Z" fill="#384A92"/>
<path d="M136.762 106.714C136.925 106.364 137.161 106.074 137.463 105.85C137.765 105.626 138.115 105.475 138.52 105.397V106.932C138.314 107.016 138.151 107.149 138.037 107.325C137.922 107.5 137.861 107.705 137.861 107.941C137.861 108.261 137.982 108.521 138.218 108.72C138.459 108.92 138.78 109.017 139.178 109.017C139.577 109.017 139.897 108.92 140.139 108.72C140.38 108.521 140.501 108.261 140.501 107.941C140.501 107.711 140.441 107.506 140.326 107.325C140.205 107.149 140.042 107.016 139.837 106.932V105.397C140.447 105.518 140.936 105.796 141.298 106.237C141.661 106.678 141.842 107.24 141.842 107.917C141.842 108.436 141.727 108.89 141.504 109.276C141.28 109.663 140.966 109.965 140.561 110.171C140.157 110.382 139.698 110.485 139.178 110.485C138.659 110.485 138.2 110.382 137.795 110.171C137.39 109.959 137.076 109.663 136.853 109.276C136.629 108.89 136.515 108.436 136.515 107.917C136.515 107.47 136.599 107.065 136.762 106.714Z" fill="#384A92"/>
<path d="M139.124 101.91L141.806 99.8793V101.632L139.486 103.282H141.806V104.738H136.563V103.282H138.828L136.563 101.614V99.8733L139.124 101.904V101.91Z" fill="#384A92"/>
<path d="M137.729 97.9455H138.592V96.2473H139.698V97.9455H140.646V96.0298H141.806V99.4079H136.563V96.0298H137.723V97.9455H137.729Z" fill="#384A92"/>
<path d="M136.563 91.4128H137.723V92.827H141.8V94.2773H137.723V95.6793H136.563V91.4128Z" fill="#384A92"/>
<path d="M145.212 143.843H147.61C147.906 143.843 148.136 143.928 148.305 144.091C148.468 144.254 148.552 144.484 148.552 144.78C148.552 145.1 148.462 145.348 148.274 145.529C148.087 145.711 147.827 145.801 147.489 145.801V145.27C147.67 145.27 147.809 145.233 147.912 145.155C148.015 145.076 148.063 144.961 148.063 144.798C148.063 144.653 148.021 144.544 147.936 144.472C147.852 144.405 147.743 144.369 147.61 144.369H145.212V143.837V143.843Z" fill="#5264AE"/>
<path d="M145.647 142.689H146.65V141.469H147.06V142.689H148.087V141.33H148.522V143.221H145.212V141.33H145.641V142.689H145.647Z" fill="#5264AE"/>
<path d="M147.803 138.834V140.23L148.522 140.484V141.058L145.267 139.837V139.221L148.522 138.006V138.58L147.803 138.834ZM147.393 138.985L145.846 139.535L147.393 140.085V138.985Z" fill="#5264AE"/>
<path d="M148.522 134.936V135.468L146.082 137.075H148.522V137.607H145.218V137.075L147.671 135.468H145.218V134.936H148.522Z" fill="#5264AE"/>
<path d="M148.522 131.612V132.144L146.082 133.751H148.522V134.283H145.218V133.751L147.671 132.144H145.218V131.612H148.522Z" fill="#5264AE"/>
<path d="M145.647 130.434H146.65V129.213H147.06V130.434H148.087V129.074H148.522V130.965H145.212V129.074H145.641V130.434H145.647Z" fill="#5264AE"/>
<path d="M147.737 124.819C147.985 124.958 148.178 125.152 148.317 125.418C148.456 125.684 148.522 125.992 148.522 126.354V127.46H145.212V126.354C145.212 125.992 145.279 125.678 145.418 125.418C145.556 125.158 145.744 124.958 145.991 124.819C146.239 124.687 146.529 124.614 146.861 124.614C147.193 124.614 147.489 124.68 147.737 124.819ZM147.731 125.478C147.525 125.267 147.236 125.158 146.867 125.158C146.499 125.158 146.209 125.267 145.997 125.478C145.792 125.69 145.689 125.998 145.689 126.391V126.923H148.039V126.391C148.039 125.992 147.936 125.69 147.731 125.478Z" fill="#5264AE"/>
<path d="M145.387 121.707C145.532 121.46 145.732 121.266 145.991 121.121C146.251 120.976 146.541 120.91 146.867 120.91C147.193 120.91 147.483 120.982 147.743 121.121C148.003 121.26 148.202 121.46 148.347 121.707C148.492 121.955 148.564 122.233 148.564 122.541C148.564 122.85 148.492 123.128 148.347 123.375C148.202 123.623 148.003 123.822 147.743 123.961C147.483 124.1 147.193 124.179 146.867 124.179C146.541 124.179 146.251 124.107 145.991 123.961C145.732 123.816 145.532 123.623 145.387 123.375C145.242 123.128 145.17 122.85 145.17 122.541C145.17 122.233 145.242 121.955 145.387 121.707ZM145.816 123.103C145.913 123.267 146.052 123.399 146.233 123.49C146.414 123.581 146.626 123.629 146.867 123.629C147.109 123.629 147.32 123.581 147.501 123.49C147.683 123.399 147.821 123.267 147.918 123.103C148.015 122.94 148.063 122.747 148.063 122.535C148.063 122.324 148.015 122.136 147.918 121.973C147.821 121.81 147.683 121.683 147.501 121.587C147.32 121.496 147.109 121.448 146.867 121.448C146.626 121.448 146.414 121.496 146.233 121.587C146.052 121.677 145.913 121.804 145.816 121.973C145.72 122.136 145.671 122.324 145.671 122.535C145.671 122.747 145.72 122.934 145.816 123.103Z" fill="#5264AE"/>
<path d="M145.647 119.84H146.65V118.619H147.06V119.84H148.087V118.48H148.522V120.372H145.212V118.48H145.641V119.84H145.647Z" fill="#5264AE"/>
</g>
<defs>
<clipPath id="clip0_22_230">
<rect width="331" height="272" fill="white"/>
</clipPath>
</defs>
</svg>
