<svg width="26" height="23" viewBox="0 0 26 23" fill="none" xmlns="http://www.w3.org/2000/svg">
<g clip-path="url(#clip0_128_567)">
<path d="M20.13 12.4702C20.13 18.0302 15.62 22.5302 10.07 22.5302C4.52 22.5302 0 18.0302 0 12.4702C0 6.91016 4.51 2.41016 10.06 2.41016C15.62 2.41016 20.12 6.92016 20.12 12.4702H20.13Z" fill="#C8ED48"/>
<path d="M9.76012 21.0898L9.63012 20.8698C7.68012 17.5498 2.50012 10.4898 2.45012 10.4298L2.37012 10.3298L4.13012 8.58977L9.72012 12.4898C12.3701 9.01976 15.3701 5.81977 18.6701 2.95977C19.8901 1.88977 21.1801 0.909766 22.5501 0.0297656L22.5801 0.00976562H25.5801L25.2901 0.259766C17.9301 6.80977 9.96012 20.7398 9.88012 20.8798L9.75012 21.0998L9.76012 21.0898Z" fill="#81A600"/>
</g>
<defs>
<clipPath id="clip0_128_567">
<rect width="25.58" height="22.54" fill="white"/>
</clipPath>
</defs>
</svg>
