<svg width="56" height="50" viewBox="0 0 56 50" fill="none" xmlns="http://www.w3.org/2000/svg">
<path d="M53 26C53 28.7578 52.3534 31.4885 51.097 34.0364C49.8406 36.5842 47.9991 38.8992 45.6777 40.8492C43.3562 42.7993 40.6002 44.3461 37.5671 45.4015C34.5339 46.4568 31.283 47 28 47C24.717 47 21.4661 46.4568 18.4329 45.4015C15.3998 44.3461 12.6438 42.7993 10.3223 40.8492C8.00086 38.8992 6.15938 36.5842 4.90301 34.0364C3.64664 31.4885 3 28.7578 3 26" stroke="#DFDFDF" stroke-width="5"/>
<path d="M28 3V25M28 25L34.5 18.4M28 25L21.5 18.4" stroke="#DFDFDF" stroke-width="5" stroke-linecap="round" stroke-linejoin="round"/>
<path d="M43 19C43 20.9698 42.612 22.9204 41.8582 24.7403C41.1044 26.5601 39.9995 28.2137 38.6066 29.6066C37.2137 30.9995 35.5601 32.1044 33.7403 32.8582C31.9204 33.612 29.9698 34 28 34C26.0302 34 24.0796 33.612 22.2597 32.8582C20.4399 32.1044 18.7863 30.9995 17.3934 29.6066C16.0005 28.2137 14.8956 26.5601 14.1418 24.7403C13.388 22.9204 13 20.9698 13 19" stroke="#DFDFDF" stroke-width="5" stroke-linecap="round"/>
</svg>
