<svg width="601" height="230" viewBox="0 0 601 230" fill="none" xmlns="http://www.w3.org/2000/svg">
<path d="M409.7 130.4L415.7 132.2C415.3 133.9 414.7 135.3 413.8 136.4C412.9 137.5 411.9 138.4 410.6 138.9C409.3 139.5 407.7 139.8 405.7 139.8C403.3 139.8 401.4 139.5 399.8 138.8C398.3 138.1 397 136.9 395.9 135.1C394.8 133.4 394.2 131.1 394.2 128.4C394.2 124.8 395.2 122 397.1 120C399 118 401.8 117.1 405.3 117.1C408.1 117.1 410.2 117.7 411.8 118.8C413.4 119.9 414.6 121.6 415.3 124L409.3 125.3C409.1 124.6 408.9 124.1 408.6 123.8C408.2 123.3 407.8 122.9 407.2 122.6C406.6 122.3 406 122.2 405.4 122.2C403.9 122.2 402.7 122.8 401.9 124.1C401.3 125 401 126.5 401 128.4C401 130.8 401.4 132.5 402.1 133.4C402.8 134.3 403.9 134.8 405.2 134.8C406.5 134.8 407.5 134.4 408.1 133.7C408.9 132.8 409.4 131.8 409.7 130.4Z" fill="#225E63"/>
<path d="M418.1 128.4C418.1 124.8 419.1 122 421.1 120C423.1 118 425.9 117 429.5 117C433.2 117 436 118 438 119.9C440 121.9 441 124.6 441 128.2C441 130.8 440.6 132.9 439.7 134.5C438.8 136.1 437.6 137.4 435.9 138.3C434.3 139.2 432.2 139.7 429.8 139.7C427.3 139.7 425.3 139.3 423.6 138.5C422 137.7 420.7 136.5 419.6 134.7C418.5 132.9 418.1 131 418.1 128.4ZM424.9 128.4C424.9 130.6 425.3 132.2 426.1 133.2C426.9 134.2 428 134.7 429.5 134.7C431 134.7 432.1 134.2 432.9 133.3C433.7 132.3 434.1 130.6 434.1 128.2C434.1 126.1 433.7 124.6 432.8 123.7C432 122.7 430.8 122.3 429.4 122.3C428 122.3 426.9 122.8 426.1 123.8C425.3 124.6 424.9 126.2 424.9 128.4Z" fill="#225E63"/>
<path d="M444.5 117.4H453.4L456.8 130.8L460.2 117.4H469.1V139.4H463.5V122.6L459.2 139.4H454.2L449.9 122.6V139.4H444.3V117.4H444.5Z" fill="#225E63"/>
<path d="M473.5 117.4H484.8C487.3 117.4 489.1 118 490.3 119.2C491.5 120.4 492.1 122 492.1 124.2C492.1 126.4 491.4 128.2 490.1 129.4C488.8 130.7 486.7 131.3 484 131.3H480.3V139.5H473.5V117.4ZM480.3 126.8H482C483.3 126.8 484.2 126.6 484.8 126.1C485.3 125.6 485.6 125.1 485.6 124.4C485.6 123.7 485.4 123.1 484.9 122.6C484.4 122.1 483.6 121.9 482.3 121.9H480.4V126.8H480.3Z" fill="#225E63"/>
<path d="M495.7 117.4H502.5V134H513.1V139.4H495.7V117.4Z" fill="#225E63"/>
<path d="M516.5 117.4H523.3V139.4H516.5V117.4Z" fill="#225E63"/>
<path d="M541.7 135.7H534L532.9 139.3H526L534.3 117.3H541.7L550 139.3H542.9L541.7 135.7ZM540.3 131L537.9 123.1L535.5 131H540.3Z" fill="#225E63"/>
<path d="M552.1 117.4H558.4L566.7 129.6V117.4H573.1V139.4H566.7L558.5 127.3V139.4H552.1V117.4Z" fill="#225E63"/>
<path d="M576.1 117.4H596.8V122.8H589.9V139.4H583.1V122.8H576.2V117.4H576.1Z" fill="#225E63"/>
<path d="M327.9 150.9L347.6 144.7L341.2 130.5C336.5 136.4 331.8 144 327.9 150.9ZM321.2 86L282.6 0L0 16L78.3 229.6L229 182.1C219.4 168.3 215.9 151.9 227 143.9C239.4 134.9 258.1 145.3 270 160C281.5 140.8 313.8 96.1 321.2 86Z" fill="#225E63"/>
<path d="M273.796 62.1495C285.596 62.1495 295.196 53.1495 295.196 41.9495C295.196 30.7495 285.596 21.7495 273.796 21.7495C261.996 21.7495 252.396 30.7495 252.396 41.9495C252.396 53.0495 261.996 62.1495 273.796 62.1495ZM256.296 70.8495H291.296V162.35H256.296V70.8495Z" fill="#FEFEFE"/>
<path d="M238.996 97.5494C239.296 97.6494 239.496 97.5494 239.496 97.2494V74.0494C239.496 73.7494 239.296 73.4494 238.996 73.2494C238.996 73.2494 234.396 70.2494 220.396 69.4494C219.696 69.0494 207.396 68.9494 204.096 69.4494C153.096 73.5494 151.196 110.449 151.196 112.049V121.049C151.196 122.149 151.196 159.849 204.096 163.149C209.296 163.549 219.396 163.149 220.396 163.149C232.596 163.149 240.996 159.449 240.996 159.449C241.296 159.349 241.496 159.049 241.496 158.749V137.049C241.496 136.749 241.296 136.649 241.096 136.849C241.096 136.849 237.296 139.849 220.696 141.549C215.996 142.049 213.696 141.849 211.996 141.549C188.396 137.549 187.296 120.349 187.296 120.349C187.296 120.049 187.196 119.549 187.196 119.349V112.749C187.196 112.449 187.196 111.949 187.296 111.749C187.296 111.749 188.896 93.2494 211.996 91.2494H220.696C230.796 92.5494 238.996 97.5494 238.996 97.5494Z" fill="#FEFEFE"/>
<path d="M53.9956 162.05C53.9956 162.35 54.1956 162.55 54.4956 162.55H88.5956C88.8956 162.55 89.0956 162.35 89.0956 162.05V135.45C89.0956 135.15 89.2956 134.95 89.5956 134.95C89.5956 134.95 144.096 138.85 144.096 102.35C144.096 73.4496 109.896 70.3496 98.6956 70.8496C98.4956 70.8496 54.4956 70.8496 54.4956 70.8496C54.1956 70.8496 53.9956 71.0496 53.9956 71.3496V162.05ZM88.4956 114.65V90.7496H96.8956C96.8956 90.7496 108.996 91.2496 109.996 99.5496C110.196 100.15 110.196 104.25 109.996 104.45C108.396 114.15 97.8956 114.65 97.8956 114.65H88.4956Z" fill="#FEFEFE"/>
<path d="M274.8 206.5C277.6 206.5 279.8 206.5 283.4 204.9C295.8 198.4 337.7 96.1 381.9 64.6C382.2 64.4 382.5 64.1 382.7 63.8C383 63.4 383 63 383 63C383 63 383 60.9001 376.5 60.9001C337.2 59.8001 296.3 142.3 274.8 174.9C274.5 175.3 273.1 174.9 273.1 174.9C273.1 174.9 258.7 157.9 246.2 151.4C245.9 151.3 244.5 150.8 243 150.9C242 150.9 236.2 152.1 233.5 154.9C230.3 158.3 230.4 160.2 230.4 164.3C230.4 164.6 230.6 166 231 166.7C234.1 172.1 248 191.3 259.5 201.9C261.2 203.2 263.9 206.5 274.8 206.5Z" fill="#2BBC5D"/>
<path d="M393.5 33.6997H426.2C432.7 33.6997 437.9 34.5997 441.8 36.2997C445.8 38.0997 449.1 40.5997 451.6 43.7997C454.2 47.0997 456.1 50.8997 457.2 55.1997C458.4 59.4997 459 64.0997 459 68.9997C459 76.5997 458.1 82.4997 456.4 86.6997C454.7 90.8997 452.3 94.3997 449.2 97.2997C446.1 100.1 442.8 102 439.3 103C434.5 104.3 430.1 104.9 426.2 104.9H393.5V33.6997ZM415.5 49.7997V88.6997H420.9C425.5 88.6997 428.8 88.1997 430.7 87.1997C432.6 86.1997 434.2 84.3997 435.3 81.8997C436.4 79.3997 437 75.1997 437 69.4997C437 61.8997 435.8 56.7997 433.3 53.9997C430.8 51.1997 426.8 49.7997 421 49.7997H415.5Z" fill="#225E63"/>
<path d="M465.1 81.3999L486.1 80.0999C486.6 83.4999 487.5 86.0999 488.9 87.8999C491.2 90.7999 494.4 92.1999 498.6 92.1999C501.7 92.1999 504.2 91.4999 505.9 89.9999C507.6 88.4999 508.5 86.7999 508.5 84.8999C508.5 83.0999 507.7 81.3999 506.1 79.8999C504.5 78.3999 500.7 77.0999 494.8 75.7999C485.1 73.5999 478.3 70.6999 474.1 67.0999C469.9 63.4999 467.9 58.8999 467.9 53.2999C467.9 49.5999 469 46.1999 471.1 42.8999C473.2 39.5999 476.4 37.0999 480.7 35.1999C485 33.2999 490.8 32.3999 498.2 32.3999C507.3 32.3999 514.3 34.0999 519 37.4999C523.8 40.8999 526.6 46.2999 527.5 53.6999L506.7 54.8999C506.1 51.6999 505 49.3999 503.2 47.8999C501.4 46.3999 499 45.6999 495.9 45.6999C493.3 45.6999 491.4 46.1999 490.1 47.2999C488.8 48.3999 488.2 49.6999 488.2 51.2999C488.2 52.3999 488.7 53.4999 489.8 54.3999C490.8 55.2999 493.3 56.1999 497.2 56.9999C506.8 59.0999 513.7 61.1999 517.9 63.2999C522.1 65.3999 525.1 68.0999 527 71.1999C528.9 74.2999 529.8 77.8999 529.8 81.7999C529.8 86.3999 528.5 90.5999 526 94.3999C523.5 98.2999 519.9 101.2 515.4 103.2C510.9 105.2 505.1 106.2 498.2 106.2C486.1 106.2 477.7 103.9 473 99.1999C468.4 94.4999 465.8 88.5999 465.1 81.3999Z" fill="#225E63"/>
<path d="M535.4 81.3999L556.4 80.0999C556.9 83.4999 557.8 86.0999 559.2 87.8999C561.5 90.7999 564.7 92.1999 568.9 92.1999C572 92.1999 574.5 91.4999 576.2 89.9999C577.9 88.4999 578.8 86.7999 578.8 84.8999C578.8 83.0999 578 81.3999 576.4 79.8999C574.8 78.3999 571 77.0999 565.1 75.7999C555.4 73.5999 548.6 70.6999 544.4 67.0999C540.3 63.4999 538.2 58.8999 538.2 53.2999C538.2 49.5999 539.3 46.1999 541.4 42.8999C543.5 39.5999 546.7 37.0999 551 35.1999C555.3 33.2999 561.1 32.3999 568.5 32.3999C577.6 32.3999 584.6 34.0999 589.3 37.4999C594.1 40.8999 596.9 46.2999 597.8 53.6999L577 54.8999C576.4 51.6999 575.3 49.3999 573.5 47.8999C571.7 46.3999 569.3 45.6999 566.2 45.6999C563.6 45.6999 561.7 46.1999 560.4 47.2999C559.1 48.3999 558.5 49.6999 558.5 51.2999C558.5 52.3999 559 53.4999 560.1 54.3999C561.1 55.2999 563.6 56.1999 567.5 56.9999C577.1 59.0999 584 61.1999 588.2 63.2999C592.4 65.3999 595.4 68.0999 597.3 71.1999C599.2 74.2999 600.1 77.8999 600.1 81.7999C600.1 86.3999 598.8 90.5999 596.3 94.3999C593.8 98.2999 590.2 101.2 585.7 103.2C581.2 105.2 575.4 106.2 568.5 106.2C556.4 106.2 548 103.9 543.3 99.1999C538.6 94.4999 536 88.5999 535.4 81.3999Z" fill="#225E63"/>
</svg>
