<svg width="50" height="39" viewBox="0 0 50 39" fill="none" xmlns="http://www.w3.org/2000/svg">
<path fill-rule="evenodd" clip-rule="evenodd" d="M4.61502 0.919434C2.07426 0.919434 0.0166607 2.97705 0.0166607 5.5178H0C0 6.99228 0.733071 8.35844 1.95763 9.17482L22.442 22.8283C23.9914 23.8612 26.0074 23.8612 27.5485 22.8283L48.0328 9.17482C49.2574 8.35844 49.9905 6.99228 49.9905 5.5178C49.9905 2.97705 47.9329 0.919434 45.3921 0.919434H4.61502ZM50 11.3738C49.8917 11.4571 49.7834 11.532 49.6668 11.607L29.1908 25.2604C26.6583 26.9515 23.3679 26.9515 20.8354 25.2604L0.351095 11.607C0.23447 11.532 0.126175 11.4571 0.0178806 11.3738V33.7491C0.0178806 36.2898 2.07548 38.3475 4.61624 38.3475H45.4016C47.9424 38.3475 50 36.2898 50 33.7491V11.3738Z" fill="#5264AE"/>
</svg>
