<svg width="159" height="292" viewBox="0 0 159 292" fill="none" xmlns="http://www.w3.org/2000/svg">
<g clip-path="url(#clip0_22_4193)">
<path d="M128.055 75.2773C111.783 64.2851 92.4367 60.3672 79.7553 60.3672C67.8802 60.3672 50.402 62.25 34.5847 71.2071C24.7635 76.7725 16.9203 84.3798 11.2895 93.8076C4.60417 104.98 0.992727 118.803 0.544742 134.897C0.475821 137.313 1.3649 139.597 3.04656 141.328C4.73512 143.072 6.99572 144.034 9.42173 144.034H40.5532C44.9503 144.034 48.7272 140.739 49.3406 136.378C50.719 126.57 56.5152 110.061 79.8173 109.652C97.5713 109.348 104.891 122.25 107.22 127.816C111.004 136.87 110.046 147.606 104.649 156.542C96.3652 170.262 81.1199 172.366 72.7736 172.394C63.173 172.428 55.3643 180.257 55.3643 189.844V223.499C55.3643 228.414 59.3479 232.415 64.2412 232.415H94.5801C99.4735 232.415 103.457 228.414 103.457 223.499V216.432C103.457 216.259 103.56 216.113 103.726 216.058C110.597 213.635 123.92 207.786 135.919 195.804C151.24 180.506 159 160.765 159 137.126C159 103.298 142.17 84.8228 128.055 75.2911V75.2773Z" fill="#5264AE"/>
<path d="M78.6458 248.107H81.0924C93.1398 248.107 102.94 257.95 102.94 270.05C102.94 282.15 93.1398 291.993 81.0924 291.993H78.6458C66.5984 291.993 56.791 282.15 56.791 270.05C56.791 257.95 66.5915 248.107 78.6458 248.107Z" fill="#5264AE"/>
<path d="M89.1024 86.4634L69.6392 29.7025C65.5316 15.4916 53.8702 6.04988 39.8379 10.5631L38.5629 11.0545C25.7574 16.0246 18.8929 30.0348 22.7939 43.249C26.426 55.5495 30.5957 69.089 33.132 75.4573C38.3906 88.6369 52.1541 84.9406 52.1541 84.9406C52.1816 84.9336 55.221 93.7246 56.5443 97.6771L63.6707 104.751L66.6136 101.519L89.0887 86.4565L89.1024 86.4634Z" fill="#FFBF9D"/>
<path d="M52.1602 84.9405C52.1602 84.9405 60.665 82.2063 67.3709 73.1799C67.3709 73.1799 67.0677 84.7398 53.449 88.6576L52.1602 84.9474V84.9405Z" fill="#5264AE"/>
<path d="M32.318 52.2132C32.6695 53.2238 33.8067 53.7637 34.8681 53.4176C35.9226 53.0715 36.5015 51.9709 36.15 50.9603C35.7985 49.9497 34.6613 49.4097 33.6 49.7558C32.5386 50.102 31.9665 51.2026 32.3111 52.2201L32.318 52.2132Z" fill="#5264AE"/>
<path d="M27.6381 47.3745C27.9689 47.5337 28.982 45.9139 31.0152 45.1317C33.0277 44.3218 34.923 44.7925 35.0471 44.4603C35.116 44.308 34.7025 43.955 33.8754 43.7335C33.0553 43.512 31.794 43.4704 30.5328 43.9688C29.2715 44.4672 28.3893 45.3463 27.962 46.0593C27.5209 46.7792 27.4865 47.3122 27.645 47.3745H27.6381Z" fill="#5264AE"/>
<path d="M49.2654 45.464C49.5963 45.6232 50.6163 44.0034 52.6426 43.2282C54.655 42.4183 56.5504 42.889 56.6744 42.5567C56.7364 42.4044 56.3298 42.0514 55.5028 41.8299C54.6826 41.6084 53.4214 41.5669 52.1601 42.0653C50.8989 42.5636 50.0167 43.4427 49.5894 44.1557C49.1552 44.8756 49.1138 45.4086 49.2654 45.4709V45.464Z" fill="#5264AE"/>
<path d="M46.4328 58.5952C46.3984 58.4775 45.0544 58.7475 42.911 59.2736C42.3734 59.4189 41.8427 59.5089 41.6222 59.1836C41.3534 58.8582 41.3534 58.2145 41.374 57.5084C41.374 56.0617 41.374 54.5458 41.3809 52.9537C41.3396 46.4954 41.0984 41.2624 40.8365 41.2693C40.5746 41.2693 40.4023 46.5162 40.4436 52.9745C40.4643 54.5596 40.485 56.0756 40.5125 57.5223C40.547 58.1868 40.4643 58.9898 41.0294 59.6681C41.3189 60.0004 41.8082 60.1388 42.1735 60.0973C42.5457 60.0696 42.8352 59.9658 43.0971 59.8758C45.1923 59.1905 46.4742 58.706 46.4328 58.5883V58.5952Z" fill="#5264AE"/>
<path d="M44.5802 34.0218C45.0557 34.4372 46.8132 33.122 49.1841 32.146C51.5412 31.1146 53.6984 30.7616 53.7328 30.1316C53.7397 29.834 53.1539 29.5225 52.1546 29.4325C51.1552 29.3356 49.7423 29.5017 48.3226 30.104C46.9028 30.7062 45.8001 31.606 45.1729 32.3952C44.5388 33.1843 44.3527 33.8211 44.5733 34.0218H44.5802Z" fill="#5264AE"/>
<path d="M25.2398 41.4215C25.8325 41.726 27.3143 40.6324 29.3061 39.8709C31.2704 39.0472 33.1037 38.8188 33.3173 38.1889C33.4 37.8912 32.9658 37.5244 32.063 37.3582C31.1739 37.1921 29.823 37.2821 28.4653 37.8289C27.1076 38.3758 26.0737 39.2341 25.5568 39.9678C25.0262 40.7085 24.971 41.2692 25.2398 41.4284V41.4215Z" fill="#5264AE"/>
<path d="M72.1211 39.2827C72.3072 39.0958 80.1504 33.0736 83.3414 42.2454C86.5393 51.4102 76.7112 52.7461 76.6078 52.49C76.4976 52.2339 72.1211 39.2896 72.1211 39.2896V39.2827Z" fill="#FFBF9D"/>
<path d="M78.1857 48.0321C78.2132 47.9906 78.3855 48.0875 78.6957 48.1152C78.9989 48.1429 79.4814 48.0667 79.8949 47.7206C80.7357 47.0284 81.0114 45.201 80.4807 43.5328C80.2119 42.6883 79.7639 41.9545 79.2401 41.4008C78.7301 40.8263 78.1305 40.5148 77.6136 40.5978C77.0898 40.6532 76.8486 41.0685 76.8279 41.3662C76.7935 41.6638 76.9175 41.8299 76.8762 41.8576C76.8555 41.8922 76.6281 41.7746 76.566 41.3662C76.5385 41.1724 76.566 40.9162 76.7245 40.667C76.8831 40.4109 77.1725 40.2033 77.524 40.1271C78.2477 39.9264 79.1023 40.3556 79.6812 40.9647C80.2946 41.56 80.8253 42.3768 81.1217 43.3251C81.7075 45.1941 81.3698 47.2499 80.1844 48.1013C79.5985 48.4959 78.9989 48.489 78.6474 48.3713C78.289 48.2467 78.165 48.0598 78.1926 48.0252L78.1857 48.0321Z" fill="#5264AE"/>
<path d="M53.3194 57.6745C52.9955 57.7645 53.6985 59.8757 52.3959 61.9869C51.1002 64.0981 48.7776 64.6173 48.8534 64.9149C48.8672 65.0603 49.4874 65.1572 50.4454 64.8665C51.3828 64.5896 52.644 63.8282 53.4366 62.5407C54.2292 61.2532 54.2912 59.8618 54.0776 58.9689C53.8639 58.0552 53.4504 57.6122 53.3125 57.6745H53.3194Z" fill="#5264AE"/>
<path d="M0.000802671 36.8114C-0.0405497 36.2231 0.193781 35.6416 0.572844 35.1848C1.39989 34.1949 2.63357 33.8488 3.79144 33.4196C6.67232 32.3467 9.27753 30.5885 11.4003 28.3596C10.3389 28.2212 9.30509 27.9581 8.34021 27.5013C6.3484 26.546 4.70809 24.5871 4.68741 22.3651C4.68741 21.9498 4.76322 21.486 5.09404 21.2368C5.62473 20.8423 6.3484 21.2437 6.92044 21.5622C8.81576 22.6074 10.2976 22.815 12.2549 21.8944C13.4679 21.3199 14.5913 20.6069 15.3632 19.6378C15.3908 19.5824 15.4046 19.5271 15.4321 19.4717C15.7354 18.8141 16.0318 18.1773 16.3281 17.5612C18.5611 12.9234 20.6839 9.51085 23.2891 7.21273C27.1142 3.83477 34.3026 0.470651 39.3752 0.0484051C44.4478 -0.37384 49.9476 1.93813 52.2702 6.48592C54.0966 3.35023 58.0113 1.98658 61.6366 2.14579L61.7055 2.08349C65.6822 2.09733 69.0042 5.13612 71.313 8.38256C71.4371 8.56253 71.5611 8.74251 71.6852 8.92248C73.5461 10.4038 75.7446 11.456 78.0742 11.9059C78.4877 11.982 78.9632 12.0928 79.1424 12.4735C79.3216 12.8473 79.108 13.2903 78.8667 13.6295C78.2327 14.5363 77.3849 15.2908 76.4269 15.8376C77.0541 16.5852 77.7227 17.2843 78.4739 17.9142C79.108 18.4541 79.8661 19.0979 79.7696 19.9216C79.6938 20.5654 79.0804 21.0292 78.4463 21.1538C77.8122 21.2783 77.1644 21.133 76.5372 20.9876C77.2609 21.7975 77.9914 22.6005 78.7151 23.4103C77.5159 24.0887 76.1582 24.4487 74.7797 24.511C75.2139 28.1589 76.8474 34.6241 76.7853 37.2268C74.38 38.1266 73.6977 38.0713 72.6225 38.9088C71.2303 39.9956 72.8155 42.5914 70.4791 42.5221C69.2868 42.4875 66.2887 39.068 65.5582 38.1266C60.7406 31.8483 57.3015 24.5109 55.5371 16.779C53.5246 15.7338 51.3122 15.0762 49.0517 14.8616L49.2584 14.9516C45.0749 14.9724 40.4021 15.1869 37.4799 18.1911C35.2124 20.5238 34.6059 23.9572 33.3515 26.9683C30.9806 32.6721 27.3899 36.5415 21.6764 38.8396C22.5723 43.069 24.7364 49.7349 25.8667 53.5836L20.0085 47.1668V47.2014C19.6018 46.8484 19.2297 46.4816 18.8713 46.1078L18.7541 45.997V45.9832C18.1683 45.3809 17.6031 44.7718 16.9415 44.2111L16.9139 44.2596C15.508 46.7861 11.545 45.0902 12.379 42.3214C12.5444 41.7746 12.7856 41.2485 13.1095 40.7709C12.4892 41.9753 11.2487 42.889 9.89781 42.9444C8.54697 42.9998 7.16166 42.093 6.82395 40.7778C6.58962 39.8779 6.93422 38.8811 7.60275 38.2582C6.00379 38.9642 4.19807 39.1996 2.47505 38.8881C1.34476 38.6804 0.111076 38.1197 0.0145868 36.8253L0.000802671 36.8114Z" fill="#5264AE"/>
<path d="M48.6037 9.51074C48.5899 9.55227 49.286 9.66995 50.375 10.2652C51.4501 10.8605 52.8492 12.0719 53.9864 13.9893C54.5585 14.9376 55.0892 16.0382 55.5234 17.2773C55.9644 18.5094 56.3297 19.8661 56.7226 21.2921C57.1223 22.718 57.5358 24.227 58.163 25.7222C58.4732 26.4698 58.8384 27.2174 59.2795 27.9373C59.7137 28.6433 60.2031 29.3978 61.0094 29.8547C61.6573 30.2285 62.505 30.1938 63.1184 29.827C63.7456 29.474 64.2143 28.9063 64.4762 28.2626C64.9793 26.9543 64.7449 25.5976 64.5657 24.4001L64.297 24.5316C65.1102 25.383 65.9304 26.2137 66.9091 26.7674C67.8739 27.3281 69.0111 27.5219 70.0036 27.2658C70.4998 27.1412 70.9547 26.892 71.2924 26.539C71.6439 26.186 71.8231 25.7291 71.9058 25.2861C71.9747 24.8362 71.9334 24.3862 71.7748 23.9986C71.6094 23.611 71.3269 23.2856 70.9823 23.1057L70.8858 23.2856C72.3262 24.0955 73.6357 24.3447 74.511 24.4347C74.9521 24.4762 75.2898 24.4762 75.5241 24.4693C75.7516 24.4555 75.8687 24.4485 75.8687 24.4347C75.8687 24.4278 75.7516 24.4209 75.5241 24.4139C75.2967 24.4001 74.959 24.3862 74.5248 24.3309C73.6633 24.2132 72.3814 23.9363 70.9892 23.1195L70.8927 23.2995C71.513 23.6179 71.83 24.4485 71.6784 25.2584C71.6025 25.6599 71.4302 26.0683 71.1201 26.3798C70.8169 26.6913 70.3964 26.9128 69.9416 27.0235C69.0249 27.2451 67.9635 27.0651 67.0607 26.5252C66.1371 25.9922 65.3377 25.1823 64.5313 24.3309L64.1867 23.9709L64.2625 24.4693C64.4417 25.6668 64.6485 26.9751 64.1798 28.1588C63.9455 28.7333 63.5113 29.2455 62.9668 29.557C62.4223 29.8754 61.7331 29.9031 61.1749 29.5847C60.4719 29.1971 59.9963 28.4841 59.569 27.785C59.1417 27.0858 58.7833 26.3521 58.4732 25.6184C57.8529 24.144 57.4325 22.6488 57.0258 21.2298C56.6261 19.8038 56.247 18.4471 55.7921 17.2011C55.3442 15.9552 54.7859 14.8407 54.2001 13.8855C53.0215 11.9542 51.5673 10.7429 50.4508 10.1683C49.3274 9.59381 48.6175 9.52459 48.6175 9.52459L48.6037 9.51074Z" fill="#B9CCEB"/>
<path d="M11.8819 37.1713C11.8819 37.1713 11.9301 37.1921 12.0197 37.2267C12.13 37.2613 12.2678 37.3028 12.4401 37.3513C12.6262 37.4067 12.8537 37.469 13.1362 37.5174C13.4119 37.5659 13.7359 37.6351 14.1011 37.6628C15.5485 37.8151 17.7402 37.6974 20.1799 36.6729C22.5922 35.6623 25.2387 33.738 27.1892 30.8307C29.181 27.958 30.5249 24.2963 31.2968 20.3715C31.6966 18.4056 31.9033 16.4605 32.2411 14.6123C32.565 12.7641 33.0268 11.0059 33.7918 9.47616C34.543 7.93946 35.5768 6.63812 36.8174 5.77286C37.4308 5.32985 38.0993 5.03912 38.761 4.81761C39.4295 4.61687 40.1049 4.53381 40.7459 4.51997C42.0347 4.4992 43.1857 4.81069 44.123 5.21909C45.0603 5.63442 45.784 6.16049 46.3216 6.64504C47.3623 7.66258 47.6724 8.44477 47.7138 8.41016C47.7138 8.41016 47.7 8.36171 47.6517 8.27172C47.5966 8.16789 47.5277 8.03637 47.445 7.88409C47.252 7.5449 46.9143 7.08113 46.4043 6.54813C45.8736 6.04282 45.1499 5.48213 44.1988 5.03912C43.2477 4.60303 42.076 4.27077 40.7459 4.27769C40.0842 4.27769 39.3881 4.36768 38.692 4.56842C38.0028 4.783 37.2929 5.08757 36.6589 5.53751C35.3701 6.43045 34.2949 7.76641 33.5161 9.33079C32.7235 10.8952 32.2548 12.688 31.9171 14.55C31.5794 16.4121 31.3658 18.3502 30.966 20.3023C30.201 24.1994 28.8777 27.8196 26.9273 30.6576C25.0251 33.5303 22.4474 35.4269 20.0766 36.4514C17.6919 37.4897 15.5347 37.642 14.1011 37.5312C12.6538 37.4136 11.8888 37.1298 11.875 37.1713H11.8819Z" fill="#B9CCEB"/>
<path d="M8.60259 31.7099C8.60259 31.7099 8.80936 31.7929 9.20221 31.876C9.58816 31.966 10.1602 32.049 10.877 32.0975C11.5869 32.1529 12.4415 32.139 13.3788 32.0421C14.3161 31.9314 15.343 31.7376 16.3837 31.4122C17.4244 31.073 18.3755 30.6439 19.2026 30.1939C20.0228 29.7232 20.7326 29.2456 21.284 28.7888C21.8354 28.3388 22.2627 27.9373 22.5246 27.6397C22.7934 27.342 22.9312 27.1759 22.9174 27.1621C22.8761 27.1205 22.2696 27.7574 21.1393 28.6019C20.581 29.031 19.8711 29.481 19.0579 29.924C18.2377 30.3531 17.3004 30.7685 16.2804 31.0938C15.2603 31.4122 14.261 31.613 13.3374 31.7376C12.4139 31.8483 11.58 31.8829 10.877 31.8622C9.471 31.8206 8.60949 31.6476 8.5957 31.7099H8.60259Z" fill="#B9CCEB"/>
<path d="M33.6006 127.663C33.4835 127.698 35.0411 135.555 36.5711 143.709H37.0536C35.5235 135.562 33.7178 127.629 33.5938 127.663H33.6006Z" fill="#5264AE"/>
<path d="M40.203 144.103C44.6277 144.103 48.701 140.905 49.3143 136.545C50.7065 126.75 56.2684 110.178 79.7221 109.77C97.5933 109.465 105.113 122.167 107.222 127.816C110.564 136.787 110.151 147.668 104.72 156.591C96.3803 170.29 81.0385 172.387 72.6302 172.422C62.9675 172.456 55.1037 180.271 55.1037 189.844V226.434L103.507 225.521V216.39C103.507 216.224 103.61 216.072 103.775 216.017C109.668 213.954 119.021 210.05 129.538 201.529L126.388 159.387C126.388 159.387 135.603 141.605 135.141 137.604C130.972 101.055 118.593 80.3721 113.562 78.4408C107.918 76.2742 86.1111 77.3333 86.1111 77.3333C86.1111 77.3333 76.6896 94.8599 63.4775 96.7981C56.1237 97.8779 53.4427 88.6578 53.4427 88.6578L36.3641 98.7155C24.2134 104.876 21.8495 128.826 21.6289 144.103H40.1892H40.203Z" fill="#B9CCEB"/>
<g opacity="0.3">
<path d="M96.2965 165.631C106.056 168.123 115.67 171.279 125.429 173.778C126.153 173.965 126.925 174.18 127.414 174.747C128.131 175.585 127.972 176.852 127.648 177.904C126.622 181.275 124.409 184.182 121.776 186.508C119.654 188.384 117.111 189.962 114.292 190.183C111.156 190.433 108.137 188.965 105.484 187.269C98.7018 182.922 92.9124 176.568 89.2734 169.362C89.2734 169.362 91.5616 168.414 93.3122 167.479C94.9387 166.607 96.2965 165.638 96.2965 165.638V165.631Z" fill="#5264AE"/>
</g>
<path d="M107.021 128.072C110.922 137.112 109.936 147.834 104.374 156.757C101.287 161.706 97.3581 165.236 93.0781 167.611C97.6958 172.65 102.376 177.094 107.007 180.396C111.99 183.947 123.479 182.936 127.835 175.163C133.211 165.569 133.659 141.058 133.659 141.058L134.679 126.279L104.629 121.655L104.388 122.486C105.677 124.424 106.435 126.715 107.028 128.072H107.021Z" fill="#FFBF9D"/>
<path d="M54.7025 121.863L52.9933 124.569C51.6907 125.469 50.457 124.978 49.6507 123.303L31.1523 95.0261L35.6598 92.1465L56.0878 119.26C56.0878 119.26 56.3773 120.7 54.7025 121.856V121.863Z" fill="#B9CCEB"/>
<path d="M11.9653 94.5412C8.347 92.4854 5.3076 89.322 3.42606 85.2518C1.11033 80.2402 0.875997 74.6264 2.77132 69.4349C4.65974 64.2503 8.45038 60.1109 13.4402 57.7851C23.737 52.9881 36.0049 57.4944 40.788 67.8428C43.1037 72.8544 43.338 78.4682 41.4427 83.6597C39.5543 88.8444 35.7636 92.9837 30.7738 95.3096C24.5227 98.2237 17.5479 97.7046 11.9653 94.5412ZM31.5664 59.7648C26.356 56.8091 19.8499 56.3315 14.0192 59.0449C9.36702 61.2115 5.83139 65.074 4.06702 69.9125C2.30266 74.751 2.5232 79.991 4.68042 84.6704C6.83764 89.3427 10.6834 92.8937 15.501 94.6658C20.3185 96.4378 25.5358 96.2163 30.1949 94.0497C34.847 91.8831 38.3826 88.0206 40.147 83.1821C41.9114 78.3436 41.6908 73.1036 39.5336 68.4243C37.783 64.631 34.9435 61.6753 31.5664 59.7579V59.7648Z" fill="#5264AE"/>
<path d="M12.8481 93.6691C9.22981 91.6133 6.19041 88.4499 4.30887 84.3797C1.99314 79.3682 1.75881 73.7544 3.65413 68.5628C5.54255 63.3782 9.33319 59.2388 14.323 56.913C24.6198 52.116 36.8877 56.6223 41.6708 66.9708C43.9865 71.9823 44.2208 77.5961 42.3255 82.7877C40.4371 87.9723 36.6465 92.1117 31.6566 94.4375C25.4055 97.3517 18.4307 96.8325 12.8481 93.6691ZM32.4492 58.8927C27.2388 55.937 20.7327 55.4594 14.902 58.1728C10.2498 60.3394 6.71421 64.2019 4.94984 69.0405C3.18547 73.879 3.40601 79.119 5.56323 83.7983C7.72045 88.4707 11.5662 92.0217 16.3838 93.7937C21.2013 95.5658 26.4186 95.3443 31.0777 93.1777C35.7298 91.0111 39.2654 87.1486 41.0298 82.31C42.7942 77.4715 42.5736 72.2315 40.4164 67.5522C38.6658 63.7589 35.8263 60.8032 32.4492 58.8858V58.8927Z" fill="#B9CCEB"/>
<path d="M40.1118 75.9695C40.1118 75.9695 40.0981 75.8518 40.0912 75.6303C40.0774 75.4088 40.0981 75.0766 40.0498 74.6612C40.0016 73.8237 39.8155 72.6054 39.3675 71.1725C39.1469 70.4526 38.8368 69.6912 38.4646 68.8883C38.0649 68.0991 37.6238 67.2616 37.0587 66.4448C36.5004 65.621 35.8663 64.7904 35.122 64.0082C34.3845 63.2191 33.5713 62.4507 32.6477 61.7724C31.7311 61.0871 30.7662 60.5195 29.7944 60.0557C28.8157 59.6058 27.8302 59.2666 26.8791 59.0036C24.9562 58.519 23.1642 58.3875 21.6687 58.4706C20.1731 58.5536 18.9739 58.789 18.1675 59.0174C17.754 59.1074 17.4507 59.232 17.2371 59.2874C17.0234 59.3497 16.9131 59.3843 16.9062 59.3774C16.9062 59.3704 17.0096 59.3289 17.2164 59.2458C17.43 59.1766 17.7264 59.0382 18.1399 58.9343C18.9463 58.6782 20.1455 58.4221 21.6549 58.3183C23.1642 58.2075 24.9838 58.3252 26.9273 58.8097C27.8922 59.0659 28.8916 59.405 29.884 59.8619C30.8696 60.3257 31.8483 60.9071 32.7787 61.5993C33.7091 62.2846 34.5362 63.0668 35.2736 63.8698C36.018 64.6658 36.6589 65.5034 37.2172 66.3409C37.7892 67.1647 38.2234 68.0161 38.6232 68.819C38.9884 69.6358 39.2986 70.4111 39.5053 71.1379C39.9395 72.5916 40.1049 73.8237 40.1256 74.6682C40.1601 75.0904 40.1256 75.4227 40.1256 75.6442C40.1187 75.8657 40.1118 75.9834 40.1049 75.9834L40.1118 75.9695Z" fill="white"/>
<path d="M18.623 92.8038C18.6368 92.7553 19.581 93.1014 21.1662 93.3229C21.3661 93.3437 21.5729 93.3714 21.7865 93.3991C22.0002 93.4267 22.2276 93.4267 22.4619 93.4406C22.9306 93.4821 23.4337 93.4544 23.9575 93.4406C25.012 93.3783 26.163 93.2191 27.3415 92.9076C28.5201 92.5823 29.5952 92.1392 30.5394 91.6616C31.0012 91.4055 31.4492 91.1702 31.8351 90.9002C32.0281 90.7687 32.228 90.651 32.4003 90.5264C32.5726 90.3949 32.738 90.2703 32.9034 90.1457C34.1647 89.1558 34.8056 88.3806 34.8401 88.4152C34.8539 88.4221 34.6885 88.6159 34.3921 88.9551C34.2474 89.1281 34.0544 89.3289 33.8201 89.5435C33.5857 89.7581 33.3307 90.028 32.9999 90.2634C32.8414 90.388 32.676 90.5195 32.5037 90.6579C32.3314 90.7964 32.1315 90.914 31.9385 91.0525C31.5526 91.3294 31.1046 91.5716 30.6359 91.8416C29.6848 92.3331 28.5959 92.7899 27.4035 93.1222C26.2112 93.4406 25.0396 93.5929 23.9713 93.6482C23.4337 93.6482 22.9306 93.669 22.455 93.6275C22.2207 93.6067 21.9864 93.6067 21.7727 93.5721C21.5522 93.5375 21.3454 93.5098 21.1455 93.4821C20.7458 93.4337 20.3874 93.3368 20.0773 93.2675C19.7602 93.2052 19.4983 93.1222 19.2847 93.046C18.8574 92.9076 18.623 92.8176 18.6299 92.8038H18.623Z" fill="white"/>
<path d="M32.7931 79.5621C32.7518 79.6036 30.0639 76.904 26.7971 73.5329C23.5302 70.1619 20.9181 67.3931 20.9595 67.3515C21.0008 67.31 23.6887 70.0096 26.9556 73.3807C30.2224 76.7517 32.8345 79.5205 32.7931 79.5621Z" fill="white"/>
<path d="M29.623 84.975C29.623 84.975 29.5472 84.9127 29.43 84.7812C29.2922 84.6289 29.1199 84.442 28.8993 84.2066C28.4306 83.6806 27.7759 82.9537 26.9833 82.0608C25.3637 80.2472 23.1238 77.7483 20.615 75.0211C18.1063 72.2868 15.8113 69.8434 14.1434 68.0713C13.3232 67.1991 12.6547 66.4931 12.1723 65.9739C11.9517 65.7386 11.7794 65.5448 11.6416 65.3994C11.5244 65.2679 11.4624 65.1917 11.4693 65.1848C11.4693 65.1848 11.5451 65.2402 11.676 65.3648C11.8208 65.5032 12.0069 65.6901 12.2343 65.9116C12.7167 66.3893 13.4128 67.0884 14.2606 67.9606C15.956 69.698 18.2717 72.1346 20.7805 74.8688C23.2892 77.603 25.5153 80.1157 27.1005 81.957C27.8931 82.8776 28.534 83.6252 28.9682 84.1512C29.175 84.4004 29.3335 84.6012 29.4645 84.7535C29.5747 84.8919 29.6299 84.9681 29.623 84.975Z" fill="white"/>
<g opacity="0.3">
<path d="M12.8331 59.6472L38.1132 87.2316C38.1132 87.2316 36.0663 90.1043 34.1917 91.3572L8.38086 63.129C8.38086 63.129 10.2417 60.8793 12.8331 59.6472Z" fill="white"/>
</g>
<g opacity="0.3">
<path d="M6.20391 66.3132L31.0705 93.1846C31.0705 93.1846 31.2979 93.3092 29.5887 93.7453L5.50781 67.6769C5.50781 67.6769 5.63187 67.0262 6.2108 66.3132H6.20391Z" fill="white"/>
</g>
<path d="M71.6652 110.649C66.3515 106.364 53.3392 95.8913 52.7465 95.6075C51.9953 95.2545 40.5407 91.1705 38.349 92.4787C36.1573 93.7939 30.2715 101.207 30.2715 101.207C30.2715 101.207 30.8297 105.818 35.9643 102.516C39.879 99.9961 40.4855 99.6084 40.5545 99.56H40.5476L46.0061 100.847C46.0061 100.847 39.3552 103.637 37.9424 105.105C36.5364 106.572 34.3102 112.193 35.6955 113.487C37.0808 114.782 38.6936 114.892 38.6936 114.892C38.6936 114.892 35.9437 118.81 40.8163 121.178C40.8163 121.178 41.5262 124.472 43.9316 125.76C46.3369 127.047 50.8098 126.598 50.8098 126.598C50.8098 126.598 52.8844 125.365 51.3405 123.316C49.7967 121.274 46.9503 120.991 46.9503 120.991L50.479 118.921C50.479 118.921 52.3123 119.489 55.0347 121.593C55.0347 121.593 58.2533 117.454 61.4719 115.114C65.0833 112.49 71.6652 110.642 71.6652 110.642V110.649Z" fill="#FFBF9D"/>
<path d="M49.0867 112.393C49.0867 112.393 48.9007 112.38 48.5629 112.421C48.2252 112.463 47.7497 112.56 47.1707 112.746C46.0198 113.106 44.4828 113.909 43.2147 115.287C41.9534 116.664 41.2849 118.277 41.023 119.454C40.8852 120.049 40.83 120.534 40.8163 120.873C40.8025 121.212 40.8163 121.399 40.83 121.399C40.8783 121.399 40.8921 120.651 41.2022 119.495C41.5055 118.346 42.1809 116.796 43.4077 115.46C44.6345 114.117 46.1163 113.314 47.2328 112.919C48.3493 112.511 49.1005 112.435 49.0867 112.386V112.393Z" fill="#5264AE"/>
<path d="M49.3217 106.427C49.3217 106.427 49.1218 106.427 48.7634 106.468C48.5842 106.489 48.3637 106.517 48.1155 106.572C47.8674 106.628 47.578 106.676 47.2678 106.773C46.6406 106.939 45.917 107.209 45.1382 107.576C44.3731 107.957 43.553 108.441 42.7673 109.043C41.9885 109.652 41.3131 110.324 40.7479 110.968C40.1966 111.625 39.7486 112.262 39.4315 112.83C39.2592 113.107 39.1352 113.37 39.018 113.605C38.9008 113.833 38.8113 114.041 38.7492 114.207C38.6183 114.546 38.5494 114.733 38.57 114.74C38.6183 114.761 38.9077 114.013 39.5901 112.927C39.9278 112.38 40.3826 111.771 40.934 111.127C41.4992 110.497 42.1608 109.846 42.9327 109.251C43.7046 108.663 44.5937 107.991 45.3449 107.61C46.1031 107.237 46.7096 107.14 47.323 106.953C48.5429 106.572 49.3354 106.475 49.3285 106.427H49.3217Z" fill="#5264AE"/>
<path d="M50.3144 99.5806C50.3144 99.5806 50.0456 99.4422 49.5701 99.4145C49.1014 99.3799 48.4329 99.456 47.7643 99.7399C46.8546 100.127 46.5376 100.508 46.2757 100.82C45.9724 101.187 45.8552 101.457 45.8828 101.47C45.9448 101.526 46.5789 100.515 47.8677 99.9752C49.1428 99.4145 50.3144 99.6568 50.3144 99.5806Z" fill="#5264AE"/>
<path d="M111.453 77.8868C111.453 77.8868 128.263 79.5066 133.597 94.1744C137.836 105.817 140.131 140.698 139.07 141.404L109.392 140.448C109 131.941 106.718 125.386 103.527 121.143L111.453 77.8799V77.8868Z" fill="#B9CCEB"/>
<path d="M109.854 140.455C109.854 140.455 110.074 140.552 110.439 140.781C110.805 141.009 111.315 141.362 111.928 141.819C113.162 142.726 114.795 144.089 116.442 145.758C118.096 147.419 119.447 149.059 120.378 150.278C120.839 150.887 121.205 151.392 121.439 151.752C121.68 152.112 121.797 152.313 121.784 152.327C121.742 152.361 121.157 151.614 120.185 150.437C119.213 149.26 117.835 147.661 116.194 146.007C114.554 144.352 112.962 142.975 111.776 142.02C110.591 141.064 109.826 140.504 109.86 140.455H109.854Z" fill="#5264AE"/>
<path d="M106.317 104.578C106.413 104.592 105.869 108.316 105.104 112.892C104.332 117.467 103.629 121.164 103.533 121.15C103.436 121.136 103.981 117.412 104.752 112.836C105.524 108.261 106.227 104.565 106.324 104.578H106.317Z" fill="#5264AE"/>
<path d="M68.9707 209.171C68.9707 209.171 69.1361 209.136 69.4669 209.094C69.8253 209.06 70.3009 209.011 70.8867 208.949C72.1617 208.831 73.933 208.658 76.104 208.451C80.508 208.028 86.5937 207.385 93.2928 206.54C99.9919 205.689 106.043 204.782 110.42 204.097C112.577 203.751 114.334 203.474 115.596 203.273C116.181 203.183 116.65 203.114 117.008 203.058C117.332 203.01 117.505 202.996 117.505 203.01C117.505 203.024 117.339 203.065 117.022 203.135L115.623 203.418C114.41 203.661 112.646 203.979 110.461 204.36C106.098 205.114 100.047 206.056 93.341 206.914C86.6351 207.765 80.5425 208.361 76.1316 208.721C73.9261 208.901 72.1342 209.032 70.9005 209.101C70.3078 209.136 69.8391 209.157 69.4738 209.178C69.1499 209.191 68.9776 209.191 68.9776 209.178L68.9707 209.171Z" fill="#5264AE"/>
<path d="M66.3439 204.713C66.3439 204.713 66.7781 204.651 67.5638 204.602C68.4115 204.554 69.5349 204.498 70.8995 204.422C73.7735 204.277 77.64 204.076 81.913 203.855C86.1861 203.605 90.0526 203.384 92.9266 203.211C94.2912 203.135 95.4146 203.072 96.2623 203.024C97.048 202.982 97.4891 202.975 97.4891 203.003C97.4891 203.031 97.0549 203.086 96.2692 203.169C95.4835 203.252 94.3463 203.356 92.9404 203.474C90.1284 203.709 86.2344 203.986 81.9268 204.221C77.6262 204.457 73.7253 204.609 70.8995 204.685C69.4866 204.727 68.3426 204.748 67.5569 204.748C66.7643 204.748 66.3301 204.748 66.3301 204.72L66.3439 204.713Z" fill="#5264AE"/>
<path d="M19.071 141.604C19.1812 141.182 19.3604 140.781 19.6086 140.421C20.1048 139.708 20.856 139.161 21.7106 138.967C23.1235 138.642 24.7087 139.306 25.4737 140.545C25.4255 139.604 26.1629 138.718 27.0727 138.469C27.9824 138.22 28.6854 138.573 29.4091 139.175C30.1327 139.777 30.3188 140.262 30.6152 141.154C31.3389 139.521 35.0537 139.722 35.5086 140.947C35.5086 140.947 38.7065 137.43 40.3399 139.161C41.0222 139.881 40.7259 140.981 40.2779 142.082C39.6783 143.556 39.2785 144.173 38.4928 145.792L35.4672 145.958C35.2122 146.914 34.6746 150.783 34.5643 151.759C34.4541 152.735 34.2542 153.732 33.7373 154.569C33.2204 155.407 32.3175 156.065 31.3389 156.051C30.3602 156.037 29.3884 155.192 29.4504 154.209C29.2437 155.019 28.8991 155.822 28.2995 156.411C27.6998 156.999 26.8177 157.338 26.0113 157.124C25.2049 156.909 24.564 156.065 24.7225 155.241C23.6404 155.988 22.0483 155.324 21.3591 154.203C20.6768 153.074 20.6562 151.676 20.6975 150.361C20.732 149.191 20.8422 147.883 20.3805 146.775C20.3115 146.602 20.1806 146.45 20.1392 146.263C20.0772 145.986 20.1186 145.675 20.0979 145.398C20.0565 144.782 19.9463 144.173 19.7326 143.598C19.6844 143.473 19.6361 143.349 19.581 143.224C19.4363 142.899 19.2157 142.622 19.0503 142.304C19.0158 142.234 18.9814 142.165 18.9745 142.089C18.9538 141.93 19.0227 141.75 19.0641 141.604H19.071Z" fill="#FFBF9D"/>
<path d="M15.6666 139.915C14.8602 139.888 13.9781 140.054 13.4336 140.663C12.7926 141.383 12.6479 143.1 12.7168 144.062C13.8402 144.276 14.4398 144.02 15.5563 144.235C15.7907 144.276 15.9905 144.221 16.1835 144.359C16.7004 144.726 16.6177 145.972 16.8245 146.574C17.1829 147.62 18.5199 148.132 19.5469 147.744C20.5807 147.364 21.2423 146.256 21.2974 145.155C21.3526 144.048 20.8632 142.968 20.1603 142.124C19.0506 140.802 17.3759 139.978 15.6597 139.915H15.6666Z" fill="#FFBF9D"/>
<path d="M34.7784 150.153C34.6612 150.125 35.123 148.07 35.4194 145.501C35.5572 144.221 35.5917 143.051 35.5434 142.207C35.5021 141.362 35.3987 140.85 35.4538 140.836C35.4952 140.822 35.6813 141.327 35.7915 142.186C35.9087 143.037 35.9156 144.242 35.7709 145.543C35.633 146.844 35.3918 148.007 35.1919 148.838C34.9921 149.669 34.8267 150.174 34.7784 150.16V150.153Z" fill="#5264AE"/>
<path d="M29.3131 154.583C29.2648 154.569 29.3889 153.822 29.6163 152.617C29.8369 151.413 30.1401 149.745 30.3744 147.897C30.6088 146.048 30.6915 144.359 30.6639 143.141C30.6432 141.923 30.5605 141.168 30.6157 141.161C30.657 141.155 30.8362 141.902 30.9189 143.134C31.0085 144.366 30.9672 146.076 30.7328 147.945C30.4985 149.814 30.147 151.475 29.8644 152.673C29.5819 153.87 29.3613 154.597 29.3131 154.583Z" fill="#5264AE"/>
<path d="M24.6892 155.372C24.634 155.359 24.827 154.528 25.0682 153.185C25.3095 151.842 25.5782 149.966 25.6954 147.89C25.8057 145.806 25.7437 143.916 25.6472 142.553C25.5507 141.189 25.4542 140.345 25.5093 140.338C25.5369 140.338 25.5851 140.538 25.661 140.919C25.7368 141.3 25.8195 141.847 25.9022 142.532C26.0607 143.903 26.1641 145.806 26.0538 147.91C25.9366 150.015 25.6265 151.897 25.3163 153.24C25.1647 153.912 25.02 154.452 24.9028 154.819C24.7857 155.185 24.7167 155.386 24.6892 155.379V155.372Z" fill="#5264AE"/>
<path d="M18.5953 141.819C18.6091 141.784 19.0088 141.895 19.5395 142.297C20.0633 142.691 20.6974 143.397 21.0695 144.352C21.4417 145.301 21.4693 146.27 21.2763 146.92C21.0764 147.592 20.656 147.82 20.6422 147.779C20.6009 147.737 20.911 147.467 21.0282 146.858C21.1454 146.263 21.0833 145.37 20.7387 144.484C20.3941 143.598 19.8359 142.913 19.3741 142.49C18.9123 142.061 18.5677 141.867 18.5953 141.819Z" fill="#5264AE"/>
</g>
<defs>
<clipPath id="clip0_22_4193">
<rect width="159" height="292" fill="white"/>
</clipPath>
</defs>
</svg>
