<svg width="687" height="580" viewBox="0 0 687 580" fill="none" xmlns="http://www.w3.org/2000/svg">
<rect x="2" width="685" height="580" fill="white"/>
<path d="M2 46V173.661" stroke="#E5F2FF" stroke-width="2.5" stroke-miterlimit="10"/>
<path d="M20.2659 95.4291V173.661" stroke="#E5F2FF" stroke-width="2.5" stroke-miterlimit="10"/>
<path d="M39.1602 134.553V173.661" stroke="#E5F2FF" stroke-width="2.5" stroke-miterlimit="10"/>
<path d="M95.3938 122.606V173.661" stroke="#E5F2FF" stroke-width="2.5" stroke-miterlimit="10"/>
<path d="M113.66 55.0048V173.661" stroke="#E5F2FF" stroke-width="2.5" stroke-miterlimit="10"/>
<path d="M132.554 95.4291V173.661" stroke="#E5F2FF" stroke-width="2.5" stroke-miterlimit="10"/>
<path d="M188.833 109.83V173.661" stroke="#E5F2FF" stroke-width="2.5" stroke-miterlimit="10"/>
<path d="M207.098 143.184V173.661" stroke="#E5F2FF" stroke-width="2.5" stroke-miterlimit="10"/>
<path d="M225.993 77.4521V173.661" stroke="#E5F2FF" stroke-width="2.5" stroke-miterlimit="10"/>
<path d="M282.226 77.4521V173.661" stroke="#E5F2FF" stroke-width="2.5" stroke-miterlimit="10"/>
<path d="M300.492 63.7984V173.661" stroke="#E5F2FF" stroke-width="2.5" stroke-miterlimit="10"/>
<path d="M319.386 156.383V173.661" stroke="#E5F2FF" stroke-width="2.5" stroke-miterlimit="10"/>
<path d="M375.665 131.79V173.661" stroke="#E5F2FF" stroke-width="2.5" stroke-miterlimit="10"/>
<path d="M393.931 83.7912V173.661" stroke="#E5F2FF" stroke-width="2.5" stroke-miterlimit="10"/>
<path d="M412.78 114.333V173.661" stroke="#E5F2FF" stroke-width="2.5" stroke-miterlimit="10"/>
<path d="M415.648 352.221C415.648 352.221 402.118 500.04 347.067 542.913C292.015 585.786 249.084 481.06 188.832 521.257C95.04 583.821 -7.4704 468.933 105.88 346.312" stroke="#1A58BF" stroke-width="0.55" stroke-miterlimit="10" stroke-dasharray="7.1 5.1"/>
<path d="M132.616 500.855C128.93 501.501 125.437 502.743 122.255 504.488L115.128 498.98L110.536 503.092L105.944 507.203L110.64 514.883C108.557 517.857 106.94 521.192 105.88 524.787L96.9414 525.925L96.6051 532.066L96.2688 538.207L105.026 540.328C105.673 544.012 106.914 547.503 108.661 550.684L103.15 557.808L107.264 562.398L111.377 566.988L119.06 562.294C122.035 564.376 125.373 565.992 128.969 567.052L130.107 575.986L136.251 576.322L142.395 576.659L144.517 567.906C148.203 567.259 151.696 566.018 154.878 564.272L162.005 569.78L166.597 565.669L171.189 561.557L166.493 553.877C168.576 550.904 170.193 547.568 171.253 543.974L180.191 542.836L180.528 536.695L180.864 530.553L172.107 528.433C171.46 524.748 170.219 521.257 168.472 518.077L173.983 510.953L169.869 506.363L165.756 501.773L158.073 506.466C155.097 504.385 151.76 502.768 148.164 501.708L147.026 492.774L140.882 492.438L134.738 492.102L132.616 500.855ZM150.156 535.014C149.807 541.414 144.323 546.314 137.933 545.965C131.53 545.616 126.627 540.134 126.977 533.747C127.326 527.347 132.81 522.447 139.2 522.796C145.603 523.145 150.506 528.627 150.156 535.014Z" fill="#D5DDFD"/>
<path d="M501.427 92.3547C495.805 93.3409 490.479 95.2345 485.627 97.8973L474.759 89.4946L467.756 95.7671L460.754 102.04L467.914 113.756C464.739 118.293 462.273 123.382 460.656 128.865L447.026 130.601L446.513 139.97L446 149.34L459.354 152.574C460.34 158.196 462.233 163.522 464.896 168.374L456.494 179.242L462.766 186.245L469.039 193.247L480.755 186.087C485.292 189.262 490.381 191.728 495.864 193.346L497.6 206.975L506.969 207.488L516.339 208.001L519.573 194.647C525.195 193.661 530.521 191.768 535.373 189.105L546.241 197.507L553.244 191.235L560.246 184.962L553.086 173.246C556.261 168.709 558.727 163.62 560.344 158.137L573.974 156.401L574.487 147.032L575 137.662L561.646 134.428C560.66 128.806 558.767 123.48 556.104 118.628L564.506 107.76L558.234 100.757L551.961 93.7552L540.245 100.915C535.708 97.7395 530.619 95.2739 525.136 93.6565L523.4 80.0267L514.031 79.5139L504.661 79.001L501.427 92.3547ZM528.173 144.468C527.641 154.231 519.278 161.707 509.533 161.174C499.77 160.642 492.294 152.279 492.827 142.534C493.359 132.771 501.722 125.295 511.467 125.828C521.23 126.36 528.706 134.723 528.173 144.468Z" fill="#D5DDFD"/>
<path d="M608.943 35.1781C605.501 35.7821 602.239 36.9417 599.268 38.5724L592.612 33.4266L588.324 37.2679L584.035 41.1092L588.42 48.2844C586.476 51.0627 584.966 54.1792 583.975 57.5373L575.628 58.6003L575.314 64.3381L575 70.0758L583.178 72.0569C583.782 75.4995 584.941 78.761 586.572 81.7326L581.426 88.3884L585.268 92.6766L589.109 96.9648L596.284 92.58C599.062 94.5248 602.179 96.0347 605.537 97.0252L606.6 105.372L612.338 105.686L618.076 106L620.057 97.8225C623.499 97.2185 626.761 96.0589 629.732 94.4281L636.388 99.574L640.676 95.7327L644.965 91.8914L640.58 84.7162C642.524 81.9379 644.034 78.8214 645.025 75.4633L653.372 74.4003L653.686 68.6625L654 62.9248L645.822 60.9437C645.218 57.5011 644.059 54.2396 642.428 51.268L647.574 44.6122L643.732 40.324L639.891 36.0358L632.716 40.4206C629.938 38.4758 626.821 36.9659 623.463 35.9754L622.4 27.6284L616.662 27.3144L610.924 27.0003L608.943 35.1781ZM625.323 67.0922C624.997 73.0715 619.875 77.6497 613.908 77.3235C607.929 76.9974 603.351 71.8757 603.677 65.9084C604.003 59.929 609.125 55.3509 615.092 55.677C621.071 56.0032 625.649 61.1249 625.323 67.0922Z" fill="#D5DDFD"/>
<path d="M535.054 7.07235C532.918 7.44697 530.895 8.16623 529.052 9.1777L524.924 5.98597L522.264 8.36853L519.604 10.7511L522.324 15.2016C521.118 16.9248 520.181 18.8578 519.567 20.9407L514.39 21.6L514.195 25.1589L514 28.7178L519.072 29.9465C519.447 32.0818 520.166 34.1048 521.178 35.9479L517.986 40.0762L520.369 42.736L522.751 45.3957L527.202 42.676C528.925 43.8823 530.858 44.8188 532.941 45.4332L533.6 50.6104L537.159 50.8052L540.718 51L541.946 45.9277C544.082 45.5531 546.105 44.8338 547.948 43.8224L552.076 47.0141L554.736 44.6315L557.396 42.249L554.676 37.7985C555.882 36.0753 556.819 34.1422 557.433 32.0594L562.61 31.4L562.805 27.8412L563 24.2823L557.928 23.0536C557.553 20.9182 556.834 18.8953 555.822 17.0522L559.014 12.9239L556.631 10.2641L554.249 7.60432L549.798 10.324C548.075 9.11776 546.142 8.18122 544.059 7.56685L543.4 2.38963L539.841 2.19484L536.282 2.00003L535.054 7.07235ZM545.213 26.8672C545.011 30.5759 541.834 33.4155 538.133 33.2132C534.424 33.0109 531.585 29.8341 531.787 26.1329C531.989 22.4242 535.166 19.5846 538.867 19.7869C542.576 19.9892 545.415 23.1659 545.213 26.8672Z" fill="#D5DDFD"/>
<path d="M104.323 300.727L104.323 422.14L584.477 422.14L584.477 183.658C584.477 162.666 567.444 145.642 546.443 145.642L142.357 145.642C121.355 145.642 104.323 162.666 104.323 183.658L104.323 300.715L104.323 300.727ZM573.404 185.934L573.404 412.741L115.396 412.741L115.396 185.922C115.396 168.863 129.225 155.04 146.292 155.04L542.508 155.04C559.574 155.04 573.404 168.863 573.404 185.922L573.404 185.934Z" fill="#333343"/>
<path d="M573.404 185.922L573.404 412.73L115.396 412.73L115.396 185.922C115.396 168.863 129.225 155.04 146.292 155.04L542.508 155.04C559.574 155.04 573.404 168.863 573.404 185.922Z" fill="white"/>
<path d="M619.799 422.197L69 422.197L69 432.018L619.799 432.018L619.799 422.197Z" fill="#333343"/>
<path d="M619.799 432.087L69 432.087L76.195 440.353C82.5206 447.625 91.6945 451.81 101.337 451.81L587.451 451.81C597.093 451.81 606.267 447.636 612.593 440.353L619.788 432.087L619.799 432.087Z" fill="#333343"/>
<path d="M376.382 429.194L312.405 429.194C305.92 429.194 299.674 426.69 294.996 422.197L393.804 422.197C389.125 426.69 382.88 429.194 376.394 429.194L376.382 429.194Z" fill="#4F5465"/>
<path d="M210.658 155.04L542.611 155.04C559.609 155.04 573.404 168.829 573.404 185.819L573.404 186.196L210.658 186.196L210.658 155.029L210.658 155.04Z" fill="#F5F5F5"/>
<path d="M222.257 166.588L233.627 166.588" stroke="#333343" stroke-miterlimit="10" stroke-linecap="round"/>
<path d="M222.257 170.624L233.627 170.624" stroke="#333343" stroke-miterlimit="10" stroke-linecap="round"/>
<path d="M222.257 174.671L233.627 174.671" stroke="#333343" stroke-miterlimit="10" stroke-linecap="round"/>
<path d="M146.097 155.04L210.658 155.04L210.658 412.718L115.396 412.718L115.396 185.739C115.396 168.795 129.156 155.04 146.109 155.04L146.097 155.04Z" fill="#E9E9E9"/>
<g style="mix-blend-mode:multiply">
<path d="M203.966 299.423L122.076 299.423L122.076 307.301L203.966 307.301L203.966 299.423Z" fill="#EAEAEA"/>
</g>
<g style="mix-blend-mode:multiply">
<path d="M203.966 322.873L122.076 322.873L122.076 330.751L203.966 330.751L203.966 322.873Z" fill="#EAEAEA"/>
</g>
<g style="mix-blend-mode:multiply">
<path d="M203.966 346.312L122.076 346.312L122.076 354.19L203.966 354.19L203.966 346.312Z" fill="#EAEAEA"/>
</g>
<g style="mix-blend-mode:multiply">
<path d="M203.966 229.13L122.076 229.13L122.076 237.007L203.966 237.007L203.966 229.13Z" fill="#EAEAEA"/>
</g>
<g style="mix-blend-mode:multiply">
<path d="M203.966 252.58L122.076 252.58L122.076 260.458L203.966 260.458L203.966 252.58Z" fill="#EAEAEA"/>
</g>
<g style="mix-blend-mode:multiply">
<path d="M203.966 276.019L122.076 276.019L122.076 283.897L203.966 283.897L203.966 276.019Z" fill="#EAEAEA"/>
</g>
<path d="M468.602 160.3L455.241 160.3C453.226 160.3 451.592 161.933 451.592 163.947L451.592 177.301C451.592 179.316 453.226 180.949 455.241 180.949L468.602 180.949C470.617 180.949 472.251 179.316 472.251 177.301L472.251 163.947C472.251 161.933 470.617 160.3 468.602 160.3Z" fill="#5264AE"/>
<g style="mix-blend-mode:multiply">
<path d="M532.007 165.639L476.952 165.639L476.952 170.544L532.007 170.544L532.007 165.639Z" fill="#EAEAEA"/>
</g>
<g style="mix-blend-mode:multiply">
<path d="M532.007 173.871L476.952 173.871L476.952 175.609L532.007 175.609L532.007 173.871Z" fill="#EAEAEA"/>
</g>
<path d="M328.225 210.47L239.506 210.47C236.259 210.47 233.627 213.101 233.627 216.347L233.627 260.915C233.627 264.161 236.259 266.792 239.506 266.792L328.225 266.792C331.472 266.792 334.105 264.161 334.105 260.915L334.105 216.347C334.105 213.101 331.472 210.47 328.225 210.47Z" fill="#EAEAEA"/>
<path d="M436.425 210.47L347.705 210.47C344.458 210.47 341.826 213.101 341.826 216.347L341.826 260.915C341.826 264.161 344.458 266.792 347.705 266.792L436.425 266.792C439.672 266.792 442.304 264.161 442.304 260.915L442.304 216.347C442.304 213.101 439.672 210.47 436.425 210.47Z" fill="#EAEAEA"/>
<path d="M544.612 210.47L455.893 210.47C452.646 210.47 450.014 213.101 450.014 216.347L450.014 260.915C450.014 264.161 452.646 266.792 455.893 266.792L544.612 266.792C547.86 266.792 550.492 264.161 550.492 260.915L550.492 216.347C550.492 213.101 547.86 210.47 544.612 210.47Z" fill="#EAEAEA"/>
<path d="M499.12 224.122C490.667 224.122 483.804 231.039 483.804 239.592C483.804 248.144 490.667 255.061 499.12 255.061C507.574 255.061 514.437 248.133 514.437 239.592C514.437 231.051 507.574 224.122 499.12 224.122ZM499.12 250.351C493.229 250.351 488.46 245.526 488.46 239.592C488.46 233.658 493.229 228.821 499.12 228.821C505.011 228.821 509.793 233.646 509.793 239.592C509.793 245.537 505.023 250.351 499.12 250.351Z" fill="white"/>
<mask id="mask0_2001_679" style="mask-type:luminance" maskUnits="userSpaceOnUse" x="499" y="215" width="23" height="25">
<path d="M499.12 239.591L499.12 215.615C499.12 215.615 520.156 218.862 521.277 239.591L499.12 239.591Z" fill="white"/>
</mask>
<g mask="url(#mask0_2001_679)">
<path d="M499.12 224.122C490.667 224.122 483.804 231.039 483.804 239.592C483.804 248.144 490.667 255.061 499.12 255.061C507.574 255.061 514.437 248.133 514.437 239.592C514.437 231.051 507.574 224.122 499.12 224.122ZM499.12 250.351C493.229 250.351 488.46 245.526 488.46 239.592C488.46 233.658 493.229 228.821 499.12 228.821C505.011 228.821 509.793 233.646 509.793 239.592C509.793 245.537 505.023 250.351 499.12 250.351Z" fill="#FF2366"/>
</g>
<path d="M282.745 224.122C274.292 224.122 267.428 231.039 267.428 239.592C267.428 248.144 274.292 255.061 282.745 255.061C291.198 255.061 298.061 248.133 298.061 239.592C298.061 231.051 291.198 224.122 282.745 224.122ZM282.745 250.351C276.854 250.351 272.084 245.526 272.084 239.592C272.084 233.658 276.854 228.821 282.745 228.821C288.636 228.821 293.417 233.646 293.417 239.592C293.417 245.537 288.647 250.351 282.745 250.351Z" fill="white"/>
<mask id="mask1_2001_679" style="mask-type:luminance" maskUnits="userSpaceOnUse" x="282" y="215" width="23" height="25">
<path d="M282.745 239.591L282.745 215.615C282.745 215.615 303.781 218.862 304.902 239.591L282.745 239.591Z" fill="white"/>
</mask>
<g mask="url(#mask1_2001_679)">
<path d="M282.745 224.122C274.292 224.122 267.428 231.039 267.428 239.592C267.428 248.144 274.292 255.061 282.745 255.061C291.198 255.061 298.061 248.133 298.061 239.592C298.061 231.051 291.198 224.122 282.745 224.122ZM282.745 250.351C276.854 250.351 272.084 245.526 272.084 239.592C272.084 233.658 276.854 228.821 282.745 228.821C288.636 228.821 293.417 233.646 293.417 239.592C293.417 245.537 288.647 250.351 282.745 250.351Z" fill="#39B54A"/>
</g>
<path d="M390.933 224.122C382.479 224.122 375.616 231.039 375.616 239.592C375.616 248.144 382.479 255.061 390.933 255.061C399.386 255.061 406.249 248.133 406.249 239.592C406.249 231.051 399.386 224.122 390.933 224.122ZM390.933 250.351C385.042 250.351 380.272 245.526 380.272 239.592C380.272 233.658 385.042 228.821 390.933 228.821C396.824 228.821 401.605 233.646 401.605 239.592C401.605 245.537 396.835 250.351 390.933 250.351Z" fill="white"/>
<mask id="mask2_2001_679" style="mask-type:luminance" maskUnits="userSpaceOnUse" x="390" y="215" width="24" height="25">
<path d="M390.933 239.591L390.933 215.615C390.933 215.615 411.968 218.862 413.089 239.591L390.933 239.591Z" fill="white"/>
</mask>
<g mask="url(#mask2_2001_679)">
<path d="M390.933 224.122C382.479 224.122 375.616 231.039 375.616 239.592C375.616 248.144 382.479 255.061 390.933 255.061C399.386 255.061 406.249 248.133 406.249 239.592C406.249 231.051 399.386 224.122 390.933 224.122ZM390.933 250.351C385.042 250.351 380.272 245.526 380.272 239.592C380.272 233.658 385.042 228.821 390.933 228.821C396.824 228.821 401.605 233.646 401.605 239.592C401.605 245.537 396.835 250.351 390.933 250.351Z" fill="#FFBA00"/>
</g>
<path d="M540.963 278.122L243.155 278.122C237.893 278.122 233.627 282.386 233.627 287.646L233.627 389.622C233.627 394.882 237.893 399.147 243.155 399.147L540.963 399.147C546.226 399.147 550.492 394.882 550.492 389.622L550.492 287.646C550.492 282.386 546.226 278.122 540.963 278.122Z" fill="#EAEAEA"/>
<path d="M375.616 309.965L290.935 309.965" stroke="#1A58BF" stroke-width="0.55" stroke-miterlimit="10"/>
<path d="M271.569 309.965L257.499 309.965" stroke="#1A58BF" stroke-width="0.55" stroke-miterlimit="10"/>
<path d="M375.616 324.303L290.935 324.303" stroke="#1A58BF" stroke-width="0.55" stroke-miterlimit="10"/>
<path d="M271.569 324.303L257.499 324.303" stroke="#1A58BF" stroke-width="0.55" stroke-miterlimit="10"/>
<path d="M375.616 338.629L290.935 338.629" stroke="#1A58BF" stroke-width="0.55" stroke-miterlimit="10"/>
<path d="M271.569 338.629L257.499 338.629" stroke="#1A58BF" stroke-width="0.55" stroke-miterlimit="10"/>
<path d="M375.616 352.955L290.935 352.955" stroke="#1A58BF" stroke-width="0.55" stroke-miterlimit="10"/>
<path d="M271.569 352.955L257.499 352.955" stroke="#1A58BF" stroke-width="0.55" stroke-miterlimit="10"/>
<path d="M375.616 367.293L290.935 367.293" stroke="#1A58BF" stroke-width="0.55" stroke-miterlimit="10"/>
<path d="M271.569 367.293L257.499 367.293" stroke="#1A58BF" stroke-width="0.55" stroke-miterlimit="10"/>
<path d="M526.939 309.965L442.258 309.965" stroke="#1A58BF" stroke-width="0.55" stroke-miterlimit="10"/>
<path d="M422.892 309.965L408.823 309.965" stroke="#1A58BF" stroke-width="0.55" stroke-miterlimit="10"/>
<path d="M526.939 324.303L442.258 324.303" stroke="#1A58BF" stroke-width="0.55" stroke-miterlimit="10"/>
<path d="M422.892 324.303L408.823 324.303" stroke="#1A58BF" stroke-width="0.55" stroke-miterlimit="10"/>
<path d="M526.939 338.629L442.258 338.629" stroke="#1A58BF" stroke-width="0.55" stroke-miterlimit="10"/>
<path d="M422.892 338.629L408.823 338.629" stroke="#1A58BF" stroke-width="0.55" stroke-miterlimit="10"/>
<path d="M526.939 352.955L442.258 352.955" stroke="#1A58BF" stroke-width="0.55" stroke-miterlimit="10"/>
<path d="M422.892 352.955L408.823 352.955" stroke="#1A58BF" stroke-width="0.55" stroke-miterlimit="10"/>
<path d="M526.939 367.293L442.258 367.293" stroke="#1A58BF" stroke-width="0.55" stroke-miterlimit="10"/>
<path d="M422.892 367.293L408.823 367.293" stroke="#1A58BF" stroke-width="0.55" stroke-miterlimit="10"/>
<path d="M167.694 182.927C167.11 183.91 166.207 184.687 165.12 185.099C165.086 185.11 165.04 185.122 165.006 185.133C164.479 185.316 163.919 185.431 163.324 185.431C162.558 185.431 161.837 185.259 161.208 184.95C160.133 184.424 159.298 183.51 158.84 182.389C158.737 182.149 158.657 181.898 158.6 181.635C158.497 181.223 158.451 180.8 158.451 180.354C158.451 179.748 158.543 179.176 158.726 178.639C159.103 177.507 159.847 176.558 160.842 175.964C160.876 175.941 160.911 175.918 160.945 175.895C161.643 175.495 162.455 175.277 163.336 175.277C164.056 175.277 164.731 175.426 165.349 175.701L165.383 175.723C166.435 176.192 167.305 177.004 167.831 178.022C167.98 178.319 168.117 178.628 168.208 178.948L173.013 178.948C172.784 177.393 172.201 175.964 171.343 174.74C170.656 173.757 169.787 172.911 168.78 172.236C167.797 171.573 166.687 171.093 165.497 170.818C164.8 170.658 164.079 170.578 163.347 170.578C162.523 170.578 161.711 170.681 160.945 170.876C160.053 171.104 159.206 171.459 158.417 171.905C158.417 171.905 158.405 171.905 158.394 171.916L158.348 170.91C158.302 169.801 157.662 168.875 156.827 168.109C155.992 167.354 154.185 166.096 153.075 166.142C153.075 166.142 153.178 167.137 153.292 168.635C153.395 170.007 153.521 171.802 153.601 173.643C153.681 175.38 153.716 177.153 153.658 178.662C153.658 178.81 153.658 178.959 153.647 179.096C153.613 179.394 153.658 181.543 153.944 182.915C154.001 183.212 154.07 183.464 154.15 183.67C154.413 184.379 154.745 185.053 155.157 185.671C155.866 186.757 156.793 187.694 157.879 188.426C158.577 188.906 159.343 189.284 160.167 189.569C161.162 189.912 162.237 190.107 163.347 190.107C163.873 190.107 164.388 190.061 164.88 189.981C166.172 189.775 167.373 189.318 168.449 188.666C169.501 188.014 170.428 187.18 171.171 186.185C172.109 184.927 172.761 183.441 173.013 181.817L168.197 181.817C168.083 182.195 167.922 182.561 167.717 182.892L167.694 182.927ZM158.394 171.996L158.394 172.042L158.383 172.042L158.383 171.996L158.394 171.996Z" fill="#8FA0E4"/>
</svg>
