<svg width="80" height="80" viewBox="0 0 80 80" fill="none" xmlns="http://www.w3.org/2000/svg">
<rect y="-0.000976562" width="80" height="80" rx="16" fill="#D5DDFD"/>
<path fill-rule="evenodd" clip-rule="evenodd" d="M55.9297 21.939C56.4897 22.269 57.0997 22.439 57.7697 22.439C58.4397 22.439 59.0497 22.269 59.5997 21.939C60.1497 21.609 60.5997 21.159 60.9297 20.589C61.2597 20.019 61.4297 19.409 61.4297 18.719C61.4297 18.029 61.2597 17.399 60.9297 16.839C60.5997 16.279 60.1497 15.829 59.5997 15.499C59.0497 15.169 58.4397 14.999 57.7697 14.999C57.0997 14.999 56.4897 15.169 55.9297 15.499C55.3697 15.829 54.9197 16.279 54.5797 16.839C54.2397 17.399 54.0697 18.039 54.0697 18.719C54.0697 19.399 54.2397 20.019 54.5797 20.589C54.9197 21.159 55.3697 21.609 55.9297 21.939ZM59.1897 21.159C58.7797 21.439 58.2997 21.579 57.7697 21.579C57.2397 21.579 56.7597 21.439 56.3397 21.159C55.9197 20.879 55.5897 20.519 55.3397 20.089C55.0897 19.659 54.9697 19.199 54.9697 18.719C54.9697 18.239 55.0897 17.779 55.3397 17.339C55.5897 16.899 55.9197 16.539 56.3397 16.269C56.7597 15.999 57.2397 15.859 57.7697 15.859C58.2997 15.859 58.7797 15.999 59.1897 16.279C59.5997 16.559 59.9297 16.919 60.1697 17.349C60.4097 17.779 60.5297 18.249 60.5297 18.719C60.5297 19.189 60.4097 19.639 60.1697 20.079C59.9297 20.519 59.5997 20.879 59.1897 21.159ZM67.8097 15.239L55.5097 30.139H56.7297L69.0297 15.239H67.8097ZM65.0497 29.879C65.6097 30.209 66.2197 30.379 66.8897 30.379C67.5597 30.379 68.1697 30.209 68.7197 29.879C69.2697 29.549 69.7197 29.099 70.0497 28.539C70.3797 27.979 70.5497 27.349 70.5497 26.659C70.5497 25.969 70.3797 25.339 70.0497 24.779C69.7197 24.219 69.2697 23.769 68.7197 23.439C68.1697 23.109 67.5597 22.939 66.8897 22.939C66.2197 22.939 65.6097 23.109 65.0497 23.439C64.4897 23.769 64.0397 24.219 63.6997 24.779C63.3597 25.339 63.1897 25.969 63.1897 26.659C63.1897 27.349 63.3597 27.979 63.6997 28.539C64.0397 29.099 64.4897 29.549 65.0497 29.879ZM68.3097 29.099C67.8997 29.379 67.4197 29.519 66.8897 29.519C66.3597 29.519 65.8797 29.379 65.4597 29.099C65.0397 28.819 64.7097 28.459 64.4597 28.029C64.2097 27.599 64.0897 27.139 64.0897 26.659C64.0897 26.179 64.2097 25.719 64.4597 25.279C64.7097 24.839 65.0397 24.479 65.4597 24.209C65.8797 23.939 66.3597 23.799 66.8897 23.799C67.4197 23.799 67.8997 23.939 68.3097 24.219C68.7197 24.499 69.0497 24.859 69.2897 25.289C69.5297 25.719 69.6497 26.189 69.6497 26.659C69.6497 27.129 69.5297 27.579 69.2897 28.019C69.0497 28.459 68.7197 28.819 68.3097 29.099ZM19.4098 62.7587C22.3798 64.8687 25.7998 65.9287 29.6698 65.9287V65.9387C33.6298 65.9387 37.0798 64.8687 40.0298 62.7387C42.9798 60.6087 45.2798 57.6387 46.9298 53.8287C48.5798 50.0187 49.3998 45.5887 49.3998 40.5287C49.3998 35.4687 48.5798 31.0387 46.9298 27.2287C45.2798 23.4187 42.9698 20.4587 39.9998 18.3487C37.0198 16.2387 33.4698 15.1787 29.5998 15.1787C25.7298 15.1787 22.3198 16.2287 19.3498 18.3387C16.3798 20.4487 14.0798 23.4087 12.4498 27.2187C10.8198 31.0287 10.0098 35.4587 10.0098 40.5187C10.0098 45.5787 10.8298 50.0187 12.4798 53.8487C14.1298 57.6787 16.4398 60.6487 19.4098 62.7587ZM37.5898 53.1287C35.6998 56.2087 33.0598 57.7487 29.6698 57.7487C26.3298 57.7487 23.7098 56.2087 21.8198 53.1287C19.9298 50.0487 18.9798 45.8387 18.9798 40.5187C18.9798 35.1987 19.9298 31.0087 21.8198 27.9487C23.7098 24.8887 26.2298 23.3587 29.6098 23.3587C32.9898 23.3587 35.6498 24.8887 37.5598 27.9487C39.4698 31.0087 40.4298 35.1887 40.4298 40.5187C40.4298 45.8487 39.4798 50.0487 37.5898 53.1287Z" fill="#5264AE"/>
</svg>
