<svg width="686" height="580" viewBox="0 0 686 580" fill="none" xmlns="http://www.w3.org/2000/svg">
<rect y="-0.000976562" width="685" height="580" fill="white"/>
<g clip-path="url(#clip0_2009_685)">
<path d="M588.16 502.419C619.784 502.419 645.42 476.783 645.42 445.159C645.42 413.535 619.784 387.899 588.16 387.899C556.536 387.899 530.9 413.535 530.9 445.159C530.9 476.783 556.536 502.419 588.16 502.419Z" stroke="#D5DDFD" stroke-width="3" stroke-miterlimit="10"/>
<path d="M588.16 540.819C640.992 540.819 683.82 497.991 683.82 445.159C683.82 392.328 640.992 349.499 588.16 349.499C535.328 349.499 492.5 392.328 492.5 445.159C492.5 497.991 535.328 540.819 588.16 540.819Z" stroke="#D5DDFD" stroke-width="3" stroke-miterlimit="10"/>
<path d="M588.16 522.129C630.669 522.129 665.13 487.669 665.13 445.159C665.13 402.65 630.669 368.189 588.16 368.189C545.651 368.189 511.19 402.65 511.19 445.159C511.19 487.669 545.651 522.129 588.16 522.129Z" stroke="#D5DDFD" stroke-width="3" stroke-miterlimit="10"/>
</g>
<g clip-path="url(#clip1_2009_685)">
<path d="M261.16 175.419C292.784 175.419 318.42 149.783 318.42 118.159C318.42 86.5352 292.784 60.899 261.16 60.899C229.536 60.899 203.9 86.5352 203.9 118.159C203.9 149.783 229.536 175.419 261.16 175.419Z" stroke="#D5DDFD" stroke-width="3" stroke-miterlimit="10"/>
<path d="M261.16 213.819C313.992 213.819 356.82 170.991 356.82 118.159C356.82 65.3275 313.992 22.499 261.16 22.499C208.328 22.499 165.5 65.3275 165.5 118.159C165.5 170.991 208.328 213.819 261.16 213.819Z" stroke="#D5DDFD" stroke-width="3" stroke-miterlimit="10"/>
<path d="M261.16 195.129C303.669 195.129 338.13 160.668 338.13 118.159C338.13 75.6497 303.669 41.189 261.16 41.189C218.651 41.189 184.19 75.6497 184.19 118.159C184.19 160.668 218.651 195.129 261.16 195.129Z" stroke="#D5DDFD" stroke-width="3" stroke-miterlimit="10"/>
</g>
<g clip-path="url(#clip2_2009_685)">
<path d="M629.14 87.5618H628.706V42.2182C628.706 27.1883 616.519 14.999 601.492 14.999H436.518C421.491 14.999 409.303 27.1883 409.303 42.2182V87.5618H408.87C406.905 87.5618 405.317 89.1499 405.317 91.1146V122.476C405.317 124.441 406.905 126.029 408.87 126.029H409.303V133.511H408.87C406.905 133.511 405.317 135.099 405.317 137.064V168.425C405.317 170.39 406.905 171.978 408.87 171.978H409.303V446.659C409.303 461.689 421.491 473.878 436.518 473.878H601.492C616.519 473.878 628.706 461.689 628.706 446.659V145.266H629.14C631.104 145.266 632.692 143.678 632.692 141.714V91.1146C632.692 89.1499 631.104 87.5618 629.14 87.5618Z" fill="#333343"/>
<path d="M598.684 21.7281H439.334C427.124 21.7281 417.226 31.6276 417.226 43.8392V445.038C417.226 457.25 427.124 467.149 439.334 467.149H598.684C610.894 467.149 620.791 457.25 620.791 445.038V43.8392C620.791 31.6276 610.894 21.7281 598.684 21.7281Z" fill="white"/>
<path d="M588.707 385.86H449.311C446.612 385.86 444.425 388.048 444.425 390.747V410.779C444.425 413.478 446.612 415.666 449.311 415.666H588.707C591.406 415.666 593.593 413.478 593.593 410.779V390.747C593.593 388.048 591.406 385.86 588.707 385.86Z" fill="#5264AE"/>
<path d="M519.013 331.831C534.495 331.831 547.046 319.278 547.046 303.793C547.046 288.308 534.495 275.755 519.013 275.755C503.531 275.755 490.98 288.308 490.98 303.793C490.98 319.278 503.531 331.831 519.013 331.831Z" fill="#84C98B"/>
<path d="M586.832 118.261L451.029 118.498C446.59 118.505 442.998 122.111 443.006 126.551L443.142 204.377C443.15 208.817 446.754 212.41 451.193 212.402L586.996 212.165C591.435 212.157 595.027 208.552 595.019 204.112L594.884 126.285C594.876 121.846 591.271 118.253 586.832 118.261Z" fill="#5264AE"/>
<path d="M480.847 184.847C480.749 184.896 480.642 184.929 480.52 184.929L458.838 184.97C458.445 184.97 458.126 184.65 458.126 184.257C458.126 183.865 458.445 183.545 458.838 183.545L480.52 183.504C480.913 183.504 481.232 183.824 481.232 184.217C481.232 184.495 481.076 184.732 480.847 184.847Z" fill="white"/>
<path d="M513.758 184.79C513.66 184.839 513.554 184.871 513.431 184.871L491.749 184.912C491.356 184.912 491.037 184.593 491.037 184.2C491.037 183.807 491.356 183.488 491.749 183.488L513.431 183.447C513.824 183.447 514.143 183.766 514.143 184.159C514.143 184.438 513.987 184.675 513.758 184.79Z" fill="white"/>
<path d="M546.661 184.732C546.563 184.781 546.457 184.814 546.334 184.814L524.652 184.855C524.259 184.855 523.94 184.536 523.94 184.143C523.94 183.75 524.259 183.431 524.652 183.431L546.334 183.39C546.727 183.39 547.046 183.709 547.046 184.102C547.046 184.38 546.89 184.618 546.661 184.732Z" fill="white"/>
<path d="M579.564 184.675C579.466 184.724 579.36 184.757 579.237 184.757L557.555 184.798C557.162 184.798 556.843 184.479 556.843 184.086C556.843 183.693 557.162 183.373 557.555 183.373L579.237 183.332C579.63 183.332 579.949 183.652 579.949 184.045C579.949 184.323 579.794 184.56 579.564 184.675Z" fill="white"/>
<path d="M460.696 190.217V195.088H460.017V190.823H458.912V190.217H460.696Z" fill="white"/>
<path d="M465.189 194.466V195.071H461.694V194.605L463.675 192.689C464.191 192.19 464.289 191.879 464.289 191.576C464.289 191.077 463.929 190.774 463.25 190.774C462.726 190.774 462.3 190.946 462.005 191.306L461.531 190.896C461.907 190.43 462.554 190.16 463.307 190.16C464.322 190.16 464.977 190.675 464.977 191.51C464.977 191.985 464.837 192.411 464.183 193.041L462.693 194.474H465.189V194.466Z" fill="white"/>
<path d="M469.388 189.21H469.994L467.71 195.767H467.105L469.388 189.21Z" fill="white"/>
<path d="M475.371 194.449V195.055H471.876V194.589L473.857 192.673C474.373 192.174 474.471 191.862 474.471 191.56C474.471 191.06 474.111 190.757 473.431 190.757C472.908 190.757 472.482 190.929 472.187 191.289L471.713 190.88C472.089 190.414 472.736 190.143 473.489 190.143C474.504 190.143 475.158 190.659 475.158 191.494C475.158 191.969 475.019 192.395 474.365 193.025L472.875 194.458H475.371V194.449Z" fill="white"/>
<path d="M480.045 193.852H479.12V195.047H478.449V193.852H475.74V193.369L478.22 190.176H478.973L476.591 193.254H478.465V192.19H479.12V193.246H480.045V193.844V193.852Z" fill="white"/>
<path d="M465.836 146.634C466.213 145.782 467.023 145.176 467.989 145.095V143.425H463.405V146.642H465.836V146.634Z" fill="white"/>
<path d="M462.955 143.425H460.966C459.755 143.425 458.781 144.415 458.781 145.618V146.642H462.963V143.425H462.955Z" fill="white"/>
<path d="M465.615 150.301C465.615 149.826 465.746 149.384 465.967 148.999C465.746 148.615 465.615 148.173 465.615 147.698C465.615 147.485 465.64 147.288 465.689 147.092H463.422V151.881H466.155C465.828 151.439 465.623 150.899 465.623 150.309L465.615 150.301Z" fill="white"/>
<path d="M470.6 146.625H472.507V143.408H468.439V145.086C469.405 145.168 470.223 145.774 470.6 146.617V146.625Z" fill="white"/>
<path d="M473.546 147.076H470.755C470.804 147.272 470.829 147.477 470.829 147.69C470.829 148.164 470.698 148.606 470.477 148.991C470.698 149.376 470.829 149.818 470.829 150.293C470.829 151.66 469.789 152.781 468.447 152.896V153.535H473.554V147.076H473.546Z" fill="white"/>
<path d="M462.964 147.096L458.781 147.103L458.79 151.884L462.972 151.877L462.964 147.096Z" fill="white"/>
<path d="M468.226 152.454C469.413 152.454 470.379 151.48 470.379 150.293C470.379 149.916 470.281 149.548 470.084 149.212L469.953 148.983L470.084 148.754C470.272 148.426 470.371 148.05 470.371 147.673C470.371 146.486 469.397 145.52 468.21 145.52C467.023 145.52 466.057 146.494 466.057 147.681C466.057 148.058 466.155 148.426 466.352 148.762L466.483 148.991L466.352 149.22C466.164 149.548 466.065 149.924 466.065 150.301C466.065 151.488 467.039 152.454 468.226 152.454Z" fill="white"/>
<path d="M477.656 147.062L473.997 147.069L474.008 153.519L477.667 153.513L477.656 147.062Z" fill="white"/>
<path d="M472.981 157.366H475.486C476.697 157.366 477.671 156.375 477.671 155.172V153.977H472.973V157.374L472.981 157.366Z" fill="white"/>
<path d="M475.461 143.408H472.957V146.625H477.655V145.594C477.655 144.382 476.673 143.408 475.461 143.408Z" fill="white"/>
<path d="M458.789 152.339V155.205C458.789 156.416 459.779 157.39 460.982 157.39H462.971V152.331H458.781L458.789 152.339Z" fill="white"/>
<path d="M472.519 153.98L468.46 153.987L468.466 157.376L472.525 157.369L472.519 153.98Z" fill="white"/>
<path d="M466.581 152.323H463.422V157.382H468.005V152.896C467.465 152.847 466.974 152.642 466.573 152.323H466.581Z" fill="white"/>
<path d="M458.764 176.309L459.165 175.834C459.427 176.21 459.771 176.407 460.18 176.407C460.729 176.407 461.015 176.071 461.015 175.416V172.682H459.247V172.076H461.695V175.375C461.695 176.464 461.171 176.996 460.18 176.996C459.599 176.996 459.075 176.751 458.764 176.292V176.309Z" fill="white"/>
<path d="M462.685 175.105C462.685 174.008 463.495 173.222 464.6 173.222C465.705 173.222 466.516 174 466.516 175.097C466.516 176.194 465.713 176.98 464.609 176.988C463.504 176.996 462.685 176.202 462.685 175.105ZM465.844 175.105C465.844 174.319 465.312 173.812 464.6 173.812C463.888 173.812 463.356 174.319 463.356 175.105C463.356 175.891 463.896 176.407 464.6 176.407C465.304 176.407 465.836 175.891 465.836 175.105H465.844Z" fill="white"/>
<path d="M470.944 174.819V176.939H470.281V174.892C470.281 174.172 469.912 173.812 469.282 173.82C468.57 173.82 468.112 174.246 468.12 175.048V176.947H467.457V171.79H468.112V173.787C468.39 173.435 468.848 173.231 469.413 173.231C470.313 173.231 470.944 173.746 470.944 174.827V174.819Z" fill="white"/>
<path d="M475.674 174.811V176.931H475.011V174.884C475.011 174.164 474.643 173.804 474.013 173.812C473.301 173.812 472.842 174.238 472.85 175.04V176.939H472.188V173.255H472.818V173.812C473.088 173.435 473.563 173.222 474.144 173.214C475.044 173.214 475.674 173.73 475.674 174.811Z" fill="white"/>
<path d="M478.883 172.052H480.937C482.501 172.052 483.565 173.034 483.573 174.475C483.581 175.916 482.517 176.914 480.945 176.914H478.891V172.052H478.883ZM480.888 176.309C482.091 176.309 482.861 175.572 482.861 174.475C482.861 173.378 482.083 172.649 480.88 172.649H479.562V176.309H480.88H480.888Z" fill="white"/>
<path d="M484.187 175.073C484.187 173.976 484.997 173.19 486.102 173.19C487.207 173.19 488.017 173.967 488.017 175.064C488.017 176.161 487.215 176.947 486.11 176.955C485.005 176.964 484.187 176.169 484.187 175.073ZM487.346 175.073C487.346 174.287 486.814 173.779 486.102 173.779C485.39 173.779 484.858 174.287 484.858 175.073C484.858 175.858 485.398 176.374 486.102 176.374C486.806 176.374 487.338 175.858 487.338 175.073H487.346Z" fill="white"/>
<path d="M492.265 175.277H489.277C489.359 175.932 489.883 176.358 490.612 176.358C491.045 176.358 491.405 176.21 491.676 175.908L492.044 176.341C491.708 176.734 491.201 176.939 490.595 176.939C489.408 176.939 488.614 176.153 488.606 175.056C488.598 173.959 489.392 173.173 490.456 173.173C491.52 173.173 492.281 173.935 492.281 175.073C492.281 175.13 492.281 175.212 492.265 175.277ZM489.277 174.802H491.643C491.569 174.18 491.103 173.738 490.456 173.746C489.809 173.755 489.343 174.18 489.277 174.802Z" fill="white"/>
<path d="M467.931 78.8434H439.186C438.098 78.8434 437.214 77.9593 437.214 76.8705C437.214 75.7818 438.098 74.8976 439.186 74.8976H467.931C469.02 74.8976 469.904 75.7818 469.904 76.8705C469.904 77.9593 469.02 78.8434 467.931 78.8434Z" fill="#333343"/>
<path d="M511.565 78.8434H482.819C481.731 78.8434 480.847 77.9593 480.847 76.8705C480.847 75.7818 481.731 74.8976 482.819 74.8976H511.565C512.653 74.8976 513.537 75.7818 513.537 76.8705C513.537 77.9593 512.653 78.8434 511.565 78.8434Z" fill="#333343"/>
<path d="M555.198 78.8434H526.453C525.364 78.8434 524.48 77.9593 524.48 76.8705C524.48 75.7818 525.364 74.8976 526.453 74.8976H555.198C556.287 74.8976 557.171 75.7818 557.171 76.8705C557.171 77.9593 556.287 78.8434 555.198 78.8434Z" fill="#333343"/>
<path d="M598.84 78.8434H570.094C569.006 78.8434 568.122 77.9593 568.122 76.8705C568.122 75.7818 569.006 74.8976 570.094 74.8976H598.84C599.928 74.8976 600.812 75.7818 600.812 76.8705C600.812 77.9593 599.928 78.8434 598.84 78.8434Z" fill="#333343"/>
<path d="M519.013 326.534C531.57 326.534 541.75 316.353 541.75 303.793C541.75 291.233 531.57 281.052 519.013 281.052C506.455 281.052 496.275 291.233 496.275 303.793C496.275 316.353 506.455 326.534 519.013 326.534Z" fill="#99CF90"/>
<path d="M519.013 320.28C528.117 320.28 535.497 312.898 535.497 303.793C535.497 294.687 528.117 287.306 519.013 287.306C509.909 287.306 502.529 294.687 502.529 303.793C502.529 312.898 509.909 320.28 519.013 320.28Z" fill="#A9D7AE"/>
<path d="M508.733 305.152L514.675 311.103L529.285 296.491" stroke="white" stroke-width="2.42" stroke-linecap="round" stroke-linejoin="round"/>
<path d="M503.855 402.396C503.855 403.493 503.044 404.123 501.424 404.123H498.445V397.656H501.236C502.676 397.656 503.511 398.27 503.511 399.318C503.511 400.055 503.11 400.546 502.521 400.783C503.355 400.972 503.855 401.512 503.855 402.388V402.396ZM499.132 398.221V400.57H501.195C502.226 400.57 502.832 400.169 502.832 399.4C502.832 398.63 502.234 398.229 501.195 398.229H499.132V398.221ZM503.167 402.347C503.167 401.504 502.545 401.135 501.407 401.135H499.124V403.567H501.407C502.545 403.567 503.167 403.198 503.167 402.347Z" fill="white"/>
<path d="M509.502 401.897H505.434C505.508 402.912 506.286 403.591 507.35 403.591C507.939 403.591 508.471 403.378 508.839 402.953L509.208 403.378C508.774 403.894 508.103 404.172 507.333 404.172C505.819 404.172 504.78 403.141 504.78 401.692C504.78 400.243 505.786 399.228 507.153 399.228C508.52 399.228 509.51 400.235 509.51 401.692C509.51 401.749 509.502 401.823 509.502 401.897ZM505.434 401.405H508.88C508.798 400.456 508.103 399.785 507.153 399.785C506.204 399.785 505.516 400.448 505.434 401.405Z" fill="white"/>
<path d="M514.233 403.583V404.131H510.28V403.698L513.341 399.825H510.337V399.269H514.184V399.703L511.123 403.583H514.241H514.233Z" fill="white"/>
<path d="M519.193 401.111V404.123H518.563V403.362C518.268 403.861 517.695 404.164 516.893 404.164C515.797 404.164 515.117 403.591 515.117 402.748C515.117 401.995 515.6 401.373 516.991 401.373H518.538V401.078C518.538 400.243 518.064 399.793 517.163 399.793C516.533 399.793 515.944 400.014 515.543 400.366L515.248 399.875C515.739 399.457 516.459 399.22 517.229 399.22C518.489 399.22 519.201 399.85 519.201 401.103L519.193 401.111ZM518.538 402.666V401.872H517.016C516.075 401.872 515.772 402.24 515.772 402.74C515.772 403.305 516.222 403.657 517 403.657C517.777 403.657 518.285 403.305 518.547 402.666H518.538Z" fill="white"/>
<path d="M525.446 401.307V404.123H524.791V401.364C524.791 400.341 524.259 399.809 523.335 399.809C522.287 399.809 521.632 400.456 521.632 401.569V404.123H520.977V397.263H521.632V400.112C521.992 399.547 522.631 399.228 523.449 399.228C524.636 399.228 525.446 399.916 525.446 401.307Z" fill="white"/>
<path d="M527.231 397.271H527.885V404.131H527.231V397.271Z" fill="white"/>
<path d="M533.942 401.897H529.874C529.948 402.912 530.726 403.591 531.79 403.591C532.379 403.591 532.911 403.378 533.279 402.953L533.647 403.378C533.214 403.894 532.543 404.172 531.773 404.172C530.259 404.172 529.219 403.141 529.219 401.692C529.219 400.243 530.226 399.228 531.593 399.228C532.96 399.228 533.95 400.235 533.95 401.692C533.95 401.749 533.942 401.823 533.942 401.897ZM529.874 401.405H533.32C533.238 400.456 532.543 399.785 531.593 399.785C530.644 399.785 529.956 400.448 529.874 401.405Z" fill="white"/>
<path d="M539.762 401.307V404.123H539.107V401.365C539.107 400.341 538.575 399.809 537.65 399.809C536.602 399.809 535.948 400.456 535.948 401.569V404.123H535.293V399.261H535.923V400.161C536.275 399.572 536.93 399.228 537.773 399.228C538.96 399.228 539.77 399.916 539.77 401.307H539.762Z" fill="white"/>
<path d="M271.823 178.674H271.389V133.331C271.389 118.301 259.202 106.112 244.174 106.112H79.2006C64.1732 106.112 51.986 118.301 51.986 133.331V178.674H51.5522C49.5879 178.674 48 180.263 48 182.227V213.589C48 215.553 49.5879 217.142 51.5522 217.142H51.986V224.624H51.5522C49.5879 224.624 48 226.212 48 228.177V259.538C48 261.503 49.5879 263.091 51.5522 263.091H51.986V537.772C51.986 552.802 64.1732 564.991 79.2006 564.991H244.174C259.202 564.991 271.389 552.802 271.389 537.772V236.379H271.823C273.787 236.379 275.375 234.791 275.375 232.826V182.227C275.375 180.263 273.787 178.674 271.823 178.674Z" fill="#333343"/>
<path d="M241.367 112.841H82.0162C69.8067 112.841 59.9089 122.74 59.9089 134.952V536.151C59.9089 548.362 69.8067 558.262 82.0162 558.262H241.367C253.576 558.262 263.474 548.362 263.474 536.151V134.952C263.474 122.74 253.576 112.841 241.367 112.841Z" fill="white"/>
<path d="M162.326 390.436C192.63 390.436 217.197 365.865 217.197 335.555C217.197 305.246 192.63 280.675 162.326 280.675C132.021 280.675 107.455 305.246 107.455 335.555C107.455 365.865 132.021 390.436 162.326 390.436Z" fill="#D5DDFD"/>
<path d="M161.688 373.097C182.418 373.097 199.223 356.289 199.223 335.555C199.223 314.822 182.418 298.013 161.688 298.013C140.957 298.013 124.152 314.822 124.152 335.555C124.152 356.289 140.957 373.097 161.688 373.097Z" fill="#F0F3FF"/>
<path d="M130.659 294.919H97.4037C94.9537 294.919 92.9675 296.905 92.9675 299.356V369.283C92.9675 371.733 94.9537 373.72 97.4037 373.72H130.659C133.109 373.72 135.095 371.733 135.095 369.283V299.356C135.095 296.905 133.109 294.919 130.659 294.919Z" fill="white"/>
<path d="M130.659 374.571H97.4036C94.4898 374.571 92.1162 372.197 92.1162 369.283V299.364C92.1162 296.45 94.4898 294.076 97.4036 294.076H130.659C133.572 294.076 135.946 296.45 135.946 299.364V369.283C135.946 372.197 133.572 374.571 130.659 374.571ZM97.4036 295.77C95.4311 295.77 93.8187 297.375 93.8187 299.356V369.274C93.8187 371.247 95.4229 372.86 97.4036 372.86H130.659C132.631 372.86 134.244 371.256 134.244 369.274V299.356C134.244 297.383 132.639 295.77 130.659 295.77H97.4036Z" fill="#5264AE"/>
<path d="M119.388 299.364H108.682C108.208 299.364 107.831 298.979 107.831 298.513C107.831 298.046 108.216 297.661 108.682 297.661H119.388C119.863 297.661 120.239 298.046 120.239 298.513C120.239 298.979 119.855 299.364 119.388 299.364Z" fill="#5264AE"/>
<path d="M114.035 370.593C114.831 370.593 115.476 369.947 115.476 369.152C115.476 368.356 114.831 367.711 114.035 367.711C113.24 367.711 112.595 368.356 112.595 369.152C112.595 369.947 113.24 370.593 114.035 370.593Z" fill="#474747"/>
<path d="M114.035 371.452C112.775 371.452 111.743 370.421 111.743 369.16C111.743 367.899 112.775 366.868 114.035 366.868C115.296 366.868 116.327 367.899 116.327 369.16C116.327 370.421 115.296 371.452 114.035 371.452ZM114.035 368.579C113.716 368.579 113.454 368.841 113.454 369.16C113.454 369.479 113.716 369.741 114.035 369.741C114.354 369.741 114.616 369.479 114.616 369.16C114.616 368.841 114.354 368.579 114.035 368.579Z" fill="#5264AE"/>
<path d="M225.971 294.919H192.716C190.266 294.919 188.28 296.905 188.28 299.356V369.283C188.28 371.733 190.266 373.72 192.716 373.72H225.971C228.421 373.72 230.407 371.733 230.407 369.283V299.356C230.407 296.905 228.421 294.919 225.971 294.919Z" fill="white"/>
<path d="M225.971 374.571H192.716C189.802 374.571 187.429 372.197 187.429 369.283V299.364C187.429 296.45 189.802 294.076 192.716 294.076H225.971C228.885 294.076 231.259 296.45 231.259 299.364V369.283C231.259 372.197 228.885 374.571 225.971 374.571ZM192.716 295.77C190.744 295.77 189.131 297.375 189.131 299.356V369.274C189.131 371.247 190.735 372.86 192.716 372.86H225.971C227.944 372.86 229.556 371.256 229.556 369.274V299.356C229.556 297.383 227.952 295.77 225.971 295.77H192.716Z" fill="#5264AE"/>
<path d="M214.692 299.364H203.987C203.512 299.364 203.135 298.979 203.135 298.513C203.135 298.046 203.52 297.661 203.987 297.661H214.692C215.167 297.661 215.544 298.046 215.544 298.513C215.544 298.979 215.159 299.364 214.692 299.364Z" fill="#5264AE"/>
<path d="M209.34 370.593C210.135 370.593 210.78 369.947 210.78 369.152C210.78 368.356 210.135 367.711 209.34 367.711C208.544 367.711 207.899 368.356 207.899 369.152C207.899 369.947 208.544 370.593 209.34 370.593Z" fill="#474747"/>
<path d="M209.34 371.452C208.079 371.452 207.048 370.421 207.048 369.16C207.048 367.899 208.079 366.868 209.34 366.868C210.6 366.868 211.631 367.899 211.631 369.16C211.631 370.421 210.6 371.452 209.34 371.452ZM209.34 368.579C209.02 368.579 208.758 368.841 208.758 369.16C208.758 369.479 209.02 369.741 209.34 369.741C209.659 369.741 209.921 369.479 209.921 369.16C209.921 368.841 209.659 368.579 209.34 368.579Z" fill="#5264AE"/>
<path d="M110.606 174.843H81.8607C80.7721 174.843 79.8882 173.959 79.8882 172.87C79.8882 171.782 80.7721 170.898 81.8607 170.898H110.606C111.694 170.898 112.578 171.782 112.578 172.87C112.578 173.959 111.694 174.843 110.606 174.843Z" fill="#333343"/>
<path d="M154.247 174.843H125.502C124.414 174.843 123.53 173.959 123.53 172.87C123.53 171.782 124.414 170.898 125.502 170.898H154.247C155.336 170.898 156.22 171.782 156.22 172.87C156.22 173.959 155.336 174.843 154.247 174.843Z" fill="#333343"/>
<path d="M197.881 174.843H169.136C168.047 174.843 167.163 173.959 167.163 172.87C167.163 171.782 168.047 170.898 169.136 170.898H197.881C198.969 170.898 199.853 171.782 199.853 172.87C199.853 173.959 198.969 174.843 197.881 174.843Z" fill="#333343"/>
<path d="M241.514 174.843H212.769C211.68 174.843 210.796 173.959 210.796 172.87C210.796 171.782 211.68 170.898 212.769 170.898H241.514C242.603 170.898 243.487 171.782 243.487 172.87C243.487 173.959 242.603 174.843 241.514 174.843Z" fill="#333343"/>
<path d="M142.232 214.506V215.914H134.579V214.8L139.858 208.35H134.669V206.942H142.068V208.055L136.789 214.506H142.24H142.232Z" fill="#333343"/>
<path d="M149.361 211.902V215.914H147.847V215.079C147.462 215.668 146.717 216.004 145.694 216.004C144.131 216.004 143.14 215.144 143.14 213.949C143.14 212.754 143.91 211.911 145.989 211.911H147.757V211.804C147.757 210.871 147.192 210.314 146.054 210.314C145.285 210.314 144.491 210.568 143.975 210.994L143.345 209.823C144.073 209.258 145.137 208.98 146.242 208.98C148.215 208.98 149.361 209.913 149.361 211.894V211.902ZM147.757 213.777V212.983H146.103C145.015 212.983 144.72 213.392 144.72 213.892C144.72 214.465 145.211 214.841 146.03 214.841C146.848 214.841 147.495 214.481 147.757 213.777Z" fill="#333343"/>
<path d="M158.152 211.992V215.914H156.547V212.197C156.547 210.977 155.942 210.388 154.919 210.388C153.781 210.388 153.011 211.084 153.011 212.451V215.914H151.407V206.401H153.011V209.864C153.535 209.299 154.346 208.988 155.295 208.988C156.94 208.988 158.152 209.921 158.152 211.992Z" fill="#333343"/>
<path d="M160.189 206.401H161.794V215.914H160.189V206.401Z" fill="#333343"/>
<path d="M170.527 209.07V215.914H169.004V215.038C168.489 215.668 167.687 215.996 166.803 215.996C165.043 215.996 163.856 215.038 163.856 212.967V209.054H165.46V212.746C165.46 213.99 166.05 214.579 167.065 214.579C168.178 214.579 168.939 213.883 168.939 212.516V209.054H170.543L170.527 209.07Z" fill="#333343"/>
<path d="M179.375 211.992V215.914H177.77V212.197C177.77 210.977 177.165 210.388 176.142 210.388C175.004 210.388 174.235 211.084 174.235 212.451V215.914H172.63V209.07H174.153V209.954C174.677 209.324 175.511 208.996 176.51 208.996C178.155 208.996 179.366 209.93 179.366 212.001L179.375 211.992Z" fill="#333343"/>
<path d="M188.272 209.07V214.882C188.272 217.371 186.978 218.5 184.58 218.5C183.295 218.5 182.027 218.165 181.249 217.526L181.969 216.323C182.575 216.822 183.549 217.142 184.498 217.142C186.013 217.142 186.676 216.446 186.676 215.062V214.702C186.111 215.316 185.301 215.611 184.384 215.611C182.419 215.611 180.922 214.276 180.922 212.287C180.922 210.298 182.419 208.988 184.384 208.988C185.341 208.988 186.193 209.299 186.757 209.979V209.07H188.28H188.272ZM186.692 212.287C186.692 211.133 185.816 210.347 184.613 210.347C183.41 210.347 182.526 211.133 182.526 212.287C182.526 213.441 183.402 214.252 184.613 214.252C185.824 214.252 186.692 213.458 186.692 212.287Z" fill="#333343"/>
<path d="M87.8357 238.016C87.8357 239.032 87.0826 239.613 85.5848 239.613H82.8347V233.629H85.4129C86.7471 233.629 87.5164 234.194 87.5164 235.168C87.5164 235.855 87.1481 236.306 86.5997 236.527C87.3691 236.698 87.8275 237.198 87.8275 238.016H87.8357ZM83.4649 234.153V236.322H85.372C86.3296 236.322 86.8862 235.954 86.8862 235.233C86.8862 234.513 86.3296 234.144 85.372 234.144H83.4649V234.153ZM87.1972 237.967C87.1972 237.19 86.6243 236.846 85.5766 236.846H83.4649V239.097H85.5766C86.6243 239.097 87.1972 238.753 87.1972 237.967Z" fill="#333343"/>
<path d="M93.0656 237.558H89.3088C89.3743 238.499 90.0945 239.122 91.0767 239.122C91.6251 239.122 92.108 238.925 92.4518 238.532L92.7955 238.925C92.3945 239.4 91.7724 239.662 91.0604 239.662C89.6608 239.662 88.7031 238.704 88.7031 237.37C88.7031 236.035 89.6362 235.086 90.8967 235.086C92.1571 235.086 93.0738 236.019 93.0738 237.37C93.0738 237.419 93.0656 237.493 93.0656 237.558ZM89.3088 237.108H92.4927C92.419 236.224 91.7724 235.61 90.8967 235.61C90.0209 235.61 89.3825 236.224 89.3088 237.108Z" fill="#333343"/>
<path d="M96.6836 239.343C96.4462 239.556 96.0861 239.662 95.7341 239.662C94.8911 239.662 94.4164 239.187 94.4164 238.352V235.634H93.6143V235.119H94.4164V234.136H95.0221V235.119H96.3889V235.634H95.0221V238.319C95.0221 238.851 95.2922 239.138 95.7996 239.138C96.0452 239.138 96.2989 239.064 96.4626 238.909L96.6754 239.343H96.6836Z" fill="#333343"/>
<path d="M100.047 235.086V235.675C99.9984 235.675 99.9411 235.667 99.9001 235.667C98.9589 235.667 98.386 236.265 98.386 237.329V239.621H97.7803V235.127H98.3614V236.011C98.6397 235.413 99.2126 235.094 100.047 235.094V235.086Z" fill="#333343"/>
<path d="M104.533 236.829V239.613H103.951V238.909C103.681 239.367 103.149 239.654 102.405 239.654C101.39 239.654 100.768 239.122 100.768 238.344C100.768 237.648 101.21 237.067 102.503 237.067H103.927V236.797C103.927 236.027 103.493 235.61 102.65 235.61C102.069 235.61 101.521 235.814 101.152 236.142L100.882 235.692C101.332 235.307 102.003 235.086 102.707 235.086C103.87 235.086 104.524 235.667 104.524 236.829H104.533ZM103.927 238.262V237.525H102.519C101.643 237.525 101.365 237.869 101.365 238.328C101.365 238.851 101.782 239.171 102.503 239.171C103.223 239.171 103.69 238.843 103.927 238.254V238.262Z" fill="#333343"/>
<path d="M110.36 235.119V239.064C110.36 240.612 109.599 241.316 108.11 241.316C107.291 241.316 106.489 241.07 106.014 240.62L106.325 240.161C106.751 240.546 107.406 240.775 108.093 240.775C109.231 240.775 109.755 240.251 109.755 239.146V238.573C109.378 239.146 108.74 239.449 108.003 239.449C106.718 239.449 105.744 238.549 105.744 237.263C105.744 235.978 106.718 235.094 108.003 235.094C108.756 235.094 109.403 235.405 109.779 235.994V235.135H110.36V235.119ZM109.771 237.255C109.771 236.281 109.051 235.618 108.06 235.618C107.07 235.618 106.358 236.281 106.358 237.255C106.358 238.229 107.07 238.909 108.06 238.909C109.051 238.909 109.771 238.238 109.771 237.255Z" fill="#333343"/>
<path d="M115.975 237.558H112.218C112.284 238.499 113.004 239.122 113.986 239.122C114.535 239.122 115.017 238.925 115.361 238.532L115.705 238.925C115.304 239.4 114.682 239.662 113.97 239.662C112.57 239.662 111.613 238.704 111.613 237.37C111.613 236.035 112.546 235.086 113.806 235.086C115.067 235.086 115.983 236.019 115.983 237.37C115.983 237.419 115.975 237.493 115.975 237.558ZM112.218 237.108H115.402C115.328 236.224 114.682 235.61 113.806 235.61C112.93 235.61 112.292 236.224 112.218 237.108Z" fill="#333343"/>
<path d="M195.736 239.073V239.621H191.505V233.637H195.605V234.185H192.135V236.314H195.229V236.854H192.135V239.073H195.736Z" fill="#333343"/>
<path d="M201.081 235.119V239.613H200.5V238.794C200.181 239.343 199.6 239.654 198.888 239.654C197.742 239.654 196.989 239.015 196.989 237.722V235.119H197.594V237.664C197.594 238.622 198.094 239.105 198.945 239.105C199.886 239.105 200.476 238.499 200.476 237.476V235.119H201.081Z" fill="#333343"/>
<path d="M205.043 235.086V235.675C204.993 235.675 204.936 235.667 204.895 235.667C203.954 235.667 203.381 236.265 203.381 237.329V239.621H202.775V235.127H203.357V236.011C203.635 235.413 204.208 235.094 205.043 235.094V235.086Z" fill="#333343"/>
<path d="M205.828 235.552C205.828 235.29 206.033 235.094 206.279 235.094C206.524 235.094 206.737 235.29 206.737 235.552C206.737 235.814 206.524 236.019 206.279 236.019C206.033 236.019 205.828 235.814 205.828 235.552ZM205.828 239.195C205.828 238.933 206.033 238.737 206.279 238.737C206.524 238.737 206.737 238.933 206.737 239.195C206.737 239.457 206.524 239.662 206.279 239.662C206.033 239.662 205.828 239.457 205.828 239.195Z" fill="#333343"/>
<path d="M211.533 233.637V239.621H210.919V234.185H209.511V233.637H211.533Z" fill="#333343"/>
<path d="M212.957 236.625C212.957 234.717 213.956 233.58 215.339 233.58C216.722 233.58 217.729 234.717 217.729 236.625C217.729 238.532 216.722 239.67 215.339 239.67C213.956 239.67 212.957 238.532 212.957 236.625ZM217.099 236.625C217.099 235.028 216.379 234.144 215.339 234.144C214.3 234.144 213.579 235.028 213.579 236.625C213.579 238.221 214.3 239.105 215.339 239.105C216.379 239.105 217.099 238.221 217.099 236.625Z" fill="#333343"/>
<path d="M218.621 236.625C218.621 234.717 219.62 233.58 221.003 233.58C222.386 233.58 223.393 234.717 223.393 236.625C223.393 238.532 222.386 239.67 221.003 239.67C219.62 239.67 218.621 238.532 218.621 236.625ZM222.763 236.625C222.763 235.028 222.043 234.144 221.003 234.144C219.964 234.144 219.243 235.028 219.243 236.625C219.243 238.221 219.964 239.105 221.003 239.105C222.043 239.105 222.763 238.221 222.763 236.625Z" fill="#333343"/>
<path d="M224.195 239.187C224.195 238.925 224.4 238.729 224.645 238.729C224.891 238.729 225.104 238.925 225.104 239.187C225.104 239.449 224.891 239.654 224.645 239.654C224.4 239.654 224.195 239.449 224.195 239.187Z" fill="#333343"/>
<path d="M225.906 236.625C225.906 234.717 226.904 233.58 228.288 233.58C229.671 233.58 230.678 234.717 230.678 236.625C230.678 238.532 229.671 239.67 228.288 239.67C226.904 239.67 225.906 238.532 225.906 236.625ZM230.047 236.625C230.047 235.028 229.327 234.144 228.288 234.144C227.248 234.144 226.528 235.028 226.528 236.625C226.528 238.221 227.248 239.105 228.288 239.105C229.327 239.105 230.047 238.221 230.047 236.625Z" fill="#333343"/>
<path d="M231.562 236.625C231.562 234.717 232.56 233.58 233.943 233.58C235.327 233.58 236.333 234.717 236.333 236.625C236.333 238.532 235.327 239.67 233.943 239.67C232.56 239.67 231.562 238.532 231.562 236.625ZM235.703 236.625C235.703 235.028 234.983 234.144 233.943 234.144C232.904 234.144 232.184 235.028 232.184 236.625C232.184 238.221 232.904 239.105 233.943 239.105C234.983 239.105 235.703 238.221 235.703 236.625Z" fill="#333343"/>
<path d="M238.666 246.637H79.2578C77.1789 246.637 75.4846 244.942 75.4846 242.863V229.576C75.4846 227.497 77.1789 225.803 79.2578 225.803H238.666C240.745 225.803 242.439 227.497 242.439 229.576V242.863C242.439 244.942 240.745 246.637 238.666 246.637ZM79.2578 226.024C77.2935 226.024 75.6974 227.62 75.6974 229.585V242.871C75.6974 244.836 77.2935 246.432 79.2578 246.432H238.666C240.63 246.432 242.226 244.836 242.226 242.871V229.585C242.226 227.62 240.63 226.024 238.666 226.024H79.2578Z" fill="#333343"/>
<path d="M157.882 417.983H84.1935C82.322 417.983 80.8049 419.5 80.8049 421.372V441.158C80.8049 443.03 82.322 444.547 84.1935 444.547H157.882C159.753 444.547 161.27 443.03 161.27 441.158V421.372C161.27 419.5 159.753 417.983 157.882 417.983Z" fill="#5264AE"/>
<path d="M242.627 445.079H168.931C166.77 445.079 165.01 443.319 165.01 441.158V421.372C165.01 419.21 166.77 417.45 168.931 417.45H242.627C244.788 417.45 246.548 419.21 246.548 421.372V441.158C246.548 443.319 244.788 445.079 242.627 445.079ZM168.931 418.515C167.36 418.515 166.075 419.792 166.075 421.372V441.158C166.075 442.73 167.351 444.015 168.931 444.015H242.627C244.199 444.015 245.484 442.738 245.484 441.158V421.372C245.484 419.8 244.207 418.515 242.627 418.515H168.931Z" fill="#5264AE"/>
<path d="M99.8838 433.307L100.203 432.644C100.645 433.045 101.406 433.34 102.176 433.34C103.207 433.34 103.657 432.939 103.657 432.415C103.657 430.95 100.031 431.875 100.031 429.656C100.031 428.731 100.751 427.945 102.323 427.945C103.027 427.945 103.747 428.133 104.246 428.477L103.968 429.165C103.444 428.829 102.855 428.674 102.331 428.674C101.316 428.674 100.874 429.099 100.874 429.623C100.874 431.089 104.5 430.172 104.5 432.366C104.5 433.283 103.763 434.068 102.184 434.068C101.267 434.068 100.375 433.757 99.892 433.315L99.8838 433.307Z" fill="white"/>
<path d="M105.196 431.727C105.196 430.376 106.194 429.419 107.586 429.419C108.396 429.419 109.075 429.754 109.436 430.385L108.814 430.786C108.519 430.344 108.077 430.139 107.586 430.139C106.694 430.139 106.031 430.761 106.031 431.727C106.031 432.693 106.694 433.324 107.586 433.324C108.085 433.324 108.527 433.119 108.814 432.677L109.436 433.07C109.075 433.7 108.404 434.044 107.586 434.044C106.194 434.044 105.196 433.078 105.196 431.727Z" fill="white"/>
<path d="M114.084 431.261V433.995H113.307V433.397C113.037 433.807 112.529 434.044 111.817 434.044C110.794 434.044 110.139 433.495 110.139 432.71C110.139 431.981 110.606 431.383 111.956 431.383H113.258V431.22C113.258 430.524 112.857 430.123 112.046 430.123C111.506 430.123 110.958 430.311 110.614 430.614L110.27 430C110.737 429.623 111.416 429.419 112.145 429.419C113.381 429.419 114.084 430.016 114.084 431.261ZM113.266 432.611V431.981H111.997C111.187 431.981 110.958 432.3 110.958 432.685C110.958 433.135 111.334 433.422 111.956 433.422C112.578 433.422 113.061 433.143 113.266 432.62V432.611Z" fill="white"/>
<path d="M119.912 431.383V433.987H119.094V431.473C119.094 430.581 118.652 430.147 117.874 430.147C116.998 430.147 116.442 430.671 116.442 431.654V433.987H115.623V429.46H116.409V430.147C116.745 429.689 117.326 429.419 118.038 429.419C119.143 429.419 119.92 430.049 119.92 431.383H119.912Z" fill="white"/>
<path d="M123.194 431.883L122.253 432.759V433.995H121.435V427.65H122.253V431.719L124.725 429.46H125.715L123.808 431.334L125.903 433.995H124.897L123.194 431.883Z" fill="white"/>
<path d="M130.2 431.261V433.995H129.423V433.397C129.153 433.807 128.645 434.044 127.933 434.044C126.91 434.044 126.255 433.495 126.255 432.71C126.255 431.981 126.722 431.383 128.072 431.383H129.374V431.22C129.374 430.524 128.973 430.123 128.162 430.123C127.622 430.123 127.074 430.311 126.73 430.614L126.386 430C126.853 429.623 127.532 429.419 128.261 429.419C129.497 429.419 130.2 430.016 130.2 431.261ZM129.382 432.611V431.981H128.113C127.303 431.981 127.074 432.3 127.074 432.685C127.074 433.135 127.45 433.422 128.072 433.422C128.694 433.422 129.177 433.143 129.382 432.62V432.611Z" fill="white"/>
<path d="M134.162 429.419V430.213C134.096 430.205 134.031 430.205 133.974 430.205C133.09 430.205 132.549 430.745 132.549 431.735V433.995H131.731V429.468H132.517V430.229C132.803 429.697 133.368 429.427 134.17 429.427L134.162 429.419Z" fill="white"/>
<path d="M137.902 433.725C137.657 433.938 137.28 434.044 136.912 434.044C135.995 434.044 135.48 433.536 135.48 432.628V430.139H134.71V429.468H135.48V428.477H136.298V429.468H137.599V430.139H136.298V432.595C136.298 433.086 136.552 433.356 137.01 433.356C137.248 433.356 137.477 433.283 137.649 433.143L137.902 433.733V433.725Z" fill="white"/>
<path d="M142.821 432.006H139.146C139.253 432.8 139.891 433.332 140.783 433.332C141.315 433.332 141.757 433.152 142.093 432.783L142.543 433.315C142.134 433.79 141.512 434.052 140.759 434.052C139.294 434.052 138.32 433.086 138.32 431.735C138.32 430.385 139.286 429.427 140.595 429.427C141.905 429.427 142.838 430.368 142.838 431.76C142.838 431.825 142.83 431.932 142.821 432.006ZM139.146 431.416H142.052C141.97 430.655 141.397 430.115 140.595 430.115C139.793 430.115 139.228 430.647 139.138 431.416H139.146Z" fill="white"/>
<path d="M191.636 430.999C191.636 429.23 192.986 427.937 194.803 427.937C195.728 427.937 196.53 428.256 197.079 428.87L196.522 429.411C196.064 428.919 195.499 428.698 194.836 428.698C193.486 428.698 192.487 429.673 192.487 430.999C192.487 432.325 193.486 433.299 194.836 433.299C195.491 433.299 196.056 433.07 196.522 432.579L197.079 433.119C196.53 433.733 195.728 434.06 194.795 434.06C192.986 434.06 191.636 432.767 191.636 430.999Z" fill="#5264AE"/>
<path d="M201.711 431.261V433.995H200.934V433.397C200.664 433.807 200.156 434.044 199.444 434.044C198.421 434.044 197.766 433.495 197.766 432.71C197.766 431.981 198.233 431.383 199.583 431.383H200.885V431.22C200.885 430.524 200.483 430.123 199.673 430.123C199.133 430.123 198.585 430.311 198.241 430.614L197.897 430C198.364 429.623 199.043 429.419 199.771 429.419C201.007 429.419 201.711 430.016 201.711 431.261ZM200.893 432.611V431.981H199.624C198.814 431.981 198.585 432.3 198.585 432.685C198.585 433.135 198.961 433.422 199.583 433.422C200.205 433.422 200.688 433.143 200.893 432.62V432.611Z" fill="#5264AE"/>
<path d="M207.531 431.383V433.987H206.712V431.473C206.712 430.581 206.27 430.147 205.493 430.147C204.617 430.147 204.06 430.671 204.06 431.654V433.987H203.242V429.46H204.028V430.147C204.363 429.689 204.944 429.419 205.656 429.419C206.761 429.419 207.539 430.049 207.539 431.383H207.531Z" fill="#5264AE"/>
<path d="M208.66 431.727C208.66 430.376 209.659 429.419 211.05 429.419C211.86 429.419 212.54 429.754 212.9 430.385L212.278 430.786C211.983 430.344 211.541 430.139 211.05 430.139C210.158 430.139 209.495 430.761 209.495 431.727C209.495 432.693 210.158 433.324 211.05 433.324C211.549 433.324 211.991 433.119 212.278 432.677L212.9 433.07C212.54 433.7 211.869 434.044 211.05 434.044C209.659 434.044 208.66 433.078 208.66 431.727Z" fill="#5264AE"/>
<path d="M217.966 432.006H214.291C214.398 432.8 215.036 433.332 215.928 433.332C216.46 433.332 216.902 433.152 217.238 432.783L217.688 433.315C217.279 433.79 216.657 434.052 215.904 434.052C214.439 434.052 213.465 433.086 213.465 431.735C213.465 430.385 214.43 429.427 215.74 429.427C217.05 429.427 217.983 430.368 217.983 431.76C217.983 431.825 217.974 431.932 217.966 432.006ZM214.291 431.416H217.197C217.115 430.655 216.542 430.115 215.74 430.115C214.938 430.115 214.373 430.647 214.283 431.416H214.291Z" fill="#5264AE"/>
<path d="M219.12 427.65H219.939V433.995H219.12V427.65Z" fill="#5264AE"/>
<path d="M81.9097 512.468L84.2587 499.28H87.9173L85.6501 512.468H81.9097Z" fill="#3C58BF"/>
<path d="M81.9097 512.468L84.9135 499.28H87.9173L85.6501 512.468H81.9097Z" fill="#293688"/>
<path d="M98.9096 499.419C98.173 499.124 97.0026 498.83 95.5375 498.83C91.8707 498.83 89.2352 500.663 89.2352 503.299C89.2352 505.28 91.0686 506.304 92.5337 506.967C93.9987 507.63 94.4407 508.064 94.4407 508.653C94.4407 509.529 93.2703 509.971 92.239 509.971C90.7739 509.971 89.9718 509.75 88.7195 509.234L88.2039 509.013L87.6882 512.018C88.564 512.386 90.1764 512.755 91.8625 512.755C95.7421 512.755 98.3122 510.921 98.3122 508.138C98.3122 506.599 97.3627 505.428 95.161 504.47C93.8432 503.807 93.0329 503.447 93.0329 502.784C93.0329 502.194 93.6959 501.613 95.161 501.613C96.4051 501.613 97.289 501.834 97.9438 502.129L98.3122 502.276L98.9015 499.419H98.9096Z" fill="#3C58BF"/>
<path d="M98.9096 499.419C98.173 499.124 97.0026 498.83 95.5375 498.83C91.8707 498.83 89.8981 500.663 89.8981 503.299C89.8981 505.28 91.0686 506.304 92.5337 506.967C93.9987 507.63 94.4407 508.064 94.4407 508.653C94.4407 509.529 93.2703 509.971 92.239 509.971C90.7739 509.971 89.9718 509.75 88.7195 509.234L88.2039 509.013L87.6882 512.018C88.564 512.386 90.1764 512.755 91.8625 512.755C95.7421 512.755 98.3122 510.921 98.3122 508.138C98.3122 506.599 97.3627 505.428 95.161 504.47C93.8432 503.807 93.0329 503.447 93.0329 502.784C93.0329 502.194 93.6959 501.613 95.161 501.613C96.4051 501.613 97.289 501.834 97.9438 502.129L98.3122 502.276L98.9015 499.419H98.9096Z" fill="#293688"/>
<path d="M105.212 499.28C104.336 499.28 103.673 499.354 103.305 500.23L97.813 512.468H101.766L102.503 510.266H107.193L107.635 512.468H111.154L108.077 499.28H105.22H105.212ZM103.526 508.072C103.747 507.409 104.991 504.192 104.991 504.192C104.991 504.192 105.286 503.389 105.507 502.874L105.728 504.118C105.728 504.118 106.464 507.417 106.604 508.146H103.526V508.072Z" fill="#3C58BF"/>
<path d="M106.088 499.28C105.212 499.28 104.549 499.354 104.181 500.23L97.8047 512.468H101.758L102.495 510.266H107.185L107.626 512.468H111.146L108.068 499.28H106.088ZM103.526 508.072C103.821 507.335 104.991 504.192 104.991 504.192C104.991 504.192 105.286 503.389 105.507 502.874L105.728 504.118C105.728 504.118 106.464 507.417 106.603 508.146H103.526V508.072Z" fill="#293688"/>
<path d="M75.1736 508.506L74.8052 506.598C74.1423 504.396 72.0224 501.981 69.6733 500.811L72.9718 512.534H76.9251L82.8591 499.345H78.9058L75.1654 508.506H75.1736Z" fill="#3C58BF"/>
<path d="M75.1736 508.506L74.8052 506.598C74.1423 504.396 72.0224 501.981 69.6733 500.811L72.9718 512.534H76.9251L82.8591 499.345H79.6343L75.1654 508.506H75.1736Z" fill="#293688"/>
<path d="M64.9917 499.28L65.6547 499.427C70.3446 500.524 73.5694 503.308 74.8135 506.607L73.4957 500.377C73.2748 499.501 72.62 499.28 71.8097 499.28H64.9999H64.9917Z" fill="#FFBC00"/>
<path d="M64.9917 499.28C69.6816 500.377 73.5612 503.234 74.8135 506.533L73.5694 501.327C73.3484 500.451 72.62 499.935 71.8097 499.935L64.9999 499.272L64.9917 499.28Z" fill="#F7981D"/>
<path d="M64.9917 499.28C69.6816 500.377 73.5612 503.234 74.8135 506.533L73.9377 503.676C73.7167 502.8 73.4221 501.916 72.399 501.548L64.9999 499.28H64.9917Z" fill="#ED7C00"/>
<path d="M78.8322 508.072L76.3441 505.583L75.1736 508.367L74.879 506.533C74.216 504.331 72.0961 501.916 69.7471 500.745L73.0456 512.468H76.9988L78.8322 508.072Z" fill="#051244"/>
<path d="M85.6501 512.468L82.499 509.243L81.9097 512.468H85.6501Z" fill="#051244"/>
<path d="M94.0724 507.925C94.3671 508.219 94.5144 508.44 94.4407 508.727C94.4407 509.603 93.2703 510.045 92.239 510.045C90.7739 510.045 89.9718 509.824 88.7195 509.308L88.2039 509.087L87.6882 512.091C88.564 512.46 90.1764 512.828 91.8625 512.828C94.2034 512.828 96.1104 512.165 97.2072 510.994L94.056 507.916L94.0724 507.925Z" fill="#051244"/>
<path d="M98.3203 512.468H101.766L102.503 510.266H107.193L107.635 512.468H111.154L109.91 507.122L105.515 502.874L105.736 504.044C105.736 504.044 106.472 507.343 106.612 508.072H103.534C103.829 507.335 104.999 504.192 104.999 504.192C104.999 504.192 105.294 503.389 105.515 502.874" fill="#051244"/>
<path d="M169.16 502.489H166.205C166.033 502.489 165.862 502.661 165.772 502.833L164.552 510.487C164.552 510.659 164.642 510.749 164.814 510.749H166.377C166.549 510.749 166.639 510.659 166.639 510.487L166.983 508.318C166.983 508.146 167.155 507.974 167.417 507.974H168.374C170.371 507.974 171.501 507.016 171.763 505.109C171.935 504.323 171.763 503.627 171.419 503.193C170.895 502.759 170.118 502.497 169.16 502.497M169.504 505.362C169.332 506.402 168.546 506.402 167.769 506.402H167.245L167.589 504.405C167.589 504.315 167.679 504.233 167.85 504.233H168.022C168.546 504.233 169.062 504.233 169.324 504.576C169.496 504.667 169.496 504.92 169.496 505.362" fill="#8FA0E4"/>
<path d="M147.863 502.489H144.908C144.737 502.489 144.565 502.661 144.475 502.833L143.255 510.487C143.255 510.659 143.345 510.749 143.517 510.749H144.908C145.08 510.749 145.252 510.577 145.342 510.405L145.686 508.318C145.686 508.146 145.858 507.974 146.12 507.974H147.077C149.075 507.974 150.204 507.016 150.466 505.109C150.638 504.323 150.466 503.627 150.122 503.193C149.598 502.759 148.903 502.497 147.863 502.497M148.207 505.362C148.035 506.402 147.249 506.402 146.472 506.402H146.038L146.382 504.405C146.382 504.315 146.472 504.233 146.644 504.233H146.816C147.339 504.233 147.855 504.233 148.117 504.576C148.207 504.667 148.289 504.92 148.207 505.362Z" fill="#263B80"/>
<path d="M156.817 505.272H155.426C155.336 505.272 155.164 505.362 155.164 505.444L155.074 505.878L154.984 505.706C154.64 505.272 154.026 505.1 153.331 505.1C151.767 505.1 150.376 506.32 150.114 507.966C149.942 508.833 150.204 509.619 150.638 510.135C151.072 510.651 151.677 510.831 152.463 510.831C153.765 510.831 154.46 510.045 154.46 510.045L154.37 510.479C154.37 510.651 154.46 510.741 154.632 510.741H155.934C156.105 510.741 156.277 510.569 156.367 510.397L157.153 505.526C157.063 505.436 156.891 505.264 156.809 505.264M154.812 508.047C154.64 508.833 154.026 509.439 153.159 509.439C152.725 509.439 152.373 509.267 152.201 509.095C152.029 508.833 151.939 508.489 151.939 508.056C152.029 507.27 152.725 506.664 153.503 506.664C153.936 506.664 154.198 506.836 154.46 507.008C154.722 507.27 154.804 507.704 154.804 508.047" fill="#263B80"/>
<path d="M178.024 505.272H176.633C176.543 505.272 176.371 505.362 176.371 505.444L176.281 505.878L176.191 505.706C175.847 505.272 175.233 505.1 174.538 505.1C172.974 505.1 171.583 506.32 171.321 507.966C171.149 508.833 171.411 509.619 171.845 510.135C172.279 510.651 172.884 510.831 173.67 510.831C174.971 510.831 175.667 510.045 175.667 510.045L175.577 510.479C175.577 510.651 175.667 510.741 175.839 510.741H177.14C177.312 510.741 177.484 510.569 177.574 510.397L178.36 505.526C178.27 505.436 178.188 505.264 178.016 505.264M176.019 508.047C175.847 508.833 175.233 509.439 174.366 509.439C173.932 509.439 173.58 509.267 173.408 509.095C173.236 508.833 173.146 508.489 173.146 508.056C173.236 507.27 173.932 506.664 174.709 506.664C175.143 506.664 175.405 506.836 175.667 507.008C176.011 507.27 176.101 507.704 176.011 508.047" fill="#8FA0E4"/>
<path d="M164.38 505.272H162.899C162.727 505.272 162.637 505.362 162.555 505.444L160.64 508.399L159.772 505.616C159.682 505.444 159.6 505.354 159.338 505.354H157.947C157.775 505.354 157.685 505.526 157.685 505.698L159.248 510.307L157.767 512.394C157.677 512.566 157.767 512.828 157.939 512.828H159.33C159.502 512.828 159.592 512.738 159.674 512.656L164.454 505.788C164.716 505.526 164.544 505.264 164.364 505.264" fill="#263B80"/>
<path d="M179.678 502.751L178.458 510.577C178.458 510.749 178.548 510.839 178.72 510.839H179.939C180.111 510.839 180.283 510.667 180.373 510.495L181.593 502.841C181.593 502.669 181.503 502.579 181.331 502.579H179.939C179.849 502.489 179.768 502.579 179.678 502.751Z" fill="#8FA0E4"/>
<path d="M136.822 499.878C136.216 499.182 135.087 498.838 133.515 498.838H129.169C128.907 498.838 128.645 499.1 128.563 499.362L126.828 510.749C126.828 511.011 127 511.183 127.172 511.183H129.865L130.56 506.926V507.098C130.65 506.836 130.904 506.574 131.166 506.574H132.467C134.988 506.574 136.904 505.534 137.509 502.661V502.399C137.449 502.399 137.449 502.399 137.509 502.399C137.599 501.269 137.419 500.573 136.814 499.878" fill="#263B80"/>
<path d="M137.436 502.399V502.661C136.83 505.616 134.915 506.574 132.394 506.574H131.092C130.83 506.574 130.569 506.836 130.487 507.098L129.619 512.402C129.619 512.574 129.709 512.746 129.963 512.746H132.222C132.484 512.746 132.746 512.574 132.746 512.312V512.222L133.18 509.529V509.357C133.18 509.095 133.441 508.923 133.703 508.923H134.047C136.216 508.923 137.959 508.056 138.393 505.444C138.565 504.405 138.483 503.447 137.959 502.833C137.869 502.661 137.698 502.489 137.436 502.399Z" fill="#8FA0E4"/>
<path d="M136.822 502.137C136.732 502.137 136.65 502.047 136.56 502.047C136.47 502.047 136.388 502.047 136.298 501.957C135.954 501.867 135.602 501.867 135.168 501.867H131.78C131.69 501.867 131.608 501.867 131.518 501.957C131.346 502.047 131.256 502.219 131.256 502.391L130.56 506.91V507.081C130.65 506.819 130.904 506.558 131.166 506.558H132.467C134.988 506.558 136.904 505.518 137.509 502.645C137.509 502.554 137.509 502.473 137.599 502.383C137.427 502.293 137.337 502.211 137.165 502.211C136.991 502.151 136.876 502.121 136.822 502.121" fill="#232C65"/>
<path d="M202.98 512.836C206.845 512.836 209.978 509.703 209.978 505.837C209.978 501.972 206.845 498.838 202.98 498.838C199.115 498.838 195.982 501.972 195.982 505.837C195.982 509.703 199.115 512.836 202.98 512.836Z" fill="#EE0005"/>
<path d="M211.672 512.836C215.537 512.836 218.67 509.703 218.67 505.837C218.67 501.972 215.537 498.838 211.672 498.838C207.807 498.838 204.674 501.972 204.674 505.837C204.674 509.703 207.807 512.836 211.672 512.836Z" fill="#0098E2"/>
<path fill-rule="evenodd" clip-rule="evenodd" d="M245.697 511.019C246.924 512.149 248.57 512.836 250.354 512.836C254.201 512.836 257.311 509.701 257.311 505.845C257.311 501.99 254.201 498.838 250.354 498.838C248.561 498.838 246.916 499.526 245.697 500.655C244.289 501.94 243.405 503.791 243.405 505.845C243.405 507.9 244.297 509.75 245.697 511.027V511.019Z" fill="#FAB31E"/>
<path fill-rule="evenodd" clip-rule="evenodd" d="M247.948 505.092C247.923 504.838 247.874 504.601 247.825 504.347H243.569C243.618 504.093 243.691 503.856 243.757 503.61H247.612C247.53 503.357 247.432 503.103 247.325 502.866H244.06C244.182 502.612 244.313 502.358 244.453 502.121H246.916C246.761 501.867 246.581 501.613 246.384 501.384H244.976C245.189 501.122 245.435 500.868 245.689 500.639C244.453 499.526 242.816 498.822 241.015 498.822C237.184 498.822 234.058 501.957 234.058 505.829C234.058 509.701 237.184 512.82 241.015 512.82C242.816 512.82 244.453 512.132 245.689 511.003C245.942 510.773 246.171 510.536 246.384 510.266H244.976C244.788 510.028 244.616 509.783 244.444 509.521H246.908C247.064 509.284 247.195 509.038 247.317 508.776H244.052C243.945 508.539 243.839 508.293 243.749 508.039H247.604C247.686 507.802 247.751 507.548 247.808 507.294C247.857 507.057 247.907 506.803 247.931 506.549C247.956 506.312 247.964 506.066 247.964 505.813C247.964 505.559 247.956 505.305 247.931 505.068L247.948 505.092Z" fill="#E40520"/>
<path fill-rule="evenodd" clip-rule="evenodd" d="M256.386 507.466C256.386 507.335 256.484 507.237 256.599 507.237C256.73 507.237 256.828 507.335 256.828 507.466C256.828 507.589 256.73 507.695 256.599 507.695C256.476 507.695 256.386 507.589 256.386 507.466ZM256.599 507.638C256.697 507.638 256.779 507.564 256.779 507.466C256.779 507.368 256.697 507.294 256.599 507.294C256.517 507.294 256.427 507.368 256.427 507.466C256.427 507.564 256.509 507.638 256.599 507.638ZM256.574 507.564H256.525V507.376H256.656C256.656 507.376 256.681 507.409 256.681 507.433C256.681 507.442 256.672 507.466 256.648 507.483L256.697 507.564H256.64L256.615 507.491H256.582V507.458H256.607C256.607 507.458 256.632 507.458 256.632 507.45C256.64 507.45 256.64 507.442 256.64 507.425C256.64 507.425 256.64 507.417 256.632 507.417C256.632 507.409 256.623 507.417 256.607 507.417H256.582V507.573L256.574 507.564Z" fill="white"/>
<path fill-rule="evenodd" clip-rule="evenodd" d="M243.331 507.859C243.102 507.916 242.938 507.957 242.767 507.957C242.406 507.957 242.194 507.728 242.194 507.319C242.194 507.237 242.202 507.147 242.218 507.057L242.267 506.779L242.3 506.549L242.627 504.576H243.348L243.266 505.01H243.724L243.618 505.731H243.159L242.971 506.91C242.963 506.967 242.963 507.008 242.963 507.032C242.963 507.188 243.037 507.245 243.217 507.245C243.299 507.245 243.372 507.237 243.446 507.221L243.348 507.859H243.331Z" fill="#06326E"/>
<path fill-rule="evenodd" clip-rule="evenodd" d="M245.664 507.835C245.402 507.908 245.157 507.941 244.895 507.941C244.076 507.941 243.61 507.507 243.61 506.656C243.61 505.657 244.166 504.937 244.927 504.937C245.541 504.937 245.934 505.346 245.934 505.985C245.934 506.197 245.91 506.402 245.852 506.697H244.354C244.346 506.746 244.346 506.77 244.346 506.795C244.346 507.131 244.575 507.302 245.009 507.302C245.288 507.302 245.525 507.245 245.787 507.122L245.664 507.843V507.835ZM245.222 506.115V505.968C245.222 505.731 245.091 505.592 244.862 505.592C244.625 505.592 244.453 505.772 244.379 506.107H245.222V506.115Z" fill="#06326E"/>
<path fill-rule="evenodd" clip-rule="evenodd" d="M237.569 507.892H236.824L237.258 505.166L236.284 507.892H235.768L235.711 505.174L235.253 507.892H234.516L235.105 504.347H236.202L236.227 506.533L236.963 504.347H238.167L237.577 507.892H237.569Z" fill="#06326E"/>
<path fill-rule="evenodd" clip-rule="evenodd" d="M239.378 506.607C239.304 506.598 239.28 506.598 239.231 506.598C238.797 506.598 238.584 506.77 238.584 507.032C238.584 507.212 238.69 507.335 238.862 507.335C239.222 507.335 239.37 507.032 239.378 506.615V506.607ZM239.975 507.892H239.329V507.589C239.173 507.818 238.944 507.941 238.551 507.941C238.191 507.941 237.88 507.614 237.88 507.147C237.88 507.016 237.905 506.893 237.937 506.77C238.06 506.328 238.502 506.05 239.19 506.042C239.272 506.042 239.403 506.042 239.525 506.05C239.55 505.952 239.55 505.919 239.55 505.862C239.55 505.673 239.394 505.608 239.042 505.608C238.83 505.608 238.584 505.641 238.42 505.706L238.314 505.731H238.265L238.371 505.092C238.723 504.986 238.969 504.937 239.247 504.937C239.894 504.937 240.246 505.24 240.246 505.788C240.246 505.935 240.254 506.042 240.213 506.353L240.041 507.384L240.016 507.564V507.712L239.992 507.81V507.892H239.975Z" fill="#06326E"/>
<path fill-rule="evenodd" clip-rule="evenodd" d="M249.29 505.035C249.503 505.035 249.699 505.092 249.961 505.223L250.092 504.454C250.018 504.421 249.994 504.421 249.904 504.38L249.601 504.298C249.503 504.274 249.388 504.265 249.249 504.265C248.881 504.265 248.66 504.274 248.43 504.413C248.308 504.495 248.152 504.601 247.988 504.798L247.89 504.773L247.121 505.313L247.154 505.01H246.36L245.893 507.892H246.646L246.924 506.345C246.924 506.345 247.031 506.132 247.08 506.058C247.227 505.878 247.342 505.878 247.497 505.878H247.555C247.53 506.05 247.522 506.23 247.522 506.435C247.522 507.368 248.054 507.957 248.864 507.957C249.069 507.957 249.249 507.933 249.527 507.859L249.658 507.041C249.421 507.172 249.2 507.229 249.02 507.229C248.578 507.229 248.308 506.893 248.308 506.361C248.308 505.583 248.7 505.027 249.265 505.027L249.29 505.035Z" fill="#06326E"/>
<path fill-rule="evenodd" clip-rule="evenodd" d="M255.666 504.347L255.494 505.354C255.314 505.076 255.101 504.945 254.806 504.945C254.413 504.945 254.037 505.174 253.808 505.608L253.325 505.305L253.374 505.002H252.572L252.114 507.884H252.858L253.112 506.336C253.112 506.336 253.3 506.124 253.349 506.05C253.472 505.903 253.587 505.878 253.685 505.87C253.603 506.107 253.554 506.402 253.554 506.721C253.554 507.442 253.922 507.925 254.479 507.925C254.757 507.925 254.97 507.826 255.175 507.597L255.142 507.884H255.854L256.427 504.339H255.658L255.666 504.347ZM254.741 507.204C254.487 507.204 254.356 507.016 254.356 506.639C254.356 506.075 254.594 505.665 254.945 505.665C255.207 505.665 255.338 505.87 255.338 506.23C255.338 506.803 255.101 507.204 254.741 507.204Z" fill="#06326E"/>
<path fill-rule="evenodd" clip-rule="evenodd" d="M251.271 506.607C251.197 506.598 251.172 506.598 251.123 506.598C250.689 506.598 250.477 506.77 250.477 507.032C250.477 507.212 250.583 507.335 250.755 507.335C251.115 507.335 251.262 507.032 251.271 506.615V506.607ZM251.868 507.892H251.205L251.23 507.589C251.058 507.818 250.837 507.941 250.436 507.941C250.067 507.941 249.74 507.63 249.74 507.147C249.74 506.459 250.256 506.042 251.074 506.042C251.156 506.042 251.287 506.042 251.402 506.05C251.426 505.952 251.434 505.919 251.434 505.862C251.434 505.673 251.279 505.608 250.919 505.608C250.714 505.608 250.46 505.641 250.297 505.706L250.198 505.731H250.149L250.256 505.092C250.608 504.986 250.853 504.937 251.131 504.937C251.778 504.937 252.114 505.24 252.114 505.788C252.114 505.935 252.138 506.042 252.081 506.353L251.925 507.384L251.901 507.564L251.876 507.712V507.892H251.868Z" fill="#06326E"/>
<path fill-rule="evenodd" clip-rule="evenodd" d="M241.555 505.624C241.703 505.624 241.907 505.632 242.12 505.673L242.226 505.002C242.014 504.978 241.719 504.945 241.555 504.945C240.712 504.945 240.442 505.403 240.442 505.927C240.442 506.279 240.598 506.525 241.007 506.721C241.31 506.869 241.359 506.893 241.359 507.024C241.359 507.204 241.203 507.311 240.917 507.311C240.688 507.311 240.475 507.278 240.229 507.188L240.147 507.851H240.156L240.303 507.884C240.352 507.892 240.409 507.908 240.491 507.916C240.671 507.925 240.827 507.941 240.925 507.941C241.768 507.941 242.112 507.614 242.112 506.983C242.112 506.59 241.924 506.345 241.547 506.181C241.22 506.034 241.187 506.009 241.187 505.878C241.187 505.747 241.334 505.624 241.555 505.624Z" fill="#06326E"/>
<path fill-rule="evenodd" clip-rule="evenodd" d="M250.297 504.233L250.166 505.002C249.904 504.871 249.707 504.814 249.494 504.814C248.93 504.814 248.537 505.37 248.537 506.148C248.537 506.688 248.799 507.016 249.249 507.016C249.429 507.016 249.642 506.959 249.887 506.836L249.756 507.638C249.478 507.712 249.298 507.744 249.093 507.744C248.275 507.744 247.776 507.155 247.776 506.205C247.776 504.945 248.471 504.052 249.47 504.052C249.601 504.052 249.724 504.061 249.822 504.085L250.125 504.159C250.223 504.192 250.247 504.208 250.313 504.233H250.297Z" fill="white"/>
<path fill-rule="evenodd" clip-rule="evenodd" d="M247.874 504.757H247.8C247.546 504.757 247.407 504.879 247.178 505.223L247.252 504.781H246.564L246.098 507.663H246.851C247.129 505.894 247.203 505.6 247.563 505.6H247.612C247.686 505.248 247.784 505.002 247.898 504.773H247.874V504.757Z" fill="white"/>
<path fill-rule="evenodd" clip-rule="evenodd" d="M243.528 507.63C243.323 507.704 243.159 507.728 242.987 507.728C242.603 507.728 242.39 507.515 242.39 507.09C242.39 507.016 242.398 506.918 242.414 506.836L242.464 506.549L242.496 506.32L242.824 504.347H243.569L243.487 504.781H243.871L243.773 505.493H243.388L243.184 506.697C243.176 506.746 243.176 506.779 243.176 506.819C243.176 506.967 243.249 507.024 243.429 507.024C243.511 507.024 243.585 507.024 243.634 507L243.536 507.638L243.528 507.63Z" fill="white"/>
<path fill-rule="evenodd" clip-rule="evenodd" d="M240.63 505.698C240.63 506.058 240.802 506.312 241.195 506.5C241.506 506.648 241.555 506.688 241.555 506.811C241.555 506.991 241.424 507.073 241.121 507.073C240.892 507.073 240.688 507.04 240.45 506.967L240.344 507.63H240.376L240.507 507.663C240.557 507.671 240.614 507.687 240.712 507.687C240.884 507.712 241.023 507.712 241.121 507.712C241.915 507.712 242.284 507.409 242.284 506.754C242.284 506.361 242.128 506.132 241.752 505.952C241.424 505.804 241.391 505.772 241.391 505.641C241.391 505.485 241.522 505.411 241.768 505.411C241.915 505.411 242.12 505.42 242.308 505.444L242.415 504.781C242.226 504.748 241.923 504.724 241.752 504.724C240.909 504.724 240.614 505.166 240.622 505.698H240.63Z" fill="white"/>
<path fill-rule="evenodd" clip-rule="evenodd" d="M256.051 507.663H255.338L255.371 507.384C255.167 507.597 254.954 507.695 254.675 507.695C254.119 507.695 253.759 507.229 253.759 506.508C253.759 505.551 254.324 504.732 254.987 504.732C255.289 504.732 255.502 504.863 255.707 505.125L255.879 504.118H256.623L256.051 507.663ZM254.946 506.991C255.298 506.991 255.535 506.582 255.535 506.017C255.535 505.641 255.404 505.452 255.142 505.452C254.806 505.452 254.553 505.845 254.553 506.41C254.553 506.795 254.684 506.983 254.946 506.983V506.991Z" fill="white"/>
<path fill-rule="evenodd" clip-rule="evenodd" d="M245.828 507.605C245.566 507.687 245.32 507.728 245.05 507.728C244.207 507.728 243.773 507.286 243.773 506.435C243.773 505.452 244.33 504.716 245.083 504.716C245.705 504.716 246.106 505.125 246.106 505.763C246.106 505.976 246.081 506.181 246.008 506.484H244.518C244.518 506.484 244.51 506.541 244.51 506.566C244.51 506.901 244.739 507.073 245.173 507.073C245.451 507.073 245.688 507.024 245.95 506.893L245.828 507.614V507.605ZM245.41 505.886V505.739C245.41 505.501 245.279 505.371 245.05 505.371C244.813 505.371 244.641 505.551 244.567 505.886H245.41Z" fill="white"/>
<path fill-rule="evenodd" clip-rule="evenodd" d="M237.757 507.663H237.013L237.446 504.937L236.472 507.663H235.957L235.899 504.961L235.441 507.663H234.745L235.335 504.118H236.415L236.448 506.32L237.168 504.118H238.347L237.757 507.663Z" fill="white"/>
<path fill-rule="evenodd" clip-rule="evenodd" d="M239.624 506.377C239.55 506.377 239.517 506.369 239.452 506.369C239.034 506.369 238.813 506.525 238.813 506.811C238.813 506.991 238.911 507.098 239.075 507.098C239.386 507.098 239.607 506.811 239.615 506.377H239.624ZM240.18 507.663H239.558V507.36C239.378 507.597 239.124 507.712 238.781 507.712C238.371 507.712 238.093 507.401 238.093 506.934C238.093 506.222 238.576 505.821 239.411 505.821C239.493 505.821 239.599 505.829 239.722 505.845C239.746 505.747 239.746 505.714 239.746 505.665C239.746 505.477 239.615 505.403 239.263 505.403C239.051 505.403 238.805 505.428 238.641 505.477L238.535 505.51H238.461L238.568 504.871C238.936 504.765 239.19 504.724 239.468 504.724C240.115 504.724 240.467 505.01 240.467 505.567C240.467 505.714 240.458 505.821 240.409 506.14L240.237 507.163L240.213 507.343V507.491L240.188 507.597V507.671L240.18 507.663Z" fill="white"/>
<path fill-rule="evenodd" clip-rule="evenodd" d="M251.516 506.377C251.434 506.377 251.393 506.369 251.344 506.369C250.91 506.369 250.698 506.525 250.698 506.811C250.698 506.991 250.804 507.098 250.976 507.098C251.279 507.098 251.508 506.811 251.516 506.377ZM252.064 507.663H251.442V507.36C251.262 507.597 251.009 507.712 250.665 507.712C250.256 507.712 249.977 507.401 249.977 506.934C249.977 506.222 250.46 505.821 251.295 505.821C251.377 505.821 251.483 505.829 251.598 505.845C251.622 505.747 251.631 505.714 251.631 505.665C251.631 505.477 251.5 505.403 251.148 505.403C250.935 505.403 250.681 505.428 250.509 505.477L250.411 505.51H250.337L250.444 504.871C250.812 504.765 251.066 504.724 251.344 504.724C251.991 504.724 252.326 505.01 252.326 505.567C252.326 505.714 252.326 505.821 252.269 506.14L252.114 507.163L252.089 507.343L252.064 507.491V507.671H252.056L252.064 507.663Z" fill="white"/>
<path fill-rule="evenodd" clip-rule="evenodd" d="M254.086 504.757H254.012C253.759 504.757 253.62 504.879 253.39 505.223L253.464 504.781H252.776L252.318 507.663H253.063C253.341 505.894 253.415 505.6 253.775 505.6H253.824C253.898 505.248 253.996 505.002 254.111 504.773H254.086V504.757Z" fill="white"/>
<path d="M159.715 332.42C158.586 333.55 158.586 335.375 159.715 336.505C160.845 337.635 162.67 337.635 163.799 336.505C164.929 335.375 164.929 333.55 163.799 332.42C162.67 331.29 160.836 331.29 159.715 332.42Z" fill="#B8DAFF"/>
<path d="M167.883 328.335C167.319 327.77 166.41 327.77 165.845 328.335C165.281 328.9 165.281 329.809 165.845 330.373C168.096 332.625 168.096 336.292 165.845 338.543C165.281 339.108 165.281 340.017 165.845 340.582C166.124 340.86 166.5 341.007 166.869 341.007C167.237 341.007 167.605 340.868 167.892 340.582C171.272 337.209 171.272 331.716 167.892 328.327L167.883 328.335Z" fill="#B8DAFF"/>
<path d="M157.669 328.335C157.104 327.77 156.196 327.77 155.631 328.335C153.994 329.972 153.094 332.15 153.094 334.467C153.094 336.783 153.994 338.961 155.631 340.598C155.909 340.876 156.286 341.024 156.654 341.024C157.022 341.024 157.391 340.885 157.677 340.598C158.242 340.033 158.242 339.125 157.677 338.56C155.426 336.309 155.426 332.641 157.677 330.39C158.25 329.825 158.25 328.916 157.677 328.343L157.669 328.335Z" fill="#B8DAFF"/>
<path d="M171.959 324.258C171.395 323.694 170.486 323.694 169.921 324.258C169.357 324.823 169.357 325.732 169.921 326.297C174.423 330.799 174.423 338.134 169.921 342.637C169.357 343.201 169.357 344.11 169.921 344.675C170.2 344.953 171.215 345.559 171.959 344.675C177.091 338.593 177.591 329.891 171.959 324.258Z" fill="#B8DAFF"/>
<path d="M153.585 326.297C154.149 325.732 154.149 324.823 153.585 324.258C153.02 323.694 152.111 323.694 151.546 324.258C145.915 329.891 146.046 338.928 151.546 344.683C152.316 345.494 153.306 344.961 153.585 344.683C154.149 344.118 154.149 343.21 153.585 342.645C149.083 338.134 149.083 330.807 153.585 326.297Z" fill="#B8DAFF"/>
<path d="M221.028 312.757H197.66C196.522 312.757 195.605 313.682 195.605 314.811V325.896C195.605 327.025 196.53 327.95 197.66 327.95H221.028C222.157 327.95 223.082 327.025 223.082 325.896V314.811C223.082 313.682 222.157 312.757 221.028 312.757ZM196.031 320.354C196.031 320.354 196.039 320.354 196.047 320.354C196.056 320.354 196.056 320.354 196.064 320.354H196.039H196.031ZM222.206 325.896C222.206 326.542 221.674 327.074 221.028 327.074H197.66C197.005 327.074 196.473 326.542 196.473 325.896V314.811C196.473 314.165 197.005 313.633 197.66 313.633H221.028C221.674 313.633 222.206 314.165 222.206 314.811V325.896Z" fill="#5264AE"/>
<path d="M202.145 317.447C202.129 317.357 202.096 317.267 202.031 317.202L201.409 316.58C200.86 316.031 199.968 316.031 199.42 316.58L198.798 317.202C198.732 317.267 198.691 317.357 198.683 317.447C198.462 317.857 198.462 318.356 198.683 318.765C198.699 318.847 198.732 318.929 198.798 318.995L199.42 319.617C199.968 320.165 200.86 320.165 201.409 319.617L202.031 318.995C202.096 318.929 202.129 318.847 202.145 318.765C202.366 318.356 202.366 317.857 202.145 317.447ZM200.107 319.044L199.542 318.479C199.338 318.274 199.338 317.93 199.542 317.726L200.14 317.128C200.312 317.022 200.516 317.022 200.688 317.128L201.286 317.726C201.49 317.93 201.49 318.274 201.286 318.479L200.721 319.044C200.533 319.175 200.295 319.175 200.107 319.044Z" fill="#5264AE"/>
<path d="M220.135 324.324H216.378C216.141 324.324 215.945 324.127 215.945 323.89C215.945 323.653 216.141 323.456 216.378 323.456H220.135C220.373 323.456 220.569 323.653 220.569 323.89C220.569 324.127 220.373 324.324 220.135 324.324Z" fill="#5264AE"/>
<path d="M214.332 324.324H210.575C210.338 324.324 210.142 324.127 210.142 323.89C210.142 323.653 210.338 323.456 210.575 323.456H214.332C214.57 323.456 214.766 323.653 214.766 323.89C214.766 324.127 214.57 324.324 214.332 324.324Z" fill="#5264AE"/>
<path d="M208.521 324.324H204.764C204.527 324.324 204.33 324.127 204.33 323.89C204.33 323.653 204.527 323.456 204.764 323.456H208.521C208.758 323.456 208.955 323.653 208.955 323.89C208.955 324.127 208.758 324.324 208.521 324.324Z" fill="#5264AE"/>
<path d="M202.718 324.324H198.961C198.724 324.324 198.527 324.127 198.527 323.89C198.527 323.653 198.724 323.456 198.961 323.456H202.718C202.955 323.456 203.152 323.653 203.152 323.89C203.152 324.127 202.955 324.324 202.718 324.324Z" fill="#5264AE"/>
<path d="M128.727 314.067H123.513C123.178 314.067 122.908 313.796 122.908 313.461C122.908 313.125 123.178 312.855 123.513 312.855H128.727C129.063 312.855 129.333 313.125 129.333 313.461C129.333 313.796 129.063 314.067 128.727 314.067Z" fill="#5264AE"/>
<path d="M120.673 314.067H115.459C115.124 314.067 114.854 313.796 114.854 313.461C114.854 313.125 115.124 312.855 115.459 312.855H120.673C121.009 312.855 121.279 313.125 121.279 313.461C121.279 313.796 121.009 314.067 120.673 314.067Z" fill="#5264AE"/>
<path d="M112.611 314.067H107.397C107.062 314.067 106.792 313.796 106.792 313.461C106.792 313.125 107.062 312.855 107.397 312.855H112.611C112.947 312.855 113.217 313.125 113.217 313.461C113.217 313.796 112.947 314.067 112.611 314.067Z" fill="#5264AE"/>
<path d="M104.549 314.067H99.3354C98.9998 314.067 98.7297 313.796 98.7297 313.461C98.7297 313.125 98.9998 312.855 99.3354 312.855H104.549C104.885 312.855 105.155 313.125 105.155 313.461C105.155 313.796 104.885 314.067 104.549 314.067Z" fill="#5264AE"/>
<path d="M128.727 321.565H123.513C123.178 321.565 122.908 321.295 122.908 320.959C122.908 320.624 123.178 320.354 123.513 320.354H128.727C129.063 320.354 129.333 320.624 129.333 320.959C129.333 321.295 129.063 321.565 128.727 321.565Z" fill="#5264AE"/>
<path d="M120.673 321.565H115.459C115.124 321.565 114.854 321.295 114.854 320.959C114.854 320.624 115.124 320.354 115.459 320.354H120.673C121.009 320.354 121.279 320.624 121.279 320.959C121.279 321.295 121.009 321.565 120.673 321.565Z" fill="#5264AE"/>
<path d="M112.611 321.565H107.397C107.062 321.565 106.792 321.295 106.792 320.959C106.792 320.624 107.062 320.354 107.397 320.354H112.611C112.947 320.354 113.217 320.624 113.217 320.959C113.217 321.295 112.947 321.565 112.611 321.565Z" fill="#5264AE"/>
<path d="M104.549 321.565H99.3354C98.9998 321.565 98.7297 321.295 98.7297 320.959C98.7297 320.624 98.9998 320.354 99.3354 320.354H104.549C104.885 320.354 105.155 320.624 105.155 320.959C105.155 321.295 104.885 321.565 104.549 321.565Z" fill="#5264AE"/>
<path d="M112.169 351.985H99.1553V356.43H112.169V351.985Z" fill="#5264AE"/>
<path d="M128.703 352.19V356.226H116.098V352.19H128.703ZM128.907 351.985H115.893V356.43H128.907V351.985Z" fill="#5264AE"/>
<path d="M215.855 351.985H202.841V356.43H215.855V351.985Z" fill="#5264AE"/>
<g clip-path="url(#clip3_2009_685)">
<path d="M334.368 283.622C330.857 287.121 330.857 292.775 334.368 296.274C337.879 299.774 343.553 299.774 347.064 296.274C350.575 292.775 350.575 287.121 347.064 283.622C343.553 280.123 337.854 280.123 334.368 283.622Z" fill="#8FA0E4"/>
<path d="M359.76 270.944C358.005 269.195 355.181 269.195 353.425 270.944C351.67 272.694 351.67 275.508 353.425 277.258C360.422 284.231 360.422 295.59 353.425 302.563C351.67 304.312 351.67 307.127 353.425 308.876C354.29 309.738 355.461 310.195 356.605 310.195C357.75 310.195 358.895 309.764 359.786 308.876C370.294 298.43 370.294 281.416 359.786 270.919L359.76 270.944Z" fill="#8FA0E4"/>
<path d="M328.007 270.944C326.252 269.195 323.428 269.195 321.672 270.944C316.583 276.016 313.785 282.76 313.785 289.936C313.785 297.111 316.583 303.856 321.672 308.927C322.537 309.789 323.707 310.245 324.852 310.245C325.997 310.245 327.142 309.814 328.033 308.927C329.788 307.177 329.788 304.363 328.033 302.613C321.036 295.641 321.036 284.281 328.033 277.309C329.814 275.559 329.814 272.745 328.033 270.97L328.007 270.944Z" fill="#8FA0E4"/>
<path d="M372.456 258.318C370.701 256.568 367.877 256.568 366.121 258.318C364.366 260.067 364.366 262.881 366.121 264.631C380.115 278.576 380.115 301.295 366.121 315.24C364.366 316.99 364.366 319.804 366.121 321.554C366.986 322.416 370.141 324.292 372.456 321.554C388.409 302.715 389.961 275.762 372.456 258.318Z" fill="#8FA0E4"/>
<path d="M315.311 264.631C317.067 262.881 317.067 260.067 315.311 258.317C313.556 256.568 310.732 256.568 308.976 258.317C291.471 275.762 291.878 303.754 308.976 321.579C311.368 324.089 314.446 322.441 315.311 321.579C317.067 319.829 317.067 317.015 315.311 315.265C301.318 301.295 301.318 278.576 315.311 264.631Z" fill="#8FA0E4"/>
</g>
</g>
<defs>
<clipPath id="clip0_2009_685">
<rect width="194.33" height="194.33" fill="white" transform="translate(491 347.999)"/>
</clipPath>
<clipPath id="clip1_2009_685">
<rect width="194.33" height="194.33" fill="white" transform="translate(164 20.999)"/>
</clipPath>
<clipPath id="clip2_2009_685">
<rect width="584.7" height="550" fill="white" transform="translate(48 14.999)"/>
</clipPath>
<clipPath id="clip3_2009_685">
<rect width="89" height="66" fill="white" transform="translate(296 256.999)"/>
</clipPath>
</defs>
</svg>
