<svg width="80" height="80" viewBox="0 0 80 80" fill="none" xmlns="http://www.w3.org/2000/svg">
<rect y="-0.000976562" width="80" height="80" rx="16" fill="#D5DDFD"/>
<path d="M12.1621 55.4041C10.9671 55.4041 10 56.3711 10 57.5662C10 58.7613 10.9671 59.7283 12.1621 59.7283H25.135V55.4041H12.1621Z" fill="#5264AE"/>
<path d="M69.9066 56.0373L65.5823 51.713C64.7377 50.8684 63.3695 50.8684 62.5249 51.713C61.6803 52.5576 61.6803 53.9258 62.5249 54.7704L63.1583 55.4039H55.405V59.7282H63.1583L62.5249 60.3616C61.6803 61.2062 61.6803 62.5744 62.5249 63.419C62.9472 63.8413 63.5004 64.0524 64.0536 64.0524C64.6068 64.0524 65.16 63.8413 65.5823 63.419L69.9066 59.0947C70.7512 58.2501 70.7512 56.8819 69.9066 56.0373Z" fill="#5264AE"/>
<path d="M53.2428 18.6476C52.9936 18.6476 52.7605 18.7042 52.5156 18.7208C50.7539 13.6471 45.9435 9.99902 40.2699 9.99902C34.5963 9.99902 29.7859 13.6471 28.0242 18.7208C27.7792 18.7042 27.5462 18.6476 27.297 18.6476C21.3265 18.6476 16.4863 23.4877 16.4863 29.4583C16.4863 35.4289 21.3265 40.269 27.297 40.269C29.7423 40.269 31.9724 39.4267 33.7835 38.0579C35.5946 39.4267 37.8247 40.269 40.2699 40.269C42.7151 40.269 44.9452 39.4267 46.7563 38.0579C48.5674 39.4267 50.7975 40.269 53.2428 40.269C59.2133 40.269 64.0535 35.4289 64.0535 29.4583C64.0535 23.4877 59.2133 18.6476 53.2428 18.6476Z" fill="#5264AE"/>
<path d="M52.1618 58.6472C51.5642 58.6472 51.0807 58.1637 51.0807 57.5661C51.0807 56.9686 51.5642 56.485 52.1618 56.485H53.2428C52.7202 50.1939 47.6422 45.1158 41.351 44.5933V45.6743C41.351 46.2719 40.8675 46.7554 40.27 46.7554C39.6724 46.7554 39.1889 46.2719 39.1889 45.6743V44.5933C32.8978 45.1158 27.8197 50.1939 27.2971 56.485H28.3782C28.9757 56.485 29.4593 56.9686 29.4593 57.5661C29.4593 58.1637 28.9757 58.6472 28.3782 58.6472H27.2971C27.8197 64.9383 32.8978 70.0164 39.1889 70.539V69.4579C39.1889 68.8604 39.6724 68.3768 40.27 68.3768C40.8675 68.3768 41.351 68.8604 41.351 69.4579V70.539C47.6422 70.0164 52.7202 64.9383 53.2428 58.6472H52.1618ZM46.4397 52.9251L41.0343 58.3305C40.8316 58.5332 40.5571 58.6472 40.27 58.6472H34.8646C34.2671 58.6472 33.7835 58.1637 33.7835 57.5661C33.7835 56.9686 34.2671 56.485 34.8646 56.485H39.8223L44.911 51.3964C45.3333 50.9741 46.0174 50.9741 46.4397 51.3964C46.862 51.8187 46.862 52.5028 46.4397 52.9251Z" fill="#5264AE"/>
</svg>
