<svg width="606" height="550" viewBox="0 0 606 550" fill="none" xmlns="http://www.w3.org/2000/svg">
<path d="M228.143 419.224C228.143 418.374 229.025 417.608 230.807 417.255H235.336C237.117 417.608 237.998 418.376 237.998 419.245C237.998 420.114 237.115 420.864 235.336 421.235H230.807C229.025 420.861 228.143 420.114 228.143 419.224Z" fill="#D5DDFD"/>
<path d="M184.415 419.224C184.415 418.374 186.37 417.608 190.324 417.255H200.374C204.324 417.608 206.279 418.376 206.279 419.245C206.279 420.114 204.324 420.864 200.374 421.235H190.324C186.37 420.861 184.415 420.114 184.415 419.224Z" fill="#D5DDFD"/>
<path d="M140.689 419.224C140.689 418.374 142.644 417.608 146.599 417.255H156.648C160.598 417.608 162.553 418.376 162.553 419.245C162.553 420.114 160.598 420.864 156.648 421.235H146.599C142.644 420.861 140.689 420.114 140.689 419.224Z" fill="#D5DDFD"/>
<path d="M108.989 409.381C109.839 409.381 110.604 411.145 110.956 414.714V417.255H113.498C117.058 417.608 118.823 418.376 118.823 419.245C118.823 420.115 117.06 420.864 113.498 421.235H106.978V414.714C107.351 411.145 108.097 409.381 108.987 409.381H108.989Z" fill="#D5DDFD"/>
<path d="M108.989 368.866C109.839 368.866 110.604 370.677 110.956 374.342V383.652C110.604 387.312 109.836 389.123 108.968 389.123C108.1 389.123 107.353 387.312 106.98 383.652V374.342C107.353 370.677 108.1 368.866 108.989 368.866Z" fill="#D5DDFD"/>
<path d="M118.825 338.765C118.825 339.615 117.062 340.381 113.498 340.733H110.958V343.278C110.606 346.841 109.839 348.608 108.97 348.608C108.102 348.608 107.356 346.844 106.982 343.278V336.751H113.5C117.065 337.125 118.827 337.872 118.827 338.762L118.825 338.765Z" fill="#D5DDFD"/>
<path d="M146.8 338.765C146.8 339.615 145.55 340.381 143.02 340.734H136.591C134.064 340.381 132.813 339.613 132.813 338.744C132.813 337.874 134.064 337.125 136.591 336.754H143.02C145.55 337.127 146.8 337.874 146.8 338.765Z" fill="#D5DDFD"/>
<path d="M170.622 348.608C169.772 348.608 169.007 346.844 168.655 343.275V340.734H166.113C162.553 340.381 160.791 339.613 160.791 338.744C160.791 337.874 162.553 337.125 166.113 336.754H172.633V343.275C172.26 346.844 171.514 348.608 170.624 348.608H170.622Z" fill="#D5DDFD"/>
<path d="M170.622 392.824C169.772 392.824 169.007 390.846 168.655 386.847V376.687C169.007 372.693 169.775 370.715 170.643 370.715C171.511 370.715 172.258 372.693 172.631 376.687V386.847C172.258 390.846 171.511 392.824 170.622 392.824Z" fill="#D5DDFD"/>
<path d="M170.622 437.036C169.772 437.036 169.007 435.06 168.655 431.062V420.901C169.007 416.908 169.775 414.93 170.643 414.93C171.511 414.93 172.258 416.905 172.631 420.901V431.062C172.258 435.06 171.511 437.036 170.622 437.036Z" fill="#D5DDFD"/>
<path d="M160.788 468.988C160.788 468.138 162.551 467.37 166.116 467.017H168.655V464.473C169.007 460.909 169.775 459.145 170.643 459.145C171.511 459.145 172.258 460.909 172.631 464.473V470.999H166.113C162.548 470.626 160.786 469.879 160.786 468.988H160.788Z" fill="#D5DDFD"/>
<path d="M124.202 468.988C124.202 468.138 125.838 467.369 129.147 467.017H137.554C140.858 467.369 142.494 468.138 142.494 469.009C142.494 469.881 140.858 470.626 137.554 470.999H129.147C125.838 470.626 124.202 469.878 124.202 468.988Z" fill="#D5DDFD"/>
<path d="M87.6157 468.988C87.6157 468.138 89.2515 467.369 92.5607 467.017H100.967C104.272 467.369 105.908 468.138 105.908 469.009C105.908 469.881 104.272 470.626 100.967 470.999H92.5607C89.2515 470.626 87.6157 469.878 87.6157 468.988Z" fill="#D5DDFD"/>
<path d="M59.4876 459.143C60.3372 459.143 61.1023 460.907 61.4544 464.475V467.017H63.9961C67.5564 467.37 69.3189 468.138 69.3189 469.009C69.3189 469.881 67.5564 470.626 63.9961 470.999H57.4763V464.475C57.8495 460.907 58.5958 459.143 59.4853 459.143H59.4876Z" fill="#D5DDFD"/>
<path d="M59.4877 422.125C60.3373 422.125 61.1024 423.782 61.4545 427.129V435.636C61.1024 438.979 60.335 440.635 59.4666 440.635C58.5982 440.635 57.8519 438.979 57.4788 435.636V427.129C57.8519 423.782 58.5982 422.125 59.4877 422.125Z" fill="#D5DDFD"/>
<path d="M59.4877 385.111C60.3373 385.111 61.1024 386.767 61.4545 390.115V398.621C61.1024 401.964 60.335 403.621 59.4666 403.621C58.5982 403.621 57.8519 401.964 57.4788 398.621V390.115C57.8519 386.767 58.5982 385.111 59.4877 385.111Z" fill="#D5DDFD"/>
<path d="M59.4877 348.094C60.3373 348.094 61.1024 349.75 61.4545 353.098V361.604C61.1024 364.947 60.335 366.603 59.4666 366.603C58.5982 366.603 57.8519 364.947 57.4788 361.604V353.098C57.8519 349.75 58.5982 348.094 59.4877 348.094Z" fill="#D5DDFD"/>
<path d="M59.4877 311.077C60.3373 311.077 61.1024 312.733 61.4545 316.081V324.587C61.1024 327.93 60.335 329.586 59.4666 329.586C58.5982 329.586 57.8519 327.93 57.4788 324.587V316.081C57.8519 312.733 58.5982 311.077 59.4877 311.077Z" fill="#D5DDFD"/>
<path d="M59.4877 274.06C60.3373 274.06 61.1024 275.716 61.4545 279.062V287.568C61.1024 290.911 60.335 292.567 59.4666 292.567C58.5982 292.567 57.8519 290.911 57.4788 287.568V279.062C57.8519 275.714 58.5982 274.06 59.4877 274.06Z" fill="#D5DDFD"/>
<path d="M59.4877 237.043C60.3373 237.043 61.1024 238.699 61.4545 242.047V250.553C61.1024 253.896 60.335 255.553 59.4666 255.553C58.5982 255.553 57.8519 253.896 57.4788 250.553V242.047C57.8519 238.699 58.5982 237.043 59.4877 237.043Z" fill="#D5DDFD"/>
<path d="M59.4877 200.026C60.3373 200.026 61.1024 201.682 61.4545 205.03V213.536C61.1024 216.879 60.335 218.536 59.4666 218.536C58.5982 218.536 57.8519 216.879 57.4788 213.536V205.03C57.8519 201.682 58.5982 200.026 59.4877 200.026Z" fill="#D5DDFD"/>
<path d="M59.488 171.654C60.3376 171.654 61.1027 172.538 61.4547 174.321V178.855C61.1027 180.638 60.3352 181.519 59.4669 181.519C58.5985 181.519 57.8522 180.635 57.479 178.855V174.321C57.8522 172.538 58.5985 171.654 59.488 171.654Z" fill="#D5DDFD"/>
<path d="M7.13233 101.999H119.205C123.141 101.999 126.338 105.199 126.338 109.138V220.387C126.338 224.326 123.141 227.526 119.205 227.526H7.13233C3.19652 227.526 0 224.326 0 220.387V109.138C0 105.199 3.19652 101.999 7.13233 101.999Z" fill="#D5DDFD"/>
<path d="M80.3542 181.272V214.159H113.209V181.272H80.3542ZM84.3863 185.308H109.172V210.125H84.3863V185.308Z" fill="white"/>
<path d="M105.077 189.407H88.4817V206.026H105.077V189.407Z" fill="white"/>
<path d="M13.0303 115.496V148.385H45.8873V115.496H13.0303ZM17.0623 119.532H41.8482V144.349H17.0623V119.532Z" fill="white"/>
<path d="M37.7529 123.631H21.1577V140.249H37.7529V123.631Z" fill="white"/>
<path d="M80.3542 115.496V148.385H113.209V115.496H80.3542ZM84.3863 119.532H109.172V144.349H84.3863V119.532Z" fill="white"/>
<path d="M105.077 123.631H88.4817V140.249H105.077V123.631Z" fill="white"/>
<path d="M56.5704 119.598H65.2283V114.753H51.7334V128.976H56.5704V119.598Z" fill="white"/>
<path d="M46.3216 180.668H41.21V185.51H46.3216V180.668Z" fill="white"/>
<path d="M51.7336 152.59H36.4128V157.432H41.8155V162.274H46.2817V167.278H36.7109V172.119H51.1187V166.946H59.4879V162.105H46.6525V157.432H56.5706V143.252H60.9477V138.41H56.5706V131.936H51.7336V152.59Z" fill="white"/>
<path d="M41.21 190.215H36.4128V195.057H41.21V190.215Z" fill="white"/>
<path d="M18.2709 189.811H26.2293V205.009H37.1144V209.489H31.1719V214.33H41.9514V209.989H46.2815V214.161H51.1185V204.137H70.9783V209.489H65.2283V214.33H75.8153V195.365H70.9783V199.295H51.1185V191.021H46.2815V205.145H41.9514V200.167H31.0663V184.97H18.2709V181.272H13.4338V194.557H18.2709V189.811Z" fill="white"/>
<path d="M18.271 199.295H13.0303V204.137H18.271V199.295Z" fill="white"/>
<path d="M21.0943 209.489H13.0303V214.33H25.9314V205.549H21.0943V209.489Z" fill="white"/>
<path d="M18.2709 157.432H25.7224V152.59H13.4338V162.273H18.2709V157.432Z" fill="white"/>
<path d="M36.3072 157.796H31.4702V162.276H36.3072V157.796Z" fill="white"/>
<path d="M40.9446 175.486H31.2682V162.87H26.4311V166.81H13.4338V175.655H18.2709V171.652H26.4311V180.327H31.0804V190.417H35.9198V180.327H40.9446V175.486Z" fill="white"/>
<path d="M102.373 157.432H113.211V152.59H97.5361V161.564H102.373V157.432Z" fill="white"/>
<path d="M102.559 171.45H108.471V176.155H113.308V163.646H108.471V166.608H102.559V171.45Z" fill="white"/>
<path d="M75.8155 171.652H78.0333V166.81H70.5114V157.796H65.672V166.81H61.4077V180.668H56.1271V176.092H51.29V185.51H65.2285V185.775H65.9396V190.215H56.5307V195.057H70.7766V190.215H74.9448V180.934H66.2447V171.652H70.9784V175.655H75.8155V171.652Z" fill="white"/>
<path d="M75.2099 114.753H70.5747V119.595H75.2099V114.753Z" fill="white"/>
<path d="M102.561 171.854H97.2476V176.696H102.561V171.854Z" fill="white"/>
<path d="M70.469 151.878H75.3084V123.631H62.1726V128.475H70.469V143.202H65.9394V148.047H70.469V151.878Z" fill="white"/>
<path d="M66.6951 132.203H60.9475V137.045H66.6951V132.203Z" fill="white"/>
<path d="M65.2284 152.59H59.4878V157.432H65.2284V152.59Z" fill="white"/>
<path d="M75.1794 162.184H78.2985V166.946H88.111V171.854H83.9828V176.695H92.9481V166.946H97.2476V162.104H86.2335V157.432H91.4014V152.59H80.3544V157.342H75.1794V162.184Z" fill="white"/>
<path d="M47.6615 211.135H44.0449V214.755H47.6615V211.135Z" fill="white"/>
<g clip-path="url(#clip0_2009_687)">
<path d="M474.308 86.9692H473.788V32.6227C473.788 14.6085 459.179 -0.000976562 441.165 -0.000976562H243.402C225.388 -0.000976562 210.778 14.6085 210.778 32.6227V86.9692H210.258C207.903 86.9692 206 88.8727 206 91.2274V128.816C206 131.171 207.903 133.074 210.258 133.074H210.778V142.042H210.258C207.903 142.042 206 143.945 206 146.3V183.888C206 186.243 207.903 188.147 210.258 188.147H210.778V517.366C210.778 535.38 225.388 549.989 243.402 549.989H441.165C459.179 549.989 473.788 535.38 473.788 517.366V156.131H474.308C476.663 156.131 478.567 154.228 478.567 151.873V91.2274C478.567 88.8727 476.663 86.9692 474.308 86.9692Z" fill="#333343"/>
<path d="M437.799 8.06418H246.777C232.141 8.06418 220.276 19.9292 220.276 34.5654V515.423C220.276 530.059 232.141 541.924 246.777 541.924H437.799C452.436 541.924 464.301 530.059 464.301 515.423V34.5654C464.301 19.9292 452.436 8.06418 437.799 8.06418Z" fill="white"/>
<path d="M281.049 82.3774H246.591C245.286 82.3774 244.226 81.3177 244.226 80.0128C244.226 78.7078 245.286 77.6482 246.591 77.6482H281.049C282.354 77.6482 283.414 78.7078 283.414 80.0128C283.414 81.3177 282.354 82.3774 281.049 82.3774Z" fill="#333343"/>
<path d="M333.365 82.3774H298.906C297.601 82.3774 296.542 81.3177 296.542 80.0128C296.542 78.7078 297.601 77.6482 298.906 77.6482H333.365C334.669 77.6482 335.729 78.7078 335.729 80.0128C335.729 81.3177 334.669 82.3774 333.365 82.3774Z" fill="#333343"/>
<path d="M385.67 82.3774H351.212C349.907 82.3774 348.847 81.3177 348.847 80.0128C348.847 78.7078 349.907 77.6482 351.212 77.6482H385.67C386.975 77.6482 388.035 78.7078 388.035 80.0128C388.035 81.3177 386.975 82.3774 385.67 82.3774Z" fill="#333343"/>
<path d="M437.976 82.3774H403.518C402.213 82.3774 401.153 81.3177 401.153 80.0128C401.153 78.7078 402.213 77.6482 403.518 77.6482H437.976C439.281 77.6482 440.341 78.7078 440.341 80.0128C440.341 81.3177 439.281 82.3774 437.976 82.3774Z" fill="#333343"/>
<path d="M318.716 114.51C318.716 116.365 317.264 117.454 314.477 117.454H309.091V106.622H314.173C316.773 106.622 318.166 107.721 318.166 109.438C318.166 110.556 317.607 111.371 316.773 111.822C317.931 112.195 318.726 113.107 318.726 114.52L318.716 114.51ZM311.102 108.192V111.174H313.947C315.341 111.174 316.126 110.684 316.126 109.693C316.126 108.702 315.341 108.192 313.947 108.192H311.102ZM316.695 114.304C316.695 113.225 315.87 112.744 314.359 112.744H311.112V115.874H314.359C315.88 115.874 316.695 115.393 316.695 114.314V114.304Z" fill="#333343"/>
<path d="M327.605 112.607V117.454H325.78V116.443C325.319 117.16 324.416 117.562 323.18 117.562C321.296 117.562 320.099 116.522 320.099 115.089C320.099 113.657 321.031 112.627 323.533 112.627H325.672V112.499C325.672 111.371 324.995 110.703 323.612 110.703C322.68 110.703 321.728 111.017 321.1 111.528L320.344 110.115C321.227 109.438 322.513 109.094 323.847 109.094C326.231 109.094 327.605 110.223 327.605 112.607ZM325.672 114.864V113.902H323.671C322.356 113.902 322.003 114.393 322.003 115.001C322.003 115.698 322.591 116.149 323.582 116.149C324.573 116.149 325.348 115.717 325.672 114.864Z" fill="#333343"/>
<path d="M338.221 112.715V117.454H336.288V112.96C336.288 111.488 335.562 110.782 334.326 110.782C332.952 110.782 332.02 111.616 332.02 113.274V117.454H330.087V109.193H331.932V110.262C332.57 109.506 333.571 109.104 334.777 109.104C336.759 109.104 338.231 110.233 338.231 112.725L338.221 112.715Z" fill="#333343"/>
<path d="M344.069 113.902L342.627 115.266V117.444H340.694V105.955H342.627V112.891L346.64 109.173H348.965L345.511 112.636L349.289 117.434H346.934L344.069 113.892V113.902Z" fill="#333343"/>
<path d="M364.065 110.468C364.065 112.852 362.299 114.324 359.453 114.324H357.01V117.454H354.999V106.622H359.453C362.299 106.622 364.065 108.074 364.065 110.478V110.468ZM362.034 110.468C362.034 109.104 361.121 108.319 359.355 108.319H357.001V112.627H359.355C361.121 112.627 362.034 111.842 362.034 110.478V110.468Z" fill="#333343"/>
<path d="M372.739 112.607V117.454H370.914V116.443C370.452 117.16 369.55 117.562 368.314 117.562C366.43 117.562 365.233 116.522 365.233 115.089C365.233 113.657 366.165 112.627 368.667 112.627H370.806V112.499C370.806 111.371 370.129 110.703 368.745 110.703C367.813 110.703 366.861 111.017 366.233 111.528L365.478 110.115C366.361 109.438 367.646 109.094 368.981 109.094C371.365 109.094 372.739 110.223 372.739 112.607ZM370.806 114.864V113.902H368.804C367.489 113.902 367.136 114.393 367.136 115.001C367.136 115.698 367.725 116.149 368.716 116.149C369.707 116.149 370.482 115.717 370.806 114.864Z" fill="#333343"/>
<path d="M382.805 109.183L378.939 118.111C378.184 119.985 377.124 120.554 375.751 120.554C374.926 120.554 374.063 120.28 373.533 119.799L374.308 118.376C374.681 118.729 375.211 118.945 375.731 118.945C376.408 118.945 376.81 118.621 377.183 117.797L377.32 117.474L373.71 109.173H375.721L378.321 115.286L380.941 109.173H382.795L382.805 109.183Z" fill="#333343"/>
<path d="M286.956 143.288L287.387 142.366C287.996 142.915 289.045 143.317 290.105 143.317C291.528 143.317 292.136 142.768 292.136 142.052C292.136 140.04 287.152 141.306 287.152 138.255C287.152 136.989 288.143 135.9 290.301 135.9C291.263 135.9 292.264 136.155 292.951 136.626L292.558 137.568C291.842 137.107 291.027 136.901 290.301 136.901C288.898 136.901 288.3 137.489 288.3 138.205C288.3 140.217 293.284 138.961 293.284 141.983C293.284 143.239 292.274 144.328 290.095 144.328C288.839 144.328 287.603 143.906 286.946 143.298L286.956 143.288Z" fill="#C90000"/>
<path d="M294.275 141.11C294.275 139.255 295.649 137.931 297.572 137.931C298.69 137.931 299.622 138.392 300.113 139.255L299.25 139.805C298.847 139.196 298.239 138.912 297.552 138.912C296.326 138.912 295.413 139.775 295.413 141.1C295.413 142.424 296.336 143.298 297.552 143.298C298.239 143.298 298.847 143.013 299.25 142.405L300.113 142.944C299.622 143.818 298.69 144.289 297.572 144.289C295.649 144.289 294.275 142.954 294.275 141.1V141.11Z" fill="#C90000"/>
<path d="M306.52 140.462V144.23H305.451V143.406C305.078 143.975 304.381 144.299 303.4 144.299C301.987 144.299 301.094 143.543 301.094 142.464C301.094 141.463 301.742 140.639 303.596 140.639H305.382V140.413C305.382 139.461 304.832 138.902 303.714 138.902C302.968 138.902 302.223 139.157 301.732 139.569L301.261 138.726C301.909 138.205 302.841 137.921 303.841 137.921C305.549 137.921 306.51 138.745 306.51 140.452L306.52 140.462ZM305.392 142.317V141.443H303.655C302.537 141.443 302.223 141.875 302.223 142.405C302.223 143.033 302.743 143.415 303.596 143.415C304.45 143.415 305.117 143.023 305.392 142.307V142.317Z" fill="#C90000"/>
<path d="M314.536 140.639V144.23H313.408V140.766C313.408 139.54 312.799 138.941 311.73 138.941C310.533 138.941 309.748 139.658 309.748 141.012V144.22H308.62V137.98H309.699V138.922C310.16 138.284 310.955 137.921 311.946 137.921C313.467 137.921 314.536 138.794 314.536 140.629V140.639Z" fill="#C90000"/>
<path d="M331.598 135.998L328.841 144.24H327.605L325.358 137.666L323.111 144.24H321.855L319.098 135.998H320.315L322.542 142.689L324.858 135.998H325.937L328.204 142.729L330.47 135.998H331.589H331.598Z" fill="#C90000"/>
<path d="M332.697 136.067C332.697 135.654 333.031 135.321 333.463 135.321C333.894 135.321 334.228 135.635 334.228 136.037C334.228 136.459 333.914 136.793 333.463 136.793C333.011 136.793 332.697 136.479 332.697 136.067ZM332.893 137.999H334.022V144.24H332.893V137.999Z" fill="#C90000"/>
<path d="M339.683 143.867C339.34 144.161 338.82 144.298 338.319 144.298C337.064 144.298 336.337 143.602 336.337 142.346V138.922H335.278V137.99H336.337V136.626H337.466V137.99H339.252V138.922H337.466V142.297C337.466 142.964 337.819 143.347 338.447 143.347C338.781 143.347 339.095 143.239 339.33 143.052L339.683 143.867Z" fill="#C90000"/>
<path d="M346.973 140.639V144.23H345.845V140.766C345.845 139.54 345.237 138.941 344.167 138.941C342.97 138.941 342.185 139.658 342.185 141.012V144.22H341.057V135.488H342.185V138.863C342.656 138.264 343.431 137.921 344.383 137.921C345.904 137.921 346.973 138.794 346.973 140.629V140.639Z" fill="#C90000"/>
<path d="M351.732 140.119C351.732 137.685 353.596 135.91 356.098 135.91C357.364 135.91 358.473 136.341 359.228 137.195L358.463 137.931C357.825 137.264 357.05 136.95 356.147 136.95C354.283 136.95 352.909 138.294 352.909 140.119C352.909 141.944 354.283 143.288 356.147 143.288C357.05 143.288 357.825 142.974 358.463 142.297L359.228 143.033C358.473 143.877 357.364 144.328 356.088 144.328C353.596 144.328 351.732 142.552 351.732 140.119Z" fill="#C90000"/>
<path d="M365.606 140.462V144.23H364.536V143.406C364.163 143.975 363.467 144.299 362.485 144.299C361.073 144.299 360.18 143.543 360.18 142.464C360.18 141.463 360.827 140.639 362.682 140.639H364.467V140.413C364.467 139.461 363.918 138.902 362.799 138.902C362.054 138.902 361.308 139.157 360.817 139.569L360.346 138.726C360.994 138.205 361.926 137.921 362.927 137.921C364.634 137.921 365.596 138.745 365.596 140.452L365.606 140.462ZM364.477 142.317V141.443H362.741C361.622 141.443 361.308 141.875 361.308 142.405C361.308 143.033 361.828 143.415 362.682 143.415C363.535 143.415 364.202 143.023 364.477 142.307V142.317Z" fill="#C90000"/>
<path d="M378.066 140.639V144.23H376.938V140.766C376.938 139.54 376.349 138.941 375.329 138.941C374.201 138.941 373.455 139.658 373.455 141.012V144.22H372.327V140.757C372.327 139.53 371.738 138.932 370.717 138.932C369.589 138.932 368.843 139.648 368.843 141.002V144.21H367.715V137.97H368.794V138.902C369.246 138.264 370.011 137.911 370.943 137.911C371.875 137.911 372.699 138.284 373.111 139.059C373.582 138.353 374.456 137.911 375.515 137.911C377.036 137.911 378.066 138.784 378.066 140.619V140.639Z" fill="#C90000"/>
<path d="M385.798 141.492H380.735C380.872 142.591 381.755 143.317 382.992 143.317C383.718 143.317 384.336 143.072 384.787 142.562L385.415 143.288C384.846 143.945 383.993 144.299 382.953 144.299C380.941 144.299 379.597 142.964 379.597 141.11C379.597 139.255 380.921 137.931 382.727 137.931C384.532 137.931 385.808 139.226 385.808 141.139C385.808 141.237 385.798 141.375 385.788 141.483L385.798 141.492ZM380.735 140.678H384.738C384.62 139.628 383.836 138.892 382.737 138.892C381.638 138.892 380.853 139.618 380.735 140.678Z" fill="#C90000"/>
<path d="M390.753 137.941V139.039C390.655 139.03 390.576 139.03 390.498 139.03C389.281 139.03 388.535 139.775 388.535 141.139V144.249H387.407V138.009H388.486V139.059C388.889 138.333 389.664 137.95 390.753 137.95V137.941Z" fill="#C90000"/>
<path d="M397.071 140.462V144.23H396.002V143.406C395.629 143.975 394.932 144.299 393.951 144.299C392.538 144.299 391.646 143.543 391.646 142.464C391.646 141.463 392.293 140.639 394.147 140.639H395.933V140.413C395.933 139.461 395.384 138.902 394.265 138.902C393.52 138.902 392.774 139.157 392.283 139.569L391.812 138.726C392.46 138.205 393.392 137.921 394.393 137.921C396.1 137.921 397.062 138.745 397.062 140.452L397.071 140.462ZM395.943 142.317V141.443H394.206C393.088 141.443 392.774 141.875 392.774 142.405C392.774 143.033 393.294 143.415 394.147 143.415C395.001 143.415 395.668 143.023 395.943 142.307V142.317Z" fill="#C90000"/>
<path d="M407.02 177.972H277.556C269.84 177.972 263.584 184.227 263.584 191.944V375.745C263.584 383.461 269.84 389.716 277.556 389.716H407.02C414.737 389.716 420.992 383.461 420.992 375.745V191.944C420.992 184.227 414.737 177.972 407.02 177.972Z" fill="#D5DDFD"/>
<path d="M304.626 247.311V270.937H328.253V247.311H304.626ZM323.121 265.806H309.768V252.452H323.121V265.806Z" fill="#333343"/>
<path d="M319.265 261.95V256.298H313.614V261.95H319.265Z" fill="#333343"/>
<path d="M356.088 247.311V270.937H379.715V247.311H356.088ZM374.583 265.806H361.23V252.452H374.583V265.806Z" fill="#333343"/>
<path d="M370.727 261.95V256.298H365.076V261.95H370.727Z" fill="#333343"/>
<path d="M304.587 296.349V319.975H328.214V296.349H304.587ZM323.082 314.844H309.728V301.49H323.082V314.844Z" fill="#333343"/>
<path d="M319.236 310.998V305.346H313.584V310.998H319.236Z" fill="#333343"/>
<path d="M309.728 275.607H304.587V291.463H309.728V275.607Z" fill="#333343"/>
<path d="M328.223 275.607H323.082V286.204H328.223V275.607Z" fill="#333343"/>
<path d="M352.242 247.291H343.441V252.432H352.242V247.291Z" fill="#333343"/>
<path d="M379.852 274.842H371.051V279.983H379.852V274.842Z" fill="#333343"/>
<path d="M371.051 310.988H360.906V316.129H371.051V310.988Z" fill="#333343"/>
<path d="M379.911 315.04H374.77V320.181H379.911V315.04Z" fill="#333343"/>
<path d="M376.192 303.61H371.051V308.427H376.192V303.61Z" fill="#333343"/>
<path d="M350.829 296.349V305.15H355.971V296.349H350.829Z" fill="#333343"/>
<path d="M347.229 282.672V291.473H352.37V282.672H347.229Z" fill="#333343"/>
<path d="M332.717 252.432V261.675H337.986V252.432H332.717Z" fill="#333343"/>
<path d="M313.575 275.862V281.004H318.716V275.862H313.575Z" fill="#333343"/>
<path d="M333.1 265.717V270.859H338.241V265.717H333.1Z" fill="#333343"/>
<path d="M368.804 289.157V294.298H379.911V289.157H368.804Z" fill="#333343"/>
<path d="M340.027 286.008V291.149H345.168V286.008H340.027Z" fill="#333343"/>
<path d="M360.906 316.129V319.985H366.047V316.129H360.906Z" fill="#333343"/>
<path d="M307.158 281.965V287.107H312.299V281.965H307.158Z" fill="#333343"/>
<path d="M355.961 310.988H347.229V316.129H355.961V310.988Z" fill="#333343"/>
<path d="M374.711 301.481V311.753H379.98V301.481H374.711Z" fill="#333343"/>
<path d="M371.247 296.339V301.481H379.98V296.339H371.247Z" fill="#333343"/>
<path d="M342.853 256.416V265.658H348.121V256.416H342.853Z" fill="#333343"/>
<path d="M352.232 256.475H332.717V261.675H352.232V256.475Z" fill="#333343"/>
<path d="M337.976 286.204H318.461V291.404H337.976V286.204Z" fill="#333343"/>
<path d="M361.357 279.915L361.23 274.773H355.961L356.088 279.915V285.115H361.357H375.613V279.915H361.357Z" fill="#333343"/>
<path d="M361.23 294.171L356.088 294.043V288.775L361.23 288.902H366.43V294.171V308.417H361.23V294.171Z" fill="#333343"/>
<path d="M347.356 275.607L347.483 270.476H352.752L352.625 275.607V280.808H347.356H333.1V275.607H347.356Z" fill="#333343"/>
<path d="M332.59 296.349V301.49H342.097V314.844H332.59V319.985H347.229V296.359H332.59V296.349Z" fill="#333343"/>
<path d="M338.241 305.337H332.59V310.988H338.241V305.337Z" fill="#333343"/>
<path d="M312.534 239.609H299.809H296.954V242.464V255.199H299.809V242.464H312.534V239.609Z" fill="#333343"/>
<path d="M387.397 255.199V242.464V239.609H384.542H371.806V242.464H384.542V255.199H387.397Z" fill="#333343"/>
<path d="M312.76 328.07H300.025H297.169V325.225V312.489H300.025V325.225H312.76V328.07Z" fill="#333343"/>
<path d="M387.613 312.489V325.225V328.07H384.758H372.032V325.225H384.758V312.489H387.613Z" fill="#333343"/>
<path d="M411.75 431.71L412.377 432.328C411.759 433.035 410.827 433.408 409.758 433.408C408.031 433.408 406.657 432.377 406.245 430.847H405.127V430.297H406.147C406.137 430.17 406.127 430.032 406.127 429.895C406.127 429.758 406.128 429.62 406.147 429.493H405.127V428.943H406.245C406.657 427.413 408.031 426.382 409.758 426.382C410.827 426.382 411.759 426.745 412.377 427.452L411.75 428.07C411.22 427.511 410.562 427.256 409.807 427.256C408.6 427.256 407.648 427.933 407.285 428.943H410.396V429.493H407.148C407.128 429.62 407.118 429.758 407.118 429.895C407.118 430.032 407.128 430.17 407.148 430.297H410.396V430.847H407.285C407.648 431.857 408.6 432.534 409.807 432.534C410.562 432.534 411.22 432.269 411.75 431.71Z" fill="#333343"/>
<path d="M418 426.471V433.339H417.028V427.324H415.478V426.471H418Z" fill="#333343"/>
<path d="M424.318 432.475V433.329H419.383V432.662L422.179 429.964C422.905 429.257 423.043 428.826 423.043 428.394C423.043 427.687 422.542 427.256 421.581 427.256C420.845 427.256 420.246 427.491 419.824 428.001L419.157 427.422C419.687 426.765 420.6 426.382 421.669 426.382C423.101 426.382 424.024 427.118 424.024 428.296C424.024 428.963 423.828 429.561 422.895 430.454L420.796 432.475H424.318Z" fill="#333343"/>
<path d="M425.103 429.895C425.103 427.658 426.3 426.382 427.909 426.382C429.518 426.382 430.706 427.658 430.706 429.895C430.706 432.132 429.509 433.408 427.909 433.408C426.31 433.408 425.103 432.132 425.103 429.895ZM429.725 429.895C429.725 428.139 428.979 427.256 427.909 427.256C426.84 427.256 426.084 428.139 426.084 429.895C426.084 431.651 426.83 432.534 427.909 432.534C428.989 432.534 429.725 431.651 429.725 429.895Z" fill="#333343"/>
<path d="M431.51 432.711C431.51 432.318 431.814 432.044 432.177 432.044C432.54 432.044 432.825 432.318 432.825 432.711C432.825 433.103 432.531 433.388 432.177 433.388C431.824 433.388 431.51 433.103 431.51 432.711Z" fill="#333343"/>
<path d="M433.639 429.895C433.639 427.658 434.836 426.382 436.445 426.382C438.054 426.382 439.242 427.658 439.242 429.895C439.242 432.132 438.045 433.408 436.445 433.408C434.846 433.408 433.639 432.132 433.639 429.895ZM438.26 429.895C438.26 428.139 437.515 427.256 436.445 427.256C435.376 427.256 434.62 428.139 434.62 429.895C434.62 431.651 435.366 432.534 436.445 432.534C437.525 432.534 438.26 431.651 438.26 429.895Z" fill="#333343"/>
<path d="M440.184 429.895C440.184 427.658 441.381 426.382 442.99 426.382C444.599 426.382 445.786 427.658 445.786 429.895C445.786 432.132 444.589 433.408 442.99 433.408C441.39 433.408 440.184 432.132 440.184 429.895ZM444.805 429.895C444.805 428.139 444.059 427.256 442.99 427.256C441.92 427.256 441.165 428.139 441.165 429.895C441.165 431.651 441.91 432.534 442.99 432.534C444.069 432.534 444.805 431.651 444.805 429.895Z" fill="#333343"/>
<path d="M246.296 449.332C246.296 450.823 245.217 451.726 243.431 451.726H241.734V453.806H240.753V446.938H243.431C245.217 446.938 246.296 447.84 246.296 449.332ZM245.315 449.332C245.315 448.351 244.658 447.791 243.402 447.791H241.734V450.872H243.402C244.658 450.872 245.315 450.313 245.315 449.332Z" fill="#333343"/>
<path d="M250.319 448.557V449.469C250.241 449.469 250.172 449.469 250.103 449.469C249.093 449.469 248.465 450.087 248.465 451.226V453.816H247.523V448.616H248.425V449.489C248.759 448.881 249.407 448.567 250.319 448.567V448.557Z" fill="#333343"/>
<path d="M250.947 451.206C250.947 449.656 252.095 448.557 253.655 448.557C255.215 448.557 256.353 449.656 256.353 451.206C256.353 452.756 255.215 453.865 253.655 453.865C252.095 453.865 250.947 452.756 250.947 451.206ZM255.401 451.206C255.401 450.097 254.656 449.381 253.655 449.381C252.654 449.381 251.899 450.097 251.899 451.206C251.899 452.315 252.654 453.041 253.655 453.041C254.656 453.041 255.401 452.315 255.401 451.206Z" fill="#333343"/>
<path d="M262.564 446.526V453.806H261.661V452.982C261.239 453.57 260.572 453.865 259.807 453.865C258.286 453.865 257.177 452.795 257.177 451.206C257.177 449.616 258.286 448.557 259.807 448.557C260.543 448.557 261.19 448.831 261.622 449.391V446.526H262.564ZM261.632 451.206C261.632 450.097 260.876 449.381 259.885 449.381C258.894 449.381 258.129 450.097 258.129 451.206C258.129 452.315 258.884 453.041 259.885 453.041C260.886 453.041 261.632 452.315 261.632 451.206Z" fill="#333343"/>
<path d="M269.197 448.606V453.806H268.304V453.021C267.921 453.561 267.273 453.865 266.538 453.865C265.193 453.865 264.301 453.129 264.301 451.598V448.606H265.242V451.49C265.242 452.511 265.753 453.021 266.646 453.021C267.627 453.021 268.255 452.413 268.255 451.294V448.606H269.197Z" fill="#333343"/>
<path d="M270.511 451.206C270.511 449.656 271.659 448.557 273.258 448.557C274.191 448.557 274.966 448.939 275.378 449.665L274.662 450.127C274.328 449.616 273.818 449.381 273.249 449.381C272.228 449.381 271.463 450.097 271.463 451.206C271.463 452.315 272.228 453.041 273.249 453.041C273.818 453.041 274.328 452.805 274.662 452.295L275.378 452.746C274.966 453.472 274.191 453.865 273.258 453.865C271.659 453.865 270.511 452.756 270.511 451.206Z" fill="#333343"/>
<path d="M279.587 453.502C279.302 453.747 278.871 453.865 278.449 453.865C277.399 453.865 276.801 453.286 276.801 452.236V449.381H275.917V448.606H276.801V447.468H277.742V448.606H279.234V449.381H277.742V452.197C277.742 452.756 278.037 453.07 278.557 453.07C278.832 453.07 279.096 452.982 279.293 452.825L279.587 453.502Z" fill="#333343"/>
<path d="M283.502 446.938H284.483V453.806H283.502V446.938Z" fill="#333343"/>
<path d="M286.543 446.938H289.438C291.646 446.938 293.147 448.331 293.147 450.372C293.147 452.413 291.646 453.806 289.438 453.806H286.543V446.938ZM289.379 452.952C291.076 452.952 292.166 451.912 292.166 450.372C292.166 448.831 291.076 447.791 289.379 447.791H287.525V452.952H289.379Z" fill="#333343"/>
<path d="M356.736 446.938V453.806H355.931L351.811 448.684V453.806H350.829V446.938H351.634L355.755 452.059V446.938H356.736Z" fill="#333343"/>
<path d="M358.188 451.206C358.188 449.656 359.336 448.557 360.896 448.557C362.456 448.557 363.594 449.656 363.594 451.206C363.594 452.756 362.456 453.865 360.896 453.865C359.336 453.865 358.188 452.756 358.188 451.206ZM362.642 451.206C362.642 450.097 361.897 449.381 360.896 449.381C359.895 449.381 359.14 450.097 359.14 451.206C359.14 452.315 359.895 453.041 360.896 453.041C361.897 453.041 362.642 452.315 362.642 451.206Z" fill="#333343"/>
<path d="M369.354 448.606L367.077 453.806H366.116L363.84 448.606H364.821L366.606 452.776L368.431 448.606H369.354Z" fill="#333343"/>
<path d="M374.191 450.666V453.806H373.298V453.119C372.984 453.59 372.405 453.865 371.591 453.865C370.413 453.865 369.668 453.237 369.668 452.334C369.668 451.5 370.207 450.813 371.758 450.813H373.249V450.627C373.249 449.832 372.788 449.371 371.856 449.371C371.238 449.371 370.61 449.587 370.207 449.93L369.815 449.224C370.355 448.792 371.13 448.557 371.964 448.557C373.386 448.557 374.191 449.244 374.191 450.666ZM373.249 452.216V451.49H371.797C370.865 451.49 370.6 451.853 370.6 452.295C370.6 452.815 371.032 453.139 371.748 453.139C372.464 453.139 373.013 452.815 373.249 452.216Z" fill="#333343"/>
<path d="M375.937 446.526H376.879V453.806H375.937V446.526Z" fill="#333343"/>
<path d="M383.6 450.813V453.806H382.658V450.921C382.658 449.901 382.148 449.401 381.255 449.401C380.254 449.401 379.607 449.999 379.607 451.127V453.806H378.665V448.606H379.567V449.391C379.95 448.861 380.617 448.557 381.441 448.557C382.707 448.557 383.6 449.283 383.6 450.813Z" fill="#333343"/>
<path d="M390.066 451.52H385.847C385.965 452.432 386.701 453.041 387.731 453.041C388.339 453.041 388.849 452.835 389.232 452.413L389.752 453.021C389.281 453.57 388.565 453.865 387.701 453.865C386.024 453.865 384.905 452.756 384.905 451.206C384.905 449.656 386.014 448.557 387.515 448.557C389.016 448.557 390.086 449.636 390.086 451.235C390.086 451.314 390.086 451.432 390.066 451.52ZM385.847 450.843H389.183C389.085 449.97 388.427 449.352 387.515 449.352C386.602 449.352 385.945 449.96 385.847 450.843Z" fill="#333343"/>
<path d="M394.314 453.502C394.03 453.747 393.598 453.865 393.176 453.865C392.126 453.865 391.528 453.286 391.528 452.236V449.381H390.645V448.606H391.528V447.468H392.47V448.606H393.961V449.381H392.47V452.197C392.47 452.756 392.764 453.07 393.284 453.07C393.559 453.07 393.824 452.982 394.02 452.825L394.314 453.502Z" fill="#333343"/>
<path d="M399.593 447.791H397.238V446.938H402.919V447.791H400.564V453.806H399.593V447.791Z" fill="#333343"/>
<path d="M407.992 451.52H403.773C403.89 452.432 404.626 453.041 405.657 453.041C406.265 453.041 406.775 452.835 407.158 452.413L407.678 453.021C407.207 453.57 406.491 453.865 405.627 453.865C403.949 453.865 402.831 452.756 402.831 451.206C402.831 449.656 403.94 448.557 405.441 448.557C406.942 448.557 408.011 449.636 408.011 451.235C408.011 451.314 408.011 451.432 407.992 451.52ZM403.773 450.843H407.109C407.011 449.97 406.353 449.352 405.441 449.352C404.528 449.352 403.871 449.96 403.773 450.843Z" fill="#333343"/>
<path d="M408.659 453.257L409.051 452.511C409.493 452.825 410.199 453.05 410.876 453.05C411.75 453.05 412.113 452.786 412.113 452.344C412.113 451.176 408.826 452.187 408.826 450.117C408.826 449.185 409.66 448.557 410.994 448.557C411.671 448.557 412.436 448.733 412.888 449.028L412.485 449.773C412.015 449.469 411.494 449.361 410.984 449.361C410.16 449.361 409.758 449.665 409.758 450.078C409.758 451.304 413.055 450.303 413.055 452.324C413.055 453.266 412.191 453.865 410.808 453.865C409.944 453.865 409.091 453.6 408.659 453.257Z" fill="#333343"/>
<path d="M417.156 453.502C416.871 453.747 416.44 453.865 416.018 453.865C414.968 453.865 414.369 453.286 414.369 452.236V449.381H413.486V448.606H414.369V447.468H415.311V448.606H416.803V449.381H415.311V452.197C415.311 452.756 415.606 453.07 416.126 453.07C416.4 453.07 416.665 452.982 416.862 452.825L417.156 453.502Z" fill="#333343"/>
<path d="M420.315 451.382L419.236 452.383V453.806H418.294V446.526H419.236V451.196L422.071 448.606H423.21L421.022 450.755L423.425 453.806H422.268L420.315 451.382Z" fill="#333343"/>
<path d="M423.641 451.206C423.641 449.656 424.789 448.557 426.349 448.557C427.909 448.557 429.048 449.656 429.048 451.206C429.048 452.756 427.909 453.865 426.349 453.865C424.789 453.865 423.641 452.756 423.641 451.206ZM428.096 451.206C428.096 450.097 427.35 449.381 426.349 449.381C425.349 449.381 424.593 450.097 424.593 451.206C424.593 452.315 425.349 453.041 426.349 453.041C427.35 453.041 428.096 452.315 428.096 451.206Z" fill="#333343"/>
<path d="M435.278 450.813V453.806H434.336V450.921C434.336 449.901 433.826 449.401 432.933 449.401C431.932 449.401 431.285 449.999 431.285 451.127V453.806H430.343V448.606H431.245V449.391C431.628 448.861 432.295 448.557 433.119 448.557C434.385 448.557 435.278 449.283 435.278 450.813Z" fill="#333343"/>
<path d="M439.958 453.502C439.674 453.747 439.242 453.865 438.82 453.865C437.77 453.865 437.172 453.286 437.172 452.236V449.381H436.289V448.606H437.172V447.468H438.114V448.606H439.605V449.381H438.114V452.197C438.114 452.756 438.408 453.07 438.928 453.07C439.203 453.07 439.468 452.982 439.664 452.825L439.958 453.502Z" fill="#333343"/>
<path d="M440.439 451.206C440.439 449.656 441.587 448.557 443.147 448.557C444.707 448.557 445.845 449.656 445.845 451.206C445.845 452.756 444.707 453.865 443.147 453.865C441.587 453.865 440.439 452.756 440.439 451.206ZM444.893 451.206C444.893 450.097 444.148 449.381 443.147 449.381C442.146 449.381 441.391 450.097 441.391 451.206C441.391 452.315 442.146 453.041 443.147 453.041C444.148 453.041 444.893 452.315 444.893 451.206Z" fill="#333343"/>
<path d="M242.126 469.21H239.771V468.357H245.452V469.21H243.098V475.225H242.126V469.21Z" fill="#333343"/>
<path d="M250.231 472.085V475.225H249.338V474.538C249.024 475.009 248.445 475.284 247.631 475.284C246.453 475.284 245.708 474.656 245.708 473.753C245.708 472.919 246.247 472.232 247.797 472.232H249.289V472.046C249.289 471.251 248.828 470.79 247.896 470.79C247.277 470.79 246.649 471.006 246.247 471.349L245.855 470.643C246.394 470.211 247.169 469.975 248.003 469.975C249.426 469.975 250.231 470.662 250.231 472.085ZM249.289 473.635V472.909H247.837C246.905 472.909 246.64 473.272 246.64 473.714C246.64 474.234 247.071 474.558 247.788 474.558C248.504 474.558 249.053 474.234 249.289 473.635Z" fill="#333343"/>
<path d="M254.773 469.975V470.888C254.695 470.888 254.626 470.888 254.558 470.888C253.547 470.888 252.919 471.506 252.919 472.644V475.234H251.977V470.034H252.88V470.908C253.213 470.299 253.861 469.985 254.773 469.985V469.975Z" fill="#333343"/>
<path d="M255.764 468.415C255.764 468.072 256.039 467.797 256.402 467.797C256.765 467.797 257.04 468.062 257.04 468.396C257.04 468.749 256.775 469.024 256.402 469.024C256.029 469.024 255.764 468.759 255.764 468.415ZM255.931 470.025H256.873V475.225H255.931V470.025Z" fill="#333343"/>
<path d="M259.728 469.573V470.025H261.239V470.8H259.748V475.225H258.806V470.8H257.923V470.025H258.806V469.563C258.806 468.553 259.414 467.886 260.523 467.886C260.925 467.886 261.318 467.984 261.583 468.19L261.298 468.906C261.102 468.759 260.847 468.661 260.572 468.661C260.013 468.661 259.728 468.975 259.728 469.573Z" fill="#333343"/>
<path d="M267.852 472.232V475.225H266.91V472.34C266.91 471.32 266.4 470.819 265.507 470.819C264.506 470.819 263.859 471.418 263.859 472.546V475.225H262.917V470.025H263.82V470.809C264.202 470.28 264.87 469.975 265.694 469.975C266.959 469.975 267.852 470.702 267.852 472.232Z" fill="#333343"/>
<path d="M274.446 470.025V475.225H273.553V474.44C273.17 474.979 272.523 475.284 271.787 475.284C270.443 475.284 269.55 474.548 269.55 473.017V470.025H270.492V472.909C270.492 473.93 271.002 474.44 271.895 474.44C272.876 474.44 273.504 473.831 273.504 472.713V470.025H274.446Z" fill="#333343"/>
<path d="M284.866 472.232V475.225H283.924V472.34C283.924 471.32 283.433 470.819 282.58 470.819C281.638 470.819 281.02 471.418 281.02 472.546V475.225H280.078V472.34C280.078 471.32 279.587 470.819 278.733 470.819C277.791 470.819 277.173 471.418 277.173 472.546V475.225H276.231V470.025H277.134V470.8C277.507 470.27 278.145 469.975 278.93 469.975C279.715 469.975 280.392 470.289 280.735 470.937C281.127 470.348 281.853 469.975 282.737 469.975C284.002 469.975 284.866 470.702 284.866 472.232Z" fill="#333343"/>
<path d="M295.237 472.232V475.225H294.295V472.34C294.295 471.32 293.804 470.819 292.95 470.819C292.008 470.819 291.39 471.418 291.39 472.546V475.225H290.448V472.34C290.448 471.32 289.958 470.819 289.104 470.819C288.162 470.819 287.544 471.418 287.544 472.546V475.225H286.602V470.025H287.505V470.8C287.878 470.27 288.516 469.975 289.3 469.975C290.085 469.975 290.762 470.289 291.106 470.937C291.498 470.348 292.224 469.975 293.107 469.975C294.373 469.975 295.237 470.702 295.237 472.232Z" fill="#333343"/>
<path d="M301.693 472.939H297.474C297.591 473.851 298.327 474.459 299.357 474.459C299.966 474.459 300.476 474.253 300.859 473.831L301.379 474.44C300.908 474.989 300.191 475.284 299.328 475.284C297.65 475.284 296.532 474.175 296.532 472.625C296.532 471.074 297.64 469.975 299.142 469.975C300.643 469.975 301.712 471.055 301.712 472.654C301.712 472.733 301.712 472.85 301.693 472.939ZM297.474 472.262H300.81C300.711 471.388 300.054 470.77 299.142 470.77C298.229 470.77 297.572 471.379 297.474 472.262Z" fill="#333343"/>
<path d="M305.813 469.975V470.888C305.735 470.888 305.666 470.888 305.598 470.888C304.587 470.888 303.959 471.506 303.959 472.644V475.234H303.017V470.034H303.92V470.908C304.253 470.299 304.901 469.985 305.813 469.985V469.975Z" fill="#333343"/>
<path d="M385.592 468.357V475.225H384.787L380.666 470.103V475.225H379.685V468.357H380.49L384.611 473.478V468.357H385.592Z" fill="#333343"/>
<path d="M387.044 472.625C387.044 471.074 388.192 469.975 389.752 469.975C391.312 469.975 392.45 471.074 392.45 472.625C392.45 474.175 391.312 475.284 389.752 475.284C388.192 475.284 387.044 474.175 387.044 472.625ZM391.498 472.625C391.498 471.516 390.753 470.8 389.752 470.8C388.751 470.8 387.996 471.516 387.996 472.625C387.996 473.733 388.751 474.459 389.752 474.459C390.753 474.459 391.498 473.733 391.498 472.625Z" fill="#333343"/>
<path d="M398.2 470.025L395.924 475.225H394.962L392.686 470.025H393.667L395.453 474.194L397.278 470.025H398.2Z" fill="#333343"/>
<path d="M403.047 472.085V475.225H402.154V474.538C401.84 475.009 401.261 475.284 400.447 475.284C399.269 475.284 398.524 474.656 398.524 473.753C398.524 472.919 399.063 472.232 400.614 472.232H402.105V472.046C402.105 471.251 401.644 470.79 400.712 470.79C400.094 470.79 399.466 471.006 399.063 471.349L398.671 470.643C399.21 470.211 399.986 469.975 400.82 469.975C402.242 469.975 403.047 470.662 403.047 472.085ZM402.105 473.635V472.909H400.653C399.721 472.909 399.456 473.272 399.456 473.714C399.456 474.234 399.887 474.558 400.604 474.558C401.32 474.558 401.869 474.234 402.105 473.635Z" fill="#333343"/>
<path d="M404.793 467.944H405.735V475.225H404.793V467.944Z" fill="#333343"/>
<path d="M412.456 472.232V475.225H411.514V472.34C411.514 471.32 411.004 470.819 410.111 470.819C409.11 470.819 408.463 471.418 408.463 472.546V475.225H407.521V470.025H408.423V470.809C408.806 470.28 409.473 469.975 410.297 469.975C411.563 469.975 412.456 470.702 412.456 472.232Z" fill="#333343"/>
<path d="M418.912 472.939H414.693C414.811 473.851 415.547 474.459 416.577 474.459C417.185 474.459 417.695 474.253 418.078 473.831L418.598 474.44C418.127 474.989 417.411 475.284 416.548 475.284C414.87 475.284 413.751 474.175 413.751 472.625C413.751 471.074 414.86 469.975 416.361 469.975C417.862 469.975 418.932 471.055 418.932 472.654C418.932 472.733 418.932 472.85 418.912 472.939ZM414.693 472.262H418.029C417.931 471.388 417.274 470.77 416.361 470.77C415.449 470.77 414.791 471.379 414.693 472.262Z" fill="#333343"/>
<path d="M423.17 474.921C422.886 475.166 422.454 475.284 422.032 475.284C420.982 475.284 420.384 474.705 420.384 473.655V470.8H419.501V470.025H420.384V468.886H421.326V470.025H422.817V470.8H421.326V473.616C421.326 474.175 421.62 474.489 422.14 474.489C422.415 474.489 422.68 474.401 422.876 474.244L423.17 474.921Z" fill="#333343"/>
<path d="M428.449 469.21H426.094V468.357H431.775V469.21H429.42V475.225H428.449V469.21Z" fill="#333343"/>
<path d="M436.838 472.939H432.619C432.737 473.851 433.473 474.459 434.503 474.459C435.111 474.459 435.621 474.253 436.004 473.831L436.524 474.44C436.053 474.989 435.337 475.284 434.473 475.284C432.796 475.284 431.677 474.175 431.677 472.625C431.677 471.074 432.786 469.975 434.287 469.975C435.788 469.975 436.858 471.055 436.858 472.654C436.858 472.733 436.858 472.85 436.838 472.939ZM432.619 472.262H435.955C435.857 471.388 435.199 470.77 434.287 470.77C433.374 470.77 432.717 471.379 432.619 472.262Z" fill="#333343"/>
<path d="M437.515 474.675L437.907 473.93C438.349 474.244 439.055 474.469 439.732 474.469C440.606 474.469 440.969 474.204 440.969 473.763C440.969 472.595 437.682 473.606 437.682 471.536C437.682 470.603 438.516 469.975 439.85 469.975C440.527 469.975 441.292 470.152 441.744 470.446L441.341 471.192C440.87 470.888 440.35 470.78 439.84 470.78C439.016 470.78 438.614 471.084 438.614 471.496C438.614 472.723 441.91 471.722 441.91 473.743C441.91 474.685 441.047 475.284 439.664 475.284C438.8 475.284 437.947 475.019 437.515 474.675Z" fill="#333343"/>
<path d="M446.012 474.921C445.727 475.166 445.296 475.284 444.874 475.284C443.824 475.284 443.225 474.705 443.225 473.655V470.8H442.342V470.025H443.225V468.886H444.167V470.025H445.659V470.8H444.167V473.616C444.167 474.175 444.462 474.489 444.982 474.489C445.256 474.489 445.521 474.401 445.717 474.244L446.012 474.921Z" fill="#333343"/>
<path d="M541.145 532.76C541.959 529.866 544.638 527.893 547.65 527.992L550.623 528.09C566.302 531.848 574.475 540.943 577.703 545.407C577.831 545.584 577.713 545.829 577.497 545.849C572.552 546.251 561.053 547.046 551.32 546.771C544.824 546.585 541.361 546.339 539.624 545.623C539.654 540.55 540.35 535.576 541.145 532.76Z" fill="#333343"/>
<path d="M551.212 546.428C544.716 546.241 541.361 545.486 539.624 544.769C539.624 545.417 539.624 546.074 539.644 546.751C539.664 547.477 540.203 548.056 540.87 548.056L576.516 547.831C577.654 547.831 578.321 546.506 577.821 545.456C573.151 545.839 561.239 546.702 551.202 546.428H551.212Z" fill="#333343"/>
<path d="M555.637 517.856L553.145 529.846C552.958 530.729 552.291 531.386 551.467 531.455C550.466 531.553 549.043 531.602 547.611 531.396C546.326 531.21 545.433 529.905 545.658 528.502L547.385 517.856H555.627H555.637Z" fill="url(#paint0_linear_2009_687)"/>
<path d="M504.047 546.428C510.543 546.241 513.898 545.486 515.635 544.769C515.635 545.417 515.635 546.074 515.615 546.751C515.596 547.477 515.056 548.056 514.389 548.056L478.743 547.831C477.605 547.831 476.938 546.506 477.438 545.456C482.109 545.839 494.02 546.702 504.057 546.428H504.047Z" fill="#333343"/>
<path d="M477.429 545.456C477.468 545.368 477.507 545.27 477.566 545.191C480.715 540.796 488.731 532.034 504.577 528.237L512.181 528.001C512.181 528.001 515.566 533.888 515.625 544.779C513.888 545.486 510.533 546.251 504.038 546.437C494 546.722 482.099 545.858 477.419 545.466L477.429 545.456Z" fill="#333343"/>
<path d="M513.594 516.473C513.506 517.042 512.466 525.647 512.063 528.992C511.965 529.787 511.396 530.395 510.67 530.484C509.375 530.641 507.285 530.778 505.45 530.405C504.459 530.199 503.743 529.257 503.743 528.149V514.628L513.594 516.473Z" fill="url(#paint1_linear_2009_687)"/>
<path d="M519.687 359.32C519.687 359.32 501.359 428.992 501.683 516.669C501.683 518.268 502.811 519.652 504.371 519.976C506.677 520.456 510.062 521.035 512.868 520.957C514.369 520.917 515.615 519.809 515.87 518.327C518.441 503.257 533.198 418.327 541.596 404.542C541.596 404.542 547.13 480.18 545.354 519.416C545.315 520.388 546.021 521.241 546.993 521.349C548.465 521.516 550.819 521.653 553.812 521.33C554.95 521.212 555.862 520.348 556.029 519.22C557.864 506.465 568.402 430.523 567.95 375.813C567.921 372.733 559.797 359.31 559.797 359.31H519.677L519.687 359.32Z" fill="#333343"/>
<path d="M449.102 304.434C444.991 282.054 450.554 242.964 450.554 242.964L459.895 250.166C459.895 250.166 460.288 283.614 466.017 296.074C462.25 296.526 454.94 298.204 449.102 304.434Z" fill="url(#paint2_linear_2009_687)"/>
<path d="M466.018 296.074C467.097 298.429 468.333 300.156 469.746 300.921C474.917 303.757 484.944 287.568 492.421 273.527C497.797 263.441 501.859 254.463 501.859 254.463C507.236 248.39 520.551 247.556 532.933 248.331C545.825 249.136 557.697 251.667 558.551 251.853C558.59 251.853 558.6 251.853 558.6 251.853C564.536 252.638 569.687 253.286 573.416 253.767C577.772 254.316 581.746 256.465 584.62 259.791C596.002 272.958 620.972 309.026 591.577 345.358C587.819 343.268 582.472 339.923 578.841 336.047C582.089 326.883 582.364 315.168 575.545 300.794C575.309 301.942 575.025 303.06 574.671 304.179C565.272 333.937 564.771 358.712 564.801 364.412C564.801 365.197 564.34 365.894 563.614 366.178C551.251 371.133 527.448 368.18 519.461 366.993C517.99 366.777 517.009 365.413 517.205 363.941C519.589 346.683 513.084 322.644 506.432 303.816C467.362 342.532 453.41 327.913 449.093 304.424C454.93 298.194 462.24 296.506 466.008 296.065L466.018 296.074Z" fill="#5264AE"/>
<path d="M557.001 361.037C560.395 359.134 573.553 350.961 578.841 336.057C582.472 339.932 587.819 343.278 591.577 345.368C585.955 352.315 578.36 359.271 568.294 366.07C567.941 373.812 561.985 376.687 560.621 379.189C559.257 381.7 561.19 381.121 560.337 384.281C559.473 387.43 550.446 379.267 548.298 377.403C546.149 375.539 547.434 370.378 547.434 370.378C547.434 370.378 547.287 369.298 546.718 367.15C546.149 365.001 556.961 361.047 557.001 361.037Z" fill="url(#paint3_linear_2009_687)"/>
<path d="M552.085 229.503L554.469 253.845C554.469 253.845 540.772 257.966 530.813 250.941L537.819 228.816L552.095 229.503H552.085Z" fill="url(#paint4_linear_2009_687)"/>
<path d="M528.841 208.751C528.675 209.173 527.988 239.098 527.988 239.098L545.08 239.128L549.946 210.86C549.946 210.86 531.559 201.677 528.841 208.751Z" fill="url(#paint5_linear_2009_687)"/>
<path d="M544.089 214.402C544.648 214.922 544.923 215.668 544.854 216.424L543.48 231.288C543.461 231.514 543.412 231.73 543.323 231.946C542.872 233.103 541.126 236.694 537.485 234.703C534.385 233.005 531.51 231.494 529.175 231.416C527.811 231.377 526.693 232.466 526.663 233.829C526.604 236.636 526.614 242.307 527.33 247.34C527.507 248.606 528.635 249.508 529.911 249.43C533.266 249.214 539.811 248.606 545.06 246.918C545.923 246.643 546.561 245.917 546.728 245.025C547.454 241.1 549.524 230.111 550.594 227.099C551.585 224.302 555.421 223.331 557.217 223.027C557.894 222.909 558.492 222.526 558.875 221.948C560.013 220.221 561.651 216.483 557.148 213.647C556.029 212.941 555.706 211.439 556.383 210.311C557.599 208.28 558.482 205.14 554.921 202.462C551.32 199.744 547.827 201.029 545.688 202.393C544.746 203.001 543.47 202.962 542.636 202.207C542.264 201.873 541.753 201.677 541.067 201.853C539.762 202.187 538.457 201.471 538.113 200.166C537.534 197.929 535.955 195.417 531.824 195.191C524.259 194.779 521.591 202.658 522.434 207.829C523.278 212.999 531.51 212.98 535.974 211.488C539.251 210.39 542.578 212.95 544.108 214.393L544.089 214.402Z" fill="#1A2E35"/>
<path d="M549.25 232.338C549.25 232.338 548.945 223.517 552.487 222.163C556.029 220.809 560.347 222.919 557.952 228.767C554.98 236.037 549.24 232.338 549.24 232.338H549.25Z" fill="url(#paint6_linear_2009_687)"/>
<path opacity="0.4" d="M506.147 303.001C506.147 303.001 506.186 303.001 506.196 303.001C506.431 302.972 506.598 302.756 506.569 302.521C506.549 302.334 504.224 283.535 505.49 278.119C505.539 277.884 505.401 277.658 505.166 277.599C504.94 277.54 504.705 277.687 504.646 277.923C503.351 283.486 505.617 301.844 505.715 302.629C505.745 302.844 505.931 303.001 506.137 303.001H506.147Z" fill="black"/>
<path opacity="0.4" d="M576.84 298.733C581.824 285.095 580.019 268.631 579.999 268.464L578.626 268.621C578.645 268.778 580.411 284.938 575.545 298.262L576.84 298.733Z" fill="black"/>
<path d="M453.537 248.115V201.608C453.537 199.93 455.127 198.704 456.755 199.126L473.111 203.463C474.24 203.757 475.015 204.777 475.015 205.945V251.844C475.015 253.492 473.484 254.709 471.885 254.346L455.529 250.617C454.361 250.352 453.537 249.312 453.537 248.115Z" fill="#1A2E35"/>
<path d="M472.464 252.442C472.464 252.442 472.376 252.442 472.326 252.422L455.97 248.704C455.696 248.645 455.5 248.4 455.5 248.115V201.608C455.5 201.235 455.813 201.01 456.098 201.01C456.147 201.01 456.206 201.01 456.255 201.029L472.611 205.366C472.876 205.435 473.062 205.67 473.062 205.945V251.844C473.062 252.216 472.758 252.442 472.464 252.442Z" fill="white"/>
<path d="M459.709 220.584V224.018L462.574 224.656V221.261L459.709 220.574V220.584ZM461.956 223.782L460.337 223.419V221.486L461.956 221.869V223.792V223.782Z" fill="#333343"/>
<path d="M460.798 222.968V222.144L461.485 222.311V223.125L460.798 222.968Z" fill="#333343"/>
<path d="M465.959 222.075V225.411L468.824 226.049V222.752L465.959 222.065V222.075ZM468.206 225.195L466.587 224.832V222.948L468.206 223.331V225.195Z" fill="#333343"/>
<path d="M467.048 224.391V223.596L467.735 223.763V224.548L467.048 224.391Z" fill="#333343"/>
<path d="M459.709 227.717V231.151L462.574 231.7V228.305L459.709 227.717ZM461.956 230.837L460.337 230.523V228.59L461.956 228.924V230.847V230.837Z" fill="#333343"/>
<path d="M460.798 230.062V229.238L461.485 229.375V230.189L460.798 230.062Z" fill="#333343"/>
<path d="M460.327 227.138L459.709 227.001V224.705L460.327 224.842V227.138Z" fill="#333343"/>
<path d="M462.574 226.853L461.946 226.716V225.195L462.574 225.333V226.853Z" fill="#333343"/>
<path d="M464.418 222.438L465.488 222.693V221.957L464.418 221.712V222.438Z" fill="#333343"/>
<path d="M467.774 227.089L468.834 227.315V226.598L467.774 226.363V227.089Z" fill="#333343"/>
<path d="M466.538 231.916L467.774 232.152V231.435L466.538 231.19V231.916Z" fill="#333343"/>
<path d="M468.225 232.809L468.843 232.927V232.211L468.225 232.093V232.809Z" fill="#333343"/>
<path d="M467.774 231.072L468.392 231.2V230.523L467.774 230.395V231.072Z" fill="#333343"/>
<path d="M465.939 230.248V229.002L465.321 228.875V230.121L465.939 230.248Z" fill="#333343"/>
<path d="M465.507 228.217V226.971L464.879 226.844V228.09L465.507 228.217Z" fill="#333343"/>
<path d="M463.761 223.606V222.281L463.123 222.134V223.459L463.761 223.606Z" fill="#333343"/>
<path d="M461.416 225.853V225.117L460.798 224.979V225.725L461.416 225.853Z" fill="#333343"/>
<path d="M463.79 224.92V224.185L463.162 224.047V224.783L463.79 224.92Z" fill="#333343"/>
<path d="M468.843 229.316V228.6L467.499 228.315V229.041L468.843 229.316Z" fill="#333343"/>
<path d="M464.634 227.991V227.265L464.006 227.128V227.864L464.634 227.991Z" fill="#333343"/>
<path d="M467.166 232.574V232.034L466.538 231.916V232.456L467.166 232.574Z" fill="#333343"/>
<path d="M460.641 226.569V225.823L460.023 225.696V226.441L460.641 226.569Z" fill="#333343"/>
<path d="M465.939 231.798L464.879 231.592V230.866L465.939 231.072V231.798Z" fill="#333343"/>
<path d="M468.853 230.317V231.759L468.215 231.632V230.189L468.853 230.317Z" fill="#333343"/>
<path d="M468.853 230.317V229.601L467.793 229.385V230.111L468.853 230.317Z" fill="#333343"/>
<path d="M464.987 224.449V223.135L464.35 222.988V224.302L464.987 224.449Z" fill="#333343"/>
<path d="M463.123 223.459L465.488 223.998V223.262L463.123 222.713V223.459Z" fill="#333343"/>
<path d="M461.386 227.354L463.761 227.844V227.108L461.386 226.598V227.354Z" fill="#333343"/>
<path d="M466.597 226.824L466.577 226.098L465.939 225.951L465.959 226.687V227.422L466.597 227.55L468.323 227.923V227.197L466.597 226.824Z" fill="#333343"/>
<path d="M466.577 228.825L465.959 228.678V227.933L466.577 228.09L467.205 228.217V228.963V230.964L466.577 230.837V228.825Z" fill="#333343"/>
<path d="M464.899 225.843L464.909 225.117L465.547 225.254L465.537 225.98V226.716L464.899 226.579L463.162 226.206V225.46L464.899 225.843Z" fill="#333343"/>
<path d="M463.104 228.413V229.149L464.261 229.385V231.288L463.104 231.063V231.798L464.879 232.142V228.786L463.104 228.423V228.413Z" fill="#333343"/>
<path d="M463.79 229.846V230.65L463.104 230.513V229.699L463.79 229.846Z" fill="#333343"/>
<path d="M460.67 219.701L459.13 219.328L458.777 219.24V219.661V221.516L459.13 221.594V219.74L460.67 220.113V219.701Z" fill="#333343"/>
<path d="M469.756 224.077V222.311V221.908L469.412 221.83L467.862 221.447V221.849L469.412 222.222V223.998L469.756 224.077Z" fill="#333343"/>
<path d="M460.7 232.505L459.15 232.22L458.806 232.161V231.74V229.885L459.15 229.954V231.808L460.7 232.093V232.505Z" fill="#333343"/>
<path d="M469.785 232.034V233.81V234.202L469.432 234.134L467.892 233.849V233.447L469.432 233.741V231.975L469.785 232.034Z" fill="#333343"/>
<path d="M447.395 227.589C449.377 226.853 453.272 220.132 454.008 222.34C454.754 224.557 453.694 227.589 454.008 228.521C454.322 229.463 456.471 234.693 455.509 237.097C454.813 238.833 453.655 244.171 453.076 247.016C452.88 247.958 452.772 249.185 451.81 249.185C450.849 249.185 449.966 247.988 449.77 247.046C449.691 246.663 445.413 228.315 447.395 227.579V227.589Z" fill="url(#paint7_linear_2009_687)"/>
<path d="M245.138 431.612H241.489L240.733 433.329H239.722L242.833 426.461H243.804L246.924 433.329H245.894L245.138 431.612ZM244.795 430.827L243.313 427.462L241.832 430.827H244.795Z" fill="#333343"/>
<path d="M256.432 430.346V433.339H255.49V430.454C255.49 429.434 254.999 428.933 254.145 428.933C253.204 428.933 252.585 429.532 252.585 430.66V433.339H251.644V430.454C251.644 429.434 251.153 428.933 250.299 428.933C249.357 428.933 248.739 429.532 248.739 430.66V433.339H247.797V428.139H248.7V428.914C249.073 428.384 249.711 428.09 250.496 428.09C251.28 428.09 251.957 428.404 252.301 429.051C252.693 428.463 253.419 428.09 254.302 428.09C255.568 428.09 256.432 428.816 256.432 430.346Z" fill="#333343"/>
<path d="M257.727 430.729C257.727 429.179 258.875 428.08 260.435 428.08C261.995 428.08 263.133 429.179 263.133 430.729C263.133 432.279 261.995 433.388 260.435 433.388C258.875 433.388 257.727 432.279 257.727 430.729ZM262.181 430.729C262.181 429.62 261.436 428.904 260.435 428.904C259.434 428.904 258.679 429.62 258.679 430.729C258.679 431.838 259.434 432.564 260.435 432.564C261.436 432.564 262.181 431.838 262.181 430.729Z" fill="#333343"/>
<path d="M269.285 428.139V433.339H268.392V432.554C268.009 433.094 267.362 433.398 266.626 433.398C265.282 433.398 264.389 432.662 264.389 431.131V428.139H265.331V431.023C265.331 432.044 265.841 432.554 266.734 432.554C267.715 432.554 268.343 431.946 268.343 430.827V428.139H269.285Z" fill="#333343"/>
<path d="M276.016 430.346V433.339H275.074V430.454C275.074 429.434 274.563 428.933 273.671 428.933C272.67 428.933 272.022 429.532 272.022 430.66V433.339H271.08V428.139H271.983V428.924C272.366 428.394 273.033 428.09 273.857 428.09C275.123 428.09 276.016 428.816 276.016 430.346Z" fill="#333343"/>
<path d="M280.686 433.025C280.401 433.27 279.97 433.388 279.548 433.388C278.498 433.388 277.899 432.809 277.899 431.759V428.904H277.016V428.129H277.899V426.991H278.841V428.129H280.333V428.904H278.841V431.72C278.841 432.279 279.136 432.593 279.656 432.593C279.93 432.593 280.195 432.505 280.392 432.348L280.686 433.025Z" fill="#333343"/>
</g>
<defs>
<linearGradient id="paint0_linear_2009_687" x1="548.671" y1="506.318" x2="553.733" y2="550.558" gradientUnits="userSpaceOnUse">
<stop stop-color="#FF928E"/>
<stop offset="1" stop-color="#FEB3B1"/>
</linearGradient>
<linearGradient id="paint1_linear_2009_687" x1="507.373" y1="511.047" x2="512.446" y2="555.288" gradientUnits="userSpaceOnUse">
<stop stop-color="#FF928E"/>
<stop offset="1" stop-color="#FEB3B1"/>
</linearGradient>
<linearGradient id="paint2_linear_2009_687" x1="1476.5" y1="713.696" x2="1407.61" y2="684.173" gradientUnits="userSpaceOnUse">
<stop stop-color="#FF928E"/>
<stop offset="1" stop-color="#FEB3B1"/>
</linearGradient>
<linearGradient id="paint3_linear_2009_687" x1="676.123" y1="330.376" x2="623.778" y2="345.132" gradientUnits="userSpaceOnUse">
<stop stop-color="#FF928E"/>
<stop offset="1" stop-color="#FEB3B1"/>
</linearGradient>
<linearGradient id="paint4_linear_2009_687" x1="537.466" y1="222.988" x2="556.824" y2="306.632" gradientUnits="userSpaceOnUse">
<stop stop-color="#FF928E"/>
<stop offset="1" stop-color="#FEB3B1"/>
</linearGradient>
<linearGradient id="paint5_linear_2009_687" x1="643.274" y1="209.143" x2="591.381" y2="215.855" gradientUnits="userSpaceOnUse">
<stop stop-color="#FF928E"/>
<stop offset="1" stop-color="#FEB3B1"/>
</linearGradient>
<linearGradient id="paint6_linear_2009_687" x1="568.473" y1="262.641" x2="553.13" y2="226.852" gradientUnits="userSpaceOnUse">
<stop stop-color="#FF928E"/>
<stop offset="1" stop-color="#FEB3B1"/>
</linearGradient>
<linearGradient id="paint7_linear_2009_687" x1="1490.74" y1="680.464" x2="1421.85" y2="650.941" gradientUnits="userSpaceOnUse">
<stop stop-color="#FF928E"/>
<stop offset="1" stop-color="#FEB3B1"/>
</linearGradient>
<clipPath id="clip0_2009_687">
<rect width="399.382" height="550" fill="white" transform="translate(206 -0.000976562)"/>
</clipPath>
</defs>
</svg>
