<svg width="70" height="70" viewBox="0 0 70 70" fill="none" xmlns="http://www.w3.org/2000/svg">
<g clip-path="url(#clip0_0_3065)">
<path fill-rule="evenodd" clip-rule="evenodd" d="M35 0C54.3268 0 70 15.6673 70 35C70 54.3327 54.3327 70 35 70C15.6673 70 0 54.3268 0 35C0 15.6732 15.6673 0 35 0Z" fill="#003399"/>
<path fill-rule="evenodd" clip-rule="evenodd" d="M35.0832 8.36621L34.137 10.9784L31.4713 11.0617L33.6967 12.6981L32.7863 15.3281L35.0653 13.6918L35.0832 13.6561L35.101 13.6918L37.38 15.3281L36.4696 12.6981L38.695 11.0617L36.0293 10.9784L35.0832 8.36621ZM23.4443 11.502L22.4982 14.1143L19.8324 14.1976L22.0578 15.8339L21.1474 18.464L23.4264 16.8276L23.4443 16.7919L23.4621 16.8276L25.7411 18.464L24.8307 15.8339L27.0561 14.1976L24.3904 14.1143L23.4443 11.502ZM46.5197 11.502L45.5736 14.1143L42.9079 14.1976L45.1333 15.8339L44.2229 18.464L46.5019 16.8276L46.5197 16.7919L46.5376 16.8276L48.8166 18.464L47.9062 15.8339L50.1316 14.1976L47.4658 14.1143L46.5197 11.502ZM15.0126 19.8326L14.0665 22.4448L11.4007 22.5281L13.6262 24.1644L12.7158 26.7945L14.9948 25.1581L15.0126 25.1224L15.0305 25.1581L17.3094 26.7945L16.399 24.1644L18.6245 22.5281L15.9587 22.4448L15.0126 19.8326ZM55.0525 19.8326L54.1064 22.4448L51.4407 22.5281L53.6661 24.1644L52.7557 26.7945L55.0347 25.1581L55.0525 25.1224L55.0704 25.1581L57.3494 26.7945L56.439 24.1644L58.6644 22.5281L55.9987 22.4448L55.0525 19.8326ZM11.9244 31.4238L10.9783 34.0361L8.3125 34.1194L10.5379 35.7557L9.62753 38.3858L11.9065 36.7494L11.9244 36.7137L11.9422 36.7494L14.2212 38.3858L13.3108 35.7557L15.5362 34.1194L12.8705 34.0361L11.9244 31.4238ZM58.1051 31.4238L57.159 34.0361L54.4932 34.1194L56.7187 35.7557L55.8082 38.3858L58.0872 36.7494L58.1051 36.7137L58.1229 36.7494L60.4019 38.3858L59.4915 35.7557L61.717 34.1194L59.0512 34.0361L58.1051 31.4238ZM15.0126 42.908L14.0665 45.5202L11.4007 45.6035L13.6262 47.2399L12.7158 49.87L14.9948 48.2336L15.0126 48.1979L15.0305 48.2336L17.3094 49.87L16.399 47.2399L18.6245 45.6035L15.9587 45.5202L15.0126 42.908ZM55.0525 42.908L54.1064 45.5202L51.4407 45.6035L53.6661 47.2399L52.7557 49.87L55.0347 48.2336L55.0525 48.1979L55.0704 48.2336L57.3494 49.87L56.439 47.2399L58.6644 45.6035L55.9987 45.5202L55.0525 42.908ZM23.4443 51.3218L22.4982 53.934L19.8324 54.0174L22.0578 55.6537L21.1474 58.2838L23.4264 56.6474L23.4443 56.6117L23.4621 56.6474L25.7411 58.2838L24.8307 55.6537L27.0561 54.0174L24.3904 53.934L23.4443 51.3218ZM46.5197 51.3218L45.5736 53.934L42.9079 54.0174L45.1333 55.6537L44.2229 58.2838L46.5019 56.6474L46.5197 56.6117L46.5376 56.6474L48.8166 58.2838L47.9062 55.6537L50.1316 54.0174L47.4658 53.934L46.5197 51.3218ZM35.101 54.6421L34.1549 57.2543L31.4891 57.3377L33.7146 58.974L32.8042 61.6041L35.0832 59.9677L35.101 59.932L35.1189 59.9677L37.3978 61.6041L36.4874 58.974L38.7129 57.3377L36.0471 57.2543L35.101 54.6421Z" fill="#FFED00"/>
<path d="M21.6951 37.4396C20.2372 37.4396 19.071 37.0112 18.1844 36.1603C17.2977 35.3094 16.8574 34.167 16.8574 32.7389C16.8574 31.3108 17.2977 30.1683 18.1844 29.3174C19.071 28.4665 20.2372 28.0381 21.6951 28.0381C22.5281 28.0381 23.2779 28.1868 23.9502 28.4844C24.6226 28.7819 25.176 29.1984 25.6104 29.7339C25.7056 29.8529 25.6878 29.9601 25.5509 30.0553L23.98 31.1025C23.8669 31.1858 23.7598 31.168 23.6587 31.043C23.1886 30.4718 22.5341 30.1862 21.6951 30.1862C20.9513 30.1862 20.3562 30.4182 19.91 30.8764C19.4637 31.3346 19.2435 31.9594 19.2435 32.7448C19.2435 33.5303 19.4696 34.2146 19.91 34.7025C20.3562 35.1845 20.9513 35.4225 21.6951 35.4225C22.4924 35.4225 23.1172 35.1547 23.5754 34.6251V34.1372H22.0045C21.8438 34.1372 21.7665 34.0598 21.7665 33.8992V32.4711C21.7665 32.3104 21.8438 32.2331 22.0045 32.2331H25.5033C25.664 32.2331 25.7413 32.3104 25.7413 32.4711V35.4106C25.7413 35.5177 25.7116 35.6069 25.658 35.6724C25.2474 36.2377 24.7 36.678 24.0157 36.9874C23.3314 37.2968 22.5579 37.4516 21.6951 37.4516V37.4396Z" fill="white"/>
<path d="M27.5266 37.2014C27.3659 37.2014 27.2886 37.1241 27.2886 36.9634V28.5139C27.2886 28.3532 27.3659 28.2759 27.5266 28.2759H30.5137C32.15 28.2759 33.3758 28.6567 34.1791 29.4243C34.9824 30.1919 35.3811 31.2987 35.3811 32.7446C35.3811 34.1905 34.9824 35.2795 34.191 36.047C33.3936 36.8146 32.1679 37.1955 30.5137 37.1955H27.5266V37.2014ZM29.6925 35.1783H30.5256C31.3527 35.1783 31.9715 34.9641 32.3821 34.5416C32.7927 34.1191 33.0009 33.5062 33.0009 32.7148C33.0009 31.9234 32.7927 31.3284 32.3821 30.9178C31.9715 30.5073 31.3527 30.299 30.5256 30.299H29.6925V35.1783Z" fill="white"/>
<path d="M37.0471 37.2014C36.8864 37.2014 36.8091 37.1241 36.8091 36.9634V28.5139C36.8091 28.3532 36.8864 28.2759 37.0471 28.2759H40.7601C42.8963 28.2759 43.9614 29.2339 43.9614 31.144C43.9614 32.0722 43.7174 32.8041 43.2295 33.3456C42.7416 33.8871 42.0751 34.1548 41.2361 34.1548H39.2011V36.9634C39.2011 37.1241 39.1238 37.2014 38.9631 37.2014H37.0471ZM39.2011 32.1317H40.3436C40.415 32.1317 40.4745 32.1317 40.5162 32.1317C40.5638 32.1317 40.6352 32.1258 40.7244 32.1139C40.8196 32.102 40.9029 32.0841 40.9684 32.0663C41.0338 32.0425 41.1052 32.0068 41.1945 31.9591C41.2838 31.9115 41.3433 31.852 41.3968 31.7866C41.4504 31.7211 41.492 31.6319 41.5277 31.5307C41.5634 31.4296 41.5813 31.3046 41.5813 31.1797C41.5813 31.013 41.5515 30.8702 41.492 30.7572C41.4325 30.6441 41.3671 30.5549 41.2897 30.4954C41.2123 30.4359 41.1112 30.3942 40.9803 30.3645C40.8494 30.3347 40.7423 30.3169 40.6649 30.3169C40.5876 30.3169 40.4805 30.3169 40.3436 30.3169H39.2011V32.1496V32.1317Z" fill="white"/>
<path d="M45.5085 37.2014C45.3479 37.2014 45.2705 37.1241 45.2705 36.9634V28.5139C45.2705 28.3532 45.3479 28.2759 45.5085 28.2759H49.2215C51.3577 28.2759 52.4228 29.2339 52.4228 31.144C52.4228 31.7866 52.3038 32.34 52.0658 32.8041C51.8278 33.2682 51.4886 33.6133 51.0483 33.8454L52.7085 36.9158C52.7501 36.9991 52.7561 37.0705 52.7204 37.1241C52.6906 37.1776 52.6311 37.2014 52.5418 37.2014H50.3759C50.251 37.2014 50.1617 37.1419 50.1022 37.0229L48.6622 34.1548H47.6625V36.9634C47.6625 37.1241 47.5852 37.2014 47.4245 37.2014H45.5085ZM47.6625 32.1317H48.805C48.8764 32.1317 48.9359 32.1317 48.9776 32.1317C49.0252 32.1317 49.0966 32.1258 49.1858 32.1139C49.281 32.102 49.3644 32.0841 49.4298 32.0663C49.4953 32.0425 49.5667 32.0068 49.6559 31.9591C49.7452 31.9115 49.8047 31.852 49.8582 31.7866C49.9118 31.7211 49.9534 31.6319 49.9891 31.5307C50.0248 31.4296 50.0427 31.3046 50.0427 31.1797C50.0427 31.013 50.0129 30.8702 49.9534 30.7572C49.8939 30.6441 49.8285 30.5549 49.7511 30.4954C49.6738 30.4359 49.5726 30.3942 49.4417 30.3645C49.3108 30.3347 49.2037 30.3169 49.1263 30.3169C49.049 30.3169 48.9419 30.3169 48.805 30.3169H47.6625V32.1496V32.1317Z" fill="white"/>
<path d="M17.6668 39.2726C17.9464 38.9929 18.3094 38.8501 18.7557 38.8501C19.2019 38.8501 19.5471 38.9751 19.797 39.225C20.0647 39.4927 20.2016 39.8319 20.2195 40.2425H19.6899C19.6601 39.9331 19.5649 39.695 19.4043 39.5344C19.2257 39.3559 19.0115 39.2666 18.7616 39.2666C18.4939 39.2666 18.2558 39.3678 18.0535 39.576C17.7858 39.8438 17.6549 40.2484 17.6549 40.7959C17.6549 41.3433 17.7858 41.7479 18.0535 42.0157C18.2439 42.2061 18.482 42.3013 18.7616 42.3013C19.0591 42.3013 19.2853 42.218 19.4459 42.0573C19.6542 41.8491 19.7553 41.5575 19.7553 41.1707H20.2849C20.273 41.6706 20.1243 42.0633 19.8386 42.343C19.5887 42.5929 19.2257 42.7178 18.7497 42.7178C18.3034 42.7178 17.9464 42.575 17.6608 42.2954C17.2919 41.9264 17.1074 41.4207 17.1074 40.7899C17.1074 40.1592 17.2919 39.6296 17.6608 39.2607L17.6668 39.2726Z" fill="white"/>
<path d="M23.2601 40.4686C23.4684 40.2603 23.7302 40.1592 24.0575 40.1592C24.3847 40.1592 24.6347 40.2722 24.8548 40.4924C25.0631 40.7007 25.1642 41.016 25.1642 41.4445H23.3672C23.3672 41.7539 23.4386 41.9859 23.5874 42.1347C23.7183 42.2656 23.8909 42.3311 24.0991 42.3311C24.3074 42.3311 24.4561 42.2894 24.5454 42.2002C24.6466 42.099 24.7001 41.98 24.7001 41.8431H25.188C25.1285 42.1109 25.0333 42.3073 24.9024 42.4441C24.712 42.6345 24.4442 42.7297 24.1051 42.7297C23.7659 42.7297 23.4624 42.6167 23.2423 42.3965C23.0043 42.1585 22.8853 41.8431 22.8853 41.4445C22.8853 41.0458 23.0102 40.7185 23.2601 40.4686ZM23.5933 40.7126C23.4922 40.8137 23.4208 40.9387 23.391 41.0874H24.6525C24.6525 40.9387 24.593 40.8078 24.474 40.6888C24.3728 40.5876 24.2241 40.5341 24.0277 40.5341C23.8492 40.5341 23.7005 40.5936 23.5814 40.7126H23.5933Z" fill="white"/>
<path d="M29.4485 40.1593V40.6472C29.3889 40.6353 29.3056 40.6234 29.2045 40.6234C28.9843 40.6234 28.7761 40.7186 28.5856 40.909C28.425 41.0697 28.3119 41.2422 28.2524 41.4207V42.6822H27.8062V40.2009H28.2524V40.8198C28.3238 40.7008 28.4071 40.5996 28.4964 40.5103C28.7344 40.2723 29.0498 40.1533 29.4485 40.1533V40.1593Z" fill="white"/>
<path d="M32.0485 39.338H32.4948V40.2008H33.2505V40.5578H32.4948V41.9978C32.4948 42.087 32.5305 42.1704 32.6079 42.2418C32.6674 42.3013 32.7626 42.331 32.8935 42.331C33.1017 42.331 33.2862 42.2775 33.4469 42.1763V42.5988C33.2862 42.688 33.1077 42.7297 32.9173 42.7297C32.6198 42.7297 32.4056 42.6642 32.2746 42.5274C32.1259 42.3786 32.0545 42.218 32.0545 42.0394V40.5519H31.5249V40.1948H32.0545V39.332L32.0485 39.338Z" fill="white"/>
<path d="M35.9282 38.9155H36.3745V39.4927H35.9282V38.9155ZM35.9282 40.2008H36.3745V42.6821H35.9282V40.2008Z" fill="white"/>
<path d="M39.7722 40.2008H40.5279V40.5579H39.7722V42.6881H39.326V40.5579H38.7964V40.2008H39.326V39.582C39.326 39.3737 39.3914 39.2071 39.5223 39.0703C39.6711 38.9215 39.8675 38.8501 40.1233 38.8501C40.3137 38.8501 40.516 38.8858 40.7243 38.9632V39.4094C40.516 39.3083 40.3494 39.2547 40.2126 39.2547C40.0519 39.2547 39.9329 39.2904 39.8556 39.3678C39.7961 39.4273 39.7663 39.4987 39.7663 39.5879V40.2068L39.7722 40.2008Z" fill="white"/>
<path d="M42.9438 38.9155H43.3901V39.4927H42.9438V38.9155ZM42.9438 40.2008H43.3901V42.6821H42.9438V40.2008Z" fill="white"/>
<path d="M46.4486 40.4686C46.6569 40.2603 46.9187 40.1592 47.246 40.1592C47.5732 40.1592 47.8231 40.2722 48.0433 40.4924C48.2516 40.7007 48.3527 41.016 48.3527 41.4445H46.5557C46.5557 41.7539 46.6271 41.9859 46.7759 42.1347C46.9068 42.2656 47.0793 42.3311 47.2876 42.3311C47.4959 42.3311 47.6446 42.2894 47.7339 42.2002C47.835 42.099 47.8886 41.98 47.8886 41.8431H48.3765C48.317 42.1109 48.2218 42.3073 48.0909 42.4441C47.9005 42.6345 47.6327 42.7297 47.2936 42.7297C46.9544 42.7297 46.6509 42.6167 46.4308 42.3965C46.1927 42.1585 46.0737 41.8431 46.0737 41.4445C46.0737 41.0458 46.1987 40.7185 46.4486 40.4686ZM46.7818 40.7126C46.6807 40.8137 46.6093 40.9387 46.5795 41.0874H47.841C47.841 40.9387 47.7815 40.8078 47.6625 40.6888C47.5613 40.5876 47.4126 40.5341 47.2162 40.5341C47.0377 40.5341 46.8889 40.5936 46.7699 40.7126H46.7818Z" fill="white"/>
<path d="M52.7741 38.8916H53.2203V42.682H52.7741V42.3726C52.6134 42.6106 52.3873 42.7296 52.1076 42.7296C51.7982 42.7296 51.5542 42.6403 51.3757 42.4618C51.108 42.194 50.9771 41.8549 50.9771 41.4443C50.9771 40.998 51.0961 40.6589 51.3341 40.4268C51.5245 40.2364 51.7565 40.1412 52.0243 40.1412C52.3516 40.1412 52.6015 40.2661 52.78 40.516V38.8976L52.7741 38.8916ZM51.6851 40.7124C51.5364 40.8612 51.465 41.1051 51.465 41.4443C51.465 41.7835 51.5483 42.0155 51.7089 42.1762C51.8101 42.2774 51.941 42.3309 52.0838 42.3309C52.2623 42.3309 52.4111 42.2714 52.5301 42.1524C52.6908 41.9917 52.7741 41.7537 52.7741 41.4443C52.7741 41.1349 52.6848 40.8909 52.5063 40.7124C52.3873 40.5934 52.2445 40.5339 52.0838 40.5339C51.9351 40.5339 51.8042 40.5934 51.6851 40.7124Z" fill="white"/>
</g>
<defs>
<clipPath id="clip0_0_3065">
<rect width="70" height="70" fill="white"/>
</clipPath>
</defs>
</svg>
