<svg width="200" height="58" viewBox="0 0 200 58" fill="none" xmlns="http://www.w3.org/2000/svg">
<path d="M192.593 57.8489H7.40741C3.33519 57.8489 0 54.5971 0 50.6267V7.29332C0 3.32291 3.33519 0.0711002 7.40741 0.0711002H192.593C196.665 0.0711002 200 3.32291 200 7.29332V50.6267C200 54.5971 196.665 57.8489 192.593 57.8489Z" fill="black"/>
<path d="M192.593 1.22846C196.022 1.22846 198.813 3.94943 198.813 7.29332V50.6267C198.813 53.9705 196.022 56.6915 192.593 56.6915H7.40741C3.97778 56.6915 1.18704 53.9705 1.18704 50.6267V7.29332C1.18704 3.94943 3.97778 1.22846 7.40741 1.22846H192.593ZM192.593 0.0711002H7.40741C3.33519 0.0711002 0 3.32291 0 7.29332V50.6267C0 54.5971 3.33519 57.8489 7.40741 57.8489H192.593C196.665 57.8489 200 54.5971 200 50.6267V7.29332C200 3.32291 196.665 0.0711002 192.593 0.0711002Z" fill="#A6A6A6"/>
<path d="M15.4595 10.9604C15.0243 11.4045 14.7725 12.0961 14.7725 12.9916V44.9355C14.7725 45.8311 15.0243 46.5226 15.4595 46.9668L15.5669 47.0643L33.9262 29.1712V28.7487L15.5669 10.8557L15.4595 10.9604Z" fill="url(#paint0_linear_2081_84)"/>
<path d="M40.0392 35.1385L33.9263 29.1712V28.7487L40.0466 22.7813L40.1837 22.859L47.4318 26.8799C49.5003 28.021 49.5003 29.8988 47.4318 31.0472L40.1837 35.0609L40.0392 35.1385V35.1385Z" fill="url(#paint1_linear_2081_84)"/>
<path d="M40.1835 35.0609L33.9261 28.96L15.4595 46.9668C16.1465 47.6709 17.2669 47.7558 18.541 47.0516L40.1835 35.0609" fill="url(#paint2_linear_2081_84)"/>
<path d="M40.1835 22.859L18.541 10.8683C17.2669 10.1714 16.1465 10.2562 15.4595 10.9604L33.9261 28.96L40.1835 22.859Z" fill="url(#paint3_linear_2081_84)"/>
<path d="M70.2484 14.8677C70.2484 16.0738 69.878 17.0397 69.1484 17.7602C68.3095 18.6142 67.2169 19.0439 65.878 19.0439C64.5984 19.0439 63.5058 18.607 62.6095 17.7457C61.7113 16.8718 61.2632 15.7993 61.2632 14.5156C61.2632 13.2318 61.7113 12.1593 62.6095 11.2927C63.5058 10.4242 64.5984 9.98724 65.878 9.98724C66.515 9.98724 67.1224 10.1154 67.7021 10.3538C68.2798 10.5939 68.7502 10.9189 69.091 11.3197L68.3169 12.0817C67.7224 11.3974 66.9132 11.0597 65.878 11.0597C64.9447 11.0597 64.1354 11.3775 63.4484 12.0185C62.7687 12.6613 62.428 13.4936 62.428 14.5156C62.428 15.5375 62.7687 16.3771 63.4484 17.0199C64.1354 17.6536 64.9447 17.9786 65.878 17.9786C66.8687 17.9786 67.7021 17.6536 68.3595 17.0127C68.7928 16.5884 69.0391 16.0034 69.1039 15.2559H65.878V14.2122H70.1817C70.2336 14.4379 70.2484 14.6564 70.2484 14.8677V14.8677Z" fill="white" stroke="white" stroke-width="0.16" stroke-miterlimit="10"/>
<path d="M77.0762 11.2493H73.0336V13.9937H76.6781V15.0373H73.0336V17.7818H77.0762V18.8452H71.8892V10.1858H77.0762V11.2493Z" fill="white" stroke="white" stroke-width="0.16" stroke-miterlimit="10"/>
<path d="M81.8946 18.8452H80.7501V11.2493H78.2705V10.1858H84.3761V11.2493H81.8946V18.8452V18.8452Z" fill="white" stroke="white" stroke-width="0.16" stroke-miterlimit="10"/>
<path d="M88.7949 18.8452V10.1858H89.9375V18.8452H88.7949Z" fill="white" stroke="white" stroke-width="0.16" stroke-miterlimit="10"/>
<path d="M95.002 18.8452H93.8668V11.2493H91.3779V10.1858H97.4909V11.2493H95.002V18.8452Z" fill="white" stroke="white" stroke-width="0.16" stroke-miterlimit="10"/>
<path d="M109.05 17.7313C108.175 18.607 107.089 19.0439 105.795 19.0439C104.493 19.0439 103.408 18.607 102.532 17.7313C101.658 16.8574 101.223 15.7849 101.223 14.5156C101.223 13.2463 101.658 12.1738 102.532 11.2999C103.408 10.4242 104.493 9.98724 105.795 9.98724C107.082 9.98724 108.167 10.4242 109.043 11.3071C109.925 12.1882 110.36 13.2535 110.36 14.5156C110.36 15.7849 109.925 16.8574 109.05 17.7313ZM103.378 17.0054C104.037 17.6536 104.839 17.9786 105.795 17.9786C106.743 17.9786 107.552 17.6536 108.204 17.0054C108.862 16.3572 109.195 15.5249 109.195 14.5156C109.195 13.5063 108.862 12.6739 108.204 12.0257C107.552 11.3775 106.743 11.0525 105.795 11.0525C104.839 11.0525 104.037 11.3775 103.378 12.0257C102.721 12.6739 102.387 13.5063 102.387 14.5156C102.387 15.5249 102.721 16.3572 103.378 17.0054V17.0054Z" fill="white" stroke="white" stroke-width="0.16" stroke-miterlimit="10"/>
<path d="M111.965 18.8452V10.1858H113.354L117.672 16.9205H117.722L117.672 15.2558V10.1858H118.815V18.8452H117.622L113.1 11.7783H113.05L113.1 13.4502V18.8452H111.965V18.8452Z" fill="white" stroke="white" stroke-width="0.16" stroke-miterlimit="10"/>
<path d="M100.941 31.4914C97.4609 31.4914 94.6183 34.0734 94.6183 37.6357C94.6183 41.1692 97.4609 43.7782 100.941 43.7782C104.428 43.7782 107.27 41.1692 107.27 37.6357C107.27 34.0734 104.428 31.4914 100.941 31.4914ZM100.941 41.3588C99.0313 41.3588 97.3887 39.8222 97.3887 37.6357C97.3887 35.4203 99.0313 33.9109 100.941 33.9109C102.85 33.9109 104.5 35.4203 104.5 37.6357C104.5 39.8222 102.85 41.3588 100.941 41.3588V41.3588ZM87.1461 31.4914C83.6591 31.4914 80.8239 34.0734 80.8239 37.6357C80.8239 41.1692 83.6591 43.7782 87.1461 43.7782C90.6313 43.7782 93.4683 41.1692 93.4683 37.6357C93.4683 34.0734 90.6313 31.4914 87.1461 31.4914ZM87.1461 41.3588C85.235 41.3588 83.5868 39.8222 83.5868 37.6357C83.5868 35.4203 85.235 33.9109 87.1461 33.9109C89.0553 33.9109 90.6979 35.4203 90.6979 37.6357C90.6979 39.8222 89.0553 41.3588 87.1461 41.3588ZM70.7313 33.3746V35.9854H77.1257C76.9387 37.4443 76.4387 38.5168 75.672 39.2643C74.7387 40.1671 73.285 41.1692 70.7313 41.1692C66.7961 41.1692 63.7146 38.0727 63.7146 34.2359C63.7146 30.3991 66.7961 27.3025 70.7313 27.3025C72.8591 27.3025 74.4072 28.1132 75.5498 29.1641L77.4368 27.3242C75.8387 25.8364 73.7128 24.6935 70.7313 24.6935C65.335 24.6935 60.7998 28.9745 60.7998 34.2359C60.7998 39.4972 65.335 43.7782 70.7313 43.7782C73.6479 43.7782 75.8387 42.8466 77.5609 41.0988C79.3257 39.3781 79.8757 36.9586 79.8757 35.005C79.8757 34.3984 79.8239 33.8404 79.7313 33.3746H70.7313ZM137.853 35.3986C137.333 34.0246 135.728 31.4914 132.457 31.4914C129.216 31.4914 126.518 33.9813 126.518 37.6357C126.518 41.0771 129.189 43.7782 132.768 43.7782C135.663 43.7782 137.333 42.0575 138.02 41.0554L135.872 39.6597C135.155 40.6817 134.179 41.3588 132.768 41.3588C131.366 41.3588 130.361 40.7322 129.716 39.4972L138.144 36.0974L137.853 35.3986V35.3986ZM129.261 37.4443C129.189 35.0754 131.148 33.8621 132.552 33.8621C133.652 33.8621 134.585 34.3984 134.896 35.1657L129.261 37.4443V37.4443ZM122.411 43.4045H125.181V25.3489H122.411V43.4045ZM117.874 32.86H117.781C117.159 32.1414 115.972 31.4914 114.468 31.4914C111.313 31.4914 108.428 34.1925 108.428 37.6556C108.428 41.0988 111.313 43.7782 114.468 43.7782C115.972 43.7782 117.159 43.1228 117.781 42.3825H117.874V43.2636C117.874 45.6127 116.587 46.8747 114.511 46.8747C112.818 46.8747 111.768 45.6831 111.335 44.681L108.926 45.6614C109.62 47.29 111.459 49.2942 114.511 49.2942C117.759 49.2942 120.5 47.4309 120.5 42.8971V31.8652H117.874V32.86V32.86ZM114.705 41.3588C112.796 41.3588 111.198 39.8006 111.198 37.6556C111.198 35.4907 112.796 33.9109 114.705 33.9109C116.587 33.9109 118.07 35.4907 118.07 37.6556C118.07 39.8006 116.587 41.3588 114.705 41.3588V41.3588ZM150.824 25.3489H144.198V43.4045H146.961V36.5632H150.824C153.892 36.5632 156.902 34.3984 156.902 30.9552C156.902 27.5138 153.885 25.3489 150.824 25.3489V25.3489ZM150.896 34.0517H146.961V27.8604H150.896C152.959 27.8604 154.137 29.5306 154.137 30.9552C154.137 32.3527 152.959 34.0517 150.896 34.0517ZM167.976 31.4571C165.979 31.4571 163.903 32.3166 163.05 34.2214L165.502 35.2235C166.029 34.2214 167 33.8964 168.026 33.8964C169.459 33.8964 170.913 34.736 170.935 36.2184V36.4079C170.435 36.1263 169.365 35.7092 168.048 35.7092C165.407 35.7092 162.716 37.1266 162.716 39.7717C162.716 42.1911 164.879 43.7493 167.311 43.7493C169.17 43.7493 170.196 42.9314 170.841 41.9799H170.935V43.3756H173.603V36.4495C173.603 33.2482 171.152 31.4571 167.976 31.4571ZM167.642 41.3516C166.739 41.3516 165.479 40.9146 165.479 39.8222C165.479 38.4247 167.05 37.8885 168.409 37.8885C169.626 37.8885 170.196 38.1503 170.935 38.4952C170.718 40.1671 169.242 41.3516 167.642 41.3516V41.3516ZM183.326 31.8525L180.15 39.6796H180.055L176.772 31.8525H173.792L178.726 42.7906L175.911 48.8771H178.798L186.4 31.8525H183.326V31.8525ZM158.42 43.4045H161.191V25.3489H158.42V43.4045Z" fill="white"/>
<defs>
<linearGradient id="paint0_linear_2081_84" x1="32.2961" y1="45.2682" x2="8.0626" y2="20.4133" gradientUnits="userSpaceOnUse">
<stop stop-color="#00A0FF"/>
<stop offset="0.0066" stop-color="#00A1FF"/>
<stop offset="0.2601" stop-color="#00BEFF"/>
<stop offset="0.5122" stop-color="#00D2FF"/>
<stop offset="0.7604" stop-color="#00DFFF"/>
<stop offset="1" stop-color="#00E3FF"/>
</linearGradient>
<linearGradient id="paint1_linear_2081_84" x1="50.1254" y1="28.9579" x2="14.2781" y2="28.9579" gradientUnits="userSpaceOnUse">
<stop stop-color="#FFE000"/>
<stop offset="0.4087" stop-color="#FFBD00"/>
<stop offset="0.7754" stop-color="#FFA500"/>
<stop offset="1" stop-color="#FF9C00"/>
</linearGradient>
<linearGradient id="paint2_linear_2081_84" x1="36.7809" y1="25.6434" x2="3.91839" y2="-8.0618" gradientUnits="userSpaceOnUse">
<stop stop-color="#FF3A44"/>
<stop offset="1" stop-color="#C31162"/>
</linearGradient>
<linearGradient id="paint3_linear_2081_84" x1="10.811" y1="57.5943" x2="25.4856" y2="42.5436" gradientUnits="userSpaceOnUse">
<stop stop-color="#32A071"/>
<stop offset="0.0685" stop-color="#2DA771"/>
<stop offset="0.4762" stop-color="#15CF74"/>
<stop offset="0.8009" stop-color="#06E775"/>
<stop offset="1" stop-color="#00F076"/>
</linearGradient>
</defs>
</svg>
