<svg width="160" height="60" viewBox="0 0 160 60" fill="none" xmlns="http://www.w3.org/2000/svg">
<rect y="-0.000976562" width="160" height="60" rx="30" fill="#F2F2F2"/>
<path d="M75.9789 21.6063V27.5748H79.6823C80.5645 27.5748 81.2937 27.2808 81.8701 26.6911C82.4632 26.1031 82.759 25.4015 82.759 24.5897C82.759 23.7779 82.4632 23.1013 81.8701 22.5117C81.2921 21.907 80.5628 21.6046 79.6823 21.6046H75.9789V21.6063ZM75.9789 29.6779V36.6018H73.7676V19.5049H79.6336C81.124 19.5049 82.3876 19.9993 83.4311 20.9849C84.4914 21.9705 85.019 23.1732 85.019 24.5897C85.019 26.0062 84.4914 27.249 83.4311 28.2179C82.4061 29.1901 81.1392 29.6745 79.6336 29.6745H75.9789V29.6779Z" fill="#5F6368"/>
<path d="M87.2538 33.0173C87.2538 33.5919 87.4974 34.068 87.9881 34.4505C88.477 34.8314 89.05 35.0235 89.707 35.0235C90.6379 35.0235 91.4647 34.681 92.1939 33.9978C92.9232 33.3129 93.2878 32.5094 93.2878 31.5874C92.5989 31.0445 91.6361 30.7755 90.4027 30.7755C89.5054 30.7755 88.756 30.991 88.1561 31.4203C87.5562 31.8496 87.2538 32.3808 87.2538 33.0173ZM90.1154 24.5181C91.7503 24.5181 93.0408 24.9507 93.9868 25.8193C94.9328 26.688 95.4033 27.8756 95.4033 29.3874V36.5987H93.2878V34.975H93.192C92.2779 36.3114 91.0614 36.9795 89.539 36.9795C88.2401 36.9795 87.153 36.5987 86.2809 35.8353C85.4071 35.0702 84.9702 34.1164 84.9702 32.9688C84.9702 31.7594 85.4289 30.7972 86.3514 30.0823C87.2739 29.3657 88.5039 29.0082 90.0414 29.0082C91.3554 29.0082 92.4376 29.2471 93.2861 29.7248V29.2237C93.2861 28.4603 92.982 27.8122 92.3737 27.2793C91.7638 26.7448 91.053 26.4792 90.2347 26.4792C88.9996 26.4792 88.0234 26.9953 87.3025 28.031L85.3533 26.8132C86.4287 25.2848 88.015 24.5214 90.1154 24.5214" fill="#5F6368"/>
<path d="M110.08 25.5288L102.698 42.3835H100.415L103.155 36.4869L98.2993 25.5288H100.704L104.214 33.9328H104.261L107.676 25.5288H110.08Z" fill="#5F6368"/>
<path d="M68.3895 28.0452C68.3895 27.3536 68.3307 26.6855 68.2198 26.0474H58.8906V29.8309H64.2324C64.0038 31.0637 63.3099 32.1127 62.258 32.816V35.2732H65.4472C67.3141 33.5627 68.3895 31.0353 68.3895 28.0469" fill="#4285F4"/>
<path d="M58.8905 37.6451C61.5606 37.6451 63.8071 36.7748 65.4471 35.2731L62.2579 32.8158C61.3707 33.4089 60.2281 33.7563 58.8905 33.7563C56.3112 33.7563 54.1218 32.0291 53.3371 29.7021H50.0537V32.2329C51.6819 35.4418 55.0275 37.6468 58.8922 37.6468" fill="#34A853"/>
<path d="M53.3386 29.7003C53.1386 29.1073 53.0277 28.4742 53.0277 27.8211C53.0277 27.168 53.137 26.5349 53.3386 25.9418V23.4111H50.0536C49.3798 24.7375 49 26.2342 49 27.8211C49 29.408 49.3798 30.9064 50.0536 32.2311L53.3386 29.7003Z" fill="#FABB05"/>
<path d="M58.8905 21.8861C60.3474 21.8861 61.6547 22.3839 62.6847 23.3595L65.5076 20.5565C63.7937 18.9729 61.5589 17.999 58.8905 17.999C55.0275 17.999 51.6819 20.2023 50.0537 23.4112L53.3387 25.942C54.1218 23.615 56.3112 21.8878 58.8922 21.8878" fill="#E94235"/>
</svg>
