<svg width="160" height="60" viewBox="0 0 160 60" fill="none" xmlns="http://www.w3.org/2000/svg">
<rect y="-0.000976562" width="160" height="60" rx="30" fill="#F2F2F2"/>
<path fill-rule="evenodd" clip-rule="evenodd" d="M79.5569 43.9925C82.7716 46.9507 87.0979 48.7633 91.8003 48.7633C101.906 48.7633 110.08 40.5213 110.08 30.3983C110.08 20.2753 101.906 11.999 91.8003 11.999C87.0979 11.999 82.7716 13.7945 79.5569 16.7698C75.8634 20.1385 73.5378 25.0119 73.5378 30.3983C73.5378 35.7847 75.8805 40.6581 79.5569 43.9925Z" fill="#FAB31E"/>
<path fill-rule="evenodd" clip-rule="evenodd" d="M85.4564 28.4489C85.3881 27.782 85.2684 27.1493 85.1487 26.4995H73.9826C74.1023 25.8327 74.2904 25.2 74.4956 24.5673H84.6186C84.3963 23.9004 84.1398 23.2335 83.8662 22.6179H75.2822C75.59 21.951 75.949 21.2841 76.3252 20.6686H82.7889C82.3785 20.0017 81.8997 19.3348 81.4038 18.7363H77.7103C78.2746 18.0352 78.9073 17.3854 79.5742 16.7869C76.3082 13.8287 72.0162 11.999 67.2795 11.999C57.2078 11.999 49 20.2411 49 30.3983C49 40.5555 57.2078 48.7633 67.2795 48.7633C72.0162 48.7633 76.3082 46.9678 79.5571 43.9925C80.224 43.394 80.8225 42.7613 81.3868 42.0602H77.6932C77.1802 41.4276 76.7528 40.7949 76.3082 40.1109H82.7718C83.1822 39.4782 83.5242 38.8455 83.8491 38.1615H75.2651C74.9744 37.5288 74.7008 36.8961 74.4785 36.2293H84.6015C84.8238 35.5966 84.9777 34.9297 85.1316 34.2799C85.2513 33.6472 85.3881 32.9803 85.4394 32.3305C85.5078 31.6978 85.542 31.0652 85.542 30.3983C85.542 29.7314 85.5078 29.0645 85.4394 28.4489H85.4564Z" fill="#E40520"/>
<path fill-rule="evenodd" clip-rule="evenodd" d="M107.635 34.6561C107.635 34.3141 107.891 34.0576 108.199 34.0576C108.541 34.0576 108.798 34.3141 108.798 34.6561C108.798 34.9639 108.541 35.2546 108.199 35.2546C107.891 35.2546 107.635 34.9639 107.635 34.6561ZM108.199 35.1007C108.456 35.1007 108.678 34.9126 108.678 34.6561C108.678 34.3996 108.456 34.2115 108.199 34.2115C107.977 34.2115 107.754 34.3996 107.754 34.6561C107.754 34.9126 107.977 35.1007 108.199 35.1007ZM108.131 34.9126H108.011V34.3996H108.353C108.353 34.3996 108.421 34.5022 108.421 34.5535C108.421 34.5877 108.387 34.6561 108.319 34.6732L108.438 34.8955H108.285L108.216 34.7074H108.114V34.6048H108.182C108.182 34.6048 108.25 34.6048 108.25 34.5706C108.285 34.5706 108.285 34.5364 108.285 34.5022C108.285 34.5022 108.285 34.468 108.25 34.468C108.25 34.4338 108.216 34.468 108.182 34.468H108.114V34.8784L108.131 34.9126Z" fill="white"/>
<path fill-rule="evenodd" clip-rule="evenodd" d="M73.3327 35.6993C72.7343 35.8532 72.2897 35.9558 71.8451 35.9558C70.9046 35.9558 70.3232 35.3573 70.3232 34.28C70.3232 34.0577 70.3574 33.8354 70.3916 33.5789L70.5113 32.8607L70.6139 32.2623L71.4689 27.0811H73.367L73.1447 28.2096H74.3416L74.051 30.1077H72.854L72.341 33.2027C72.3068 33.3566 72.3068 33.4592 72.3068 33.5105C72.3068 33.9209 72.4949 34.0748 72.9737 34.0748C73.196 34.0748 73.3841 34.0406 73.5722 34.0064L73.3157 35.6822L73.3327 35.6993Z" fill="#06326E"/>
<path fill-rule="evenodd" clip-rule="evenodd" d="M79.4547 35.6306C78.7537 35.8187 78.1381 35.9213 77.437 35.9213C75.2995 35.9213 74.0684 34.7927 74.0684 32.5526C74.0684 29.9364 75.5218 28.0383 77.5396 28.0383C79.147 28.0383 80.19 29.1156 80.19 30.7914C80.19 31.3557 80.1216 31.9029 79.9677 32.6552H76.0177C75.9835 32.7749 75.9835 32.8433 75.9835 32.9117C75.9835 33.8009 76.582 34.2284 77.7277 34.2284C78.4458 34.2284 79.0786 34.0745 79.7796 33.7496L79.4718 35.6477L79.4547 35.6306ZM78.292 31.1163V30.7401C78.292 30.1074 77.95 29.7654 77.3515 29.7654C76.7188 29.7654 76.2742 30.2442 76.0861 31.1163H78.292Z" fill="#06326E"/>
<path fill-rule="evenodd" clip-rule="evenodd" d="M58.1823 35.8017H56.2329L57.3615 28.637L54.8137 35.8017H53.4628L53.3089 28.6712L52.1119 35.8017H50.1797L51.7186 26.4995H54.5914L54.6598 32.245L56.5921 26.4995H59.7555L58.2165 35.8017H58.1823Z" fill="#06326E"/>
<path fill-rule="evenodd" clip-rule="evenodd" d="M62.9534 32.4161C62.7653 32.3819 62.6969 32.3819 62.5772 32.3819C61.4487 32.3819 60.8673 32.8265 60.8673 33.5105C60.8673 33.9893 61.1579 34.2971 61.5854 34.2971C62.5259 34.2971 62.9192 33.5105 62.9363 32.399L62.9534 32.4161ZM64.5266 35.7847H62.8166L62.8508 34.9981C62.4063 35.5966 61.8078 35.9215 60.7647 35.9215C59.8242 35.9215 59.0034 35.0665 59.0034 33.8354C59.0034 33.4934 59.0718 33.1685 59.1573 32.8607C59.4651 31.6979 60.645 30.9626 62.4404 30.9284C62.6627 30.9284 63.0047 30.9284 63.3296 30.9626C63.398 30.7061 63.398 30.6206 63.398 30.4496C63.398 29.9366 62.9876 29.7827 62.0642 29.7827C61.4999 29.7827 60.8673 29.8853 60.4227 30.0392L60.132 30.1076L60.0123 30.1418L60.303 28.4319C61.2263 28.1412 61.8761 28.0215 62.6114 28.0215C64.3214 28.0215 65.2277 28.8081 65.2277 30.2615C65.2277 30.6377 65.2619 30.9284 65.1251 31.7492L64.6805 34.4681L64.6121 34.9469L64.5779 35.323L64.5437 35.5795L64.5095 35.8018L64.5266 35.7847Z" fill="#06326E"/>
<path fill-rule="evenodd" clip-rule="evenodd" d="M88.9961 28.278C89.5604 28.278 90.0733 28.4319 90.7573 28.791L91.0993 26.7732C90.9113 26.6706 90.8428 26.6706 90.5863 26.5851L89.7998 26.3629C89.5433 26.2945 89.2355 26.2603 88.8764 26.2603C87.9017 26.2603 87.3374 26.2945 86.7389 26.6364C86.4311 26.8587 86.0207 27.1494 85.5761 27.6453L85.3197 27.5769L83.3019 28.9962L83.4045 28.2096H81.3183L80.0872 35.7848H82.0707L82.7889 31.715C82.7889 31.715 83.0796 31.1508 83.1993 30.9627C83.5755 30.4839 83.9004 30.4839 84.3108 30.4839H84.4647C84.3963 30.9285 84.3621 31.3902 84.3621 31.9373C84.3621 34.3997 85.7472 35.9387 87.9017 35.9387C88.4318 35.9387 88.9106 35.8703 89.6459 35.6822L89.9879 33.5447C89.3552 33.8867 88.7909 34.0577 88.3121 34.0577C87.1493 34.0577 86.4482 33.1685 86.4482 31.7834C86.4482 29.7315 87.4913 28.278 88.979 28.278H88.9961Z" fill="#06326E"/>
<path fill-rule="evenodd" clip-rule="evenodd" d="M105.754 26.4824L105.309 29.1329C104.83 28.4147 104.266 28.0556 103.514 28.0556C102.471 28.0556 101.496 28.6541 100.897 29.7998V29.7656L99.632 29.0132L99.7517 28.2266H97.6313L96.4343 35.8017H98.3837L99.0506 31.732C99.0506 31.732 99.5636 31.1677 99.6833 30.9796C99.991 30.6034 100.316 30.535 100.572 30.5008C100.35 31.1335 100.23 31.8859 100.23 32.7409C100.23 34.639 101.205 35.9043 102.659 35.9043C103.377 35.9043 103.958 35.6478 104.488 35.0494L104.386 35.8017H106.25L107.771 26.4995H105.754V26.4824ZM103.325 33.9892C102.659 33.9892 102.317 33.4762 102.317 32.5015C102.317 31.0138 102.949 29.9537 103.856 29.9537C104.557 29.9537 104.899 30.4837 104.899 31.4413C104.899 32.9632 104.266 33.9892 103.325 33.9892Z" fill="#06326E"/>
<path fill-rule="evenodd" clip-rule="evenodd" d="M94.1942 32.4161C94.0061 32.3819 93.9377 32.3819 93.818 32.3819C92.6894 32.3819 92.1081 32.8265 92.1081 33.5105C92.1081 33.9893 92.3988 34.2971 92.8263 34.2971C93.7667 34.2971 94.16 33.5105 94.1771 32.399L94.1942 32.4161ZM95.7674 35.7847H94.0232L94.0916 34.9981C93.647 35.5966 93.0485 35.9215 92.0055 35.9215C91.0308 35.9215 90.1758 35.1007 90.1758 33.8354C90.1758 32.0399 91.5267 30.9284 93.6812 30.9284C93.9035 30.9284 94.2455 30.9284 94.5362 30.9626C94.6046 30.7061 94.6388 30.6206 94.6388 30.4496C94.6388 29.9366 94.2284 29.7827 93.2879 29.7827C92.7578 29.7827 92.091 29.8853 91.6464 30.0392L91.3898 30.1076L91.2702 30.1418L91.5609 28.4319C92.4842 28.1412 93.134 28.0215 93.8693 28.0215C95.5793 28.0215 96.4514 28.8081 96.4514 30.2615C96.4514 30.6377 96.5198 30.9284 96.3488 31.7492L95.9384 34.4681L95.87 34.9469L95.8016 35.323L95.7674 35.5795V35.8018V35.7847Z" fill="#06326E"/>
<path fill-rule="evenodd" clip-rule="evenodd" d="M68.6647 29.8338C69.0409 29.8338 69.5881 29.868 70.1524 29.9535L70.4431 28.1922C69.8788 28.1238 69.1093 28.0383 68.6818 28.0383C66.4759 28.0383 65.7406 29.2353 65.7406 30.6204C65.7406 31.5438 66.1511 32.1935 67.2284 32.7065C68.0149 33.0827 68.1517 33.1511 68.1517 33.4931C68.1517 33.9719 67.7413 34.2455 66.9889 34.2455C66.3905 34.2455 65.8262 34.1429 65.1935 33.9377L64.9712 35.6648L65.0054 35.699L65.3816 35.7674C65.5013 35.8016 65.6723 35.8358 65.8946 35.87C66.3734 35.9042 66.7837 35.9384 67.0231 35.9384C69.229 35.9384 70.1524 35.0834 70.1524 33.4076C70.1524 32.3645 69.6394 31.7319 68.6647 31.2873C67.8097 30.9111 67.7242 30.8427 67.7242 30.5007C67.7242 30.1587 68.1004 29.8338 68.6989 29.8338H68.6647Z" fill="#06326E"/>
<path fill-rule="evenodd" clip-rule="evenodd" d="M91.6469 26.1746L91.3049 28.1923C90.6038 27.8503 90.1079 27.6794 89.5436 27.6794C88.0559 27.6794 87.0128 29.1328 87.0128 31.1848C87.0128 32.6041 87.7139 33.459 88.8767 33.459C89.3555 33.459 89.9198 33.3051 90.5525 32.9802L90.2105 35.1006C89.4923 35.2887 89.0135 35.3913 88.4834 35.3913C86.346 35.3913 85.0122 33.8523 85.0122 31.3558C85.0122 28.0384 86.8419 25.7129 89.4581 25.7129C89.8001 25.7129 90.125 25.7471 90.3815 25.8155L91.1681 26.0036C91.4246 26.1062 91.4759 26.1233 91.6811 26.1917L91.6469 26.1746Z" fill="white"/>
<path fill-rule="evenodd" clip-rule="evenodd" d="M85.2686 27.5598H85.0805C84.4136 27.5598 84.0374 27.8676 83.4389 28.791L83.627 27.6282H81.8315L80.6003 35.2034H82.5839C83.3021 30.5694 83.5073 29.7828 84.4478 29.7828H84.5675C84.7556 28.8594 85.0121 28.2096 85.3199 27.6111L85.2515 27.5769L85.2686 27.5598Z" fill="white"/>
<path fill-rule="evenodd" clip-rule="evenodd" d="M73.846 35.1007C73.3159 35.2887 72.8712 35.3571 72.4267 35.3571C71.4178 35.3571 70.8535 34.7929 70.8535 33.6814C70.8535 33.4933 70.8877 33.2368 70.9219 33.0145L71.0416 32.2621L71.1442 31.6636L71.9992 26.4824H73.9486L73.7262 27.611H74.7351L74.4786 29.4749H73.4698L72.9397 32.6383C72.9055 32.758 72.9054 32.8606 72.9054 32.9461C72.9054 33.3223 73.0936 33.4762 73.5724 33.4762C73.7947 33.4762 73.9827 33.4762 74.1024 33.4078L73.846 35.0836V35.1007Z" fill="white"/>
<path fill-rule="evenodd" clip-rule="evenodd" d="M66.2365 30.0225C66.2365 30.9629 66.6811 31.6298 67.7242 32.1428C68.545 32.519 68.6647 32.6558 68.6647 32.9636C68.6647 33.4424 68.3227 33.6647 67.5361 33.6647C66.9376 33.6647 66.4075 33.5621 65.7748 33.374L65.4841 35.1011L65.5867 35.1353L65.9287 35.2037C66.0484 35.2379 66.2194 35.2721 66.4588 35.2721C66.9034 35.3405 67.2796 35.3405 67.5361 35.3405C69.6223 35.3405 70.597 34.5539 70.597 32.8097C70.597 31.7666 70.1865 31.1681 69.2118 30.6893C68.3569 30.3132 68.2714 30.2106 68.2714 29.8686C68.2714 29.4582 68.6134 29.2701 69.2461 29.2701C69.6223 29.2701 70.1694 29.3043 70.6653 29.3727L70.956 27.6285C70.4431 27.5259 69.6565 27.4746 69.229 27.4746C67.0231 27.4746 66.2366 28.6374 66.2708 30.0225H66.2365Z" fill="white"/>
<path fill-rule="evenodd" clip-rule="evenodd" d="M106.763 35.2038H104.899L105.001 34.4856C104.471 35.0499 103.89 35.3064 103.172 35.3064C101.718 35.3064 100.778 34.0753 100.778 32.1772C100.778 29.6464 102.266 27.509 103.993 27.509C104.779 27.509 105.343 27.851 105.891 28.5521L106.335 25.9016H108.285L106.763 35.2038ZM103.856 33.4426C104.779 33.4426 105.395 32.3653 105.395 30.8947C105.395 29.92 105.053 29.407 104.352 29.407C103.462 29.407 102.813 30.4501 102.813 31.9378C102.813 32.9467 103.155 33.4597 103.856 33.4597V33.4426Z" fill="white"/>
<path fill-rule="evenodd" clip-rule="evenodd" d="M79.8993 35.0324C79.1982 35.2547 78.5827 35.3402 77.8474 35.3402C75.6415 35.3402 74.4958 34.1775 74.4958 31.9374C74.4958 29.3554 75.9493 27.4231 77.9328 27.4231C79.5744 27.4231 80.6175 28.5004 80.6175 30.1761C80.6175 30.7404 80.5491 31.2876 80.361 32.0742H76.4452C76.411 32.1768 76.411 32.2281 76.411 32.2965C76.411 33.1857 77.0095 33.6303 78.1552 33.6303C78.8733 33.6303 79.506 33.5106 80.2071 33.1515L79.8993 35.0495V35.0324ZM78.7878 30.5181V30.1419C78.7878 29.5093 78.4459 29.1673 77.8474 29.1673C77.2147 29.1673 76.7701 29.6461 76.582 30.5181H78.7878Z" fill="white"/>
<path fill-rule="evenodd" clip-rule="evenodd" d="M58.6957 35.2038H56.7464L57.8749 28.0391L55.3271 35.2038H53.9762L53.8223 28.1075L52.6253 35.2038H50.7957L52.3346 25.9016H55.1732L55.2758 31.6813L57.1738 25.9016H60.2689L58.7299 35.2038H58.6957Z" fill="white"/>
<path fill-rule="evenodd" clip-rule="evenodd" d="M63.5863 31.8177C63.3982 31.8177 63.2956 31.7835 63.1417 31.7835C62.0302 31.7835 61.4659 32.1939 61.4659 32.9463C61.4659 33.4251 61.7224 33.6987 62.167 33.6987C62.9878 33.6987 63.5521 32.9463 63.5863 31.8006V31.8177ZM65.0398 35.1863H63.3982L63.4324 34.3997C62.9194 35.0324 62.2697 35.3231 61.3463 35.3231C60.269 35.3231 59.5508 34.5023 59.5508 33.2712C59.5508 31.4073 60.8162 30.33 63.022 30.33C63.2443 30.33 63.535 30.3642 63.8428 30.3984C63.9112 30.1419 63.9112 30.0564 63.9112 29.9196C63.9112 29.4066 63.5692 29.2185 62.6458 29.2185C62.0815 29.2185 61.4489 29.2869 61.0043 29.4066L60.7136 29.5092L60.5255 29.5434L60.8162 27.8335C61.7909 27.5428 62.4577 27.4573 63.1759 27.4573C64.8859 27.4573 65.7921 28.2097 65.7921 29.6631C65.7921 30.0393 65.758 30.33 65.6383 31.185L65.1937 33.8697L65.1253 34.3484L65.0911 34.7246L65.0569 35.0153L65.0227 35.2034L65.0398 35.1863Z" fill="white"/>
<path fill-rule="evenodd" clip-rule="evenodd" d="M94.8272 31.8177C94.6049 31.8177 94.5194 31.7835 94.3826 31.7835C93.2541 31.7835 92.6727 32.1939 92.6727 32.9463C92.6727 33.4251 92.9634 33.6987 93.3909 33.6987C94.1775 33.6987 94.7759 32.9463 94.8101 31.8006L94.8272 31.8177ZM96.2807 35.1863H94.6392L94.6734 34.3997C94.1604 35.0324 93.5106 35.3231 92.5872 35.3231C91.5099 35.3231 90.7917 34.5023 90.7917 33.2712C90.7917 31.4073 92.0571 30.33 94.263 30.33C94.4853 30.33 94.776 30.3642 95.0495 30.3984C95.1179 30.1419 95.1521 30.0564 95.1521 29.9196C95.1521 29.4066 94.8102 29.2185 93.8868 29.2185C93.3225 29.2185 92.6556 29.2869 92.211 29.4066L91.9545 29.5092L91.7664 29.5434L92.0571 27.8335C93.0318 27.5428 93.6987 27.4573 94.4169 27.4573C96.1268 27.4573 96.9989 28.2097 96.9989 29.6631C96.9989 30.0393 96.9989 30.33 96.845 31.185L96.4346 33.8697L96.3662 34.3484L96.2978 34.7246L96.2636 35.0153V35.2034L96.2807 35.1863Z" fill="white"/>
<path fill-rule="evenodd" clip-rule="evenodd" d="M101.582 27.5598H101.393C100.727 27.5598 100.35 27.8676 99.7519 28.791L99.94 27.6282H98.1445L96.9475 35.2034H98.8969C99.6151 30.5694 99.8203 29.7828 100.761 29.7828H100.88C101.069 28.8594 101.325 28.2096 101.633 27.6111L101.564 27.5769L101.582 27.5598Z" fill="white"/>
</svg>
