<svg width="160" height="60" viewBox="0 0 160 60" fill="none" xmlns="http://www.w3.org/2000/svg">
<rect y="-0.000976562" width="160" height="60" rx="30" fill="#F2F2F2"/>
<path d="M103.379 22.705C102.841 18.5009 101.334 14.677 98.6938 11.879C95.8959 9.23893 92.0648 7.73234 87.8607 7.19427C83.8216 6.6562 81.0739 6.82121 81.0739 6.82121C81.0739 6.82121 78.3262 6.7136 74.2871 7.19427C70.0901 7.73234 66.2663 9.23893 63.4683 11.879C60.8282 14.677 59.3216 18.508 58.7836 22.7121C58.2455 26.7512 58.3531 29.499 58.3531 29.499C58.3531 29.499 58.2455 32.2467 58.7333 36.2858C59.2714 40.4899 60.778 44.3137 63.4181 47.1189C66.2232 49.759 70.0471 51.2656 74.2512 51.8036C78.2903 52.3417 81.038 52.1839 81.038 52.1839C81.038 52.1839 83.7858 52.2915 87.8248 51.8036C92.0289 51.2656 95.8528 49.759 98.6579 47.1189C101.298 44.3209 102.805 40.4899 103.343 36.2858C103.881 32.2467 103.723 29.499 103.723 29.499C103.723 29.499 103.938 26.7512 103.4 22.7121" fill="#1E4BC6"/>
<path d="M66.7397 22.87V34.7792H68.9494V31.3858H70.7788C71.4245 31.3858 72.02 31.2782 72.5007 31.0629C73.0029 30.8405 73.462 30.532 73.8494 30.1446C74.244 29.7644 74.5597 29.3053 74.7677 28.7959C75.1982 27.7269 75.1982 26.5288 74.7677 25.4527C74.3301 24.4411 73.5194 23.6304 72.5078 23.1928C71.9626 22.9704 71.3743 22.8628 70.786 22.87H66.7397ZM68.892 24.8644H70.6138C70.9295 24.8644 71.238 24.9146 71.5321 25.0294C71.7976 25.137 72.0343 25.302 72.2352 25.5173C72.4074 25.7325 72.558 25.9692 72.6657 26.2203C72.8809 26.7727 72.8809 27.3897 72.6657 27.9421C72.5724 28.2076 72.4289 28.4443 72.2352 28.6452C72.0415 28.8533 71.7976 29.0183 71.5321 29.1331C71.2452 29.2407 70.9367 29.2981 70.621 29.2981H68.8992L68.892 24.8644ZM80.2058 25.1872C79.596 25.1872 78.9933 25.2949 78.4266 25.5101C77.8885 25.7253 77.3504 25.9979 76.92 26.4284C76.4752 26.8588 76.1093 27.3682 75.8438 27.935C75.5712 28.5304 75.4708 29.2263 75.4708 29.9796C75.4636 30.6827 75.6143 31.3858 75.9012 32.0243C76.1667 32.591 76.5326 33.1004 76.9774 33.5309C77.4293 33.9183 77.9315 34.2268 78.484 34.4492C79.0364 34.6572 79.6175 34.772 80.2058 34.772C80.7941 34.7792 81.3824 34.6716 81.9276 34.4492C82.4657 34.1766 82.9535 33.8537 83.2764 33.4233V34.772H85.486V25.1872H83.2835V26.4284C82.9033 26.0338 82.4441 25.7253 81.9348 25.5101C81.4541 25.2949 80.8586 25.1872 80.2058 25.1872ZM86.2465 25.2375L90.1277 34.3416L88.1333 39.1339H90.3932L96.0537 25.2375H93.7364L91.2613 31.7588L88.5709 25.2375H86.2465ZM80.586 27.2319C80.9662 27.2319 81.3393 27.2893 81.7195 27.5045C82.0639 27.6337 82.3724 27.8417 82.6378 28.0928C82.9105 28.308 83.0683 28.6309 83.2333 28.9537C83.3983 29.2766 83.4485 29.6568 83.4485 30.0298C83.4485 30.4029 83.3911 30.7831 83.2333 31.106C83.0898 31.4216 82.8889 31.7158 82.6378 31.9669C82.3652 32.2395 82.0496 32.3973 81.7195 32.5624C81.3895 32.7274 81.0165 32.7776 80.586 32.7776C80.1986 32.7704 79.8184 32.6987 79.4525 32.5624C79.1296 32.3973 78.8068 32.2395 78.5342 31.9669C78.3046 31.6871 78.1109 31.3786 77.9459 31.0558C77.7881 30.7329 77.7307 30.3527 77.7307 29.9796C77.7307 29.6066 77.7881 29.2263 77.9459 28.9035C78.0535 28.5807 78.2687 28.308 78.5414 28.0426C78.7996 27.7843 79.1153 27.5834 79.4525 27.4471C79.8184 27.3036 80.1986 27.2247 80.586 27.2319Z" fill="white"/>
</svg>
