<svg width="68" height="68" viewBox="0 0 68 68" fill="none" xmlns="http://www.w3.org/2000/svg">
<path d="M20.0309 43.749C20.0309 42.6197 19.2473 41.9463 17.8647 41.9463C17.3001 41.9463 16.9178 42.002 16.7178 42.0553V45.6786C16.9546 45.7319 17.2457 45.7497 17.6469 45.7497C19.1206 45.7497 20.0309 45.0051 20.0309 43.749Z" fill="#5264AE"/>
<path d="M28.5899 41.9844C27.9708 41.9844 27.5706 42.0378 27.334 42.0933V50.1177C27.5708 50.1733 27.9531 50.1733 28.2988 50.1733C30.8106 50.1911 32.4487 48.8085 32.4487 45.8789C32.4665 43.3313 30.9737 41.9844 28.5899 41.9844Z" fill="#5264AE"/>
<path d="M44.4915 0H17.18C13.19 0 9.9426 3.24965 9.9426 7.23736V33.9999H9.23572C7.62535 33.9999 6.31934 35.3046 6.31934 36.9164V54.6031C6.31934 56.2147 7.62521 57.5193 9.23572 57.5193H9.9426V60.7625C9.9426 64.7546 13.19 67.9999 17.18 67.9999H54.4454C58.4328 67.9999 61.6806 64.7544 61.6806 60.7625V17.1289L44.4915 0ZM13.9702 40.1082C14.8249 39.9638 16.0263 39.8549 17.7189 39.8549C19.4294 39.8549 20.6485 40.1814 21.4676 40.8372C22.2501 41.4553 22.7782 42.4754 22.7782 43.6759C22.7782 44.8761 22.378 45.8965 21.65 46.5878C20.7031 47.4791 19.3027 47.8793 17.6646 47.8793C17.3 47.8793 16.9732 47.8612 16.7176 47.8258V52.2115H13.9702V40.1082ZM54.4454 63.5676H17.18C15.635 63.5676 14.377 62.3096 14.377 60.7625V57.5193H49.116C50.7267 57.5193 52.0325 56.2147 52.0325 54.6031V36.9164C52.0325 35.3046 50.7267 33.9999 49.116 33.9999H14.377V7.23736C14.377 5.69469 15.6352 4.43663 17.18 4.43663L42.8333 4.40983V13.8922C42.8333 16.6619 45.0806 18.9113 47.8524 18.9113L57.1415 18.8847L57.246 60.7624C57.246 62.3095 55.9902 63.5676 54.4454 63.5676ZM24.5497 52.1559V40.1082C25.5687 39.946 26.8969 39.8549 28.2985 39.8549C30.6279 39.8549 32.1384 40.2728 33.322 41.164C34.5957 42.1109 35.3958 43.6203 35.3958 45.7874C35.3958 48.1347 34.5412 49.7552 33.3574 50.7553C32.0659 51.8289 30.1 52.338 27.6983 52.338C26.26 52.338 25.241 52.2469 24.5497 52.1559ZM44.4117 45.023V47.279H40.0071V52.2115H37.223V39.946H44.7206V42.2198H40.0071V45.023H44.4117Z" fill="#5264AE"/>
</svg>
