<svg width="50" height="44" viewBox="0 0 50 44" fill="none" xmlns="http://www.w3.org/2000/svg">
<path d="M50.0001 10.2502C49.9418 15.9252 45.3251 20.5003 39.65 20.5003H34.3999L28.9665 25.9337C28.3915 26.5087 27.4664 26.5004 26.8914 25.9337C26.6164 25.6587 26.4664 25.2837 26.4664 24.9004V20.4003C20.8664 19.5586 17.008 14.3336 17.8496 8.73347C18.5996 3.74173 22.8747 0.0333338 27.9248 0H39.65C45.3251 0 49.9501 4.57507 50.0001 10.2502ZM29.3915 10.2502C29.3915 9.44181 28.7331 8.78347 27.9248 8.7918C27.1164 8.80014 26.4581 9.45015 26.4664 10.2585C26.4664 11.0668 27.1248 11.7169 27.9248 11.7169C28.7331 11.7169 29.3915 11.0668 29.3915 10.2585V10.2502ZM35.2499 10.2502C35.2499 9.44181 34.5916 8.78347 33.7832 8.78347C32.9749 8.78347 32.3165 9.44181 32.3165 10.2502C32.3165 11.0585 32.9749 11.7169 33.7832 11.7169C34.5916 11.7169 35.2499 11.0585 35.2499 10.2502ZM41.1083 10.2502C41.1083 9.44181 40.45 8.78347 39.6416 8.78347C38.8333 8.78347 38.1749 9.44181 38.1749 10.2502C38.1749 11.0585 38.8333 11.7169 39.6416 11.7169C40.45 11.7169 41.1083 11.0585 41.1083 10.2502Z" fill="#5264AE"/>
<path d="M0 11.1085C0 8.69176 1.9667 6.7334 4.39173 6.7334H10.3502C10.9835 6.7334 11.5418 7.1334 11.7418 7.73341L14.6669 16.5002C14.8086 16.9252 14.7502 17.4002 14.5002 17.7752L12.0168 21.5003C14.4169 25.9587 18.0669 29.6171 22.5337 32.0171L26.2587 29.5337C26.6337 29.2837 27.1087 29.2254 27.5337 29.3671L36.3005 32.3005C36.9006 32.5005 37.3006 33.0588 37.3006 33.6921V39.5506C37.3006 41.9756 35.3339 43.9423 32.9088 43.9423C16.0336 43.9423 0 27.9837 0 11.1085Z" fill="#5264AE"/>
</svg>
