<svg width="20" height="20" viewBox="0 0 20 20" fill="none" xmlns="http://www.w3.org/2000/svg">
<path d="M19.4296 14.1329L15.0546 12.2579C14.8677 12.1783 14.6599 12.1615 14.4627 12.2101C14.2654 12.2587 14.0893 12.3701 13.9608 12.5275L12.0233 14.8947C8.98248 13.461 6.53535 11.0139 5.10165 7.97308L7.46888 6.03554C7.62657 5.90729 7.73818 5.73115 7.78681 5.53379C7.83545 5.33644 7.81846 5.12861 7.73842 4.94177L5.86338 0.566697C5.77554 0.36529 5.62016 0.200849 5.42406 0.101727C5.22796 0.00260557 5.00341 -0.024983 4.78915 0.0237185L0.726575 0.961235C0.519997 1.00894 0.335688 1.12525 0.203728 1.2912C0.0717689 1.45714 -4.75872e-05 1.66291 2.36575e-08 1.87492C2.36575e-08 11.8946 8.12123 20.0002 18.1253 20.0002C18.3374 20.0004 18.5433 19.9286 18.7093 19.7966C18.8753 19.6647 18.9917 19.4803 19.0394 19.2737L19.9769 15.2111C20.0253 14.9958 19.9971 14.7703 19.8972 14.5736C19.7973 14.3768 19.632 14.221 19.4296 14.1329Z" fill="#333343"/>
</svg>
