<svg width="456" height="300" viewBox="0 0 456 300" fill="none" xmlns="http://www.w3.org/2000/svg">
<g clip-path="url(#clip0_0_1383)">
<mask id="mask0_0_1383" style="mask-type:luminance" maskUnits="userSpaceOnUse" x="-6" y="0" width="457" height="300">
<path d="M430.96 0H14.96C3.91433 0 -5.03998 8.9543 -5.03998 20V280C-5.03998 291.046 3.91433 300 14.96 300H430.96C442.006 300 450.96 291.046 450.96 280V20C450.96 8.9543 442.006 0 430.96 0Z" fill="white"/>
</mask>
<g mask="url(#mask0_0_1383)">
<path d="M35.77 283.169H18.54V322.869H35.77V283.169Z" fill="#F0F3FF"/>
<path d="M94.22 283.169H76.99V322.869H94.22V283.169Z" fill="#F0F3FF"/>
<path d="M65 247.029H47.77V322.869H65V247.029Z" fill="#F0F3FF"/>
<path d="M123.45 247.029H106.22V322.869H123.45V247.029Z" fill="#F0F3FF"/>
<path d="M152.68 249.199H135.45V322.869H152.68V249.199Z" fill="#F0F3FF"/>
<path d="M211.13 249.199H193.9V322.869H211.13V249.199Z" fill="#F0F3FF"/>
<path d="M269.59 249.199H252.36V322.869H269.59V249.199Z" fill="#F0F3FF"/>
<path d="M181.91 210.539H164.68V322.869H181.91V210.539Z" fill="#F0F3FF"/>
<path d="M240.36 221.529H223.13V322.869H240.36V221.529Z" fill="#F0F3FF"/>
<path d="M355.93 249.199H338.7V322.869H355.93V249.199Z" fill="#F0F3FF"/>
<path d="M326.7 263.339H309.47V322.869H326.7V263.339Z" fill="#F0F3FF"/>
<path d="M417.06 209.889H399.83V322.879H417.06V209.889Z" fill="#F0F3FF"/>
<path d="M387.84 263.339H370.61V322.869H387.84V263.339Z" fill="#F0F3FF"/>
<path d="M446.32 263.339H429.09V322.869H446.32V263.339Z" fill="#F0F3FF"/>
<path d="M298.82 237.059H281.59V322.869H298.82V237.059Z" fill="#F0F3FF"/>
<path d="M176.3 210.539C176.3 212.989 174.32 214.969 171.87 214.969C169.42 214.969 167.44 212.989 167.44 210.539C167.44 208.089 169.42 206.109 171.87 206.109C174.32 206.109 176.3 208.089 176.3 210.539Z" fill="#F0F3FF"/>
<path d="M171.87 218.589C167.43 218.589 163.82 214.979 163.82 210.539C163.82 206.099 167.43 202.489 171.87 202.489C176.31 202.489 179.92 206.099 179.92 210.539C179.92 214.979 176.31 218.589 171.87 218.589ZM171.87 203.139C167.79 203.139 164.47 206.459 164.47 210.539C164.47 214.619 167.79 217.939 171.87 217.939C175.95 217.939 179.27 214.619 179.27 210.539C179.27 206.459 175.95 203.139 171.87 203.139Z" fill="#F0F3FF"/>
<path d="M175.41 199.249L175.18 190.519L177.36 190.559L173.29 185.589L169.22 190.599L171.48 190.619L171.7 199.219L175.41 199.249Z" fill="#F0F3FF"/>
<path d="M32.06 265.029C32.06 267.479 30.08 269.459 27.63 269.459C25.18 269.459 23.2 267.479 23.2 265.029C23.2 262.579 25.18 260.599 27.63 260.599C30.08 260.599 32.06 262.579 32.06 265.029Z" fill="#F0F3FF"/>
<path d="M27.63 273.239C23.19 273.239 19.58 269.629 19.58 265.189C19.58 260.749 23.19 257.139 27.63 257.139C32.07 257.139 35.68 260.749 35.68 265.189C35.68 269.629 32.07 273.239 27.63 273.239ZM27.63 257.789C23.55 257.789 20.23 261.109 20.23 265.189C20.23 269.269 23.55 272.589 27.63 272.589C31.71 272.589 35.03 269.269 35.03 265.189C35.03 261.109 31.71 257.789 27.63 257.789Z" fill="#F0F3FF"/>
<path d="M24.95 237.549L25.19 246.619L22.92 246.589L27.15 251.759L31.38 246.539L29.04 246.519L28.8 237.579L24.95 237.549Z" fill="#F0F3FF"/>
<path d="M259.41 218.589L259.65 227.659L257.38 227.619L261.61 232.789L265.84 227.569L263.5 227.559L263.26 218.609L259.41 218.589Z" fill="#F0F3FF"/>
<path d="M312.77 298.939L260.88 250.269C228.01 234.399 177.25 210.999 171.33 211.329C164.7 211.719 38.87 261.339 -9.06 280.429L-10 278.059C-2.95 275.249 162.78 209.279 171.18 208.779C171.24 208.779 171.3 208.779 171.36 208.779C180.57 208.779 253.79 244.009 262.16 248.049L262.48 248.269L313.19 295.829C322.81 290.749 377.95 261.659 378.89 261.239C379.22 261.099 380.09 260.739 455.92 260.749V263.299C426.83 263.279 383.11 263.359 379.79 263.639C376.91 265.099 335.53 286.919 313.58 298.509L312.78 298.929L312.77 298.939Z" fill="#F0F3FF"/>
<path d="M266.04 248.119C266.04 250.569 264.06 252.549 261.61 252.549C259.16 252.549 257.18 250.569 257.18 248.119C257.18 245.669 259.16 243.689 261.61 243.689C264.06 243.689 266.04 245.669 266.04 248.119Z" fill="#F0F3FF"/>
<path d="M261.61 256.329C257.17 256.329 253.56 252.719 253.56 248.279C253.56 243.839 257.17 240.229 261.61 240.229C266.05 240.229 269.66 243.839 269.66 248.279C269.66 252.719 266.05 256.329 261.61 256.329ZM261.61 240.879C257.53 240.879 254.21 244.199 254.21 248.279C254.21 252.359 257.53 255.679 261.61 255.679C265.69 255.679 269.01 252.359 269.01 248.279C269.01 244.199 265.69 240.879 261.61 240.879Z" fill="#F0F3FF"/>
<path d="M383.83 261.329C383.83 263.779 381.85 265.759 379.4 265.759C376.95 265.759 374.97 263.779 374.97 261.329C374.97 258.879 376.95 256.899 379.4 256.899C381.85 256.899 383.83 258.879 383.83 261.329Z" fill="#F0F3FF"/>
<path d="M379.4 269.539C374.96 269.539 371.35 265.929 371.35 261.489C371.35 257.049 374.96 253.439 379.4 253.439C383.84 253.439 387.45 257.049 387.45 261.489C387.45 265.929 383.84 269.539 379.4 269.539ZM379.4 254.089C375.32 254.089 372 257.409 372 261.489C372 265.569 375.32 268.889 379.4 268.889C383.48 268.889 386.8 265.569 386.8 261.489C386.8 257.409 383.48 254.089 379.4 254.089Z" fill="#F0F3FF"/>
<path d="M377.02 234.999L377.25 244.069L374.99 244.029L379.22 249.199L383.45 243.989L381.1 243.969L380.87 235.019L377.02 234.999Z" fill="#F0F3FF"/>
<path d="M309.03 198.129L312.63 202.629V194.889H323.96C323.96 194.889 325.22 212.609 324.95 216.389C324.86 217.709 324.28 219.889 323.56 222.169C322.08 226.889 316.12 228.369 312.58 224.919C311.39 223.759 310.18 222.449 309.03 220.979C303.99 214.509 295.63 198.729 295.63 198.729L304.36 193.459L309.04 198.139L309.03 198.129Z" fill="#FFBE9D"/>
<path d="M308.31 197.299C308.25 197.349 308.84 198.089 309.79 199.279C310.74 200.459 312.07 202.099 313.58 203.859C315.1 205.619 316.52 207.179 317.63 208.229C318.73 209.289 319.51 209.839 319.55 209.789C319.6 209.729 318.92 209.089 317.89 207.969C316.86 206.859 315.48 205.269 313.97 203.509C310.97 199.969 308.42 197.179 308.29 197.299H308.31Z" fill="#EB996E"/>
<path d="M370 97.0294L370.51 138.189C370.6 145.189 369.29 155.489 358.22 155.119C348.64 154.079 346.1 145.009 346.02 138.469C345.98 135.369 345.95 132.789 345.92 132.469C345.92 132.469 335.43 131.609 334.54 121.249C334.11 116.239 334.07 105.859 334.14 96.4594C334.22 86.3694 342.04 78.0294 352.1 77.2994L353.1 77.2294C363.94 77.0694 370.12 86.1894 369.98 97.0194L370 97.0294Z" fill="#FFBE9D"/>
<path d="M345.93 132.479C345.93 132.479 352.49 132.389 359.14 127.499C359.14 127.499 356.4 135.319 345.98 135.139L345.93 132.479Z" fill="#EB996E"/>
<path d="M351.87 100.719C352.08 100.929 353.27 99.9694 355.01 99.9194C356.74 99.8494 358.04 100.729 358.22 100.499C358.31 100.399 358.1 100.019 357.53 99.6194C356.97 99.2194 356.03 98.8494 354.95 98.8894C353.87 98.9294 352.97 99.3594 352.46 99.7994C351.94 100.239 351.77 100.629 351.87 100.719Z" fill="#263238"/>
<path d="M350.92 104.909C350.95 105.649 351.6 106.239 352.37 106.219C353.14 106.209 353.75 105.589 353.72 104.849C353.69 104.109 353.04 103.519 352.27 103.529C351.5 103.539 350.89 104.159 350.92 104.899V104.909Z" fill="#263238"/>
<path d="M347.53 112.789C347.53 112.699 346.53 112.599 344.91 112.509C344.5 112.499 344.11 112.449 344.02 112.169C343.9 111.879 344.04 111.429 344.2 110.939C344.51 109.929 344.84 108.869 345.18 107.749C346.53 103.219 347.47 99.4995 347.29 99.4495C347.11 99.3995 345.86 103.029 344.52 107.559C344.2 108.679 343.89 109.739 343.59 110.759C343.47 111.229 343.24 111.779 343.5 112.369C343.63 112.669 343.95 112.859 344.21 112.919C344.48 112.979 344.71 112.969 344.91 112.969C346.53 112.939 347.53 112.869 347.53 112.779V112.789Z" fill="#263238"/>
<path d="M352.61 93.3294C352.78 93.7194 354.17 93.4294 355.83 93.5094C357.5 93.5594 358.86 93.9594 359.05 93.5894C359.14 93.4094 358.88 93.0594 358.31 92.7194C357.75 92.3794 356.87 92.0794 355.87 92.0294C354.87 91.9894 353.98 92.2194 353.4 92.5194C352.81 92.8194 352.53 93.1494 352.6 93.3294H352.61Z" fill="#263238"/>
<path d="M336.13 95.9294C336.31 96.2394 337.67 95.8994 339.31 95.8394C340.95 95.7594 342.31 95.9994 342.49 95.6694C342.57 95.5094 342.3 95.2294 341.72 94.9794C341.15 94.7294 340.28 94.5394 339.29 94.5794C338.31 94.6194 337.44 94.8794 336.88 95.1694C336.32 95.4594 336.05 95.7694 336.13 95.9194V95.9294Z" fill="#263238"/>
<path d="M369.72 104.769C369.89 104.679 376.69 102.139 376.98 109.249C377.27 116.359 370.08 115.179 370.06 114.979C370.04 114.779 369.72 104.769 369.72 104.769Z" fill="#FFBE9D"/>
<path d="M372.12 112.199C372.12 112.199 372.25 112.279 372.46 112.369C372.67 112.459 373.02 112.509 373.39 112.349C374.13 112.039 374.71 110.829 374.69 109.539C374.69 108.889 374.52 108.279 374.27 107.779C374.03 107.269 373.68 106.919 373.3 106.869C372.92 106.799 372.66 107.039 372.58 107.239C372.49 107.439 372.54 107.579 372.51 107.599C372.49 107.619 372.35 107.489 372.4 107.189C372.42 107.049 372.5 106.879 372.66 106.729C372.82 106.579 373.07 106.499 373.34 106.519C373.89 106.539 374.4 107.019 374.68 107.569C374.99 108.119 375.18 108.809 375.19 109.529C375.2 110.959 374.52 112.329 373.51 112.669C373.02 112.819 372.59 112.689 372.37 112.529C372.14 112.359 372.1 112.209 372.12 112.189V112.199Z" fill="#EB996E"/>
<path d="M349.2 117.709C349.12 117.529 350.51 117.109 351.49 115.809C351.98 115.169 352.26 114.469 352.47 113.949C352.68 113.429 352.83 113.109 352.91 113.129C352.98 113.149 352.96 113.499 352.85 114.059C352.73 114.609 352.49 115.409 351.94 116.139C351.39 116.879 350.66 117.319 350.12 117.529C349.58 117.749 349.21 117.759 349.19 117.699L349.2 117.709Z" fill="#263238"/>
<path d="M320.4 87.1694C320.51 86.7494 320.82 86.4094 321.19 86.1894C322 85.7094 322.94 85.7694 323.84 85.7594C326.59 85.7194 329.32 84.8794 331.63 83.3894C332.71 81.8294 333.93 80.3594 335.26 78.9994C338.4 75.7594 340.98 73.5594 343.66 72.4794C347.12 71.0894 352.9 70.5194 356.5 71.4694C360.11 72.4194 363.34 75.3394 363.84 79.0294C365.86 77.3194 368.9 77.3394 371.36 78.3294L371.42 78.2994C374.16 79.2794 375.72 82.1694 376.53 84.9694C377.34 87.7694 377.68 90.7594 379.17 93.2594C379.48 93.7794 379.85 94.4094 379.58 94.9594C379.37 95.3794 378.84 95.5594 378.37 95.4894C377.9 95.4194 377.49 95.1594 377.09 94.9094C377.4 95.6394 377.7 96.3694 378.01 97.1094C377.02 97.2794 375.99 97.1994 375.03 96.9094C374.45 99.5294 373.75 102.509 373.08 104.279C371.93 104.279 370.88 104.359 370.18 104.989C369.22 105.849 368.79 107.479 367.19 106.859C366.38 106.549 365.64 104.839 365.36 104.009C363.56 98.5194 362.96 92.6394 363.61 86.8894C362.47 85.6794 361.1 84.6894 359.6 83.9894L359.72 84.0994C356.82 83.0894 353.55 82.1094 350.8 83.4594C348.67 84.5094 347.42 86.7294 345.82 88.4894C342.8 91.8294 338.73 93.6494 334.23 93.8494C334.08 96.7694 334.32 100.889 334.17 103.809L331.72 99.1394V99.1594C331.52 98.8194 331.35 98.4694 331.19 98.1294L331.14 98.0294C330.88 97.4594 330.64 96.9094 330.32 96.3594C330.32 96.3594 330.3 96.3794 330.29 96.3794C328.71 97.7694 326.38 95.6394 327.63 93.9394C327.88 93.5994 328.17 93.2994 328.51 93.0494C327.79 93.7294 326.71 94.0494 325.76 93.7594C324.81 93.4694 324.08 92.5094 324.16 91.5194C324.22 90.8494 324.7 90.2394 325.31 89.9794C324.03 90.0794 322.73 89.7994 321.61 89.1694C320.88 88.7494 320.16 88.0694 320.41 87.1494L320.4 87.1694Z" fill="#363644"/>
<path d="M360.58 80.2194C360.58 80.2194 361.01 80.4893 361.62 81.1693C362.22 81.8393 362.89 83.0194 363.21 84.6094C363.37 85.3994 363.48 86.2893 363.47 87.2393C363.47 88.1893 363.4 89.2194 363.32 90.2894C363.25 91.3694 363.17 92.5093 363.24 93.6893C363.27 94.2793 363.35 94.8793 363.47 95.4793C363.6 96.0693 363.76 96.7094 364.2 97.2194C364.56 97.6294 365.15 97.8194 365.66 97.7094C366.18 97.6194 366.64 97.3394 366.98 96.9694C367.65 96.1894 367.81 95.1993 367.98 94.3293L367.76 94.3594C368.12 95.1394 368.48 95.9094 369.02 96.5294C369.55 97.1494 370.29 97.5593 371.04 97.6293C371.41 97.6593 371.79 97.5993 372.11 97.4393C372.44 97.2793 372.67 97.0094 372.84 96.7194C373 96.4294 373.08 96.1093 373.06 95.7993C373.04 95.4893 372.92 95.1993 372.73 94.9893L372.62 95.0893C373.42 95.9993 374.26 96.4893 374.85 96.7593C375.14 96.8993 375.38 96.9794 375.54 97.0294C375.7 97.0793 375.79 97.0993 375.79 97.0893C375.79 97.0893 375.71 97.0493 375.56 96.9893C375.41 96.9293 375.18 96.8293 374.89 96.6893C374.32 96.3993 373.51 95.8994 372.74 94.9994L372.63 95.0993C372.98 95.4693 373 96.1194 372.7 96.6394C372.55 96.8994 372.33 97.1393 372.04 97.2693C371.75 97.4093 371.41 97.4594 371.07 97.4294C370.38 97.3594 369.7 96.9794 369.2 96.3894C368.69 95.7994 368.34 95.0493 367.99 94.2693L367.84 93.9393L367.77 94.2993C367.6 95.1693 367.43 96.1194 366.82 96.8194C366.52 97.1594 366.1 97.4093 365.64 97.4893C365.19 97.5793 364.71 97.4294 364.4 97.0694C364.01 96.6294 363.85 96.0193 363.72 95.4393C363.59 94.8493 363.52 94.2694 363.49 93.6794C363.42 92.5194 363.49 91.3893 363.55 90.3093C363.62 89.2293 363.69 88.2093 363.67 87.2393C363.67 86.2693 363.55 85.3694 363.37 84.5694C363.03 82.9494 362.31 81.7694 361.68 81.0993C361.04 80.4293 360.57 80.2094 360.57 80.2094L360.58 80.2194Z" fill="#455A64"/>
<path d="M328.52 90.3093C328.52 90.3093 328.55 90.3393 328.6 90.3793C328.67 90.4293 328.75 90.4893 328.86 90.5693C328.97 90.6493 329.12 90.7493 329.3 90.8493C329.48 90.9493 329.68 91.0793 329.93 91.1793C330.89 91.6393 332.44 92.0893 334.37 91.9793C336.28 91.8693 338.58 91.1993 340.63 89.6693C342.7 88.1793 344.52 85.9893 346 83.4793C346.75 82.2293 347.37 80.9393 348.05 79.7493C348.72 78.5593 349.47 77.4593 350.37 76.5893C351.26 75.7193 352.29 75.0693 353.36 74.7793C353.89 74.6193 354.42 74.5893 354.93 74.5993C355.44 74.6293 355.93 74.7293 356.37 74.8793C357.26 75.1793 357.98 75.6693 358.53 76.1793C359.08 76.6893 359.45 77.2293 359.7 77.6993C360.17 78.6493 360.2 79.2593 360.23 79.2493C360.23 79.2493 360.23 79.2093 360.23 79.1393C360.22 79.0493 360.2 78.9493 360.18 78.8193C360.13 78.5393 360.01 78.1393 359.79 77.6493C359.55 77.1693 359.18 76.6093 358.63 76.0793C358.08 75.5493 357.35 75.0293 356.43 74.7193C355.97 74.5593 355.47 74.4493 354.94 74.4193C354.41 74.3993 353.85 74.4393 353.3 74.5893C352.19 74.8893 351.13 75.5493 350.21 76.4393C349.28 77.3193 348.52 78.4393 347.84 79.6393C347.15 80.8393 346.54 82.1193 345.79 83.3593C344.32 85.8493 342.52 88.0193 340.49 89.4993C338.48 91.0093 336.24 91.6893 334.36 91.8193C332.46 91.9493 330.94 91.5293 329.97 91.1093C329 90.6793 328.54 90.2893 328.52 90.3193V90.3093Z" fill="#455A64"/>
<path d="M327.57 85.7494C327.57 85.7494 327.69 85.8594 327.94 86.0094C328.19 86.1694 328.56 86.3594 329.04 86.5694C329.52 86.7794 330.11 86.9794 330.78 87.1394C331.45 87.2894 332.21 87.4094 333.01 87.4394C333.81 87.4594 334.57 87.3994 335.25 87.2894C335.93 87.1694 336.54 87.0094 337.03 86.8294C337.52 86.6494 337.91 86.4794 338.16 86.3394C338.42 86.1994 338.55 86.1194 338.55 86.1094C338.53 86.0694 337.96 86.3594 336.98 86.6694C336.49 86.8294 335.89 86.9594 335.22 87.0694C334.55 87.1594 333.8 87.2194 333.02 87.1994C332.24 87.1694 331.5 87.0694 330.83 86.9294C330.17 86.7794 329.58 86.5994 329.1 86.4194C328.14 86.0494 327.59 85.7194 327.56 85.7594L327.57 85.7494Z" fill="#455A64"/>
<path d="M336.05 100.719C336.26 100.929 337.45 99.9693 339.19 99.9193C340.92 99.8493 342.22 100.729 342.4 100.499C342.49 100.399 342.28 100.019 341.71 99.6193C341.15 99.2193 340.21 98.8493 339.13 98.8893C338.05 98.9293 337.15 99.3593 336.64 99.7993C336.12 100.239 335.95 100.629 336.05 100.719Z" fill="#263238"/>
<path d="M336.41 104.909C336.44 105.649 337.09 106.239 337.86 106.219C338.63 106.209 339.24 105.589 339.21 104.849C339.18 104.109 338.53 103.519 337.76 103.529C336.99 103.539 336.38 104.159 336.41 104.899V104.909Z" fill="#263238"/>
<path d="M321.8 254.219C321.82 255.489 326.74 430.619 326.74 430.619H353.05L358.38 280.809C358.38 280.809 364.6 359.139 364.6 360.829C364.6 362.519 370.09 431.459 370.09 431.459L394.48 429.469L392.88 271.739L389.9 248.609L321.8 254.209V254.219Z" fill="#363644"/>
<path d="M361.11 275.259C361.11 275.259 360.74 275.449 360.04 275.709C359.34 275.969 358.33 276.319 357.07 276.739L356.83 276.819L356.81 276.569C356.66 274.459 356.5 271.649 356.34 268.559C356.17 265.209 356.05 262.179 355.99 259.989C355.96 258.889 355.94 257.999 355.94 257.389C355.94 256.779 355.96 256.429 355.99 256.429C356.03 256.429 356.08 256.769 356.14 257.379C356.2 257.989 356.27 258.879 356.35 259.969C356.51 262.159 356.69 265.189 356.85 268.539C357 271.629 357.12 274.449 357.19 276.559L356.93 276.389C358.2 276.009 359.24 275.709 359.95 275.509C360.67 275.309 361.07 275.219 361.09 275.259H361.11Z" fill="#455A64"/>
<path d="M359.12 257.049C359.12 257.049 359.2 256.909 359.47 256.819C359.73 256.729 360.17 256.709 360.63 256.919C361.08 257.109 361.59 257.659 361.51 258.359C361.46 259.019 360.95 259.729 360.11 259.909C359.27 260.059 358.51 259.599 358.17 259.029C357.8 258.439 357.93 257.759 358.19 257.369C358.45 256.949 358.81 256.729 359.06 256.639C359.32 256.549 359.47 256.559 359.48 256.589C359.52 256.659 358.89 256.789 358.52 257.529C358.35 257.879 358.29 258.379 358.58 258.789C358.85 259.199 359.44 259.529 360.01 259.419C360.57 259.309 360.98 258.789 361.03 258.309C361.1 257.819 360.8 257.419 360.45 257.219C359.71 256.799 359.13 257.119 359.12 257.039V257.049Z" fill="#455A64"/>
<path d="M371.19 258.849C371.05 258.859 370.85 258.099 370.74 257.149C370.64 256.199 370.67 255.419 370.81 255.399C370.95 255.389 371.15 256.139 371.26 257.099C371.36 258.049 371.33 258.829 371.19 258.849Z" fill="#455A64"/>
<path d="M373.02 258.669C372.88 258.669 372.76 257.859 372.75 256.859C372.75 255.859 372.86 255.049 373 255.049C373.14 255.049 373.26 255.859 373.27 256.859C373.27 257.859 373.16 258.669 373.02 258.669Z" fill="#455A64"/>
<path d="M341.31 259.879C341.17 259.889 340.94 258.979 340.81 257.849C340.68 256.709 340.69 255.779 340.83 255.759C340.97 255.749 341.2 256.659 341.33 257.789C341.46 258.929 341.45 259.859 341.31 259.879Z" fill="#455A64"/>
<path d="M343.52 260.049C343.39 260.099 342.93 259.169 342.88 257.919C342.82 256.669 343.21 255.709 343.34 255.749C343.49 255.779 343.34 256.739 343.4 257.899C343.44 259.069 343.67 260.009 343.52 260.049Z" fill="#455A64"/>
<path d="M335.2 257.709C335.2 257.709 335.2 257.989 335.11 258.479C335.03 258.969 334.85 259.679 334.58 260.529C334.04 262.239 332.99 264.539 331.32 266.769C329.64 268.999 327.7 270.699 326.18 271.739C325.42 272.269 324.78 272.659 324.31 272.889C323.85 273.129 323.59 273.249 323.57 273.219C323.53 273.149 324.52 272.589 325.97 271.489C327.42 270.389 329.28 268.699 330.93 266.509C332.57 264.319 333.64 262.089 334.25 260.429C334.87 258.769 335.1 257.689 335.18 257.699L335.2 257.709Z" fill="#455A64"/>
<path d="M392.08 269.509C392.08 269.509 391.8 269.589 391.28 269.629C390.76 269.669 390.01 269.679 389.08 269.589C387.23 269.419 384.66 268.719 382.34 267.099C380.02 265.469 378.57 263.339 377.85 261.709C377.48 260.889 377.27 260.199 377.16 259.719C377.05 259.239 377.02 258.959 377.05 258.959C377.13 258.939 377.36 260.009 378.15 261.579C378.93 263.139 380.38 265.169 382.62 266.739C384.86 268.309 387.33 269.029 389.12 269.279C390.93 269.539 392.07 269.429 392.08 269.509Z" fill="#455A64"/>
<path d="M334.88 143.689L346.83 138.999L368.84 137.759L379.18 141.689L365.01 149.559L352.78 149.109L334.88 143.689Z" fill="#FFBE9D"/>
<path d="M320.78 256.129C321.86 256.319 393.98 259.379 393.98 259.379L391.45 194.529L391.24 181.799L387.14 143.229C387.14 143.229 376.36 139.519 370.86 137.749C370.86 137.749 365.07 143.779 354.06 143.619C343.3 143.459 341.05 141.029 341.05 141.029L326.01 146.799C326.01 146.799 315.31 150.639 313.47 155.369C311.68 159.979 308.39 186.289 308.39 186.289H323.98L323.69 232.769L320.77 256.119L320.78 256.129Z" fill="#5264AE"/>
<g opacity="0.2">
<path d="M366.13 169.589L368.36 185.929L379.18 190.769L387.18 183.949V168.769L366.13 169.589Z" fill="black"/>
</g>
<path d="M386.9 174.219C386.9 174.359 382.4 174.469 376.86 174.469C371.32 174.469 366.82 174.359 366.82 174.219C366.82 174.079 371.32 173.969 376.86 173.969C382.4 173.969 386.9 174.079 386.9 174.219Z" fill="#263238"/>
<path d="M315.92 162.129C315.92 162.129 315.97 162.279 316.04 162.559C316.11 162.879 316.21 163.299 316.33 163.809C316.6 164.899 317.04 166.479 317.77 168.409C318.49 170.349 319.5 172.619 320.74 175.169C321.91 177.769 322.98 180.759 324.09 184.009V184.039L324.1 184.079C324.07 187.959 324.05 192.219 324.02 196.659C323.92 206.579 323.82 215.549 323.75 222.099C323.69 225.319 323.65 227.939 323.61 229.809C323.58 230.689 323.56 231.379 323.55 231.899C323.53 232.379 323.51 232.629 323.5 232.629C323.48 232.629 323.47 232.379 323.46 231.899C323.46 231.379 323.44 230.679 323.43 229.799C323.43 227.929 323.43 225.309 323.42 222.089C323.45 215.539 323.5 206.569 323.55 196.649C323.59 192.209 323.63 187.959 323.66 184.079V184.149C322.58 180.909 321.54 177.909 320.4 175.329C319.19 172.769 318.19 170.459 317.51 168.509C316.81 166.549 316.42 164.949 316.19 163.849C316.08 163.299 316.01 162.869 315.97 162.579C315.93 162.289 315.91 162.139 315.93 162.139L315.92 162.129Z" fill="#263238"/>
<path d="M392.38 154.549C392.38 154.549 392.4 155.049 392.37 155.929C392.33 156.899 392.29 158.169 392.23 159.689C392.1 162.949 391.93 167.299 391.74 172.109C391.52 176.919 391.33 181.269 391.18 184.529C391.09 186.049 391.02 187.319 390.96 188.289C390.9 189.179 390.85 189.669 390.82 189.669C390.79 189.669 390.77 189.179 390.78 188.289C390.8 187.319 390.82 186.049 390.85 184.519C390.93 181.339 391.07 176.939 391.28 172.089C391.48 167.239 391.7 162.849 391.91 159.669C392.01 158.079 392.11 156.799 392.2 155.909C392.29 155.019 392.36 154.539 392.4 154.539L392.38 154.549Z" fill="#263238"/>
<g opacity="0.3">
<path d="M315.96 164.489C315.61 171.609 318.29 178.499 323.04 183.809C321.57 177.119 317.91 170.889 315.96 164.489Z" fill="black"/>
</g>
<g opacity="0.3">
<path d="M347.64 228.689C351.01 228.399 354.05 226.409 356.29 223.869C358.53 221.339 360.57 218.469 362.1 215.449C364.19 211.349 365.23 206.889 365.51 202.219C361.31 213.479 355.15 222.389 347.63 228.689H347.64Z" fill="black"/>
</g>
<path d="M366.84 197.309C366.84 197.309 366.84 197.459 366.78 197.729C366.71 198.049 366.62 198.439 366.52 198.899C366.41 199.409 366.25 200.029 366.03 200.729C365.82 201.439 365.6 202.249 365.27 203.129C364.69 204.899 363.83 206.949 362.78 209.189C361.69 211.399 360.38 213.779 358.81 216.159C357.22 218.529 355.54 220.659 353.92 222.519C352.26 224.349 350.69 225.919 349.27 227.129C348.58 227.759 347.91 228.269 347.33 228.729C346.76 229.199 346.24 229.569 345.81 229.869C345.42 230.139 345.09 230.359 344.82 230.549C344.59 230.699 344.47 230.769 344.46 230.759C344.46 230.749 344.56 230.649 344.77 230.469C345.03 230.269 345.34 230.019 345.71 229.729C346.12 229.419 346.62 229.019 347.18 228.539C347.74 228.059 348.39 227.539 349.06 226.889C350.44 225.659 351.98 224.069 353.61 222.239C355.2 220.379 356.86 218.259 358.44 215.909C359.99 213.549 361.31 211.199 362.41 209.009C363.47 206.799 364.35 204.779 364.97 203.029C365.31 202.169 365.56 201.369 365.79 200.669C366.03 199.969 366.21 199.369 366.35 198.859C366.49 198.409 366.6 198.029 366.69 197.709C366.77 197.449 366.83 197.309 366.84 197.319V197.309Z" fill="#263238"/>
<path d="M364.76 177.009C364.76 177.009 364.75 177.239 364.68 177.669C364.6 178.149 364.49 178.769 364.35 179.549C364.21 180.369 364.02 181.369 363.72 182.509C363.44 183.659 363.16 184.969 362.71 186.389C362.5 187.099 362.28 187.849 362.05 188.629C361.82 189.409 361.51 190.199 361.23 191.019C360.69 192.679 359.96 194.399 359.23 196.229C357.67 199.839 355.73 203.709 353.38 207.589C350.99 211.449 348.42 214.939 345.92 217.969C344.63 219.449 343.43 220.889 342.19 222.129C341.58 222.759 341.02 223.379 340.43 223.949C339.84 224.509 339.28 225.039 338.74 225.559C337.68 226.599 336.63 227.449 335.74 228.219C334.86 228.999 334.05 229.629 333.39 230.119C332.76 230.599 332.25 230.979 331.86 231.269C331.51 231.529 331.32 231.659 331.31 231.649C331.31 231.639 331.47 231.479 331.8 231.199C332.17 230.889 332.66 230.489 333.27 229.979C333.92 229.459 334.7 228.819 335.56 228.019C336.43 227.229 337.46 226.369 338.5 225.319C339.03 224.799 339.59 224.259 340.16 223.699C340.74 223.129 341.29 222.499 341.89 221.869C343.11 220.619 344.29 219.189 345.57 217.709C348.04 214.679 350.59 211.199 352.96 207.359C355.3 203.499 357.23 199.649 358.81 196.069C359.55 194.259 360.29 192.549 360.85 190.899C361.14 190.079 361.45 189.299 361.69 188.529C361.93 187.759 362.16 187.019 362.38 186.309C362.85 184.899 363.14 183.599 363.45 182.459C363.77 181.329 363.98 180.339 364.15 179.519C364.32 178.749 364.46 178.129 364.57 177.659C364.67 177.229 364.73 177.009 364.75 177.019L364.76 177.009Z" fill="#263238"/>
<path d="M307.78 156.839C312.23 163.599 330.22 190.969 335.55 199.059C336.14 199.949 335.41 201.119 334.35 200.989L302.37 196.969C302.03 196.929 301.72 196.749 301.52 196.469L270.98 154.759C270.35 153.899 271.02 152.689 272.08 152.769L304.98 155.199C306.12 155.279 307.16 155.889 307.79 156.849L307.78 156.839Z" fill="#E0E0E0"/>
<path d="M307.78 156.839C307.78 156.839 307.71 156.699 307.53 156.459C307.34 156.219 307.02 155.879 306.5 155.589C305.99 155.269 305.23 155.099 304.37 155.069C303.5 154.999 302.51 154.919 301.39 154.829C296.89 154.479 290.41 153.969 282.42 153.339C280.42 153.189 278.32 153.029 276.13 152.859C275.04 152.779 273.92 152.689 272.79 152.599C272.49 152.579 272.25 152.549 271.91 152.549C271.57 152.549 271.24 152.699 270.99 152.929C270.48 153.379 270.35 154.229 270.75 154.809C273.54 158.629 276.51 162.709 279.64 166.999C285.91 175.569 292.8 184.999 300.03 194.889C300.49 195.519 300.91 196.109 301.41 196.759C301.57 196.929 301.76 197.059 301.98 197.139C302.21 197.229 302.43 197.239 302.6 197.259L303.73 197.399C305.23 197.589 306.72 197.779 308.2 197.959C311.16 198.329 314.08 198.699 316.95 199.059C322.68 199.779 328.22 200.469 333.49 201.119C333.83 201.159 334.12 201.209 334.51 201.229C334.9 201.229 335.3 201.069 335.57 200.789C335.85 200.509 336 200.129 336.01 199.739C336.03 199.359 335.8 198.949 335.63 198.719C334.92 197.639 334.21 196.569 333.52 195.529C332.13 193.429 330.79 191.389 329.49 189.419C326.89 185.479 324.46 181.809 322.24 178.459C317.81 171.779 314.22 166.379 311.72 162.609C310.48 160.759 309.51 159.319 308.84 158.319C308.52 157.849 308.26 157.479 308.08 157.209C307.91 156.959 307.81 156.839 307.81 156.839C307.81 156.839 307.88 156.979 308.04 157.239C308.21 157.519 308.45 157.889 308.76 158.379C309.41 159.399 310.36 160.859 311.56 162.729C314.03 166.519 317.57 171.959 321.94 178.669C324.14 182.029 326.55 185.709 329.13 189.659C330.42 191.639 331.76 193.679 333.14 195.779C333.83 196.829 334.53 197.899 335.24 198.979C335.44 199.269 335.53 199.459 335.54 199.739C335.54 199.999 335.43 200.259 335.24 200.449C335.06 200.639 334.79 200.749 334.53 200.739C334.26 200.729 333.89 200.659 333.57 200.629C328.3 199.959 322.77 199.259 317.04 198.529C314.17 198.169 311.26 197.799 308.29 197.429C306.81 197.239 305.32 197.059 303.82 196.869L302.69 196.729C302.49 196.699 302.32 196.689 302.19 196.639C302.05 196.589 301.92 196.499 301.82 196.389C301.37 195.789 300.93 195.179 300.48 194.569C293.23 184.689 286.33 175.269 280.05 166.709C276.91 162.429 273.93 158.369 271.13 154.569C270.85 154.159 270.94 153.579 271.3 153.249C271.48 153.089 271.7 152.989 271.94 152.979C272.18 152.979 272.5 153.009 272.77 153.029C273.91 153.109 275.02 153.189 276.11 153.269C278.3 153.429 280.39 153.579 282.4 153.719C290.39 154.279 296.87 154.729 301.38 155.039C302.5 155.109 303.49 155.179 304.36 155.239C305.23 155.259 305.93 155.399 306.45 155.689C307.48 156.259 307.76 156.889 307.79 156.849L307.78 156.839Z" fill="#263238"/>
<path d="M270.97 154.749C270.97 154.749 271.2 154.799 271.64 154.849C272.13 154.899 272.77 154.959 273.58 155.049C275.32 155.199 277.77 155.419 280.81 155.689C287.01 156.199 295.6 156.899 305.38 157.699L305.18 157.589C306.72 159.879 308.31 162.249 309.9 164.699C316.38 174.669 322.05 183.829 326.33 190.349C328.46 193.619 330.22 196.229 331.46 198.029C332.06 198.889 332.55 199.579 332.9 200.079C333.23 200.549 333.42 200.789 333.43 200.779C333.44 200.769 333.29 200.509 332.99 200.019C332.65 199.499 332.2 198.789 331.63 197.909C330.43 196.029 328.73 193.389 326.65 190.139C322.45 183.569 316.84 174.379 310.35 164.399C308.76 161.949 307.16 159.569 305.62 157.289L305.55 157.189H305.42C295.63 156.449 287.04 155.819 280.83 155.359C277.79 155.159 275.34 154.989 273.59 154.869C272.78 154.829 272.13 154.789 271.64 154.759C271.2 154.739 270.96 154.739 270.96 154.759L270.97 154.749Z" fill="#263238"/>
<path d="M290 161.189C290.08 160.809 290.44 160.649 290.79 160.709C291.17 160.819 291.36 160.909 291.65 161.189C291.94 161.469 292.06 161.969 291.81 162.289C291.49 162.679 290.83 162.539 290.45 162.209C290.16 161.959 289.93 161.569 290.01 161.189H290Z" fill="white"/>
<path d="M304.94 184.849C304.94 184.849 306.2 181.839 303 181.449C299.8 181.059 291.39 181.449 291.39 181.449C291.39 181.449 286.79 181.939 287.76 185.229C287.76 185.229 285.04 187.659 286.5 190.279C287.96 192.899 288.54 192.119 288.54 192.119C288.54 192.119 288.15 195.319 290.58 195.809C290.58 195.809 293.21 198.919 295.63 198.719C298.05 198.529 308.34 193.579 309.02 192.609C309.7 191.639 310.67 191.089 310.09 189.999C310.09 189.999 311.35 187.159 308.63 186.729C308.63 186.729 308.44 184.359 304.94 184.839V184.849Z" fill="#FFBE9D"/>
<path d="M290.35 185.939C290.35 186.009 291.18 186.069 292.51 186.099C293.85 186.129 295.69 186.129 297.73 186.099C299.76 186.029 301.61 186.109 302.97 185.789C304.35 185.469 304.89 184.659 304.83 184.639C304.77 184.569 304.19 185.219 302.89 185.419C301.62 185.629 299.75 185.499 297.72 185.569C295.68 185.599 293.84 185.659 292.51 185.729C291.18 185.799 290.35 185.879 290.35 185.949V185.939Z" fill="#EB996E"/>
<path d="M292.64 190.789C292.64 190.789 292.87 190.929 293.34 191.029C293.8 191.129 294.49 191.209 295.34 191.149C296.19 191.099 297.19 190.919 298.26 190.619C299.33 190.319 300.48 189.909 301.68 189.539C302.88 189.169 304.05 188.899 305.12 188.829C306.17 188.779 307.3 188.809 308.05 188.239C308.42 187.979 308.68 187.609 308.75 187.239C308.82 186.869 308.75 186.549 308.63 186.329C308.38 185.869 308.03 185.839 308.04 185.869C308.01 185.909 308.29 186.009 308.44 186.419C308.61 186.809 308.52 187.529 307.84 187.929C307.19 188.379 306.22 188.329 305.09 188.339C303.96 188.389 302.74 188.649 301.52 189.029C300.32 189.419 299.18 189.799 298.12 190.149C297.08 190.469 296.12 190.679 295.31 190.779C293.68 190.979 292.66 190.699 292.65 190.789H292.64Z" fill="#EB996E"/>
<path d="M296.08 194.889C296.1 194.959 296.93 194.799 298.24 194.469C299.56 194.139 301.36 193.619 303.32 192.979C305.29 192.339 307.04 191.679 308.3 191.169C309.56 190.659 310.32 190.299 310.29 190.229C310.24 190.089 307.07 191.189 303.15 192.469C299.23 193.759 296.03 194.739 296.07 194.879L296.08 194.889Z" fill="#EB996E"/>
<path d="M295.25 198.699C295.25 198.759 295.95 198.739 297.04 198.489C298.13 198.249 299.6 197.749 301.14 197.049C302.68 196.349 304.03 195.629 305 195.119C305.97 194.599 306.57 194.259 306.54 194.189C306.47 194.029 303.96 195.139 300.92 196.569C297.89 198.019 295.23 198.569 295.25 198.699Z" fill="#EB996E"/>
<path d="M397.49 169.759C397.49 169.759 390.95 195.949 382.78 205.619C374.87 214.979 362.47 210.679 358.18 198.559C353.89 186.449 346.24 158.779 346.24 158.779L355.63 151.599L371.86 183.059L379.17 161.619L397.48 169.769L397.49 169.759Z" fill="#FFBE9D"/>
<path d="M346.68 159.509L339.79 149.529C339.79 149.529 337.5 148.999 336.85 148.619C336.07 148.159 335.3 144.199 335.32 143.419C335.34 142.649 333.98 140.839 334.53 140.329C335.08 139.819 336.92 139.779 336.82 139.039C336.8 138.879 335.45 137.229 336.52 136.009C336.91 135.569 338.46 135.189 338.46 135.189L338.35 131.379C338.35 131.379 340.41 126.879 342.51 128.509C342.51 128.509 350.44 134.599 351.24 135.569C352.04 136.539 355.09 149.229 355.63 151.609" fill="#FFBE9D"/>
<path d="M355.64 151.599C355.64 151.599 355.62 151.359 355.53 150.929C355.43 150.449 355.29 149.809 355.12 149.019C354.75 147.369 354.19 144.979 353.44 142.029C353.06 140.559 352.64 138.949 352.11 137.229C351.97 136.799 351.83 136.369 351.65 135.919C351.48 135.419 351.06 135.079 350.72 134.769C350 134.129 349.24 133.509 348.45 132.879C346.88 131.609 345.22 130.299 343.48 128.949C343.03 128.629 342.66 128.219 342.03 127.989C341.39 127.779 340.71 128.049 340.24 128.419C339.28 129.179 338.67 130.199 338.13 131.269L338.11 131.319V131.379C338.12 131.749 338.13 132.149 338.15 132.549C338.18 133.439 338.2 134.329 338.23 135.189L338.41 134.949C337.93 135.079 337.47 135.219 337.01 135.419C336.78 135.529 336.55 135.629 336.33 135.859C336.17 136.069 336.01 136.299 335.95 136.559C335.79 137.079 335.9 137.619 336.07 138.079C336.16 138.309 336.27 138.529 336.38 138.729L336.56 139.029L336.6 139.089C336.6 139.089 336.6 139.049 336.6 139.079C336.6 139.099 336.6 139.129 336.59 139.139C336.57 139.229 336.38 139.339 336.2 139.419C336.01 139.499 335.8 139.559 335.58 139.629C335.37 139.699 335.15 139.759 334.93 139.849C334.71 139.949 334.48 139.999 334.27 140.309C334.11 140.639 334.2 140.899 334.25 141.119C334.31 141.349 334.4 141.559 334.48 141.759C334.65 142.159 334.84 142.549 334.99 142.919C335.06 143.109 335.11 143.279 335.11 143.449C335.11 143.689 335.14 143.889 335.17 144.099C335.23 144.519 335.31 144.919 335.39 145.319C335.57 146.119 335.76 146.889 336.04 147.619C336.19 147.989 336.31 148.349 336.64 148.679C337.02 148.969 337.36 149.019 337.71 149.149C338.41 149.369 339.09 149.539 339.75 149.689L339.64 149.619C341.77 152.639 343.5 155.109 344.74 156.869C345.33 157.689 345.8 158.339 346.15 158.829C346.48 159.279 346.66 159.509 346.67 159.499C346.68 159.489 346.53 159.239 346.23 158.769C345.9 158.269 345.45 157.589 344.9 156.749C343.69 154.969 342 152.469 339.93 149.409L339.89 149.349L339.82 149.329C339.17 149.169 338.49 148.989 337.82 148.769C337.5 148.659 337.1 148.539 336.89 148.369C336.69 148.179 336.54 147.799 336.41 147.469C336.15 146.769 335.97 146.009 335.8 145.229C335.72 144.839 335.65 144.439 335.59 144.039C335.57 143.839 335.54 143.629 335.54 143.449C335.54 143.199 335.47 142.959 335.4 142.759C335.25 142.349 335.06 141.959 334.89 141.569C334.81 141.379 334.73 141.179 334.68 140.989C334.63 140.809 334.61 140.589 334.66 140.519C334.69 140.449 334.9 140.329 335.08 140.269C335.27 140.189 335.48 140.129 335.7 140.069C335.91 139.999 336.13 139.939 336.36 139.849C336.57 139.749 336.85 139.659 337.01 139.309C337.05 139.219 337.06 139.129 337.06 139.039C337.06 139.009 337.05 138.929 337.02 138.859L336.97 138.769L336.8 138.479C336.69 138.289 336.59 138.089 336.52 137.889C336.37 137.489 336.29 137.059 336.41 136.679C336.46 136.489 336.57 136.319 336.7 136.159C336.8 136.049 337.01 135.929 337.21 135.839C337.62 135.659 338.08 135.519 338.52 135.399L338.71 135.349V135.159C338.68 134.289 338.65 133.409 338.63 132.519C338.62 132.119 338.61 131.719 338.6 131.349L338.58 131.459C339.08 130.449 339.71 129.449 340.54 128.789C340.96 128.469 341.45 128.289 341.9 128.439C342.32 128.579 342.76 128.989 343.2 129.309C344.94 130.649 346.61 131.949 348.18 133.209C348.97 133.839 349.73 134.459 350.44 135.079C350.8 135.399 351.15 135.669 351.28 136.069C351.46 136.479 351.59 136.909 351.74 137.329C352.28 139.029 352.72 140.629 353.12 142.099C353.88 144.999 354.5 147.359 354.94 149.049C355.15 149.829 355.31 150.459 355.44 150.939C355.56 151.369 355.62 151.589 355.64 151.589V151.599Z" fill="#EB996E"/>
<path d="M338.47 135.179C338.47 135.259 339.27 135.199 340.53 135.319C341.16 135.369 341.84 135.599 342.7 135.819C343.58 136.009 344.54 135.909 345.5 135.839C347.43 135.579 349.05 136.389 349.92 137.269C350.81 138.149 350.9 138.999 350.99 138.969C351.03 138.989 351.07 138.069 350.18 137.039C349.74 136.539 349.1 136.039 348.28 135.709C347.47 135.339 346.45 135.269 345.47 135.359C344.49 135.429 343.58 135.529 342.79 135.379C342 135.209 341.22 134.979 340.56 134.979C339.25 134.949 338.47 135.129 338.48 135.179H338.47Z" fill="#EB996E"/>
<path d="M341.27 134.969C341.39 135.029 341.71 134.569 341.67 133.909C341.63 133.249 341.26 132.829 341.15 132.899C341.03 132.969 341.15 133.409 341.18 133.939C341.22 134.469 341.14 134.919 341.27 134.969Z" fill="#EB996E"/>
<path d="M336.58 139.179C336.58 139.299 339.29 139.419 342.55 138.709C343.36 138.529 344.11 138.309 344.75 138.429C345.38 138.539 345.87 138.969 346.17 139.369C346.77 140.209 346.87 140.909 346.95 140.879C346.99 140.879 347.03 140.159 346.45 139.169C346.15 138.699 345.62 138.159 344.83 137.989C344.04 137.809 343.23 138.069 342.44 138.229C339.24 138.929 336.57 139.029 336.57 139.179H336.58Z" fill="#EB996E"/>
<path d="M335.53 142.779C335.53 142.839 336.1 142.899 337 142.779C337.9 142.679 339.11 142.369 340.43 142.109C341.09 141.989 341.72 141.889 342.28 141.929C342.84 141.959 343.3 142.139 343.61 142.409C344.26 142.959 344.19 143.579 344.26 143.569C344.29 143.569 344.36 143.439 344.34 143.169C344.32 142.899 344.19 142.509 343.84 142.159C343.51 141.799 342.94 141.539 342.31 141.479C341.68 141.409 341.01 141.509 340.33 141.629C338.97 141.899 337.79 142.259 336.93 142.439C336.07 142.639 335.52 142.699 335.52 142.769L335.53 142.779Z" fill="#EB996E"/>
<path d="M337.89 145.639C337.81 145.699 338.48 146.409 339.72 146.399L339.48 146.189C339.5 146.409 339.53 146.609 339.55 146.829C339.73 148.239 339.98 149.369 340.12 149.349C340.25 149.329 340.22 148.179 340.04 146.779C340.01 146.569 339.98 146.359 339.95 146.149L339.92 145.929H339.71C338.67 146.009 337.96 145.549 337.9 145.649L337.89 145.639Z" fill="#EB996E"/>
<path d="M387.15 143.229C387.15 143.229 400.54 146.469 400.51 164.229C400.48 181.919 396.47 190.759 396.47 190.759L371.78 177.329L377.29 163.499L387.15 143.229Z" fill="#5264AE"/>
<path d="M396.47 190.769C396.47 190.769 396.29 190.709 395.96 190.549C395.59 190.359 395.11 190.119 394.53 189.819C393.24 189.139 391.46 188.199 389.27 187.049C384.78 184.629 378.61 181.309 371.67 177.569L371.47 177.459L371.55 177.249C371.97 176.139 372.42 174.969 372.87 173.789C374.45 169.689 375.95 165.789 377.32 162.229C378.01 160.459 378.66 158.769 379.28 157.189C379.87 155.599 380.52 154.139 381.23 152.879C382.62 150.339 384.26 148.539 385.68 147.719C386.38 147.299 387 147.109 387.42 147.019C387.63 146.979 387.79 146.959 387.9 146.959C388.01 146.959 388.07 146.959 388.07 146.959C388.09 147.019 387.14 147.009 385.79 147.889C384.44 148.739 382.88 150.519 381.55 153.049C380.87 154.309 380.25 155.739 379.68 157.329C379.08 158.919 378.44 160.609 377.77 162.379C376.41 165.939 374.92 169.849 373.36 173.949C372.91 175.139 372.46 176.299 372.03 177.409L371.91 177.089C378.82 180.889 384.96 184.259 389.43 186.719C391.59 187.929 393.34 188.919 394.62 189.629C395.19 189.959 395.65 190.229 396.01 190.439C396.32 190.629 396.48 190.729 396.48 190.749L396.47 190.769Z" fill="#263238"/>
<path d="M157.84 199.119C157.5 177.639 174.61 159.889 195.99 159.549C217.37 159.209 235.04 176.399 235.38 197.869C235.72 219.349 218.61 237.099 197.23 237.439C175.85 237.779 158.18 220.589 157.84 199.119ZM215.14 198.199C214.98 187.929 206.53 179.709 196.31 179.879C186.09 180.039 177.91 188.529 178.07 198.799C178.23 209.069 186.68 217.289 196.9 217.119C207.12 216.949 215.3 208.469 215.14 198.199Z" fill="#5264AE"/>
<path d="M157.84 199.119C157.5 177.639 174.61 159.889 195.98 159.549L196.31 179.869C186.09 180.039 177.91 188.519 178.07 198.789C178.23 209.059 186.68 217.279 196.9 217.109L197.22 237.429C175.84 237.769 158.17 220.579 157.83 199.109L157.84 199.119Z" fill="#5264AE"/>
<path d="M192.51 156.419C217.52 156.019 237.47 175.429 237.87 200.549L214.2 200.929C214.01 188.919 204.87 181.349 192.91 181.549L192.51 156.419Z" fill="#F0F3FF"/>
<path d="M232.49 115.029V84.4495C249.26 84.4495 263.07 98.2495 263.07 115.029C263.07 131.809 249.27 145.609 232.49 145.609C215.71 145.609 202.3 132.239 201.92 115.739L232.49 115.029Z" fill="#5264AE"/>
<path d="M226.81 103.469L196.23 104.159C196.23 96.1994 199.34 87.8494 204.89 82.1394C210.44 76.4294 218.37 73.1194 226.33 72.8994L226.8 103.469H226.81Z" fill="#F0F3FF"/>
<path d="M63.62 153.819H46.16V208.359H63.62V153.819Z" fill="#5264AE"/>
<path d="M89.7 166.279H72.24V208.359H89.7V166.279Z" fill="#5264AE"/>
<path d="M113.84 183.369H96.38V208.359H113.84V183.369Z" fill="#5264AE"/>
<path d="M140.9 91.3094C136.72 81.7394 125.58 77.3694 116.01 81.5494C106.44 85.7294 102.07 96.8694 106.25 106.439C109.27 113.369 115.95 117.569 123.03 117.769C123.93 119.819 124.94 122.139 124.94 122.139L140.12 115.509C140.12 115.509 139.14 113.019 138.22 110.809C142.54 105.499 143.82 98.0194 140.89 91.3094H140.9Z" fill="#5264AE"/>
<path d="M134.6 117.829C134.6 117.829 134.57 117.759 134.52 117.609C134.47 117.449 134.4 117.239 134.32 116.949C134.15 116.369 133.89 115.519 133.59 114.409C133.29 113.299 132.94 111.939 132.63 110.339C132.33 108.739 132.07 106.889 132.1 104.829C132.11 103.799 132.18 102.729 132.39 101.619C132.51 101.069 132.71 100.499 133.11 100.039C133.51 99.5793 134.14 99.2993 134.78 99.3793C135.1 99.4193 135.42 99.5693 135.63 99.8293C135.85 100.079 135.96 100.419 135.95 100.749C135.92 101.419 135.58 102.019 135.12 102.489C134.15 103.389 132.79 103.859 131.41 103.809C130.03 103.759 128.65 103.089 127.7 101.989C127.24 101.439 126.83 100.789 126.73 100.039C126.6 99.2993 126.99 98.4093 127.78 98.1493C128.17 98.0093 128.62 98.1193 128.93 98.3793C129.25 98.6293 129.46 98.9893 129.54 99.3893C129.69 100.189 129.4 100.949 129.07 101.639C128.37 103.019 127.1 104.169 125.54 104.569C123.99 104.969 122.27 104.579 121.1 103.539C120.51 103.029 120.09 102.289 120.07 101.489C120.07 101.099 120.19 100.669 120.5 100.389C120.79 100.099 121.22 99.9893 121.61 100.019C122 100.049 122.38 100.209 122.67 100.459C122.97 100.699 123.19 101.019 123.37 101.339C123.72 101.999 123.91 102.709 123.97 103.429C124.1 104.869 123.66 106.319 122.8 107.399C121.94 108.479 120.71 109.209 119.43 109.459C118.8 109.579 118.11 109.609 117.51 109.309C116.93 109.019 116.5 108.339 116.69 107.679C116.78 107.359 117.03 107.109 117.3 106.959C117.58 106.809 117.89 106.749 118.2 106.759C118.83 106.789 119.35 107.129 119.78 107.489C120.63 108.239 121.37 108.999 122.11 109.719C125.02 112.609 127.26 115.049 128.79 116.759C129.55 117.609 130.14 118.289 130.53 118.739C130.72 118.959 130.87 119.139 130.97 119.259C131.07 119.379 131.11 119.439 131.11 119.439C131.11 119.439 131.05 119.389 130.95 119.269C130.84 119.149 130.69 118.979 130.49 118.759C130.08 118.309 129.48 117.649 128.72 116.809C127.17 115.119 124.92 112.689 121.99 109.829C121.26 109.119 120.49 108.349 119.66 107.619C119.24 107.269 118.74 106.959 118.19 106.939C117.65 106.919 117.03 107.189 116.87 107.729C116.72 108.269 117.08 108.869 117.6 109.129C118.13 109.399 118.78 109.379 119.39 109.249C120.62 109.009 121.81 108.309 122.63 107.259C123.46 106.219 123.87 104.829 123.75 103.439C123.69 102.749 123.5 102.059 123.17 101.429C122.85 100.819 122.29 100.269 121.59 100.229C121.25 100.199 120.9 100.299 120.66 100.539C120.41 100.769 120.3 101.119 120.31 101.469C120.33 102.179 120.71 102.869 121.27 103.349C122.38 104.339 124.02 104.719 125.5 104.329C126.99 103.949 128.21 102.839 128.88 101.519C129.2 100.859 129.46 100.119 129.33 99.4193C129.26 99.0793 129.08 98.7593 128.81 98.5493C128.55 98.3393 128.19 98.2493 127.87 98.3593C127.55 98.4593 127.29 98.7093 127.13 99.0093C126.97 99.3093 126.93 99.6593 126.97 99.9993C127.07 100.689 127.45 101.309 127.89 101.839C128.79 102.889 130.12 103.539 131.44 103.589C132.76 103.649 134.08 103.189 135 102.339C135.43 101.909 135.76 101.329 135.78 100.739C135.82 100.149 135.36 99.6193 134.79 99.5693C134.23 99.4993 133.64 99.7493 133.29 100.169C132.92 100.589 132.72 101.129 132.61 101.669C132.4 102.749 132.32 103.829 132.31 104.849C132.28 106.889 132.52 108.729 132.81 110.329C133.1 111.929 133.44 113.289 133.72 114.399C134.02 115.499 134.25 116.349 134.41 116.949C134.49 117.229 134.55 117.449 134.59 117.609C134.63 117.759 134.64 117.839 134.64 117.839L134.6 117.829Z" fill="white"/>
<path d="M140.18 118.829L127.14 124.519C126.6 124.759 125.97 124.509 125.73 123.969C125.49 123.429 125.74 122.799 126.28 122.559L139.32 116.869C139.86 116.629 140.49 116.879 140.73 117.419C140.97 117.959 140.72 118.589 140.18 118.829Z" fill="#363644"/>
<path d="M140.56 119.679L127.52 125.369C126.98 125.609 126.73 126.239 126.97 126.779C127.21 127.319 127.84 127.569 128.38 127.329L129.81 126.709L133.29 129.489C133.69 129.809 134.23 129.879 134.7 129.679L139.36 127.649C139.83 127.439 140.15 126.989 140.18 126.479L140.45 122.069L141.42 121.649C141.96 121.409 142.21 120.779 141.97 120.239C141.73 119.699 141.1 119.449 140.56 119.689V119.679Z" fill="#363644"/>
<g opacity="0.2">
<path d="M107.63 92.6894C108.33 91.1094 109.22 89.8194 110.09 88.8694C110.97 87.9194 111.79 87.2794 112.42 86.9294C113.05 86.5794 113.45 86.4794 113.54 86.5994C113.75 86.8794 112.64 87.9194 111.39 89.8794C110.13 91.8094 108.81 94.7894 108.72 98.2294C108.65 101.669 109.83 104.719 111 106.699C112.16 108.709 113.22 109.799 113 110.069C112.9 110.189 112.51 110.069 111.9 109.689C111.29 109.309 110.49 108.629 109.66 107.639C108.83 106.649 108 105.329 107.38 103.709C106.76 102.099 106.37 100.189 106.41 98.1694" fill="white"/>
</g>
<g opacity="0.2">
<path d="M118.03 85.5293C116.93 85.9993 115.83 86.1193 115.46 85.5893C115.29 85.3193 115.35 84.9293 115.65 84.5093C115.94 84.0993 116.46 83.6793 117.11 83.3893C117.77 83.1093 118.43 83.0193 118.93 83.0893C119.43 83.1593 119.77 83.3793 119.84 83.6893" fill="white"/>
</g>
<path d="M140.06 126.889C140.06 126.889 139.67 126.919 139.04 127.009C138.42 127.089 137.57 127.289 136.71 127.699C135.85 128.109 135.15 128.639 134.7 129.059C134.24 129.489 134 129.789 133.96 129.769C133.94 129.759 134.14 129.409 134.58 128.939C135.02 128.469 135.72 127.909 136.61 127.479C137.5 127.059 138.39 126.879 139.02 126.839C139.66 126.799 140.06 126.859 140.05 126.889H140.06Z" fill="#455A64"/>
<path d="M140.49 122.099C140.52 122.159 138.18 123.239 135.27 124.499C132.36 125.769 129.99 126.749 129.96 126.689C129.93 126.629 132.27 125.549 135.18 124.289C138.09 123.019 140.46 122.039 140.49 122.099Z" fill="#455A64"/>
<path d="M140.35 123.999C140.35 123.999 139.9 124.289 139.12 124.689C138.35 125.089 137.27 125.609 136.06 126.159C134.85 126.709 133.75 127.169 132.94 127.489C132.13 127.809 131.62 127.989 131.61 127.959C131.6 127.929 132.08 127.699 132.87 127.339C133.72 126.949 134.79 126.479 135.96 125.949C137.13 125.419 138.19 124.929 139.04 124.539C139.83 124.179 140.32 123.969 140.34 123.999H140.35Z" fill="#455A64"/>
</g>
</g>
<defs>
<clipPath id="clip0_0_1383">
<rect width="456" height="300" fill="white"/>
</clipPath>
</defs>
</svg>
