<svg width="43" height="70" viewBox="0 0 43 70" fill="none" xmlns="http://www.w3.org/2000/svg">
<g clip-path="url(#clip0_0_3161)">
<path d="M42.1258 0.844727H0.844727V34.1551H42.1258V0.844727Z" fill="white"/>
<path d="M0 0V35H42.9707V0H0ZM42.1259 34.1552H0.844799V0.844798H42.1259V34.1552Z" fill="#3B368B"/>
<path d="M42.9707 35H0V70H42.9707V35Z" fill="#3B368B"/>
<path d="M31.8534 22.6365L36.2886 4.40576H32.8925L30.3792 15.6965L29.3147 11.2233H25.8511L28.8332 22.6365H31.8534Z" fill="#3B368B"/>
<path d="M10.3489 22.7042H13.9308V10.5222H16.0175V6.7417H8.00879V10.5602H10.3489V22.7042Z" fill="#3B368B"/>
<path d="M20.3218 6.7417H16.7778V10.5222H20.3218V6.7417Z" fill="#3B368B"/>
<path d="M25.2973 6.7417H21.7534V10.5222H25.2973V6.7417Z" fill="#3B368B"/>
<path d="M19.9921 22.7124H25.2975V11.2231H21.7197V19.2234H21.065C20.4483 19.2234 20.33 18.9024 20.33 18.4884V11.2231H16.7734V19.1854C16.7734 21.7958 18.0406 22.7124 19.9921 22.7124Z" fill="#3B368B"/>
<path d="M12.3973 24.5332L11.4258 29.7963H12.3001L12.4607 28.6305H13.4533L13.6138 29.7963H14.4882L13.5209 24.5332H12.3973ZM12.5916 27.8406L12.9506 25.5808H12.9633L13.3224 27.8406H12.5916Z" fill="#3B368B"/>
<path d="M25.6314 24.5332L24.6641 29.7963H25.5384L25.6989 28.6305H26.6916L26.8521 29.7963H27.7265L26.7549 24.5332H25.6314ZM25.8299 27.8406L26.1847 25.5808H26.1974L26.5564 27.8406H25.8299Z" fill="#3B368B"/>
<path d="M22.8688 24.5332H21.9648V29.7921H24.288V29.0064H22.8688V24.5332Z" fill="#3B368B"/>
<path d="M33.0739 24.5332H31.7349V29.7963H33.0739C34.0074 29.7963 34.5016 29.2852 34.5016 28.2081V26.1214C34.5016 25.0443 34.0074 24.5332 33.0739 24.5332ZM33.5976 28.3179C33.5976 28.8712 33.4287 29.0529 32.9472 29.0529H32.6346V25.2766H32.9472C33.4287 25.2766 33.5976 25.4583 33.5976 26.0116V28.3137V28.3179Z" fill="#3B368B"/>
<path d="M9.25086 25.7624C9.25086 25.4329 9.41137 25.2471 9.70283 25.2471C9.90558 25.2471 10.1463 25.378 10.1844 25.83L11.0461 25.7371C10.9658 24.9936 10.5265 24.4614 9.79153 24.4614C8.90449 24.4614 8.39339 24.9345 8.39339 25.7751C8.39339 27.2831 10.2308 27.5618 10.2308 28.6009C10.2308 28.9135 10.0196 29.0825 9.70705 29.0825C9.4156 29.0825 9.2044 28.8206 9.16638 28.2884L8.30469 28.4109C8.3427 29.1965 8.82002 29.8681 9.66059 29.8681C10.5012 29.8681 11.0883 29.3866 11.0883 28.5207C11.0883 27.093 9.25086 26.6621 9.25086 25.7666V25.7624Z" fill="#3B368B"/>
<path d="M21.2382 26.0832C21.2382 24.9597 20.7186 24.5288 19.7091 24.5288H18.4419V29.7919H19.3458V27.6334C19.5063 27.6334 19.6964 27.625 19.8105 27.6123L20.4525 29.7919H21.3733L20.6088 27.4096C20.9129 27.2702 21.2424 26.928 21.2424 26.0832H21.2382ZM19.6626 26.8942H19.3416V25.2765H19.6626C20.1526 25.2765 20.3342 25.4581 20.3342 26.0832C20.3342 26.7084 20.1526 26.8942 19.6626 26.8942Z" fill="#3B368B"/>
<path d="M15.8233 24.5332L14.856 29.7963H15.7303L15.8908 28.6305H16.8835L17.044 29.7963H17.9184L16.9468 24.5332H15.8233ZM16.0218 27.8406L16.3808 25.5808H16.3935L16.7483 27.8406H16.0218Z" fill="#3B368B"/>
<path d="M30.2015 27.5407H30.1888L29.0864 24.5332H28.25V29.7921H29.0652V26.5058H29.0821L30.2311 29.7921H31.0209V24.5332H30.2015V27.5407Z" fill="#3B368B"/>
<path d="M7.07523 46.4468C6.23466 46.4468 5.61373 46.1976 5.21668 45.6991C4.81962 45.2007 4.62109 44.4362 4.62109 43.3971C4.62109 42.358 4.84074 41.5976 5.28004 41.0992C5.72356 40.6008 6.39939 40.3516 7.316 40.3516C7.49763 40.3516 7.69616 40.3642 7.91581 40.3938C8.13546 40.4234 8.3551 40.4614 8.57475 40.5163V41.4245C8.33398 41.378 8.11856 41.3484 7.93693 41.3231C7.7553 41.2977 7.57789 41.2893 7.42582 41.2893C7.1217 41.2893 6.86403 41.3231 6.64861 41.3949C6.43741 41.4667 6.26423 41.585 6.13328 41.7539C6.00234 41.9187 5.90941 42.1383 5.85028 42.4086C5.79114 42.679 5.7658 43.0127 5.7658 43.4097C5.7658 43.8068 5.79114 44.1363 5.84183 44.4066C5.89252 44.6769 5.977 44.8881 6.08682 45.0529C6.19664 45.2176 6.34448 45.3359 6.53034 45.4077C6.71197 45.4795 6.93584 45.5133 7.20618 45.5133H7.40471C7.47229 45.5133 7.5441 45.5091 7.62013 45.5006V43.3548H8.64233V46.3201C8.28752 46.3708 7.99184 46.4003 7.7553 46.4214C7.51875 46.4383 7.28643 46.4468 7.06679 46.4468V46.4552L7.07523 46.4468Z" fill="white"/>
<path d="M11.2063 46.447C10.5896 46.447 10.1208 46.2654 9.80397 45.8936C9.48717 45.5219 9.32666 44.977 9.32666 44.2632C9.32666 43.5029 9.48295 42.9284 9.79552 42.544C10.1081 42.1596 10.577 41.9653 11.1979 41.9653C11.7259 41.9653 12.1103 42.1301 12.3595 42.4553C12.6087 42.7806 12.7354 43.2917 12.7354 43.9717C12.7354 44.1238 12.7354 44.2378 12.727 44.3181C12.7227 44.4026 12.7143 44.4871 12.7059 44.5758H10.4376C10.4629 44.9601 10.5389 45.2263 10.6614 45.3741C10.7882 45.5219 10.9867 45.598 11.2739 45.598C11.4302 45.598 11.6161 45.5811 11.8357 45.5388C12.0554 45.505 12.2919 45.4459 12.5411 45.3699L12.5834 46.1935C12.3975 46.2696 12.1779 46.3287 11.9244 46.371C11.6752 46.4174 11.4344 46.4385 11.2106 46.4385H11.2148L11.2063 46.447ZM11.1641 42.7932C10.9402 42.7932 10.767 42.8777 10.6488 43.0467C10.5305 43.2156 10.4587 43.4944 10.4291 43.8788H11.747C11.7386 43.486 11.6879 43.2072 11.5992 43.0425C11.5105 42.8777 11.3626 42.7932 11.1599 42.7932H11.1641Z" fill="white"/>
<path d="M13.4577 42.0331H14.463L14.5137 42.4681H14.5432C14.6742 42.3076 14.8305 42.1809 15.0163 42.0922C15.2022 42.0035 15.4134 41.957 15.6415 41.957C16.5623 41.957 17.0269 42.6582 17.0269 44.0648C17.0269 44.4323 16.9847 44.7575 16.9129 45.0532C16.8369 45.3447 16.7144 45.5939 16.5539 45.8009C16.3933 46.0078 16.1864 46.1683 15.9329 46.2782C15.6795 46.388 15.3796 46.4471 15.029 46.4471C14.9572 46.4471 14.8854 46.4471 14.8093 46.4387C14.7333 46.4345 14.6488 46.4218 14.5517 46.4091V48.1452H13.4492V42.0373H13.4577V42.0331ZM15.0417 45.7079C15.198 45.7079 15.3331 45.6826 15.4387 45.6319C15.5485 45.5812 15.6372 45.4967 15.7006 45.3785C15.7682 45.2644 15.8147 45.1081 15.8484 44.9138C15.878 44.7237 15.8991 44.4788 15.8991 44.2C15.8991 43.9212 15.8865 43.7015 15.8653 43.5115C15.8442 43.3298 15.802 43.1778 15.7555 43.0637C15.7091 42.9497 15.633 42.8736 15.5485 42.8229C15.4641 42.7723 15.3627 42.7511 15.2444 42.7511C15.1388 42.7511 15.0417 42.7723 14.9572 42.8187C14.8727 42.8652 14.8009 42.9412 14.7418 43.0384C14.6826 43.1397 14.6404 43.2749 14.6024 43.4397C14.5644 43.6044 14.5517 43.8114 14.5517 44.0521V45.6192C14.7037 45.6784 14.8643 45.7079 15.0332 45.7079H15.0374H15.0417Z" fill="white"/>
<path d="M17.7578 42.0331H18.6913L18.7547 42.6371H18.8138C18.8392 42.6033 18.8941 42.5526 18.9743 42.4893C19.0546 42.4259 19.1475 42.3626 19.2573 42.3034C19.3672 42.2443 19.4812 42.1767 19.5995 42.1218C19.7177 42.0669 19.8318 42.012 19.9374 41.9697H20.1486V43.0215H19.7051C19.6248 43.0299 19.5446 43.0511 19.4601 43.0806C19.3756 43.1102 19.2953 43.1398 19.2193 43.1693C19.1433 43.1989 19.0715 43.2369 19.0081 43.2749C18.9448 43.313 18.8983 43.3552 18.8603 43.389V46.3796H17.7578V42.0289V42.0331Z" fill="white"/>
<path d="M21.7835 46.4552C21.4371 46.4552 21.1668 46.3538 20.9767 46.151C20.7866 45.9483 20.6895 45.6653 20.6895 45.2936V42.0284H21.7919V44.943C21.7919 45.1499 21.8257 45.2893 21.8933 45.3696C21.9651 45.4541 22.0749 45.4963 22.2312 45.4963C22.3368 45.4963 22.4509 45.4752 22.5649 45.4287C22.679 45.3823 22.8141 45.3062 22.9704 45.2006V42.0242H24.0729V46.3665H23.1394L23.076 45.9229H23.0464C22.8944 46.0243 22.7634 46.1088 22.6536 46.1764C22.5438 46.244 22.434 46.2989 22.341 46.3369C22.2481 46.3749 22.1552 46.4045 22.0623 46.4214C21.9693 46.4383 21.8848 46.4425 21.7835 46.4425H21.775L21.7835 46.4552ZM21.5216 41.4117C21.3315 41.4117 21.1879 41.3653 21.0992 41.2808C21.0105 41.1963 20.9598 41.0569 20.9598 40.8626C20.9598 40.4951 21.1456 40.3177 21.5216 40.3177C21.7074 40.3177 21.8511 40.3642 21.944 40.4486C22.0411 40.5331 22.0876 40.6725 22.0876 40.8668C22.0876 41.0611 22.0369 41.1963 21.944 41.285C21.8468 41.3695 21.7074 41.4159 21.5216 41.4159V41.4117ZM23.2576 41.4075C23.0676 41.4075 22.9239 41.361 22.8352 41.2765C22.7465 41.1921 22.6958 41.0527 22.6958 40.8584C22.6958 40.4909 22.8817 40.3135 23.2576 40.3135C23.4435 40.3135 23.5829 40.3599 23.6758 40.4444C23.7687 40.5289 23.8194 40.6683 23.8194 40.8626C23.8194 41.0569 23.7687 41.1921 23.6758 41.2808C23.5829 41.3653 23.4435 41.4117 23.2576 41.4117V41.4075Z" fill="white"/>
<path d="M29.2175 46.4216C28.7783 46.4216 28.4488 46.3202 28.2249 46.1133C28.001 45.9063 27.8912 45.6022 27.8912 45.2009V42.9579H26.3621V46.3751H25.2597V42.9579H24.6768V42.0329H25.2723V41.7921C25.2723 41.4331 25.3061 41.1332 25.3695 40.8882C25.4371 40.6474 25.5511 40.4489 25.7116 40.2968C25.8721 40.1448 26.0876 40.0349 26.3495 39.9589C26.6113 39.8829 26.945 39.8449 27.3379 39.8237L27.4012 40.6601C27.19 40.677 27.0211 40.7065 26.8859 40.7403C26.7507 40.7741 26.6451 40.8333 26.5691 40.9135C26.4931 40.9938 26.4382 41.0909 26.4086 41.2176C26.379 41.3444 26.3621 41.5049 26.3621 41.695V42.0244H27.9504L28.094 40.829L28.9768 40.7065V42.0244H29.8849V42.9579H28.981V44.9348C28.981 45.1713 29.0232 45.336 29.1077 45.4332C29.1922 45.5303 29.3147 45.581 29.4837 45.581C29.5428 45.581 29.6062 45.581 29.6695 45.5684C29.7371 45.5599 29.8089 45.5472 29.8849 45.5219V46.3245C29.7793 46.3498 29.6653 46.3709 29.5512 46.3836C29.4372 46.3963 29.3232 46.4005 29.2133 46.4005V46.4089L29.2175 46.4216Z" fill="white"/>
<path d="M32.242 46.447C31.6253 46.447 31.1564 46.2654 30.8396 45.8936C30.5228 45.5219 30.3623 44.977 30.3623 44.2632C30.3623 43.5029 30.5186 42.9284 30.8312 42.544C31.1437 42.1596 31.6126 41.9653 32.2335 41.9653C32.7615 41.9653 33.1459 42.1301 33.3951 42.4553C33.6443 42.7806 33.7711 43.2917 33.7711 43.9717C33.7711 44.1238 33.7711 44.2378 33.7626 44.3181C33.7584 44.4026 33.7499 44.4871 33.7415 44.5758H31.4732C31.4986 44.9601 31.5746 45.2263 31.6971 45.3741C31.8238 45.5219 32.0223 45.598 32.3096 45.598C32.4659 45.598 32.6517 45.5811 32.8714 45.5388C33.091 45.505 33.3275 45.4459 33.5768 45.3699L33.619 46.1935C33.4331 46.2696 33.2135 46.3287 32.9601 46.371C32.7108 46.4174 32.4701 46.4385 32.2462 46.4385H32.2504L32.242 46.447ZM32.1997 42.7932C31.9759 42.7932 31.8027 42.8777 31.6844 43.0467C31.5661 43.2156 31.4943 43.4944 31.4648 43.8788H32.7827C32.7742 43.486 32.7235 43.2072 32.6348 43.0425C32.5461 42.8777 32.4025 42.7932 32.1955 42.7932H32.1997Z" fill="white"/>
<path d="M35.5916 46.4554C35.2115 46.4554 34.7975 46.3836 34.354 46.2442V45.4205C34.523 45.4839 34.7215 45.5346 34.9369 45.5726C35.1566 45.6064 35.3593 45.6317 35.5578 45.6317C35.9507 45.6317 36.1408 45.4754 36.1408 45.1586C36.1408 45.0193 36.0985 44.9094 36.014 44.8292C35.9296 44.7489 35.7944 44.6898 35.6085 44.6518C35.4776 44.6306 35.3466 44.6011 35.1988 44.5673C35.0552 44.5335 34.9158 44.4701 34.7933 44.3857C34.6666 44.297 34.5652 44.166 34.4849 44.0013C34.4047 43.8365 34.3625 43.6042 34.3625 43.3128C34.3625 42.8777 34.4892 42.544 34.7384 42.3075C34.9876 42.0709 35.3424 41.9526 35.7986 41.9526C35.976 41.9526 36.1661 41.9653 36.3646 41.9949C36.5631 42.0244 36.7743 42.0582 36.9855 42.1047V42.9284C36.7448 42.8692 36.5589 42.8312 36.4195 42.8186C36.2801 42.8017 36.1534 42.7974 36.0309 42.7974C35.824 42.7974 35.6677 42.8397 35.5578 42.9242C35.448 43.0086 35.3889 43.1269 35.3889 43.2705C35.3889 43.4395 35.4396 43.562 35.5325 43.6296C35.6296 43.6971 35.7564 43.7436 35.9127 43.7774C36.0647 43.807 36.2168 43.8492 36.3688 43.8915C36.5209 43.9337 36.6603 44.0013 36.7828 44.0984C36.9053 44.1956 37.0067 44.3138 37.0827 44.4744C37.1587 44.6349 37.1967 44.8418 37.1967 45.0995C37.1967 45.5261 37.0531 45.8641 36.7743 46.1048C36.4871 46.3456 36.0943 46.4681 35.5916 46.4681V46.4554Z" fill="white"/>
<path d="M4.56201 53.9995L6.99503 50.0923V50.0205H4.66339V49.0659H8.258V50.0881L5.81654 53.9953V54.0587H8.36783V55.0133H4.56624V53.9995H4.56201Z" fill="white"/>
<path d="M9.96436 55.0553C9.61799 55.0553 9.3392 54.9455 9.12801 54.7174C8.91681 54.4893 8.81543 54.1851 8.81543 53.8092C8.81543 52.9813 9.33076 52.5336 10.3614 52.4618L11.1006 52.4111V52.2717C11.1006 52.1069 11.0922 51.9675 11.071 51.8619C11.0499 51.7563 11.0119 51.6719 10.957 51.6043C10.8979 51.5409 10.8218 51.4987 10.7289 51.4691C10.6317 51.448 10.5093 51.4353 10.3656 51.4353C10.3065 51.4353 10.2262 51.4353 10.1291 51.448C10.0319 51.4564 9.92212 51.4649 9.81652 51.4733C9.70669 51.4818 9.59687 51.4945 9.49549 51.5071C9.39412 51.5198 9.30541 51.5325 9.23783 51.5536L9.16602 50.751C9.39834 50.7046 9.63066 50.675 9.87143 50.6497C10.108 50.6243 10.3361 50.6074 10.543 50.6074C11.126 50.6074 11.5526 50.713 11.8145 50.9327C12.0764 51.1523 12.2115 51.4987 12.2115 51.9802V55.013H11.3034L11.2147 54.4893H11.1513C11.0119 54.6456 10.8387 54.7807 10.636 54.8863C10.429 54.9962 10.2136 55.0511 9.97703 55.0511H9.96436V55.0553ZM10.3741 54.2443C10.4881 54.2443 10.6149 54.2105 10.75 54.1387C10.881 54.0669 10.995 53.9951 11.0964 53.9233V53.0869L10.598 53.1376C10.3487 53.1629 10.1713 53.2221 10.0615 53.3108C9.96013 53.3995 9.90522 53.5346 9.90522 53.7163C9.90522 53.8852 9.94746 54.0204 10.0277 54.1091C10.108 54.1978 10.2262 54.2485 10.3699 54.2485H10.3741V54.2443Z" fill="white"/>
<path d="M13.0732 48.5166H14.1757V51.089C14.3278 50.9919 14.4629 50.9158 14.577 50.8525C14.691 50.7891 14.8051 50.7426 14.9065 50.7004C15.0078 50.6582 15.1092 50.6328 15.2021 50.6159C15.2951 50.599 15.3922 50.5948 15.4978 50.5948C15.8146 50.5948 16.0554 50.692 16.2159 50.8947C16.3806 51.0932 16.4609 51.3805 16.4609 51.7564V55.0215H15.3669V52.1281C15.3669 51.7522 15.2275 51.5663 14.9571 51.5663C14.7333 51.5663 14.4714 51.6635 14.1757 51.8578V55.0258H13.0732V48.525V48.5166Z" fill="white"/>
<path d="M17.3521 48.5166H18.4545V55.0089H17.3521V48.5166Z" fill="white"/>
<path d="M20.4275 55.0936C20.0811 55.0936 19.8108 54.9922 19.6207 54.7894C19.4306 54.5867 19.3335 54.3037 19.3335 53.932V50.6668H20.436V53.5814C20.436 53.7884 20.4697 53.9277 20.5373 54.008C20.6091 54.0925 20.719 54.1347 20.8753 54.1347C20.9809 54.1347 21.0949 54.1136 21.2089 54.0671C21.323 54.0207 21.4582 53.9446 21.6145 53.839V50.6626H22.7169V55.0049H21.7834L21.7201 54.5613H21.6905C21.5384 54.6627 21.4075 54.7472 21.2977 54.8148C21.1878 54.8824 21.078 54.9373 20.9851 54.9753C20.8921 55.0133 20.7992 55.0429 20.7063 55.0598C20.6176 55.0767 20.5289 55.0809 20.4275 55.0809H20.4191L20.4275 55.0936Z" fill="white"/>
<path d="M23.6206 50.675H24.5541L24.6174 51.1396H24.647C24.8075 51.0382 24.9511 50.9538 25.0694 50.8777C25.1961 50.8059 25.306 50.7468 25.4116 50.7088C25.5172 50.6708 25.6228 50.637 25.7199 50.6201C25.8171 50.6032 25.9227 50.5947 26.0283 50.5947C26.3451 50.5947 26.5858 50.6919 26.7463 50.8946C26.9111 51.0932 26.9913 51.3804 26.9913 51.7563V55.0215H25.8973V52.128C25.8973 51.9211 25.8635 51.7817 25.7917 51.693C25.7199 51.6085 25.6185 51.562 25.4918 51.562C25.3778 51.562 25.251 51.5874 25.1159 51.6381C24.9807 51.6887 24.8498 51.7605 24.7104 51.8535V55.0215H23.6079V50.6792H23.6164L23.6206 50.675Z" fill="white"/>
<path d="M29.2849 56.7829C28.8878 56.7829 28.4739 56.7195 28.0388 56.6013L28.1106 55.7776C28.3303 55.8325 28.5246 55.8705 28.6935 55.9001C28.8625 55.9297 29.0272 55.9423 29.1835 55.9423C29.3651 55.9423 29.5214 55.9212 29.6524 55.8747C29.7833 55.8283 29.8889 55.7522 29.9734 55.6509C30.0579 55.5495 30.117 55.4186 30.155 55.258C30.193 55.0975 30.2142 54.899 30.2142 54.6751V54.4555H30.1719C29.9269 54.7765 29.5763 54.937 29.137 54.937C28.6555 54.937 28.2965 54.7765 28.0641 54.4513C27.8318 54.126 27.7178 53.6276 27.7178 52.9602C27.7178 52.1872 27.8867 51.6043 28.2204 51.2072C28.5583 50.8102 29.0568 50.6074 29.7073 50.6074C29.948 50.6074 30.193 50.6243 30.4422 50.6666C30.6915 50.7088 30.9702 50.7637 31.2828 50.8482V54.4428C31.2828 56.0057 30.6112 56.7913 29.2722 56.7913H29.2764L29.2849 56.7829ZM29.5087 54.1851C29.7242 54.1851 29.8931 54.0964 30.0072 53.919C30.1297 53.7416 30.1888 53.4333 30.1888 52.9982V51.4395C30.0325 51.3804 29.8678 51.3508 29.6904 51.3508C29.5383 51.3508 29.4116 51.3762 29.306 51.4269C29.2004 51.4776 29.1159 51.562 29.0483 51.6761C28.9807 51.7901 28.9343 51.9422 28.9047 52.1323C28.8751 52.3181 28.8583 52.5505 28.8583 52.8335C28.8583 53.3319 28.9089 53.6825 29.0061 53.8852C29.1032 54.088 29.2722 54.1894 29.5045 54.1894L29.5087 54.1851Z" fill="white"/>
<path d="M33.2894 55.0936C32.9092 55.0936 32.4953 55.0218 32.0518 54.8824V54.0587C32.2207 54.1221 32.4192 54.1728 32.6347 54.2108C32.8543 54.2446 33.0571 54.2699 33.2556 54.2699C33.6484 54.2699 33.8385 54.1136 33.8385 53.7968C33.8385 53.6574 33.7963 53.5476 33.7118 53.4674C33.6273 53.3871 33.4921 53.328 33.3063 53.29C33.1753 53.2688 33.0444 53.2393 32.8966 53.2055C32.7529 53.1717 32.6135 53.1083 32.4911 53.0238C32.3643 52.9351 32.263 52.8042 32.1827 52.6395C32.1024 52.4747 32.0602 52.2424 32.0602 51.9509C32.0602 51.5159 32.1869 51.1822 32.4361 50.9456C32.6854 50.7091 33.0402 50.5908 33.4964 50.5908C33.6738 50.5908 33.8639 50.6035 34.0624 50.6331C34.2609 50.6626 34.4721 50.6964 34.6833 50.7429V51.5666C34.4425 51.5074 34.2567 51.4694 34.1173 51.4567C33.9779 51.4398 33.8512 51.4356 33.7287 51.4356C33.5217 51.4356 33.3654 51.4779 33.2556 51.5623C33.1458 51.6468 33.0866 51.7651 33.0866 51.9087C33.0866 52.0777 33.1373 52.2002 33.2303 52.2677C33.3274 52.3353 33.4541 52.3818 33.6104 52.4156C33.7625 52.4452 33.9145 52.4874 34.0666 52.5296C34.2187 52.5719 34.3581 52.6395 34.4806 52.7366C34.603 52.8338 34.7044 52.952 34.7805 53.1125C34.8565 53.2731 34.8945 53.48 34.8945 53.7377C34.8945 54.1643 34.7509 54.5022 34.4721 54.743C34.1849 54.9838 33.792 55.1063 33.2894 55.1063V55.0936Z" fill="white"/>
<path d="M5.79964 62.5194C5.41948 62.5194 5.00553 62.4476 4.56201 62.3082V61.4845C4.73097 61.5479 4.9295 61.5985 5.14492 61.6366C5.36457 61.6704 5.56732 61.6957 5.76585 61.6957C6.15868 61.6957 6.34876 61.5394 6.34876 61.2226C6.34876 61.0832 6.30652 60.9734 6.22204 60.8931C6.13756 60.8129 6.00239 60.7537 5.81654 60.7157C5.68559 60.6946 5.55465 60.665 5.40681 60.6312C5.26319 60.5975 5.1238 60.5341 5.00131 60.4496C4.87459 60.3609 4.77321 60.23 4.69296 60.0652C4.6127 59.9005 4.57046 59.6682 4.57046 59.3767C4.57046 58.9417 4.69718 58.608 4.94639 58.3714C5.19561 58.1349 5.55043 58.0166 6.00662 58.0166C6.18402 58.0166 6.3741 58.0293 6.57263 58.0588C6.77116 58.0884 6.98236 58.1222 7.19356 58.1687V58.9923C6.95279 58.9332 6.76694 58.8952 6.62754 58.8825C6.48815 58.8656 6.36143 58.8614 6.23894 58.8614C6.03196 58.8614 5.87567 58.9036 5.76585 58.9881C5.65603 59.0726 5.59689 59.1909 5.59689 59.3345C5.59689 59.5034 5.64758 59.6259 5.74051 59.6935C5.83766 59.7611 5.96438 59.8076 6.12066 59.8414C6.27273 59.8709 6.42479 59.9132 6.57686 59.9554C6.72892 59.9977 6.86831 60.0652 6.99081 60.1624C7.1133 60.2595 7.21468 60.3778 7.29071 60.5383C7.36674 60.6988 7.40476 60.9058 7.40476 61.1635C7.40476 61.5901 7.26114 61.928 6.98236 62.1688C6.69513 62.4095 6.3023 62.532 5.79964 62.532V62.5194Z" fill="white"/>
<path d="M8.63817 63.981V63.9219L9.12815 62.435L7.6582 58.173V58.0928H8.77334L9.56745 60.7666L9.6646 61.3199H9.72796L9.82934 60.7666L10.615 58.0928H11.7301V58.173L9.72796 64.2007L8.6255 63.9768H8.62972L8.63817 63.981Z" fill="white"/>
<path d="M13.3016 62.5194C12.9214 62.5194 12.5075 62.4476 12.064 62.3082V61.4845C12.2329 61.5479 12.4315 61.5985 12.6469 61.6366C12.8665 61.6704 13.0693 61.6957 13.2678 61.6957C13.6606 61.6957 13.8507 61.5394 13.8507 61.2226C13.8507 61.0832 13.8085 60.9734 13.724 60.8931C13.6395 60.8129 13.5043 60.7537 13.3185 60.7157C13.1875 60.6946 13.0566 60.665 12.9088 60.6312C12.7651 60.5975 12.6258 60.5341 12.5033 60.4496C12.3765 60.3609 12.2752 60.23 12.1949 60.0652C12.1147 59.9005 12.0724 59.6682 12.0724 59.3767C12.0724 58.9417 12.1991 58.608 12.4483 58.3714C12.6976 58.1349 13.0524 58.0166 13.5086 58.0166C13.686 58.0166 13.8761 58.0293 14.0746 58.0588C14.2731 58.0884 14.4843 58.1222 14.6955 58.1687V58.9923C14.4547 58.9332 14.2689 58.8952 14.1295 58.8825C13.9901 58.8656 13.8634 58.8614 13.7409 58.8614C13.5339 58.8614 13.3776 58.9036 13.2678 58.9881C13.158 59.0726 13.0988 59.1909 13.0988 59.3345C13.0988 59.5034 13.1495 59.6259 13.2425 59.6935C13.3396 59.7611 13.4663 59.8076 13.6226 59.8414C13.7747 59.8709 13.9267 59.9132 14.0788 59.9554C14.2309 59.9977 14.3703 60.0652 14.4928 60.1624C14.6153 60.2595 14.7166 60.3778 14.7927 60.5383C14.8687 60.6988 14.9067 60.9058 14.9067 61.1635C14.9067 61.5901 14.7631 61.928 14.4843 62.1688C14.1971 62.4095 13.8042 62.532 13.3016 62.532V62.5194Z" fill="white"/>
<path d="M17.2722 62.4898C16.8329 62.4898 16.4992 62.3884 16.2796 62.1815C16.0557 61.9745 15.9459 61.6704 15.9459 61.2691V59.0346H15.27V58.1011H16.0092L16.1528 56.9057L17.0356 56.7832V58.1011H17.9438V59.0346H17.0399V61.0114C17.0399 61.248 17.0821 61.4127 17.1666 61.5099C17.2511 61.607 17.3778 61.6577 17.5425 61.6577C17.6017 61.6577 17.665 61.6577 17.7284 61.645C17.796 61.6366 17.8678 61.6239 17.9438 61.5986V62.4011C17.8382 62.4265 17.7242 62.4476 17.6101 62.4602C17.4961 62.4729 17.382 62.4771 17.2722 62.4771V62.4898Z" fill="white"/>
<path d="M20.2923 62.511C19.6756 62.511 19.2067 62.3293 18.8899 61.9576C18.5731 61.5859 18.4126 61.041 18.4126 60.3271C18.4126 59.5668 18.5689 58.9924 18.8815 58.608C19.194 58.2236 19.6629 58.0293 20.2838 58.0293C20.8118 58.0293 21.1962 58.194 21.4454 58.5193C21.6946 58.8445 21.8214 59.3556 21.8214 60.0357C21.8214 60.1878 21.8214 60.3018 21.8129 60.3821C21.8087 60.4665 21.8002 60.551 21.7918 60.6397H19.5235C19.5489 61.0241 19.6249 61.2902 19.7474 61.4381C19.8741 61.5859 20.0726 61.6619 20.3599 61.6619C20.5161 61.6619 20.702 61.645 20.9216 61.6028C21.1413 61.569 21.3778 61.5099 21.6271 61.4338L21.6693 62.2575C21.4834 62.3335 21.2638 62.3927 21.0104 62.4349C20.7611 62.4814 20.5204 62.5025 20.2965 62.5025H20.3007L20.2923 62.511ZM20.25 58.8572C20.0262 58.8572 19.853 58.9417 19.7347 59.1106C19.6164 59.2796 19.5446 59.5584 19.5151 59.9428H20.8329C20.8245 59.5499 20.7738 59.2711 20.6851 59.1064C20.5964 58.9417 20.4528 58.8572 20.2458 58.8572H20.25Z" fill="white"/>
<path d="M22.5438 58.1013H23.4477L23.5111 58.5659H23.5406C23.6885 58.4645 23.8279 58.38 23.9504 58.304C24.0771 58.2322 24.1869 58.1731 24.2883 58.135C24.3897 58.097 24.4953 58.0632 24.5924 58.0463C24.6896 58.0294 24.7952 58.021 24.9008 58.021C25.3105 58.021 25.5977 58.2026 25.754 58.5659H25.8047C26.0835 58.3589 26.3242 58.2237 26.5228 58.1435C26.7213 58.0632 26.9325 58.021 27.1521 58.021C27.4647 58.021 27.7013 58.1182 27.866 58.3209C28.0307 58.5237 28.1152 58.8067 28.1152 59.1826V62.4477H27.0381V59.5543C27.0381 59.1784 26.8945 58.9925 26.6157 58.9925C26.3961 58.9925 26.1468 59.0854 25.8681 59.2755V62.452H24.7909V59.5585C24.7909 59.1826 24.6473 58.9967 24.3685 58.9967C24.1489 58.9967 23.8997 59.0897 23.6209 59.2797V62.4562H22.5438V58.1139H22.5396L22.5438 58.1013Z" fill="white"/>
<path d="M38.3244 52.5H35.4985V53.4757H38.3244V52.5Z" fill="white"/>
</g>
<defs>
<clipPath id="clip0_0_3161">
<rect width="42.9707" height="70" fill="white"/>
</clipPath>
</defs>
</svg>
