<svg width="160" height="60" viewBox="0 0 160 60" fill="none" xmlns="http://www.w3.org/2000/svg">
<rect y="-0.000976562" width="160" height="60" rx="30" fill="#F2F2F2"/>
<path d="M71.3926 39.0334L74.5017 21.5845H79.3419L76.3448 39.0334H71.3926Z" fill="#3C58BF"/>
<path d="M71.3926 39.0334L75.3716 21.5845H79.3419L76.3448 39.0334H71.3926Z" fill="#293688"/>
<path d="M93.8884 21.7742C92.9152 21.3866 91.3649 20.999 89.4271 20.999C84.5782 20.999 81.0902 23.4191 81.0902 26.9158C81.0902 29.534 83.5103 30.8948 85.4567 31.7647C87.4032 32.6345 87.9802 33.2202 87.9802 33.9953C87.9802 35.158 86.4299 35.7437 85.0692 35.7437C83.1313 35.7437 82.0634 35.4508 80.4184 34.7704L79.738 34.4776L79.0576 38.4566C80.2203 38.9389 82.3562 39.4298 84.5869 39.4298C89.7285 39.4298 93.1219 37.0097 93.1219 33.3235C93.1219 31.291 91.8644 29.7321 88.9534 28.4747C87.2051 27.6048 86.1457 27.1139 86.1457 26.244C86.1457 25.4689 87.0156 24.6938 88.9534 24.6938C90.5984 24.6938 91.7611 24.9866 92.6396 25.3742L93.1219 25.5723L93.897 21.7914L93.8884 21.7742Z" fill="#3C58BF"/>
<path d="M93.8884 21.7742C92.9152 21.3866 91.365 20.999 89.4272 20.999C84.5783 20.999 81.9601 23.4191 81.9601 26.9158C81.9601 29.534 83.5104 30.8948 85.4482 31.7647C87.386 32.6345 87.9716 33.2202 87.9716 33.9953C87.9716 35.158 86.4214 35.7437 85.0606 35.7437C83.1228 35.7437 82.0548 35.4508 80.4099 34.7704L79.7295 34.4776L79.0491 38.4566C80.2118 38.9389 82.3477 39.4298 84.5783 39.4298C89.72 39.4298 93.1133 37.0097 93.1133 33.3235C93.1133 31.291 91.8559 29.7321 88.9449 28.4747C87.1965 27.6048 86.1372 27.1139 86.1372 26.244C86.1372 25.4689 87.007 24.6938 88.9449 24.6938C90.5899 24.6938 91.7525 24.9866 92.631 25.3742L93.1133 25.5723L93.8884 21.7914V21.7742Z" fill="#293688"/>
<path d="M102.225 21.5845C101.063 21.5845 100.193 21.6792 99.7018 22.8419L92.4329 39.0334H97.6693L98.6425 36.1224H104.844L105.429 39.0334H110.08L106.006 21.5845H102.225ZM99.9947 33.22C100.287 32.3501 101.932 28.0783 101.932 28.0783C101.932 28.0783 102.32 27.0104 102.613 26.33L102.906 27.975C102.906 27.975 103.879 32.3415 104.068 33.3061H99.9947V33.2114V33.22Z" fill="#3C58BF"/>
<path d="M103.388 21.5845C102.225 21.5845 101.355 21.6792 100.865 22.8419L92.4329 39.0334H97.6693L98.6425 36.1224H104.844L105.429 39.0334H110.08L106.006 21.5845H103.388ZM99.9947 33.22C100.382 32.2468 101.932 28.0783 101.932 28.0783C101.932 28.0783 102.32 27.0104 102.613 26.33L102.906 27.975C102.906 27.975 103.879 32.3415 104.068 33.3061H99.9947V33.2114V33.22Z" fill="#293688"/>
<path d="M62.4787 33.7973L61.9964 31.2738C61.1265 28.3628 58.3102 25.1675 55.2097 23.6173L59.5763 39.1284H64.8127L72.6587 21.6794H67.4223L62.4787 33.7973Z" fill="#3C58BF"/>
<path d="M62.4787 33.7973L61.9964 31.2738C61.1265 28.3628 58.3102 25.1675 55.2097 23.6173L59.5763 39.1284H64.8127L72.6587 21.6794H68.3955L62.4787 33.7973Z" fill="#293688"/>
<path d="M49 21.5845L49.8699 21.7826C56.0709 23.2381 60.3427 26.9243 61.9877 31.2822L60.248 23.0314C59.9551 21.8688 59.0853 21.5759 58.0173 21.5759H49V21.5845Z" fill="#FFBC00"/>
<path d="M49 21.5845C55.201 23.04 60.3427 26.8209 61.9877 31.1788L60.3427 24.2974C60.0499 23.1347 59.0853 22.4543 58.0173 22.4543L49 21.5845Z" fill="#F7981D"/>
<path d="M49 21.5845C55.201 23.04 60.3427 26.8209 61.9877 31.1788L60.825 27.3979C60.5322 26.2352 60.1446 25.0725 58.7924 24.5902L49 21.5845Z" fill="#ED7C00"/>
<path d="M67.3275 33.2115L64.0289 29.913L62.4787 33.5991L62.0911 31.179C61.2212 28.268 58.405 25.0727 55.3044 23.5225L59.671 39.0336H64.9074L67.3275 33.2202V33.2115Z" fill="#051244"/>
<path d="M76.3448 39.0337L72.1677 34.7705L71.3926 39.0337H76.3448Z" fill="#051244"/>
<path d="M87.4893 33.0222C87.8769 33.4098 88.075 33.7026 87.9716 34.0902C87.9716 35.2529 86.4214 35.8385 85.0606 35.8385C83.1228 35.8385 82.0548 35.5457 80.4099 34.8653L79.7295 34.5725L79.0491 38.5515C80.2118 39.0338 82.3477 39.5247 84.5783 39.5247C87.6788 39.5247 90.2023 38.6548 91.6578 37.1046L87.4893 33.0308V33.0222Z" fill="#051244"/>
<path d="M93.1135 39.0336H97.6695L98.6428 36.1226H104.844L105.429 39.0336H110.08L108.435 31.9541L102.622 26.3301L102.915 27.8804C102.915 27.8804 103.888 32.2469 104.077 33.2116H100.004C100.391 32.2383 101.941 28.0699 101.941 28.0699C101.941 28.0699 102.329 27.0019 102.622 26.3215" fill="#051244"/>
</svg>
