<?xml version="1.0" encoding="utf-8"?>
<!-- Generator: Adobe Illustrator 26.0.0, SVG Export Plug-In . SVG Version: 6.00 Build 0)  -->
<svg version="1.1" id="Layer_1" xmlns="http://www.w3.org/2000/svg" xmlns:xlink="http://www.w3.org/1999/xlink" x="0px" y="0px"
	 viewBox="0 0 130 87.6" style="enable-background:new 0 0 130 87.6;" xml:space="preserve">
<style type="text/css">
	.st0{fill-rule:evenodd;clip-rule:evenodd;fill:#0C0E0F;}
</style>
<g>
	<path class="st0" d="M125.7,55.9c1.9,0,3.6,1.7,3.6,3.6c0,1.9-1.7,3.6-3.6,3.6c-2.1,0-3.6-1.7-3.6-3.6
		C122.1,57.5,123.7,55.9,125.7,55.9z M125.7,55.1c-2.5,0-4.4,1.9-4.4,4.4c0,2.3,1.9,4.4,4.4,4.4c2.3,0,4.3-2.1,4.3-4.4
		C130,57,128.1,55.1,125.7,55.1z M126.8,59.5c0.6-0.1,0.7-0.4,0.7-1.1c0-0.8-0.4-1.4-1.8-1.4h-1.7v4.8h1v-2.1h1
		c0.6,0,0.7,0.7,0.7,1.7c0,0.1,0,0.4,0.1,0.4h0.8c-0.1-0.3-0.1-0.8-0.1-1.4C127.5,59.9,127.1,59.5,126.8,59.5z M125,57.8h0.8
		c0.7,0,0.8,0.3,0.8,0.6c0,0.6-0.6,0.7-1,0.7H125L125,57.8z M111,57.4L77.7,0L58.5,11l26.8,46.4H111z M17.8,57.4h25.7L33.3,39.9
		l-19.2,11L17.8,57.4z M51.6,57.4h25.7L55.8,20.1l-19.3,11L51.6,57.4z"/>
	<path class="st0" d="M11.7,69.7c3.4,0,6.3,3,6.3,6.3c0,3.4-2.9,6.3-6.3,6.3S5.4,79.5,5.4,76C5.4,72.7,8.3,69.7,11.7,69.7L11.7,69.7
		z M37.1,69.7c3.4,0,6.3,3,6.3,6.3c0,3.4-2.9,6.3-6.3,6.3c-3.6,0-6.5-2.9-6.5-6.3C30.6,72.7,33.5,69.7,37.1,69.7L37.1,69.7z
		 M70.9,69.7c3.5,0,6.3,3,6.3,6.3c0,3.4-2.9,6.3-6.3,6.3c-3.4,0-6.3-2.9-6.3-6.3C64.6,72.7,67.5,69.7,70.9,69.7z M96.2,69.7
		c3.4,0,6.3,3,6.3,6.3c0,3.4-2.9,6.3-6.3,6.3c-3.5,0-6.3-2.9-6.3-6.3C89.8,72.7,92.7,69.7,96.2,69.7z M51.6,62.9h5.5v-5.5h-5.5V62.9
		z M112.3,85c1.7,1.5,4.4,2.6,7.7,2.6c3.3,0,6.3-0.8,8.1-2.6c1.1-1.2,1.8-2.9,1.8-5c0-3-2.2-5.2-5.5-6.1c-3.6-1-8.3-0.8-8.3-3
		c0.1-1.5,1.7-1.9,3.9-1.9c3.3,0,3.5,1.8,3.6,2.9h5.5c-0.4-4.3-3.9-7.2-9.4-7.2c-5.8,0-9.1,3.2-9.1,7c0,2.3,1.2,4.4,3,5.4
		c1.4,0.7,3.5,1.1,5.8,1.5c2.3,0.4,4.4,0.6,4.6,2.2c0,1.1-1.1,2.6-3.6,2.6c-3.7-0.1-4.6-2.1-4.6-3.5h-5.8
		C110.3,82,111,83.6,112.3,85z M88.7,85c2.1,1.5,4.6,2.6,7.3,2.6c2.5,0,4.7-0.8,6.5-2.1v1.5h5.5V65h-5.5v1.7
		c-1.8-1.2-4.1-1.9-6.5-1.9c-6.3,0-11.5,5-11.5,11.3C84.6,79.6,86.3,82.8,88.7,85L88.7,85z M63.5,85c1.9,1.5,4.6,2.6,7.3,2.6
		c2.5,0,4.7-0.8,6.5-2.1v1.5h5.4V57.4h-5.4v9.2c-1.8-1.2-4-1.9-6.5-1.9c-6.3,0-11.5,5-11.5,11.3C59.3,79.6,61,82.8,63.5,85L63.5,85z
		 M51.6,87.1h5.5V65h-5.5V87.1z M29.7,85c1.9,1.5,4.6,2.6,7.3,2.6c2.3,0,4.6-0.8,6.5-2.1v1.5h5.4V57.4h-5.4v9.2
		c-1.9-1.2-4.1-1.9-6.5-1.9c-6.3,0-11.6,5-11.6,11.3C25.4,79.6,27,82.8,29.7,85L29.7,85z M23.5,85V65h-5.4v1.7
		c-1.9-1.2-4.1-1.9-6.6-1.9C5.2,64.7,0,69.7,0,76c0,3.6,1.7,6.8,4.3,9c1.9,1.5,4.6,2.6,7.2,2.6c2.5,0,4.8-0.8,6.6-2.1v1.5h5.4
		L23.5,85z"/>
</g>
</svg>
