<?xml version="1.0" encoding="utf-8"?>
<!-- Generator: Adobe Illustrator 26.0.0, SVG Export Plug-In . SVG Version: 6.00 Build 0)  -->
<svg version="1.1" id="Calque_1" xmlns="http://www.w3.org/2000/svg" xmlns:xlink="http://www.w3.org/1999/xlink" x="0px" y="0px"
	 viewBox="0 0 130 24.1" style="enable-background:new 0 0 130 24.1;" xml:space="preserve">
<style type="text/css">
	.st0{fill:#01195C;}
</style>
<path class="st0" d="M59.9,8.2c0-4.4-2.9-7.8-8.8-7.8h-12v23.1h5.6V5.5h6.4c2.3,0,3.2,1.3,3.2,2.9c0,1.6-0.9,2.9-3.2,2.9h-5.4
	l7.8,12.3h6.4c0,0-5.3-8.3-5.2-8.3C57.9,14.5,59.9,12.2,59.9,8.2 M29.8,0.5h5.6v23.1h-5.6L29.8,0.5z M11.8,0.5L0,23.6h6.4l1.9-3.9
	h9.5l-2.3-4.9h-4.8l3.5-7.1h0.1l7.9,15.9h6.5L16.8,0.5H11.8z M80.5,11.6c1.8-1,2.7-2.5,2.7-4.9c0-3.7-2.8-6.2-7.4-6.2H62.6v23.1
	h13.6c4.8,0,7.9-2.5,7.9-6.5C84.2,14.4,82.7,12.4,80.5,11.6 M68.2,5.4h7.5c1.1,0,2,0.9,2,2s-0.9,2-2,2h-7.5V5.4z M75.9,18.7h-7.7
	v-4.7h7.7c1.3,0,2.4,1,2.4,2.3S77.3,18.7,75.9,18.7 M102,13.4c0,3.5-1.6,5.4-4.8,5.4c-3.1,0-4.8-1.9-4.8-5.4V0.5h-5.8V13
	c0,7.2,3.7,11.1,10.6,11.1c6.8,0,10.6-3.9,10.6-11.1V0.5H102L102,13.4L102,13.4z M122.8,9.7c-5.4-1.3-6.5-1.4-6.5-2.9
	c0-1.2,1.3-1.7,3.6-1.7c3,0,6.2,0.7,8,1.9l1.8-4.7c-2.4-1.3-5.8-2.2-9.8-2.2c-6,0-9.3,2.9-9.3,7c0,4.3,2.5,6,8.2,7.2
	c4.5,1,5.4,1.6,5.4,2.9c0,1.3-1.2,1.9-3.7,1.9c-3.5,0-6.7-0.9-9.2-2.3l-1.7,5c2.8,1.5,7,2.4,11.1,2.4c5.8,0,9.3-2.7,9.3-7.2
	C130.1,13.2,127.7,10.8,122.8,9.7"/>
</svg>
