<?xml version="1.0" encoding="utf-8"?>
<!-- Generator: Adobe Illustrator 26.0.0, SVG Export Plug-In . SVG Version: 6.00 Build 0)  -->
<svg version="1.1" id="Layer_1" xmlns="http://www.w3.org/2000/svg" xmlns:xlink="http://www.w3.org/1999/xlink" x="0px" y="0px"
	 viewBox="0 0 130 33.6" style="enable-background:new 0 0 130 33.6;" xml:space="preserve">
<style type="text/css">
	.st0{fill:#004A93;}
</style>
<g>
	<path class="st0" d="M11.8,18.2H7l2.5-8.2L11.8,18.2z M4.8,26.5l1.5-5h6.1l1.5,5h5.1L13.6,7.4c-0.3-1.3-0.9-1.7-2.2-1.7H3.9v1.7
		h0.6c0.9,0,1.4,0.3,1.4,1c0,0.4,0,0.7-0.5,1.8L0,26.5"/>
	<path class="st0" d="M25.3,26.5V7.3c0-1-0.6-1.5-1.6-1.5h-4.6v1.7h0.3c0.9,0,1.4,0.4,1.4,1.2v17.8 M33.7,26.5V7.3
		c0-1-0.6-1.5-1.6-1.5h-4.6v1.7h0.3c0.9,0,1.4,0.4,1.4,1.2v17.8"/>
	<g>
		<path class="st0" d="M42.2,7.6c0-1.4-1.1-2.2-2.7-2.2c-1.8,0-2.7,0.8-2.7,2.2c0,1.4,0.9,2.2,2.7,2.2C41.1,9.8,42.2,9,42.2,7.6
			 M42,26.5v-14c0-1-0.6-1.5-1.5-1.5h-4.6v1.7h0.3c0.9,0,1.2,0.4,1.2,1.2v12.6 M53,19v3.1c-0.9,0.9-1.9,1.4-2.8,1.4
			s-1.4-0.4-1.4-1.6c0-1.3,0.3-1.8,1.4-2.2C51,19.4,51.7,19.2,53,19 M46.5,15.3l0.5-0.2c1.2-0.5,1.9-0.7,2.8-0.8
			c0.5-0.1,1.1-0.1,1.4-0.1c1.5,0,1.9,0.5,1.9,1.9v0.4c-2.1,0.4-2.7,0.5-3.9,0.7c-0.6,0.2-1.2,0.4-1.8,0.6c-1.9,0.8-2.8,2.3-2.8,4.6
			c0,2.9,1.2,4.3,3.9,4.3c1.1,0,2.1-0.3,2.8-0.7c0.8-0.4,1.1-0.5,1.9-1.4V25c0,1,0.5,1.4,1.4,1.4H59v-1.6h-0.2
			c-0.9,0-1.4-0.4-1.4-1.2v-7.6c0-4-1.4-5.3-5.2-5.3c-1.4,0-2.5,0.2-3.7,0.4c-1.2,0.3-1.8,0.5-3.1,1.2 M66,26.5V16
			c1.1-1,1.8-1.4,2.8-1.4c1.1,0,1.4,0.5,1.4,2v9.8h4.6V15.9c0-2.2-0.3-3.1-0.9-3.9c-0.8-0.8-1.6-1.2-3-1.2c-1.8,0-3.1,0.7-5.2,2.5
			v-0.8c0-1-0.5-1.5-1.4-1.5h-4.5v1.7H60c0.9,0,1.4,0.4,1.4,1.2v12.6"/>
		<g transform="matrix(6.78093 0 0 -6.78093 -9880.484 5165.031)">
			<path class="st0" d="M1470.2,758.2h-1l1,1.4v0.5h-1.5c-0.2,0-0.3-0.1-0.3-0.3v-0.4h0.3v0.1c0,0.1,0.1,0.2,0.2,0.2h0.5l-1-1.4
				v-0.5h1.8"/>
			<path class="st0" d="M1474.1,757.9v2.6c0,0.2-0.1,0.3-0.3,0.3h-0.6v-0.3h0.1c0.1,0,0.2-0.1,0.2-0.2v-2.4H1474.1z M1474.5,757.9
				h0.6v2c0,0.2-0.1,0.3-0.3,0.3h-0.4V757.9z M1473.1,757.9v2.2h-0.4c-0.2,0-0.3-0.1-0.3-0.3v-2H1473.1L1473.1,757.9z M1475.9,759.2
				c0-1.2-0.9-2.1-2.1-2.1c-1.2,0-2.1,0.9-2.1,2.1c0,1.2,0.9,2.1,2.1,2.1C1475,761.3,1475.9,760.4,1475.9,759.2 M1476.3,759.2
				c0,1.4-1.1,2.5-2.5,2.5c-1.4,0-2.5-1.1-2.5-2.5s1.1-2.5,2.5-2.5C1475.2,756.7,1476.3,757.8,1476.3,759.2"/>
		</g>
	</g>
</g>
</svg>
