<?xml version="1.0" encoding="utf-8"?>
<!-- Generator: Adobe Illustrator 26.0.0, SVG Export Plug-In . SVG Version: 6.00 Build 0)  -->
<svg version="1.1" id="Layer_1" xmlns="http://www.w3.org/2000/svg" xmlns:xlink="http://www.w3.org/1999/xlink" x="0px" y="0px"
	 viewBox="0 0 130 44" style="enable-background:new 0 0 130 44;" xml:space="preserve">
<style type="text/css">
	.st0{fill-rule:evenodd;clip-rule:evenodd;fill:#ED008C;}
	.st1{fill-rule:evenodd;clip-rule:evenodd;}
</style>
<g>
	<polygon class="st0" points="17.8,37.1 17.8,38.5 17.4,38.5 17.4,39.1 17.8,39.1 17.8,42 18.5,42 18.5,39.1 19.1,39.1 19.1,38.5 
		18.5,38.5 18.5,37.1 	"/>
	<path class="st0" d="M20.5,35.4V42h0.7v-1.6c0-0.5,0-0.8,0.1-1c0.1-0.3,0.3-0.4,0.7-0.4c0.3,0,0.6,0.1,0.7,0.2
		c0.1,0.1,0.1,0.4,0.1,0.8v2h0.7v-2.1c0-1-0.4-1.5-1.3-1.5c-0.5,0-0.8,0.2-1,0.5v-3.5L20.5,35.4L20.5,35.4L20.5,35.4z"/>
	<path class="st0" d="M28.6,40.2c0-0.5-0.1-1-0.4-1.3c-0.4-0.3-0.8-0.5-1.3-0.5c-0.5,0-1,0.2-1.3,0.5c-0.3,0.3-0.4,0.8-0.4,1.4
		c0,0.5,0.2,1,0.5,1.3c0.3,0.3,0.7,0.5,1.2,0.5c0.4,0,0.7-0.1,1-0.2c0.3-0.2,0.5-0.5,0.7-0.7L28,40.8c-0.3,0.5-0.6,0.7-1.1,0.7
		c-0.3,0-0.5-0.1-0.7-0.3c-0.2-0.3-0.3-0.6-0.3-0.9h2.7V40.2z M25.9,39.8c0.1-0.3,0.2-0.5,0.4-0.6c0.1-0.2,0.3-0.3,0.6-0.3
		c0.3,0,0.5,0.1,0.7,0.3c0.1,0.1,0.2,0.3,0.3,0.6H25.9z"/>
	<path class="st1" d="M35.2,39c0.4,0,0.7,0.2,1,0.5v-0.9c-0.3-0.1-0.6-0.2-1-0.2c-0.5,0-1,0.2-1.3,0.5c-0.4,0.3-0.6,0.8-0.6,1.4
		c0,0.5,0.2,0.9,0.6,1.3c0.3,0.3,0.8,0.5,1.3,0.5l1-0.2V41c-0.3,0.3-0.6,0.5-1,0.5c-0.3,0-0.6-0.1-0.9-0.4c-0.2-0.2-0.3-0.5-0.3-0.9
		c0-0.3,0.1-0.6,0.3-0.8C34.6,39.1,34.9,39,35.2,39z"/>
	<path class="st1" d="M40.9,38.9c-0.4-0.3-0.9-0.5-1.4-0.5c-0.5,0-0.9,0.2-1.3,0.5c-0.3,0.3-0.5,0.8-0.5,1.3c0,0.5,0.2,1,0.5,1.4
		c0.4,0.3,0.8,0.5,1.3,0.5c0.5,0,1-0.2,1.4-0.5c0.3-0.4,0.5-0.9,0.5-1.4C41.4,39.7,41.2,39.2,40.9,38.9z M40.4,41.1
		c-0.2,0.3-0.5,0.4-0.9,0.4c-0.3,0-0.6-0.1-0.8-0.4c-0.3-0.3-0.4-0.6-0.4-0.9c0-0.3,0.1-0.6,0.4-0.8c0.2-0.3,0.5-0.4,0.8-0.4
		c0.4,0,0.7,0.1,0.9,0.4c0.3,0.2,0.4,0.5,0.4,0.8C40.8,40.5,40.7,40.8,40.4,41.1z"/>
	<path class="st1" d="M43.7,38.5h-0.6V42h0.6v-1.7c0-0.9,0.3-1.3,0.8-1.3c0.3,0,0.5,0.1,0.6,0.4c0.1,0.1,0.1,0.4,0.1,0.7V42h0.7
		v-1.7l0.1-0.9c0.1-0.3,0.3-0.4,0.6-0.4c0.5,0,0.7,0.3,0.7,1v2H48v-2.1c0-1-0.4-1.5-1.2-1.5l-0.6,0.1L45.7,39
		c-0.3-0.4-0.6-0.6-1-0.6c-0.4,0-0.7,0.2-1,0.5L43.7,38.5L43.7,38.5L43.7,38.5z"/>
	<path class="st1" d="M53,38.9c-0.3-0.3-0.7-0.5-1.2-0.5c-0.5,0-1,0.2-1.3,0.6v-0.5h-0.7V44h0.7v-2.6c0.3,0.5,0.7,0.7,1.2,0.7
		c0.5,0,1-0.2,1.3-0.6c0.3-0.3,0.4-0.8,0.4-1.3C53.4,39.7,53.3,39.2,53,38.9z M52.4,41.1c-0.2,0.3-0.5,0.4-0.8,0.4
		c-0.3,0-0.6-0.1-0.8-0.4c-0.2-0.2-0.3-0.5-0.3-0.9l0.3-0.9c0.2-0.2,0.5-0.3,0.8-0.3c0.3,0,0.6,0.1,0.8,0.3c0.2,0.3,0.3,0.6,0.3,0.9
		C52.7,40.6,52.6,40.9,52.4,41.1z"/>
	<path class="st1" d="M57.6,38.5V39c-0.3-0.4-0.7-0.6-1.2-0.6s-0.9,0.2-1.2,0.5c-0.3,0.3-0.5,0.8-0.5,1.3c0,0.5,0.1,1,0.4,1.3v0
		c0.3,0.4,0.8,0.6,1.3,0.6s0.9-0.2,1.2-0.7V42h0.7v-3.5H57.6z M57.4,41.1c-0.3,0.3-0.6,0.4-0.9,0.4c-0.3,0-0.6-0.1-0.8-0.4
		c-0.2-0.2-0.3-0.5-0.3-0.9l0.3-0.9c0.2-0.2,0.5-0.3,0.8-0.3c0.3,0,0.6,0.1,0.9,0.3c0.2,0.3,0.3,0.6,0.3,0.9
		C57.7,40.6,57.6,40.9,57.4,41.1z"/>
	<path class="st1" d="M60.2,38.5V42h0.7v-1.6c0-0.5,0-0.8,0.1-1c0.1-0.3,0.3-0.4,0.7-0.4c0.3,0,0.6,0.1,0.7,0.2
		c0.1,0.1,0.1,0.4,0.1,0.8v2h0.7v-2.1c0-1-0.4-1.5-1.3-1.5c-0.5,0-0.8,0.2-1,0.5v-0.4L60.2,38.5L60.2,38.5L60.2,38.5z"/>
	<polygon class="st1" points="65.3,38.5 64.5,38.5 66.1,41.4 64.7,44 65.5,44 68.4,38.5 67.6,38.5 66.5,40.7 	"/>
	<path class="st1" d="M75,35.4l-0.4-0.1c-0.8,0-1.2,0.5-1.2,1.4v1.8h-0.3v0.6h0.3V42h0.7v-2.9H75v-0.6h-0.9v-1.6l0.1-0.6
		c0.1-0.2,0.2-0.3,0.4-0.3l0.4,0.1V35.4L75,35.4z"/>
	<path class="st1" d="M79.4,38.9c-0.4-0.3-0.9-0.5-1.4-0.5c-0.5,0-0.9,0.2-1.3,0.5c-0.3,0.3-0.5,0.8-0.5,1.3c0,0.5,0.2,1,0.5,1.4
		c0.4,0.3,0.8,0.5,1.3,0.5c0.5,0,1-0.2,1.4-0.5c0.3-0.4,0.5-0.9,0.5-1.4C79.9,39.7,79.7,39.2,79.4,38.9z M78.8,41.1
		c-0.2,0.3-0.5,0.4-0.9,0.4c-0.3,0-0.6-0.1-0.8-0.4c-0.3-0.3-0.4-0.6-0.4-0.9c0-0.3,0.1-0.6,0.4-0.8c0.2-0.3,0.5-0.4,0.8-0.4
		c0.4,0,0.7,0.1,0.9,0.4c0.3,0.2,0.4,0.5,0.4,0.8C79.3,40.5,79.1,40.8,78.8,41.1z"/>
	<path class="st1" d="M82.1,38.5h-0.7V42h0.7v-1.7c0-0.9,0.3-1.3,0.8-1.3l0.4,0.1l0.4-0.6l-0.6-0.1c-0.5,0-0.8,0.2-1,0.6L82.1,38.5
		L82.1,38.5z"/>
	<polygon class="st1" points="88.9,38.5 88.1,38.5 89.9,42.1 90.9,39.8 92,42.1 93.8,38.5 93,38.5 92,40.7 90.9,38.3 89.9,40.7 
		88.9,38.5 	"/>
	<path class="st1" d="M98,38.9c-0.4-0.3-0.9-0.5-1.4-0.5c-0.5,0-0.9,0.2-1.3,0.5c-0.3,0.3-0.5,0.8-0.5,1.3c0,0.5,0.2,1,0.5,1.4
		c0.4,0.3,0.8,0.5,1.3,0.5c0.5,0,1-0.2,1.4-0.5c0.3-0.4,0.5-0.9,0.5-1.4C98.5,39.7,98.3,39.2,98,38.9z M97.5,41.1
		c-0.2,0.3-0.5,0.4-0.9,0.4c-0.3,0-0.6-0.1-0.8-0.4c-0.3-0.3-0.4-0.6-0.4-0.9c0-0.3,0.1-0.6,0.4-0.8c0.2-0.3,0.5-0.4,0.8-0.4
		c0.4,0,0.7,0.1,0.9,0.4c0.3,0.2,0.4,0.5,0.4,0.8C97.9,40.5,97.8,40.8,97.5,41.1z"/>
	<path class="st1" d="M100.8,38.5h-0.6V42h0.6v-1.7c0-0.9,0.3-1.3,0.8-1.3c0.3,0,0.5,0.1,0.6,0.4c0.1,0.1,0.1,0.4,0.1,0.7V42h0.7
		v-1.7l0.1-0.9c0.1-0.3,0.3-0.4,0.6-0.4c0.5,0,0.7,0.3,0.7,1v2h0.7v-2.1c0-1-0.4-1.5-1.2-1.5l-0.6,0.1l-0.5,0.5
		c-0.3-0.4-0.6-0.6-1-0.6c-0.4,0-0.7,0.2-1,0.5L100.8,38.5L100.8,38.5z"/>
	<path class="st1" d="M110,40.2c0-0.5-0.1-1-0.4-1.3c-0.4-0.3-0.8-0.5-1.3-0.5c-0.5,0-1,0.2-1.3,0.5c-0.3,0.3-0.4,0.8-0.4,1.4
		c0,0.5,0.2,1,0.5,1.3c0.3,0.3,0.7,0.5,1.2,0.5c0.4,0,0.7-0.1,1-0.2c0.3-0.2,0.5-0.5,0.7-0.7l-0.6-0.4c-0.3,0.5-0.6,0.7-1.1,0.7
		c-0.3,0-0.5-0.1-0.7-0.3c-0.2-0.3-0.3-0.6-0.3-0.9h2.7V40.2z M107.3,39.8c0.1-0.3,0.2-0.5,0.4-0.6c0.1-0.2,0.3-0.3,0.6-0.3
		c0.3,0,0.5,0.1,0.7,0.3c0.1,0.1,0.2,0.3,0.3,0.6H107.3z"/>
	<path class="st1" d="M111.6,38.5V42h0.7v-1.6c0-0.5,0-0.8,0.1-1c0.1-0.3,0.3-0.4,0.7-0.4c0.3,0,0.6,0.1,0.7,0.2
		c0.1,0.1,0.1,0.4,0.1,0.8v2h0.7v-2.1c0-1-0.4-1.5-1.3-1.5c-0.5,0-0.8,0.2-1,0.5v-0.4L111.6,38.5L111.6,38.5L111.6,38.5z"/>
	<path d="M33.5,1.3h2.1l9.2,20l9-20h2.3L44.8,25.5L33.5,1.3L33.5,1.3z"/>
	<path d="M80.1,23.2c1.5,0,2.8-0.3,4.1-0.8c1.2-0.5,2.3-1.3,3.2-2.2c0.9-0.9,1.6-2,2.1-3.3c0.5-1.3,0.8-2.6,0.8-4.1
		c0-4.1-2.1-7.9-6.1-9.7C81.6,2,78.5,2,76,3.1c-2.5,1.1-4.3,3-5.3,5.5c-1,2.6-1,5.6,0,8.2c1,2.6,2.8,4.4,5.4,5.6
		C77.3,23,78.7,23.2,80.1,23.2z M80.1,24.8c-1.8,0-3.5-0.3-4.9-1c-2.8-1.3-5.1-3.5-6.2-6.4c-1.2-2.9-1.1-6.3,0-9.2
		c1.2-3,3.3-5.2,6.2-6.5c1.5-0.7,3.1-1,5-1c3.4,0,6.3,1.2,8.7,3.6c3.3,3.4,4.2,8.7,2.4,13c-1.2,3-3.3,5.2-6.3,6.5
		C83.5,24.5,81.8,24.8,80.1,24.8C78.2,24.8,80.1,24.8,80.1,24.8z"/>
	<path d="M17.5,16.6L11.7,4.1L6,16.6H17.5L17.5,16.6z M23.5,24.5H21l-2.9-6.4H5.3l-3.1,6.4H0L11.7,0.1L23.5,24.5L23.5,24.5z"/>
	<path d="M109,0l19.3,20.8V1.1h1.6v24.2L110.7,4.8v19.8H109V0L109,0z"/>
</g>
</svg>
