<?xml version="1.0" encoding="utf-8"?>
<!-- Generator: Adobe Illustrator 26.0.0, SVG Export Plug-In . SVG Version: 6.00 Build 0)  -->
<svg version="1.1" id="Layer_1" xmlns="http://www.w3.org/2000/svg" xmlns:xlink="http://www.w3.org/1999/xlink" x="0px" y="0px"
	 viewBox="0 0 2426.5 2272" style="enable-background:new 0 0 2426.5 2272;" xml:space="preserve">
<style type="text/css">
	.st0{fill-rule:evenodd;clip-rule:evenodd;fill:#3B5598;}
	.st1{fill-rule:evenodd;clip-rule:evenodd;fill:#CF4044;}
</style>
<path class="st0" d="M0,0v2272h2426.5V0H0z M1769,2122.1c-7.7-52.5-14.7-77.2-24.7-107.4l-76.5-244.1H1328l-61,80.3l54.8,165.3
	c10.8,34.8,22.4,61.8,42.5,105.8h-193.1l-31.7-105.8l-77.3,105.8H906.9L873.7,2017l-81.9,105.1H636.6c3.9-3.1,7-6.2,10-9.3
	c39.4-34.8,64.1-66.4,85.7-95l98.9-129.8l-38.6-117.4H453.5l-265,351.5H24c62.6-54.1,78.8-71.1,102-102l502.1-663.6
	c6.9-9,13.1-18.6,18.5-28.6c9.3-15.4,17.8-33.2,22.4-54.8h163c0,36.3,5.4,56.4,13.1,84.2l114.3,358.4l58.7-77.2l-93.5-285.1
	c-7-20.9-15.4-47.9-32.5-80.3H1090c5.4,31.7,10.8,57.2,19.3,85l36.3,112l85-112.8c19.3-26.3,45.6-55.6,57.2-84.2h173
	c-34,27-55.6,55.6-76.5,82.7l-191.6,254.2L1226,1715l274.3-358.5c6.9-10.8,14.7-20.1,22.4-30.1c10-15.4,18.5-31.7,24-53.3H1708
	c2.3,28.6,6.2,53.3,13.9,79.6l207.8,662.8c10,35.5,17,57.2,43.2,106.6L1769,2122.1L1769,2122.1L1769,2122.1z"/>
<path class="st0" d="M530.7,1665.5h231.8l-70.3-214L530.7,1665.5z M1002,1846.3l37.1,117.4l59.5-78l-41-115.1L1002,1846.3z
	 M1410.6,1665.5h224l-70.3-214L1410.6,1665.5L1410.6,1665.5z"/>
<path class="st1" d="M1328,1229.8h142.1L2398.7-0.8h-142.1L1328,1229.8L1328,1229.8z"/>
</svg>
