<?xml version="1.0" encoding="utf-8"?>
<!-- Generator: Adobe Illustrator 26.0.0, SVG Export Plug-In . SVG Version: 6.00 Build 0)  -->
<svg version="1.1" id="Layer_1" xmlns="http://www.w3.org/2000/svg" xmlns:xlink="http://www.w3.org/1999/xlink" x="0px" y="0px"
	 viewBox="0 0 130 28.9" style="enable-background:new 0 0 130 28.9;" xml:space="preserve">
<style type="text/css">
	.st0{fill-rule:evenodd;clip-rule:evenodd;fill:#989A9C;}
	.st1{fill-rule:evenodd;clip-rule:evenodd;fill:#BF0E88;}
</style>
<g>
	<path class="st0" d="M0,13.2h5.8V19H0V13.2z M17.3,13.2h5.8V19h-5.8V13.2L17.3,13.2z M34.6,13.2h5.8V19h-5.8V13.2z"/>
	<path class="st1" d="M48.5,22.5c0,3.8,0.7,4.5,4.8,4.5v1.6h-14V27c4.1,0,4.8-0.7,4.8-4.5V1.4c-4.7,0.1-7.5,3.2-7.9,8.9l-1.5-0.2
		l0.3-10.1h22.7l0.3,10.1l-1.5,0.2c-0.4-5.7-3.2-8.9-7.9-8.9V22.5z"/>
	<path class="st0" d="M52.1,13.2h5.8V19h-5.8V13.2z M69.3,2.4c0-0.9-0.1-1.3-0.3-1.5c-0.2-0.2-0.5-0.3-0.9-0.3h-0.2V0.1H72
		c1.9,0,3.3,0.6,4.3,1.8c0.9,1.1,1.4,2.4,1.4,4c0,1.8-0.6,3.4-1.7,4.5c-1,1-2.3,1.4-4,1.4h-4.2v-0.6h0.2c0.4,0,0.8-0.1,0.9-0.3
		c0.2-0.2,0.3-0.5,0.3-1.5V2.4z M70.9,9.6c0,1.3,0.2,1.6,1.4,1.6c2.5,0,3.5-1.4,3.5-5.3c0-3.7-1-5.2-3.5-5.2c-0.7,0-1.1,0.1-1.3,0.4
		c-0.2,0.2-0.2,0.4-0.2,1.2V9.6L70.9,9.6z M80.5,7.8c0,2.6,0.6,3.7,2,3.7c1,0,1.6-0.5,2.2-1.8l0.5,0.3c-0.8,1.5-1.7,2.2-3,2.2
		c-2,0-3.4-1.7-3.4-4.4c0-2.5,1.3-4.2,3.2-4.2c1.9,0,3.2,1.6,3.3,4.2H80.5z M83.7,7.1c0-1.9-0.6-3-1.5-3c-1,0-1.6,1.2-1.6,3H83.7
		L83.7,7.1z M92,10.1c-0.6,1.4-1.4,2-2.6,2c-0.8,0-1.4-0.3-1.7-0.9c-0.3-0.6-0.4-1.1-0.4-2.4v-3c0-1.2-0.2-1.4-0.9-1.4h-0.2V3.8
		l2.6-0.1v5.6c0,0.8,0.1,1.1,0.2,1.4c0.1,0.4,0.5,0.6,0.9,0.6c0.6,0,1.2-0.4,1.5-1.1c0.3-0.6,0.5-1.2,0.5-2.2V5.7
		c0-1.2-0.2-1.4-0.9-1.4h-0.3V3.8l2.6-0.1v6.3c0,1.2,0.2,1.4,0.9,1.4h0.2v0.5L92,12V10.1L92,10.1z M97.7,9.2c0,0.7,0,1,0.1,1.4
		c0.1,0.4,0.5,0.7,0.9,0.7c0.7,0,1.1-0.7,1.1-2V9.1h0.6v0.3c0,1.7-0.7,2.6-2.1,2.6c-0.7,0-1.2-0.2-1.5-0.6c-0.4-0.5-0.5-1-0.5-2.2
		V4.4h-1.3V3.9c1.5-0.4,2-1.1,2.3-3.2h0.5v3h2.4v0.6h-2.4L97.7,9.2L97.7,9.2z M106.1,6.3h-0.5c-0.3-1.5-1-2.2-2.1-2.2
		c-0.8,0-1.3,0.5-1.3,1.2c0,0.7,0.4,1,1.5,1.3c1.1,0.4,1.6,0.6,2,0.9c0.6,0.5,0.9,1.1,0.9,1.9c0,1.5-1.1,2.6-2.6,2.6
		c-0.7,0-1.1-0.1-2-0.7c-0.1,0-0.1-0.1-0.2-0.1c-0.1,0-0.2,0.1-0.3,0.4l-0.1,0.2h-0.5v-3h0.5c0.2,0.8,0.4,1.3,0.7,1.6
		c0.4,0.6,1.1,1,1.8,1c0.8,0,1.4-0.6,1.4-1.4c0-0.5-0.3-1-0.7-1.3c-0.4-0.2-0.4-0.2-1.5-0.6C101.6,7.7,101,7,101,5.8
		c0-1.3,1-2.2,2.4-2.2c0.6,0,1.2,0.2,1.7,0.5c0.1,0.1,0.2,0.1,0.3,0.1c0.1,0,0.2-0.1,0.3-0.4h0.5V6.3L106.1,6.3z M113.8,9.8
		c-0.6,1.6-1.5,2.3-2.9,2.3c-2,0-3.4-1.8-3.4-4.3c0-2.5,1.5-4.3,3.6-4.3c1.5,0,2.6,1,2.6,2.3c0,0.7-0.4,1.1-1,1.1
		c-0.5,0-0.9-0.4-0.9-1c0-0.5,0.4-0.9,0.8-0.9c0.1,0,0.1,0,0.2,0.1c-0.3-0.6-0.8-1-1.5-1c-1.4,0-2,1.2-2,3.6c0,2.5,0.7,3.7,2,3.7
		c0.9,0,1.5-0.6,2-1.9L113.8,9.8L113.8,9.8z M120.1,6.6c0-1-0.1-1.4-0.3-1.7c-0.2-0.4-0.5-0.5-0.9-0.5c-0.6,0-1.1,0.4-1.5,1.1
		c-0.3,0.7-0.4,1.3-0.4,2.6v1.9c0,1.2,0.2,1.4,0.9,1.4h0.3v0.5h-3.8v-0.5h0.3c0.7,0,0.9-0.3,0.9-1.4V2.1c0-1.2-0.2-1.4-0.9-1.4h-0.2
		V0.1l2.6-0.1v5.2c0.6-1.1,1.3-1.6,2.3-1.6c0.7,0,1.3,0.3,1.7,0.8c0.4,0.6,0.6,1.2,0.6,2.7v2.8c0,1.2,0.2,1.4,0.9,1.4h0.2v0.5h-2.6
		L120.1,6.6L120.1,6.6z M125.2,7.8c0,2.6,0.6,3.7,2,3.7c0.9,0,1.6-0.5,2.2-1.8l0.5,0.3c-0.8,1.5-1.7,2.2-3,2.2c-2,0-3.4-1.7-3.4-4.4
		c0-2.5,1.3-4.2,3.2-4.2c1.9,0,3.2,1.6,3.3,4.2H125.2z M128.4,7.1c0-1.9-0.6-3-1.5-3c-1,0-1.6,1.2-1.6,3H128.4z M72.9,26.3
		c0,0.9,0.1,1.3,0.3,1.5c0.2,0.2,0.5,0.3,0.9,0.3h0.4v0.6h-4.8v-0.6h0.4c0.4,0,0.8-0.1,0.9-0.3c0.2-0.2,0.3-0.5,0.3-1.5v-8.9h-0.4
		c-1,0-1.9,0.6-2.3,1.5c-0.2,0.5-0.3,1.1-0.4,2l-0.5,0l0.1-4.1h8.7l0.1,4.1L76,21c-0.3-2.6-1.1-3.5-2.8-3.5h-0.3L72.9,26.3
		L72.9,26.3L72.9,26.3z M79,24.5c0,2.6,0.6,3.7,2,3.7c1,0,1.6-0.5,2.2-1.8l0.5,0.3c-0.8,1.5-1.7,2.2-3,2.2c-2,0-3.4-1.7-3.4-4.3
		c0-2.5,1.3-4.2,3.2-4.2c1.9,0,3.2,1.6,3.3,4.2L79,24.5L79,24.5z M82.2,23.9c0-1.9-0.6-3-1.6-3s-1.6,1.2-1.6,3H82.2L82.2,23.9z
		 M87.3,26.7c0,1.2,0.2,1.4,0.9,1.4h0.3v0.5h-3.8v-0.5H85c0.7,0,0.9-0.2,0.9-1.4v-7.8c0-1.2-0.2-1.4-0.9-1.4h-0.2v-0.5l2.6-0.1V26.7
		L87.3,26.7z M91,24.5c0,2.6,0.6,3.7,2,3.7c1,0,1.6-0.5,2.2-1.8l0.5,0.3c-0.8,1.5-1.7,2.2-3,2.2c-2,0-3.4-1.7-3.4-4.3
		c0-2.5,1.3-4.2,3.2-4.2c1.9,0,3.2,1.6,3.3,4.2L91,24.5L91,24.5z M94.2,23.9c0-1.9-0.6-3-1.5-3c-1,0-1.6,1.2-1.6,3H94.2z
		 M102.6,28.6l-2.5-4.1l-0.7,0.6v1.5c0,1.2,0.2,1.4,0.9,1.4h0.3v0.5h-3.9v-0.5h0.3c0.7,0,0.9-0.3,0.9-1.4v-7.8
		c0-1.2-0.2-1.4-0.9-1.4h-0.2v-0.5l2.6-0.1v7.6l2.4-2c0.3-0.3,0.5-0.6,0.5-0.8c0-0.3-0.2-0.4-0.8-0.4h-0.3v-0.5h3.5v0.5h-0.2
		c-0.5,0-0.7,0.1-1.5,0.8l-1.9,1.7l2.1,3.4c0.5,0.8,0.9,1.1,1.4,1.1h0.1v0.5L102.6,28.6L102.6,28.6z M112.7,24.6
		c0,2.6-1.4,4.3-3.6,4.3c-2.1,0-3.6-1.7-3.6-4.3c0-2.6,1.4-4.3,3.6-4.3C111.2,20.3,112.7,22,112.7,24.6L112.7,24.6z M107.6,21.9
		c-0.3,0.6-0.4,1.5-0.4,2.6c0,2.5,0.6,3.8,1.8,3.8s1.9-1.2,1.9-3.7c0-1.2-0.1-2.1-0.4-2.7c-0.3-0.7-0.8-1.1-1.5-1.1
		C108.5,20.8,107.9,21.3,107.6,21.9L107.6,21.9z M123.1,23.7c0-1.1-0.1-1.7-0.2-2c-0.2-0.4-0.5-0.5-0.9-0.5c-0.5,0-0.9,0.3-1.2,0.9
		c-0.3,0.6-0.4,1-0.4,2.5v2.2c0,1.2,0.2,1.4,0.9,1.4h0.2v0.5h-2.6v-4.7c0-1.5,0-1.8-0.2-2.3c-0.2-0.4-0.5-0.6-0.9-0.6
		c-0.5,0-0.9,0.3-1.2,0.9c-0.3,0.6-0.4,1.1-0.4,2.5v2.2c0,1.2,0.1,1.4,0.9,1.4h0.2v0.5h-3.8v-0.5h0.3c0.7,0,0.9-0.3,0.9-1.4v-4.2
		c0-1.1-0.2-1.4-0.9-1.4h-0.2v-0.5l2.5-0.1v1.4c0.3-0.9,1.2-1.5,2.1-1.5c1,0,1.6,0.5,2.1,1.6c0.5-1.1,1.2-1.6,2.2-1.6
		c0.8,0,1.4,0.4,1.8,0.9c0.3,0.5,0.4,1.1,0.4,2.2v3.2c0,1.2,0.2,1.4,0.9,1.4h0.2v0.5h-2.6L123.1,23.7L123.1,23.7L123.1,23.7z"/>
</g>
</svg>
