<?xml version="1.0" encoding="utf-8"?>
<!-- Generator: Adobe Illustrator 26.0.0, SVG Export Plug-In . SVG Version: 6.00 Build 0)  -->
<svg version="1.1" id="Layer_1" xmlns="http://www.w3.org/2000/svg" xmlns:xlink="http://www.w3.org/1999/xlink" x="0px" y="0px"
	 viewBox="0 0 130 41.1" style="enable-background:new 0 0 130 41.1;" xml:space="preserve">
<style type="text/css">
	.st0{fill:#E30613;}
</style>
<g>
	<path class="st0" d="M0,13.7h13.6V0.1h13.6v13.6h13.6v13.6H27.2v13.6H13.6V27.3H0L0,13.7z"/>
	<path d="M51.5,0h4.9c2.9,0,5.1,1.8,5.1,5.6c0,3.3-1.7,5.7-5.1,5.7h-4.9V0z M53.9,9.2h2.2c1.4,0,2.8-0.9,2.8-3.4
		c0-2.3-0.8-3.7-3.3-3.7h-1.8V9.2z M64.7,7.7c0.1,1.4,0.8,2.1,2,2.1c0.9,0,1.6-0.6,1.8-1.1h2c-0.6,1.9-2,2.7-3.8,2.7
		c-2.6,0-4.2-1.8-4.2-4.3c0-2.4,1.7-4.3,4.2-4.3c2.8,0,4.1,2.3,4,4.9L64.7,7.7L64.7,7.7z M68.3,6.3c-0.2-1.1-0.7-1.7-1.8-1.7
		c-1.4,0-1.8,1.1-1.9,1.7H68.3z M79.5,11.3h-2.1v-1.1h0c-0.6,0.9-1.5,1.4-2.5,1.4c-2.4,0-3-1.3-3-3.4v-5h2.2v4.6c0,1.3,0.4,2,1.4,2
		c1.2,0,1.7-0.7,1.7-2.3V3.1h2.2L79.5,11.3L79.5,11.3z M84.2,3.1h1.6v1.5h-1.6v4c0,0.8,0.2,0.9,0.9,0.9c0.2,0,0.5,0,0.7-0.1v1.8
		c-0.4,0.1-0.9,0.1-1.3,0.1c-1.4,0-2.6-0.3-2.6-1.9V4.6h-1.4V3.1h1.4V0.7h2.2L84.2,3.1L84.2,3.1z M88.8,8.6c0,1,0.8,1.4,1.7,1.4
		c0.6,0,1.5-0.3,1.5-1C92,8.3,91,8,89.4,7.7c-1.3-0.3-2.6-0.7-2.6-2.2c0-2.1,1.8-2.6,3.6-2.6c1.8,0,3.4,0.6,3.6,2.6h-2.1
		c-0.1-0.9-0.7-1.1-1.5-1.1c-0.5,0-1.2,0.1-1.2,0.8c0,0.8,1.3,0.9,2.5,1.2c1.3,0.3,2.6,0.8,2.6,2.3c0,2.1-1.9,2.8-3.7,2.8
		c-1.9,0-3.7-0.7-3.8-2.9L88.8,8.6z M101,6c-0.1-0.9-0.7-1.4-1.7-1.4c-1.4,0-1.9,1.5-1.9,2.7c0,1.2,0.5,2.6,1.9,2.6
		c1,0,1.6-0.7,1.8-1.7h2.2c-0.3,2.2-1.8,3.4-3.9,3.4c-2.5,0-4.1-1.7-4.1-4.2c0-2.5,1.5-4.4,4.2-4.4c1.9,0,3.7,1,3.8,3.1L101,6L101,6
		z M104.5,0h2.2v4.3h0c0.6-0.9,1.5-1.4,2.4-1.4c2.4,0,3,1.3,3,3.4v5h-2.2V6.7c0-1.3-0.4-2-1.4-2c-1.2,0-1.7,0.7-1.7,2.3v4.3h-2.2V0z
		 M115.6,7.7c0.1,1.4,0.8,2.1,2,2.1c0.9,0,1.6-0.6,1.8-1.1h2c-0.6,1.9-2,2.7-3.8,2.7c-2.6,0-4.2-1.8-4.2-4.3c0-2.4,1.7-4.3,4.2-4.3
		c2.8,0,4.1,2.3,4,4.9L115.6,7.7L115.6,7.7z M119.3,6.3c-0.2-1.1-0.7-1.7-1.8-1.7c-1.4,0-1.8,1.1-1.9,1.7H119.3z M124.6,8.6
		c0,1,0.8,1.4,1.7,1.4c0.6,0,1.5-0.3,1.5-1c0-0.7-0.9-0.9-2.5-1.3c-1.3-0.3-2.6-0.7-2.6-2.2c0-2.1,1.8-2.6,3.6-2.6
		c1.8,0,3.4,0.6,3.6,2.6h-2.1c-0.1-0.9-0.7-1.1-1.5-1.1c-0.5,0-1.2,0.1-1.2,0.8c0,0.8,1.3,0.9,2.5,1.2c1.3,0.3,2.6,0.8,2.6,2.3
		c0,2.1-1.9,2.8-3.7,2.8c-1.9,0-3.7-0.7-3.8-2.9L124.6,8.6z M51.5,14.8h6.1c2,0,3.3,1.4,3.3,3.1c0,1.3-0.5,2.3-1.8,2.8v0
		c1.2,0.3,1.6,1.5,1.6,2.6c0,0.7,0,2,0.5,2.7h-2.5c-0.3-0.7-0.3-1.8-0.4-2.7c-0.2-1.2-0.6-1.7-1.9-1.7H54v4.4h-2.5L51.5,14.8
		L51.5,14.8z M54,19.9h2.7c1.1,0,1.7-0.5,1.7-1.6c0-1.1-0.6-1.6-1.7-1.6H54V19.9z M66.4,17.7c2.6,0,4.2,1.7,4.2,4.3
		c0,2.6-1.7,4.3-4.2,4.3c-2.6,0-4.2-1.7-4.2-4.3C62.2,19.4,63.9,17.7,66.4,17.7L66.4,17.7z M66.4,24.6c1.5,0,2-1.3,2-2.6
		c0-1.3-0.5-2.6-2-2.6c-1.5,0-2,1.3-2,2.6C64.5,23.3,64.9,24.6,66.4,24.6z M74.9,17.9h1.6v1.5h-1.6v4c0,0.8,0.2,0.9,0.9,0.9
		c0.2,0,0.5,0,0.7-0.1v1.8c-0.4,0.1-0.9,0.1-1.3,0.1c-1.4,0-2.6-0.3-2.6-1.9v-4.8h-1.4v-1.5h1.4v-2.4h2.2L74.9,17.9L74.9,17.9z
		 M79.5,22.5c0.1,1.4,0.8,2.1,2,2.1c0.9,0,1.6-0.6,1.8-1.1h2c-0.6,1.9-2,2.7-3.8,2.7c-2.6,0-4.2-1.8-4.2-4.3c0-2.5,1.7-4.3,4.2-4.3
		c2.8,0,4.1,2.3,4,4.9L79.5,22.5L79.5,22.5z M83.2,21.1c-0.2-1.1-0.7-1.7-1.8-1.7c-1.4,0-1.8,1.1-1.9,1.7H83.2z M88.5,23.4
		c0,1,0.8,1.4,1.7,1.4c0.6,0,1.5-0.3,1.5-1c0-0.7-0.9-0.9-2.5-1.3c-1.3-0.3-2.6-0.7-2.6-2.2c0-2.1,1.8-2.6,3.6-2.6
		c1.8,0,3.4,0.6,3.6,2.6h-2.1c-0.1-0.9-0.7-1.1-1.5-1.1c-0.5,0-1.2,0.1-1.2,0.8c0,0.8,1.3,0.9,2.5,1.2c1.3,0.3,2.6,0.8,2.6,2.3
		c0,2.1-1.9,2.8-3.7,2.8c-1.9,0-3.7-0.7-3.8-2.9L88.5,23.4L88.5,23.4z M51.5,29.6h2.5v4.7l4.4-4.7h3.1L57,34l4.8,6.8h-3.1l-3.4-5.1
		l-1.4,1.4v3.6h-2.5V29.6z M62.6,32.7h2.1v1.5h0c0.4-1,1.5-1.7,2.6-1.7c0.2,0,0.3,0,0.5,0.1v2.1c-0.2,0-0.5-0.1-0.8-0.1
		c-1.6,0-2.2,1.2-2.2,2.6v3.7h-2.2L62.6,32.7z M70.3,37.3c0.1,1.4,0.8,2.1,2,2.1c0.9,0,1.6-0.6,1.8-1.1h2c-0.6,1.9-2,2.7-3.8,2.7
		c-2.6,0-4.2-1.8-4.2-4.3c0-2.5,1.7-4.3,4.2-4.3c2.8,0,4.1,2.3,4,4.9L70.3,37.3z M74,35.9c-0.2-1.1-0.7-1.7-1.8-1.7
		c-1.4,0-1.8,1.1-1.9,1.7H74z M85.1,40.9H83v-1.1h0c-0.6,0.9-1.5,1.4-2.5,1.4c-2.4,0-3-1.3-3-3.4v-5h2.2v4.6c0,1.3,0.4,2,1.4,2
		c1.2,0,1.7-0.7,1.7-2.3v-4.3h2.2L85.1,40.9L85.1,40.9z M86.3,39.2l4.3-4.8h-3.9v-1.7h6.9v1.7l-4.3,4.8h4.6v1.7h-7.5L86.3,39.2z"/>
</g>
</svg>
