<?xml version="1.0" encoding="utf-8"?>
<!-- Generator: Adobe Illustrator 26.0.0, SVG Export Plug-In . SVG Version: 6.00 Build 0)  -->
<svg version="1.1" id="Layer_1" xmlns="http://www.w3.org/2000/svg" xmlns:xlink="http://www.w3.org/1999/xlink" x="0px" y="0px"
	 viewBox="0 0 130 73.5" style="enable-background:new 0 0 130 73.5;" xml:space="preserve">
<style type="text/css">
	.st0{fill-rule:evenodd;clip-rule:evenodd;fill:#AFBABF;}
	.st1{fill-rule:evenodd;clip-rule:evenodd;fill:#185299;}
</style>
<g>
	<path class="st0" d="M49.7,51l-1.5-2.4c0.1,0,0.1-0.1,0.1-0.1s-2-12.8,6.5-19.2c8.1-6,26.3-6.8,26.3-6.8l1.3,1.8
		c-0.1,0-18.4,0.8-26.5,6.8c-8.6,6.4-6.1,19.8-6.1,19.8C49.9,51,49.7,51,49.7,51L49.7,51z"/>
	<path class="st0" d="M24.3,10.2c0,0-1-1.7-1-1.8c0,0,3.7,6.4,15.1,3.3C50,8.6,53.3,0,53.3,0l1.2,1.8c0,0-3.5,8.8-15,11.9
		C28.2,16.7,24.3,10.2,24.3,10.2L24.3,10.2z"/>
	<path class="st1" d="M61.9,68.4c-0.3-0.3-0.5-0.4-1.3-0.4c-0.8,0-1.4,0.5-1.4,1.3c0,0.5,0.3,0.9,0.6,1.3c0.3,0.4,0.8,0.9,0.8,1.5
		c0,0.5-0.4,0.9-0.9,0.9c-0.5,0-0.8-0.3-1.2-0.4L58.3,73c0.3,0.3,0.8,0.5,1.3,0.5c1.5,0,1.8-1,1.8-1.5c0-0.5-0.4-1-0.9-1.5
		c-0.5-0.5-0.6-0.9-0.6-1.2c0-0.5,0.4-0.9,0.9-0.9c0.4,0,0.6,0.3,0.8,0.4L61.9,68.4L61.9,68.4z"/>
	<path class="st1" d="M64.6,72.7C64.4,72.9,64,73,63.7,73c-0.9,0-0.9-0.6-0.9-1.2c1.3,0,2.6-0.5,2.6-1.5c0-0.6-0.5-0.8-0.9-0.8
		c-1.3,0-2.3,1.4-2.3,2.6c0,0.8,0.4,1.4,1.2,1.4c0.5,0,1-0.1,1.5-0.4L64.6,72.7L64.6,72.7z M62.9,71.3c0.1-0.8,0.8-1.4,1.3-1.4
		c0.4,0,0.5,0.3,0.5,0.5C64.7,70.9,63.9,71.5,62.9,71.3L62.9,71.3z"/>
	<path class="st1" d="M67.1,69.5h-0.5l-0.8,3.8h0.6l0.3-1.7c0.3-1.2,0.6-1.7,1.2-1.7c0.1,0,0.3,0.1,0.4,0.1l0.3-0.4
		c-0.1-0.1-0.3-0.3-0.4-0.3c-0.5,0-0.8,0.3-1.2,0.6l0,0L67.1,69.5L67.1,69.5z"/>
	<path class="st1" d="M70.2,73.4l2.3-3.7L72,69.5c-0.9,1.5-1.4,2.4-1.7,2.9l0,0c-0.1-0.8-0.3-1.2-0.5-2.9L69,69.7l0.9,3.7H70.2
		L70.2,73.4z"/>
	<path class="st1" d="M73.4,69.5l-0.8,3.8h0.6l0.8-3.8H73.4L73.4,69.5z M73.9,68.8c0.3,0,0.4-0.3,0.4-0.5c0-0.1,0-0.4-0.3-0.4
		c-0.3,0-0.5,0.3-0.5,0.5C73.5,68.5,73.5,68.8,73.9,68.8L73.9,68.8z"/>
	<path class="st1" d="M77.1,72.7c-0.3,0.1-0.5,0.3-0.9,0.3c-0.8,0-0.9-0.8-0.9-1.2c0-1.2,0.8-1.9,1.5-1.9c0.3,0,0.6,0.1,0.6,0.3
		l0.4-0.4c-0.3-0.1-0.6-0.3-0.9-0.3c-1.7,0-2.3,1.5-2.3,2.3c0,0.6,0.3,1.7,1.4,1.7c0.4,0,0.8-0.1,1.3-0.4L77.1,72.7L77.1,72.7z"/>
	<path class="st1" d="M80.5,72.7c-0.1,0.1-0.6,0.3-1,0.3c-0.8,0-0.8-0.6-0.8-1.2c1.3,0,2.6-0.5,2.6-1.5c0-0.6-0.5-0.8-0.9-0.8
		c-1.4,0-2.3,1.4-2.3,2.6c0,0.8,0.4,1.4,1.2,1.4c0.5,0,1-0.1,1.5-0.4L80.5,72.7L80.5,72.7z M78.9,71.3c0.1-0.8,0.8-1.4,1.3-1.4
		c0.3,0,0.5,0.3,0.5,0.5C80.7,70.9,79.9,71.5,78.9,71.3L78.9,71.3z"/>
	<path class="st1" d="M84.4,69.8c-0.3-0.1-0.5-0.3-1-0.3c-0.8,0-1.2,0.5-1.2,0.9c0,0.5,0.4,0.8,0.6,1.2c0.4,0.4,0.5,0.5,0.5,0.9
		c0,0.4-0.3,0.5-0.6,0.5c-0.3,0-0.5-0.1-0.9-0.3l-0.3,0.4c0.4,0.3,0.8,0.4,1.2,0.4c0.8,0,1.3-0.5,1.3-1.2c0-0.4-0.3-0.8-0.5-1.2
		c-0.4-0.3-0.6-0.5-0.6-0.9c0-0.3,0.3-0.4,0.5-0.4c0.3,0,0.5,0.1,0.8,0.3L84.4,69.8L84.4,69.8z"/>
	<path class="st1" d="M87.2,68l0.4,5.4h0.5l1.9-4.1h0.1l0.4,4.1H91l2.6-5.2L92.9,68c-0.6,1.4-1.7,3.6-1.9,4.3l0,0
		c-0.1-0.8-0.3-2.9-0.4-4.3h-0.5c-0.6,1.4-1.8,3.7-2,4.3l0,0c0-0.8-0.1-2.9-0.3-4.3H87.2L87.2,68z"/>
	<path class="st1" d="M95.4,69.5c-1.3,0-2,1.2-2,2.3c0,0.8,0.4,1.7,1.5,1.7c1.2,0,1.9-1.2,1.9-2.3C96.8,70.2,96.1,69.5,95.4,69.5
		L95.4,69.5z M95.2,69.9c0.9,0,0.9,1,0.9,1.3c0,0.9-0.5,1.8-1.3,1.8S94,72.1,94,71.8C94,70.9,94.5,69.9,95.2,69.9L95.2,69.9z"/>
	<path class="st1" d="M98.7,69.5H98l-0.8,3.8h0.6l0.4-1.7c0.3-1.2,0.6-1.7,1-1.7c0.3,0,0.4,0.1,0.4,0.1l0.4-0.4
		c-0.1-0.1-0.3-0.3-0.5-0.3c-0.4,0-0.6,0.3-1,0.6l0,0L98.7,69.5L98.7,69.5z"/>
	<polygon class="st1" points="100.7,73.4 101.9,67.7 101.2,67.7 100.1,73.4 100.7,73.4 	"/>
	<path class="st1" d="M104.9,70.7c-0.1,1.4-0.9,2.3-1.5,2.3c-0.4,0-0.6-0.4-0.6-0.9c0-1.4,0.6-2.2,1.4-2.2
		C104.7,69.9,104.9,70.4,104.9,70.7L104.9,70.7z M106.1,67.7h-0.6l-0.4,2.3l0,0c-0.1-0.4-0.5-0.5-0.9-0.5c-1.2,0-2,1.2-2,2.6
		c0,0.8,0.4,1.4,1,1.4c0.6,0,1.3-0.6,1.4-0.8l0,0l-0.1,0.6h0.6L106.1,67.7L106.1,67.7z"/>
	<path class="st1" d="M106.5,69.5l0.5,3.8h0.4c0.5-0.9,1.4-2.4,1.7-3.1l0,0c0,0.6,0.3,2.2,0.5,3.1h0.4l2-3.7l-0.5-0.1
		c-1,1.8-1.3,2.2-1.5,2.9l0,0c-0.1-0.5-0.4-1.9-0.5-2.9H109c-1,1.7-1.5,2.6-1.7,2.9l0,0c0-0.6-0.1-2-0.3-2.9H106.5L106.5,69.5z"/>
	<path class="st1" d="M112.9,69.5l-0.8,3.8h0.6l0.8-3.8H112.9L112.9,69.5z M113.3,68.8c0.4,0,0.5-0.3,0.5-0.5c0-0.1-0.1-0.4-0.4-0.4
		c-0.1,0-0.4,0.3-0.4,0.5C113,68.5,113,68.8,113.3,68.8L113.3,68.8z"/>
	<path class="st1" d="M117,70.7c-0.1,1.4-1,2.3-1.7,2.3c-0.4,0-0.6-0.4-0.6-0.9c0-1.4,0.8-2.2,1.5-2.2C116.6,69.9,117,70.4,117,70.7
		L117,70.7z M118.1,67.7h-0.6l-0.4,2.3l0,0c-0.3-0.4-0.5-0.5-0.9-0.5c-1.2,0-2.2,1.2-2.2,2.6c0,0.8,0.5,1.4,1.2,1.4
		c0.6,0,1.2-0.6,1.4-0.8l0,0l-0.1,0.6h0.6L118.1,67.7L118.1,67.7z"/>
	<path class="st1" d="M120.7,72.7c-0.1,0.1-0.6,0.3-1,0.3c-0.8,0-0.8-0.6-0.8-1.2c1.3,0,2.6-0.5,2.6-1.5c0-0.6-0.5-0.8-0.9-0.8
		c-1.4,0-2.3,1.4-2.3,2.6c0,0.8,0.4,1.4,1.2,1.4c0.5,0,1-0.1,1.5-0.4L120.7,72.7L120.7,72.7z M119,71.3c0.1-0.8,0.8-1.4,1.3-1.4
		c0.4,0,0.5,0.3,0.5,0.5C120.8,70.9,120,71.5,119,71.3L119,71.3z"/>
	<polygon class="st1" points="63.3,60 60.8,60 59.8,65.3 60.5,65.3 61,63 62.6,63 62.6,62.5 61,62.5 61.4,60.5 63.1,60.5 63.3,60 	
		"/>
	<path class="st1" d="M64.6,61.5h-0.6l-0.8,3.8h0.6l0.4-1.7c0.1-1.2,0.6-1.7,1-1.7c0.3,0,0.4,0,0.4,0.1l0.4-0.5
		c-0.1-0.1-0.4-0.3-0.5-0.3c-0.5,0-0.6,0.3-1,0.8l0,0L64.6,61.5L64.6,61.5z"/>
	<path class="st1" d="M68.8,62.6c-0.1,1.4-1,2.3-1.5,2.3c-0.5,0-0.6-0.4-0.6-1c0-1.3,0.6-2,1.4-2C68.4,61.9,68.8,62.3,68.8,62.6
		L68.8,62.6z M69.5,61.5H69l-0.1,0.4l0,0c-0.1-0.3-0.5-0.5-0.9-0.5c-1.2,0-2.2,1.3-2.2,2.7c0,0.8,0.5,1.4,1.2,1.4s1.3-0.6,1.4-0.9
		l0,0l-0.1,0.8h0.6L69.5,61.5L69.5,61.5z"/>
	<path class="st1" d="M71.5,61.5h-0.6L70,65.3h0.6l0.3-1.5c0.3-1,1-1.9,1.7-1.9c0.4,0,0.5,0.3,0.5,0.5c0,0.1,0,0.4,0,0.6l-0.5,2.3
		h0.6l0.5-2.4c0-0.3,0-0.5,0-0.8c0-0.4-0.4-0.8-0.8-0.8c-0.9,0-1.4,0.6-1.8,1l0,0L71.5,61.5L71.5,61.5z"/>
	<polygon class="st1" points="74.4,65.3 75,65.3 75.4,63.3 76.7,65.4 77.3,65.1 76.1,63.1 77.6,61.7 77.2,61.4 75.5,63 75.4,63 
		76.1,59.7 75.4,59.7 74.4,65.3 	"/>
	<path class="st1" d="M78.9,65.3l0.6-3.5h0.8l0.1-0.4h-0.9l0.1-0.6c0.1-0.6,0.5-0.8,0.6-0.8c0.1,0,0.3,0.1,0.3,0.1l0.3-0.4
		c-0.1-0.1-0.4-0.1-0.5-0.1c-0.5,0-1,0.3-1.3,1.3l-0.1,0.5h-0.5v0.4h0.5l-0.6,3.5H78.9L78.9,65.3z"/>
	<path class="st1" d="M82.8,65.3h0.6l0.6-3.8h-0.5l-0.3,1.3c-0.3,1-1,2.2-1.7,2.2c-0.3,0-0.5-0.1-0.5-0.5c0-0.1,0-0.5,0.1-0.6
		l0.4-2.3h-0.5l-0.5,2.4c-0.1,0.3-0.1,0.4-0.1,0.6c0,0.5,0.4,0.9,0.8,0.9c0.6,0,1.5-0.5,1.8-1.3l0,0L82.8,65.3L82.8,65.3z"/>
	<path class="st1" d="M86,61.5h-0.6l-0.6,3.8h0.5l0.4-1.7c0.3-1.2,0.6-1.7,1-1.7c0.3,0,0.4,0,0.4,0.1l0.4-0.5
		c-0.1-0.1-0.3-0.3-0.5-0.3c-0.4,0-0.6,0.3-1,0.8l0,0L86,61.5L86,61.5z"/>
	<path class="st1" d="M89.5,64.8c-0.1,0.1-0.4,0.1-0.6,0.1c-0.3,0-0.4-0.3-0.3-0.6l0.5-2.4H90v-0.4h-0.9l0.3-1.2l-0.6,0.3l-0.3,0.9
		h-0.4l-0.1,0.4h0.5l-0.5,2.3c-0.1,0.8,0.1,1.3,0.8,1.3c0.3,0,0.5-0.1,0.8-0.3V64.8L89.5,64.8z"/>
	<path class="st1" d="M93.8,63.1c0.4-0.6,0.8-1.5,1.2-2.3l0,0c0.1,0.6,0.1,1.7,0.3,2.3H93.8L93.8,63.1z M93.4,63.8h1.9l0.1,1.5h0.8
		L95.5,60H95L92,65.3h0.6L93.4,63.8L93.4,63.8z"/>
	<path class="st1" d="M97.8,61.5L97,65.3h0.6l0.6-3.8H97.8L97.8,61.5z M98.2,60.7c0.3,0,0.5-0.4,0.5-0.6c0,0-0.1-0.3-0.4-0.3
		s-0.4,0.3-0.4,0.5C97.9,60.5,97.9,60.7,98.2,60.7L98.2,60.7z"/>
	<path class="st1" d="M100.2,61.5h-0.6l-0.6,3.8h0.6l0.3-1.7c0.3-1.2,0.6-1.7,1.2-1.7c0.1,0,0.3,0,0.4,0.1l0.3-0.5
		c-0.1-0.1-0.3-0.3-0.5-0.3c-0.4,0-0.6,0.3-1,0.8l0,0L100.2,61.5L100.2,61.5z"/>
	<path class="st1" d="M102.4,64.6c0.3-1.8,1-2.7,1.7-2.7c0.5,0,0.6,0.6,0.6,0.9c0,1.4-0.8,2.2-1.3,2.2
		C103,64.9,102.6,64.9,102.4,64.6L102.4,64.6z M103,61.5h-0.6l-1,5.8h0.5l0.5-2.2c0.3,0.3,0.5,0.4,0.9,0.4c1.4,0,2.2-1.5,2.2-2.6
		c0-0.8-0.4-1.5-1.2-1.5c-0.6,0-1.2,0.5-1.4,1v-0.1L103,61.5L103,61.5z"/>
	<path class="st1" d="M108.1,61.4c-1.3,0-2,1.3-2,2.3c0,0.8,0.4,1.8,1.5,1.8c1.2,0,1.9-1.2,1.9-2.4C109.5,62,108.9,61.4,108.1,61.4
		L108.1,61.4z M108.1,61.9c0.8,0,0.8,0.9,0.8,1.2c0,1-0.5,1.9-1.3,1.9c-0.8,0-0.9-0.9-0.9-1.3C106.7,62.8,107.2,61.9,108.1,61.9
		L108.1,61.9z"/>
	<path class="st1" d="M111.5,61.5h-0.6l-0.6,3.8h0.5l0.4-1.7c0.3-1.2,0.6-1.7,1-1.7c0.3,0,0.4,0,0.5,0.1l0.3-0.5
		c-0.1-0.1-0.3-0.3-0.5-0.3c-0.4,0-0.6,0.3-1,0.8l0,0L111.5,61.5L111.5,61.5z"/>
	<path class="st1" d="M114.9,64.8c-0.1,0.1-0.4,0.1-0.6,0.1c-0.3,0-0.4-0.3-0.3-0.6l0.5-2.4h0.9v-0.4h-0.9l0.3-1.2l-0.6,0.3
		l-0.3,0.9h-0.4l-0.1,0.4h0.5l-0.5,2.3c-0.1,0.8,0.1,1.3,0.8,1.3c0.3,0,0.5-0.1,0.8-0.3V64.8L114.9,64.8z"/>
	<path class="st1" d="M75.9,39.8h-2.6l-2,11.2h2.6l1-5.6c0.4-2.4,1.4-3.2,2.3-3.2c0.5,0,0.8,0.1,1,0.1l1.4-2
		c-0.3-0.5-0.9-0.9-1.4-0.9c-0.9,0-1.5,1-1.9,1.4l-0.8,0.9l0,0L75.9,39.8L75.9,39.8z"/>
	<path class="st1" d="M118.5,39.8h-2.6L114,51h2.6l0.9-5.6c0.5-2.4,1.5-3.2,2.4-3.2c0.5,0,0.8,0.1,1,0.1l1.3-2
		c-0.3-0.5-0.8-0.9-1.4-0.9c-0.8,0-1.5,1-1.9,1.4l-0.6,0.9h-0.1L118.5,39.8L118.5,39.8z"/>
	<path class="st1" d="M128.3,49l0.1,1.5c-0.8,0.5-1.9,0.8-2.8,0.8c-3.1,0-2.8-2.4-1.9-6.1l0.8-3.7h-1.4l0.4-1.7h1.3l0.6-2.8h2.6
		l-0.6,2.8h2.7l-0.4,1.7h-2.6l-0.8,3.7c-0.6,2.7-0.8,4.3,0.5,4.3C127.4,49.5,128,49.2,128.3,49L128.3,49z"/>
	<polygon class="st1" points="73.2,34.9 65.2,34.9 62.3,51 65.1,51 66.2,44.4 70.7,44.4 71.1,42.4 66.6,42.4 67.5,36.9 72.9,36.9 
		73.2,34.9 	"/>
	<path class="st1" d="M89.9,39.6h-2.6l-0.3,0.9c-0.5-0.6-1.4-1.2-2.4-1.2c-3.3,0-5.9,4.1-5.9,7.7c0,2.4,1.2,4.2,3.1,4.2
		c1.7,0,3.1-0.9,3.8-1.9l0,0L85.4,51h2.4L89.9,39.6L89.9,39.6z M86.8,42.2c-0.5,5.8-2.4,7.2-3.7,7.2c-1,0-1.7-1-1.7-2.6
		c0-4,2.2-5.5,3.3-5.5C85.6,41.3,86.3,41.5,86.8,42.2L86.8,42.2z"/>
	<path class="st1" d="M93.2,48.7c0.5-5.2,2.4-7.4,4-7.4c0.9,0,1.4,0.6,1.4,2.4c0,2.4-1.2,5.9-3.6,5.9C94.3,49.6,93.8,49.3,93.2,48.7
		L93.2,48.7z M94.7,39.6l-0.4,1.9h0.1c1.2-1.4,2.4-2.2,3.7-2.2c1.4,0,3.1,1,3.1,4.3c0,2.8-1.7,7.5-5.9,7.5c-1,0-1.8-0.4-2.6-1
		l-0.9,5.5h-2.6l2.8-16.1H94.7L94.7,39.6z"/>
	<path class="st1" d="M107.2,49.6c-1.7,0-2-1.3-1.9-3.5c0-1.8,0.9-5.1,3.5-5.1c1.4,0,2,1.4,1.9,2.9
		C110.4,48.8,108.1,49.6,107.2,49.6L107.2,49.6z M106.9,51.3c3.8,0,6.5-3.6,6.6-7.2c0.1-2.2-1-4.7-4.5-4.7c-2.8,0-6.4,2.3-6.6,7
		C102.4,49,103.9,51.3,106.9,51.3L106.9,51.3z"/>
	<path class="st0" d="M63.4,0.3L64.6,2l0,0c0,0-5.2,5.5-4.2,9.3C56.4,7.7,63.4,0.3,63.4,0.3L63.4,0.3L63.4,0.3L63.4,0.3z M82.4,13.8
		l1,1.8l0,0l0,0c0,0-19.4,5-26.1,0.3c0,0-2.6-2.8-2.6-5.2c0,0,0.4,1.9,1.2,2.8c5.9,5.6,26.3,0.4,26.3,0.4H82.4L82.4,13.8L82.4,13.8z
		"/>
	<path class="st0" d="M1.2,36.3L0,34.5c0.1,0,17.4-4.2,22.1-12.4c1.3-2.2,1.2-3.8,0.1-5.1c1,1.3,1.7,3.5,1.7,3.5
		c0.1,0.1,0.5,1.4-0.6,3.5C18.5,32.1,1.2,36.3,1.2,36.3L1.2,36.3L1.2,36.3z M16,15.7l-1.4-2.2c0,0,3.2,1.7,4.1,4.3
		C17.5,16.5,16,15.7,16,15.7L16,15.7z"/>
	<path class="st0" d="M33,54.5l-1.4-2.2c0.1,0,0.1-0.1,0.1-0.1s4.7-11.5-0.5-16.7c0.9,1,2.2,2.8,2.2,2.8c3.7,5.5-0.3,16.2-0.3,16.2
		C33,54.5,33,54.5,33,54.5L33,54.5z M2,43.8l-1.2-1.8c0.1,0,15.3-7.3,23-5.2c2.7,0.6,4.3,2.4,5.5,4.6c-1-1.3-2.4-2.3-4.3-2.8
		c-7.7-2-22.9,5.2-22.9,5.2H2L2,43.8z"/>
	<path class="st1" d="M48.3,48.4v0.1c-0.1,0-0.1,0-0.1,0s-8.2-13,2.9-21.2c10.5-7.5,30-4.9,30-4.9l0,0c0,0,0,0-0.1,0
		c0,0-18.2,0.8-26.2,6.8C46.3,35.7,48.3,48.4,48.3,48.4L48.3,48.4z"/>
	<path class="st1" d="M82.3,13.8c0-0.1,0.1,0,0.1,0H82.3c0,0-20.5,5.2-26.3-0.4c-5-5,7.3-13.2,7.3-13.2s0,0,0.1,0l0,0
		c0,0-7,7.5-2.9,11.1C65.1,15.5,82.3,13.8,82.3,13.8L82.3,13.8z"/>
	<path class="st1" d="M53.3,0L53.3,0L53.3,0c0,0-3.3,8.6-15,11.8C27,14.8,23.3,8.4,23.3,8.4l0,0l0,0c0,0,6.6,3.5,15,1.2
		C46.8,7.2,53.3,0,53.3,0L53.3,0z"/>
	<path class="st1" d="M14.6,13.5L14.6,13.5c0.1,0,0.1,0,0.1,0s11.6,1.5,7.4,8.6c-4.7,8.2-22,12.4-22,12.4H0c0,0,0,0,0.1,0
		c0,0,14.3-6.1,18-12C21.5,17,14.6,13.5,14.6,13.5L14.6,13.5z"/>
	<path class="st1" d="M1,42.1H0.9c0-0.1,0.1-0.1,0.1-0.1s16.1-10.9,26.1-8.6c11.4,2.6,4.6,18.8,4.6,18.8s0,0.1-0.1,0.1
		c0,0,0,0,0-0.1c0,0,0.8-13.2-7.7-15.3C16.2,34.8,1,42.1,1,42.1L1,42.1z"/>
</g>
</svg>
