<?xml version="1.0" encoding="utf-8"?>
<!-- Generator: Adobe Illustrator 26.0.0, SVG Export Plug-In . SVG Version: 6.00 Build 0)  -->
<svg version="1.1" id="svg2576" xmlns:svg="http://www.w3.org/2000/svg"
	 xmlns="http://www.w3.org/2000/svg" xmlns:xlink="http://www.w3.org/1999/xlink" x="0px" y="0px" viewBox="0 0 130 28.8"
	 style="enable-background:new 0 0 130 28.8;" xml:space="preserve">
<style type="text/css">
	.st0{fill-rule:evenodd;clip-rule:evenodd;fill:#00AB8E;}
</style>
<g>
	<path class="st0" d="M80.8,14.8c0.1-1.3,1.5-2.4,3.3-2.5l0-3.1c-1.6,0-3,0.6-3.5,1.5V9.5h-3v14h3.3L80.8,14.8z"/>
	<path class="st0" d="M91.8,23.8c3.9,0,7-3.3,7-7.3s-3.1-7.3-7-7.3c-3.9,0-7,3.3-7,7.3S87.9,23.8,91.8,23.8z M91.8,12.5
		c2.1,0,3.8,1.8,3.8,4s-1.7,4-3.8,4c-2.1,0-3.8-1.8-3.8-4S89.7,12.5,91.8,12.5z"/>
	<path class="st0" d="M104.8,23.6v-8.4c0.1-1.4,1.2-2.6,2.8-2.6c1.5,0,2.8,1.2,2.8,2.6v8.4h3.1l0-9.7c-0.4-2.7-2.3-4.7-5-4.7
		c-1.4,0-2.7,0.5-3.7,1.4V0h-3.2v23.6H104.8z"/>
	<path class="st0" d="M3.2,23.6v-8.4c0.1-1.4,1.2-2.6,2.8-2.6c1.5,0,2.8,1.2,2.8,2.6l0,8.4h3.1l0-9.7c-0.4-2.7-2.3-4.7-5-4.7
		c-1.4,0-2.7,0.5-3.7,1.4V0L0,0v23.6H3.2z"/>
	<path class="st0" d="M123.1,23.8c3,0,5.5-1.9,6.5-4.6l-3.4,0c-0.7,0.9-1.8,1.5-3.1,1.5c-1.8,0-3.3-1.2-3.7-2.8l10.6,0
		c0.1-0.4,0-0.8,0-1.3c0-4-3.1-7.3-6.9-7.3c-3.8,0-6.9,3.3-6.9,7.3C116.1,20.5,119.2,23.8,123.1,23.8z M123.1,12.3
		c1.7,0,3.1,1,3.6,2.5l-7.2,0C120,13.4,121.4,12.3,123.1,12.3z"/>
	<path class="st0" d="M66.9,23.5c1.6,0,3.1-0.9,4.2-2.1c0,0,0,0.2,0,0.3c0,2.4-1.9,4.3-4.3,4.3c-1.3,0-2.4-0.6-3.2-1.5l-3.4,0
		c0.9,2.5,3.6,4.4,6.7,4.4c3.6,0,7.1-3.4,7.1-6.3l0-0.1l0-12.9h-2.9l0,1.4c-1-1.1-2.4-1.7-4.2-1.7c-3.7,0-6.8,3.4-6.8,7.1
		C60.1,20.3,63.1,23.5,66.9,23.5z M67.1,12.5c2.1,0,3.8,1.8,3.8,4c0,2.2-1.7,4-3.8,4c-2.1,0-3.8-1.8-3.8-4
		C63.3,14.2,65,12.5,67.1,12.5z"/>
	<path class="st0" d="M21.8,23.8c1.7,0,2.7-0.6,3.9-1.7l0,1.4l3.2,0l0-14l-3.2,0l0,1.5c-1.2-1.1-2.2-1.7-3.9-1.7
		c-3.9,0-7.1,3.3-7.1,7.3C14.7,20.5,17.9,23.8,21.8,23.8z M21.8,12.5c2.1,0,3.9,1.8,3.9,4c0,2.2-1.7,4-3.9,4c-2.1,0-3.9-1.8-3.9-4
		C17.9,14.3,19.7,12.5,21.8,12.5z"/>
	<path class="st0" d="M35.5,15.3c0-1.5,1.3-2.7,2.9-2.7c1.6,0,2.9,1.2,2.9,2.7l0,8.2h3.2l0-9.3c-0.1-2.8-2.4-5-5.3-5
		c-1.5,0-2.9,0.6-3.8,1.6l0-1.3l-3,0l0,14h3.2L35.5,15.3z"/>
	<path class="st0" d="M52.6,20.9c-1.4,0-2.6-0.9-2.6-2l-3.4,0c0,2.8,2.9,5,6,5c3.2,0,5.4-2.1,5.4-4.9c0-2.2-1.6-3.4-3.9-3.8L52,14.7
		c-0.9-0.1-2-0.4-2-1.4c0-0.7,0.9-1.3,2-1.3c1.1,0,2.2,0.9,2.2,1.6l3.5,0c-0.4-2.5-2.8-4.3-5.6-4.3c-3.2,0-5.4,2-5.3,4.8
		c0.1,2,2.2,3.2,4.6,3.7l0.8,0.2c1.7,0.2,2.6,0.6,2.6,1.4C54.8,20.3,53.9,20.9,52.6,20.9z"/>
</g>
</svg>
