<?xml version="1.0" encoding="utf-8"?>
<!-- Generator: Adobe Illustrator 26.0.0, SVG Export Plug-In . SVG Version: 6.00 Build 0)  -->
<svg version="1.1" id="Hilti_Logo" xmlns="http://www.w3.org/2000/svg" xmlns:xlink="http://www.w3.org/1999/xlink" x="0px" y="0px"
	 viewBox="0 0 130 30.6" style="enable-background:new 0 0 130 30.6;" xml:space="preserve">
<style type="text/css">
	.st0{fill:#D2051E;}
	.st1{fill:#FFFFFF;}
</style>
<g id="Logo">
	<path id="Background" class="st0" d="M0,0h130v30.6H0V0z"/>
	<path id="Hilti" class="st1" d="M52,23.3h-8.7V7.3H52V23.3z M121.3,7.3h-8.7v15.9h8.7V7.3z M8.7,23.3h8.7v-4.2h15.2v4.2h8.7V7.3
		h-8.7v4.2H17.4V7.3H8.7L8.7,23.3L8.7,23.3z M54,23.3H81v-7.3H62.7V7.3H54L54,23.3L54,23.3z M74.1,14.7H88v8.6h8.7v-8.6h13.9V7.3
		H74.1L74.1,14.7L74.1,14.7z"/>
</g>
</svg>
