<?xml version="1.0" encoding="utf-8"?>
<!-- Generator: Adobe Illustrator 26.0.0, SVG Export Plug-In . SVG Version: 6.00 Build 0)  -->
<svg version="1.1" id="Layer_1" xmlns="http://www.w3.org/2000/svg" xmlns:xlink="http://www.w3.org/1999/xlink" x="0px" y="0px"
	 viewBox="0 0 130 120.3" style="enable-background:new 0 0 130 120.3;" xml:space="preserve">
<style type="text/css">
	.st0{fill-rule:evenodd;clip-rule:evenodd;fill:#FFFFFF;}
	.st1{fill:#FFFFFF;}
	.st2{fill-rule:evenodd;clip-rule:evenodd;fill:#CC2229;}
	.st3{fill-rule:evenodd;clip-rule:evenodd;fill:#F6D330;}
</style>
<path class="st0" d="M-4009.9-50.1h2500v2500h-2500V-50.1z"/>
<path class="st1" d="M-1814.8,646.8c40.8,60.8,75.6,125.4,104.1,192.9c0,0,0,0,0.1,0c29.9,69.6,52.6,142.1,67.7,216.3
	c15.2,74.7,22.8,150.7,22.7,226.9c-0.1,37.9-2,75.7-5.9,113.4c-3.9,38.6-9.6,77-16.9,115.1l-2.6,13.8l-338.1,244.9l-54.7,434.9
	h-583.3l-21.2,14.1c-16.3,12.7-34.7,22.4-54.3,28.9h-0.1c-19.9,6.5-40.7,9.7-62.6,9.7c-22.3,0-43.2-3.1-63-9.7h-0.1
	c-19-6.3-36.8-15.7-53.9-28.4l-23.9-14.7h-577.9l-55.6-434.8l-339.8-244.9l-2.7-13.5c-7.7-38.2-13.4-76.7-17.2-115.5
	c-3.7-37.6-5.6-75.5-5.6-113.3c0-76.8,7.5-152.3,22.4-226.2c15.1-74.3,37.6-146.9,67.2-216.8c28.5-67.6,63.3-132.4,104.1-193.4
	c40.9-61.1,87.7-118,139.7-169.9c51.7-51.6,108.2-98.2,168.8-138.9c61-41,125.8-76.1,193.5-104.9c71.3-30.3,143.7-53,217.5-68
	c74.5-15.1,150.4-22.6,226.5-22.5c76.6,0,152.2,7.5,226.9,22.7c74.5,15.2,147.2,37.9,217.1,67.7c67.4,28.6,131.9,63.6,192.7,104.5
	c60.4,40.7,116.7,87.2,168.8,139.3c0.1,0,0,0.1,0,0.1C-1902.6,528.8-1855.8,585.8-1814.8,646.8z"/>
<g>
	<path class="st2" d="M124.8,39.8c-3.3-7.8-8-14.7-13.9-20.7c-6-6-12.9-10.6-20.6-13.9C82.2,1.7,73.8,0,65,0
		c-8.8,0-17.2,1.7-25.3,5.2C31.9,8.5,25,13.1,19,19.1C13,25.1,8.4,32,5.1,39.8C1.7,47.8,0,56.3,0,65.1c0,4.3,0.4,8.6,1.3,13.1
		l20.1,14.5l3.2,24.7h32.8l2,1.2c1.7,1.3,3.6,1.9,5.8,1.9c2.2,0,4.1-0.6,5.7-1.9l1.8-1.2h33.1l3.1-24.7l20-14.5
		c0.9-4.5,1.3-8.8,1.3-13.1C130,56.3,128.3,47.8,124.8,39.8z"/>
	<path class="st3" d="M115.2,47.2c-1.3-5.5-4.1-10.2-8.5-14L76.3,85.7l27-57.5c-3.6-4.8-8.2-8-13.9-9.9L70.7,83.5l13.7-67.9
		c-4.3-2.4-8.8-3.6-13.6-3.6l-3.1,0.2l-2.7,70.7l-2.9-70.7l-3-0.2c-4.8,0-9.4,1.2-13.6,3.6l13.5,67.9L40.6,18.3
		c-5.8,1.9-10.4,5.1-13.9,9.9l27.1,57.5L23.2,33.2c-4.4,3.8-7.2,8.5-8.5,14l34.1,41.9L13.8,53.8c-1.6,3.6-2.4,7.4-2.4,11.2
		c0,2.2,0.3,4.5,0.9,6.9l19.7,14.4l2.6,19.4h24l3.4,2.6c1,0.7,2,1,3.1,1c1.1,0,2.2-0.4,3-1l3.6-2.6h24.1l2.5-19.4L117.8,72
		c0.6-2.5,0.9-4.8,0.9-6.9c0-3.9-0.9-7.6-2.4-11.2L81.3,89.1L115.2,47.2L115.2,47.2z"/>
</g>
</svg>
