<?xml version="1.0" encoding="utf-8"?>
<!-- Generator: Adobe Illustrator 26.0.0, SVG Export Plug-In . SVG Version: 6.00 Build 0)  -->
<svg version="1.1" id="Layer_1" xmlns="http://www.w3.org/2000/svg" xmlns:xlink="http://www.w3.org/1999/xlink" x="0px" y="0px"
	 viewBox="0 0 130 64.4" style="enable-background:new 0 0 130 64.4;" xml:space="preserve">
<style type="text/css">
	.st0{fill:#F4811E;}
	.st1{fill-rule:evenodd;clip-rule:evenodd;}
</style>
<g>
	<path class="st0" d="M43.2,9.1C58.9,10.2,67.7,5.8,70.7,0h16c-4.8,13.9-19.8,22.6-43.4,21.4L43.2,9.1z"/>
	<path class="st1" d="M98.2,21.4l-5.7,8l13.2,19.3V21.4H98.2z M58.6,23l0,24.8l12.5-18.5l-5.9-7.7c4.9-1.3,9.3-3.4,13.2-6.5l3.8,4.8
		l7.2-10.8H130v12.3h-9.1v30H89.3l-8.1-12l-8.4,12H43.2v-8.2c-2.1,5.8-8.9,9.4-22.2,9.4c-19.8,0-20.7-7-21-15h15.6
		c0.1,2.4,0.5,4.1,1.4,5.3c1,1.1,2.4,1.7,4.4,1.7c3.2,0,6.6-0.9,6.6-4.4c0-0.8-0.3-1.4-0.7-2C25.3,35.3,7.9,33.3,3,28.2
		c-2-2-2.6-5.1-2.6-7.5C0.5,11.3,7.8,7,22.4,7c15.5,0,19.2,5.4,19.4,14.3H26.7c-0.1-2.4-0.8-4.3-1.9-5.1c-1-0.8-1.9-1.2-3.4-1.2
		c-3.2,0.1-4.9,1.4-4.9,3.6c0,0.7,0.2,1.5,0.7,2c2.4,2.7,19.2,4.6,24.1,9.7c0.8,0.8,1.6,1.9,2.1,3.3v-9.9C48.2,24,53.5,23.8,58.6,23
		 M7.6,59.7H4.8l1.4-2.9L7.6,59.7z M1.4,62.4h2.1L4.2,61h4l0.7,1.4h2.3l-3.6-6.9H5.1L1.4,62.4z M12.2,62.4H14v-2.6l2.4,2.6H19
		l-2.7-2.8l2.4-2.1h-2.3L14,59.6v-4.2h-1.8L12.2,62.4z M19.4,58.7h1.2v2c0,1.2,0.7,1.7,2.2,1.7c0.6,0,1.1-0.1,1.2-0.1v-1.2
		c-0.3,0-0.6,0.1-0.7,0.1c-0.7,0-0.8-0.4-0.8-1v-1.5H24v-1.2h-1.6v-1.7l-1.8,0.7v1h-1.2L19.4,58.7z M25.8,62.4h1.8v-4.8h-1.8V62.4z
		 M27.7,55.5h-2v1.3h2V55.5z M31.1,59.4c0.1-0.5,0.3-1,1.2-1c0.7,0,1.2,0.3,1.2,1H31.1z M35.4,60.4c0-1.9-0.8-3-3.2-3
		c-1.6,0-3.1,0.8-3.1,2.7c0,1.9,1.5,2.5,3.1,2.5c1.3,0,2.6-0.1,3-1.6h-2c-0.1,0.3-0.2,0.7-1,0.7c-0.8,0-1.2-0.4-1.3-1.1H35.4z
		 M36.9,62.4h1.8v-2.1c0-1.1,0.7-1.6,1.4-1.6c0.8,0,1.2,0.5,1.2,1.3v2.5h1.8v-2.7c0-1.3-0.7-2.3-2.4-2.3c-0.8,0-1.6,0.4-2,1h0
		c0-0.3,0-0.6,0-0.9h-1.8c0,0.3,0,0.7,0,1L36.9,62.4z M46.6,59.8c0-0.7,0.5-1.3,1.4-1.3c0.8,0,1.5,0.5,1.5,1.3
		c0,0.8-0.5,1.3-1.4,1.3C47.1,61.1,46.6,60.6,46.6,59.8L46.6,59.8z M49.4,61.7c0,1.3-0.5,1.6-1.5,1.6c-0.3,0-0.5,0-0.7-0.1
		c-0.2-0.1-0.3-0.2-0.4-0.5h-2c0.1,0.8,0.3,1.7,3,1.7c2,0,3.5-0.5,3.5-2.8v-3.3c0-0.3,0-0.6,0-0.8h-1.8c0,0.2,0,0.5,0,0.8h0
		c-0.5-0.6-1.2-0.9-2.2-0.9c-1.6,0-2.7,0.9-2.7,2.5c0,1.4,1.1,2.5,2.6,2.5c0.8,0,1.7-0.3,2.1-1h0V61.7z M54.6,59.4
		c0.1-0.5,0.3-1,1.2-1c0.7,0,1.2,0.3,1.2,1H54.6z M58.9,60.4c0-1.9-0.8-3-3.2-3c-1.6,0-3.1,0.8-3.1,2.7c0,1.9,1.5,2.5,3.1,2.5
		c1.3,0,2.6-0.1,3-1.6h-2c-0.1,0.3-0.2,0.7-1,0.7c-0.8,0-1.2-0.4-1.3-1.1H58.9z M60.2,60.9c0.1,0.7,0.3,1.7,2.7,1.7
		c1.1,0,2.9-0.2,2.9-1.6c0-0.8-0.4-1.3-1.4-1.4l-1.2-0.2c-0.4-0.1-0.8-0.2-0.8-0.5c0-0.3,0.4-0.4,0.7-0.4c0.2,0,0.5,0,0.7,0.1
		c0.1,0.1,0.2,0.2,0.2,0.5h1.8c0-1-0.6-1.6-2.7-1.6c-1.1,0-2.6,0.2-2.6,1.6c0,0.7,0.5,1.2,1.5,1.3l1.3,0.2c0.4,0.1,0.8,0.2,0.8,0.5
		c0,0.5-0.6,0.5-1,0.5c-0.2,0-0.5,0-0.6-0.1c-0.1-0.1-0.2-0.3-0.2-0.5H60.2z M69.1,59.4c0.1-0.5,0.3-1,1.2-1c0.7,0,1.2,0.3,1.2,1
		H69.1z M73.4,60.4c0-1.9-0.8-3-3.2-3c-1.6,0-3.1,0.8-3.1,2.7c0,1.9,1.5,2.5,3.1,2.5c1.3,0,2.6-0.1,3-1.6h-2c-0.1,0.3-0.2,0.7-1,0.7
		c-0.8,0-1.2-0.4-1.3-1.1H73.4z"/>
	<path d="M74.9,62.4h1.8v-6.9h-1.8L74.9,62.4z M78.4,62.4h1.8v-6.9h-1.8V62.4z"/>
	<path class="st1" d="M81.8,60.9c0.1,0.7,0.3,1.7,2.7,1.7c1.1,0,2.9-0.2,2.9-1.6c0-0.8-0.4-1.3-1.4-1.4l-1.2-0.2
		c-0.4-0.1-0.8-0.2-0.8-0.5c0-0.3,0.4-0.4,0.7-0.4c0.2,0,0.5,0,0.7,0.1c0.1,0.1,0.2,0.2,0.2,0.5h1.8c0-1-0.6-1.6-2.7-1.6
		c-1.1,0-2.6,0.2-2.6,1.6c0,0.7,0.5,1.2,1.5,1.3l1.3,0.2c0.4,0.1,0.8,0.2,0.8,0.5c0,0.5-0.6,0.5-1,0.5c-0.2,0-0.5,0-0.6-0.1
		c-0.1-0.1-0.2-0.3-0.2-0.5L81.8,60.9z M92.9,60.6c0,0.6-0.5,0.9-1.1,0.9c-0.9,0-1.3-0.7-1.3-1.5c0-0.9,0.5-1.5,1.3-1.5
		c0.6,0,1,0.2,1.1,0.8h1.9c-0.2-1.5-1.6-1.9-3-1.9c-1.7,0-3.2,0.7-3.2,2.6c0,1.9,1.7,2.6,3.1,2.6c1.4,0,3-0.4,3.1-2H92.9z
		 M96.3,62.4h1.8v-2.1c0-1.1,0.7-1.6,1.4-1.6c0.8,0,1.2,0.5,1.2,1.3v2.5h1.8v-2.7c0-1.3-0.7-2.3-2.4-2.3c-0.9,0-1.4,0.3-2,1v-2.9
		h-1.8L96.3,62.4z M108.2,60.3c0,0.5-0.3,1.2-1.5,1.2c-0.5,0-0.8-0.2-0.8-0.5c0-0.4,0.3-0.7,1.5-0.7H108.2z M106.2,59
		c0-0.3,0.2-0.6,0.9-0.6c0.7,0,1.1,0.2,1.1,1h-1.4c-1.8,0-2.9,0.5-2.9,1.7c0,1,0.8,1.6,2.2,1.6c0.8,0,1.6-0.2,2.1-1h0
		c0,0.3,0,0.6,0,0.8h1.8c0-0.4,0-0.7,0-1.1v-1.8c0-1.6-1.1-2.1-3-2.1c-1.3,0-2.7,0.3-2.8,1.6H106.2z M112.3,62.4h1.8v-3.6h1.5v-1.2
		h-1.4c0-0.9,0.3-1.1,1.1-1.1c0.2,0,0.4,0,0.5,0v-1.1c-0.2,0-0.6-0.1-0.8-0.1c-1.8,0-2.6,0.3-2.6,2.2h-1.1v1.2h1.1V62.4z
		 M116.4,58.7h1.2v2c0,1.2,0.7,1.7,2.2,1.7c0.6,0,1.1-0.1,1.2-0.1v-1.2c-0.3,0-0.6,0.1-0.7,0.1c-0.7,0-0.8-0.4-0.8-1v-1.5h1.6v-1.2
		h-1.6v-1.7l-1.8,0.7v1h-1.2V58.7z"/>
</g>
</svg>
