<?xml version="1.0" encoding="utf-8"?>
<!-- Generator: Adobe Illustrator 26.0.0, SVG Export Plug-In . SVG Version: 6.00 Build 0)  -->
<svg version="1.1" id="layer" xmlns="http://www.w3.org/2000/svg" xmlns:xlink="http://www.w3.org/1999/xlink" x="0px" y="0px"
	 viewBox="0 0 130 42.7" style="enable-background:new 0 0 130 42.7;" xml:space="preserve">
<style type="text/css">
	.st0{fill:#44AF35;}
	.st1{fill:#00529C;}
</style>
<g>
	<polygon class="st0" points="94.2,0 70.7,42.7 79.1,42.7 102.5,0 	"/>
	<polygon class="st1" points="80.5,0 57,42.7 65.3,42.7 88.8,0 	"/>
	<polygon points="29.7,6.5 29.7,36.2 37.4,36.2 47.3,19.1 47.3,36.2 55.1,36.2 71.5,6.5 64.2,6.5 55,22.6 55,6.5 46.7,6.5 
		37.4,22.3 37.4,6.5 	"/>
	<polygon points="88.1,36.2 95.5,36.2 104.6,20.3 104.6,36.2 112.6,36.2 122.3,20.4 122.3,36.2 130,36.2 130,6.5 122.3,6.5 
		112.6,23.6 112.6,6.5 104.4,6.5 	"/>
	<path d="M7.9,26c0.1,2.8,2.4,5,5.2,5c2.9,0,5.2-1.4,5.2-3.2c0-1-0.6-2.3-2.9-2.9c0,0-1.7-0.5-2.8-0.9c-1.6-0.5-2.5-0.6-4.1-1.1
		c-1-0.4-1.6-0.6-2.6-1c-3.2-1.7-5-4.5-4.8-7.6C0.8,9.2,6.5,5.3,13.2,5.3s12.2,4.1,12.2,9.1v0.8h-8l0-0.6c0-1.7-1.9-3-4.3-3l-0.5,0
		c-2.1,0-3.7,0.9-3.7,2.1v0.3c0,0.8,0.7,1.6,1.8,2c1.3,0.5,1.9,0.7,3.2,1c1.5,0.4,2.3,0.6,3.7,1.1c1.5,0.5,3.8,1.5,3.8,1.5
		c2.6,1.1,4.7,3.8,4.7,6.3c0.4,6.7-4.3,10.8-13.1,10.8C4.3,36.9,0,32.9,0,26L7.9,26z"/>
</g>
</svg>
