<?xml version="1.0" encoding="utf-8"?>
<!-- Generator: Adobe Illustrator 26.0.0, SVG Export Plug-In . SVG Version: 6.00 Build 0)  -->
<svg version="1.1" id="Layer_1" xmlns="http://www.w3.org/2000/svg" xmlns:xlink="http://www.w3.org/1999/xlink" x="0px" y="0px"
	 viewBox="0 0 532.5 533.3" style="enable-background:new 0 0 532.5 533.3;" xml:space="preserve">
<style type="text/css">
	.st0{fill-rule:evenodd;clip-rule:evenodd;fill:#2449A4;}
	.st1{fill-rule:evenodd;clip-rule:evenodd;fill:#FFFFFF;}
</style>
<g>
	<path class="st0" d="M529.7,0H0v533.3l3.8-1.7c82.8-37.3,171.2-56.1,262.5-56.1c91.3,0,179.7,18.9,261.6,56.1l3.8,1.7L532.5,0
		H529.7"/>
	<path class="st1" d="M65.9,162.1c-25.4,0-27.3,25.1-27.3,25.1H27.3v-37.1h92.2c0,0,0,28.7-27.3,59.2c0,0-25.4,30.1-26.3,43.3h15.1
		c21.6,0,23.5-25.1,23.5-25.1h12.2v37.2H22.6c0,0-2.8-28.2,29.2-62.5c0,0,20.7-22.4,25.4-40.2L65.9,162.1 M300.1,264.6v-12.2h-2.8
		c-4.7,0-9.4-4.1-9.4-9.2v-71.8c0-5.1,4.7-9.2,9.4-9.2h2.8v-12.1H239v12.1h2.8c5.6,0,9.4,4.1,9.4,9.2v71.8c0,5.1-3.8,9.2-9.4,9.2
		H239v12.2L300.1,264.6 M226.7,264.7v-37.2h-12.2c0,0-2.8,25.1-24.5,25.1h-12.2v-39.1h4.7c4.7,0,9.4,4.1,9.4,9.3v4.6h12.2v-40.1
		h-12.2v4.6c0,5.1-4.7,9.3-9.4,9.3h-4.7v-39.1h12.2c21.6,0,24.5,25.1,24.5,25.1h12.2V150h-96.9v12.2h2.8c4.7,0,8.5,4.1,8.5,9.2v71.8
		c0,5.1-3.8,9.2-8.5,9.2h-2.8v12.2L226.7,264.7 M364.1,162.1c25.4,0,27.3,25.1,27.3,25.1h11.3v-37.1h-87.5c0,0-14.1,18.2,22.6,59.2
		c0,0,25.4,30.1,26.3,43.3h-15.1c-21.6,0-23.5-25.1-23.5-25.1h-12.2v37.2h88.4c0,0,16-17.4-23.5-62.5c0,0-21.6-21.5-25.4-40.2
		L364.1,162.1 M467.6,162.1c24.5,0,26.3,25.1,26.3,25.1h12.2v-37.1h-88.4c0,0-14.1,18.2,22.6,59.2c0,0,25.4,30.1,26.3,43.3h-15.1
		c-20.7,0-23.5-25.1-23.5-25.1h-12.2v37.2h88.4c0,0,16-17.4-23.5-62.5c0,0-20.7-21.5-24.5-40.2L467.6,162.1"/>
</g>
</svg>
