<svg width="119" height="54" viewBox="0 0 119 54" fill="none" xmlns="http://www.w3.org/2000/svg">
<path fill-rule="evenodd" clip-rule="evenodd" d="M2.28857 11.4915C2.28857 6.69804 6.26148 2.81152 11.1597 2.81152H107.84C112.741 2.81152 116.712 6.69804 116.712 11.4915V42.5107C116.712 47.3014 112.741 51.1887 107.84 51.1887H11.1597C6.26148 51.1887 2.28857 47.3014 2.28857 42.5107V11.4915Z" fill="#000268"/>
<path fill-rule="evenodd" clip-rule="evenodd" d="M5.92957 11.7886V42.2167C5.92957 45.2116 8.41287 47.6406 11.4761 47.6406H62.128V6.36475H11.4761C8.41287 6.36475 5.92957 8.79371 5.92957 11.7886ZM75.2155 26.8507C75.2155 28.788 74.2409 30.1194 72.6274 30.1194C71.202 30.1194 70.0137 28.788 70.0137 27.0139C70.0137 25.1928 71.0588 23.839 72.6274 23.839C74.2908 23.839 75.2155 25.2398 75.2155 26.8507ZM65.7417 37.9618H70.0137V31.3549H70.0615C70.8707 32.8027 72.4864 33.3391 73.9816 33.3391C77.661 33.3391 79.6314 30.3519 79.6314 26.7568C79.6314 23.8166 77.7565 20.6164 74.3364 20.6164C72.3909 20.6164 70.5865 21.3876 69.7295 23.0923H69.6818V20.8987H65.7417V37.9618ZM85.4664 29.2075C85.4664 28.0413 86.6048 27.5994 88.0552 27.5994C88.6956 27.5994 89.314 27.6435 89.8596 27.6687C89.8596 29.092 88.8388 30.5396 87.2231 30.5396C86.2258 30.5396 85.4664 30.0501 85.4664 29.2075ZM94.084 33.0597C93.8952 32.1037 93.8475 31.1448 93.8475 30.1888V25.66C93.8475 21.9486 91.1184 20.6164 87.9597 20.6164C86.1325 20.6164 84.5418 20.8735 83.0216 21.4814L83.0942 24.3306C84.2775 23.6758 85.6573 23.4187 87.0343 23.4187C88.5752 23.4187 89.834 23.8635 89.8596 25.5213C89.314 25.4275 88.5524 25.356 87.8643 25.356C85.5868 25.356 81.4786 25.8008 81.4786 29.5115C81.4786 32.1506 83.662 33.3391 86.1076 33.3391C87.8643 33.3391 89.0525 32.6647 90.0256 31.1448H90.0733C90.0733 31.7773 90.1431 32.4048 90.1688 33.0597H94.084ZM96.0066 37.9618C96.8857 38.1495 97.7633 38.244 98.6652 38.244C102.583 38.244 103.508 35.2786 104.719 32.2199L109.255 20.8987H104.98L102.44 28.8349H102.392L99.733 20.8987H95.129L100.138 33.3391C99.8285 34.4136 99.0221 35.0215 97.9763 35.0215C97.3808 35.0215 96.8608 34.9501 96.2902 34.7645L96.0066 37.9618Z" fill="white"/>
<path fill-rule="evenodd" clip-rule="evenodd" d="M16.3664 26.8753C16.3664 25.2174 17.1985 23.839 18.7892 23.839C20.7119 23.839 21.5183 25.3561 21.5183 26.71C21.5183 28.5779 20.3073 29.8379 18.7892 29.8379C17.5076 29.8379 16.3664 28.7656 16.3664 26.8753ZM25.65 20.8988H21.7797V23.0924H21.7348C20.8301 21.5978 19.357 20.6165 17.5304 20.6165C13.685 20.6165 11.9512 23.327 11.9512 26.9446C11.9512 30.5397 14.0647 33.0598 17.4571 33.0598C19.1689 33.0598 20.5936 32.4049 21.6137 30.9817H21.6615V31.6366C21.6615 34.0165 20.3322 35.1603 17.8646 35.1603C16.0829 35.1603 14.9894 34.787 13.685 34.1573L13.4714 37.473C14.4666 37.8239 16.1527 38.2441 18.1965 38.2441C23.1824 38.2441 25.65 36.6325 25.65 31.6366V20.8988ZM32.8727 15.8335H28.5985V18.9146H32.8727V15.8335ZM28.6007 33.0598H32.8727V20.8988H28.6007V33.0598ZM44.7722 20.7573C44.3448 20.6886 43.8219 20.6165 43.3246 20.6165C41.4725 20.6165 40.4047 21.5978 39.6681 23.1393H39.6203V20.8988H35.7272V33.0598H40V27.9259C40 25.5438 41.1177 24.1206 43.111 24.1206C43.611 24.1206 44.0833 24.1206 44.5585 24.2586L44.7722 20.7573ZM52.1303 30.399C50.1599 30.399 49.3535 28.7881 49.3535 26.9915C49.3535 25.1705 50.1599 23.5596 52.1303 23.5596C54.1029 23.5596 54.91 25.1705 54.91 26.9915C54.91 28.7881 54.1029 30.399 52.1303 30.399ZM52.1303 33.3392C56.2143 33.3392 59.3252 31.0069 59.3252 26.9915C59.3252 22.9516 56.2143 20.6165 52.1303 20.6165C48.047 20.6165 44.9382 22.9516 44.9382 26.9915C44.9382 31.0069 48.047 33.3392 52.1303 33.3392Z" fill="#FF0007"/>
</svg>
