<svg width="317" height="272" viewBox="0 0 317 272" fill="none" xmlns="http://www.w3.org/2000/svg">
<path fill-rule="evenodd" clip-rule="evenodd" d="M164.841 201.41L164.841 217.924L151.819 217.924L151.819 201.41L164.841 201.41ZM30.3129 38.3784L17.2907 38.3784L17.2907 69.6851C17.2907 73.2783 20.2086 76.1962 23.8018 76.1962L56.7649 76.1962L111.822 90.9512L111.822 139.778L124.845 139.778L124.845 85.9564C124.845 83.0131 122.87 80.4265 120.015 79.6747L59.3006 63.4034C58.7527 63.2505 58.1793 63.1867 57.6059 63.1867L30.3001 63.1867L30.3129 38.3784ZM191.816 85.9564L191.816 139.778L204.838 139.778L204.838 90.9512L259.895 76.1962L292.846 76.1962C296.439 76.1962 299.357 73.2783 299.357 69.6851L299.357 38.3784L286.335 38.3784L286.335 63.174L259.029 63.174C258.456 63.174 257.895 63.2505 257.347 63.3907L196.632 79.662C193.791 80.4265 191.816 83.0003 191.816 85.9564ZM72.4756 139.765L85.4978 139.765L85.4978 114.804C85.4978 111.211 82.5799 108.293 78.9867 108.293L35.0528 108.293L35.0528 121.315L72.4884 121.315L72.4884 139.765L72.4756 139.765ZM116.945 53.2864C117.149 53.5794 117.378 53.847 117.633 54.1018L151.819 88.2882L151.819 139.752L164.841 139.752L164.841 88.2754L199.028 54.0891C199.282 53.8343 199.512 53.5539 199.716 53.2736L181.431 53.2736L158.317 76.3873L135.204 53.2736L116.945 53.2864ZM281.607 108.293L237.674 108.293C234.08 108.293 231.162 111.211 231.162 114.804L231.162 139.765L244.185 139.765L244.185 121.315L281.607 121.315L281.607 108.293ZM191.242 242.579C187.84 242.579 185.063 245.357 185.063 248.746C185.063 252.135 187.84 254.926 191.242 254.926C194.644 254.926 197.422 252.148 197.422 248.746C197.409 245.344 194.644 242.579 191.242 242.579ZM230.079 242.579C226.677 242.579 223.9 245.357 223.9 248.746C223.9 252.135 226.677 254.926 230.079 254.926C233.481 254.926 236.259 252.148 236.259 248.746C236.246 245.344 233.481 242.579 230.079 242.579ZM191.242 164.408C187.84 164.408 185.063 167.186 185.063 170.588C185.063 173.99 187.84 176.767 191.242 176.768C194.644 176.768 197.422 173.99 197.422 170.588C197.409 167.173 194.644 164.408 191.242 164.408ZM230.079 164.408C226.677 164.408 223.9 167.186 223.9 170.588C223.9 173.99 226.677 176.768 230.079 176.768C233.481 176.768 236.259 173.99 236.259 170.588C236.246 167.173 233.481 164.408 230.079 164.408ZM256.098 150.366L256.098 190.809C256.098 192.478 254.748 193.829 253.078 193.829L63.5818 193.829C61.9127 193.829 60.562 192.478 60.562 190.809L60.562 150.366C60.562 148.697 61.9127 147.347 63.5818 147.347L253.078 147.347C254.735 147.359 256.098 148.71 256.098 150.366ZM96.4048 170.6C96.4048 168.511 94.6974 166.803 92.6077 166.803L76.604 166.803C74.5143 166.803 72.8069 168.511 72.8069 170.6C72.8069 172.69 74.5143 174.398 76.604 174.398L92.6077 174.398C94.7101 174.398 96.4048 172.69 96.4048 170.6ZM131.292 170.6C131.292 168.511 129.585 166.803 127.495 166.803L111.491 166.803C109.401 166.803 107.694 168.511 107.694 170.6C107.694 172.69 109.401 174.398 111.491 174.398L127.495 174.398C129.597 174.398 131.292 172.69 131.292 170.6ZM166.179 170.6C166.179 168.511 164.472 166.803 162.382 166.803L146.378 166.803C144.289 166.803 142.581 168.511 142.581 170.6C142.581 172.69 144.289 174.398 146.378 174.398L162.382 174.398C164.472 174.398 166.179 172.69 166.179 170.6ZM205.003 170.6C205.003 163.006 198.824 156.814 191.217 156.814C183.61 156.814 177.43 162.994 177.43 170.6C177.43 178.207 183.61 184.387 191.217 184.387C198.836 184.362 205.003 178.195 205.003 170.6ZM243.841 170.6C243.841 163.006 237.661 156.814 230.054 156.814C222.447 156.814 216.267 162.994 216.267 170.6C216.267 178.207 222.447 184.387 230.054 184.387C237.674 184.362 243.841 178.195 243.841 170.6ZM256.098 228.538L256.098 268.98C256.098 270.649 254.748 272 253.078 272L63.5691 272C61.8999 272 60.5493 270.649 60.5493 268.98L60.5493 228.538C60.5493 226.868 61.8999 225.518 63.5691 225.518L253.078 225.518C254.735 225.518 256.098 226.868 256.098 228.538ZM96.4048 248.759C96.4048 246.669 94.6974 244.962 92.6077 244.962L76.604 244.962C74.5143 244.962 72.8069 246.669 72.8069 248.759C72.8069 250.849 74.5143 252.556 76.604 252.556L92.6077 252.556C94.7101 252.556 96.4048 250.849 96.4048 248.759ZM131.292 248.759C131.292 246.669 129.585 244.962 127.495 244.962L111.491 244.962C109.401 244.962 107.694 246.669 107.694 248.759C107.694 250.849 109.401 252.556 111.491 252.556L127.495 252.556C129.597 252.556 131.292 250.849 131.292 248.759ZM166.179 248.759C166.179 246.669 164.472 244.962 162.382 244.962L146.378 244.962C144.289 244.962 142.581 246.669 142.581 248.759C142.581 250.849 144.289 252.556 146.378 252.556L162.382 252.556C164.472 252.556 166.179 250.849 166.179 248.759ZM205.003 248.759C205.003 241.165 198.824 234.985 191.217 234.985C183.61 234.985 177.43 241.165 177.43 248.759C177.43 256.353 183.61 262.546 191.217 262.546C198.836 262.533 205.003 256.353 205.003 248.759ZM243.841 248.759C243.841 241.165 237.661 234.985 230.054 234.985C222.447 234.985 216.267 241.165 216.267 248.759C216.267 256.353 222.447 262.546 230.054 262.546C237.674 262.533 243.841 256.353 243.841 248.759ZM4.52681e-05 130.209L4.84719e-05 99.4118L27.4587 99.4118L27.4587 130.209L4.52681e-05 130.209ZM5.50453 108.497C5.50453 110.586 7.21193 112.294 9.30159 112.294L18.1572 112.294C20.2596 112.294 21.9542 110.586 21.9542 108.497C21.9542 106.407 20.2596 104.7 18.1572 104.7L9.30159 104.7C7.21193 104.7 5.50453 106.407 5.50453 108.497ZM5.50453 121.111C5.50453 123.201 7.21193 124.908 9.30159 124.908L18.1572 124.908C20.2596 124.908 21.9542 123.201 21.9542 121.111C21.9542 119.021 20.2596 117.314 18.1572 117.314L9.30159 117.314C7.21193 117.314 5.50453 119.009 5.50453 121.111ZM23.8146 30.797L10.0789 30.797L10.0789 -2.25227e-05L37.5375 -2.05054e-05L37.5375 30.797L23.8146 30.797ZM15.5833 9.08494C15.5833 11.1746 17.278 12.882 19.3804 12.882L28.236 12.882C30.3256 12.882 32.033 11.1746 32.033 9.08494C32.033 6.99528 30.3257 5.28785 28.236 5.28785L19.3804 5.28785C17.278 5.28785 15.5833 6.99528 15.5833 9.08494ZM19.3804 25.5091L28.236 25.5091C30.3256 25.5091 32.033 23.8017 32.033 21.7121C32.033 19.6224 30.3256 17.915 28.236 17.915L19.3804 17.915C17.278 17.915 15.5833 19.6224 15.5833 21.7121C15.5833 23.8017 17.278 25.5091 19.3804 25.5091ZM122.233 45.7177L108.497 45.7177L108.497 14.9207L135.955 14.9207L135.955 45.7177L122.233 45.7177ZM114.001 24.0056C114.001 26.0953 115.709 27.8027 117.798 27.8027L126.667 27.8027C128.756 27.8027 130.464 26.0953 130.464 24.0056C130.464 21.9159 128.756 20.2085 126.667 20.2085L117.798 20.2085C115.709 20.2085 114.001 21.9032 114.001 24.0056ZM117.798 40.4171L126.667 40.4171C128.756 40.4171 130.464 38.7224 130.464 36.62C130.464 34.5176 128.756 32.823 126.667 32.823L117.798 32.823C115.709 32.823 114.001 34.5304 114.001 36.62C114.001 38.7224 115.709 40.4171 117.798 40.4171ZM194.415 45.7177L180.692 45.7177L180.692 14.9207L208.151 14.9207L208.151 45.7177L194.415 45.7177ZM186.184 24.0056C186.184 26.0953 187.891 27.8027 189.981 27.8027L198.849 27.8027C200.939 27.8027 202.646 26.0953 202.646 24.0056C202.646 21.9159 200.939 20.2085 198.849 20.2085L189.981 20.2085C187.891 20.2085 186.184 21.9032 186.184 24.0056ZM189.994 40.4171L198.862 40.4171C200.952 40.4171 202.659 38.7224 202.659 36.62C202.659 34.5176 200.952 32.823 198.862 32.823L189.994 32.823C187.904 32.823 186.197 34.5304 186.197 36.62C186.184 38.7224 187.891 40.4171 189.994 40.4171ZM292.846 30.797L279.11 30.797L279.11 -2.75776e-06L306.581 -7.39523e-07L306.581 30.797L292.846 30.797ZM284.615 9.08496C284.615 11.1746 286.322 12.882 288.412 12.882L297.28 12.882C299.37 12.882 301.077 11.1746 301.077 9.08496C301.077 6.9953 299.37 5.28787 297.28 5.28787L288.412 5.28787C286.309 5.28787 284.615 6.9953 284.615 9.08496ZM288.412 25.5092L297.28 25.5092C299.37 25.5092 301.077 23.8018 301.077 21.7121C301.077 19.6224 299.37 17.915 297.28 17.915L288.412 17.915C286.322 17.915 284.615 19.6224 284.615 21.7121C284.615 23.8018 286.309 25.5092 288.412 25.5092ZM289.189 99.4118L316.647 99.4118L316.647 130.209L289.189 130.209L289.189 99.4118ZM294.681 108.497C294.681 110.586 296.388 112.294 298.478 112.294L307.346 112.294C309.436 112.294 311.143 110.586 311.143 108.497C311.143 106.407 309.436 104.7 307.346 104.7L298.478 104.7C296.388 104.7 294.681 106.407 294.681 108.497ZM294.681 121.111C294.681 123.201 296.388 124.908 298.478 124.908L307.346 124.908C309.436 124.908 311.143 123.201 311.143 121.111C311.143 119.022 309.436 117.314 307.346 117.314L298.478 117.314C296.388 117.314 294.681 119.009 294.681 121.111Z" fill="#5264AE"/>
</svg>
