<svg width="180" height="42" viewBox="0 0 180 42" fill="none" xmlns="http://www.w3.org/2000/svg">
<g clip-path="url(#clip0_37_312)">
<path d="M13.9832 0.340332L15.8779 3.63115C16.2568 4.31201 16.2568 5.14417 15.8779 5.82503L4.58526 25.3808L9.92842 34.6102C10.7621 36.0476 12.3158 36.9554 13.9832 36.9554C15.6505 36.9554 17.2042 36.0476 18.0379 34.6102L23.3811 25.3808L21.9789 22.8843L15.9158 33.362C15.5368 34.0428 14.7789 34.4589 14.0211 34.4589C13.2253 34.4589 12.5053 34.0428 12.1263 33.362L7.46526 25.3808L17.9621 7.22457L19.8568 10.5154C20.2358 11.1962 20.2358 12.0284 19.8568 12.7093L12.5432 25.3808L13.9832 27.8773L21.9411 14.1088L27.1705 23.1491C27.9663 24.5486 27.9663 26.2508 27.1705 27.6503L21.8653 36.8419C21.0695 38.2415 18.5305 41.381 13.9832 41.381C9.43579 41.381 6.93474 38.2415 6.10105 36.8419L0.79579 27.6503C5.51343e-07 26.2508 5.51343e-07 24.5486 0.79579 23.1491L13.9832 0.340332Z" fill="#C90000"/>
<path d="M38.6526 10.1372H42.3284V31.8112H38.6526V10.1372Z" fill="black"/>
<path d="M47.2547 14.109C48.4477 14.109 49.4147 13.1437 49.4147 11.9529C49.4147 10.7622 48.4477 9.79688 47.2547 9.79688C46.0618 9.79688 45.0947 10.7622 45.0947 11.9529C45.0947 13.1437 46.0618 14.109 47.2547 14.109Z" fill="black"/>
<path d="M45.3979 16.7568H49.1116V31.8114H45.3979V16.7568Z" fill="black"/>
<path d="M58.8505 16.3784C54.6442 16.3784 51.2337 19.3288 51.2337 24.0192C51.2337 28.7095 54.1895 31.5843 58.8884 31.5843C60.7453 31.5843 62.7158 32.5299 62.7158 34.6103C62.7158 36.6907 61.0484 37.8633 58.8884 37.8633C56.7284 37.8633 54.9474 36.5772 54.9474 34.6103H51.2337C51.2337 38.6576 54.4926 41.3432 58.8884 41.3432C63.2463 41.3432 66.4295 38.7711 66.4295 34.6103C66.4295 32.6812 65.8232 30.8656 63.3221 29.6173C65.7853 28.4826 66.5053 25.8726 66.5053 23.9813C66.5053 19.3288 63.0568 16.3784 58.8505 16.3784ZM58.8884 28.5204C56.7284 28.5204 54.9474 26.667 54.9474 24.0192C54.9474 21.4092 56.7284 19.4801 58.8884 19.4801C61.0484 19.4801 62.7916 21.447 62.7916 24.0192C62.7916 26.6291 61.0105 28.5204 58.8884 28.5204Z" fill="black"/>
<path d="M77.2674 16.3786C75.5621 16.3786 73.9326 16.9082 72.5684 18.6103V10.0996H68.8547V31.7736H72.5684V24.1329C72.5684 21.9012 74.0842 20.0477 76.2821 20.0477C78.2526 20.0477 79.6926 21.2203 79.6926 23.9437V31.7736H83.4063V23.679C83.4442 19.2534 81.5495 16.3786 77.2674 16.3786Z" fill="black"/>
<path d="M92.4632 29.2394C92.0084 29.2394 91.6295 29.0881 91.4021 28.7855C91.1747 28.4829 91.0611 28.029 91.0611 27.3481V19.9343H94.0547L94.3958 16.7192H91.0989V12.5962L87.3474 13.0123V16.757H84.5053V19.9722H87.3474V27.4616C87.3474 29.0125 87.7263 30.185 88.4463 30.9794C89.1663 31.7737 90.2653 32.1898 91.6674 32.1898C92.3116 32.1898 92.9179 32.1141 93.5621 31.925C94.2063 31.7359 94.7747 31.4711 95.2674 31.1307L93.9789 28.7477C93.4863 29.0881 92.9558 29.2394 92.4632 29.2394Z" fill="black"/>
<path d="M107.735 23.7166C106.219 22.7709 104.438 22.6574 102.695 22.544C101.672 22.4683 100.118 22.2414 100.118 20.9175C100.118 19.9718 101.103 19.4423 102.884 19.4423C104.324 19.4423 105.575 19.7827 106.636 20.7662L108.72 18.3453C106.977 16.8323 105.196 16.3784 102.808 16.3784C100.042 16.3784 96.4042 17.5888 96.4042 21.0688C96.4042 22.5061 97.1621 23.83 98.4126 24.5865C99.8147 25.4565 101.634 25.57 103.187 25.7591C104.248 25.8726 105.992 26.1374 105.688 27.6126C105.499 28.6339 104.248 28.9365 103.377 28.9743C102.429 29.0121 101.482 28.9365 100.535 28.7095C99.5495 28.4448 98.7537 27.9908 97.8821 27.4235L95.9874 29.8065C96.101 29.8821 96.2147 29.9956 96.2147 29.9956C98.64 32.0003 102.013 32.6434 105.082 31.9625C107.394 31.433 109.364 29.7686 109.364 27.2722C109.44 25.8726 108.985 24.4731 107.735 23.7166Z" fill="black"/>
<path d="M119.975 16.3784C118.269 16.3784 116.261 17.0971 115.086 18.7614L114.973 16.7188H111.373V38.3929L115.086 37.9768V30.0334C116.147 31.6599 118.459 32.1895 120.051 32.1895C124.863 32.1895 127.667 28.5961 127.667 24.2461C127.667 19.8205 124.598 16.3784 119.975 16.3784ZM119.672 28.9743C117.133 28.9743 115.427 26.667 115.427 24.3218C115.427 21.9766 117.019 19.4801 119.672 19.4801C122.362 19.4801 123.916 22.0144 123.916 24.3218C123.954 26.667 122.211 28.9743 119.672 28.9743Z" fill="black"/>
<path d="M132.518 25.6078C132.935 27.3856 134.564 28.9365 137.217 28.9365C138.581 28.9365 140.4 28.2556 141.272 27.3856L143.659 29.7308C142.067 31.3573 139.453 32.1516 137.179 32.1516C132.48 32.1516 129.069 29.05 129.069 24.2461C129.069 19.7071 132.594 16.3784 136.914 16.3784C141.461 16.3784 145.251 19.4801 144.872 25.6078H132.518ZM141.272 22.7709C140.855 20.9931 139.074 19.4423 136.914 19.4423C134.905 19.4423 133.048 20.804 132.518 22.7709H141.272Z" fill="black"/>
<path d="M149.722 25.6078C150.139 27.3856 151.768 28.9365 154.421 28.9365C155.785 28.9365 157.604 28.2556 158.476 27.3856L160.863 29.7308C159.272 31.3573 156.657 32.1516 154.383 32.1516C149.684 32.1516 146.274 29.05 146.274 24.2461C146.274 19.7071 149.798 16.3784 154.118 16.3784C158.665 16.3784 162.455 19.4801 162.076 25.6078H149.722ZM158.514 22.7709C158.097 20.9931 156.316 19.4423 154.156 19.4423C152.147 19.4423 150.291 20.804 149.76 22.7709H158.514Z" fill="black"/>
<path d="M171.057 32.1895C172.762 32.1895 174.771 31.4708 175.945 29.8065L176.059 31.8112H179.659V10.1372H175.945V18.5345C174.884 16.908 172.535 16.4162 170.943 16.4162C166.131 16.4162 163.364 19.9718 163.364 24.3596C163.364 28.7473 166.434 32.1895 171.057 32.1895ZM171.322 19.5936C173.861 19.5936 175.566 21.9009 175.566 24.2461C175.566 26.5913 173.975 29.0878 171.322 29.0878C168.632 29.0878 167.078 26.5535 167.078 24.2461C167.078 21.9009 168.783 19.5936 171.322 19.5936Z" fill="black"/>
</g>
<defs>
<clipPath id="clip0_37_312">
<rect width="180" height="41.608" fill="white"/>
</clipPath>
</defs>
</svg>
