<svg width="192" height="60" viewBox="0 0 192 60" fill="none" xmlns="http://www.w3.org/2000/svg">
<path d="M17.2077 45.5106H12.5402L6.2982 24.4944H6.20983V45.5106H1.71912V13.7998H7.01317L12.6205 32.6917H12.7089V13.7998H17.1996V45.5106H17.2077Z" fill="#0080C8"/>
<path fill-rule="evenodd" clip-rule="evenodd" d="M37.1547 15.5027C38.5124 16.9378 39.1953 18.8918 39.1953 21.3648V37.9459C39.1953 40.4189 38.5124 42.381 37.1547 43.8162C35.7891 45.2513 33.9173 45.9648 31.5233 45.9648C29.1293 45.9648 27.2495 45.2513 25.8918 43.8162C24.5261 42.381 23.8513 40.427 23.8513 37.9459V21.3648C23.8513 18.8918 24.5342 16.9297 25.8918 15.5027C27.2495 14.0675 29.1293 13.354 31.5233 13.354C33.9173 13.354 35.7971 14.0675 37.1547 15.5027ZM29.3462 18.7216C28.8562 19.3378 28.6071 20.2378 28.6071 21.4135V37.9054C28.6071 39.081 28.8562 39.981 29.3462 40.5972C29.8363 41.2135 30.5673 41.5297 31.5233 41.5297C32.4793 41.5297 33.2103 41.2216 33.7004 40.5972C34.1904 39.981 34.4394 39.081 34.4394 37.9054V21.4135C34.4394 20.2378 34.1904 19.3378 33.7004 18.7216C33.2103 18.1054 32.4793 17.7891 31.5233 17.7891C30.5673 17.7891 29.8443 18.0972 29.3462 18.7216Z" fill="#0080C8"/>
<path d="M55.3586 45.5106H49.213L43.9189 13.7998H48.7631L52.3059 37.9863H52.3943L55.8969 13.7998H60.6527L55.3586 45.5106Z" fill="#0080C8"/>
<path fill-rule="evenodd" clip-rule="evenodd" d="M80.2222 45.5106H75.378L74.3417 38.3106H69.0878L68.0515 45.5106H63.2957L68.7263 13.7998H74.7835L80.2222 45.5106ZM71.6505 20.6025L69.7224 33.9647H73.7151L71.787 20.6025H71.6505Z" fill="#0080C8"/>
<path d="M90.4086 40.9865H98.3538V45.5189H85.6528V13.8081H90.4086V40.9865Z" fill="#0080C8"/>
<path d="M118.911 45.5106H114.244L108.002 24.4944H107.914V45.5106H103.423V13.7998H108.717L114.324 32.6917H114.413V13.7998H118.903V45.5106H118.911Z" fill="#0080C8"/>
<path d="M139.421 18.2433H130.801V27.2109H137.758V31.646H130.801V41.0677H139.421V45.5028H126.045V13.792H139.421V18.2433Z" fill="#0080C8"/>
<path d="M158.316 18.3322H153.246V45.5106H148.491V18.3322H143.422V13.7998H158.324V18.3322H158.316Z" fill="#0080C8"/>
<path d="M6.49108 56.2053C6.49108 56.8783 6.20187 57.4296 5.63953 57.8593C5.16556 58.1999 4.60321 58.3783 3.92037 58.3783C2.48238 58.3783 1.63083 57.7053 1.36572 56.3675L2.01643 56.0026C2.0325 56.3431 2.0807 56.6188 2.16907 56.8134C2.28957 57.081 2.49041 57.308 2.77961 57.4945C3.07685 57.681 3.45443 57.7702 3.9284 57.7702C4.21761 57.7702 4.48271 57.7377 4.70765 57.6729C5.03702 57.5593 5.31016 57.381 5.51903 57.1377C5.71986 56.8783 5.8243 56.5864 5.8243 56.2377C5.8243 55.9783 5.76003 55.7431 5.63953 55.5323C5.52706 55.3539 5.36639 55.1999 5.15752 55.0864C4.95669 54.9729 4.63535 54.8593 4.21761 54.7377C3.45443 54.535 2.94832 54.3729 2.70731 54.2431C2.04053 53.8945 1.71116 53.3593 1.71116 52.6296C1.71116 52.2161 1.82363 51.8593 2.04053 51.5512C2.43417 51.0161 3.08489 50.7485 3.98463 50.7485C4.84422 50.7485 5.50296 51.0242 5.9448 51.5918C6.10547 51.7945 6.24204 52.0458 6.34648 52.3377L5.74397 52.6783C5.66363 52.4188 5.56723 52.208 5.45476 52.0539C5.13342 51.5593 4.63535 51.3161 3.9525 51.3161C3.38212 51.3161 2.94832 51.4702 2.65911 51.7783C2.45024 51.9972 2.33777 52.281 2.33777 52.6053C2.33777 52.8566 2.41007 53.0918 2.54664 53.2864C2.63501 53.4161 2.75551 53.5296 2.91618 53.6269C3.07685 53.7242 3.21342 53.7891 3.32589 53.8215C3.43033 53.862 3.59903 53.9026 3.79987 53.9593C3.832 53.9675 3.96053 53.9999 4.18547 54.0566C4.41041 54.1215 4.57108 54.1702 4.65945 54.1945C4.74782 54.2269 4.88438 54.2756 5.06112 54.3404C5.22982 54.3972 5.38246 54.4702 5.51099 54.535C5.63953 54.608 5.74397 54.6891 5.84037 54.7702C6.27417 55.1593 6.49108 55.6296 6.49108 56.2053Z" fill="#575757"/>
<path fill-rule="evenodd" clip-rule="evenodd" d="M12.6126 55.7108C12.6126 56.0838 12.5724 56.4162 12.4841 56.7C12.3395 57.2027 12.0904 57.5919 11.737 57.8838C11.3915 58.1676 10.9738 58.3135 10.4837 58.3135C9.80893 58.3135 9.27069 58.0378 8.87705 57.4865C8.56375 57.0162 8.40308 56.4567 8.40308 55.7919C8.40308 55.3459 8.47538 54.9405 8.61195 54.5513C8.72442 54.2594 8.86902 54.0081 9.02969 53.8054C9.19839 53.6108 9.38316 53.4648 9.584 53.3838C9.7768 53.2946 9.9455 53.2378 10.0901 53.2054C10.2347 53.173 10.3793 53.1567 10.5239 53.1567C11.0622 53.1567 11.512 53.3432 11.8896 53.7C12.3555 54.1865 12.6046 54.8594 12.6126 55.7108ZM11.994 55.7757C12.0021 55.0378 11.8655 54.5108 11.5763 54.1784C11.2951 53.8459 10.9336 53.6757 10.5078 53.6757C10.1945 53.6757 9.91337 53.773 9.67236 53.9594C9.22249 54.3081 9.00559 54.9243 9.00559 55.8C9.00559 56.5946 9.21446 57.1621 9.61613 57.4946C9.84107 57.6811 10.1383 57.7784 10.4918 57.7784C10.8935 57.7784 11.2469 57.6243 11.5442 57.3C11.8414 56.9919 11.994 56.4811 11.994 55.7757Z" fill="#575757"/>
<path d="M17.1113 53.8051H16.0589V58.1916H15.4885V53.8051H14.4683V53.2862H15.4885V52.3456C15.4885 51.851 15.5046 51.5348 15.5447 51.4051C15.6733 50.9916 16.0027 50.7808 16.5168 50.7808C16.6614 50.7808 16.8622 50.8132 17.1113 50.8537V51.4537C16.9024 51.3645 16.7096 51.3159 16.557 51.3159C16.4043 51.3159 16.2919 51.3645 16.2196 51.4537C16.1874 51.4862 16.1633 51.5105 16.1473 51.5348C16.1232 51.5672 16.1151 51.5997 16.0991 51.6321C16.091 51.6727 16.083 51.697 16.075 51.7213C16.0669 51.7375 16.0589 51.7781 16.0589 51.8348C16.0589 51.8916 16.0589 51.9402 16.0589 51.9564C16.0589 51.9889 16.0589 52.0375 16.0589 52.1186C16.0589 52.1997 16.0589 52.2564 16.0589 52.2889V53.2781H17.1032V53.8051H17.1113Z" fill="#575757"/>
<path d="M21.1843 58.0621C20.9754 58.208 20.7264 58.281 20.4452 58.281C20.3729 58.281 20.3247 58.281 20.2926 58.2729C19.9712 58.2486 19.7704 58.1026 19.674 57.8513C19.6338 57.7216 19.6097 57.3972 19.6097 56.8702V53.8053H18.6296V53.2945H19.6097V51.2026H20.164V53.2945H21.1843V53.8053H20.164V56.5134V57.0405C20.164 57.1378 20.164 57.2189 20.164 57.2837C20.1721 57.3486 20.1801 57.4216 20.1962 57.5107C20.2203 57.5918 20.2604 57.6486 20.3167 57.6972C20.3729 57.7459 20.4532 57.7702 20.5416 57.7702C20.6942 57.7702 20.9111 57.6648 21.1843 57.4621V58.0621Z" fill="#575757"/>
<path d="M29.0169 53.2861L27.5468 58.1915H27.0728L25.924 54.1456L24.7833 58.1915H24.2932L22.7347 53.2861H23.2891L24.5342 57.2429L25.675 53.2861H26.165L27.3138 57.2429L28.4706 53.2861H29.0169Z" fill="#575757"/>
<path fill-rule="evenodd" clip-rule="evenodd" d="M35.2188 58.1916C34.6805 58.1916 34.3351 58.1024 34.1744 57.9321C34.0539 57.8024 33.9816 57.5916 33.9655 57.2916C33.9013 57.4537 33.8209 57.5997 33.7245 57.7132C33.604 57.851 33.4273 57.9889 33.1783 58.1024C32.9212 58.224 32.64 58.2808 32.3187 58.2808C31.8447 58.2808 31.4752 58.1429 31.2101 57.8591C30.9771 57.6159 30.8646 57.3078 30.8646 56.951C30.8646 56.651 30.945 56.3916 31.1137 56.1808C31.1538 56.1321 31.194 56.0835 31.2342 56.0429C31.2824 56.0024 31.3225 55.9537 31.3868 55.9213C31.443 55.8889 31.4912 55.8564 31.5234 55.824C31.5635 55.7997 31.6198 55.7754 31.6921 55.7348C31.7724 55.7024 31.8206 55.67 31.8447 55.6618C31.8768 55.6456 31.9411 55.6213 32.0375 55.5889C32.1339 55.5645 32.1821 55.5402 32.2062 55.5321C32.2223 55.5321 32.2785 55.5159 32.383 55.4835C32.4874 55.451 32.5436 55.4267 32.5517 55.4267C33.0417 55.2889 33.3309 55.2078 33.4273 55.1916L33.9736 55.07V54.8105C33.9736 54.5997 33.9655 54.4375 33.9254 54.3402C33.7888 53.8943 33.4353 53.6835 32.8569 53.6916C32.3348 53.6916 31.9813 53.8375 31.8126 54.1132C31.7081 54.2835 31.6519 54.5348 31.6358 54.8754L31.0012 54.7618C31.0735 54.3808 31.1619 54.097 31.2743 53.9105C31.5876 53.4078 32.1098 53.1646 32.8248 53.1646C33.4916 53.1646 33.9655 53.3429 34.2467 53.6835C34.2789 53.724 34.311 53.7646 34.3351 53.8132C34.3592 53.8619 34.3833 53.9105 34.4074 53.9754C34.4235 54.024 34.4476 54.0808 34.4556 54.1132C34.4717 54.1537 34.4797 54.2024 34.4877 54.2673C34.4958 54.3402 34.5038 54.3889 34.5118 54.4213C34.5118 54.4456 34.5118 54.5105 34.5199 54.5916C34.5279 54.6727 34.5279 54.7294 34.5279 54.7456C34.5279 54.77 34.5279 54.8267 34.5279 54.924C34.5279 55.0213 34.5279 55.07 34.5279 55.0781C34.5279 55.0943 34.5279 56.6916 34.5279 56.724C34.5279 57.2186 34.5841 57.5105 34.6805 57.5997C34.7769 57.6727 34.9537 57.7132 35.2188 57.7132V58.1916ZM33.9655 55.97V55.6051L33.6763 55.6862C33.596 55.7105 33.4675 55.7429 33.3068 55.7916C33.1461 55.8402 33.0176 55.8727 32.9373 55.897C32.8569 55.9132 32.7525 55.9537 32.624 55.9943C32.4954 56.0348 32.391 56.0591 32.3107 56.0835C32.2384 56.1159 32.158 56.1402 32.0777 56.1727C31.9893 56.2051 31.917 56.2456 31.8608 56.27C31.8045 56.2943 31.7483 56.3348 31.7162 56.3591C31.5234 56.5051 31.427 56.7078 31.427 56.9591C31.427 57.0646 31.4591 57.1781 31.5153 57.2997C31.6599 57.6078 31.9411 57.77 32.3589 57.77C32.6561 57.77 32.9533 57.6808 33.2425 57.5105C33.5398 57.3402 33.7406 57.1132 33.8531 56.8375C33.9334 56.6348 33.9655 56.3429 33.9655 55.97Z" fill="#575757"/>
<path d="M39.4685 53.2377L39.4605 53.781C39.348 53.7647 39.2275 53.7566 39.107 53.7566C38.7535 53.7566 38.4643 53.8539 38.2554 54.0566C38.0305 54.2674 37.902 54.5512 37.8457 54.908C37.8136 55.1188 37.7975 55.508 37.7975 56.0755V58.1918H37.2191V53.2864H37.7975V54.0647C37.8297 53.9837 37.8698 53.9026 37.9261 53.8215C38.0626 53.6026 38.2394 53.4404 38.4723 53.3431C38.641 53.2539 38.8579 53.2134 39.1391 53.2134C39.2436 53.2134 39.3641 53.2215 39.4685 53.2377Z" fill="#575757"/>
<path fill-rule="evenodd" clip-rule="evenodd" d="M45.4052 56.8945C45.2687 57.1783 45.1482 57.3972 45.0437 57.535C44.634 58.062 44.0797 58.3134 43.3888 58.3134C42.9791 58.3134 42.6176 58.2323 42.3204 58.062C42.0633 57.9242 41.8384 57.7296 41.6777 57.5026C41.509 57.2674 41.3885 57.0161 41.3242 56.7566C41.26 56.4891 41.2198 56.2864 41.1957 56.1323C41.1796 55.9864 41.1636 55.8323 41.1636 55.7026C41.1636 55.3215 41.2198 54.9891 41.3162 54.6972C41.4608 54.2269 41.7179 53.862 42.0794 53.5864C42.4409 53.3026 42.8506 53.1729 43.3085 53.1729C43.9191 53.1729 44.4091 53.3999 44.8027 53.8701C44.9795 54.0891 45.1241 54.3566 45.2365 54.6729C45.349 54.981 45.4052 55.2972 45.4052 55.5972V55.7512H41.8063C41.7982 56.0593 41.8304 56.335 41.8946 56.5783C41.9268 56.6999 41.9669 56.8215 42.0232 56.935C42.0714 57.0485 42.1597 57.1783 42.2642 57.3161C42.3766 57.4539 42.5293 57.5593 42.714 57.6404C42.9149 57.7215 43.1318 57.7701 43.3728 57.7701C44.0476 57.7701 44.5376 57.4296 44.867 56.7404L45.4052 56.8945ZM44.7385 55.2404C44.7063 54.9404 44.634 54.6891 44.5376 54.4783C44.4332 54.2674 44.3047 54.1053 44.152 53.9999C44.0074 53.8945 43.8548 53.8215 43.7263 53.781C43.5897 53.7404 43.437 53.7161 43.3005 53.7161C42.6899 53.7161 42.2561 53.9999 41.983 54.5674C41.9027 54.7539 41.8384 54.981 41.8063 55.2404H44.7385Z" fill="#575757"/>
<path d="M56.3227 56.2053C56.3227 56.8783 56.0335 57.4296 55.4712 57.8593C54.9972 58.1999 54.4349 58.3783 53.752 58.3783C52.314 58.3783 51.4625 57.7053 51.1974 56.3675L51.8481 56.0026C51.8642 56.3431 51.9124 56.6188 52.0007 56.8134C52.1212 57.081 52.3221 57.308 52.6113 57.4945C52.9085 57.681 53.2861 57.7702 53.7601 57.7702C54.0493 57.7702 54.3144 57.7377 54.5393 57.6729C54.8687 57.5593 55.1418 57.381 55.3427 57.1377C55.5515 56.8783 55.656 56.5864 55.656 56.2377C55.656 55.9783 55.5917 55.7431 55.4712 55.5323C55.3587 55.3539 55.1981 55.1999 54.9892 55.0864C54.7883 54.9729 54.467 54.8593 54.0412 54.7377C53.2861 54.535 52.78 54.3729 52.539 54.2431C51.8722 53.8945 51.5428 53.3593 51.5428 52.6296C51.5428 52.2161 51.6553 51.8593 51.8722 51.5512C52.2658 51.0161 52.9165 50.7485 53.8163 50.7485C54.6759 50.7485 55.3346 51.0242 55.7765 51.5918C55.9371 51.7945 56.0737 52.0458 56.1781 52.3377L55.5756 52.6783C55.4953 52.4188 55.3989 52.208 55.2864 52.0539C54.9651 51.5593 54.467 51.3161 53.7842 51.3161C53.2138 51.3161 52.78 51.4702 52.4908 51.7783C52.2819 51.9972 52.1694 52.281 52.1694 52.6053C52.1694 52.8566 52.2417 53.0918 52.3783 53.2864C52.4667 53.4161 52.5872 53.5296 52.7479 53.6269C52.9085 53.7242 53.0451 53.7891 53.1576 53.8215C53.262 53.862 53.4227 53.9026 53.6315 53.9593C53.6637 53.9675 53.7922 53.9999 54.0171 54.0566C54.2421 54.1215 54.4027 54.1702 54.4911 54.1945C54.5795 54.2269 54.7161 54.2756 54.8928 54.3404C55.0615 54.3972 55.2141 54.4702 55.3427 54.535C55.4712 54.608 55.5756 54.6891 55.672 54.7702C56.1058 55.1593 56.3227 55.6296 56.3227 56.2053Z" fill="#575757"/>
<path fill-rule="evenodd" clip-rule="evenodd" d="M62.4442 55.7108C62.4442 56.0838 62.404 56.4162 62.3156 56.7C62.171 57.2027 61.922 57.5919 61.5685 57.8838C61.2231 58.1676 60.8053 58.3135 60.3153 58.3135C59.6405 58.3135 59.1022 58.0378 58.7086 57.4865C58.3953 57.0162 58.2346 56.4567 58.2346 55.7919C58.2346 55.3459 58.3069 54.9405 58.4435 54.5513C58.556 54.2594 58.7006 54.0081 58.8612 53.8054C59.0299 53.6108 59.2147 53.4648 59.4155 53.3838C59.6083 53.2946 59.777 53.2378 59.9216 53.2054C60.0662 53.173 60.2109 53.1567 60.3555 53.1567C60.8937 53.1567 61.3436 53.3432 61.7211 53.7C62.1871 54.1865 62.4361 54.8594 62.4442 55.7108ZM61.8256 55.7757C61.8336 55.0378 61.689 54.5108 61.4078 54.1784C61.1267 53.8459 60.7652 53.6757 60.3394 53.6757C60.0261 53.6757 59.7369 53.773 59.5039 53.9594C59.054 54.3081 58.8371 54.9243 58.8371 55.8C58.8371 56.5946 59.046 57.1621 59.4477 57.4946C59.6726 57.6811 59.9698 57.7784 60.3233 57.7784C60.725 57.7784 61.0785 57.6243 61.3757 57.3C61.6729 56.9919 61.8256 56.4811 61.8256 55.7757Z" fill="#575757"/>
<path d="M65.3684 58.1918H64.782V50.9351H65.3684V58.1918Z" fill="#575757"/>
<path d="M71.6346 58.1918H71.0642V57.2999C70.9999 57.454 70.9357 57.5756 70.8714 57.6648C70.5822 58.0864 70.1564 58.3054 69.578 58.3054C69.3932 58.3054 69.2085 58.2729 69.0317 58.2081C68.8229 58.1432 68.6461 58.0216 68.4854 57.8513C68.3248 57.681 68.2123 57.4783 68.14 57.2594C68.0597 56.9675 68.0115 56.4486 68.0115 55.6945V53.2864H68.5979V55.8243C68.5979 56.408 68.622 56.7972 68.6782 57.008C68.7988 57.4945 69.1201 57.7297 69.6423 57.7297C70.1243 57.7297 70.4858 57.5513 70.7429 57.1864C70.7911 57.1297 70.8312 57.0567 70.8634 56.9918C70.8955 56.9189 70.9196 56.854 70.9437 56.7972C70.9678 56.7324 70.9839 56.6594 70.9999 56.5621C71.008 56.4648 71.024 56.3999 71.0321 56.3513C71.0401 56.3026 71.0481 56.2297 71.0481 56.1162C71.0481 55.9945 71.0562 55.9297 71.0562 55.8972C71.0562 55.8648 71.0562 55.7837 71.0562 55.654C71.0562 55.5243 71.0562 55.4513 71.0562 55.427V53.2783H71.6265V58.1918H71.6346Z" fill="#575757"/>
<path d="M76.2618 58.0621C76.0529 58.208 75.8039 58.281 75.5227 58.281C75.4504 58.281 75.3942 58.281 75.362 58.2729C75.0487 58.2486 74.8399 58.1026 74.7515 57.8513C74.7113 57.7216 74.6792 57.3972 74.6792 56.8702V53.8053H73.7072V53.2945H74.6792V51.2026H75.2335V53.2945H76.2618V53.8053H75.2335V56.5134V57.0405C75.2335 57.1378 75.2335 57.2189 75.2415 57.2837C75.2496 57.3486 75.2576 57.4216 75.2737 57.5107C75.2978 57.5918 75.3299 57.6486 75.3942 57.6972C75.4504 57.7459 75.5227 57.7702 75.6191 57.7702C75.7718 57.7702 75.9806 57.6648 76.2618 57.4621V58.0621Z" fill="#575757"/>
<path d="M78.9048 52.1349H78.3345V51.1943H78.9048V52.1349ZM78.9048 58.1916H78.3345V53.2862H78.9048V58.1916Z" fill="#575757"/>
<path fill-rule="evenodd" clip-rule="evenodd" d="M85.4762 55.7108C85.4762 56.0838 85.428 56.4162 85.3477 56.7C85.1951 57.2027 84.946 57.5919 84.6006 57.8838C84.2471 58.1676 83.8294 58.3135 83.3393 58.3135C82.6645 58.3135 82.1343 58.0378 81.7407 57.4865C81.4193 57.0162 81.2587 56.4567 81.2587 55.7919C81.2587 55.3459 81.331 54.9405 81.4756 54.5513C81.58 54.2594 81.7246 54.0081 81.8933 53.8054C82.062 53.6108 82.2388 53.4648 82.4396 53.3838C82.6324 53.2946 82.8091 53.2378 82.9457 53.2054C83.0983 53.173 83.2429 53.1567 83.3795 53.1567C83.9258 53.1567 84.3757 53.3432 84.7452 53.7C85.2192 54.1865 85.4602 54.8594 85.4762 55.7108ZM84.8657 55.7757C84.8657 55.0378 84.7291 54.5108 84.448 54.1784C84.1588 53.8459 83.7972 53.6757 83.3715 53.6757C83.0582 53.6757 82.777 53.773 82.536 53.9594C82.0941 54.3081 81.8692 54.9243 81.8692 55.8C81.8692 56.5946 82.0781 57.1621 82.4878 57.4946C82.7127 57.6811 83.0019 57.7784 83.3554 57.7784C83.7571 57.7784 84.1186 57.6243 84.4078 57.3C84.705 56.9919 84.8577 56.4811 84.8657 55.7757Z" fill="#575757"/>
<path d="M91.445 58.1919H90.8747V55.6378C90.8747 54.9405 90.8345 54.4946 90.7622 54.3081C90.6899 54.1216 90.5774 53.9756 90.4168 53.8865C90.2561 53.781 90.0392 53.7243 89.7821 53.7243C89.5572 53.7243 89.3563 53.7729 89.1716 53.8621C89.0029 53.9432 88.8583 54.0729 88.7297 54.2513C88.6012 54.4297 88.5128 54.6081 88.4727 54.8027C88.4325 54.9892 88.4164 55.4027 88.4164 56.0432V58.1919H87.838V53.2946H88.4164V54.1702C88.4807 53.9675 88.5851 53.781 88.7378 53.627C89.027 53.3432 89.4045 53.1973 89.8705 53.1973C90.2561 53.1973 90.5614 53.2865 90.7943 53.4567C91.0273 53.627 91.1799 53.8216 91.2844 54.0405C91.3406 54.1621 91.3808 54.3081 91.4129 54.4783C91.437 54.6486 91.445 54.7865 91.445 54.9162C91.445 55.0459 91.4531 55.2892 91.4531 55.654V58.1919H91.445Z" fill="#575757"/>
<path d="M97.3095 56.7972C97.3095 57.0404 97.2613 57.2593 97.1649 57.462C97.0444 57.681 96.8597 57.8837 96.5946 58.062C96.3375 58.2323 96.0001 58.3134 95.5743 58.3134C94.8915 58.3134 94.3773 58.0701 94.0158 57.5756C93.9114 57.4377 93.8069 57.2512 93.7025 56.9999L94.2729 56.7972C94.3211 57.0242 94.4577 57.2512 94.6665 57.4539C94.8834 57.6566 95.1887 57.762 95.5663 57.762C95.9358 57.762 96.225 57.681 96.4178 57.5107C96.6428 57.3404 96.7472 57.0972 96.7472 56.8053C96.7472 56.6512 96.707 56.5053 96.6187 56.3756C96.4901 56.181 96.1929 56.035 95.743 55.9215C95.735 55.9134 95.6145 55.8891 95.3895 55.8404C95.1646 55.7918 95.012 55.7512 94.9236 55.7269C94.8272 55.7026 94.7147 55.6458 94.5701 55.5729C94.4255 55.4918 94.3131 55.4026 94.2408 55.3053C94.064 55.0783 93.9837 54.8188 93.9917 54.535C93.9917 54.1458 94.1283 53.8296 94.3934 53.5783C94.6665 53.3026 95.0923 53.1729 95.6546 53.1729C96.1286 53.1729 96.5142 53.2783 96.7954 53.4891C97.0525 53.6756 97.2292 53.9431 97.3015 54.2756L96.7552 54.4377C96.707 54.1783 96.5705 53.9837 96.3536 53.8783C96.1447 53.7647 95.9037 53.708 95.6305 53.708C95.2931 53.708 95.0361 53.7647 94.8674 53.8864C94.7951 53.935 94.7308 54.008 94.6665 54.1053C94.5942 54.235 94.5541 54.381 94.5541 54.5269C94.5541 54.6647 94.5782 54.7864 94.6424 54.8837C94.6987 54.981 94.787 55.062 94.8995 55.1107C95.02 55.1674 95.1164 55.208 95.1967 55.2404C95.2851 55.2647 95.3895 55.2891 95.5261 55.3215L96.0162 55.4188C96.5223 55.5323 96.8677 55.7431 97.0766 56.0593C97.2372 56.262 97.3095 56.5134 97.3095 56.7972Z" fill="#575757"/>
<path d="M111.159 50.9351L109.199 58.1918H108.669L107.03 52.3215L105.391 58.1918H104.877L102.837 50.9351H103.543L105.158 56.9594L106.797 50.9351H107.247L108.942 56.9594L110.509 50.9351H111.159Z" fill="#575757"/>
<path fill-rule="evenodd" clip-rule="evenodd" d="M116.815 55.7108C116.815 56.0838 116.767 56.4162 116.686 56.7C116.534 57.2027 116.285 57.5919 115.939 57.8838C115.594 58.1676 115.168 58.3135 114.678 58.3135C114.003 58.3135 113.473 58.0378 113.079 57.4865C112.758 57.0162 112.597 56.4567 112.597 55.7919C112.597 55.3459 112.669 54.9405 112.814 54.5513C112.927 54.2594 113.063 54.0081 113.232 53.8054C113.401 53.6108 113.577 53.4648 113.778 53.3838C113.971 53.2946 114.148 53.2378 114.292 53.2054C114.437 53.173 114.581 53.1567 114.718 53.1567C115.264 53.1567 115.714 53.3432 116.084 53.7C116.558 54.1865 116.799 54.8594 116.815 55.7108ZM116.204 55.7757C116.212 55.0378 116.068 54.5108 115.786 54.1784C115.497 53.8459 115.136 53.6757 114.71 53.6757C114.397 53.6757 114.115 53.773 113.874 53.9594C113.433 54.3081 113.216 54.9243 113.216 55.8C113.216 56.5946 113.417 57.1621 113.826 57.4946C114.051 57.6811 114.34 57.7784 114.686 57.7784C115.096 57.7784 115.449 57.6243 115.746 57.3C116.044 56.9919 116.196 56.4811 116.204 55.7757Z" fill="#575757"/>
<path d="M121.418 53.2377L121.41 53.781C121.289 53.7647 121.169 53.7566 121.048 53.7566C120.703 53.7566 120.406 53.8539 120.197 54.0566C119.98 54.2674 119.843 54.5512 119.787 54.908C119.755 55.1188 119.739 55.508 119.739 56.0755V58.1918H119.169V53.2864H119.739V54.0647C119.771 53.9837 119.819 53.9026 119.867 53.8215C120.004 53.6026 120.181 53.4404 120.414 53.3431C120.582 53.2539 120.799 53.2134 121.081 53.2134C121.193 53.2134 121.314 53.2215 121.418 53.2377Z" fill="#575757"/>
<path d="M123.989 58.1918H123.402V50.9351H123.989V58.1918Z" fill="#575757"/>
<path fill-rule="evenodd" clip-rule="evenodd" d="M129.684 58.1919V57.3C129.588 57.6162 129.395 57.8595 129.138 58.0379C128.873 58.2162 128.584 58.2973 128.254 58.2973C127.901 58.2973 127.58 58.1919 127.29 57.9892C127.082 57.8433 126.897 57.6487 126.752 57.4135C126.616 57.1784 126.519 56.9352 126.463 56.6838C126.415 56.4325 126.383 56.246 126.367 56.1081C126.351 55.9703 126.334 55.8487 126.334 55.7189C126.334 55.5892 126.343 55.4595 126.367 55.3217C126.383 55.1757 126.415 54.9811 126.471 54.7379C126.527 54.4946 126.632 54.2676 126.784 54.0325C126.929 53.8054 127.114 53.6189 127.339 53.4649C127.628 53.2703 127.957 53.173 128.343 53.173C128.769 53.173 129.106 53.3027 129.371 53.5541C129.508 53.6919 129.612 53.8541 129.684 54.0568V50.9189H130.247V58.1919H129.684ZM129.701 55.7757C129.709 55.2811 129.668 54.9 129.58 54.6244C129.492 54.3487 129.347 54.1379 129.146 53.9838C128.921 53.8217 128.664 53.7406 128.383 53.7406C128.15 53.7406 127.949 53.7892 127.772 53.8865C127.234 54.1865 126.969 54.8108 126.969 55.7352C126.969 55.7919 126.969 55.8487 126.969 55.9054C126.969 55.9541 126.985 56.0514 127.001 56.2054C127.017 56.3514 127.049 56.4811 127.074 56.5865C127.098 56.7081 127.146 56.8379 127.218 56.9838C127.29 57.1379 127.371 57.2595 127.467 57.3568C127.564 57.4622 127.684 57.5433 127.837 57.6162C127.989 57.6892 128.166 57.7217 128.351 57.7217C128.72 57.7217 129.026 57.6 129.259 57.3568C129.532 57.0487 129.684 56.5135 129.701 55.7757Z" fill="#575757"/>
<path d="M138.674 53.2861L137.204 58.1915H136.73L135.581 54.1456L134.44 58.1915H133.958L132.392 53.2861H132.946L134.191 57.2429L135.332 53.2861H135.822L136.971 57.2429L138.128 53.2861H138.674Z" fill="#575757"/>
<path d="M141.373 52.1349H140.811V51.1943H141.373V52.1349ZM141.373 58.1916H140.811V53.2862H141.373V58.1916Z" fill="#575757"/>
<path fill-rule="evenodd" clip-rule="evenodd" d="M147.077 58.1919V57.3C146.972 57.6162 146.788 57.8595 146.531 58.0379C146.265 58.2162 145.976 58.2973 145.647 58.2973C145.293 58.2973 144.972 58.1919 144.683 57.9892C144.466 57.8433 144.289 57.6487 144.145 57.4135C144.008 57.1784 143.912 56.9352 143.855 56.6838C143.807 56.4325 143.775 56.246 143.751 56.1081C143.743 55.9703 143.727 55.8487 143.727 55.7189C143.727 55.5892 143.735 55.4595 143.751 55.3217C143.775 55.1757 143.807 54.9811 143.863 54.7379C143.92 54.4946 144.024 54.2676 144.169 54.0325C144.321 53.8054 144.506 53.6189 144.723 53.4649C145.012 53.2703 145.35 53.173 145.735 53.173C146.153 53.173 146.498 53.3027 146.764 53.5541C146.9 53.6919 147.005 53.8541 147.069 54.0568V50.9189H147.639V58.1919H147.077ZM147.093 55.7757C147.101 55.2811 147.061 54.9 146.964 54.6244C146.876 54.3487 146.739 54.1379 146.539 53.9838C146.314 53.8217 146.057 53.7406 145.767 53.7406C145.534 53.7406 145.342 53.7892 145.165 53.8865C144.627 54.1865 144.362 54.8108 144.362 55.7352C144.362 55.7919 144.362 55.8487 144.362 55.9054C144.362 55.9541 144.37 56.0514 144.394 56.2054C144.41 56.3514 144.434 56.4811 144.466 56.5865C144.49 56.7081 144.538 56.8379 144.611 56.9838C144.683 57.1379 144.755 57.2595 144.852 57.3568C144.948 57.4622 145.077 57.5433 145.229 57.6162C145.382 57.6892 145.559 57.7217 145.743 57.7217C146.113 57.7217 146.418 57.6 146.651 57.3568C146.932 57.0487 147.077 56.5135 147.093 55.7757Z" fill="#575757"/>
<path fill-rule="evenodd" clip-rule="evenodd" d="M154.235 56.8945C154.098 57.1783 153.978 57.3972 153.873 57.535C153.455 58.062 152.909 58.3134 152.218 58.3134C151.817 58.3134 151.455 58.2323 151.15 58.062C150.893 57.9242 150.676 57.7296 150.507 57.5026C150.339 57.2593 150.226 57.0161 150.162 56.7566C150.089 56.4891 150.049 56.2864 150.025 56.1323C150.009 55.9864 150.001 55.8323 150.001 55.7026C150.001 55.3215 150.057 54.9891 150.154 54.6972C150.298 54.2269 150.555 53.862 150.917 53.5864C151.278 53.3026 151.688 53.1729 152.146 53.1729C152.757 53.1729 153.247 53.3999 153.64 53.8701C153.817 54.0891 153.97 54.3566 154.074 54.6729C154.187 54.981 154.243 55.2972 154.243 55.5972V55.7512H150.644C150.636 56.0593 150.668 56.335 150.732 56.5783C150.764 56.6999 150.812 56.8215 150.861 56.935C150.917 57.0485 150.997 57.1783 151.11 57.3161C151.222 57.4539 151.375 57.5593 151.56 57.6404C151.752 57.7215 151.977 57.7701 152.218 57.7701C152.893 57.7701 153.383 57.4296 153.705 56.7404L154.235 56.8945ZM153.576 55.2404C153.544 54.9404 153.48 54.6891 153.375 54.4783C153.271 54.2674 153.142 54.1053 152.99 53.9999C152.845 53.8945 152.7 53.8215 152.564 53.781C152.419 53.7323 152.275 53.7161 152.138 53.7161C151.527 53.7161 151.094 53.9999 150.821 54.5674C150.74 54.7539 150.676 54.981 150.644 55.2404H153.576Z" fill="#575757"/>
<path d="M181.5 9.97311C181.332 3.54338 143.341 -0.632297 96.6507 0.632568C59.1022 1.65419 27.362 5.88662 16.4606 10.8488C31.1538 6.71365 57.8731 3.30014 88.4887 2.11635C135.163 0.316352 173.21 4.37852 173.467 11.1974C173.555 13.5407 169.177 15.9001 161.497 18.065C174.037 15.6974 181.573 12.8515 181.5 9.97311Z" fill="#575757"/>
</svg>
