<svg width="154" height="49" viewBox="0 0 154 49" fill="none" xmlns="http://www.w3.org/2000/svg">
<path d="M116.797 17.2285H107.954C107.428 17.2285 106.922 17.7544 106.649 18.2608L103.006 41.1475C103.006 41.6734 103.26 41.9266 103.786 41.9266H108.46C108.986 41.9266 109.239 41.6734 109.239 41.1475L110.272 34.6418C110.272 34.1159 110.798 33.6095 111.577 33.6095H114.44C120.42 33.6095 123.809 30.7462 124.588 25.0197C125.114 22.6823 124.588 20.5982 123.556 19.2931C121.998 17.9881 119.66 17.209 116.797 17.209M117.829 25.7988C117.303 28.9153 114.966 28.9153 112.629 28.9153H111.07L112.103 22.9355C112.103 22.6823 112.356 22.4096 112.882 22.4096H113.408C114.966 22.4096 116.524 22.4096 117.303 23.442C117.829 23.6952 117.829 24.4743 117.829 25.7793" fill="#139AD6"/>
<path d="M53.0649 17.2285H44.2218C43.6959 17.2285 43.1895 17.7544 42.9168 18.2608L39.2744 41.1475C39.2744 41.6734 39.5276 41.9266 40.0535 41.9266H44.2218C44.7477 41.9266 45.2542 41.4007 45.5269 40.8943L46.5592 34.6418C46.5592 34.1159 47.0851 33.6095 47.8642 33.6095H50.7275C56.7072 33.6095 60.0964 30.7462 60.8755 25.0197C61.4014 22.6823 60.8755 20.5982 59.8432 19.2931C58.285 17.9881 56.2008 17.209 53.0843 17.209M54.1167 25.7988C53.5908 28.9153 51.2534 28.9153 48.916 28.9153H47.611L48.6433 22.9355C48.6433 22.6823 48.8966 22.4096 49.4225 22.4096H49.9484C51.5066 22.4096 53.0649 22.4096 53.844 23.442C54.0972 23.6952 54.3699 24.4743 54.0972 25.7793" fill="#263B80"/>
<path d="M79.8661 25.5445H75.6978C75.4446 25.5445 74.9187 25.7977 74.9187 26.0704L74.6655 27.3754L74.4123 26.8495C73.38 25.5445 71.549 25.0381 69.4649 25.0381C64.7902 25.0381 60.6219 28.6805 59.8427 33.6279C59.3168 36.238 60.096 38.5753 61.401 40.1336C62.706 41.6918 64.5175 42.2177 66.8548 42.2177C70.7504 42.2177 72.8346 39.8803 72.8346 39.8803L72.5814 41.1854C72.5814 41.7113 72.8346 41.9645 73.3605 41.9645H77.2561C77.782 41.9645 78.2884 41.4386 78.5611 40.9322L80.8985 26.3626C80.6453 26.1094 80.1194 25.5835 79.8661 25.5835M73.8864 33.9006C73.3605 36.238 71.549 38.0689 68.939 38.0689C67.6339 38.0689 66.6016 37.543 66.0757 37.0365C65.5498 36.2574 65.2966 35.2251 65.2966 33.9201C65.5498 31.5827 67.6339 29.7518 69.9713 29.7518C71.2763 29.7518 72.0555 30.2777 72.8346 30.7841C73.6137 31.5632 73.8669 32.8683 73.8669 33.9006" fill="#263B80"/>
<path d="M143.326 25.5445H139.158C138.905 25.5445 138.379 25.7977 138.379 26.0704L138.126 27.3754L137.872 26.8495C136.84 25.5445 135.009 25.0381 132.925 25.0381C128.25 25.0381 124.082 28.6805 123.303 33.6279C122.777 36.238 123.556 38.5753 124.861 40.1336C126.166 41.6918 127.978 42.2177 130.315 42.2177C134.211 42.2177 136.295 39.8803 136.295 39.8803L136.042 41.1854C136.042 41.7113 136.295 41.9645 136.821 41.9645H140.716C141.242 41.9645 141.749 41.4386 142.021 40.9322L144.359 26.3626C144.105 26.1094 143.833 25.5835 143.326 25.5835M137.347 33.9006C136.821 36.238 135.009 38.0689 132.399 38.0689C131.094 38.0689 130.062 37.543 129.536 37.0365C129.01 36.2574 128.757 35.2251 128.757 33.9201C129.01 31.5827 131.094 29.7518 133.432 29.7518C134.737 29.7518 135.516 30.2777 136.295 30.7841C137.327 31.5632 137.6 32.8683 137.327 33.9006" fill="#139AD6"/>
<path d="M102.5 25.5449H98.0788C97.5529 25.5449 97.2997 25.7981 97.0465 26.0708L91.3199 34.9139L88.7099 26.5967C88.4566 26.0708 88.184 25.8176 87.4048 25.8176H83.2365C82.7106 25.8176 82.4574 26.3435 82.4574 26.8499L87.1321 40.6404L82.7106 46.8928C82.4574 47.4187 82.7106 48.1979 83.2365 48.1979H87.4048C87.9307 48.1979 88.184 47.9447 88.4372 47.672L102.753 27.1226C103.533 26.3435 103.007 25.5644 102.5 25.5644" fill="#263B80"/>
<path d="M148.274 18.0063L144.631 41.4189C144.631 41.9448 144.884 42.198 145.41 42.198H149.053C149.579 42.198 150.085 41.6721 150.358 41.1656L154 18.279C154 17.7531 153.747 17.4998 153.221 17.4998H149.053C148.799 17.2466 148.527 17.4998 148.274 18.0258" fill="#139AD6"/>
<path d="M29.8988 3.11648C28.0873 1.03234 24.6982 0 20.0234 0H7.0121C6.23298 0 5.45386 0.779121 5.20064 1.55824L0 35.6253C0 36.4044 0.525919 36.9303 1.03235 36.9303H9.09625L11.1804 24.1917V24.7176C11.4336 23.9385 12.2127 23.1594 12.9919 23.1594H16.8875C24.4255 23.1594 30.152 20.0429 31.9829 11.4531V10.674C31.8141 10.674 31.8141 10.674 31.9829 10.674C32.2361 7.28478 31.7297 5.22011 29.8988 3.13596" fill="#263B80"/>
<path d="M31.7295 10.6738V11.4529C29.918 20.2959 24.1915 23.1592 16.634 23.1592H12.7384C11.9593 23.1592 11.1802 23.9383 10.9269 24.7174L8.31689 40.592C8.31689 41.1179 8.57011 41.6244 9.34923 41.6244H16.1081C16.8872 41.6244 17.6663 41.0985 17.6663 40.3193V40.0661L18.9714 32.0022V31.4763C18.9714 30.6972 19.7505 30.1713 20.5296 30.1713H21.5619C28.0676 30.1713 33.2682 27.5612 34.5733 19.77C35.0992 16.6535 34.8265 13.7903 33.2682 11.9593C33.015 11.4334 32.4891 10.927 31.71 10.6543" fill="#139AD6"/>
<path d="M29.8989 9.87488C29.6457 9.87488 29.373 9.62166 29.1198 9.62166C28.8665 9.62166 28.5938 9.62166 28.3406 9.36845C27.3083 9.11523 26.2565 9.11523 24.9515 9.11523H14.8034C14.5502 9.11523 14.2775 9.11523 14.0243 9.36845C13.4984 9.62166 13.2452 10.1476 13.2452 10.6735L11.161 24.1912V24.7171C11.4142 23.938 12.1933 23.1589 12.9725 23.1589H16.8681C24.4061 23.1589 30.1326 20.0424 31.9635 11.4526C31.9635 11.1994 31.9635 10.9267 32.2168 10.6735C31.6908 10.4203 31.4376 10.1476 30.9117 10.1476C30.3923 9.97876 30.0482 9.89436 29.8794 9.89436" fill="#232C65"/>
</svg>
