<svg width="180" height="31" viewBox="0 0 180 31" fill="none" xmlns="http://www.w3.org/2000/svg">
<g clip-path="url(#clip0_37_328)">
<path d="M0 15.0932C0 24.3 5.28262 30.1864 13.4933 30.1864C15.0328 30.1864 16.4214 29.9751 17.6289 29.643C16.7534 28.828 16.029 27.862 15.4554 26.8659C14.8517 26.9564 14.1574 27.047 13.4933 27.047C5.97691 27.047 3.3205 20.8286 3.3205 15.0932C3.3205 9.35778 5.97691 3.13938 13.4933 3.13938C19.3797 3.13938 21.5229 6.67119 21.5229 9.0861C21.5229 11.3501 21.0399 12.316 19.7419 14.248C18.2929 16.3308 17.4175 17.9307 17.4175 21.1003C17.4175 25.6282 21.2814 30.1864 28.7676 30.1864C36.9783 30.1864 42.2609 24.3 42.2609 15.0932C42.2609 5.88635 36.9783 0 28.7676 0C27.2281 0 25.8395 0.211305 24.6321 0.543355C25.5075 1.35839 26.232 2.32435 26.8055 3.3205C27.4092 3.22994 28.1035 3.13938 28.7676 3.13938C36.284 3.13938 38.9404 9.35778 38.9404 15.0932C38.9404 20.8286 36.284 27.047 28.7676 27.047C22.8813 27.047 20.738 23.5152 20.738 21.1003C20.738 18.8363 21.221 17.8703 22.519 15.9384C23.9378 13.8556 24.8434 12.2557 24.8434 9.0861C24.8434 4.55814 20.9795 0 13.4933 0C5.28262 0 0 5.88635 0 15.0932Z" fill="#1493BE"/>
<path d="M55.009 11.601C55.6157 10.1706 56.9004 9.17578 58.429 9.17578C58.8408 9.17578 59.2289 9.17578 59.8831 9.24865L59.7374 11.4077C59.1561 11.3586 58.768 11.3586 58.3545 11.3586C56.8037 11.3586 55.5903 12.4009 55.009 14.2194V20.8154H52.8262V9.37062H55.009V11.601Z" fill="#0A2433"/>
<path d="M70.991 19.2877C69.4149 20.5486 68.0082 21.0334 65.9474 21.0334C62.8189 21.0334 60.4903 19.2877 60.4903 15.1898C60.4903 10.9699 62.868 9.15137 66.044 9.15137C69.22 9.15137 71.0639 11.1394 71.1367 14.7051C71.1367 15.0203 71.1367 15.2626 71.0639 15.6983H62.5765C62.7714 18.2929 64.1526 19.2877 66.044 19.2877C67.5726 19.2877 68.7353 18.8996 70.1911 17.8811L70.991 19.2877ZM69.1963 14.0017C69.0268 11.9884 67.9116 10.9223 66.044 10.9223C64.3221 10.9223 62.9408 11.7952 62.6256 14.0017H69.1963Z" fill="#0A2433"/>
<path d="M74.0969 9.92804C76.3034 9.34669 77.5168 9.15186 78.7524 9.15186C81.9538 9.15186 82.9723 10.5823 82.9723 13.9531V20.8152H80.7895V19.3848C79.7709 20.2101 78.6067 21.0338 76.8373 21.0338C74.2664 21.0338 72.9563 20.0391 72.9563 17.5663C72.9563 15.1412 74.5325 13.9056 77.7338 13.9056C79.0676 13.9056 79.7234 13.9056 80.7895 13.9294C80.7895 11.699 80.3285 11.0923 78.3881 11.0923C77.3949 11.0923 76.134 11.2856 74.4612 11.699L74.0969 9.92804ZM78.0016 15.4802C75.9645 15.4802 74.9697 15.8682 74.9697 17.3478C74.9697 18.7069 75.8187 19.4086 77.4677 19.4086C78.7033 19.4086 79.9167 18.6324 80.7895 17.663V15.4802H78.0016Z" fill="#0A2433"/>
<path d="M94.0803 19.3124C92.9889 20.3309 92.0195 21.0342 90.079 21.0342C87.6063 21.0342 85.2777 19.3599 85.2777 15.0449C85.2777 10.7775 87.1216 9.15226 89.8129 9.15226C91.4619 9.15226 92.9652 9.80647 94.0803 10.8488V4.98145H96.2632V20.8156H94.0803V19.3124ZM94.0803 12.935C93.0618 11.7232 91.8975 10.9945 90.5162 10.9945C88.6961 10.9945 87.4368 12.0384 87.4368 15.0449C87.4368 18.0752 88.9876 19.2158 90.7095 19.2158C92.2381 19.2158 93.1584 18.2938 94.0803 17.2753V12.935Z" fill="#0A2433"/>
<path d="M109.99 9.39453C108.632 12.7654 107.322 16.0634 105.866 18.8989C104.509 21.5189 102.836 23.434 100.314 24.4288L99.5382 22.5612C100.702 22.0036 101.648 21.3969 102.521 20.3784L97.9145 9.39453H100.192L103.175 16.4753C103.443 17.1057 103.661 17.7108 103.878 18.2684C105.165 15.7228 106.158 13.0315 107.588 9.39453H109.99Z" fill="#0A2433"/>
<path d="M135.759 15.1654C135.759 18.682 133.455 21.0343 129.988 21.0343C126.544 21.0343 124.265 18.682 124.265 15.1654C124.265 11.5522 126.569 9.15234 130.012 9.15234C133.455 9.15234 135.759 11.5522 135.759 15.1654ZM133.625 15.1654C133.625 12.6674 132.171 11.0184 130.012 11.0184C127.854 11.0184 126.398 12.6674 126.398 15.1654C126.398 17.5668 127.829 19.1667 129.988 19.1667C132.171 19.1667 133.625 17.5668 133.625 15.1654Z" fill="#0A2433"/>
<path d="M140.417 11.601C141.023 10.1706 142.308 9.17578 143.837 9.17578C144.249 9.17578 144.637 9.17578 145.291 9.24865L145.145 11.4077C144.564 11.3586 144.176 11.3586 143.762 11.3586C142.212 11.3586 140.998 12.4009 140.417 14.2194V20.8154H138.234V9.37062H140.417V11.601Z" fill="#0A2433"/>
<path d="M154.701 19.3124C153.61 20.3309 152.64 21.0342 150.7 21.0342C148.227 21.0342 145.899 19.3599 145.899 15.0449C145.899 10.7775 147.743 9.15226 150.434 9.15226C152.083 9.15226 153.586 9.80647 154.701 10.8488V4.98145H156.884V20.8156H154.701V19.3124ZM154.701 12.935C153.683 11.7232 152.518 10.9945 151.137 10.9945C149.317 10.9945 148.058 12.0384 148.058 15.0449C148.058 18.0752 149.609 19.2158 151.33 19.2158C152.859 19.2158 153.779 18.2938 154.701 17.2753V12.935Z" fill="#0A2433"/>
<path d="M169.908 19.2877C168.332 20.5486 166.925 21.0334 164.864 21.0334C161.736 21.0334 159.407 19.2877 159.407 15.1898C159.407 10.9699 161.785 9.15137 164.961 9.15137C168.137 9.15137 169.981 11.1394 170.054 14.7051C170.054 15.0203 170.054 15.2626 169.981 15.6983H161.493C161.688 18.2929 163.07 19.2877 164.961 19.2877C166.488 19.2877 167.652 18.8996 169.108 17.8811L169.908 19.2877ZM168.113 14.0017C167.944 11.9884 166.828 10.9223 164.961 10.9223C163.239 10.9223 161.858 11.7952 161.543 14.0017H168.113Z" fill="#0A2433"/>
<path d="M174.735 11.601C175.342 10.1706 176.627 9.17578 178.154 9.17578C178.567 9.17578 178.955 9.17578 179.61 9.24865L179.464 11.4077C178.883 11.3586 178.494 11.3586 178.081 11.3586C176.53 11.3586 175.317 12.4009 174.735 14.2194V20.8154H172.553V9.37062H174.735V11.601Z" fill="#0A2433"/>
<path d="M122.444 23.6143V21.7277H112.834L112.839 21.4679C112.864 19.293 114.86 17.918 116.973 16.4607C119.151 14.959 122.132 12.9029 122.132 9.73161C122.132 8.26478 121.599 7.03238 120.588 6.16749C119.614 5.33111 118.269 4.88916 116.697 4.88916C114.637 4.88916 112.902 5.51645 110.779 6.53341L111.89 8.0446C113.583 7.22089 114.499 6.75518 116.322 6.75518C118.147 6.75518 119.999 7.62799 119.999 9.6936C119.999 11.7592 117.621 13.451 115.701 14.8101C113.181 16.5922 110.322 18.6134 110.322 22.3644C110.322 22.7224 110.355 23.1216 110.425 23.6143H122.444Z" fill="#0A2433"/>
</g>
<defs>
<clipPath id="clip0_37_328">
<rect width="180" height="30.8824" fill="white"/>
</clipPath>
</defs>
</svg>
