<svg width="397" height="272" viewBox="0 0 397 272" fill="none" xmlns="http://www.w3.org/2000/svg">
<g clip-path="url(#clip0_2213_1213)">
<path d="M365.459 0H31.4399C14.0794 0 0 14.0794 0 31.4399V197.216C0 214.576 14.0794 228.655 31.4399 228.655H245.212V220.883H40.5929C23.2324 220.883 9.15303 206.804 9.15303 189.443V39.2219C9.15303 21.8614 23.2324 7.78196 40.5929 7.78196H356.316C373.676 7.78196 387.756 21.8614 387.756 39.2219V189.443C387.756 206.596 374.017 220.533 356.949 220.874V228.665H365.469C382.829 228.665 396.909 214.586 396.909 197.225V31.4399C396.909 14.0794 382.829 0 365.469 0H365.459Z" fill="#333343"/>
<path d="M312.631 153.464H246.224V179.231H312.631V153.464Z" fill="white"/>
<path d="M270.96 237.629H296.292V216.855H320.318V237.629H345.65L308.31 272L270.96 237.629Z" fill="#D64D4D"/>
<path d="M283.347 159.951C282.779 159.412 282.061 159.053 281.181 158.863C280.529 158.712 279.252 158.646 277.342 158.646H275.243V174.011H278.732C280.037 174.011 280.983 173.936 281.56 173.794C282.316 173.605 282.949 173.283 283.451 172.829C283.952 172.376 284.358 171.629 284.67 170.588C284.982 169.548 285.143 168.13 285.143 166.343C285.143 164.556 284.982 163.175 284.67 162.211C284.358 161.246 283.914 160.499 283.347 159.96V159.951Z" fill="#D64D4D"/>
<path d="M259.226 158.797C258.668 158.693 257.543 158.637 255.859 158.637H253.6V165.227H256.162C258.006 165.227 259.235 165.104 259.859 164.859C260.483 164.613 260.966 164.234 261.325 163.714C261.675 163.194 261.854 162.599 261.854 161.908C261.854 161.067 261.609 160.367 261.107 159.819C260.616 159.27 259.982 158.93 259.226 158.788V158.797Z" fill="#D64D4D"/>
<path d="M344.77 244.238C347.909 244.238 350.453 241.335 350.453 237.761V237.572L343.21 244.238H344.77Z" fill="white"/>
<path d="M353.895 234.414H353.583V234.698L353.895 234.414Z" fill="#D64D4D"/>
<path d="M288.207 117.883H257.306C254.166 117.883 251.623 120.776 251.623 124.36V143.205H250.413V143.224H327.797V189.414H251.623V237.77C251.623 241.345 254.166 244.248 257.306 244.248H273.399L262.724 234.423H293.086V213.64H323.542V234.423H350.472V188.762C350.472 149.625 322.597 117.892 288.216 117.892L288.207 117.883Z" fill="white"/>
<path d="M273.399 244.238L274.061 244.853L273.399 244.238Z" fill="#333343"/>
<path d="M352.893 120.464C352.448 119.273 351.815 118.195 351.001 117.278C350.916 117.183 350.831 117.098 350.746 117.013C349.999 116.219 349.148 115.585 348.203 115.122C347.115 114.592 345.962 114.328 344.78 114.328H257.306C256.124 114.328 254.97 114.592 253.883 115.122C252.937 115.576 252.096 116.219 251.339 117.013C251.254 117.098 251.169 117.183 251.084 117.278C250.848 117.552 250.621 117.845 250.413 118.138C249.921 118.847 249.505 119.623 249.193 120.464C248.73 121.703 248.493 123.017 248.493 124.36V143.205H251.614V124.36C251.614 120.786 254.157 117.883 257.296 117.883H288.197C322.578 117.883 350.453 149.616 350.453 188.753V237.771C350.453 241.345 347.909 244.248 344.77 244.248H343.21L342.548 244.862L339.352 247.803H344.77C345.952 247.803 347.106 247.538 348.193 247.009C349.243 246.498 350.179 245.779 350.992 244.853C351.805 243.936 352.439 242.858 352.883 241.666C353.346 240.428 353.583 239.113 353.583 237.771V124.36C353.583 123.008 353.346 121.703 352.883 120.464H352.893Z" fill="#333343"/>
<path d="M273.399 244.238H257.306C254.166 244.238 251.623 241.335 251.623 237.761V189.415H248.502V237.761C248.502 239.113 248.739 240.418 249.202 241.657C249.514 242.498 249.93 243.274 250.422 243.983C250.63 244.285 250.847 244.569 251.093 244.843C251.906 245.761 252.843 246.489 253.892 246.999C254.98 247.529 256.133 247.793 257.315 247.793H277.276L274.08 244.853L273.418 244.238H273.399Z" fill="#333343"/>
<path d="M234.263 146.439V186.2H324.573V146.439H234.263ZM265.911 165.435C265.391 166.409 264.738 167.166 263.944 167.724C263.15 168.281 262.336 168.641 261.514 168.82C260.398 169.038 258.772 169.151 256.654 169.151H253.599V177.926H248.9V154.703H256.427C259.282 154.703 261.136 154.817 262.005 155.053C263.339 155.403 264.454 156.159 265.353 157.322C266.251 158.485 266.695 159.998 266.695 161.842C266.695 163.27 266.44 164.461 265.92 165.435H265.911ZM289.275 171.487C288.699 173.179 287.867 174.541 286.789 175.591C285.975 176.385 284.879 176.999 283.498 177.444C282.467 177.775 281.087 177.936 279.356 177.936H270.544V154.713H279.101C281.03 154.713 282.505 154.864 283.517 155.157C284.879 155.554 286.042 156.273 287.016 157.294C287.989 158.315 288.727 159.573 289.228 161.057C289.739 162.542 289.985 164.367 289.985 166.551C289.985 168.461 289.748 170.106 289.275 171.496V171.487ZM309.936 158.637H298.674V164.13H308.395V168.064H298.674V177.936H293.975V154.713H309.936V158.646V158.637Z" fill="#D64D4D"/>
<path d="M142.459 37.5482C142.506 40.5929 142.241 43.7133 141.844 46.7391C141.135 52.0815 139.348 57.2726 136.397 61.7924C130.715 70.4821 120.143 76.562 109.572 74.7655C107.17 74.3683 104.797 73.4322 102.991 71.7681C101.156 70.085 100.135 67.7305 99.8894 65.272C99.3882 60.1755 102.537 55.5422 106.764 52.9703C108.901 51.6749 111.331 50.8712 113.373 49.415C115.652 47.7886 116.739 45.3585 117.269 42.6826C117.817 39.9027 117.798 37.0187 118.536 34.2577C119.16 31.9032 120.408 29.7852 122.252 28.1777C125.665 25.2181 130.563 24.1496 134.771 25.9178C138.345 27.4118 141.05 30.6456 141.995 34.3617C142.298 35.364 142.459 36.423 142.468 37.5482H142.459Z" fill="#222241"/>
<path d="M141.891 55.5327C142.373 58.4166 142.676 61.3384 142.78 64.2602C137.759 63.0971 134.421 61.8112 129.769 55.892C129.769 55.892 130.204 55.561 130.204 55.5705C130.327 55.2584 130.459 54.9653 130.601 54.6722C131.263 53.1404 131.187 51.3627 131.187 51.3627C134.544 51.5046 137.825 51.306 141.173 51.0223C141.239 51.0223 141.305 51.0223 141.381 51.0034C141.532 51.7599 141.778 54.7668 141.891 55.5327Z" fill="#FF9E3F"/>
<path d="M141.475 51.1452C141.409 51.1452 141.343 51.1547 141.267 51.1641C137.92 51.4478 134.544 51.514 131.178 51.3627C131.783 49.8687 131.906 48.3747 131.812 47.0415C131.66 44.9896 131.083 42.9945 130.724 40.9615C130.365 38.938 130.242 36.7916 130.979 34.8627C132.152 31.7801 135.291 29.8701 138.478 28.9907C138.638 29.2271 138.79 29.473 138.932 29.7188C140.019 31.5343 140.898 33.4727 141.541 35.4773C141.617 35.7137 141.702 35.9595 141.901 36.1108C142.033 36.2148 142.213 36.2526 142.373 36.2905C142.931 36.4134 143.48 36.6025 143.915 36.9618C144.7 37.6048 144.945 38.7016 145.03 39.7134C145.314 42.8337 144.586 45.9541 143.801 48.9893C143.641 49.6039 143.451 50.2658 142.96 50.663C142.544 51.0034 142.005 51.0979 141.475 51.1452Z" fill="#FFB055"/>
<path d="M143.338 45.2353C143.196 45.1597 142.884 45.1691 142.525 45.2448C142.137 45.3299 141.608 45.4623 141.012 45.7648C140.577 45.9823 140.189 46.2471 139.991 46.4646C139.858 46.6159 139.858 46.7104 139.887 46.7766C139.972 46.9846 140.492 46.9657 141.22 46.7293C141.598 46.6442 142.109 46.4457 142.638 46.1147C142.95 45.9161 143.206 45.7081 143.329 45.5568C143.47 45.3772 143.433 45.2826 143.329 45.2353H143.338Z" fill="#222241"/>
<path d="M141.418 39.2689C141.314 39.1176 141.097 39.0419 140.936 38.9568C140.766 38.8623 140.586 38.7772 140.416 38.6921C140.047 38.5124 139.669 38.3422 139.291 38.1909C139.177 38.1436 139.035 38.1531 138.969 38.276C138.913 38.3706 138.941 38.5502 139.054 38.5975C139.395 38.7393 139.745 38.8906 140.076 39.0514C140.236 39.127 140.397 39.2121 140.548 39.2878C140.633 39.335 140.719 39.3729 140.794 39.4201C140.823 39.4296 140.927 39.4863 140.974 39.5147C140.936 39.6376 140.879 39.7511 140.832 39.8646C140.766 40.0158 140.7 40.1766 140.624 40.3279C140.482 40.6305 140.34 40.9425 140.18 41.2356C140.038 41.5004 140.444 41.7368 140.586 41.472C140.775 41.1127 140.946 40.7534 141.106 40.3846C141.182 40.205 141.267 40.0253 141.343 39.8456C141.418 39.6565 141.522 39.4674 141.399 39.2783L141.418 39.2689Z" fill="#D17323"/>
<path d="M135.991 38.8342C135.991 39.1556 135.859 39.4866 135.594 39.6757C135.32 39.8743 134.932 39.8365 134.658 39.6473C134.469 39.5244 134.327 39.3448 134.213 39.1556C133.958 38.7963 133.826 38.3708 133.778 37.9264C133.741 37.5955 133.816 37.2362 134.147 37.0943C134.431 36.9714 134.762 37.0281 135.017 37.1794C135.291 37.3307 135.499 37.586 135.66 37.8602C135.83 38.1534 135.972 38.4938 135.982 38.8342H135.991Z" fill="#222241"/>
<path d="M141.456 37.1983C141.258 37.4726 140.794 37.3591 140.52 37.17C140.331 37.0471 140.189 36.8674 140.076 36.6783C139.82 36.319 139.688 35.8935 139.641 35.4491C139.603 35.1181 139.679 34.7588 140.01 34.617C140.293 34.494 140.7 34.4657 140.879 34.7021C141.201 35.1087 142.005 36.423 141.447 37.1983H141.456Z" fill="#222241"/>
<path d="M134.261 35.6571C134.185 35.4207 133.939 35.2411 133.684 35.3262C132.833 35.6004 132.152 36.319 131.944 37.1889C131.887 37.4253 132.029 37.709 132.284 37.7657C132.53 37.8224 132.795 37.6901 132.861 37.4253C132.88 37.3308 132.909 37.2456 132.946 37.1605C133.003 37.0282 133.079 36.9052 133.164 36.7918C133.258 36.6783 133.372 36.5648 133.485 36.4703C133.561 36.4136 133.637 36.3663 133.722 36.319C133.769 36.3001 133.807 36.2717 133.854 36.2528C133.854 36.2528 133.911 36.2339 133.939 36.2244C134.176 36.1488 134.346 35.903 134.27 35.6477L134.261 35.6571Z" fill="#222241"/>
<path d="M140.823 32.3948C140.057 32.2624 139.282 32.4704 138.695 32.9905C138.516 33.1512 138.516 33.4916 138.695 33.6524C138.894 33.832 139.159 33.832 139.357 33.6524C139.386 33.6335 139.404 33.6146 139.433 33.5862H139.452C139.508 33.5389 139.575 33.5011 139.631 33.4633C139.66 33.4444 139.698 33.4349 139.726 33.416C139.745 33.416 139.773 33.3971 139.792 33.3971H139.735C139.802 33.3971 139.868 33.3593 139.934 33.3403C140 33.3214 140.076 33.3025 140.142 33.2931H140.161C140.161 33.2931 140.227 33.2931 140.265 33.2836C140.331 33.2836 140.407 33.2836 140.473 33.2836C140.501 33.2836 140.52 33.2836 140.549 33.2836H140.586C140.709 33.312 140.823 33.3025 140.936 33.2458C141.04 33.1891 141.135 33.0756 141.154 32.9527C141.201 32.7163 141.078 32.4231 140.813 32.3759L140.823 32.3948Z" fill="#222241"/>
<path d="M159.667 203.088C159.478 203.135 159.289 203.182 159.1 203.23C156.311 203.891 153.398 204.043 150.562 203.665C150.325 203.636 150.079 203.598 149.843 203.56C146.874 185.273 146.325 181.463 144.775 170.362C144.283 166.854 142.95 162.665 145.011 159.79C143.252 152.878 141.475 144.907 139.707 137.352C138.761 143.007 137.721 149.55 137.276 153.436C136.87 156.963 136.463 160.509 135.433 163.904C134.534 166.863 133.163 169.653 131.858 172.461C126.724 183.477 122.705 193.916 118.346 205.263V205.281C118.138 205.281 117.921 205.281 117.703 205.263C116.342 205.187 114.763 204.932 113.675 204.714C112.739 204.534 111.803 204.355 110.933 203.977C110.489 203.787 109.978 203.419 109.524 203.003C109.222 202.719 108.947 202.416 108.73 202.123C112.361 190.455 115.377 178.579 117.751 166.589C118.545 162.57 119.49 158.174 122.639 155.602C120.275 142.855 117.978 129.892 119.5 117.032C119.5 117.032 123.812 117.6 129.863 117.949C129.854 117.921 129.835 117.893 129.816 117.864C130.043 117.912 130.279 117.949 130.506 117.987C137.589 118.375 146.864 118.46 154.419 117.051C156.859 145.683 158.599 174.371 159.658 203.078L159.667 203.088Z" fill="#333343"/>
<path d="M155.942 79.0015C155.176 80.2402 153.777 80.9116 152.377 81.3654C152.973 93.2606 153.673 105.156 154.486 117.041C154.467 117.041 154.439 117.051 154.42 117.06C139.026 124.994 119.491 117.041 119.491 117.041C120.975 109.94 127.679 101.175 127.887 100.901L122.309 87.3697L115.907 67.078C116.049 66.7943 116.2 66.5201 116.389 66.2648C116.843 65.6408 117.467 65.168 118.082 64.7047C121.959 61.7734 125.845 58.8516 129.722 55.9204C129.731 55.9204 129.741 55.9015 129.76 55.892C129.826 55.9771 129.892 56.0622 129.958 56.1473C133.145 60.1849 137.75 63.1067 142.771 64.2602C142.667 61.3385 142.364 58.4167 141.882 55.5327C146.439 60.686 151.006 65.8866 154.666 71.7207C155.356 72.827 156.018 73.9617 156.349 75.2287C156.67 76.4863 156.614 77.8952 155.933 79.0015H155.942Z" fill="#1A58BF"/>
<path d="M166.627 213.281V213.233C167.393 211.314 169.321 209.915 171.383 209.735C172.896 211.049 174.03 212.884 174.229 214.879H150.562V213.158C151.205 213.243 151.857 213.243 152.509 213.243C157.209 213.252 161.927 213.262 166.627 213.281Z" fill="#333343"/>
<path d="M171.298 209.65C171.298 209.65 171.355 209.697 171.373 209.726C169.312 209.905 167.393 211.305 166.617 213.224V213.271C161.908 213.262 157.2 213.252 152.5 213.234C151.848 213.234 151.195 213.234 150.552 213.148V203.664C153.389 204.043 156.301 203.891 159.091 203.229V203.267C159.894 204.279 161.029 204.988 162.211 205.508C163.393 206.019 164.641 206.359 165.87 206.775C167.818 207.437 169.738 208.298 171.307 209.64L171.298 209.65Z" fill="#1A58BF"/>
<path d="M118.881 91.2703L110.607 117.195L120.669 120.406L128.943 94.4815L118.881 91.2703Z" fill="white"/>
<path d="M146.543 118.034L149.701 108.144L141.588 105.563L144.586 96.1825L152.699 98.7734L155.847 88.8828L164.613 107.737L146.543 118.034Z" fill="#D64D4D"/>
<path d="M117.77 103.52C117.486 103.671 117.259 103.908 117.07 104.229C116.928 104.466 116.739 104.957 116.503 105.695L116.238 106.517L122.233 108.427L122.668 107.066C122.828 106.555 122.923 106.177 122.932 105.931C122.951 105.61 122.904 105.326 122.791 105.071C122.677 104.815 122.431 104.57 122.072 104.314C121.703 104.059 121.174 103.823 120.474 103.596C119.774 103.369 119.216 103.265 118.8 103.265C118.384 103.265 118.034 103.35 117.76 103.501L117.77 103.52Z" fill="#D64D4D"/>
<path d="M114.309 112.796C114.195 113.004 114.035 113.429 113.827 114.091L113.543 114.971L116.115 115.793L116.436 114.791C116.663 114.072 116.767 113.571 116.758 113.306C116.739 113.032 116.654 112.796 116.493 112.597C116.332 112.399 116.124 112.247 115.85 112.162C115.519 112.058 115.217 112.068 114.942 112.191C114.668 112.314 114.451 112.522 114.309 112.796Z" fill="#D64D4D"/>
<path d="M158.325 90.0459C158.712 88.8166 157.899 87.4645 156.509 87.0201L156.434 86.9917L158.136 90.651L158.334 90.0459H158.325Z" fill="white"/>
<path d="M155.62 85.2612L155.583 85.3842L155.696 85.422L155.62 85.2612Z" fill="#D64D4D"/>
<path d="M101.95 96.3906L98.102 108.456C97.7144 109.685 98.5275 111.037 99.9175 111.482L107.274 113.827L107.123 114.299L116.767 84.0983L134.799 89.8567L125.155 120.058L125.306 119.585L144.179 125.608C145.579 126.053 147.025 125.419 147.413 124.2L149.418 117.921L144.255 120.862L148.037 109.014L139.924 106.423L143.716 94.5373L151.829 97.1281L155.186 86.6135L137.362 80.9212C122.081 76.0421 106.224 82.9731 101.941 96.3906H101.95Z" fill="white"/>
<path d="M149.427 117.911L149.749 117.722L149.427 117.911Z" fill="#333343"/>
<path d="M111.018 71.4561C110.498 71.4844 109.997 71.5979 109.543 71.7965C109.496 71.8154 109.449 71.8437 109.411 71.8626C109.004 72.0612 108.655 72.3071 108.361 72.6191C108.021 72.9784 107.775 73.3945 107.624 73.8578L96.7216 108.002C96.5703 108.465 96.5325 108.948 96.6081 109.439C96.6649 109.865 96.8162 110.271 97.0242 110.668C97.0526 110.716 97.0715 110.754 97.0998 110.801C97.1755 110.933 97.2606 111.047 97.3551 111.17C97.5726 111.453 97.8185 111.709 98.1116 111.936C98.5371 112.266 99.0193 112.522 99.5488 112.692L106.905 115.037L107.142 114.29L107.293 113.817L99.9365 111.472C98.5371 111.028 97.7239 109.676 98.121 108.446L101.969 96.381C106.253 82.9635 122.11 76.0326 137.39 80.9117L155.214 86.6039L156.443 87.0011L156.519 87.0294C157.918 87.4739 158.731 88.826 158.334 90.0552L158.136 90.6604L158.297 91.0008L159.044 92.6177L159.715 90.4996C159.866 90.0363 159.904 89.5541 159.828 89.0624C159.762 88.5896 159.592 88.1357 159.337 87.7008C159.081 87.2658 158.741 86.8876 158.325 86.5661C157.899 86.2352 157.417 85.9799 156.888 85.8097L155.687 85.4314L155.573 85.3936L112.616 71.683C112.087 71.5128 111.548 71.4466 111.009 71.4655L111.018 71.4561Z" fill="#333343"/>
<path d="M149.427 117.911L147.423 124.19C147.035 125.419 145.579 126.053 144.189 125.599L125.315 119.575L125.164 120.048L124.928 120.795L143.801 126.818C144.331 126.989 144.87 127.055 145.409 127.036C145.777 127.017 146.127 126.951 146.468 126.847C146.609 126.8 146.751 126.752 146.884 126.696C147.347 126.497 147.744 126.213 148.075 125.873C148.415 125.514 148.661 125.098 148.813 124.634L151.299 116.843L149.749 117.722L149.427 117.902V117.911Z" fill="#333343"/>
<path d="M106.376 120.994L121.893 125.949L133.145 90.6984L117.628 85.7437L106.376 120.994ZM117.732 111.009C118.044 111.331 118.262 111.68 118.375 112.068C118.489 112.446 118.536 112.806 118.498 113.155C118.441 113.619 118.29 114.262 118.025 115.094L117.647 116.285L121.07 117.382L120.484 119.217L111.416 116.323L112.352 113.382C112.711 112.267 112.985 111.557 113.184 111.245C113.487 110.773 113.922 110.432 114.489 110.224C115.056 110.016 115.699 110.035 116.418 110.262C116.976 110.442 117.411 110.688 117.723 111.009H117.732ZM123.008 102.641C123.595 103.076 124.03 103.567 124.304 104.125C124.512 104.541 124.616 105.043 124.616 105.638C124.616 106.083 124.502 106.641 124.294 107.321L123.197 110.763L114.13 107.87L115.198 104.532C115.434 103.775 115.68 103.227 115.917 102.868C116.248 102.386 116.664 102.017 117.184 101.771C117.704 101.516 118.29 101.393 118.933 101.374C119.576 101.364 120.323 101.487 121.174 101.761C121.921 101.998 122.536 102.3 123.018 102.66L123.008 102.641ZM120.569 92.9772L119.169 97.3741L121.316 98.0548L122.526 94.2632L124.058 94.7548L122.848 98.5465L126.696 99.7758L126.11 101.61L117.042 98.7167L119.028 92.4855L120.559 92.9772H120.569Z" fill="#D64D4D"/>
<path d="M125.589 125.958C125.589 125.958 125.589 125.958 125.589 125.949C126.904 126.109 128.237 126.043 129.561 125.977C130.97 125.911 132.379 125.835 133.797 125.769C134.733 126.847 135.159 128.303 135.527 129.693C135.887 131.045 136.236 132.407 136.567 133.768C136.681 134.241 136.804 134.724 136.738 135.206C136.671 135.688 136.388 136.17 135.924 136.331C135.14 136.605 134.402 135.839 133.91 135.168C134.005 136.388 133.494 137.683 132.483 138.364C131.471 139.054 129.967 139.016 129.098 138.165C128.464 137.551 128.218 136.652 127.689 135.962C126.961 135.026 125.75 134.534 125.06 133.56C124.285 132.473 124.313 131.007 124.616 129.703C124.909 128.445 125.429 127.235 125.589 125.958Z" fill="#FFB055"/>
<path d="M129.816 117.873C131.178 120.502 132.539 123.131 133.901 125.759C133.863 125.759 133.835 125.759 133.797 125.759C132.388 125.826 130.979 125.901 129.561 125.967C128.237 126.034 126.904 126.1 125.589 125.939C125.589 125.939 125.589 125.939 125.58 125.939C123.556 122.97 121.533 120.01 119.5 117.041C117.089 113.514 114.687 109.988 112.276 106.461C109.959 103.075 107.586 99.5202 106.99 95.4637C107.331 93.9224 107.803 92.4095 108.267 90.9061C108.796 89.2041 109.335 87.5021 109.865 85.8001C110.81 82.7743 111.756 79.7485 112.701 76.7227C113.571 73.9427 114.441 71.1533 115.396 68.4112C115.548 67.9668 115.708 67.5224 115.916 67.0969C117.079 65.9149 118.725 65.2341 120.389 65.1396C122.252 65.0261 124.105 65.584 125.712 66.5201C127.518 67.5791 129.097 69.2622 129.419 71.333C129.684 73.0634 129.031 74.7937 128.313 76.3917C126.601 80.2023 124.417 83.7766 122.318 87.3886C120.748 90.0835 119.235 92.8067 118.006 95.6623C119.708 98.3949 121.193 101.26 122.677 104.116C123.443 105.591 124.209 107.066 124.975 108.55C126.592 111.671 128.209 114.782 129.826 117.892L129.816 117.873Z" fill="#1A58BF"/>
<path d="M129.741 216.798C129.76 216.864 129.769 216.94 129.779 217.016H115.208V216.344C115.208 216.344 115.122 216.269 115.075 216.231L115.198 216.079C116.342 215.437 117.401 214.661 118.526 214.009C119.661 213.356 120.881 212.798 122.186 212.666C123.689 212.515 125.221 212.921 126.526 213.697C127.821 214.463 128.89 215.569 129.741 216.808V216.798Z" fill="#333343"/>
<path d="M119.907 209.962C121.212 209.839 122.545 209.895 123.783 210.302C125.816 210.973 127.452 212.552 128.644 214.34C129.145 215.096 129.589 215.919 129.741 216.807C128.89 215.569 127.821 214.462 126.526 213.697C125.23 212.931 123.689 212.515 122.185 212.666C120.881 212.798 119.651 213.347 118.526 214.009C117.391 214.661 116.332 215.436 115.198 216.079L115.075 216.231C112.333 213.999 109.581 211.758 106.83 209.527C107.785 207.38 108.683 205.205 109.515 203.012C109.978 203.428 110.489 203.797 110.924 203.986C111.794 204.364 112.739 204.544 113.666 204.723C114.763 204.941 116.332 205.196 117.694 205.272C118.422 206.832 119.15 208.401 119.888 209.962H119.907Z" fill="#1A58BF"/>
<path d="M115.207 216.344V217.016H114.271C111.624 214.926 108.967 212.865 106.272 210.841H106.253C106.451 210.397 106.65 209.962 106.839 209.527C109.591 211.758 112.333 213.999 115.084 216.231C115.132 216.269 115.17 216.307 115.217 216.344H115.207Z" fill="#333343"/>
</g>
<defs>
<clipPath id="clip0_2213_1213">
<rect width="396.909" height="272" fill="white"/>
</clipPath>
</defs>
</svg>
