<svg width="144" height="33" viewBox="0 0 144 33" fill="none" xmlns="http://www.w3.org/2000/svg">
<path d="M61.337 11.7578V32.4006H52.985V15.1383C52.985 10.8846 49.8808 8.58894 46.961 8.58894C44.4314 8.58894 42.4548 9.82186 40.5566 12.5881V32.402H32.2047V17.1676C31.3614 17.4651 30.4952 17.7152 29.6431 17.9091C29.1962 26.6949 23.1068 32.9586 14.8347 32.9586C6.23892 32.9586 0 26.1946 0 16.8759V0.713401H8.35339V16.8759C8.35339 20.3645 10.0513 24.4391 14.8361 24.4391C19.2378 24.4391 21.0271 20.9906 21.284 17.721C17.8141 16.2321 15.6662 12.6444 15.6662 7.87997C15.6662 2.94537 19.274 0.0429214 22.7541 0.0429214C27.2066 0.0429214 29.6708 4.56606 29.6475 9.06109C29.6475 9.06109 30.8825 8.60967 32.2047 7.84446V0.711921H40.5566V3.43084C43.4141 1.05974 46.0525 0 49.0972 0C52.4611 0 55.5625 1.20035 57.828 3.38052C60.0918 5.5592 61.337 8.53418 61.337 11.7578ZM64.6677 8.22335H78.8086L63.9087 26.2804L63.897 26.2937V32.4006H90.3736V24.9025H75.3895L90.3619 6.60414L90.3736 6.59083V0.713401H64.6677V8.22335ZM117.435 4.43286C120.236 7.33087 121.716 11.4426 121.716 16.3239V19.2633H99.277C99.8561 23.1723 102.612 25.5034 106.658 25.5034C110.021 25.5034 112.929 24.124 114.247 21.9052L114.268 21.8668L114.308 21.8846L120.856 24.8921L120.832 24.9394C118.216 30.062 113.007 33 106.539 33C97.2511 33 91.0107 26.3944 91.0107 16.5622C91.0107 11.9265 92.6666 7.69941 95.6736 4.65783C98.563 1.73466 102.422 0.124327 106.541 0.124327C110.945 0.125807 114.711 1.61477 117.435 4.43286ZM113.583 12.6044C112.897 9.33342 110.269 7.38415 106.541 7.38415C103.139 7.38415 100.524 9.33342 99.5339 12.6044H113.583ZM142.643 0.481028C141.536 0.125807 140.276 0.125806 140.276 0.125806C137.536 0.125806 134.894 1.20479 132.628 3.24583V0.713401H124.276V32.402H132.628V12.748C134.275 9.55987 136.803 7.80448 139.747 7.80448C139.747 7.80448 141.07 7.81633 141.894 8.0635L142.643 0.481028Z" fill="#FC1154"/>
</svg>
