<svg width="136" height="44" viewBox="0 0 136 44" fill="none" xmlns="http://www.w3.org/2000/svg">
<g clip-path="url(#clip0_22_1999)">
<path d="M19.1869 9.99951H0.343851V15.9998H12.6262C13.3861 15.9998 14.0016 16.6153 14.0016 17.3753V28.0005H11.378C10.6181 28.0005 10.0026 27.3849 10.0026 26.625V19.0017H4.81392C2.15595 19.0017 0 21.1577 0 23.8157V29.1868C0 31.8448 2.15595 34.0008 4.81392 34.0008H24.0008V14.8135C24.0008 12.1555 21.8449 9.99951 19.1869 9.99951Z" fill="#00B451"/>
<path d="M42.0015 28.0003H39.3779C38.618 28.0003 38.0025 27.3848 38.0025 26.6249V9.99938H32.8172C30.1592 9.99938 28.0033 12.1554 28.0033 14.8134V29.1866C28.0033 31.8446 30.1592 34.0006 32.8172 34.0006H52.0041V0H42.0049V28.0003H42.0015Z" fill="#00B451"/>
<path d="M70.0012 28.0005H67.3776C66.6177 28.0005 66.0022 27.3849 66.0022 26.625V9.99951H56.0031V29.1868C56.0031 31.8448 58.159 34.0008 60.817 34.0008H70.0047V36.9992H56.3469V43.9967H75.1899C77.8479 43.9967 80.0039 41.8407 80.0039 39.1827V9.99951H70.0047V28.0005H70.0012Z" fill="#00B451"/>
<path d="M103.186 9.99951H83.9994V29.1868C83.9994 31.8448 86.1553 34.0008 88.8133 34.0008H107.656V28.0005H95.374C94.6141 28.0005 93.9986 27.3849 93.9986 26.625V15.9998H96.6222C97.3821 15.9998 97.9976 16.6153 97.9976 17.3753V24.9986H103.183C105.841 24.9986 107.997 22.8426 107.997 20.1846V14.8135C107.997 12.1555 105.841 9.99951 103.183 9.99951H103.186Z" fill="#00B451"/>
<path d="M131.186 9.99951H111.999V34.0008H121.998V15.9998H124.622C125.378 15.9998 125.997 16.6188 125.997 17.3753V34.0008H135.997V14.8135C135.997 12.1555 133.841 9.99951 131.183 9.99951H131.186Z" fill="#00B451"/>
</g>
<defs>
<clipPath id="clip0_22_1999">
<rect width="136" height="44" fill="white"/>
</clipPath>
</defs>
</svg>
