<svg width="180" height="46" viewBox="0 0 180 46" fill="none" xmlns="http://www.w3.org/2000/svg">
<g clip-path="url(#clip0_37_308)">
<path d="M16.8924 17.9403C15.5375 17.9403 14.5953 17.7765 14.0664 17.4481C13.5371 17.1202 13.2726 16.5327 13.2726 15.6858C13.2726 14.2465 14.384 13.5266 16.6067 13.5266H24.8306V1.0796H13.6219C9.30355 1.0796 5.95364 2.22269 3.57219 4.50889C1.19072 6.79508 0 10.013 0 14.1617V31.1494C0 35.447 1.2592 38.7334 3.77857 41.0086C6.29746 43.2845 9.93861 44.4221 14.7015 44.4221H24.8306V32.0383H16.1621C14.6588 32.0383 13.6641 31.8954 13.1774 31.6098C12.6902 31.324 12.4471 30.7261 12.4471 29.8158C12.4471 29.0115 12.6852 28.44 13.1615 28.1011C13.6378 27.7628 14.4475 27.5931 15.5906 27.5931H24.005V17.9403H16.8924ZM59.9579 13.5266V1.0796H27.3479V13.5266H37.223V44.4221H50.1148V13.5266H59.9579ZM78.4158 12.7328C81.5486 12.7328 83.1154 13.7598 83.1154 15.8128C83.1154 18.1417 81.7603 19.3056 79.0511 19.3056H78.0348V30.4508L84.2902 44.4221H97.817L90.3868 26.5452C94.2178 23.5396 96.1339 19.8454 96.1339 15.4636C96.1339 11.1665 94.5886 7.62064 91.4981 4.82642C88.7247 2.32886 84.8191 1.0796 79.7814 1.0796H63.238V44.4221H76.1298V12.7328H78.4158ZM105.911 6.60455C101.434 11.0078 99.1955 16.3844 99.1955 22.7349C99.1955 29.0219 101.418 34.3881 105.864 38.8335C110.309 43.2788 115.675 45.5016 121.962 45.5016C128.292 45.5016 133.668 43.2899 138.093 38.8652C142.517 34.4412 144.729 29.0646 144.729 22.7349C144.729 16.5114 142.533 11.1665 138.14 6.69983C133.747 2.23362 128.482 0 122.343 0C115.866 0 110.388 2.20187 105.911 6.60455ZM128.741 15.6699C130.593 17.6069 131.52 19.962 131.52 22.7349C131.52 25.5083 130.593 27.863 128.741 29.7999C126.889 31.7368 124.63 32.7054 121.962 32.7054C119.337 32.7054 117.088 31.7318 115.215 29.784C113.341 27.8367 112.405 25.487 112.405 22.7349C112.405 19.9833 113.336 17.6336 115.199 15.6858C117.062 13.7385 119.316 12.7646 121.962 12.7646C124.63 12.7646 126.889 13.733 128.741 15.6699ZM161.552 44.4221V16.7337C161.552 14.0878 162.462 12.7646 164.282 12.7646C166.167 12.7646 167.109 14.0878 167.109 16.7337V44.4221H180V16.7337C180 11.3357 178.703 7.19745 176.11 4.31836C173.517 1.43977 169.776 0 164.886 0C159.975 0 156.043 1.48197 153.09 4.44539C150.137 7.40928 148.66 11.3571 148.66 16.2891V44.4221H161.552Z" fill="#333343"/>
</g>
<defs>
<clipPath id="clip0_37_308">
<rect width="180" height="45.5013" fill="white"/>
</clipPath>
</defs>
</svg>
