<svg width="144" height="42" viewBox="0 0 144 42" fill="none" xmlns="http://www.w3.org/2000/svg">
<g clip-path="url(#clip0_22_1997)">
<path d="M104.088 4.39865C104.088 1.96284 106.08 0 108.552 0C111.024 0 113.016 1.96284 113.016 4.39865C113.016 6.83446 111.024 8.82095 108.552 8.82095C106.08 8.82095 104.088 6.83446 104.088 4.39865ZM39.768 17.7365C41.856 20.0541 43.032 23.0338 43.032 26.1318V41.4324H36.168V25.9426C36.144 22.8919 33.6 20.4088 30.504 20.4088C30.336 20.4088 30.144 20.4324 29.928 20.4324C27.168 20.7162 24.84 23.2939 24.84 26.0845V41.4088H18V25.9662C17.976 22.9155 15.456 20.4088 12.36 20.4088C12.192 20.4088 12 20.4324 11.784 20.4324C9.024 20.7162 6.696 23.2939 6.696 26.1081V41.4088H0V25.9189C0 19.1554 5.592 13.6689 12.432 13.6689C15.864 13.6689 19.128 15.0878 21.48 17.5236C23.832 15.0642 27.12 13.6689 30.552 13.6689C30.936 13.6689 31.272 13.6926 31.656 13.7162C34.776 14 37.656 15.4189 39.768 17.7365ZM85.776 41.4561H78.936V0.662162H85.776V41.4561ZM98.88 41.4561H92.04V0.662162H98.88V41.4561ZM111.984 41.4324H105.144V14.3784H111.984V41.4324ZM144 30.3176H123.168C124.104 33.5811 127.104 35.875 130.584 35.875C133.32 35.875 135.768 34.5034 137.184 32.2095L137.472 31.7601L143.136 34.5034L142.8 35.0473C140.232 39.3277 135.504 41.9763 130.464 41.9763H130.44C126.6 41.9763 123 40.4865 120.264 37.7669C117.528 35.0473 116.064 31.4527 116.112 27.6689C116.16 23.9561 117.648 20.4561 120.288 17.8311C122.928 15.2061 126.48 13.7399 130.248 13.6926H130.416C134.04 13.6926 137.424 15.1115 140.016 17.6892C142.584 20.2669 144 23.6486 144 27.2196V30.3176ZM123.264 24.7365H137.064C136.08 21.8514 133.272 19.8176 130.152 19.8176C127.032 19.8176 124.248 21.8514 123.264 24.7365ZM75.24 27.8581C75.24 35.6385 68.808 42 60.912 42C53.016 42 46.584 35.6385 46.584 27.8581C46.584 20.0777 52.992 13.7162 60.912 13.7162C68.832 13.7162 75.24 20.0541 75.24 27.8581ZM68.448 27.8581C68.448 23.7669 65.064 20.4088 60.912 20.4088C56.76 20.4088 53.376 23.7432 53.376 27.8581C53.376 31.973 56.76 35.3074 60.912 35.3074C65.064 35.3074 68.448 31.973 68.448 27.8581Z" fill="black"/>
</g>
<defs>
<clipPath id="clip0_22_1997">
<rect width="144" height="42" fill="white"/>
</clipPath>
</defs>
</svg>
