<svg width="166" height="41" viewBox="0 0 166 41" fill="none" xmlns="http://www.w3.org/2000/svg">
<g clip-path="url(#clip0_22_2057)">
<mask id="mask0_22_2057" style="mask-type:luminance" maskUnits="userSpaceOnUse" x="0" y="0" width="166" height="41">
<path d="M0 0H166V41H0V0Z" fill="white"/>
</mask>
<g mask="url(#mask0_22_2057)">
<path d="M14.5632 12.2869V28.7426C14.5632 29.8759 15.3915 30.6926 16.5386 30.6926C17.7155 30.6926 18.5439 29.8759 18.5439 28.7426V23.8341H21.7609C26.7293 23.8341 30.0095 21.1609 30.0095 17.1003C30.0095 13.0741 26.7592 10.4304 21.824 10.4304H16.4091C15.3284 10.4304 14.5632 11.1864 14.5632 12.2869ZM18.5123 13.9236H22.1427C24.3406 13.9236 25.8047 15.1831 25.8047 17.1003C25.8047 19.0519 24.3406 20.3426 22.1427 20.3426H18.5123V13.9236ZM50.8259 27.7357L44.5195 12.8527C43.7559 11.029 42.9608 10.3058 41.3357 10.3058C39.7122 10.3058 38.9154 11.029 38.1501 12.8527L31.8122 27.798C31.1134 29.4659 31.8122 30.6926 33.2797 30.6926C34.5197 30.7238 35.0625 30.0628 35.5721 28.7738L36.4835 26.5614H45.9621L46.8452 28.7426C47.3548 30.0628 48.1516 30.7238 49.297 30.6926C50.7943 30.6926 51.5596 29.4659 50.8259 27.7357ZM44.5312 23.0682H37.8912L41.2095 14.8994L44.5312 23.0682ZM69.3249 13.1676L62.7978 23.8964V28.7426C62.7978 29.8759 61.9695 30.6926 60.8224 30.6926C59.6438 30.6926 58.8155 29.8759 58.8155 28.7426V23.8964L52.4477 13.389C51.4915 11.8162 52.383 10.3058 54.0081 10.3058C55.122 10.3058 55.6316 10.9978 56.0765 11.7834L60.8871 19.8079L65.5667 11.972C66.2058 10.965 66.7469 10.3058 67.8608 10.3058C69.5158 10.3058 70.1865 11.8162 69.3249 13.1676ZM100.337 30.9927C94.5104 30.9927 89.7645 26.2728 89.7645 20.5148C89.7645 14.696 94.5104 10.0056 100.337 10.0056C106.164 10.0056 110.911 14.7256 110.911 20.5459C110.911 26.304 106.164 30.9927 100.337 30.9927ZM100.337 13.9088C96.866 13.9088 94.0324 16.8658 94.0324 20.5148C94.0324 24.1342 96.866 27.0912 100.337 27.0912C103.841 27.0912 106.675 24.1342 106.675 20.5459C106.675 16.8969 103.841 13.9088 100.337 13.9088ZM133.512 12.2721V28.2556C133.512 29.7644 132.652 30.7106 131.316 30.7106C129.784 30.7106 129.022 29.8923 128.066 28.5704L119.691 17.1806V28.7279C119.691 29.8595 118.863 30.6762 117.716 30.6762C116.537 30.6762 115.709 29.8595 115.709 28.7279V12.7756C115.709 11.2012 116.6 10.2894 118.034 10.2894C119.404 10.2894 120.167 11.0454 121.06 12.3984L129.531 24.0703V12.2721C129.531 11.1389 130.358 10.3222 131.507 10.3222C132.684 10.3222 133.512 11.1389 133.512 12.2721ZM141.374 10.4173H151.087C152.202 10.4173 152.966 11.1717 152.966 12.2721C152.966 13.3742 152.202 14.0974 151.087 14.0974H143.509V18.5648H149.815C150.929 18.5648 151.692 19.3208 151.692 20.4196C151.692 21.4906 150.929 22.2778 149.815 22.2778H143.509V26.8698H151.087C152.202 26.8698 152.966 27.6258 152.966 28.759C152.966 29.8283 152.202 30.5827 151.087 30.5827H141.374C140.293 30.5827 139.528 29.7972 139.528 28.7279V12.2721C139.528 11.1717 140.293 10.4173 141.374 10.4173ZM162.511 31.1584C162.511 32.2211 162.2 37.5232 156.042 37.5511H71.7186C73.5828 35.9078 75.0868 33.7791 76.1907 31.2207L85.3921 9.90396C85.8552 8.83468 88.4714 3.49812 94.6748 3.44728H156.042C157.112 3.44728 162.466 3.75396 162.511 9.84V31.1584ZM62.4127 37.5511H9.96C8.88764 37.5511 3.53248 37.2428 3.48932 31.1567V9.84C3.48932 8.7822 3.8014 3.49976 9.97162 3.44728H85.6693C83.9097 5.07908 82.4572 7.2078 81.35 9.7744L72.1453 31.0928C71.3734 32.8787 68.1198 37.5248 62.4127 37.5511ZM165.998 9.82688C165.972 6.17624 163.844 0 156.04 0H9.94838C6.25322 0.02952 0 2.13692 0 9.84V31.1698C0.02656 34.8205 2.15302 40.9984 9.96 40.9984H156.048C159.745 40.982 166 38.8893 166 31.1567L165.998 9.82688Z" fill="#0096D6"/>
</g>
</g>
<defs>
<clipPath id="clip0_22_2057">
<rect width="166" height="41" fill="white"/>
</clipPath>
</defs>
</svg>
