<svg width="180" height="117" viewBox="0 0 180 117" fill="none" xmlns="http://www.w3.org/2000/svg">
<g clip-path="url(#clip0_22_3220)">
<path fill-rule="evenodd" clip-rule="evenodd" d="M0 116.024H180V0H0V116.024Z" fill="#19A6EB"/>
<path fill-rule="evenodd" clip-rule="evenodd" d="M21.7644 83.5408H23.2764C24.69 83.5408 25.7484 83.2609 26.4504 82.7C27.1524 82.139 27.5028 81.322 27.5028 80.2503C27.5028 79.1678 27.2088 78.3688 26.6208 77.8533C26.0328 77.3353 25.1112 77.077 23.8548 77.077H21.7644V83.5408ZM32.1444 80.0864C32.1444 82.4308 31.4148 84.2214 29.9568 85.463C28.5 86.7034 26.4252 87.3242 23.7372 87.3242H21.7644V95.0679H17.1684V73.2948H24.0924C26.7228 73.2948 28.722 73.8642 30.09 75.0005C31.4592 76.1368 32.1444 77.8329 32.1444 80.0864ZM35.478 95.0679H40.074V73.2936H35.478V95.0679ZM53.9796 76.8246C52.2492 76.8246 50.9088 77.4777 49.9608 78.7826C49.0128 80.0888 48.5376 81.9081 48.5376 84.2406C48.5376 89.0968 50.352 91.5238 53.9796 91.5238C55.5024 91.5238 57.3444 91.141 59.5104 90.3755V94.2497C57.7308 94.9937 55.7436 95.3657 53.55 95.3657C50.3964 95.3657 47.9832 94.404 46.314 92.4831C44.6424 90.5633 43.806 87.8062 43.806 84.2119C43.806 81.9476 44.2176 79.9644 45.0396 78.2623C45.8592 76.5591 47.0364 75.2541 48.5748 74.345C50.112 73.436 51.9132 72.9814 53.9796 72.9814C56.0844 72.9814 58.2 73.4946 60.3252 74.5161L58.8432 78.2683C58.0462 77.8871 57.229 77.5493 56.3952 77.2564C55.6204 76.9771 54.8035 76.8303 53.9796 76.8246ZM80.7984 95.0679H75.5796L69.9012 85.8948L67.9572 87.2943V95.0679H63.3612V73.296H67.9572V83.2586L69.7668 80.6964L75.6396 73.296H80.7396L73.1784 82.9308L80.7984 95.0679Z" fill="white"/>
<path fill-rule="evenodd" clip-rule="evenodd" d="M103.883 95.0679H98.6484L95.712 83.6305C95.604 83.2238 95.418 82.3817 95.1564 81.1067C94.8936 79.8304 94.7436 78.974 94.704 78.5374C94.6452 79.0733 94.4964 79.9357 94.26 81.121C94.0224 82.3088 93.84 83.1544 93.7116 83.6604L90.7908 95.0679H85.5708L80.0388 73.296H84.5628L87.3348 85.1795C87.8196 87.3744 88.17 89.275 88.3884 90.8826C88.4472 90.318 88.5828 89.4413 88.7964 88.2547C89.0088 87.0682 89.208 86.1471 89.3964 85.4917L92.5536 73.296H96.8988L100.057 85.4929C100.195 86.0383 100.369 86.872 100.577 87.994C100.783 89.1159 100.942 90.0788 101.051 90.8826C101.181 89.9129 101.339 88.9472 101.526 87.9868C101.742 86.8301 101.94 85.8948 102.118 85.1795L104.876 73.296H109.399L103.883 95.0679ZM121.129 86.0132C120.303 83.3598 119.485 80.704 118.675 78.0458C118.528 77.564 118.397 77.0773 118.283 76.5865C117.956 77.8568 117.023 81.0002 115.48 86.0132H121.129ZM123.798 95.0679L122.226 89.885H114.324L112.752 95.0679H107.8L115.451 73.2051H121.07L128.75 95.0679H123.798ZM135.317 82.9607H136.8C138.252 82.9607 139.325 82.7167 140.016 82.231C140.708 81.7442 141.055 80.9787 141.055 79.9369C141.055 78.9058 140.701 78.1702 139.996 77.7324C139.288 77.2958 138.194 77.0781 136.711 77.0781H135.317V82.9607ZM135.317 86.7141V95.0679H130.721V73.2948H137.036C139.982 73.2948 142.162 73.8342 143.576 74.912C144.99 75.9885 145.696 77.6248 145.696 79.8185C145.696 81.0983 145.344 82.2382 144.643 83.2358C143.941 84.2333 142.948 85.0156 141.664 85.5814C144.925 90.4759 147.052 93.6385 148.038 95.0679H142.938L137.762 86.7141H135.317ZM162.492 95.0679H150.007V73.296H162.492V77.0781H154.604V81.8578H161.944V85.6412H154.604V91.2546H162.492V95.0679Z" fill="white"/>
</g>
<defs>
<clipPath id="clip0_22_3220">
<rect width="180" height="116.024" fill="white"/>
</clipPath>
</defs>
</svg>
