<svg width="340" height="272" viewBox="0 0 340 272" fill="none" xmlns="http://www.w3.org/2000/svg">
<g clip-path="url(#clip0_22_3212)">
<path opacity="0.81" d="M86.6379 83.4072V121.862C86.6379 124.343 84.6176 126.364 82.1139 126.364H4.63469C2.13097 126.364 0.110634 124.343 0.110634 121.862V83.4072C0.110634 80.9256 2.13097 78.9053 4.63469 78.9053H82.1139C84.6176 78.9053 86.6379 80.9256 86.6379 83.4072Z" fill="url(#paint0_linear_22_3212)" stroke="#1A58BF" stroke-width="1.29" stroke-miterlimit="10"/>
<path d="M86.6379 83.4072V88.6342H0.110634V83.4072C0.110634 80.9256 2.13097 78.9053 4.63469 78.9053H82.1139C84.6176 78.9053 86.6379 80.9256 86.6379 83.4072Z" fill="url(#paint1_linear_22_3212)"/>
<path d="M49.5349 92.5132H3.8177V119.831H49.5349V92.5132Z" stroke="#BBBDBF" stroke-width="1.29" stroke-miterlimit="10"/>
<path d="M7.08054 92.5132V119.829" stroke="#BBBDBF" stroke-width="1.27" stroke-miterlimit="10"/>
<path d="M10.3213 92.5132V119.829" stroke="#BBBDBF" stroke-width="1.27" stroke-miterlimit="10"/>
<path d="M13.562 92.5132V119.829" stroke="#BBBDBF" stroke-width="1.27" stroke-miterlimit="10"/>
<path d="M16.8027 92.5132V119.829" stroke="#BBBDBF" stroke-width="1.27" stroke-miterlimit="10"/>
<path d="M20.0434 92.5132V119.829" stroke="#BBBDBF" stroke-width="1.27" stroke-miterlimit="10"/>
<path d="M23.2841 92.5132V119.829" stroke="#BBBDBF" stroke-width="1.27" stroke-miterlimit="10"/>
<path d="M26.5248 92.5132V119.829" stroke="#BBBDBF" stroke-width="1.27" stroke-miterlimit="10"/>
<path d="M29.7655 92.5132V119.829" stroke="#BBBDBF" stroke-width="1.27" stroke-miterlimit="10"/>
<path d="M33.0062 92.5132V119.829" stroke="#BBBDBF" stroke-width="1.27" stroke-miterlimit="10"/>
<path d="M36.2486 92.5132V119.829" stroke="#BBBDBF" stroke-width="1.27" stroke-miterlimit="10"/>
<path d="M39.4893 92.5132V119.829" stroke="#BBBDBF" stroke-width="1.27" stroke-miterlimit="10"/>
<path d="M42.73 92.5132V119.829" stroke="#BBBDBF" stroke-width="1.27" stroke-miterlimit="10"/>
<path d="M45.9707 92.5132V119.829" stroke="#BBBDBF" stroke-width="1.27" stroke-miterlimit="10"/>
<path d="M3.8177 95.3555H49.5349" stroke="#BBBDBF" stroke-width="1.25" stroke-miterlimit="10"/>
<path d="M3.8177 98.4365H49.5349" stroke="#BBBDBF" stroke-width="1.25" stroke-miterlimit="10"/>
<path d="M3.8177 101.517H49.5349" stroke="#BBBDBF" stroke-width="1.25" stroke-miterlimit="10"/>
<path d="M3.8177 104.598H49.5349" stroke="#BBBDBF" stroke-width="1.25" stroke-miterlimit="10"/>
<path d="M3.8177 107.679H49.5349" stroke="#BBBDBF" stroke-width="1.25" stroke-miterlimit="10"/>
<path d="M3.8177 110.757H49.5349" stroke="#BBBDBF" stroke-width="1.25" stroke-miterlimit="10"/>
<path d="M3.8177 113.838H49.5349" stroke="#BBBDBF" stroke-width="1.25" stroke-miterlimit="10"/>
<path d="M3.8177 116.919H49.5349" stroke="#BBBDBF" stroke-width="1.25" stroke-miterlimit="10"/>
<path d="M3.8177 115.35L6.11377 112.752H7.80391L10.3212 110.757H13.562L16.2614 107.074L20.0434 107.316L22.3616 103.209L25.1393 99.8252L28.7647 100.612H32.4479L34.8036 102.242L38.7915 101.939L40.2399 103.752L44.9138 102.906L47.3681 103.631L49.5349 103.088V119.829H3.8177V115.35Z" fill="url(#paint2_linear_22_3212)"/>
<path d="M3.8177 115.35L6.11377 112.752H7.80391L10.3212 110.757H13.562L16.2614 107.074L20.0434 107.316L22.3616 103.209L25.1393 99.8252L28.7647 100.612H32.4479L34.8036 102.242L38.7915 101.939L40.2399 103.752L44.9138 102.906L47.3681 103.631L49.5349 103.088" stroke="#0CF417" stroke-width="3.87" stroke-miterlimit="10"/>
<path d="M82.0917 93.8306H57.6894C57.4309 93.8306 57.2213 94.0401 57.2213 94.2986V94.3105C57.2213 94.569 57.4309 94.7786 57.6894 94.7786H82.0917C82.3502 94.7786 82.5598 94.569 82.5598 94.3105V94.2986C82.5598 94.0401 82.3502 93.8306 82.0917 93.8306Z" fill="#D0D2D3"/>
<path d="M82.0866 97.2584H53.2913C53.0309 97.2584 52.8181 97.0456 52.8181 96.7852C52.8181 96.5248 53.0309 96.312 53.2913 96.312H82.0866C82.347 96.312 82.5598 96.5248 82.5598 96.7852C82.5598 97.0456 82.347 97.2584 82.0866 97.2584Z" fill="#D0D2D3"/>
<path d="M82.0866 99.7369H53.2913C53.0309 99.7369 52.8181 99.5241 52.8181 99.2637C52.8181 99.0033 53.0309 98.7905 53.2913 98.7905H82.0866C82.347 98.7905 82.5598 99.0033 82.5598 99.2637C82.5598 99.5241 82.347 99.7369 82.0866 99.7369Z" fill="#D0D2D3"/>
<path d="M77.6885 101.269H53.2862C53.0277 101.269 52.8181 101.478 52.8181 101.737V101.749C52.8181 102.007 53.0277 102.217 53.2862 102.217H77.6885C77.947 102.217 78.1566 102.007 78.1566 101.749V101.737C78.1566 101.478 77.947 101.269 77.6885 101.269Z" fill="#D0D2D3"/>
<path d="M82.0917 106.227H57.6894C57.4309 106.227 57.2213 106.436 57.2213 106.695V106.707C57.2213 106.965 57.4309 107.175 57.6894 107.175H82.0917C82.3502 107.175 82.5598 106.965 82.5598 106.707V106.695C82.5598 106.436 82.3502 106.227 82.0917 106.227Z" fill="#D0D2D3"/>
<path d="M82.0866 109.653H53.2913C53.0309 109.653 52.8181 109.44 52.8181 109.18C52.8181 108.919 53.0309 108.707 53.2913 108.707H82.0866C82.347 108.707 82.5598 108.919 82.5598 109.18C82.5598 109.44 82.347 109.653 82.0866 109.653Z" fill="#D0D2D3"/>
<path d="M82.0866 112.133H53.2913C53.0309 112.133 52.8181 111.92 52.8181 111.66C52.8181 111.399 53.0309 111.187 53.2913 111.187H82.0866C82.347 111.187 82.5598 111.399 82.5598 111.66C82.5598 111.92 82.347 112.133 82.0866 112.133Z" fill="#D0D2D3"/>
<path d="M77.6885 113.665H53.2862C53.0277 113.665 52.8181 113.874 52.8181 114.133V114.145C52.8181 114.403 53.0277 114.613 53.2862 114.613H77.6885C77.947 114.613 78.1566 114.403 78.1566 114.145V114.133C78.1566 113.874 77.947 113.665 77.6885 113.665Z" fill="#D0D2D3"/>
<path d="M79.6561 81.0601H75.0537C74.3299 81.0601 73.7432 81.6468 73.7432 82.3706V86.0522C73.7432 86.776 74.3299 87.3628 75.0537 87.3628H79.6561C80.3799 87.3628 80.9667 86.776 80.9667 86.0522V82.3706C80.9667 81.6468 80.3799 81.0601 79.6561 81.0601Z" fill="url(#paint3_linear_22_3212)"/>
<path d="M75.5592 82.3418L79.1506 86.0795" stroke="#1A58BF" stroke-width="3.89" stroke-miterlimit="10"/>
<path d="M79.1506 82.3418L75.5592 86.0795" stroke="#1A58BF" stroke-width="3.89" stroke-miterlimit="10"/>
<path opacity="0.81" d="M85.9758 150.033V209.781C85.9758 213.637 82.8372 216.777 78.9463 216.777H10.0098C6.12058 216.777 2.98029 213.638 2.98029 209.781V150.033C2.98029 146.177 6.11888 143.037 10.0098 143.037H78.948C82.8372 143.037 85.9775 146.176 85.9775 150.033H85.9758Z" fill="url(#paint4_linear_22_3212)" stroke="#1A58BF" stroke-width="2" stroke-miterlimit="10"/>
<path d="M85.9758 150.033V158.153H2.98029V150.033C2.98029 146.177 6.11888 143.037 10.0098 143.037H78.948C82.8372 143.037 85.9775 146.176 85.9775 150.033H85.9758Z" fill="url(#paint5_linear_22_3212)"/>
<path d="M79.7735 164.18H8.74174V206.624H79.7735V164.18Z" stroke="#BBBDBF" stroke-width="2" stroke-miterlimit="10"/>
<path d="M13.8088 164.18V206.624" stroke="#BBBDBF" stroke-width="1.98" stroke-miterlimit="10"/>
<path d="M18.8451 164.18V206.624" stroke="#BBBDBF" stroke-width="1.98" stroke-miterlimit="10"/>
<path d="M23.8798 164.18V206.624" stroke="#BBBDBF" stroke-width="1.98" stroke-miterlimit="10"/>
<path d="M28.9162 164.18V206.624" stroke="#BBBDBF" stroke-width="1.98" stroke-miterlimit="10"/>
<path d="M33.9509 164.18V206.624" stroke="#BBBDBF" stroke-width="1.98" stroke-miterlimit="10"/>
<path d="M38.9872 164.18V206.624" stroke="#BBBDBF" stroke-width="1.98" stroke-miterlimit="10"/>
<path d="M44.0219 164.18V206.624" stroke="#BBBDBF" stroke-width="1.98" stroke-miterlimit="10"/>
<path d="M49.0583 164.18V206.624" stroke="#BBBDBF" stroke-width="1.98" stroke-miterlimit="10"/>
<path d="M54.093 164.18V206.624" stroke="#BBBDBF" stroke-width="1.98" stroke-miterlimit="10"/>
<path d="M59.1293 164.18V206.624" stroke="#BBBDBF" stroke-width="1.98" stroke-miterlimit="10"/>
<path d="M64.164 164.18V206.624" stroke="#BBBDBF" stroke-width="1.98" stroke-miterlimit="10"/>
<path d="M69.2004 164.18V206.624" stroke="#BBBDBF" stroke-width="1.98" stroke-miterlimit="10"/>
<path d="M74.235 164.18V206.624" stroke="#BBBDBF" stroke-width="1.98" stroke-miterlimit="10"/>
<path d="M8.74174 168.599H79.7735" stroke="#BBBDBF" stroke-width="1.94" stroke-miterlimit="10"/>
<path d="M8.74174 173.385H79.7735" stroke="#BBBDBF" stroke-width="1.94" stroke-miterlimit="10"/>
<path d="M8.74174 178.171H79.7735" stroke="#BBBDBF" stroke-width="1.94" stroke-miterlimit="10"/>
<path d="M8.74174 182.957H79.7735" stroke="#BBBDBF" stroke-width="1.94" stroke-miterlimit="10"/>
<path d="M8.74174 187.744H79.7735" stroke="#BBBDBF" stroke-width="1.94" stroke-miterlimit="10"/>
<path d="M8.74174 192.53H79.7735" stroke="#BBBDBF" stroke-width="1.94" stroke-miterlimit="10"/>
<path d="M8.74174 197.316H79.7735" stroke="#BBBDBF" stroke-width="1.94" stroke-miterlimit="10"/>
<path d="M8.74174 202.102H79.7735" stroke="#BBBDBF" stroke-width="1.94" stroke-miterlimit="10"/>
<path d="M75.1269 146.385H67.9766C66.8523 146.385 65.9409 147.297 65.9409 148.421V154.142C65.9409 155.266 66.8523 156.177 67.9766 156.177H75.1269C76.2512 156.177 77.1626 155.266 77.1626 154.142V148.421C77.1626 147.297 76.2512 146.385 75.1269 146.385Z" fill="url(#paint6_linear_22_3212)"/>
<path d="M68.763 148.378L74.3423 154.184" stroke="#1A58BF" stroke-width="6.04" stroke-miterlimit="10"/>
<path d="M74.3423 148.378L68.763 154.184" stroke="#1A58BF" stroke-width="6.04" stroke-miterlimit="10"/>
<path d="M13.8088 197.315H11.0344V206.624H13.8088V197.315Z" fill="url(#paint7_linear_22_3212)"/>
<path d="M18.8434 194.71H16.0691V206.626H18.8434V194.71Z" fill="url(#paint8_linear_22_3212)"/>
<path d="M23.8798 192.529H21.1055V206.624H23.8798V192.529Z" fill="url(#paint9_linear_22_3212)"/>
<path d="M28.9162 189.319H26.1418V206.624H28.9162V189.319Z" fill="url(#paint10_linear_22_3212)"/>
<path d="M33.9509 193.035H31.1765V206.624H33.9509V193.035Z" fill="url(#paint11_linear_22_3212)"/>
<path d="M38.9872 191.205H36.2129V206.624H38.9872V191.205Z" fill="url(#paint12_linear_22_3212)"/>
<path d="M44.0219 189.319H41.2476V206.624H44.0219V189.319Z" fill="url(#paint13_linear_22_3212)"/>
<path d="M49.0583 186.463H46.2839V206.626H49.0583V186.463Z" fill="url(#paint14_linear_22_3212)"/>
<path d="M54.0929 178.171H51.3186V206.626H54.0929V178.171Z" fill="url(#paint15_linear_22_3212)"/>
<path d="M59.1293 182.793H56.355V206.624H59.1293V182.793Z" fill="url(#paint16_linear_22_3212)"/>
<path d="M64.164 178.171H61.3896V206.626H64.164V178.171Z" fill="url(#paint17_linear_22_3212)"/>
<path d="M69.2004 175.786H66.426V206.624H69.2004V175.786Z" fill="url(#paint18_linear_22_3212)"/>
<path d="M74.235 166.301H71.4607V206.626H74.235V166.301Z" fill="url(#paint19_linear_22_3212)"/>
<path d="M79.2714 172.015H76.4971V206.626H79.2714V172.015Z" fill="url(#paint20_linear_22_3212)"/>
<path opacity="0.81" d="M230.409 222.843V266.736C230.409 269.568 228.102 271.874 225.245 271.874H136.809C133.952 271.874 131.645 269.568 131.645 266.736V222.843C131.645 220.011 133.952 217.705 136.809 217.705H225.246C228.104 217.705 230.41 220.011 230.41 222.843H230.409Z" fill="url(#paint21_linear_22_3212)" stroke="#1A58BF" stroke-width="1.47" stroke-miterlimit="10"/>
<path d="M230.409 222.843V228.809H131.645V222.843C131.645 220.011 133.952 217.705 136.809 217.705H225.246C228.104 217.705 230.41 220.011 230.41 222.843H230.409Z" fill="url(#paint22_linear_22_3212)"/>
<path d="M178.532 235.098H138.676C138.372 235.098 138.123 234.85 138.123 234.545C138.123 234.24 138.372 233.992 138.676 233.992H178.532C178.836 233.992 179.085 234.24 179.085 234.545C179.085 234.85 178.836 235.098 178.532 235.098Z" fill="#D0D2D3"/>
<path d="M192.3 238.158H138.644C138.357 238.158 138.123 238.391 138.123 238.679V238.745C138.123 239.033 138.357 239.266 138.644 239.266H192.3C192.587 239.266 192.82 239.033 192.82 238.745V238.679C192.82 238.391 192.587 238.158 192.3 238.158Z" fill="#D0D2D3"/>
<path d="M192.3 242.327H138.644C138.357 242.327 138.123 242.56 138.123 242.847V242.914C138.123 243.202 138.357 243.435 138.644 243.435H192.3C192.587 243.435 192.82 243.202 192.82 242.914V242.847C192.82 242.56 192.587 242.327 192.3 242.327Z" fill="#D0D2D3"/>
<path d="M192.3 246.495H138.644C138.357 246.495 138.123 246.728 138.123 247.015V247.082C138.123 247.369 138.357 247.603 138.644 247.603H192.3C192.587 247.603 192.82 247.369 192.82 247.082V247.015C192.82 246.728 192.587 246.495 192.3 246.495Z" fill="#D0D2D3"/>
<path d="M192.3 250.663H138.644C138.357 250.663 138.123 250.896 138.123 251.184V251.25C138.123 251.538 138.357 251.771 138.644 251.771H192.3C192.587 251.771 192.82 251.538 192.82 251.25V251.184C192.82 250.896 192.587 250.663 192.3 250.663Z" fill="#D0D2D3"/>
<path d="M221.4 257.557H193.261C190.883 257.557 188.955 259.485 188.955 261.863C188.955 264.241 190.883 266.169 193.261 266.169H221.4C223.778 266.169 225.706 264.241 225.706 261.863C225.706 259.485 223.778 257.557 221.4 257.557Z" fill="url(#paint23_linear_22_3212)"/>
<path d="M224.131 231.586H201.598C200.306 231.586 199.259 232.633 199.259 233.925V249.432C199.259 250.724 200.306 251.771 201.598 251.771H224.131C225.423 251.771 226.47 250.724 226.47 249.432V233.925C226.47 232.633 225.423 231.586 224.131 231.586Z" fill="url(#paint24_linear_22_3212)" stroke="#1A58BF" stroke-width="1.47" stroke-miterlimit="10"/>
<path d="M201.598 250.348C201.094 250.348 200.682 249.936 200.682 249.431V233.925C200.682 233.421 201.094 233.009 201.598 233.009H224.131C224.635 233.009 225.047 233.421 225.047 233.925V249.431C225.047 249.938 224.635 250.348 224.131 250.348H201.598Z" fill="#D0D2D3"/>
<path d="M204 247.987H210.861C211.657 247.987 212.091 247.06 211.582 246.447L208.071 242.233C207.69 241.775 206.985 241.783 206.614 242.25L203.266 246.464C202.778 247.078 203.215 247.987 204.001 247.987H204Z" fill="white"/>
<path d="M210.268 247.988H222.389C223.185 247.988 223.619 247.06 223.11 246.447L216.906 239.001C216.525 238.543 215.82 238.551 215.449 239.018L209.533 246.464C209.044 247.079 209.482 247.988 210.268 247.988Z" fill="#E3E7E8"/>
<path d="M207.131 239.241C208.188 239.241 209.044 238.384 209.044 237.328C209.044 236.271 208.188 235.415 207.131 235.415C206.075 235.415 205.218 236.271 205.218 237.328C205.218 238.384 206.075 239.241 207.131 239.241Z" fill="white"/>
<path d="M222.484 220.394H217.231C216.405 220.394 215.735 221.064 215.735 221.89V226.091C215.735 226.917 216.405 227.587 217.231 227.587H222.484C223.31 227.587 223.98 226.917 223.98 226.091V221.89C223.98 221.064 223.31 220.394 222.484 220.394Z" fill="url(#paint25_linear_22_3212)"/>
<path d="M217.808 221.858L221.907 226.123" stroke="#1A58BF" stroke-width="4.44" stroke-miterlimit="10"/>
<path d="M221.907 221.858L217.808 226.123" stroke="#1A58BF" stroke-width="4.44" stroke-miterlimit="10"/>
<path d="M158.606 117.176L137.948 92.0996H86.6379" stroke="#F6921E" stroke-width="2" stroke-miterlimit="10"/>
<path d="M86.6379 183.689H137.948L163.72 151.282" stroke="#F6921E" stroke-width="2" stroke-miterlimit="10"/>
<path d="M196.984 117.176L217.642 92.0996H268.95" stroke="#F6921E" stroke-width="2" stroke-miterlimit="10"/>
<path d="M268.95 183.689H217.642L191.867 151.282" stroke="#F6921E" stroke-width="2" stroke-miterlimit="10"/>
<path opacity="0.81" d="M339.022 83.4072V121.862C339.022 124.343 337.001 126.364 334.498 126.364H257.017C254.513 126.364 252.493 124.343 252.493 121.862V83.4072C252.493 80.9256 254.513 78.9053 257.017 78.9053H334.498C337.001 78.9053 339.022 80.9256 339.022 83.4072Z" fill="url(#paint26_linear_22_3212)" stroke="#1A58BF" stroke-width="1.29" stroke-miterlimit="10"/>
<path d="M339.022 83.4072V88.6342H252.493V83.4072C252.493 80.9256 254.513 78.9053 257.017 78.9053H334.498C337.001 78.9053 339.022 80.9256 339.022 83.4072Z" fill="url(#paint27_linear_22_3212)"/>
<path d="M301.919 92.5132H256.202V119.831H301.919V92.5132Z" stroke="#BBBDBF" stroke-width="1.29" stroke-miterlimit="10"/>
<path d="M259.463 92.5132V119.829" stroke="#BBBDBF" stroke-width="1.27" stroke-miterlimit="10"/>
<path d="M262.703 92.5132V119.829" stroke="#BBBDBF" stroke-width="1.27" stroke-miterlimit="10"/>
<path d="M265.946 92.5132V119.829" stroke="#BBBDBF" stroke-width="1.27" stroke-miterlimit="10"/>
<path d="M269.187 92.5132V119.829" stroke="#BBBDBF" stroke-width="1.27" stroke-miterlimit="10"/>
<path d="M272.427 92.5132V119.829" stroke="#BBBDBF" stroke-width="1.27" stroke-miterlimit="10"/>
<path d="M275.668 92.5132V119.829" stroke="#BBBDBF" stroke-width="1.27" stroke-miterlimit="10"/>
<path d="M278.909 92.5132V119.829" stroke="#BBBDBF" stroke-width="1.27" stroke-miterlimit="10"/>
<path d="M282.149 92.5132V119.829" stroke="#BBBDBF" stroke-width="1.27" stroke-miterlimit="10"/>
<path d="M285.39 92.5132V119.829" stroke="#BBBDBF" stroke-width="1.27" stroke-miterlimit="10"/>
<path d="M288.631 92.5132V119.829" stroke="#BBBDBF" stroke-width="1.27" stroke-miterlimit="10"/>
<path d="M291.871 92.5132V119.829" stroke="#BBBDBF" stroke-width="1.27" stroke-miterlimit="10"/>
<path d="M295.114 92.5132V119.829" stroke="#BBBDBF" stroke-width="1.27" stroke-miterlimit="10"/>
<path d="M298.355 92.5132V119.829" stroke="#BBBDBF" stroke-width="1.27" stroke-miterlimit="10"/>
<path d="M256.202 95.3555H301.919" stroke="#BBBDBF" stroke-width="1.25" stroke-miterlimit="10"/>
<path d="M256.202 98.4365H301.919" stroke="#BBBDBF" stroke-width="1.25" stroke-miterlimit="10"/>
<path d="M256.202 101.517H301.919" stroke="#BBBDBF" stroke-width="1.25" stroke-miterlimit="10"/>
<path d="M256.202 104.598H301.919" stroke="#BBBDBF" stroke-width="1.25" stroke-miterlimit="10"/>
<path d="M256.202 107.679H301.919" stroke="#BBBDBF" stroke-width="1.25" stroke-miterlimit="10"/>
<path d="M256.202 110.757H301.919" stroke="#BBBDBF" stroke-width="1.25" stroke-miterlimit="10"/>
<path d="M256.202 113.838H301.919" stroke="#BBBDBF" stroke-width="1.25" stroke-miterlimit="10"/>
<path d="M256.202 116.919H301.919" stroke="#BBBDBF" stroke-width="1.25" stroke-miterlimit="10"/>
<path d="M334.476 93.8306H310.073C309.815 93.8306 309.605 94.0401 309.605 94.2986V94.3105C309.605 94.569 309.815 94.7786 310.073 94.7786H334.476C334.734 94.7786 334.944 94.569 334.944 94.3105V94.2986C334.944 94.0401 334.734 93.8306 334.476 93.8306Z" fill="#D0D2D3"/>
<path d="M334.47 97.2584H305.675C305.415 97.2584 305.202 97.0456 305.202 96.7852C305.202 96.5248 305.415 96.312 305.675 96.312H334.47C334.731 96.312 334.944 96.5248 334.944 96.7852C334.944 97.0456 334.731 97.2584 334.47 97.2584Z" fill="#D0D2D3"/>
<path d="M334.47 99.7369H305.675C305.415 99.7369 305.202 99.5241 305.202 99.2637C305.202 99.0033 305.415 98.7905 305.675 98.7905H334.47C334.731 98.7905 334.944 99.0033 334.944 99.2637C334.944 99.5241 334.731 99.7369 334.47 99.7369Z" fill="#D0D2D3"/>
<path d="M330.072 101.269H305.67C305.412 101.269 305.202 101.478 305.202 101.737V101.749C305.202 102.007 305.412 102.217 305.67 102.217H330.072C330.331 102.217 330.54 102.007 330.54 101.749V101.737C330.54 101.478 330.331 101.269 330.072 101.269Z" fill="#D0D2D3"/>
<path d="M334.476 106.227H310.073C309.815 106.227 309.605 106.436 309.605 106.695V106.707C309.605 106.965 309.815 107.175 310.073 107.175H334.476C334.734 107.175 334.944 106.965 334.944 106.707V106.695C334.944 106.436 334.734 106.227 334.476 106.227Z" fill="#D0D2D3"/>
<path d="M334.47 109.653H305.675C305.415 109.653 305.202 109.44 305.202 109.18C305.202 108.919 305.415 108.707 305.675 108.707H334.47C334.731 108.707 334.944 108.919 334.944 109.18C334.944 109.44 334.731 109.653 334.47 109.653Z" fill="#D0D2D3"/>
<path d="M334.47 112.133H305.675C305.415 112.133 305.202 111.92 305.202 111.66C305.202 111.399 305.415 111.187 305.675 111.187H334.47C334.731 111.187 334.944 111.399 334.944 111.66C334.944 111.92 334.731 112.133 334.47 112.133Z" fill="#D0D2D3"/>
<path d="M330.072 113.665H305.67C305.412 113.665 305.202 113.874 305.202 114.133V114.145C305.202 114.403 305.412 114.613 305.67 114.613H330.072C330.331 114.613 330.54 114.403 330.54 114.145V114.133C330.54 113.874 330.331 113.665 330.072 113.665Z" fill="#D0D2D3"/>
<path d="M332.04 81.0601H327.438C326.714 81.0601 326.127 81.6468 326.127 82.3706V86.0522C326.127 86.776 326.714 87.3628 327.438 87.3628H332.04C332.764 87.3628 333.351 86.776 333.351 86.0522V82.3706C333.351 81.6468 332.764 81.0601 332.04 81.0601Z" fill="url(#paint28_linear_22_3212)"/>
<path d="M327.943 82.3418L331.534 86.0795" stroke="#1A58BF" stroke-width="3.89" stroke-miterlimit="10"/>
<path d="M331.534 82.3418L327.943 86.0795" stroke="#1A58BF" stroke-width="3.89" stroke-miterlimit="10"/>
<path d="M256.202 115.067H259.463L262.703 112.133L265.944 112.693L267.369 109.653L270.306 109.179C270.306 109.179 271.719 107.678 272.425 107.678C273.132 107.678 275.099 104.598 275.099 104.598L279.058 103.765L282.852 101.268L285.39 97.2566L287.599 97.8864L290.651 99.2616L294.719 97.2566L296.641 99.2616L299.692 101.267L301.917 96.7817" stroke="#F16522" stroke-width="2" stroke-miterlimit="10"/>
<path opacity="0.81" d="M339.022 159.772V198.226C339.022 200.708 337.001 202.728 334.498 202.728H257.017C254.513 202.728 252.493 200.708 252.493 198.226V159.772C252.493 157.29 254.513 155.27 257.017 155.27H334.498C337.001 155.27 339.022 157.29 339.022 159.772Z" fill="url(#paint29_linear_22_3212)" stroke="#1A58BF" stroke-width="1.29" stroke-miterlimit="10"/>
<path d="M339.022 159.772V164.999H252.493V159.772C252.493 157.29 254.513 155.27 257.017 155.27H334.498C337.001 155.27 339.022 157.29 339.022 159.772Z" fill="url(#paint30_linear_22_3212)"/>
<path d="M334.476 170.197H310.073C309.815 170.197 309.605 170.407 309.605 170.665V170.677C309.605 170.936 309.815 171.145 310.073 171.145H334.476C334.734 171.145 334.944 170.936 334.944 170.677V170.665C334.944 170.407 334.734 170.197 334.476 170.197Z" fill="#D0D2D3"/>
<path d="M334.47 173.624H305.675C305.415 173.624 305.202 173.411 305.202 173.15C305.202 172.89 305.415 172.677 305.675 172.677H334.47C334.731 172.677 334.944 172.89 334.944 173.15C334.944 173.411 334.731 173.624 334.47 173.624Z" fill="#D0D2D3"/>
<path d="M334.47 176.104H305.675C305.415 176.104 305.202 175.891 305.202 175.63C305.202 175.37 305.415 175.157 305.675 175.157H334.47C334.731 175.157 334.944 175.37 334.944 175.63C334.944 175.891 334.731 176.104 334.47 176.104Z" fill="#D0D2D3"/>
<path d="M330.072 177.635H305.67C305.412 177.635 305.202 177.845 305.202 178.103V178.115C305.202 178.374 305.412 178.583 305.67 178.583H330.072C330.331 178.583 330.54 178.374 330.54 178.115V178.103C330.54 177.845 330.331 177.635 330.072 177.635Z" fill="#D0D2D3"/>
<path d="M334.476 182.591H310.073C309.815 182.591 309.605 182.801 309.605 183.059V183.071C309.605 183.33 309.815 183.539 310.073 183.539H334.476C334.734 183.539 334.944 183.33 334.944 183.071V183.059C334.944 182.801 334.734 182.591 334.476 182.591Z" fill="#D0D2D3"/>
<path d="M334.47 186.019H305.675C305.415 186.019 305.202 185.806 305.202 185.546C305.202 185.286 305.415 185.073 305.675 185.073H334.47C334.731 185.073 334.944 185.286 334.944 185.546C334.944 185.806 334.731 186.019 334.47 186.019Z" fill="#D0D2D3"/>
<path d="M334.47 188.498H305.675C305.415 188.498 305.202 188.285 305.202 188.024C305.202 187.764 305.415 187.551 305.675 187.551H334.47C334.731 187.551 334.944 187.764 334.944 188.024C334.944 188.285 334.731 188.498 334.47 188.498Z" fill="#D0D2D3"/>
<path d="M330.072 190.029H305.67C305.412 190.029 305.202 190.239 305.202 190.497V190.509C305.202 190.768 305.412 190.977 305.67 190.977H330.072C330.331 190.977 330.54 190.768 330.54 190.509V190.497C330.54 190.239 330.331 190.029 330.072 190.029Z" fill="#D0D2D3"/>
<path d="M332.04 157.425H327.438C326.714 157.425 326.127 158.012 326.127 158.735V162.417C326.127 163.141 326.714 163.728 327.438 163.728H332.04C332.764 163.728 333.351 163.141 333.351 162.417V158.735C333.351 158.012 332.764 157.425 332.04 157.425Z" fill="url(#paint31_linear_22_3212)"/>
<path d="M327.943 158.708L331.534 162.444" stroke="#1A58BF" stroke-width="3.89" stroke-miterlimit="10"/>
<path d="M331.534 158.708L327.943 162.444" stroke="#1A58BF" stroke-width="3.89" stroke-miterlimit="10"/>
<path d="M288.969 193.239C286.188 197.089 281.661 199.585 276.563 199.585C268.114 199.585 261.234 192.741 261.234 184.292C261.234 175.843 268.114 168.963 276.563 168.963C279.557 168.963 282.338 169.819 284.691 171.315L276.563 184.292L288.969 193.239Z" fill="url(#paint32_linear_22_3212)"/>
<path d="M291.856 184.292C291.856 187.607 290.787 190.744 288.969 193.239L276.563 184.292H291.856Z" fill="url(#paint33_linear_22_3212)"/>
<path d="M291.856 184.292H276.563L284.691 171.315C289.004 174.025 291.856 178.803 291.856 184.292Z" fill="url(#paint34_linear_22_3212)"/>
<path d="M175.163 161.477V198.646C175.163 201.179 173.111 203.232 170.578 203.232H161.499C159.14 203.232 157.227 205.145 157.227 207.504V217.704" stroke="#F6921E" stroke-width="2" stroke-miterlimit="10"/>
<path d="M176.799 95.0019V60.0349C176.799 57.7627 174.957 55.9211 172.685 55.9211H159.767C157.236 55.9211 155.183 53.8684 155.183 51.3374V43.1353" stroke="#F6921E" stroke-width="2" stroke-miterlimit="10"/>
<path d="M206.444 133.947H182.611V155.017H206.444V133.947Z" fill="#383B5B"/>
<path d="M126.34 96.7319H120.936V155.019H126.34V96.7319Z" fill="#383B5B"/>
<path d="M176.641 149.909H212.412C216.588 149.909 219.979 153.302 219.979 157.481V162.732H169.074V157.481C169.074 153.302 172.465 149.909 176.641 149.909Z" fill="#1A1E35"/>
<path d="M114.677 149.909H132.599C136.775 149.909 140.165 153.302 140.165 157.481V162.732H107.109V157.481C107.109 153.302 110.5 149.909 114.676 149.909H114.677Z" fill="#1A1E35"/>
<path d="M235.166 157.541H103.834C101.717 157.541 100 159.258 100 161.378V187.163C100 189.282 101.717 191 103.834 191H235.166C237.284 191 239 189.282 239 187.163V161.378C239 159.258 237.284 157.541 235.166 157.541Z" fill="#383B5B"/>
<path d="M231.889 167.605H107.109V186.294H231.889V167.605Z" fill="#1A1E35"/>
<path d="M239 163.409H100V164.685H239V163.409Z" fill="#1A1E35"/>
<path d="M169.499 180.639C171.536 180.639 173.187 178.987 173.187 176.948C173.187 174.91 171.536 173.258 169.499 173.258C167.462 173.258 165.811 174.91 165.811 176.948C165.811 178.987 167.462 180.639 169.499 180.639Z" fill="#282C49"/>
<path d="M233.239 82H155.815C153.322 82 151.301 84.0226 151.301 86.5176V139.965C151.301 142.46 153.322 144.483 155.815 144.483H233.239C235.733 144.483 237.754 142.46 237.754 139.965V86.5176C237.754 84.0226 235.733 82 233.239 82Z" fill="#1A1E35"/>
<path d="M231.891 87.1523H157.165V139.329H231.891V87.1523Z" fill="#383B5B"/>
<path d="M146.385 111.241V95.8642C146.385 94.3409 145.151 93.106 143.629 93.106H103.646C102.123 93.106 100.889 94.3409 100.889 95.8642V111.241C100.889 112.764 102.123 113.999 103.646 113.999H143.629C145.151 113.999 146.385 112.764 146.385 111.241Z" fill="#1A1E35"/>
<path d="M142.814 98.3674V108.737C142.814 109.671 142.059 110.426 141.126 110.426H106.149C105.215 110.426 104.46 109.671 104.46 108.737V98.3674C104.46 97.4349 105.215 96.6777 106.149 96.6777H141.126C141.536 96.6777 141.91 96.8241 142.202 97.0657C142.576 97.3754 142.814 97.845 142.814 98.3674Z" fill="#383B5B"/>
<path opacity="0.08" d="M121.596 96.6777L115.454 110.426H106.149C105.215 110.426 104.46 109.671 104.46 108.737V108.184L109.6 96.6777H121.596Z" fill="white"/>
<path opacity="0.08" d="M132.48 96.6777L126.338 110.426H120.339L126.481 96.6777H132.48Z" fill="white"/>
<path opacity="0.08" d="M142.202 97.0657L136.234 110.426H128.052L134.194 96.6777H141.128C141.537 96.6777 141.912 96.8241 142.204 97.0657H142.202Z" fill="white"/>
<path opacity="0.08" d="M198.271 87.1523L174.962 139.329H157.165V129.683L176.161 87.1523H198.271Z" fill="white"/>
<path opacity="0.08" d="M218.328 87.1523L195.021 139.329H183.966L207.272 87.1523H218.328Z" fill="white"/>
<path opacity="0.08" d="M231.891 87.1523V97.6152L213.259 139.329H198.18L221.485 87.1523H231.891Z" fill="white"/>
<path d="M120.596 100.234L119.683 101.148L120.52 101.986V103.465L120.809 103.753L120.52 104.04V106.409L121.434 107.323L122.348 106.409V104.04L122.06 103.753L122.348 103.465V101.097L121.484 100.234H120.596Z" fill="#00B24C"/>
<path d="M124.93 105.444V104.666H127.12L127.979 103.804V101.097L127.12 100.234H123.966L123.053 101.148L123.966 102.061H126.151V102.839H123.966L123.104 103.702V106.409L123.966 107.273H127.12L128.033 106.359L127.12 105.444H124.93Z" fill="#00B24C"/>
<path d="M128.736 106.187V106.409L129.649 107.322L130.562 106.409V106.187L129.649 105.272L128.736 106.187Z" fill="#00B24C"/>
<path d="M132.182 100.234L131.32 101.097V103.804L132.182 104.668H134.367V105.446H132.182L131.269 106.359L132.182 107.273H135.336L136.195 106.409V104.238L135.71 103.753L136.195 103.268V101.097L135.336 100.234H132.182ZM134.367 102.839H133.146V102.061H134.367V102.839Z" fill="#00B24C"/>
<path d="M137.814 100.234L136.952 101.097V103.804L137.814 104.668H139.999V105.446H137.814L136.901 106.359L137.814 107.273H140.968L141.827 106.409V104.238L141.342 103.753L141.827 103.268V101.097L140.968 100.234H137.814ZM139.999 102.839H138.778V102.061H139.999V102.839Z" fill="#00B24C"/>
<path opacity="0.81" d="M221.907 9.70021V46.0356C221.907 48.3811 219.997 50.2891 217.633 50.2891H144.424C142.059 50.2891 140.149 48.3794 140.149 46.0356V9.70021C140.149 7.35478 142.059 5.44678 144.424 5.44678H217.633C219.999 5.44678 221.907 7.35648 221.907 9.70021Z" fill="url(#paint35_linear_22_3212)" stroke="#1A58BF" stroke-width="1.22" stroke-miterlimit="10"/>
<path d="M221.907 9.70021V14.6396H140.149V9.70021C140.149 7.35478 142.059 5.44678 144.424 5.44678H217.633C219.999 5.44678 221.907 7.35648 221.907 9.70021Z" fill="url(#paint36_linear_22_3212)"/>
<path d="M210.997 7.67285H215.345C216.028 7.67285 216.583 8.22772 216.583 8.91024V12.3892C216.583 13.0718 216.028 13.6266 215.345 13.6266H210.997C210.314 13.6266 209.759 13.0718 209.759 12.3892V8.91024C209.759 8.22772 210.314 7.67285 210.997 7.67285Z" fill="url(#paint37_linear_22_3212)"/>
<path d="M211.475 8.88477L214.869 12.4148" stroke="#1A58BF" stroke-width="3.67" stroke-miterlimit="10"/>
<path d="M214.869 8.88477L211.475 12.4148" stroke="#1A58BF" stroke-width="3.67" stroke-miterlimit="10"/>
<path d="M198.037 19.574H154.308C154.131 19.574 153.986 19.4294 153.986 19.2524C153.986 19.0753 154.131 18.9307 154.308 18.9307H198.037C198.214 18.9307 198.359 19.0753 198.359 19.2524C198.359 19.4294 198.214 19.574 198.037 19.574Z" fill="#D0D2D3"/>
<path d="M212.917 21.9993H154.308C154.131 21.9993 153.986 21.8547 153.986 21.6776C153.986 21.5006 154.131 21.356 154.308 21.356H212.917C213.094 21.356 213.238 21.5006 213.238 21.6776C213.238 21.8547 213.094 21.9993 212.917 21.9993Z" fill="#D0D2D3"/>
<path d="M212.917 24.4266H154.308C154.131 24.4266 153.986 24.2819 153.986 24.1049C153.986 23.9279 154.131 23.7832 154.308 23.7832H212.917C213.094 23.7832 213.238 23.9279 213.238 24.1049C213.238 24.2819 213.094 24.4266 212.917 24.4266Z" fill="#D0D2D3"/>
<path d="M151.343 18.4473H145.364V24.4266H151.343V18.4473Z" fill="#D0D2D3"/>
<path d="M198.037 29.4881H154.308C154.131 29.4881 153.986 29.3434 153.986 29.1664C153.986 28.9894 154.131 28.8447 154.308 28.8447H198.037C198.214 28.8447 198.359 28.9894 198.359 29.1664C198.359 29.3434 198.214 29.4881 198.037 29.4881Z" fill="#D0D2D3"/>
<path d="M212.917 31.9153H154.308C154.131 31.9153 153.986 31.7707 153.986 31.5937C153.986 31.4166 154.131 31.272 154.308 31.272H212.917C213.094 31.272 213.238 31.4166 213.238 31.5937C213.238 31.7707 213.094 31.9153 212.917 31.9153Z" fill="#D0D2D3"/>
<path d="M212.917 34.3426H154.308C154.131 34.3426 153.986 34.1979 153.986 34.0209C153.986 33.8439 154.131 33.6992 154.308 33.6992H212.917C213.094 33.6992 213.238 33.8439 213.238 34.0209C213.238 34.1979 213.094 34.3426 212.917 34.3426Z" fill="#D0D2D3"/>
<path d="M151.343 28.3633H145.364V34.3426H151.343V28.3633Z" fill="#D0D2D3"/>
<path d="M198.037 39.4041H154.308C154.131 39.4041 153.986 39.2594 153.986 39.0824C153.986 38.9054 154.131 38.7607 154.308 38.7607H198.037C198.214 38.7607 198.359 38.9054 198.359 39.0824C198.359 39.2594 198.214 39.4041 198.037 39.4041Z" fill="#D0D2D3"/>
<path d="M212.917 41.8314H154.308C154.131 41.8314 153.986 41.6867 153.986 41.5097C153.986 41.3327 154.131 41.188 154.308 41.188H212.917C213.094 41.188 213.238 41.3327 213.238 41.5097C213.238 41.6867 213.094 41.8314 212.917 41.8314Z" fill="#D0D2D3"/>
<path d="M212.917 44.2586H154.308C154.131 44.2586 153.986 44.1139 153.986 43.9369C153.986 43.7599 154.131 43.6152 154.308 43.6152H212.917C213.094 43.6152 213.238 43.7599 213.238 43.9369C213.238 44.1139 213.094 44.2586 212.917 44.2586Z" fill="#D0D2D3"/>
<path d="M151.343 38.2793H145.364V44.2586H151.343V38.2793Z" fill="#D0D2D3"/>
</g>
<defs>
<linearGradient id="paint0_linear_22_3212" x1="0.110634" y1="102.634" x2="86.6379" y2="102.634" gradientUnits="userSpaceOnUse">
<stop stop-color="#F9FCFF"/>
<stop offset="1" stop-color="#E7EDF7"/>
</linearGradient>
<linearGradient id="paint1_linear_22_3212" x1="0.110634" y1="83.7697" x2="86.6379" y2="83.7697" gradientUnits="userSpaceOnUse">
<stop stop-color="#1A58BF"/>
<stop offset="1" stop-color="#E5F2FF"/>
</linearGradient>
<linearGradient id="paint2_linear_22_3212" x1="26.6763" y1="121.618" x2="26.6763" y2="99.1205" gradientUnits="userSpaceOnUse">
<stop stop-color="#6773B5"/>
<stop offset="1" stop-color="#50D5D8"/>
</linearGradient>
<linearGradient id="paint3_linear_22_3212" x1="77.3549" y1="80.963" x2="77.3549" y2="86.6343" gradientUnits="userSpaceOnUse">
<stop stop-color="#F9FCFF"/>
<stop offset="1" stop-color="#E7EDF7"/>
</linearGradient>
<linearGradient id="paint4_linear_22_3212" x1="2.98029" y1="179.907" x2="85.9758" y2="179.907" gradientUnits="userSpaceOnUse">
<stop stop-color="#F9FCFF"/>
<stop offset="1" stop-color="#E7EDF7"/>
</linearGradient>
<linearGradient id="paint5_linear_22_3212" x1="2.98029" y1="150.596" x2="85.9758" y2="150.596" gradientUnits="userSpaceOnUse">
<stop stop-color="#1A58BF"/>
<stop offset="1" stop-color="#E5F2FF"/>
</linearGradient>
<linearGradient id="paint6_linear_22_3212" x1="71.5526" y1="146.234" x2="71.5526" y2="155.047" gradientUnits="userSpaceOnUse">
<stop stop-color="#F9FCFF"/>
<stop offset="1" stop-color="#E7EDF7"/>
</linearGradient>
<linearGradient id="paint7_linear_22_3212" x1="12.4216" y1="207.359" x2="12.4216" y2="181.095" gradientUnits="userSpaceOnUse">
<stop stop-color="#6773B5"/>
<stop offset="1" stop-color="#50D5D8"/>
</linearGradient>
<linearGradient id="paint8_linear_22_3212" x1="17.458" y1="207.36" x2="17.458" y2="181.095" gradientUnits="userSpaceOnUse">
<stop stop-color="#6773B5"/>
<stop offset="1" stop-color="#50D5D8"/>
</linearGradient>
<linearGradient id="paint9_linear_22_3212" x1="22.4926" y1="207.359" x2="22.4926" y2="181.095" gradientUnits="userSpaceOnUse">
<stop stop-color="#6773B5"/>
<stop offset="1" stop-color="#50D5D8"/>
</linearGradient>
<linearGradient id="paint10_linear_22_3212" x1="27.529" y1="207.359" x2="27.529" y2="181.095" gradientUnits="userSpaceOnUse">
<stop stop-color="#6773B5"/>
<stop offset="1" stop-color="#50D5D8"/>
</linearGradient>
<linearGradient id="paint11_linear_22_3212" x1="32.5637" y1="207.36" x2="32.5637" y2="181.095" gradientUnits="userSpaceOnUse">
<stop stop-color="#6773B5"/>
<stop offset="1" stop-color="#50D5D8"/>
</linearGradient>
<linearGradient id="paint12_linear_22_3212" x1="37.6" y1="207.359" x2="37.6" y2="181.095" gradientUnits="userSpaceOnUse">
<stop stop-color="#6773B5"/>
<stop offset="1" stop-color="#50D5D8"/>
</linearGradient>
<linearGradient id="paint13_linear_22_3212" x1="42.6347" y1="207.359" x2="42.6347" y2="181.095" gradientUnits="userSpaceOnUse">
<stop stop-color="#6773B5"/>
<stop offset="1" stop-color="#50D5D8"/>
</linearGradient>
<linearGradient id="paint14_linear_22_3212" x1="47.6711" y1="207.359" x2="47.6711" y2="181.095" gradientUnits="userSpaceOnUse">
<stop stop-color="#6773B5"/>
<stop offset="1" stop-color="#50D5D8"/>
</linearGradient>
<linearGradient id="paint15_linear_22_3212" x1="52.7058" y1="207.359" x2="52.7058" y2="181.095" gradientUnits="userSpaceOnUse">
<stop stop-color="#6773B5"/>
<stop offset="1" stop-color="#50D5D8"/>
</linearGradient>
<linearGradient id="paint16_linear_22_3212" x1="57.7422" y1="207.359" x2="57.7422" y2="181.095" gradientUnits="userSpaceOnUse">
<stop stop-color="#6773B5"/>
<stop offset="1" stop-color="#50D5D8"/>
</linearGradient>
<linearGradient id="paint17_linear_22_3212" x1="62.7768" y1="207.359" x2="62.7768" y2="181.095" gradientUnits="userSpaceOnUse">
<stop stop-color="#6773B5"/>
<stop offset="1" stop-color="#50D5D8"/>
</linearGradient>
<linearGradient id="paint18_linear_22_3212" x1="67.8132" y1="207.359" x2="67.8132" y2="181.095" gradientUnits="userSpaceOnUse">
<stop stop-color="#6773B5"/>
<stop offset="1" stop-color="#50D5D8"/>
</linearGradient>
<linearGradient id="paint19_linear_22_3212" x1="72.8479" y1="207.359" x2="72.8479" y2="181.095" gradientUnits="userSpaceOnUse">
<stop stop-color="#6773B5"/>
<stop offset="1" stop-color="#50D5D8"/>
</linearGradient>
<linearGradient id="paint20_linear_22_3212" x1="77.8842" y1="207.359" x2="77.8842" y2="181.095" gradientUnits="userSpaceOnUse">
<stop stop-color="#6773B5"/>
<stop offset="1" stop-color="#50D5D8"/>
</linearGradient>
<linearGradient id="paint21_linear_22_3212" x1="131.645" y1="244.789" x2="230.409" y2="244.789" gradientUnits="userSpaceOnUse">
<stop stop-color="#F9FCFF"/>
<stop offset="1" stop-color="#E7EDF7"/>
</linearGradient>
<linearGradient id="paint22_linear_22_3212" x1="131.645" y1="223.257" x2="230.409" y2="223.257" gradientUnits="userSpaceOnUse">
<stop stop-color="#1A58BF"/>
<stop offset="1" stop-color="#E5F2FF"/>
</linearGradient>
<linearGradient id="paint23_linear_22_3212" x1="188.955" y1="261.863" x2="225.706" y2="261.863" gradientUnits="userSpaceOnUse">
<stop stop-color="#6773B5"/>
<stop offset="1" stop-color="#50D5D8"/>
</linearGradient>
<linearGradient id="paint24_linear_22_3212" x1="199.259" y1="241.68" x2="226.47" y2="241.68" gradientUnits="userSpaceOnUse">
<stop stop-color="#F9FCFF"/>
<stop offset="1" stop-color="white"/>
</linearGradient>
<linearGradient id="paint25_linear_22_3212" x1="219.858" y1="220.283" x2="219.858" y2="226.758" gradientUnits="userSpaceOnUse">
<stop stop-color="#F9FCFF"/>
<stop offset="1" stop-color="#E7EDF7"/>
</linearGradient>
<linearGradient id="paint26_linear_22_3212" x1="252.493" y1="-0.000203142" x2="339.022" y2="-0.000203142" gradientUnits="userSpaceOnUse">
<stop stop-color="#F9FCFF"/>
<stop offset="1" stop-color="#E7EDF7"/>
</linearGradient>
<linearGradient id="paint27_linear_22_3212" x1="252.493" y1="-0.000209696" x2="339.022" y2="-0.000209696" gradientUnits="userSpaceOnUse">
<stop stop-color="#1A58BF"/>
<stop offset="1" stop-color="#E5F2FF"/>
</linearGradient>
<linearGradient id="paint28_linear_22_3212" x1="329.739" y1="80.963" x2="329.739" y2="86.6343" gradientUnits="userSpaceOnUse">
<stop stop-color="#F9FCFF"/>
<stop offset="1" stop-color="#E7EDF7"/>
</linearGradient>
<linearGradient id="paint29_linear_22_3212" x1="252.493" y1="179" x2="339.022" y2="179" gradientUnits="userSpaceOnUse">
<stop stop-color="#F9FCFF"/>
<stop offset="1" stop-color="#E7EDF7"/>
</linearGradient>
<linearGradient id="paint30_linear_22_3212" x1="252.493" y1="160.134" x2="339.022" y2="160.134" gradientUnits="userSpaceOnUse">
<stop stop-color="#1A58BF"/>
<stop offset="1" stop-color="#E5F2FF"/>
</linearGradient>
<linearGradient id="paint31_linear_22_3212" x1="329.739" y1="157.328" x2="329.739" y2="162.999" gradientUnits="userSpaceOnUse">
<stop stop-color="#F9FCFF"/>
<stop offset="1" stop-color="#E7EDF7"/>
</linearGradient>
<linearGradient id="paint32_linear_22_3212" x1="261.234" y1="184.275" x2="288.969" y2="184.275" gradientUnits="userSpaceOnUse">
<stop stop-color="#1A58BF"/>
<stop offset="1" stop-color="#E5F2FF"/>
</linearGradient>
<linearGradient id="paint33_linear_22_3212" x1="276.563" y1="188.766" x2="291.856" y2="188.766" gradientUnits="userSpaceOnUse">
<stop stop-color="#6773B5"/>
<stop offset="1" stop-color="#50D5D8"/>
</linearGradient>
<linearGradient id="paint34_linear_22_3212" x1="276.563" y1="177.804" x2="291.856" y2="177.804" gradientUnits="userSpaceOnUse">
<stop stop-color="#F58B21"/>
<stop offset="1" stop-color="#F5B419"/>
</linearGradient>
<linearGradient id="paint35_linear_22_3212" x1="140.147" y1="27.8679" x2="221.907" y2="27.8679" gradientUnits="userSpaceOnUse">
<stop stop-color="#F9FCFF"/>
<stop offset="1" stop-color="#E7EDF7"/>
</linearGradient>
<linearGradient id="paint36_linear_22_3212" x1="140.147" y1="10.0423" x2="221.907" y2="10.0423" gradientUnits="userSpaceOnUse">
<stop stop-color="#1A58BF"/>
<stop offset="1" stop-color="#E5F2FF"/>
</linearGradient>
<linearGradient id="paint37_linear_22_3212" x1="213.172" y1="7.58094" x2="213.172" y2="12.9407" gradientUnits="userSpaceOnUse">
<stop stop-color="#F9FCFF"/>
<stop offset="1" stop-color="#E7EDF7"/>
</linearGradient>
<clipPath id="clip0_22_3212">
<rect width="339.131" height="272" fill="white"/>
</clipPath>
</defs>
</svg>
