<svg width="124" height="42" viewBox="0 0 124 42" fill="none" xmlns="http://www.w3.org/2000/svg">
<g clip-path="url(#clip0_22_2187)">
<path d="M98.6062 4.12626L108.924 2.29357V41.5771H98.6062V4.12626ZM113.671 4.12626V41.5771H123.995V2.29357L113.671 4.12626ZM83.9079 41.5717H94.2317V12.8451H83.9079V41.5717ZM15.6934 16.9063C14.3866 16.8195 11.3682 16.6297 11.3682 13.9295C11.3682 10.6762 15.7153 10.6762 17.3503 10.6762C20.221 10.6762 23.9339 11.5167 26.5859 12.3029C26.5859 12.3029 28.0677 12.818 29.3254 13.3493L29.4402 13.3819V4.47328L29.2816 4.42448C26.1539 3.34005 22.5121 2.29357 15.7645 2.29357C4.12294 2.29357 0 9.01704 0 14.7754C0 18.0937 1.43264 25.907 14.7584 26.8071C15.8903 26.8776 18.8868 27.0457 18.8868 29.8327C18.8868 32.1317 16.4316 33.4926 12.3032 33.4926C7.7811 33.4926 3.39022 32.3486 0.721789 31.2641V40.4438C4.7135 41.4795 9.20827 42 14.485 42C25.8641 42 30.9604 35.6398 30.9604 29.3393C30.9604 22.1929 25.2571 17.5515 15.6934 16.9117V16.9063ZM78.0953 12.4222C68.5535 12.7258 63.7142 16.9713 63.7142 25.4082V41.5717H74.1255V28.3904C74.1255 23.3369 74.7926 21.1735 80.8403 20.9675V12.574C79.8232 12.3571 78.1008 12.4276 78.1008 12.4276L78.0953 12.4222ZM50.0932 12.8125C49.8636 13.3873 48.2122 18.0124 44.215 22.811V2.29357L33.5632 4.3811V41.5771H44.215V30.0821C47.299 34.6693 48.8246 41.5771 48.8246 41.5771H61.5817C60.3186 36.3772 54.8012 26.78 54.8012 26.78C59.7553 20.55 61.9316 13.9132 62.2761 12.8125H50.0932ZM89.0753 10.0906C91.8859 10.0906 94.1661 7.83501 94.1661 5.04803C94.1661 2.26104 91.8859 0 89.0753 0C86.2647 0 83.9899 2.26104 83.9899 5.04803C83.9899 7.83501 86.2701 10.0906 89.0753 10.0906Z" fill="#862165"/>
</g>
<defs>
<clipPath id="clip0_22_2187">
<rect width="124" height="42" fill="white"/>
</clipPath>
</defs>
</svg>
