<svg width="110" height="46" viewBox="0 0 110 46" fill="none" xmlns="http://www.w3.org/2000/svg">
<g clip-path="url(#clip0_22_2164)">
<path d="M7.73056 17.9453C7.73056 16.753 8.70833 16.2944 10.3278 16.2944C12.65 16.2944 15.5833 16.9976 17.9056 18.251V11.0667C15.3694 10.0579 12.8639 9.66048 10.3278 9.66048C4.125 9.66048 0 12.901 0 18.3121C0 26.7497 11.6111 25.4046 11.6111 29.0426C11.6111 30.4488 10.3889 30.9074 8.67778 30.9074C6.14167 30.9074 2.90278 29.868 0.336111 28.4617V35.7377C3.17778 36.9605 6.05 37.4802 8.67778 37.4802C15.0333 37.4802 19.4028 34.3314 19.4028 28.8591C19.3722 19.749 7.73056 21.3692 7.73056 17.9453ZM28.3861 3.54625L20.9306 5.13595L20.9 29.6234C20.9 34.148 24.2917 37.4802 28.8139 37.4802C31.3194 37.4802 33.1528 37.0216 34.1611 36.4714V30.2654C33.1833 30.6628 28.3556 32.0691 28.3556 27.5446V16.6918H34.1611V10.1802H28.3556L28.3861 3.54625ZM43.6639 12.4425L43.175 10.1802H36.575V36.9299H44.2139V18.8012C46.0167 16.4473 49.0722 16.8753 50.0194 17.2115V10.1802C49.0417 9.81333 45.4667 9.14077 43.6639 12.4425ZM51.8833 10.1802H59.5528V36.9299H51.8833V10.1802ZM51.8833 7.85678L59.5528 6.20594V0L51.8833 1.62027V7.85678ZM75.5028 9.66048C72.5083 9.66048 70.5833 11.0668 69.5139 12.045L69.1167 10.1496H62.3944V45.7956L70.0333 44.1753L70.0639 35.5237C71.1639 36.3185 72.7833 37.4496 75.4722 37.4496C80.9417 37.4496 85.9222 33.0474 85.9222 23.3563C85.8917 14.4907 80.85 9.66048 75.5028 9.66048ZM73.6694 30.724C71.8667 30.724 70.7972 30.082 70.0639 29.2871L70.0333 17.9453C70.8278 17.0587 71.9278 16.4473 73.6694 16.4473C76.45 16.4473 78.375 19.5655 78.375 23.5703C78.375 27.6669 76.4806 30.724 73.6694 30.724ZM110 23.6621C110 15.8358 106.211 9.66048 98.9694 9.66048C91.6972 9.66048 87.2972 15.8358 87.2972 23.6009C87.2972 32.8028 92.4917 37.4496 99.9472 37.4496C103.583 37.4496 106.333 36.6242 108.411 35.4625V29.3483C106.333 30.3877 103.95 31.0297 100.925 31.0297C97.9611 31.0297 95.3333 29.9903 94.9972 26.3829H109.939C109.939 25.9855 110 24.3958 110 23.6621ZM94.9056 20.7578C94.9056 17.3033 97.0139 15.8664 98.9389 15.8664C100.803 15.8664 102.789 17.3033 102.789 20.7578H94.9056Z" fill="#6772E5"/>
</g>
<defs>
<clipPath id="clip0_22_2164">
<rect width="110" height="46" fill="white"/>
</clipPath>
</defs>
</svg>
