<svg width="170" height="44" viewBox="0 0 170 44" fill="none" xmlns="http://www.w3.org/2000/svg">
<path d="M98.4024 0.623535H95.0874V9.03856C93.7557 7.87689 92.169 7.16855 89.364 7.16855C84.689 7.16855 80.014 10.2569 80.014 18.8702C80.014 21.5336 80.524 23.7153 81.4306 25.3869C80.7506 25.5853 80.0706 25.7269 79.334 25.7269C77.464 25.7269 76.5573 25.1036 76.5573 22.9219V17.3119V4.05188C76.5573 1.13354 76.2173 0.623535 74.1773 0.623535H70.8906V17.3119V22.9503V23.6303C70.8906 28.5603 73.2423 29.7503 76.4156 29.7503C78.8523 29.7503 81.3456 28.9286 83.3007 27.7669C84.8023 29.0986 86.7007 29.7503 88.7973 29.7503C91.6873 29.7503 93.8124 28.5319 95.229 26.9453C95.484 28.9853 96.0224 29.4386 96.9857 29.4386H100.811V3.99521C100.811 1.16187 100.471 0.623535 98.4024 0.623535ZM95.0874 23.5736C93.5574 24.8769 92.339 25.5003 90.5257 25.5003C87.6073 25.5003 86.1907 23.5736 86.1907 18.5586C86.1907 13.0902 88.7407 11.8436 91.234 11.8436C92.9057 11.8436 94.124 12.2119 95.0874 12.9202V23.5736Z" fill="#006EAB"/>
<path d="M61.54 10.1717C61.3416 7.99006 60.7183 7.70672 59.67 7.70672H55.8733V29.4668H61.6533V13.6284C62.815 13.0051 64.94 12.3251 67.9717 12.3251H69.02V7.5084C68.595 7.36673 68.1417 7.31006 67.6883 7.31006C64.9116 7.31006 62.9283 8.6984 61.54 10.1717Z" fill="#006EAB"/>
<path d="M118.434 6.48835C120.275 6.48835 121.72 5.07168 121.72 3.25835C121.72 1.47334 120.247 0 118.434 0C116.592 0 115.09 1.47334 115.09 3.25835C115.09 5.04335 116.592 6.48835 118.434 6.48835Z" fill="#006EAB"/>
<path d="M42.925 30.0052C49.1301 30.0052 54.3434 24.9335 54.3434 18.5868C54.3434 13.8551 51.4534 9.80347 47.3734 8.07513C46.0134 7.50846 44.5117 7.16846 42.925 7.16846C42.5284 7.16846 42.1317 7.19679 41.735 7.25345C40.3467 9.12346 39.5534 11.4468 39.5534 13.9685C39.5534 18.7002 42.4434 22.7518 46.5234 24.4802C45.5034 25.2168 44.2567 25.6135 42.9534 25.6135C39.3267 25.6135 36.38 22.4685 36.38 18.5868C36.38 16.9151 36.9184 15.3851 37.8534 14.1668C37.8534 12.3818 38.4767 9.1518 39.44 7.73513C34.85 9.20846 31.5633 13.6001 31.5633 18.5868C31.535 24.9335 36.72 30.0052 42.925 30.0052ZM44.3701 13.9685C44.3701 13.2318 44.4834 12.4951 44.6817 11.8151C47.4584 12.6368 49.5267 15.3568 49.5267 18.5868C49.5267 19.3235 49.4134 20.0602 49.2151 20.7402C46.4101 19.9185 44.3701 17.1985 44.3701 13.9685Z" fill="#006EAB"/>
<path d="M170 18.0486C170 10.8236 166.572 7.28189 160.14 7.28189C154.049 7.28189 149.459 11.6169 149.459 18.6719C149.459 21.3353 150.025 23.5736 151.159 25.3586C150.394 25.5853 149.572 25.7836 148.722 25.7836C147.079 25.7836 146.2 25.3019 146.002 23.7436V13.2319C146.002 8.30189 143.282 7.08356 140.108 7.08356C137.19 7.08356 134.555 8.33022 132.515 9.83189C132.26 7.93355 131.665 7.70689 130.645 7.70689H126.848V24.5653C125.998 24.8486 125.092 25.0753 124.128 25.0753C122.287 25.0753 121.38 24.4519 121.352 22.3553V11.7019C121.352 8.35856 121.068 7.70689 119.057 7.70689H115.685V16.7169V23.0353V23.1203V25.2169C114.807 25.5003 113.872 25.7553 112.852 25.7553C110.982 25.7553 110.075 25.1319 110.075 22.9786V4.05188C110.075 1.13354 109.735 0.623535 107.695 0.623535H104.408V17.3686V22.9503V23.7153C104.408 28.6169 106.76 29.8353 109.933 29.8353C112.455 29.8353 115.062 28.9569 117.045 27.7386C118.037 28.8153 119.51 29.1553 121.21 29.1553C123.165 29.1553 125.148 28.6453 126.848 27.8519V29.4669H132.6V13.0619C133.988 12.5519 135.688 12.0702 137.558 12.0702C139.428 12.0702 140.278 12.6936 140.278 14.8752V17.3969V23.7436C140.278 28.6453 142.658 29.8636 145.803 29.8636C148.438 29.8636 151.159 28.9003 153.17 27.5969C154.984 29.0419 157.505 29.8636 160.594 29.8636C164.985 29.8636 167.45 28.7303 169.207 27.7386V23.7153H167.337C165.92 24.7636 163.994 25.5569 161.529 25.5569C158.157 25.5569 156.06 24.3386 155.777 19.9469H169.972C169.915 19.7203 170 18.7852 170 18.0486ZM155.805 16.2352C156.259 12.1552 158.015 11.1069 160.14 11.1069C162.52 11.1069 163.852 12.3536 163.994 16.2352H155.805Z" fill="#006EAB"/>
<path d="M2.35167 12.3532L7.25335 29.5516H12.07L16.2067 15.5266L20.3151 29.5516H25.1317L30.1184 12.3816C30.3167 11.7582 30.7134 11.4466 31.2517 11.4466H32.5268V7.70654H23.2334V11.4466H24.7351C25.0184 11.4466 25.4151 11.4749 25.5567 11.6732C25.6701 11.8149 25.7551 12.1832 25.5001 13.0899L23.0634 22.0149L18.9267 7.73488H14.4784L10.3417 22.0149L7.45169 11.4749H9.69003V7.73488H0V11.4749H1.36C1.785 11.4466 2.18167 11.8149 2.35167 12.3532Z" fill="#006EAB"/>
<path d="M79.5037 38.8169C79.5604 39.9219 80.042 40.4035 80.9204 40.4035C81.6004 40.4035 81.8554 40.1485 82.1387 39.8085H83.0171V40.8285C82.5637 41.1119 81.9687 41.3669 80.807 41.3669C78.8804 41.3669 77.9454 40.2902 77.9454 38.5619C77.9454 36.7769 79.0504 35.7002 80.722 35.7002C82.3654 35.7002 83.2437 36.5502 83.2437 38.4202C83.2437 38.6185 83.2154 38.7885 83.2154 38.8452H79.5037V38.8169ZM79.532 37.9385H81.6854C81.6287 36.9752 81.3454 36.6069 80.722 36.6069C80.042 36.6069 79.6454 37.0035 79.532 37.9385Z" fill="#006EAB"/>
<path d="M86.0487 37.5981H83.6121V38.7315H86.0487V37.5981Z" fill="#006EAB"/>
<path d="M86.4165 42.1602H86.7848C86.8981 42.1602 87.0398 42.0186 87.0398 41.9052V36.9752C87.0398 36.8619 86.8981 36.6919 86.7848 36.6919H86.3881V35.7569H88.2581C88.4281 35.7569 88.5415 35.8702 88.5698 36.4085C88.9665 36.0119 89.5048 35.6719 90.2415 35.6719C91.2898 35.6719 92.3098 36.4369 92.3098 38.3919C92.3098 40.4319 91.0915 41.1686 89.9298 41.1686C89.3065 41.1686 88.8815 41.0269 88.5698 40.8002V42.1602H89.2781V42.9819H86.4165V42.1602ZM88.5698 36.9752V40.0636C88.7965 40.2052 89.0798 40.3186 89.4765 40.3186C90.0998 40.3186 90.7798 40.0352 90.7798 38.5619C90.7798 37.1735 90.1848 36.8052 89.5048 36.8052C89.2215 36.7769 88.8815 36.8619 88.5698 36.9752Z" fill="#006EAB"/>
<path d="M92.5934 39.6952C92.5934 38.5335 93.5001 38.0235 94.7751 38.0235C95.2285 38.0235 95.5401 38.0802 95.9085 38.1369V37.5702C95.9085 37.0035 95.5968 36.7485 94.9451 36.7485C94.2935 36.7485 93.9535 37.0035 93.6701 37.2302H92.9618V36.0969C93.4718 35.8702 94.1801 35.6719 95.2568 35.6719C96.6735 35.6719 97.4385 36.1252 97.4385 37.4002V40.1486C97.4385 40.2619 97.5801 40.4035 97.6935 40.4035H97.9768V41.1402C97.7785 41.2536 97.4385 41.3386 97.0418 41.3386C96.3901 41.3386 96.0785 41.0836 95.9368 40.6586C95.5401 41.1686 95.0018 41.3386 94.3501 41.3386C93.3301 41.3669 92.5934 40.7719 92.5934 39.6952ZM95.8801 40.0636V38.8735C95.6251 38.8452 95.3701 38.8169 95.0585 38.8169C94.4351 38.8169 94.0668 39.0719 94.0668 39.6386C94.0668 40.2052 94.3785 40.4602 94.9168 40.4602C95.3135 40.4602 95.6251 40.2902 95.8801 40.0636Z" fill="#006EAB"/>
<path d="M98.9969 42.9819V42.1602C99.5919 41.9902 100.102 41.6785 100.499 41.1969L98.6852 36.9752C98.6002 36.8052 98.5152 36.6918 98.3452 36.6918H98.1469V35.7568H100.81V36.6918H100.074L101.264 39.5535L102.142 37.4002C102.312 37.0035 102.34 36.7202 101.887 36.7202H101.717V35.7852H104.154V36.7202H103.927C103.785 36.7202 103.644 36.8335 103.559 37.0602L101.745 41.1402C101.32 42.0752 100.754 42.6985 100.244 43.0385H98.9969V42.9819Z" fill="#006EAB"/>
<path d="M104.38 40.4035H104.748C104.862 40.4035 105.003 40.2619 105.003 40.1486V36.9752C105.003 36.8619 104.862 36.6919 104.748 36.6919H104.352V35.7569H106.222C106.392 35.7569 106.505 35.8985 106.533 36.4935C106.987 36.0969 107.667 35.6719 108.488 35.6719C109.083 35.6719 109.622 35.8702 109.82 36.5219C110.302 36.1252 110.954 35.6719 111.832 35.6719C112.569 35.6719 113.22 35.9835 113.22 37.0602V40.1486C113.22 40.2619 113.362 40.4035 113.475 40.4035H113.759V41.2819H111.067V40.4035H111.662V37.5419C111.662 37.0035 111.492 36.8902 111.01 36.8902C110.613 36.8902 110.189 36.9752 109.849 37.0885V40.4319H110.443V41.3102H107.723V40.4319H108.318V37.5702C108.318 37.0319 108.148 36.9185 107.667 36.9185C107.27 36.9185 106.845 37.0035 106.505 37.1169V40.4602H107.1V41.3386H104.323V40.4035H104.38Z" fill="#006EAB"/>
<path d="M115.6 38.8169C115.657 39.9219 116.139 40.4035 117.017 40.4035C117.697 40.4035 117.952 40.1485 118.235 39.8085H119.114V40.8285C118.66 41.1119 118.065 41.3669 116.904 41.3669C114.977 41.3669 114.042 40.2902 114.042 38.5619C114.042 36.7769 115.147 35.7002 116.819 35.7002C118.462 35.7002 119.34 36.5502 119.34 38.4202C119.34 38.6185 119.312 38.7885 119.312 38.8452H115.6V38.8169ZM115.629 37.9385H117.782C117.725 36.9752 117.442 36.6069 116.79 36.6069C116.167 36.6069 115.742 37.0035 115.629 37.9385Z" fill="#006EAB"/>
<path d="M119.539 40.4035H119.907C120.02 40.4035 120.162 40.2619 120.162 40.1486V36.9752C120.162 36.8619 120.02 36.6919 119.907 36.6919H119.51V35.7569H121.38C121.55 35.7569 121.664 35.8985 121.692 36.4652C122.202 35.9835 122.91 35.6719 123.732 35.6719C124.497 35.6719 125.149 35.9835 125.149 37.0602V40.1486C125.149 40.2619 125.29 40.4035 125.404 40.4035H125.687V41.2819H122.967V40.4035H123.59V37.5702C123.59 37.0319 123.392 36.8619 122.854 36.8619C122.4 36.8619 122.004 36.9469 121.635 37.0602V40.3752H122.287V41.2536H119.482V40.4035H119.539Z" fill="#006EAB"/>
<path d="M125.885 35.7565H126.537V34.2832H128.067V35.7565H129.172V36.6915H128.067V39.7232C128.067 40.3182 128.265 40.4032 128.832 40.4032H129.2V41.2249C128.974 41.3099 128.634 41.3666 128.209 41.3666C127.16 41.3666 126.509 41.0266 126.509 39.8932V36.6915H125.857V35.7565H125.885Z" fill="#006EAB"/>
<path d="M131.241 41.0552V39.8086H132.119C132.232 40.2052 132.742 40.4319 133.224 40.4319C133.819 40.4319 134.159 40.1769 134.159 39.7802C134.159 39.3836 133.904 39.2136 133.026 39.0719C131.836 38.9019 131.269 38.5052 131.269 37.4002C131.269 36.2952 132.119 35.6719 133.507 35.6719C134.357 35.6719 134.952 35.7569 135.406 35.9269V37.1452H134.556C134.386 36.8335 134.046 36.6069 133.451 36.6069C132.884 36.6069 132.572 36.8335 132.572 37.1735C132.572 37.5135 132.771 37.7119 133.706 37.8535C135.037 38.0519 135.576 38.4202 135.576 39.5252C135.576 40.6019 134.839 41.3102 133.167 41.3102C132.232 41.3669 131.694 41.1969 131.241 41.0552Z" fill="#006EAB"/>
<path d="M137.446 38.8169C137.503 39.9219 137.984 40.4035 138.863 40.4035C139.543 40.4035 139.798 40.1485 140.081 39.8085H140.959V40.8285C140.506 41.1119 139.911 41.3669 138.749 41.3669C136.823 41.3669 135.888 40.2902 135.888 38.5619C135.888 36.7769 136.993 35.7002 138.664 35.7002C140.308 35.7002 141.186 36.5502 141.186 38.4202C141.186 38.6185 141.158 38.7885 141.158 38.8452H137.446V38.8169ZM137.474 37.9385H139.628C139.571 36.9752 139.288 36.6069 138.664 36.6069C138.013 36.6069 137.588 37.0035 137.474 37.9385Z" fill="#006EAB"/>
<path d="M141.384 40.4035H141.752C141.865 40.4035 142.007 40.2619 142.007 40.1485V36.9752C142.007 36.8619 141.865 36.6919 141.752 36.6919H141.355V35.7569H143.225C143.395 35.7569 143.509 35.9269 143.537 36.5502C143.905 36.0969 144.33 35.7002 145.067 35.7002C145.18 35.7002 145.294 35.7285 145.407 35.7569V36.8902H145.152C144.359 36.8902 143.877 37.0602 143.565 37.2302V40.4035H144.33V41.2819H141.384V40.4035Z" fill="#006EAB"/>
<path d="M146.115 36.9752C146.059 36.8052 145.917 36.6918 145.775 36.6918H145.577V35.7568H148.269V36.6918H147.589L148.722 39.8368H148.75L149.657 37.3718C149.799 36.9752 149.855 36.6918 149.374 36.6918H149.204V35.7568H151.527V36.6918H151.357C151.187 36.6918 151.045 36.8052 150.96 37.0318L149.204 41.3102H147.872L146.115 36.9752Z" fill="#006EAB"/>
<path d="M151.726 40.404H152.122C152.236 40.404 152.377 40.2623 152.377 40.149V36.9756C152.377 36.8623 152.264 36.6923 152.122 36.6923H151.669V35.7573H153.652C153.822 35.7573 153.907 35.9273 153.907 36.3523V40.149C153.907 40.2623 154.049 40.404 154.162 40.404H154.559V41.2823H151.697V40.404H151.726ZM152.292 34.539C152.292 34.0856 152.661 33.7173 153.114 33.7173C153.567 33.7173 153.936 34.0856 153.936 34.539C153.936 34.9923 153.567 35.3606 153.114 35.3606C152.661 35.3323 152.292 34.9923 152.292 34.539Z" fill="#006EAB"/>
<path d="M154.785 38.5336C154.785 36.7485 155.919 35.6719 157.732 35.6719C158.639 35.6719 159.234 35.7852 159.602 35.9552V37.2302H158.667C158.469 36.8619 158.242 36.6635 157.704 36.6635C156.882 36.6635 156.372 37.2585 156.372 38.5619C156.372 39.8652 156.797 40.4035 157.704 40.4035C158.384 40.4035 158.667 40.0919 158.894 39.8086H159.63V40.8852C159.234 41.1119 158.61 41.3386 157.675 41.3386C155.749 41.3669 154.785 40.3186 154.785 38.5336Z" fill="#006EAB"/>
<path d="M161.642 38.8169C161.699 39.9219 162.18 40.4035 163.059 40.4035C163.739 40.4035 163.994 40.1485 164.277 39.8085H165.155V40.8285C164.702 41.1119 164.107 41.3669 162.945 41.3669C161.019 41.3669 160.084 40.2902 160.084 38.5619C160.084 36.7769 161.189 35.7002 162.86 35.7002C164.504 35.7002 165.382 36.5502 165.382 38.4202C165.382 38.6185 165.354 38.7885 165.354 38.8452H161.642V38.8169ZM161.67 37.9385H163.824C163.767 36.9752 163.484 36.6069 162.832 36.6069C162.209 36.6069 161.784 37.0035 161.67 37.9385Z" fill="#006EAB"/>
<path d="M165.608 41.0552V39.8086H166.487C166.6 40.2052 167.11 40.4319 167.592 40.4319C168.187 40.4319 168.527 40.1769 168.527 39.7802C168.527 39.3836 168.272 39.2136 167.393 39.0719C166.203 38.9019 165.637 38.5052 165.637 37.4002C165.637 36.2952 166.487 35.6719 167.875 35.6719C168.725 35.6719 169.32 35.7569 169.773 35.9269V37.1452H168.923C168.753 36.8335 168.413 36.6069 167.818 36.6069C167.252 36.6069 166.94 36.8335 166.94 37.1735C166.94 37.5135 167.138 37.7119 168.073 37.8535C169.405 38.0519 169.943 38.4202 169.943 39.5252C169.943 40.6019 169.207 41.3102 167.535 41.3102C166.628 41.3669 166.062 41.1969 165.608 41.0552Z" fill="#006EAB"/>
</svg>
